<?xml version="1.0" encoding="utf-8"?>
<!-- Generator: Adobe Illustrator 18.1.1, SVG Export Plug-In . SVG Version: 6.00 Build 0)  -->
<!DOCTYPE svg PUBLIC "-//W3C//DTD SVG 1.1//EN" "http://www.w3.org/Graphics/SVG/1.1/DTD/svg11.dtd">
<svg version="1.1" id="Layer_1" xmlns="http://www.w3.org/2000/svg" xmlns:xlink="http://www.w3.org/1999/xlink" x="0px" y="0px"
	 viewBox="0 0 1920 1080" enable-background="new 0 0 1920 1080" xml:space="preserve">
<g>
	<g>
		<g>
			<g>
				<path fill="#1E7A85" d="M652,408v57.3h68.8V408H652z M713.9,458.1h-55v-35.8h55V458.1z"/>
			</g>
		</g>
	</g>
	<g>
		<g>
			<g>
				<path fill="#1E7A85" d="M566.6,408v57.3h68.8V408H566.6z M628.5,458.1h-55v-35.8h55V458.1z"/>
			</g>
		</g>
	</g>
	<g>
		<g>
			<g>
				<path fill="#1E7A85" d="M481.2,408v57.3h68.8V408H481.2z M543,458.1h-55v-35.8h55V458.1z"/>
			</g>
		</g>
	</g>
	<g>
		<path fill="#1E7A85" d="M735.7,567.4H465.7v-93.8h270.1V567.4z M467.1,565.9h267.1v-90.8H467.1V565.9z"/>
	</g>
	<g>
		<g>
			<g>
				<path fill="#1E7A85" d="M920.6,408v57.3h68.8V408H920.6z M982.5,458.1h-55v-35.8h55V458.1z"/>
			</g>
		</g>
	</g>
	<g>
		<g>
			<g>
				<path fill="#1E7A85" d="M835.2,408v57.3H904V408H835.2z M897.1,458.1h-55v-35.8h55V458.1z"/>
			</g>
		</g>
	</g>
	<g>
		<g>
			<g>
				<path fill="#1E7A85" d="M749.8,408v57.3h68.8V408H749.8z M811.6,458.1h-55v-35.8h55V458.1z"/>
			</g>
		</g>
	</g>
	<g>
		<path fill="#1E7A85" d="M1004.3,567.4H734.3v-93.8h270.1V567.4z M735.7,565.9h267.1v-90.8H735.7V565.9z"/>
	</g>
	<g>
		<g>
			<g>
				<path fill="#1E7A85" d="M1189.2,408v57.3h68.8V408H1189.2z M1251.1,458.1h-55v-35.8h55V458.1z"/>
			</g>
		</g>
	</g>
	<g>
		<g>
			<g>
				<path fill="#1E7A85" d="M1103.8,408v57.3h68.8V408H1103.8z M1165.7,458.1h-55v-35.8h55V458.1z"/>
			</g>
		</g>
	</g>
	<g>
		<g>
			<g>
				<path fill="#1E7A85" d="M1018.3,408v57.3h68.8V408H1018.3z M1080.2,458.1h-55v-35.8h55V458.1z"/>
			</g>
		</g>
	</g>
	<g>
		<path fill="#1E7A85" d="M1272.9,567.4h-270.1v-93.8h270.1V567.4z M1004.3,565.9h267.1v-90.8h-267.1V565.9z"/>
	</g>
	<g>
		<path fill="#1E7A85" d="M1365.2,659.7h-93.7v-186h93.7V659.7z M1272.9,658.2h90.8V475.1h-90.8V658.2z"/>
	</g>
	<g>
		<path fill="#1E7A85" d="M467.1,659.7h-93.7v-186h93.7V659.7z M374.8,658.2h90.8V475.1h-90.8V658.2z"/>
	</g>
	<g>
		<g>
			<g>
				<path fill="#1E7A85" d="M1086.6,725.3V668h-68.8v57.3H1086.6z M1024.7,675.1h55v35.8h-55V675.1z"/>
			</g>
		</g>
	</g>
	<g>
		<g>
			<g>
				<path fill="#1E7A85" d="M1172,725.3V668h-68.8v57.3H1172z M1110.1,675.1h55v35.8h-55V675.1z"/>
			</g>
		</g>
	</g>
	<g>
		<g>
			<g>
				<path fill="#1E7A85" d="M1257.4,725.3V668h-68.8v57.3H1257.4z M1195.6,675.1h55v35.8h-55V675.1z"/>
			</g>
		</g>
	</g>
	<g>
		<path fill="#1E7A85" d="M1272.9,659.7h-270.1v-93.7h270.1V659.7z M1004.3,658.2h267.1v-90.8h-267.1V658.2z"/>
	</g>
	<g>
		<g>
			<g>
				<path fill="#1E7A85" d="M818,725.3V668h-68.8v57.3H818z M756.1,675.1h55v35.8h-55V675.1z"/>
			</g>
		</g>
	</g>
	<g>
		<g>
			<g>
				<path fill="#1E7A85" d="M903.4,725.3V668h-68.8v57.3H903.4z M841.5,675.1h55v35.8h-55V675.1z"/>
			</g>
		</g>
	</g>
	<g>
		<g>
			<g>
				<path fill="#1E7A85" d="M988.8,725.3V668h-68.8v57.3H988.8z M927,675.1h55v35.8h-55V675.1z"/>
			</g>
		</g>
	</g>
	<g>
		<path fill="#1E7A85" d="M1004.3,659.7H734.3v-93.7h270.1V659.7z M735.7,658.2h267.1v-90.8H735.7V658.2z"/>
	</g>
	<g>
		<g>
			<g>
				<path fill="#1E7A85" d="M549.4,725.3V668h-68.8v57.3H549.4z M487.5,675.1h55v35.8h-55V675.1z"/>
			</g>
		</g>
	</g>
	<g>
		<g>
			<g>
				<path fill="#1E7A85" d="M634.8,725.3V668H566v57.3H634.8z M572.9,675.1h55v35.8h-55V675.1z"/>
			</g>
		</g>
	</g>
	<g>
		<g>
			<g>
				<path fill="#1E7A85" d="M720.2,725.3V668h-68.8v57.3H720.2z M658.4,675.1h55v35.8h-55V675.1z"/>
			</g>
		</g>
	</g>
	<g>
		<path fill="#1E7A85" d="M735.7,659.7H465.7v-93.7h270.1V659.7z M467.1,658.2h267.1v-90.8H467.1V658.2z"/>
	</g>
	<g>
		<g>
			<g>
				<path fill="#1E7A85" d="M307.8,557.4h57.3v-68.8h-57.3V557.4z M357.9,495.5v55h-35.8v-55H357.9z"/>
			</g>
		</g>
	</g>
	<g>
		<g>
			<g>
				<path fill="#1E7A85" d="M307.8,644.6h57.3v-68.8h-57.3V644.6z M357.9,582.7v55h-35.8v-55H357.9z"/>
			</g>
		</g>
	</g>
	<g>
		<g>
			<g>
				<path fill="#1E7A85" d="M1430,575.9h-57.3v68.8h57.3V575.9z M1379.9,637.7v-55h35.8v55H1379.9z"/>
			</g>
		</g>
	</g>
	<g>
		<g>
			<g>
				<path fill="#1E7A85" d="M1430,488.7h-57.3v68.8h57.3V488.7z M1379.9,550.5v-55h35.8v55H1379.9z"/>
			</g>
		</g>
	</g>
</g>
</svg>
