<?xml version="1.0" encoding="utf-8"?>
<!-- Generator: Adobe Illustrator 18.1.1, SVG Export Plug-In . SVG Version: 6.00 Build 0)  -->
<!DOCTYPE svg PUBLIC "-//W3C//DTD SVG 1.1//EN" "http://www.w3.org/Graphics/SVG/1.1/DTD/svg11.dtd">
<svg version="1.1" id="Layer_1" xmlns="http://www.w3.org/2000/svg" xmlns:xlink="http://www.w3.org/1999/xlink" x="0px" y="0px"
	 viewBox="0 0 1920 1080" enable-background="new 0 0 1920 1080" xml:space="preserve">
<g>
	<g>
		<g>
			<polygon fill="#FFFFFF" points="1401.3,259.3 1401.3,355.6 1500.6,355.6 1500.6,259.3 1465.2,259.3 1465.2,244.5 1477,244.5 
				1451,212.3 1425,244.5 1436.8,244.5 1436.8,259.3 			"/>
			<path fill="#1E7A85" d="M1501.3,356.3h-100.7v-97.7h35.5v-13.4h-12.6l27.5-34.1l27.5,34.1h-12.6v13.4h35.5V356.3z M1402,354.8
				h97.8V260h-35.5v-16.3h11l-24.5-30.3l-24.5,30.3h11V260H1402V354.8z"/>
		</g>
	</g>
	<g>
		<g>
			<polygon fill="#FFFFFF" points="261.7,141 357.9,141 357.9,41.8 261.7,41.8 261.7,77.2 246.9,77.2 246.9,65.4 214.6,91.4 
				246.9,117.4 246.9,105.6 261.7,105.6 			"/>
			<path fill="#1E7A85" d="M358.7,141.8h-97.7v-35.5h-13.4v12.6l-34.1-27.5l34.1-27.5v12.6h13.4V41h97.7V141.8z M262.4,140.3h94.8
				V42.5h-94.8v35.5h-16.3v-11l-30.3,24.5l30.3,24.5v-11h16.3V140.3z"/>
		</g>
	</g>
</g>
<g>
	<path fill="#1E7A85" d="M317.7,85.4l12.8,2.9l-42.4,32.8l15.2-25.7l-12.8-2.9l42.4-31.4L317.7,85.4z"/>
</g>
<g>
	<path fill="#1E7A85" d="M1459.1,301.4l12.8,2.9l-42.4,32.8l15.2-25.7l-12.8-2.9l42.4-31.4L1459.1,301.4z"/>
</g>
</svg>
