<?xml version="1.0" encoding="UTF-8" standalone="no"?>
<!DOCTYPE svg PUBLIC "-//W3C//DTD SVG 1.1//EN" "http://www.w3.org/Graphics/SVG/1.1/DTD/svg11.dtd">
<svg xmlns="http://www.w3.org/2000/svg">
<metadata>
This is a custom SVG webfont generated by Font Squirrel.
Copyright   : Copyright 1990 as an unpublished work by Bitstream Inc  All rights reserved  Confidential
Foundry     : as an unpublished work by Bitstream Inc
</metadata>
<defs>
<font id="ClarendonRegular" horiz-adv-x="1024">
<font-face units-per-em="2048" ascent="1638" descent="-410"/>
<missing-glyph horiz-adv-x="651"/>
<glyph unicode=" " horiz-adv-x="651"/>
<glyph unicode="	" horiz-adv-x="651"/>
<glyph unicode=" " horiz-adv-x="651"/>
<glyph unicode="!" horiz-adv-x="647" d="M129 1176q0 113 53.5 177t145.5 64q84 0 136 -57t52 -156q0 -86 -13.5 -175t-29.5 -185t-31.5 -199.5t-21.5 -214.5h-191q-12 135 -29.5 248t-32.5 206t-26.5 166t-11.5 126zM152 133q0 72 50 122t122 50t123 -50t51 -122t-50.5 -123t-123.5 -51q-74 0 -123 50t-49 124z "/>
<glyph unicode="&quot;" horiz-adv-x="716" d="M74 1346q0 55 29.5 86.5t80.5 31.5t82 -31.5t31 -84.5q0 -10 -1 -19.5t-3 -19.5l-86 -463h-43l-86 463q-2 10 -3 18.5t-1 18.5zM420 1346q0 55 29.5 86.5t80.5 31.5t81 -31.5t30 -84.5v-20q0 -9 -2 -19l-86 -463h-45l-84 463q-2 10 -3 18.5t-1 18.5z"/>
<glyph unicode="#" horiz-adv-x="1574" d="M23 381l86 229h272l82 234h-285l86 229h281l139 393h248l-139 -393h241l140 393h247l-139 -393h270l-86 -229h-266l-82 -234h277l-84 -229h-275l-141 -393h-248l141 393h-241l-141 -393h-248l141 393h-276zM621 610h253l84 234h-253z"/>
<glyph unicode="$" horiz-adv-x="1300" d="M86 274q0 80 50 130.5t134 50.5q72 0 119 -42t47 -104q0 -98 -121 -114q49 -35 116 -49.5t155 -14.5v344q-246 45 -363 132t-117 251q0 80 32 148.5t93.5 120t150.5 83t204 37.5v137h149v-139q215 -12 329 -89t114 -185q0 -68 -45.5 -111t-116.5 -43q-74 0 -117 39 t-43 98q0 70 68 101q-78 45 -189 45v-330q248 -45 365 -135t117 -250q0 -80 -33 -149.5t-94.5 -119.5t-151.5 -81t-203 -35v-225h-149v225q-12 0 -24.5 -1t-24.5 -1q-217 0 -334 78.5t-117 197.5zM403 958q0 -63 45.5 -99t137.5 -52v295q-183 -19 -183 -144zM735 133 q193 23 193 154q0 61 -47 96t-146 53v-303z"/>
<glyph unicode="%" horiz-adv-x="1966" d="M66 889q0 88 28.5 160.5t78.5 125t122 80t158 27.5t156.5 -27.5t121.5 -79t79 -124t28 -162.5t-29 -163t-79 -125t-121.5 -79.5t-157.5 -27.5t-157 27.5t-122 79.5t-78.5 125t-27.5 163zM311 889q0 -133 32 -194.5t108 -61.5t108.5 61.5t32.5 194.5q0 131 -32 192.5 t-107 61.5q-76 0 -109 -61.5t-33 -192.5zM508 -37l770 1321h180l-768 -1321h-182zM1126 358q0 88 29 162t80 125t121.5 80t156.5 29t157 -28t122 -80t80 -124.5t29 -163.5q0 -90 -29 -162.5t-79 -124t-122 -79t-158 -27.5t-156.5 27.5t-121.5 79t-80 124t-29 162.5z M1374 358q0 -133 32 -194.5t107 -61.5q76 0 108 61.5t32 194.5q0 131 -32 192.5t-108 61.5t-107.5 -61.5t-31.5 -192.5z"/>
<glyph unicode="&amp;" horiz-adv-x="1820" d="M84 389q0 313 340 451q-33 66 -50.5 124t-17.5 111q0 72 27 134.5t75 107.5t112.5 70.5t140.5 25.5q80 0 143.5 -22.5t109.5 -63.5t70.5 -97t24.5 -124q0 -190 -221 -332q59 -86 119.5 -172t134.5 -166q117 123 116 193q0 51 -102 51h-25q-12 0 -26 -2v178h585v-178h-24 q-125 0 -172 -64q-35 -45 -81 -133t-134 -205q47 -47 85 -71.5t75 -24.5q78 0 112.5 63.5t34.5 198.5v39h190q2 -23 3.5 -45t1.5 -45q0 -432 -422 -432q-76 0 -154 28.5t-166 86.5q-178 -115 -403 -115q-119 0 -212 30.5t-157.5 87t-98.5 135.5t-34 177zM424 438 q0 -55 19.5 -104t54 -86t81 -58.5t99.5 -21.5q74 0 164 53q-53 47 -130 150.5t-182 269.5q-53 -47 -79.5 -95.5t-26.5 -107.5zM647 1133q0 -31 17.5 -76t52.5 -101q139 53 139 168q0 47 -26.5 76t-73.5 29q-51 0 -80 -25.5t-29 -70.5z"/>
<glyph unicode="'" horiz-adv-x="370" d="M74 1346q0 53 30.5 85.5t81.5 32.5t81 -31.5t30 -84.5q0 -10 -1 -19.5t-3 -19.5l-86 -463h-43l-86 463q-2 10 -3 18.5t-1 18.5z"/>
<glyph unicode="(" horiz-adv-x="829" d="M63 483q0 432 178.5 663.5t532.5 260.5v-176q-100 -23 -165.5 -77t-103.5 -143t-53.5 -215t-15.5 -292q0 -170 16.5 -297t55.5 -217t103.5 -143.5t162.5 -73.5v-176q-164 8 -296 72.5t-224 178t-141.5 274t-49.5 361.5z"/>
<glyph unicode=")" horiz-adv-x="829" d="M57 -227q98 20 163 73.5t103.5 143.5t55 217t16.5 297q0 166 -15 292t-53 215t-103.5 143t-166.5 77v176q354 -29 532.5 -260.5t178.5 -663.5q0 -201 -49 -361.5t-141.5 -274t-224.5 -178t-296 -72.5v176z"/>
<glyph unicode="*" d="M102 807q0 96 129 108q61 4 122 11.5t118 38.5q-66 37 -129 42t-127 9q-49 2 -81 31.5t-32 76.5q0 51 34 89t87 38q49 0 74 -28.5t59 -79.5q23 -35 52.5 -71t83.5 -71q-4 57 -19.5 102.5t-33 82.5t-32 66.5t-14.5 56.5q0 47 33 76.5t86 29.5t86 -32.5t33 -73.5 q0 -27 -14.5 -55.5t-32 -64.5t-33.5 -81t-21 -104q76 39 142 141q31 47 57.5 77.5t73.5 30.5t82 -36.5t35 -83.5q0 -66 -38 -90.5t-116 -28.5q-72 -4 -125 -14.5t-88 -32.5q66 -35 127 -41t125 -11q53 -4 85 -32.5t32 -75.5q0 -57 -36 -94t-85 -37q-47 0 -73 31.5t-60 80.5 q-78 113 -133 142q2 -55 17 -99.5t33.5 -81t33 -66.5t14.5 -58q0 -45 -34 -76t-87 -31q-55 0 -86 27.5t-31 79.5q0 25 13.5 53.5t31 65t32.5 82.5t22 102q-41 -20 -73 -55t-65 -87q-31 -47 -56.5 -77.5t-76.5 -30.5t-86 38t-35 91z"/>
<glyph unicode="+" horiz-adv-x="1705" d="M254 496v231h481v494h238v-494h479v-231h-479v-496h-238v496h-481z"/>
<glyph unicode="," horiz-adv-x="651" d="M135 123q0 76 51.5 126t126.5 50q90 0 145.5 -59.5t55.5 -161.5q0 -137 -98.5 -240.5t-272.5 -134.5v115q80 12 127 49t66 104q-12 -4 -24 -4h-23q-70 0 -112 43t-42 113z"/>
<glyph unicode="-" horiz-adv-x="724" d="M74 330v307h577v-307h-577z"/>
<glyph unicode="." horiz-adv-x="651" d="M152 131q0 72 51 123t123 51t122 -51t50 -123q0 -74 -49.5 -123t-122.5 -49q-74 0 -124 50t-50 122z"/>
<glyph unicode="/" horiz-adv-x="577" d="M-59 -190l526 1605h172l-530 -1605h-168z"/>
<glyph unicode="0" horiz-adv-x="1300" d="M57 623q0 152 44 273.5t123 207.5t187.5 132t239.5 46t239.5 -46t186.5 -132t122 -208t44 -273q0 -152 -44 -274t-123 -207t-187.5 -131t-239.5 -46t-239.5 46t-187.5 131t-122 207t-43 274zM436 623q0 -246 48 -362t165 -116t166 116t49 362t-48 362.5t-165 116.5 t-166 -116.5t-49 -362.5z"/>
<glyph unicode="1" horiz-adv-x="1300" d="M233 0v170h93q53 0 82.5 5t45 19.5t18.5 37t3 57.5v39v577h-242v168q276 2 340 174h263v-932q0 -49 4 -77.5t19 -44t45 -19.5t81 -4h82v-170h-834z"/>
<glyph unicode="2" horiz-adv-x="1300" d="M86 34v34q0 117 47 212t148 183q78 68 162.5 111.5t158.5 91.5q82 51 124 101t42 132q0 86 -64.5 140.5t-179.5 54.5q-182 0 -239 -142q37 10 63 11q66 0 105 -39t39 -101q0 -72 -53.5 -121t-135.5 -49q-100 0 -158.5 60.5t-58.5 165.5q0 82 39 155.5t108.5 129t168 87 t219.5 31.5q127 0 227 -30.5t171 -85t107.5 -130t36.5 -168.5q0 -287 -377 -397q-76 -23 -144.5 -42t-126.5 -44t-105.5 -58.5t-83.5 -82.5q123 68 258 67q51 0 95 -7t83 -15t71.5 -15.5t61.5 -7.5q66 0 91.5 41t25.5 133h180q2 -20 2 -39v-36q0 -205 -89 -303.5t-280 -98.5 q-80 0 -141 22.5t-117 45.5q-59 23 -104 36t-80 13q-84 0 -121 -80h-174q-2 17 -2 34z"/>
<glyph unicode="3" horiz-adv-x="1300" d="M92 303q0 100 58.5 161.5t152.5 61.5q78 0 130 -49t52 -123q0 -66 -44 -107.5t-122 -41.5q86 -68 226 -68q133 0 201.5 61.5t68.5 172.5q0 104 -68.5 150t-209.5 46v172q250 12 249 183q0 88 -65.5 140t-181.5 52q-123 0 -201 -70h18q66 0 104 -36.5t38 -96.5 q0 -74 -48.5 -117.5t-127.5 -43.5q-88 0 -138.5 50t-50.5 140q0 152 129 247t367 95q260 0 394 -88t134 -248q0 -104 -67.5 -177t-194.5 -95q313 -80 313 -316q0 -193 -151.5 -295t-454.5 -102q-123 0 -218 25.5t-159.5 70.5t-98.5 108.5t-34 137.5z"/>
<glyph unicode="4" horiz-adv-x="1300" d="M80 379v196l637 672h309v-688h199v-180h-199v-123q0 -53 28.5 -69.5t116.5 -16.5h54v-170h-762v170h55q57 0 90 5t47.5 18.5t17.5 36t3 57.5v8v84h-596zM285 559h391l4 402z"/>
<glyph unicode="5" horiz-adv-x="1300" d="M104 313q0 96 58.5 154.5t156.5 58.5q80 0 130.5 -49t50.5 -123q0 -66 -43 -105.5t-121 -47.5q98 -68 194 -68q127 0 199 84t72 238q0 121 -62.5 190.5t-169.5 69.5q-119 0 -186 -82h-197l37 643q236 -37 475 -37q156 0 251 19.5t130 19.5q43 0 43 -35q0 -43 -35.5 -87 t-102 -80t-164 -58.5t-220.5 -22.5q-90 0 -205 21l-8 -180q63 35 131 51t146 16q119 0 217 -32.5t166.5 -93t106.5 -146.5t38 -193q0 -104 -41 -191t-118 -150.5t-185.5 -98.5t-241.5 -35q-117 0 -210 26.5t-157.5 73t-99.5 110.5t-35 140z"/>
<glyph unicode="6" horiz-adv-x="1300" d="M96 590q0 160 43 289t124 218t198 137t264 48q209 0 321.5 -77t112.5 -193q0 -78 -53 -127t-139 -49q-84 0 -132.5 43t-48.5 110q0 80 80 117q-55 20 -102 20q-141 0 -216 -105.5t-75 -315.5v-25q70 47 141.5 68.5t155.5 21.5q201 0 318.5 -104.5t117.5 -288.5 q0 -90 -36.5 -166t-105.5 -131t-165 -86t-215 -31q-137 0 -245.5 43t-184.5 124t-117 198t-41 262zM489 367q0 -117 46.5 -177.5t132.5 -60.5q74 0 120 57.5t46 161.5q0 123 -45.5 185.5t-124.5 62.5q-76 0 -125.5 -62.5t-49.5 -166.5z"/>
<glyph unicode="7" horiz-adv-x="1300" d="M102 668v579h187v-151q61 86 130.5 126t162.5 40q61 0 114.5 -15.5t98.5 -33t84 -33t71 -15.5q43 0 65.5 19.5t22.5 50.5v12h160q2 -10 2 -19v-20q0 -53 -17.5 -104t-46 -107.5t-67.5 -118t-84 -133.5q-43 -72 -82 -144.5t-68.5 -155.5t-47 -180t-17.5 -218v-47h-379v35 q0 332 170 559q27 35 66 73t86 84t100 102t109 124q-82 -45 -195 -45q-74 0 -138.5 17.5t-117.5 17.5q-186 0 -186 -224q0 -10 1 -28.5t3 -46.5h-187z"/>
<glyph unicode="8" horiz-adv-x="1300" d="M74 328q0 98 63.5 174t181.5 114q-193 109 -192 291q0 172 137 275.5t400 103.5q115 0 206 -23.5t153 -64.5t96 -97.5t34 -121.5q0 -164 -211 -248q281 -100 281 -352q0 -190 -155 -302t-443 -112q-270 0 -410.5 95.5t-140.5 267.5zM328 334q0 -94 76.5 -150.5 t209.5 -56.5q276 0 277 164q0 33 -25.5 61.5t-78 55t-129 55.5t-181.5 63q-149 -73 -149 -192zM446 991q0 -35 21.5 -59.5t62.5 -45t103.5 -40t146.5 -43.5q119 61 119 170q0 63 -62.5 105t-179.5 42q-104 0 -157.5 -35t-53.5 -94z"/>
<glyph unicode="9" horiz-adv-x="1300" d="M94 868q0 92 37 168t105.5 131.5t165 86t214.5 30.5q137 0 246 -43t184.5 -124t116.5 -197.5t41 -262.5q0 -160 -43 -288.5t-124 -219t-197.5 -138.5t-264.5 -48q-104 0 -185 20.5t-136 57.5t-84 87t-29 108q0 78 53.5 127t141.5 49q84 0 131 -44t47 -112q0 -78 -80 -115 q61 -23 103 -22q141 0 216.5 106.5t75.5 317.5v24q-70 -47 -142.5 -69.5t-156.5 -22.5q-98 0 -179 27.5t-138 78t-88 123t-31 164.5zM467 899q0 -123 45 -186.5t125 -63.5q76 0 126 63.5t50 168.5q0 117 -47 177t-133 60q-74 0 -120 -57.5t-46 -161.5z"/>
<glyph unicode=":" horiz-adv-x="651" d="M152 133q0 72 51 122t123 50t122 -50t50 -122q0 -74 -49.5 -124t-122.5 -50q-74 0 -124 51t-50 123zM152 750q0 72 51 123t123 51t122 -51.5t50 -122.5q0 -74 -49.5 -123t-122.5 -49q-74 0 -124 50t-50 122z"/>
<glyph unicode=";" horiz-adv-x="651" d="M133 123q0 76 51.5 126t126.5 50q90 0 146.5 -59.5t56.5 -161.5q0 -137 -98.5 -240.5t-272.5 -134.5v115q80 12 126 49t65 104q-12 -4 -24 -4h-23q-70 0 -112 43t-42 113zM143 750q0 72 50.5 123t121.5 51q72 0 123 -51.5t51 -122.5q0 -74 -50 -123t-124 -49t-123 50 t-49 122z"/>
<glyph unicode="&lt;" horiz-adv-x="1705" d="M264 494v233l1178 487v-253l-854 -351l854 -348v-254z"/>
<glyph unicode="=" horiz-adv-x="1705" d="M254 272v230h1198v-230h-1198zM254 719v231h1198v-231h-1198z"/>
<glyph unicode="&gt;" horiz-adv-x="1705" d="M264 8v254l854 348l-854 351v253l1178 -487v-233z"/>
<glyph unicode="?" horiz-adv-x="1159" d="M92 1001q0 88 35 164t99.5 131.5t153.5 87t200 31.5q106 0 196 -28.5t153.5 -79t99.5 -120t36 -151.5q0 -104 -46 -180t-145 -147q-45 -35 -85.5 -61.5t-73.5 -57.5t-53.5 -68t-24.5 -88h-203q-2 8 -2 17v16q0 113 74 215q31 45 63.5 85t59 81t44 85t17.5 93 q0 82 -61.5 137.5t-157.5 55.5q-86 0 -146.5 -47.5t-68.5 -118.5q51 18 86 18q70 0 110 -40t40 -109q0 -84 -51.5 -130.5t-143.5 -46.5q-86 0 -145.5 70.5t-59.5 185.5zM362 133q0 72 50.5 122t122.5 50t123 -50t51 -122q0 -74 -50.5 -124t-123.5 -50q-74 0 -123.5 51 t-49.5 123z"/>
<glyph unicode="@" horiz-adv-x="2019" d="M129 539q0 203 87 381t253 313q276 227 653 227q174 0 316.5 -50t244 -140t155.5 -219t54 -285q0 -166 -59 -303t-172 -238q-59 -53 -129 -80.5t-139 -27.5q-98 0 -156.5 52t-65.5 144q-123 -193 -278 -192q-158 0 -242 90t-84 256q0 117 49.5 223.5t147.5 196.5 q70 63 150.5 96t166.5 33q190 0 217 -176l48 157h208l-174 -624q-6 -25 -10 -45.5t-4 -42.5q0 -47 19.5 -73t50.5 -26q25 0 79 25t107 72q98 88 148.5 211.5t50.5 273.5q0 244 -135 391q-98 111 -234.5 167t-300.5 56q-281 0 -498 -157q-166 -121 -255 -302.5t-89 -404.5 q0 -168 53.5 -303t151.5 -229.5t239.5 -144.5t317.5 -50q172 0 322.5 51.5t308.5 155.5l41 -57q-305 -227 -672 -228q-219 0 -393 59.5t-296 168t-187.5 260.5t-65.5 338zM801 352q0 -74 32.5 -114.5t86.5 -40.5q119 0 223 241q49 115 70.5 212.5t21.5 152.5q0 139 -107 139 q-63 0 -112 -46t-96 -138q-61 -123 -90 -227.5t-29 -178.5z"/>
<glyph unicode="A" horiz-adv-x="1466" d="M-27 0v180h50q41 0 66.5 7.5t41.5 23.5t27.5 40.5t23.5 61.5l353 1061h409l338 -1067q12 -35 23.5 -59.5t27 -39.5t37 -21.5t53.5 -6.5h70v-180h-758v180h58q68 0 96.5 9.5t28.5 39.5q0 10 -3.5 20.5l-7.5 22.5l-53 170h-395l-51 -157q-6 -18 -8.5 -32.5t-2.5 -23.5 q0 -33 26 -41t85 -8h67v-180h-602zM518 621h279l-138 434z"/>
<glyph unicode="B" horiz-adv-x="1511" d="M39 0v180h76q43 0 67.5 4t36.5 17.5t16.5 37t4.5 60.5v776q0 37 -4.5 60.5t-16.5 37t-36.5 17.5t-67.5 4h-76v180h803q262 0 391 -74.5t129 -248.5q0 -113 -71.5 -196t-213.5 -128q354 -76 355 -350q0 -106 -37 -179t-113 -117t-191.5 -62.5t-271.5 -18.5h-780zM625 180 h108q150 0 221.5 51.5t71.5 169.5q0 123 -70.5 175.5t-224.5 52.5h-106v-449zM625 803h92q135 0 198.5 47t63.5 154q0 104 -60.5 147t-193.5 43h-100v-391z"/>
<glyph unicode="C" horiz-adv-x="1507" d="M68 688q0 166 51 297t157 236q104 102 226.5 148t279.5 46q221 0 400 -133l41 109h188v-560h-201q-12 184 -104 283.5t-242 99.5q-164 0 -257 -134t-93 -390t92 -391t260 -135q141 0 229.5 95t98.5 273h217q-16 -573 -612 -573q-168 0 -303.5 52t-230.5 147.5t-146 229.5 t-51 300z"/>
<glyph unicode="D" horiz-adv-x="1642" d="M39 0v180h76q43 0 67.5 4t36.5 17.5t16.5 37t4.5 60.5v776q0 37 -4.5 60.5t-16.5 37t-36.5 17.5t-67.5 4h-76v180h727q412 0 610.5 -167t198.5 -519t-198.5 -520t-610.5 -168h-727zM625 180h141q100 0 169 30t112 91t62 157.5t19 229.5q0 137 -19 234.5t-63.5 157 t-116 87t-173.5 27.5h-131v-1014z"/>
<glyph unicode="E" horiz-adv-x="1531" d="M39 0v180h76q43 0 67.5 4t36.5 17.5t16.5 37t4.5 60.5v776q0 37 -4.5 60.5t-16.5 37t-36.5 17.5t-67.5 4h-76v180h1358v-524h-180q-14 100 -35 168.5t-66 109.5q-51 47 -127 56.5t-186 9.5h-178v-391h34q57 0 94.5 9t59 33.5t29.5 66.5t8 108h172v-627h-172 q-2 74 -10.5 119t-28.5 69.5t-57 33t-95 8.5h-34v-443h184q109 0 181.5 15.5t118.5 57.5t70.5 117.5t37.5 196.5h180v-567h-1358z"/>
<glyph unicode="F" horiz-adv-x="1417" d="M39 0v180h76q43 0 67.5 4t36.5 17.5t16.5 37t4.5 60.5v776q0 37 -4.5 60.5t-16.5 37t-36.5 17.5t-67.5 4h-76v180h1288v-561h-180q-10 117 -31.5 194.5t-68.5 122.5q-49 47 -126 55.5t-188 8.5h-108v-391h14q98 0 135 46t37 161v10h172v-627h-172q-2 125 -34 178.5 t-122 53.5q-8 0 -15 -1t-15 -1v-324q0 -37 4 -60.5t17 -37t38 -17.5t68 -4h86v-180h-799z"/>
<glyph unicode="G" horiz-adv-x="1601" d="M68 668q0 168 51 306t143 236.5t219 151.5t281 53q219 0 401 -127l35 101h188v-553h-196q-23 193 -108 283.5t-244 90.5q-160 0 -242 -124.5t-82 -372.5q0 -281 71.5 -416t243.5 -135q61 0 102.5 10t65 31.5t32.5 57.5t9 85v96q0 33 -2 53.5t-12 33t-29.5 16.5t-54.5 4 h-100v180h749v-180h-73q-53 0 -74 -19.5t-21 -72.5v-471h-182l-51 104q-201 -131 -434 -131q-158 0 -284 49t-216 141.5t-138 223.5t-48 295z"/>
<glyph unicode="H" horiz-adv-x="1693" d="M39 0v180h76q43 0 67.5 4t36.5 17.5t16.5 37t4.5 60.5v776q0 37 -4.5 60.5t-16.5 37t-36.5 17.5t-67.5 4h-76v180h752v-180h-39q-43 0 -68 -4t-38 -17.5t-17 -37t-4 -60.5v-268h444v268q0 37 -4 60.5t-17.5 37t-38 17.5t-67.5 4h-39v180h752v-180h-76q-43 0 -67.5 -4 t-38 -17.5t-17.5 -37t-4 -60.5v-776q0 -37 4 -60.5t17.5 -37t38 -17.5t67.5 -4h76v-180h-752v180h39q43 0 67.5 4t38 17.5t17.5 37t4 60.5v322h-444v-322q0 -37 4 -60.5t17 -37t38 -17.5t68 -4h39v-180h-752z"/>
<glyph unicode="I" horiz-adv-x="897" d="M43 0v180h84q43 0 67.5 4t37 17.5t16.5 37t4 60.5v776q0 37 -4 60.5t-16.5 37t-37 17.5t-67.5 4h-84v180h811v-180h-84q-43 0 -67.5 -4t-38 -17.5t-17.5 -37t-4 -60.5v-776q0 -37 4 -60.5t17.5 -37t38 -17.5t67.5 -4h84v-180h-811z"/>
<glyph unicode="J" horiz-adv-x="1249" d="M33 356q0 113 62.5 182.5t160.5 69.5q88 0 144.5 -53t56.5 -137q0 -76 -44 -119t-120 -43q-39 0 -82 12q76 -111 211 -110q123 0 169 74.5t46 228.5v614q0 37 -4 60.5t-17.5 37t-38 17.5t-67.5 4h-86v180h805v-180h-74q-43 0 -67.5 -4t-38 -17.5t-17.5 -37t-4 -60.5v-614 q0 -256 -121 -379t-387 -123q-113 0 -203 29.5t-153.5 82t-97 126t-33.5 159.5z"/>
<glyph unicode="K" horiz-adv-x="1650" d="M39 0v180h76q43 0 67.5 4t36.5 17.5t16.5 37t4.5 60.5v776q0 37 -4.5 60.5t-16.5 37t-36.5 17.5t-67.5 4h-76v180h752v-180h-48q-43 0 -67.5 -4t-37.5 -17.5t-17.5 -37t-4.5 -60.5v-362l459 397q31 27 31 51q0 33 -76 33h-96v180h686v-180h-66q-57 0 -104 -32t-107 -83 l-237 -207l373 -604q29 -45 56.5 -66.5t68.5 -21.5h59v-180h-741v180h59q94 0 94 41q0 10 -4 19.5t-12 21.5l-225 373l-218 -186v-150q0 -37 4.5 -60.5t17.5 -37t37.5 -17.5t67.5 -4h48v-180h-752z"/>
<glyph unicode="L" horiz-adv-x="1417" d="M39 0v180h76q43 0 67.5 4t36.5 17.5t16.5 37t4.5 60.5v776q0 37 -4.5 60.5t-16.5 37t-36.5 17.5t-67.5 4h-76v180h799v-180h-86q-43 0 -68 -4t-38 -17.5t-17 -37t-4 -60.5v-895h108q111 0 187.5 9.5t126.5 56.5q47 45 68.5 121.5t31.5 193.5h180v-561h-1288z"/>
<glyph unicode="M" horiz-adv-x="2004" d="M39 0v180h67q43 0 68 4t38 17.5t17 37t4 60.5v776q0 37 -4 60.5t-17 37t-37.5 17.5t-68.5 4h-67v180h721l239 -846l252 846h715v-180h-70q-43 0 -67.5 -4t-37.5 -17.5t-17.5 -37t-4.5 -60.5v-776q0 -37 4.5 -60.5t17.5 -37t37.5 -17.5t67.5 -4h70v-180h-721v180h41 q43 0 67.5 4t37 17.5t16.5 37t4 60.5v858l-342 -1157h-276l-332 1159v-860q0 -37 4 -60.5t17.5 -37t38 -17.5t67.5 -4h39v-180h-588z"/>
<glyph unicode="N" horiz-adv-x="1675" d="M39 0v180h72q43 0 67.5 4t37.5 17.5t17.5 37t4.5 60.5v776q0 37 -4.5 60.5t-17.5 37t-37.5 17.5t-67.5 4h-72v180h657l527 -958v659q0 37 -4.5 60.5t-17.5 37t-37.5 17.5t-67.5 4h-78v180h627v-180h-64q-43 0 -67.5 -4t-38 -17.5t-17.5 -37t-4 -60.5v-1075h-422 l-563 1022v-723q0 -37 4 -60.5t17.5 -37t38 -17.5t67.5 -4h78v-180h-635z"/>
<glyph unicode="O" horiz-adv-x="1677" d="M68 686q0 168 52 303t152.5 230.5t242.5 145.5t325 50q180 0 323.5 -50t242.5 -145.5t151.5 -230.5t52.5 -303q0 -170 -52.5 -304t-151.5 -228.5t-242.5 -144.5t-323.5 -50q-182 0 -324.5 50t-243 144.5t-152.5 228.5t-52 304zM514 686q0 -274 76 -406.5t250 -132.5 t249.5 132.5t75.5 406.5t-75.5 406.5t-249.5 132.5t-250 -132.5t-76 -406.5z"/>
<glyph unicode="P" horiz-adv-x="1497" d="M39 0v180h76q43 0 67.5 4t36.5 17.5t16.5 37t4.5 60.5v776q0 37 -4.5 60.5t-16.5 37t-36.5 17.5t-67.5 4h-76v180h848q279 0 411 -92t132 -303q0 -88 -34 -159.5t-98 -123.5q-72 -59 -172 -76.5t-239 -17.5h-262v-303q0 -37 4 -60.5t17 -37t38 -17.5t68 -4h98v-180h-811z M625 780h127q145 0 209.5 46t64.5 169q0 111 -66.5 155t-207.5 44h-127v-414z"/>
<glyph unicode="Q" horiz-adv-x="1783" d="M68 686q0 168 52 303t152.5 230.5t242.5 145.5t325 50q180 0 323.5 -50t242.5 -143.5t151.5 -224.5t52.5 -292q0 -236 -144 -455q43 -59 93 -60q49 0 67.5 41t22.5 131h135q-4 -227 -75 -341.5t-206 -114.5q-70 0 -130 38t-132 109q-215 -94 -434 -94q-166 0 -303 51 t-233.5 146.5t-149.5 229.5t-53 300zM508 711q0 -119 31 -303q29 123 97.5 182t186.5 59q82 0 166 -34.5t178 -106.5q4 47 6.5 91t2.5 87q0 274 -80 406.5t-256 132.5q-332 0 -332 -514zM627 283q0 -63 54 -105.5t146 -42.5q123 0 238 88q-164 190 -301 191q-63 0 -100 -36 t-37 -95z"/>
<glyph unicode="R" horiz-adv-x="1644" d="M39 0v180h76q43 0 67.5 4t36.5 17.5t16.5 37t4.5 60.5v776q0 37 -4.5 60.5t-16.5 37t-36.5 17.5t-67.5 4h-76v180h903q496 0 496 -342q0 -121 -80 -200.5t-236 -108.5q127 -23 185.5 -84t58.5 -193v-133q0 -78 11.5 -112.5t47.5 -34.5q43 0 56.5 52t13.5 163h137 q0 -14 1 -27.5t1 -25.5q0 -190 -76.5 -279.5t-242.5 -89.5q-176 0 -255 86t-79 266v131q0 55 -7 91t-27.5 56.5t-57.5 29t-96 8.5h-168v-328q0 -37 4 -60.5t17 -37t38 -17.5t68 -4h73v-180h-786zM625 807h145q72 0 123 8t83 28.5t47 56.5t15 93q0 115 -60 158t-192 43h-161 v-387z"/>
<glyph unicode="S" horiz-adv-x="1370" d="M63 969q0 207 144.5 322.5t415.5 115.5q129 0 232 -27.5t181 -87.5l41 97h170v-502h-188q-18 154 -126 239.5t-280 85.5q-109 0 -166 -44t-57 -115q0 -49 27.5 -77t83 -46.5t136.5 -33.5t187 -42q231 -57 343 -162.5t112 -285.5q0 -100 -39 -183.5t-112.5 -141.5 t-179 -90t-238.5 -32q-131 0 -249 35t-194 88l-55 -100h-166v540h184q12 -84 49 -150.5t92.5 -113.5t128 -72.5t156.5 -25.5q119 0 183.5 45t64.5 119q0 51 -21.5 80.5t-61.5 48t-97 32t-127 29.5q-141 35 -249.5 67.5t-184.5 92.5q-140 111 -140 295z"/>
<glyph unicode="T" horiz-adv-x="1421" d="M43 844v530h1337v-530h-186q0 178 -65.5 262t-206.5 84h-21v-846v-27q0 -55 5 -84.5t28 -37.5q29 -10 74 -13.5t110 -5.5v-176h-815v176q127 0 186 19q23 8 28 37.5t5 82.5v27v848h-20q-141 0 -208 -84t-67 -262h-184z"/>
<glyph unicode="U" horiz-adv-x="1579" d="M39 1200v174h778v-174q-20 2 -37 2h-32q-51 0 -79 -10t-41.5 -33.5t-16.5 -62.5t-3 -97v-550q0 -147 51.5 -217t184.5 -70q156 0 219 63.5t63 206.5v557q0 61 -4 102.5t-18 66t-44 34.5t-79 10h-26q-13 0 -27 -2v174h612v-174q-72 0 -115 -7t-59 -26q-12 -14 -14 -59 t-2 -121v-581q0 -219 -144.5 -334t-431.5 -115q-262 0 -403.5 113.5t-141.5 318.5v604q0 113 -23.5 161t-107.5 48h-27q-16 0 -32 -2z"/>
<glyph unicode="V" horiz-adv-x="1472" d="M-14 1200v174h768v-174q-23 2 -43 2h-37q-61 0 -88 -13t-27 -52q0 -16 8 -46t23 -71l217 -670l233 703q10 33 17.5 55t7.5 37q0 57 -119 57h-32q-15 0 -31 -2v174h596v-174q-51 0 -87 -11t-60.5 -36t-42 -62.5t-32.5 -93.5l-331 -997h-383l-348 1036q-14 43 -28.5 74 t-37.5 50.5t-56.5 28.5t-86.5 11z"/>
<glyph unicode="W" horiz-adv-x="1996" d="M14 1200v174h619v-174h-10q-109 0 -109 -55q0 -23 23 -101l188 -698l188 608q-25 131 -62.5 188.5t-125.5 57.5v174h643v-174q-14 2 -26 2h-21q-51 0 -71.5 -14t-20.5 -55q0 -23 8 -56l182 -731l191 725q12 43 12 62q0 41 -34 54t-109 13v174h503v-174q-76 -4 -109.5 -42 t-55.5 -118l-275 -1040h-366l-164 584l-168 -584h-381l-268 971q-14 53 -27.5 93t-32 68.5t-47.5 45t-74 22.5z"/>
<glyph unicode="X" horiz-adv-x="1564" d="M27 0v176h28q76 0 123 26.5t94 86.5l301 375l-321 428q-41 53 -84 79.5t-109 28.5v174h725v-174q-10 0 -17 1t-15 1q-94 0 -95 -47q0 -16 8.5 -30.5t18.5 -30.5l139 -195l162 193q14 16 22.5 29.5t8.5 29.5q0 49 -113 49h-14v174h602v-174h-8q-74 0 -122 -25.5t-93 -78.5 l-291 -355l330 -444q47 -63 87 -94t99 -31q10 0 21.5 1t23.5 3v-176h-768v176h23q59 0 88.5 11.5t29.5 39.5q0 23 -12 38l-29 36l-147 201l-156 -195q-18 -25 -29.5 -45t-11.5 -43q0 -45 95 -45h20q10 0 21 2v-176h-635z"/>
<glyph unicode="Y" horiz-adv-x="1597" d="M47 1200v174h787v-174h-66q-86 0 -86 -51q0 -23 47 -94l160 -248l186 280q14 20 19.5 38t5.5 32q0 43 -109 43h-33v174h582v-174h-6q-49 0 -84 -11t-61.5 -31.5t-48 -50.5t-46.5 -69l-301 -471v-252q0 -47 4 -73.5t18.5 -42t39 -19.5t65.5 -4h97v-176h-830v176h96 q41 0 66.5 4t39 19.5t18.5 42t5 73.5v252l-301 471q-25 39 -49 69t-54 49.5t-69 30.5t-92 13z"/>
<glyph unicode="Z" horiz-adv-x="1331" d="M47 0v188l778 1002h-225q-90 0 -150.5 -16.5t-99.5 -55.5t-58.5 -103.5t-25.5 -160.5h-180v520h1198v-198l-786 -1000h245q94 0 158 20.5t101.5 65.5t56 118t22.5 179h203v-559h-1237z"/>
<glyph unicode="[" horiz-adv-x="829" d="M166 -375v1749h577v-180h-235v-1384h235v-185h-577z"/>
<glyph unicode="\" horiz-adv-x="577" d="M-59 1415h170l528 -1605h-168z"/>
<glyph unicode="]" horiz-adv-x="829" d="M86 -190h236v1384h-236v180h578v-1749h-578v185z"/>
<glyph unicode="^" horiz-adv-x="2048" d="M412 897l481 565h260l479 -565h-121l-489 348l-490 -348h-120z"/>
<glyph unicode="_" d="M0 -244h1024v-239h-1024v239z"/>
<glyph unicode="`" d="M162 1401q0 49 32.5 82t81.5 33q45 0 83 -27t83 -74l295 -313h-121l-346 172q-55 29 -81.5 57.5t-26.5 69.5z"/>
<glyph unicode="a" horiz-adv-x="1261" d="M61 240q0 72 22.5 119t68 78.5t111 52t149.5 38.5q68 14 120 27.5t85.5 33t51 49.5t17.5 77q0 68 -54 111.5t-153 43.5q-47 0 -85 -9t-70 -32q55 -4 87.5 -35.5t32.5 -78.5q0 -57 -45 -95t-116 -38q-80 0 -128.5 43t-48.5 112q0 123 119 193.5t346 70.5q119 0 204 -21.5 t130 -51.5q37 -27 58.5 -53.5t32 -57.5t12.5 -66.5t2 -78.5v-27v-373q0 -92 53 -92q29 0 40 22.5t11 69.5v84h123v-94q0 -154 -66.5 -226.5t-216.5 -72.5q-195 0 -247 150q-129 -150 -336 -150q-143 0 -226.5 76t-83.5 201zM414 279q0 -47 33.5 -78t89.5 -31q66 0 104.5 42 t38.5 122v143q-61 -33 -111.5 -55.5t-84 -43t-52 -43.5t-18.5 -56z"/>
<glyph unicode="b" horiz-adv-x="1259" d="M0 1208v166h494v-520q123 145 303 145q86 0 157.5 -34.5t122.5 -102t80 -165t29 -220.5q0 -254 -102.5 -384t-299.5 -130q-96 0 -172.5 37t-142.5 115l-90 -119h-221v1116q0 59 -18.5 77.5t-78.5 18.5h-61zM494 477q0 -334 163 -334q84 0 122 83t38 251q0 170 -37 252 t-123 82t-124.5 -83t-38.5 -251z"/>
<glyph unicode="c" horiz-adv-x="1028" d="M47 485q0 119 35 215.5t101.5 164t160.5 103.5t213 36q98 0 177 -25t134.5 -70t85 -105.5t29.5 -133.5q0 -96 -55.5 -152.5t-151.5 -56.5q-78 0 -124 44t-46 118q0 72 41 111.5t113 39.5h4q-57 57 -137 57q-219 0 -219 -335q0 -342 188 -342q154 0 164 186h215 q-10 -180 -118.5 -277.5t-305.5 -97.5q-242 0 -373 136t-131 384z"/>
<glyph unicode="d" horiz-adv-x="1269" d="M61 477q0 123 29 220.5t81 165t124 102t158 34.5q92 0 165.5 -36.5t135.5 -108.5v258q0 53 -16.5 74.5t-80.5 21.5h-67v166h506v-1116q0 -59 18.5 -77.5t77.5 -18.5h47v-162h-471v131q-59 -86 -131 -127t-170 -41q-199 0 -302.5 130t-103.5 384zM432 477q0 -334 162 -334 q84 0 122 83t38 251q0 170 -37 252t-123 82t-124 -83t-38 -251z"/>
<glyph unicode="e" horiz-adv-x="1134" d="M57 473q0 121 36 218t101.5 165t161 104.5t211.5 36.5q244 0 379 -136t135 -384v-37h-665v-16q0 -266 198 -266q92 0 144.5 44t62.5 126h244q-92 -362 -490 -363q-117 0 -213 37t-163.5 103.5t-104.5 159.5t-37 208zM420 606h315v8q0 207 -160 207q-72 0 -112.5 -54.5 t-42.5 -160.5z"/>
<glyph unicode="f" horiz-adv-x="778" d="M47 0v174h49q39 0 59.5 7t30 23.5t11.5 45.5t2 69v478h-152v170h152v55q0 84 9 146.5t50 111.5q47 59 134 95t200 36q158 0 247 -64.5t89 -162.5q0 -70 -41 -112t-107 -42q-59 0 -99 37t-40 94q0 63 76 103q-37 6 -66 6q-68 0 -89 -40t-21 -132v-131h176v-170h-176v-478 q0 -45 2 -72.5t12 -44t31.5 -22.5t58.5 -6h72v-174h-670z"/>
<glyph unicode="g" horiz-adv-x="1318" d="M63 -244q0 119 162 162q-145 78 -145 215q0 117 160 189q-123 129 -123 288q0 184 118.5 289t339.5 105q88 0 163 -23t145 -72q106 94 219 95q102 0 164.5 -57.5t62.5 -147.5q0 -68 -39 -107t-98 -39q-57 0 -95 34t-38 81q0 59 53 109q-23 25 -47 24q-47 0 -119 -67 q68 -90 68 -220q0 -176 -125 -281.5t-344 -105.5q-100 0 -207 37q-41 -23 -41 -57q0 -53 72.5 -63.5t224.5 -10.5q59 0 111.5 1t99.5 1q367 0 366 -266q0 -176 -146 -245.5t-450 -69.5q-512 -1 -512 202zM313 -221q0 -82 299 -82q162 0 239 19.5t77 68.5q0 47 -70 62.5 t-225 15.5q-164 0 -242 -15.5t-78 -68.5zM446 608q0 -246 115 -246q68 0 92.5 65t24.5 200q0 129 -24.5 187t-90.5 58t-91.5 -64.5t-25.5 -199.5z"/>
<glyph unicode="h" horiz-adv-x="1355" d="M43 0v166h49q59 0 77.5 18.5t18.5 77.5v850q0 59 -18 77.5t-78 18.5h-49v166h473v-547q143 166 340 166q92 0 154.5 -20.5t100.5 -64.5t53.5 -111.5t15.5 -161.5v-373q0 -59 18.5 -77.5t77.5 -18.5h47v-166h-604v166h22q59 0 78 18.5t19 77.5v373q0 174 -142 174 q-90 0 -128 -61.5t-38 -190.5v-295q0 -59 18.5 -77.5t78.5 -18.5h22v-166h-606z"/>
<glyph unicode="i" horiz-adv-x="741" d="M49 0v166h62q61 0 78.5 18.5t17.5 77.5v414v12q0 33 -2 53.5t-10.5 32.5t-28 17.5t-51.5 5.5h-66v170h504v-705q0 -59 16.5 -77.5t75.5 -18.5h51v-166h-647zM190 1217q0 72 49.5 120.5t120.5 48.5q72 0 121 -49t49 -120q0 -72 -49 -121t-121 -49t-121 49t-49 121z"/>
<glyph unicode="j" horiz-adv-x="712" d="M-139 -227q0 70 46 113.5t113 43.5q55 0 93.5 -38.5t38.5 -92.5q0 -55 -62 -98q45 -16 70 -16q53 0 65.5 38.5t12.5 120.5v832q0 70 -14.5 95.5t-80.5 25.5h-61v170h496v-998v-51q0 -66 -9.5 -125t-50.5 -115q-49 -66 -134 -96.5t-210 -30.5q-147 0 -230 65t-83 157z M225 1217q0 72 49.5 120.5t120.5 48.5q72 0 121 -49t49 -120q0 -72 -49 -121t-121 -49t-121 49t-49 121z"/>
<glyph unicode="k" horiz-adv-x="1366" d="M43 0v170h45q29 0 47.5 2t29.5 11.5t15 27.5t4 51v825q0 37 -1 60.5t-10 37t-27.5 18.5t-53.5 5h-49v166h483v-846l277 222q16 10 16 28q0 23 -57 23q-14 0 -38 -1t-56 -3v170h594v-170q-10 2 -19 2h-18q-51 0 -87 -15.5t-73 -46.5l-127 -104l231 -387q41 -78 129 -78h16 q7 0 17 2v-170h-600v170q51 0 72.5 3t21.5 26q0 12 -5 23t-13 26l-113 194l-168 -135v-45q0 -53 13.5 -73.5t60.5 -20.5q6 0 12 1t15 1v-170h-584z"/>
<glyph unicode="l" horiz-adv-x="712" d="M31 0v166h55q61 0 78.5 18.5t17.5 77.5v825q0 39 -3 63t-12 37t-27.5 17t-49.5 4h-59v166h497v-1112q0 -59 14.5 -77.5t78.5 -18.5h55v-166h-645z"/>
<glyph unicode="m" horiz-adv-x="1939" d="M43 0v166h53q59 0 78 18.5t19 77.5v443q0 59 -18.5 77.5t-78.5 18.5h-53v166h475v-136q66 88 142.5 125t183.5 37q217 0 282 -155q68 82 147 119.5t183 37.5q160 0 229.5 -88t69.5 -272v-373q0 -59 17.5 -77.5t89.5 -18.5h45v-166h-590v166h8q51 0 70.5 21.5t19.5 74.5 v373q0 88 -28.5 131t-94.5 43q-70 0 -108.5 -54.5t-38.5 -162.5v-318q0 -31 2 -52t11 -33.5t28.5 -17.5t52.5 -5v-166h-532v166q59 0 78.5 21.5t19.5 74.5v373q0 88 -28.5 131t-94.5 43q-145 0 -145 -225v-322q0 -29 3 -47t12 -29.5t27.5 -15.5t51.5 -4v-166h-588z"/>
<glyph unicode="n" horiz-adv-x="1359" d="M43 0v166h55q59 0 78 18.5t19 77.5v443q0 59 -18.5 77.5t-78.5 18.5h-55v166h477v-150q63 88 150.5 132t191.5 44q92 0 154.5 -20.5t99.5 -64.5t52.5 -111.5t15.5 -161.5v-373q0 -59 18.5 -77.5t77.5 -18.5h47v-166h-602v166h23q59 0 77.5 18.5t18.5 77.5v373 q0 174 -142 174q-78 0 -121.5 -55.5t-43.5 -163.5v-328q0 -59 18 -77.5t78 -18.5h20v-166h-610z"/>
<glyph unicode="o" horiz-adv-x="1222" d="M51 483q0 121 38 217.5t110.5 164t176 103.5t234.5 36t234.5 -36t176.5 -103.5t111.5 -164t38.5 -217.5t-38.5 -217t-111.5 -162.5t-176.5 -102.5t-234.5 -36t-234.5 36t-176 102.5t-110.5 162.5t-38 217zM420 483q0 -90 8 -154.5t29.5 -106.5t58.5 -61.5t94 -19.5 t94 19.5t58.5 60.5t30 106.5t8.5 155.5q0 180 -39 262t-152 82q-57 0 -94 -20.5t-58.5 -62.5t-29.5 -106.5t-8 -154.5z"/>
<glyph unicode="p" horiz-adv-x="1271" d="M33 -274h47q59 0 77.5 18t18.5 78v883q0 59 -18.5 77.5t-77.5 18.5h-47v166h469v-131q66 86 138.5 125.5t168.5 39.5q195 0 298 -129t103 -385q0 -123 -28.5 -220t-80.5 -164.5t-124 -102.5t-158 -35q-92 0 -165.5 36t-135.5 108v-287q0 -59 18.5 -77.5t77.5 -18.5h68 v-166h-649v166zM518 487q0 -168 38 -250.5t124 -82.5t123 81.5t37 251.5q0 168 -38 251t-122 83q-162 0 -162 -334z"/>
<glyph unicode="q" horiz-adv-x="1271" d="M63 487q0 256 102.5 385t297.5 129q96 0 169 -39.5t138 -125.5v131h469v-166h-47q-59 0 -77.5 -18.5t-18.5 -77.5v-883q0 -59 18.5 -77.5t77.5 -18.5h47v-166h-649v166h69q59 0 78 18t19 78v287q-123 -143 -303 -144q-86 0 -158 35t-123 102.5t-80 164.5t-29 220z M432 487q0 -170 37 -251.5t123 -81.5t125 82.5t39 250.5q0 334 -164 334q-84 0 -122 -83t-38 -251z"/>
<glyph unicode="r" horiz-adv-x="1034" d="M37 0v166h61q59 0 78 18.5t19 77.5v443q0 59 -18.5 77.5t-78.5 18.5h-61v166h483v-97q111 125 246 125q111 0 173 -61.5t62 -163.5q0 -90 -50 -143.5t-132 -53.5q-66 0 -107.5 43t-41.5 103q0 96 100 125q-37 16 -59 16q-72 0 -123 -76.5t-51 -214.5v-307q0 -59 18 -77.5 t78 -18.5h82v-166h-678z"/>
<glyph unicode="s" horiz-adv-x="1138" d="M76 676q0 72 29.5 132t87 103t138.5 68t185 25q88 0 167 -19.5t161 -62.5l22 55h146v-309h-146q-53 82 -131 125t-174 43q-59 0 -92 -24t-33 -64q0 -31 21.5 -50.5t63.5 -35t104.5 -31t146.5 -37.5q141 -39 216 -116t75 -181q0 -72 -32 -132.5t-90 -105.5t-143 -69.5 t-190 -24.5q-90 0 -172 24.5t-172 71.5l-31 -71h-145v360h162q37 -100 115.5 -154.5t183.5 -54.5q150 0 149 90q0 41 -36.5 58.5t-118.5 40.5q-111 29 -202 55.5t-159 75.5q-51 37 -78.5 93t-27.5 122z"/>
<glyph unicode="t" horiz-adv-x="958" d="M51 801v153q242 29 271 389h202v-376h248v-166h-248v-508v-27q0 -117 78 -116q57 0 71.5 51t14.5 166v90h166v-144q0 -180 -81 -267t-255 -87q-94 0 -157.5 22.5t-101.5 69.5t-54.5 120t-16.5 173v457h-137z"/>
<glyph unicode="u" horiz-adv-x="1359" d="M33 801v166h485v-637q0 -172 141 -172q166 0 166 233v314q0 59 -18.5 77.5t-77.5 18.5h-22v166h458v-705q0 -59 18.5 -77.5t78.5 -18.5h57v-166h-479v150q-129 -178 -340 -179q-92 0 -154.5 20.5t-100.5 64.5t-53.5 112t-15.5 162v375q0 59 -18.5 77.5t-77.5 18.5h-47z "/>
<glyph unicode="v" horiz-adv-x="1200" d="M20 797v170h611v-170h-37q-53 0 -74.5 -5.5t-21.5 -39.5q0 -18 14 -60l152 -463l155 449q10 29 14.5 47t4.5 29q0 43 -80 43h-41v170h465v-168h-39q-31 0 -51.5 -7.5t-35 -24.5t-25.5 -43t-23 -62l-234 -662h-373l-213 651q-25 76 -53.5 111t-91.5 35h-23z"/>
<glyph unicode="w" horiz-adv-x="1777" d="M18 807v160h570v-160h-41q-63 0 -64 -45q0 -8 4.5 -31.5t14.5 -62.5l123 -435l131 424q25 80 24 111q0 27 -17.5 33t-51.5 6h-37v160h561v-160h-37q-78 0 -78 -49q0 -10 3 -29.5t14 -48.5l131 -449l139 463q16 49 16 68q0 27 -14 37t-49 10h-18q-9 0 -19 -2v160h436v-160 q-43 0 -71.5 -7t-47 -22.5t-31 -40t-22.5 -61.5l-203 -676h-350l-151 492l-150 -492h-362l-178 639q-12 43 -23.5 73.5t-30 51t-47.5 32t-74 11.5z"/>
<glyph unicode="x" horiz-adv-x="1339" d="M29 0v170q8 0 14 -1t14 -1q70 0 112 31.5t91 76.5l215 199l-213 232q-39 41 -82 65.5t-110 34.5v160h641v-156q-6 0 -13.5 1t-11.5 1q-59 0 -59 -27q0 -16 9 -26t19 -25l88 -106l113 112q29 33 29 50q0 23 -43 22q-14 0 -23 -2v156h471v-160h-10q-63 0 -113.5 -32 t-109.5 -85l-201 -178q68 -84 125 -147.5t106.5 -108.5t94.5 -67.5t90 -22.5q10 0 19 1t20 3v-170h-699v164q4 0 10.5 -1t10.5 -1q33 0 50 11t17 28q0 14 -18 37l-98 110l-97 -86q-25 -23 -39 -38t-14 -31q0 -29 70 -29h20v-164h-495z"/>
<glyph unicode="y" horiz-adv-x="1218" d="M27 -180q0 88 51 140t135 52q74 0 118 -37.5t44 -103.5t-39 -102.5t-105 -36.5h-16q-8 0 -18 2q45 -49 92 -49q72 0 132 61t101 184l-317 752q-23 53 -45.5 84t-69.5 31h-55v170h620v-170h-47q-84 0 -84 -33q0 -16 7.5 -33.5t17.5 -42.5l149 -344l131 332 q12 31 20.5 52.5t8.5 37.5q0 31 -74 31h-47v170h457v-170q-43 0 -69.5 -7.5t-44 -22.5t-30 -37.5t-24.5 -55.5l-311 -756q-39 -92 -78 -160.5t-86 -113.5t-103.5 -67.5t-130.5 -22.5q-63 0 -116.5 19t-92 54t-60 84.5t-21.5 108.5z"/>
<glyph unicode="z" horiz-adv-x="1009" d="M47 0v186l533 613h-119q-68 0 -110 -6.5t-65.5 -29t-32.5 -67.5t-9 -121v-16h-168v408h887v-187l-521 -614h138q123 0 169 43t46 160v28q0 14 -2 31h170v-428h-916z"/>
<glyph unicode="{" d="M178 596v80q80 8 131 26.5t80 54.5t40 91t11 135v186q0 98 19.5 165t65.5 107t123 57.5t192 17.5h12v-66q-61 -2 -99 -16.5t-58.5 -45t-28 -81t-7.5 -119.5v-131q0 -94 -7 -165t-31.5 -122t-70.5 -84t-126 -51q80 -18 126 -51t70.5 -83t31.5 -121t7 -165v-131 q0 -72 7.5 -121t28 -81t58.5 -46t99 -16v-64h-12q-115 0 -192 17.5t-123 57.5t-65.5 106.5t-19.5 164.5v187q0 80 -11 135t-40 91t-80 54.5t-131 26.5z"/>
<glyph unicode="|" d="M393 -483v2048h240v-2048h-240z"/>
<glyph unicode="}" d="M172 -180q61 2 99 16t58.5 46t28 81t7.5 121v131q0 94 7 165t31.5 121t70.5 82.5t126 51.5q-80 20 -126 53t-70.5 84t-31.5 121t-7 164v131q0 70 -7.5 120t-28 80.5t-58.5 45t-99 16.5v66h12q115 0 192 -17.5t123 -57.5t65.5 -106.5t19.5 -165.5v-186q0 -80 11 -135 t40 -91t80 -54.5t131 -26.5v-80q-80 -8 -131 -26.5t-80 -54.5t-40 -91t-11 -135v-187q0 -98 -19.5 -164.5t-65.5 -106.5t-123 -57.5t-192 -17.5h-12v64z"/>
<glyph unicode="~" horiz-adv-x="1705" d="M178 401v254q111 72 206 108t181 36t158 -17.5t137 -40.5q74 -25 146.5 -49t152.5 -24q90 0 179 38.5t192 112.5v-254q-98 -68 -191.5 -102.5t-185.5 -34.5t-172 29q-111 39 -213 70.5t-207 31.5q-92 0 -183 -40t-200 -118z"/>
<glyph unicode="¡" horiz-adv-x="647" d="M131 172q0 86 12.5 175t28.5 184.5t31.5 199t21.5 213.5h193q12 -135 29.5 -247.5t33 -206t25.5 -166t10 -125.5q0 -113 -52 -176.5t-145 -63.5q-84 0 -136 57.5t-52 155.5zM150 1241q0 72 49 123t123 51t124 -50t50 -124q0 -72 -51.5 -122t-122.5 -50q-72 0 -122 50 t-50 122z"/>
<glyph unicode="¢" horiz-adv-x="1300" d="M176 477q0 248 135 385t387 137q55 0 105.5 -8t97.5 -28l86 163h141l-118 -227q55 -41 83.5 -101.5t28.5 -131.5q0 -98 -56 -153.5t-157 -55.5q-57 0 -110 32l-160 -315q41 -33 78 -33q80 0 127 50.5t53 144.5h217q-2 -86 -33.5 -155.5t-89 -119t-137.5 -76t-178 -26.5 q-39 0 -73 4t-68 12l-115 -227h-139l135 268q-113 66 -176.5 184.5t-63.5 276.5zM541 492q0 -109 20 -193l174 336q39 133 146 147q-51 51 -119 52q-106 0 -163.5 -86t-57.5 -256z"/>
<glyph unicode="£" horiz-adv-x="1300" d="M55 190q98 63 146.5 131t48.5 152q0 39 -8 74h-187v162h142q-47 106 -47 186q0 86 33.5 156.5t99 122t161 80t218.5 28.5q119 0 212 -24.5t156.5 -67.5t97 -101.5t33.5 -125.5q0 -80 -50 -130.5t-132 -50.5q-72 0 -119 43t-47 109q0 90 90 135q-74 55 -170 55 q-104 0 -163.5 -50t-59.5 -132q0 -41 12.5 -99.5t32.5 -133.5h250v-162h-238q-20 -164 -178 -277l2 -4q68 29 123 45.5t102 16.5t88 -12.5t78 -26t69 -25.5t58 -12q66 0 88.5 40t24.5 136h162q2 -18 2 -36v-34q0 -190 -82 -289.5t-236 -99.5q-47 0 -95 12.5t-101 28.5 q-72 23 -137.5 46.5t-133.5 23.5q-121 0 -280 -113z"/>
<glyph unicode="¤" horiz-adv-x="1241" d="M61 444l201 203q-72 106 -72 238q0 135 72 237l-201 205l117 117l203 -201q49 35 108.5 54.5t131.5 19.5q139 0 243 -74l201 201l119 -117l-201 -205q70 -106 70 -237t-70 -238l201 -203l-119 -118l-201 202q-53 -39 -112.5 -56t-128.5 -17q-135 0 -242 73l-203 -202z M362 885q0 -53 20.5 -100.5t55.5 -82t82 -55t103 -20.5q53 0 100 20.5t82 55t55.5 81.5t20.5 101q0 53 -20.5 100t-55.5 83t-82 56.5t-100 20.5t-101.5 -20.5t-83.5 -56.5t-55.5 -83t-20.5 -100z"/>
<glyph unicode="¥" horiz-adv-x="1335" d="M-27 1079v158h699v-158h-60q-78 0 -77 -45q0 -23 40 -86l152 -237l180 268q12 16 17.5 32.5t5.5 28.5q0 39 -109 39h-20v158h530v-158h-6q-43 0 -73.5 -9t-55.5 -27.5t-46.5 -45t-43.5 -63.5l-51 -82h229v-133h-317l-88 -139h405v-131h-450v-164q0 -41 4 -66.5t17 -39 t35.5 -17.5t59.5 -4h86v-158h-753v158h88q37 0 59.5 4t34.5 18.5t16 39t4 65.5v164h-440v131h397l-90 139h-307v133h221l-53 82q-23 35 -45.5 61.5t-50 45t-62.5 28.5t-82 10z"/>
<glyph unicode="¦" d="M393 -350v758h240v-758h-240zM393 674v758h240v-758h-240z"/>
<glyph unicode="§" horiz-adv-x="1275" d="M133 512q0 96 55.5 172t159.5 125q-143 100 -143 260q0 74 31.5 137.5t90 110.5t141.5 74.5t187 27.5q94 0 170 -20.5t129.5 -55t83 -80.5t29.5 -98q0 -68 -43 -113.5t-109 -45.5t-104.5 36.5t-38.5 90.5q0 55 53 94q-78 51 -176 51q-100 0 -156.5 -43t-56.5 -115 q0 -45 22.5 -71.5t64.5 -47t102.5 -40t136.5 -48.5q98 -39 171 -74.5t120 -78.5t70.5 -97.5t23.5 -127.5q0 -186 -217 -299q90 -57 132 -127t42 -162q0 -174 -124 -277.5t-351 -103.5q-102 0 -182 22.5t-135.5 62.5t-85 92t-29.5 114q0 74 43 120t114 46q70 0 113 -36 t43 -98q0 -78 -84 -127q41 -23 83 -37t93 -14q125 0 196.5 49.5t71.5 122.5q0 80 -57 125t-141 71.5t-187 67.5q-92 35 -158.5 71t-109.5 78t-63.5 94t-20.5 122zM348 573q0 -51 31 -83.5t96 -67.5q113 -57 194 -80t99 -23q72 0 115 43.5t43 102.5q0 47 -29 80t-88 63 q-117 59 -201 84t-110 25q-70 0 -110 -45.5t-40 -98.5z"/>
<glyph unicode="¨" d="M131 1315q0 63 48 111.5t114 48.5q68 0 114 -47.5t46 -112.5q0 -72 -45.5 -117t-114.5 -45q-68 0 -115 46t-47 116zM569 1315q0 63 47.5 111.5t112.5 48.5q68 0 115 -47.5t47 -112.5q0 -72 -46 -117t-116 -45q-68 0 -114 46t-46 116z"/>
<glyph unicode="©" horiz-adv-x="1683" d="M98 678q0 150 55.5 283t161.5 241q104 106 241.5 163.5t287.5 57.5q145 0 281.5 -56t240.5 -161q104 -104 161.5 -241.5t57.5 -286.5q0 -147 -56 -281.5t-163 -242.5q-104 -104 -238.5 -160.5t-285.5 -56.5q-150 0 -283 55t-242 162q-106 104 -162.5 238t-56.5 286z M213 678q0 -129 46 -242.5t138 -204.5q188 -184 445 -184q129 0 241.5 47t200.5 137q90 92 138 208t48 239q0 127 -48 244.5t-136 203.5q-90 88 -204.5 136.5t-237.5 48.5q-127 0 -243 -48.5t-204 -138.5q-90 -92 -137 -205.5t-47 -240.5zM403 664q0 98 33 180t91.5 140 t137 91t173.5 33q51 0 90 -10.5t67.5 -22.5t48 -22.5t31.5 -10.5q23 0 34 14.5t19 47.5h50v-330h-52q-31 135 -100.5 204t-161.5 69q-223 0 -223 -363q0 -186 61.5 -280.5t176.5 -94.5q154 0 268 176l51 -32q-129 -217 -350 -217q-98 0 -179 32.5t-140.5 91t-92.5 136.5 t-33 168z"/>
<glyph unicode="ª" horiz-adv-x="946" d="M47 866q0 51 17.5 84t50 55.5t82 37t112.5 26.5q51 10 90 19.5t64.5 22.5t38 33.5t12.5 53.5q0 47 -40 78t-114 31q-37 0 -65.5 -6.5t-50.5 -22.5q41 -2 65.5 -24.5t24.5 -55.5q0 -41 -34 -66.5t-87 -25.5q-59 0 -96 29.5t-37 78.5q0 86 89 135.5t259 49.5 q90 0 153.5 -14.5t98.5 -36.5q55 -37 66.5 -78t11.5 -101v-20v-260q0 -63 39 -64q23 0 31 14.5t8 49.5v59h92v-65q0 -109 -50.5 -160t-160.5 -51q-145 0 -187 104q-98 -104 -251 -104q-109 0 -170.5 53t-61.5 141zM311 893q0 -35 25.5 -55.5t66.5 -20.5q49 0 78 30t29 85 v100q-47 -23 -84 -39t-62.5 -30.5t-39 -29.5t-13.5 -40z"/>
<glyph unicode="«" horiz-adv-x="1001" d="M94 483q0 72 213 353h174q-53 -131 -86 -217.5t-33 -135.5q0 -45 36 -130t100 -216h-191q-100 139 -156.5 222t-56.5 124zM504 483q0 72 213 353h174q-53 -131 -86 -217.5t-33 -135.5q0 -45 36 -130t99 -216h-190q-100 139 -156.5 222t-56.5 124z"/>
<glyph unicode="¬" horiz-adv-x="1705" d="M254 639v227h1198v-501h-229v274h-969z"/>
<glyph unicode="­" horiz-adv-x="724" d="M74 330v307h577v-307h-577z"/>
<glyph unicode="®" horiz-adv-x="1683" d="M98 678q0 147 55.5 282.5t161.5 241.5q104 106 241.5 163.5t287.5 57.5q152 0 292 -59t244 -170q98 -102 151.5 -239.5t53.5 -292.5q0 -139 -61.5 -277.5t-177.5 -249.5q-102 -98 -231.5 -149.5t-272.5 -51.5q-221 0 -410 123q-160 106 -247 267t-87 354zM213 678 q0 -129 46 -242.5t138 -204.5q188 -184 445 -184q129 0 241.5 47t200.5 137q90 92 138 208t48 239q0 127 -49 244.5t-137 203.5q-90 88 -203.5 136.5t-236.5 48.5q-127 0 -244 -48.5t-205 -138.5q-90 -92 -136 -205.5t-46 -240.5zM463 281v57q55 4 76.5 23.5t21.5 66.5v524 q0 49 -20.5 66.5t-77.5 25.5v56h405q156 0 241 -58.5t85 -142.5q0 -90 -66.5 -138t-209.5 -73q229 -45 229 -260q0 -45 9 -66.5t34 -21.5q53 0 53 119v12h55q0 -8 1 -15t1 -14q0 -180 -188 -180q-92 0 -135 49q-16 18 -23.5 42t-10.5 48.5t-3 52t-4 56.5q-12 86 -46 124 t-102 38h-16v-244q0 -47 18.5 -64.5t69.5 -25.5v-57h-397zM772 727q10 -2 20 -2h19q170 0 170 174q0 59 -37 102t-100 43q-72 0 -72 -63v-254z"/>
<glyph unicode="¯" d="M186 1206v180h652v-180h-652z"/>
<glyph unicode="°" horiz-adv-x="673" d="M27 1155q0 66 24.5 123t66.5 99t98 65.5t122 23.5q63 0 119.5 -24.5t99.5 -66.5t67.5 -98t24.5 -122q0 -63 -24.5 -119.5t-66.5 -99.5t-99.5 -67.5t-122.5 -24.5q-66 0 -122 24.5t-97 66.5t-65.5 98t-24.5 122zM172 1157q0 -70 47 -118t119 -48q70 0 117 49.5t47 116.5 q0 68 -47 116t-117 48q-68 0 -117 -47t-49 -117z"/>
<glyph unicode="±" horiz-adv-x="1705" d="M254 -18v231h1198v-231h-1198zM254 690v232h481v319h238v-319h479v-232h-479v-319h-238v319h-481z"/>
<glyph unicode="²" horiz-adv-x="858" d="M57 500v41q0 70 31 127t96 110q51 41 107.5 66.5t105.5 54.5q53 31 82 61.5t29 77.5q0 53 -43 85t-119 32q-121 0 -158 -84q20 6 41 6q43 0 69 -23.5t26 -60.5q0 -41 -35 -71.5t-88 -30.5q-66 0 -105 37t-39 98q0 49 26 94t72 78t110.5 52.5t144.5 19.5q168 0 263 -70 t95 -180q0 -170 -250 -238q-49 -14 -94 -25.5t-84 -26.5t-69.5 -34.5t-55.5 -50.5q76 41 170 41q68 0 118 -13.5t87 -13.5q43 0 60.5 25t17.5 80h118q2 -12 2 -24v-21q0 -242 -243 -242q-53 0 -93 14.5t-77 26.5q-82 29 -123 29q-57 0 -80 -47h-115z"/>
<glyph unicode="³" horiz-adv-x="858" d="M61 682q0 59 38 96t102 37q51 0 84.5 -28.5t33.5 -73.5q0 -41 -27.5 -65.5t-80.5 -24.5q55 -41 149 -41q86 0 132.5 36.5t46.5 104.5q0 61 -45 89t-140 28v104q164 6 164 109q0 53 -42 83.5t-120 30.5q-84 0 -133 -41h13q43 0 67.5 -22.5t24.5 -56.5q0 -45 -31 -71 t-84 -26q-59 0 -92 30t-33 83q0 92 85 149.5t243 57.5q172 0 260 -53.5t88 -149.5q0 -61 -44 -105t-130 -59q207 -45 207 -188q0 -117 -100.5 -177.5t-299.5 -60.5q-164 0 -250 57.5t-86 147.5z"/>
<glyph unicode="´" d="M287 1102l295 313q45 47 81.5 74t84.5 27q49 0 81.5 -33t32.5 -82q0 -41 -26.5 -69.5t-81.5 -57.5l-346 -172h-121z"/>
<glyph unicode="µ" horiz-adv-x="1232" d="M-98 -303q0 43 16 104.5t43 145.5t56.5 190.5t58.5 237.5l108 510h293l-106 -498q-20 -88 -21 -125q0 -55 28 -87t75 -32q66 0 106.5 56.5t65.5 169.5l110 516h291l-111 -525q-12 -53 -12 -92q0 -45 19.5 -68.5t54.5 -23.5q55 0 90 51q27 39 43 72t47 33q10 0 19.5 -11.5 t9.5 -27.5q0 -23 -17.5 -78t-56.5 -113q-82 -123 -221 -122q-176 0 -191 194q-74 -195 -249 -194q-100 0 -161 53t-71 157q-20 -156 -30.5 -271.5t-26 -192t-45 -114.5t-88.5 -38q-57 0 -92 35t-35 88z"/>
<glyph unicode="μ" horiz-adv-x="1232" d="M-98 -303q0 43 16 104.5t43 145.5t56.5 190.5t58.5 237.5l108 510h293l-106 -498q-20 -88 -21 -125q0 -55 28 -87t75 -32q66 0 106.5 56.5t65.5 169.5l110 516h291l-111 -525q-12 -53 -12 -92q0 -45 19.5 -68.5t54.5 -23.5q55 0 90 51q27 39 43 72t47 33q10 0 19.5 -11.5 t9.5 -27.5q0 -23 -17.5 -78t-56.5 -113q-82 -123 -221 -122q-176 0 -191 194q-74 -195 -249 -194q-100 0 -161 53t-71 157q-20 -156 -30.5 -271.5t-26 -192t-45 -114.5t-88.5 -38q-57 0 -92 35t-35 88z"/>
<glyph unicode="¶" d="M29 1130q0 76 26.5 140.5t76.5 110.5t123 72t163 26h579v-123h-106v-1356h-174v1356h-152v-1356h-174v784q-84 2 -150.5 30t-113.5 73t-72.5 107t-25.5 136z"/>
<glyph unicode="·" horiz-adv-x="651" d="M152 653q0 72 51 122t123 50t122 -50t50 -122q0 -74 -49.5 -124t-122.5 -50q-74 0 -124 51t-50 123z"/>
<glyph unicode="¸" d="M190 -387l52 108q139 -82 256 -81q37 0 61.5 20.5t24.5 58.5q0 86 -99 86q-14 0 -29.5 -2t-33.5 -6v203h92v-109q35 8 74 9q92 0 143 -48.5t51 -134.5q0 -92 -63.5 -146t-175.5 -54q-74 0 -160.5 25.5t-192.5 70.5z"/>
<glyph unicode="¹" horiz-adv-x="858" d="M154 500v102h61q35 0 55.5 3t29.5 11.5t11 22.5t2 35v22v346h-159v101q182 2 225 104h172v-559q0 -29 3 -46t13.5 -26.5t29.5 -11.5t54 -2h54v-102h-551z"/>
<glyph unicode="º" horiz-adv-x="917" d="M39 1036q0 170 110.5 267.5t309.5 97.5q197 0 308.5 -97.5t111.5 -267.5t-112 -266t-308 -96q-199 0 -309.5 96t-110.5 266zM315 1036q0 -127 29 -183t115 -56q84 0 112.5 56t28.5 183t-28.5 184.5t-112.5 57.5q-86 0 -115 -57.5t-29 -184.5z"/>
<glyph unicode="»" horiz-adv-x="1001" d="M94 137q63 131 99 216t36 130q0 49 -32.5 135.5t-85.5 217.5h174q213 -281 213 -353q0 -41 -56.5 -124t-156.5 -222h-191zM504 137q63 131 99 216t36 130q0 49 -33 135.5t-86 217.5h174q213 -281 213 -353q0 -41 -56 -124t-157 -222h-190z"/>
<glyph unicode="¼" horiz-adv-x="1980" d="M147 549v94h58q68 0 81 14.5t13 53.5v22v324h-152v92q172 2 213 98h166v-522q0 -29 3 -44t12.5 -24.5t28 -11.5t51.5 -2h51v-94h-525zM477 -37l854 1321h170l-842 -1321h-182zM1212 213v109l400 376h196v-385h125v-100h-125v-70q0 -31 17.5 -40t72.5 -9h35v-94h-481v94 h35q37 0 57.5 3t29.5 10.5t11 20.5t2 32v6v47h-375zM1341 313h246l2 226z"/>
<glyph unicode="½" horiz-adv-x="1980" d="M147 549v94h58q68 0 81 14.5t13 53.5v22v324h-152v92q172 2 213 98h166v-522q0 -29 3 -44t12.5 -24.5t28 -11.5t51.5 -2h51v-94h-525zM477 -37l854 1321h170l-842 -1321h-182zM1214 18v19q0 127 123 223q49 37 102.5 61.5t100.5 51.5q53 29 79 56.5t26 74.5t-41 77.5 t-113 30.5q-117 0 -150 -80q18 6 39 7q41 0 65.5 -21.5t24.5 -56.5q0 -41 -32.5 -67.5t-85.5 -26.5q-63 0 -100.5 33.5t-37.5 91.5q0 47 25 88t69 71.5t106.5 49t137.5 18.5q160 0 251 -64.5t91 -169.5q0 -160 -237 -221q-96 -27 -170 -49t-121 -78q76 37 164 37 q63 0 111.5 -12t82.5 -12q41 0 57.5 22.5t16.5 73.5h115v-41q0 -225 -232 -225q-51 0 -89 13t-72 23q-39 14 -67 21.5t-50 7.5q-55 0 -76 -45h-110q-3 10 -3 18z"/>
<glyph unicode="¾" horiz-adv-x="1980" d="M57 719q0 55 37 90t96 35q49 0 82 -28t33 -68q0 -37 -27.5 -60.5t-76.5 -23.5q29 -20 63.5 -28.5t79.5 -8.5q84 0 127 33.5t43 95.5q0 59 -43 84.5t-133 25.5v97q158 6 158 102q0 49 -41 79t-115 30q-76 0 -127 -39h12q41 0 64.5 -20.5t23.5 -55.5q0 -41 -29.5 -65.5 t-80.5 -24.5q-55 0 -87 28.5t-32 77.5q0 86 81 139.5t230 53.5q164 0 249 -50.5t85 -138.5q0 -59 -43 -100t-123 -53q199 -43 199 -176q0 -109 -95.5 -166.5t-287.5 -57.5q-156 0 -239 54.5t-83 138.5zM477 -37l854 1321h170l-842 -1321h-182zM1212 213v109l400 376h196 v-385h125v-100h-125v-70q0 -31 17.5 -40t72.5 -9h35v-94h-481v94h35q37 0 57.5 3t29.5 10.5t11 20.5t2 32v6v47h-375zM1341 313h246l2 226z"/>
<glyph unicode="¿" horiz-adv-x="1159" d="M94 338q0 104 46 180t145 148q45 33 86 60.5t73.5 58t53 66.5t24.5 89h203q2 -8 2 -16v-17q0 -115 -74 -215q-31 -45 -63.5 -85t-59 -81t-44 -85t-17.5 -93q0 -82 61.5 -137t157.5 -55q86 0 147.5 47t69.5 119q-53 -18 -88 -19q-70 0 -108.5 40t-38.5 110q0 84 51 131 t143 47q86 0 144.5 -71t58.5 -185q0 -88 -35 -164t-99.5 -132t-153.5 -88t-199 -32q-109 0 -198 28.5t-152.5 79t-99.5 120t-36 151.5zM451 1241q0 74 50 124t124 50t123 -51t49 -123t-50.5 -122t-121.5 -50q-72 0 -123 50t-51 122z"/>
<glyph unicode="À" horiz-adv-x="1466" d="M-27 0v180h50q41 0 66.5 7.5t41.5 23.5t27.5 40.5t23.5 61.5l353 1061h409l338 -1067q12 -35 23.5 -59.5t27 -39.5t37 -21.5t53.5 -6.5h70v-180h-758v180h58q68 0 96.5 9.5t28.5 39.5q0 10 -3.5 20.5l-7.5 22.5l-53 170h-395l-51 -157q-6 -18 -8.5 -32.5t-2.5 -23.5 q0 -33 26 -41t85 -8h67v-180h-602zM518 621h279l-138 434zM400 1813q0 49 32.5 82t81.5 33q45 0 83 -27t83 -74l295 -313h-121l-346 172q-55 29 -81.5 57.5t-26.5 69.5z"/>
<glyph unicode="Á" horiz-adv-x="1466" d="M-27 0v180h50q41 0 66.5 7.5t41.5 23.5t27.5 40.5t23.5 61.5l353 1061h409l338 -1067q12 -35 23.5 -59.5t27 -39.5t37 -21.5t53.5 -6.5h70v-180h-758v180h58q68 0 96.5 9.5t28.5 39.5q0 10 -3.5 20.5l-7.5 22.5l-53 170h-395l-51 -157q-6 -18 -8.5 -32.5t-2.5 -23.5 q0 -33 26 -41t85 -8h67v-180h-602zM518 621h279l-138 434zM525 1514l295 313q45 47 81.5 74t84.5 27q49 0 81.5 -33t32.5 -82q0 -41 -26.5 -69.5t-81.5 -57.5l-346 -172h-121z"/>
<glyph unicode="Â" horiz-adv-x="1466" d="M-27 0v180h50q41 0 66.5 7.5t41.5 23.5t27.5 40.5t23.5 61.5l353 1061h409l338 -1067q12 -35 23.5 -59.5t27 -39.5t37 -21.5t53.5 -6.5h70v-180h-758v180h58q68 0 96.5 9.5t28.5 39.5q0 10 -3.5 20.5l-7.5 22.5l-53 170h-395l-51 -157q-6 -18 -8.5 -32.5t-2.5 -23.5 q0 -33 26 -41t85 -8h67v-180h-602zM518 621h279l-138 434zM410 1512l242 393h196l242 -393h-107l-233 182l-233 -182h-107z"/>
<glyph unicode="Ã" horiz-adv-x="1466" d="M-27 0v180h50q41 0 66.5 7.5t41.5 23.5t27.5 40.5t23.5 61.5l353 1061h409l338 -1067q12 -35 23.5 -59.5t27 -39.5t37 -21.5t53.5 -6.5h70v-180h-758v180h58q68 0 96.5 9.5t28.5 39.5q0 10 -3.5 20.5l-7.5 22.5l-53 170h-395l-51 -157q-6 -18 -8.5 -32.5t-2.5 -23.5 q0 -33 26 -41t85 -8h67v-180h-602zM518 621h279l-138 434zM402 1545q51 283 246 282q37 0 84 -12l127 -33q14 -4 26 -6t23 -2q41 0 62.5 23.5t37.5 74.5h88q-55 -283 -242 -282q-29 0 -73 10l-123 35q-45 10 -62 10q-84 0 -106 -100h-88z"/>
<glyph unicode="Ä" horiz-adv-x="1466" d="M-27 0v180h50q41 0 66.5 7.5t41.5 23.5t27.5 40.5t23.5 61.5l353 1061h409l338 -1067q12 -35 23.5 -59.5t27 -39.5t37 -21.5t53.5 -6.5h70v-180h-758v180h58q68 0 96.5 9.5t28.5 39.5q0 10 -3.5 20.5l-7.5 22.5l-53 170h-395l-51 -157q-6 -18 -8.5 -32.5t-2.5 -23.5 q0 -33 26 -41t85 -8h67v-180h-602zM518 621h279l-138 434zM369 1727q0 63 48 111.5t114 48.5q68 0 114 -47.5t46 -112.5q0 -72 -45.5 -117t-114.5 -45q-68 0 -115 46t-47 116zM807 1727q0 63 47.5 111.5t112.5 48.5q68 0 115 -47.5t47 -112.5q0 -72 -46 -117t-116 -45 q-68 0 -114 46t-46 116z"/>
<glyph unicode="Å" horiz-adv-x="1466" d="M-27 0v180h50q41 0 66.5 7.5t41.5 23.5t27.5 42t23.5 60l353 1043h409l338 -1049q12 -35 23.5 -59.5t27 -39.5t37 -21.5t53.5 -6.5h70v-180h-758v180h58q68 0 96.5 9.5t28.5 39.5q0 10 -3.5 20.5l-7.5 22.5l-53 170h-395l-51 -157q-6 -18 -8.5 -32.5t-2.5 -23.5 q0 -33 26 -41t85 -8h67v-180h-602zM459 1696q0 57 21.5 107t59.5 88t88 59.5t107 21.5t107.5 -21.5t88.5 -59.5t59.5 -88t21.5 -107t-21.5 -107.5t-59.5 -87.5t-88 -58.5t-108 -21.5q-57 0 -107 21.5t-88 58.5t-59.5 87.5t-21.5 107.5zM518 621h279l-138 434zM616 1696 q0 -51 33 -85t86 -34q49 0 84 35t35 84t-36 85t-83 36q-49 0 -84 -36t-35 -85z"/>
<glyph unicode="Æ" horiz-adv-x="2289" d="M-25 0v180h27q63 0 115.5 35t87.5 98l422 762q29 51 28 62q0 37 -27.5 47t-90.5 10h-76v180h1653v-524h-181q-14 100 -34.5 168.5t-65.5 109.5q-51 47 -127 56.5t-186 9.5h-181v-391h37q57 0 94 9t58.5 33.5t30 66.5t8.5 108h172v-627h-172q-2 76 -10.5 121t-30 68.5 t-57 31t-93.5 7.5h-37v-441h187q109 0 181.5 15.5t118.5 57.5t70.5 117.5t36.5 196.5h181v-567h-1364v180h84q43 0 67.5 4t37.5 17.5t17.5 37t4.5 60.5v217h-375l-115 -211q-14 -25 -22.5 -43t-8.5 -37q0 -27 27 -36t80 -9h67v-180h-639zM682 696h279v498h-27z"/>
<glyph unicode="Ç" horiz-adv-x="1507" d="M68 688q0 166 51 297t157 236q104 102 226.5 148t279.5 46q221 0 400 -133l41 109h188v-560h-201q-12 184 -104 283.5t-242 99.5q-164 0 -257 -134t-93 -390t92 -391t260 -135q141 0 229.5 95t98.5 273h217q-16 -573 -612 -573q-168 0 -303.5 52t-230.5 147.5t-146 229.5 t-51 300zM442 -387l52 108q139 -82 256 -81q37 0 61.5 20.5t24.5 58.5q0 86 -99 86q-14 0 -29.5 -2t-33.5 -6v203h92v-109q35 8 74 9q92 0 143 -48.5t51 -134.5q0 -92 -63.5 -146t-175.5 -54q-74 0 -160.5 25.5t-192.5 70.5z"/>
<glyph unicode="È" horiz-adv-x="1531" d="M39 0v180h76q43 0 67.5 4t36.5 17.5t16.5 37t4.5 60.5v776q0 37 -4.5 60.5t-16.5 37t-36.5 17.5t-67.5 4h-76v180h1358v-524h-180q-14 100 -35 168.5t-66 109.5q-51 47 -127 56.5t-186 9.5h-178v-391h34q57 0 94.5 9t59 33.5t29.5 66.5t8 108h172v-627h-172 q-2 74 -10.5 119t-28.5 69.5t-57 33t-95 8.5h-34v-443h184q109 0 181.5 15.5t118.5 57.5t70.5 117.5t37.5 196.5h180v-567h-1358zM406 1813q0 49 32.5 82t81.5 33q45 0 83 -27t83 -74l295 -313h-121l-346 172q-55 29 -81.5 57.5t-26.5 69.5z"/>
<glyph unicode="É" horiz-adv-x="1531" d="M39 0v180h76q43 0 67.5 4t36.5 17.5t16.5 37t4.5 60.5v776q0 37 -4.5 60.5t-16.5 37t-36.5 17.5t-67.5 4h-76v180h1358v-524h-180q-14 100 -35 168.5t-66 109.5q-51 47 -127 56.5t-186 9.5h-178v-391h34q57 0 94.5 9t59 33.5t29.5 66.5t8 108h172v-627h-172 q-2 74 -10.5 119t-28.5 69.5t-57 33t-95 8.5h-34v-443h184q109 0 181.5 15.5t118.5 57.5t70.5 117.5t37.5 196.5h180v-567h-1358zM531 1514l295 313q45 47 81.5 74t84.5 27q49 0 81.5 -33t32.5 -82q0 -41 -26.5 -69.5t-81.5 -57.5l-346 -172h-121z"/>
<glyph unicode="Ê" horiz-adv-x="1531" d="M39 0v180h76q43 0 67.5 4t36.5 17.5t16.5 37t4.5 60.5v776q0 37 -4.5 60.5t-16.5 37t-36.5 17.5t-67.5 4h-76v180h1358v-524h-180q-14 100 -35 168.5t-66 109.5q-51 47 -127 56.5t-186 9.5h-178v-391h34q57 0 94.5 9t59 33.5t29.5 66.5t8 108h172v-627h-172 q-2 74 -10.5 119t-28.5 69.5t-57 33t-95 8.5h-34v-443h184q109 0 181.5 15.5t118.5 57.5t70.5 117.5t37.5 196.5h180v-567h-1358zM416 1512l242 393h196l242 -393h-107l-233 182l-233 -182h-107z"/>
<glyph unicode="Ë" horiz-adv-x="1531" d="M39 0v180h76q43 0 67.5 4t36.5 17.5t16.5 37t4.5 60.5v776q0 37 -4.5 60.5t-16.5 37t-36.5 17.5t-67.5 4h-76v180h1358v-524h-180q-14 100 -35 168.5t-66 109.5q-51 47 -127 56.5t-186 9.5h-178v-391h34q57 0 94.5 9t59 33.5t29.5 66.5t8 108h172v-627h-172 q-2 74 -10.5 119t-28.5 69.5t-57 33t-95 8.5h-34v-443h184q109 0 181.5 15.5t118.5 57.5t70.5 117.5t37.5 196.5h180v-567h-1358zM375 1727q0 63 48 111.5t114 48.5q68 0 114 -47.5t46 -112.5q0 -72 -45.5 -117t-114.5 -45q-68 0 -115 46t-47 116zM813 1727q0 63 47.5 111.5 t112.5 48.5q68 0 115 -47.5t47 -112.5q0 -72 -46 -117t-116 -45q-68 0 -114 46t-46 116z"/>
<glyph unicode="Ì" horiz-adv-x="897" d="M43 0v180h84q43 0 67.5 4t37 17.5t16.5 37t4 60.5v776q0 37 -4 60.5t-16.5 37t-37 17.5t-67.5 4h-84v180h811v-180h-84q-43 0 -67.5 -4t-38 -17.5t-17.5 -37t-4 -60.5v-776q0 -37 4 -60.5t17.5 -37t38 -17.5t67.5 -4h84v-180h-811zM101 1813q0 49 32.5 82t81.5 33 q45 0 83 -27t83 -74l295 -313h-121l-346 172q-55 29 -81.5 57.5t-26.5 69.5z"/>
<glyph unicode="Í" horiz-adv-x="897" d="M43 0v180h84q43 0 67.5 4t37 17.5t16.5 37t4 60.5v776q0 37 -4 60.5t-16.5 37t-37 17.5t-67.5 4h-84v180h811v-180h-84q-43 0 -67.5 -4t-38 -17.5t-17.5 -37t-4 -60.5v-776q0 -37 4 -60.5t17.5 -37t38 -17.5t67.5 -4h84v-180h-811zM226 1514l295 313q45 47 81.5 74 t84.5 27q49 0 81.5 -33t32.5 -82q0 -41 -26.5 -69.5t-81.5 -57.5l-346 -172h-121z"/>
<glyph unicode="Î" horiz-adv-x="897" d="M43 0v180h84q43 0 67.5 4t37 17.5t16.5 37t4 60.5v776q0 37 -4 60.5t-16.5 37t-37 17.5t-67.5 4h-84v180h811v-180h-84q-43 0 -67.5 -4t-38 -17.5t-17.5 -37t-4 -60.5v-776q0 -37 4 -60.5t17.5 -37t38 -17.5t67.5 -4h84v-180h-811zM111 1512l242 393h196l242 -393h-107 l-233 182l-233 -182h-107z"/>
<glyph unicode="Ï" horiz-adv-x="897" d="M43 0v180h84q43 0 67.5 4t37 17.5t16.5 37t4 60.5v776q0 37 -4 60.5t-16.5 37t-37 17.5t-67.5 4h-84v180h811v-180h-84q-43 0 -67.5 -4t-38 -17.5t-17.5 -37t-4 -60.5v-776q0 -37 4 -60.5t17.5 -37t38 -17.5t67.5 -4h84v-180h-811zM70 1727q0 63 48 111.5t114 48.5 q68 0 114 -47.5t46 -112.5q0 -72 -45.5 -117t-114.5 -45q-68 0 -115 46t-47 116zM508 1727q0 63 47.5 111.5t112.5 48.5q68 0 115 -47.5t47 -112.5q0 -72 -46 -117t-116 -45q-68 0 -114 46t-46 116z"/>
<glyph unicode="Ð" horiz-adv-x="1652" d="M12 631v166h238v278q0 37 -4 60.5t-17.5 37t-38 17.5t-67.5 4h-76v180h727q412 0 611.5 -167t199.5 -519t-199.5 -520t-611.5 -168h-727v180h76q43 0 67.5 4t38 17.5t17.5 37t4 60.5v332h-238zM633 180h141q100 0 170 30t113 91t62.5 157.5t19.5 229.5q0 137 -20.5 234.5 t-64.5 157t-116 87t-174 27.5h-131v-397h264v-166h-264v-451z"/>
<glyph unicode="Ñ" horiz-adv-x="1675" d="M39 0v180h72q43 0 67.5 4t37.5 17.5t17.5 37t4.5 60.5v776q0 37 -4.5 60.5t-17.5 37t-37.5 17.5t-67.5 4h-72v180h657l527 -958v659q0 37 -4.5 60.5t-17.5 37t-37.5 17.5t-67.5 4h-78v180h627v-180h-64q-43 0 -67.5 -4t-38 -17.5t-17.5 -37t-4 -60.5v-1075h-422 l-563 1022v-723q0 -37 4 -60.5t17.5 -37t38 -17.5t67.5 -4h78v-180h-635zM514 1545q51 283 246 282q37 0 84 -12l127 -33q14 -4 26 -6t23 -2q41 0 62.5 23.5t37.5 74.5h88q-55 -283 -242 -282q-29 0 -73 10l-123 35q-45 10 -62 10q-84 0 -106 -100h-88z"/>
<glyph unicode="Ò" horiz-adv-x="1677" d="M68 686q0 168 52 303t152.5 230.5t242.5 145.5t325 50q180 0 323.5 -50t242.5 -145.5t151.5 -230.5t52.5 -303q0 -170 -52.5 -304t-151.5 -228.5t-242.5 -144.5t-323.5 -50q-182 0 -324.5 50t-243 144.5t-152.5 228.5t-52 304zM514 686q0 -274 76 -406.5t250 -132.5 t249.5 132.5t75.5 406.5t-75.5 406.5t-249.5 132.5t-250 -132.5t-76 -406.5zM490 1813q0 49 32.5 82t81.5 33q45 0 83 -27t83 -74l295 -313h-121l-346 172q-55 29 -81.5 57.5t-26.5 69.5z"/>
<glyph unicode="Ó" horiz-adv-x="1677" d="M68 686q0 168 52 303t152.5 230.5t242.5 145.5t325 50q180 0 323.5 -50t242.5 -145.5t151.5 -230.5t52.5 -303q0 -170 -52.5 -304t-151.5 -228.5t-242.5 -144.5t-323.5 -50q-182 0 -324.5 50t-243 144.5t-152.5 228.5t-52 304zM514 686q0 -274 76 -406.5t250 -132.5 t249.5 132.5t75.5 406.5t-75.5 406.5t-249.5 132.5t-250 -132.5t-76 -406.5zM615 1514l295 313q45 47 81.5 74t84.5 27q49 0 81.5 -33t32.5 -82q0 -41 -26.5 -69.5t-81.5 -57.5l-346 -172h-121z"/>
<glyph unicode="Ô" horiz-adv-x="1677" d="M68 686q0 168 52 303t152.5 230.5t242.5 145.5t325 50q180 0 323.5 -50t242.5 -145.5t151.5 -230.5t52.5 -303q0 -170 -52.5 -304t-151.5 -228.5t-242.5 -144.5t-323.5 -50q-182 0 -324.5 50t-243 144.5t-152.5 228.5t-52 304zM514 686q0 -274 76 -406.5t250 -132.5 t249.5 132.5t75.5 406.5t-75.5 406.5t-249.5 132.5t-250 -132.5t-76 -406.5zM500 1512l242 393h196l242 -393h-107l-233 182l-233 -182h-107z"/>
<glyph unicode="Õ" horiz-adv-x="1677" d="M68 686q0 168 52 303t152.5 230.5t242.5 145.5t325 50q180 0 323.5 -50t242.5 -145.5t151.5 -230.5t52.5 -303q0 -170 -52.5 -304t-151.5 -228.5t-242.5 -144.5t-323.5 -50q-182 0 -324.5 50t-243 144.5t-152.5 228.5t-52 304zM514 686q0 -274 76 -406.5t250 -132.5 t249.5 132.5t75.5 406.5t-75.5 406.5t-249.5 132.5t-250 -132.5t-76 -406.5zM492 1545q51 283 246 282q37 0 84 -12l127 -33q14 -4 26 -6t23 -2q41 0 62.5 23.5t37.5 74.5h88q-55 -283 -242 -282q-29 0 -73 10l-123 35q-45 10 -62 10q-84 0 -106 -100h-88z"/>
<glyph unicode="Ö" horiz-adv-x="1677" d="M68 686q0 168 52 303t152.5 230.5t242.5 145.5t325 50q180 0 323.5 -50t242.5 -145.5t151.5 -230.5t52.5 -303q0 -170 -52.5 -304t-151.5 -228.5t-242.5 -144.5t-323.5 -50q-182 0 -324.5 50t-243 144.5t-152.5 228.5t-52 304zM514 686q0 -274 76 -406.5t250 -132.5 t249.5 132.5t75.5 406.5t-75.5 406.5t-249.5 132.5t-250 -132.5t-76 -406.5zM459 1727q0 63 48 111.5t114 48.5q68 0 114 -47.5t46 -112.5q0 -72 -45.5 -117t-114.5 -45q-68 0 -115 46t-47 116zM897 1727q0 63 47.5 111.5t112.5 48.5q68 0 115 -47.5t47 -112.5 q0 -72 -46 -117t-116 -45q-68 0 -114 46t-46 116z"/>
<glyph unicode="×" horiz-adv-x="1705" d="M268 170l441 440l-441 443l162 161l440 -440l441 440l162 -161l-441 -443l441 -440l-162 -162l-441 441l-440 -441z"/>
<glyph unicode="Ø" horiz-adv-x="1677" d="M68 705q0 160 52 289.5t150.5 224t236.5 145.5t310 51q141 0 263 -31.5t239 -99.5l156 156l110 -111l-147 -147q172 -229 172 -504q0 -166 -52.5 -298t-151.5 -226.5t-242.5 -144.5t-327.5 -50q-137 0 -254 30.5t-226 102.5l-153 -158l-111 113l148 146q-86 123 -129 249 t-43 263zM514 715q0 -41 2 -100.5t8 -133.5l580 586q-76 158 -264 158q-168 0 -247 -125t-79 -385zM573 309q74 -162 263 -162q330 0 329 510q0 78 -12 238z"/>
<glyph unicode="Ù" horiz-adv-x="1579" d="M39 1200v174h778v-174q-20 2 -37 2h-32q-51 0 -79 -10t-41.5 -33.5t-16.5 -62.5t-3 -97v-550q0 -147 51.5 -217t184.5 -70q156 0 219 63.5t63 206.5v557q0 61 -4 102.5t-18 66t-44 34.5t-79 10h-26q-13 0 -27 -2v174h612v-174q-72 0 -115 -7t-59 -26q-12 -14 -14 -59 t-2 -121v-581q0 -219 -144.5 -334t-431.5 -115q-262 0 -403.5 113.5t-141.5 318.5v604q0 113 -23.5 161t-107.5 48h-27q-16 0 -32 -2zM514 1813q0 49 32.5 82t81.5 33q45 0 83 -27t83 -74l295 -313h-121l-346 172q-55 29 -81.5 57.5t-26.5 69.5z"/>
<glyph unicode="Ú" horiz-adv-x="1579" d="M39 1200v174h778v-174q-20 2 -37 2h-32q-51 0 -79 -10t-41.5 -33.5t-16.5 -62.5t-3 -97v-550q0 -147 51.5 -217t184.5 -70q156 0 219 63.5t63 206.5v557q0 61 -4 102.5t-18 66t-44 34.5t-79 10h-26q-13 0 -27 -2v174h612v-174q-72 0 -115 -7t-59 -26q-12 -14 -14 -59 t-2 -121v-581q0 -219 -144.5 -334t-431.5 -115q-262 0 -403.5 113.5t-141.5 318.5v604q0 113 -23.5 161t-107.5 48h-27q-16 0 -32 -2zM639 1514l295 313q45 47 81.5 74t84.5 27q49 0 81.5 -33t32.5 -82q0 -41 -26.5 -69.5t-81.5 -57.5l-346 -172h-121z"/>
<glyph unicode="Û" horiz-adv-x="1579" d="M39 1200v174h778v-174q-20 2 -37 2h-32q-51 0 -79 -10t-41.5 -33.5t-16.5 -62.5t-3 -97v-550q0 -147 51.5 -217t184.5 -70q156 0 219 63.5t63 206.5v557q0 61 -4 102.5t-18 66t-44 34.5t-79 10h-26q-13 0 -27 -2v174h612v-174q-72 0 -115 -7t-59 -26q-12 -14 -14 -59 t-2 -121v-581q0 -219 -144.5 -334t-431.5 -115q-262 0 -403.5 113.5t-141.5 318.5v604q0 113 -23.5 161t-107.5 48h-27q-16 0 -32 -2zM524 1512l242 393h196l242 -393h-107l-233 182l-233 -182h-107z"/>
<glyph unicode="Ü" horiz-adv-x="1579" d="M39 1200v174h778v-174q-20 2 -37 2h-32q-51 0 -79 -10t-41.5 -33.5t-16.5 -62.5t-3 -97v-550q0 -147 51.5 -217t184.5 -70q156 0 219 63.5t63 206.5v557q0 61 -4 102.5t-18 66t-44 34.5t-79 10h-26q-13 0 -27 -2v174h612v-174q-72 0 -115 -7t-59 -26q-12 -14 -14 -59 t-2 -121v-581q0 -219 -144.5 -334t-431.5 -115q-262 0 -403.5 113.5t-141.5 318.5v604q0 113 -23.5 161t-107.5 48h-27q-16 0 -32 -2zM483 1727q0 63 48 111.5t114 48.5q68 0 114 -47.5t46 -112.5q0 -72 -45.5 -117t-114.5 -45q-68 0 -115 46t-47 116zM921 1727 q0 63 47.5 111.5t112.5 48.5q68 0 115 -47.5t47 -112.5q0 -72 -46 -117t-116 -45q-68 0 -114 46t-46 116z"/>
<glyph unicode="Ý" horiz-adv-x="1597" d="M47 1200v174h787v-174h-66q-86 0 -86 -51q0 -23 47 -94l160 -248l186 280q14 20 19.5 38t5.5 32q0 43 -109 43h-33v174h582v-174h-6q-49 0 -84 -11t-61.5 -31.5t-48 -50.5t-46.5 -69l-301 -471v-252q0 -47 4 -73.5t18.5 -42t39 -19.5t65.5 -4h97v-176h-830v176h96 q41 0 66.5 4t39 19.5t18.5 42t5 73.5v252l-301 471q-25 39 -49 69t-54 49.5t-69 30.5t-92 13zM574 1514l295 313q45 47 81.5 74t84.5 27q49 0 81.5 -33t32.5 -82q0 -41 -26.5 -69.5t-81.5 -57.5l-346 -172h-121z"/>
<glyph unicode="Þ" horiz-adv-x="1497" d="M39 0v180h76q43 0 67.5 4t36.5 16.5t16.5 36t4.5 62.5v776q0 37 -4.5 60.5t-16.5 37t-36.5 17.5t-67.5 4h-76v180h788v-180h-75q-76 0 -101.5 -16.5t-25.5 -79.5v-23h262q279 0 411 -93t132 -304q0 -88 -34 -160t-98 -123q-72 -59 -172 -76.5t-239 -17.5h-262v-12 q0 -35 4 -56.5t18.5 -33t39 -15.5t65.5 -4h73v-180h-786zM621 481h129q152 0 217 45t65 168q0 111 -67.5 155t-214.5 44h-129v-412z"/>
<glyph unicode="ß" horiz-adv-x="1277" d="M39 0v172h12q41 0 64.5 5t35 19.5t14.5 37t3 57.5v39v598q0 117 16.5 203t81.5 153q129 131 391 131q227 0 345 -76.5t118 -216.5q0 -215 -250 -274q330 -74 330 -412q0 -104 -26.5 -190t-75.5 -146.5t-116 -93.5t-146 -33q-123 0 -188.5 65.5t-65.5 192.5v129h147v-129 q0 -84 59 -84q41 0 49.5 41t8.5 127v74q0 94 -7.5 163t-31 112t-68.5 63.5t-121 20.5h-12v167h6q86 0 132.5 47.5t46.5 137.5q0 74 -39 112.5t-105 38.5q-49 0 -77.5 -15t-44 -46t-20.5 -77t-5 -107v-1006h-461z"/>
<glyph unicode="à" horiz-adv-x="1261" d="M61 240q0 72 22.5 119t68 78.5t111 52t149.5 38.5q68 14 120 27.5t85.5 33t51 49.5t17.5 77q0 68 -54 111.5t-153 43.5q-47 0 -85 -9t-70 -32q55 -4 87.5 -35.5t32.5 -78.5q0 -57 -45 -95t-116 -38q-80 0 -128.5 43t-48.5 112q0 123 119 193.5t346 70.5q119 0 204 -21.5 t130 -51.5q37 -27 58.5 -53.5t32 -57.5t12.5 -66.5t2 -78.5v-27v-373q0 -92 53 -92q29 0 40 22.5t11 69.5v84h123v-94q0 -154 -66.5 -226.5t-216.5 -72.5q-195 0 -247 150q-129 -150 -336 -150q-143 0 -226.5 76t-83.5 201zM414 279q0 -47 33.5 -78t89.5 -31q66 0 104.5 42 t38.5 122v143q-61 -33 -111.5 -55.5t-84 -43t-52 -43.5t-18.5 -56zM240 1401q0 49 32.5 82t81.5 33q45 0 83 -27t83 -74l295 -313h-121l-346 172q-55 29 -81.5 57.5t-26.5 69.5z"/>
<glyph unicode="á" horiz-adv-x="1261" d="M61 240q0 72 22.5 119t68 78.5t111 52t149.5 38.5q68 14 120 27.5t85.5 33t51 49.5t17.5 77q0 68 -54 111.5t-153 43.5q-47 0 -85 -9t-70 -32q55 -4 87.5 -35.5t32.5 -78.5q0 -57 -45 -95t-116 -38q-80 0 -128.5 43t-48.5 112q0 123 119 193.5t346 70.5q119 0 204 -21.5 t130 -51.5q37 -27 58.5 -53.5t32 -57.5t12.5 -66.5t2 -78.5v-27v-373q0 -92 53 -92q29 0 40 22.5t11 69.5v84h123v-94q0 -154 -66.5 -226.5t-216.5 -72.5q-195 0 -247 150q-129 -150 -336 -150q-143 0 -226.5 76t-83.5 201zM414 279q0 -47 33.5 -78t89.5 -31q66 0 104.5 42 t38.5 122v143q-61 -33 -111.5 -55.5t-84 -43t-52 -43.5t-18.5 -56zM365 1102l295 313q45 47 81.5 74t84.5 27q49 0 81.5 -33t32.5 -82q0 -41 -26.5 -69.5t-81.5 -57.5l-346 -172h-121z"/>
<glyph unicode="â" horiz-adv-x="1261" d="M61 240q0 72 22.5 119t68 78.5t111 52t149.5 38.5q68 14 120 27.5t85.5 33t51 49.5t17.5 77q0 68 -54 111.5t-153 43.5q-47 0 -85 -9t-70 -32q55 -4 87.5 -35.5t32.5 -78.5q0 -57 -45 -95t-116 -38q-80 0 -128.5 43t-48.5 112q0 123 119 193.5t346 70.5q119 0 204 -21.5 t130 -51.5q37 -27 58.5 -53.5t32 -57.5t12.5 -66.5t2 -78.5v-27v-373q0 -92 53 -92q29 0 40 22.5t11 69.5v84h123v-94q0 -154 -66.5 -226.5t-216.5 -72.5q-195 0 -247 150q-129 -150 -336 -150q-143 0 -226.5 76t-83.5 201zM414 279q0 -47 33.5 -78t89.5 -31q66 0 104.5 42 t38.5 122v143q-61 -33 -111.5 -55.5t-84 -43t-52 -43.5t-18.5 -56zM250 1100l242 393h196l242 -393h-107l-233 182l-233 -182h-107z"/>
<glyph unicode="ã" horiz-adv-x="1261" d="M61 240q0 72 22.5 119t68 78.5t111 52t149.5 38.5q68 14 120 27.5t85.5 33t51 49.5t17.5 77q0 68 -54 111.5t-153 43.5q-47 0 -85 -9t-70 -32q55 -4 87.5 -35.5t32.5 -78.5q0 -57 -45 -95t-116 -38q-80 0 -128.5 43t-48.5 112q0 123 119 193.5t346 70.5q119 0 204 -21.5 t130 -51.5q37 -27 58.5 -53.5t32 -57.5t12.5 -66.5t2 -78.5v-27v-373q0 -92 53 -92q29 0 40 22.5t11 69.5v84h123v-94q0 -154 -66.5 -226.5t-216.5 -72.5q-195 0 -247 150q-129 -150 -336 -150q-143 0 -226.5 76t-83.5 201zM414 279q0 -47 33.5 -78t89.5 -31q66 0 104.5 42 t38.5 122v143q-61 -33 -111.5 -55.5t-84 -43t-52 -43.5t-18.5 -56zM242 1133q51 283 246 282q37 0 84 -12l127 -33q14 -4 26 -6t23 -2q41 0 62.5 23.5t37.5 74.5h88q-55 -283 -242 -282q-29 0 -73 10l-123 35q-45 10 -62 10q-84 0 -106 -100h-88z"/>
<glyph unicode="ä" horiz-adv-x="1261" d="M61 240q0 72 22.5 119t68 78.5t111 52t149.5 38.5q68 14 120 27.5t85.5 33t51 49.5t17.5 77q0 68 -54 111.5t-153 43.5q-47 0 -85 -9t-70 -32q55 -4 87.5 -35.5t32.5 -78.5q0 -57 -45 -95t-116 -38q-80 0 -128.5 43t-48.5 112q0 123 119 193.5t346 70.5q119 0 204 -21.5 t130 -51.5q37 -27 58.5 -53.5t32 -57.5t12.5 -66.5t2 -78.5v-27v-373q0 -92 53 -92q29 0 40 22.5t11 69.5v84h123v-94q0 -154 -66.5 -226.5t-216.5 -72.5q-195 0 -247 150q-129 -150 -336 -150q-143 0 -226.5 76t-83.5 201zM414 279q0 -47 33.5 -78t89.5 -31q66 0 104.5 42 t38.5 122v143q-61 -33 -111.5 -55.5t-84 -43t-52 -43.5t-18.5 -56zM209 1315q0 63 48 111.5t114 48.5q68 0 114 -47.5t46 -112.5q0 -72 -45.5 -117t-114.5 -45q-68 0 -115 46t-47 116zM647 1315q0 63 47.5 111.5t112.5 48.5q68 0 115 -47.5t47 -112.5q0 -72 -46 -117 t-116 -45q-68 0 -114 46t-46 116z"/>
<glyph unicode="å" horiz-adv-x="1261" d="M61 240q0 72 22.5 119t68 78.5t111 52t149.5 38.5q68 14 120 27.5t85.5 33t51 49.5t17.5 77q0 68 -54 111.5t-153 43.5q-47 0 -85 -9t-70 -32q55 -4 87.5 -35.5t32.5 -78.5q0 -57 -45 -95t-116 -38q-80 0 -128.5 43t-48.5 112q0 123 119 193.5t346 70.5q119 0 204 -21.5 t130 -51.5q37 -27 58.5 -53.5t32 -57.5t12.5 -66.5t2 -78.5v-27v-373q0 -92 53 -92q29 0 40 22.5t11 69.5v84h123v-94q0 -154 -66.5 -226.5t-216.5 -72.5q-195 0 -247 150q-129 -150 -336 -150q-143 0 -226.5 76t-83.5 201zM303 1352q0 59 21.5 110t59.5 89t89 59.5 t111 21.5q59 0 110 -21.5t90 -59.5t60.5 -89t21.5 -110t-21.5 -110.5t-60.5 -90.5t-90 -60.5t-110 -21.5t-110.5 21.5t-89.5 60.5t-59.5 90.5t-21.5 110.5zM414 279q0 -47 33.5 -78t89.5 -31q66 0 104.5 42t38.5 122v143q-61 -33 -111.5 -55.5t-84 -43t-52 -43.5t-18.5 -56z M459 1352q0 -53 35.5 -89t89.5 -36q53 0 89 35.5t36 89.5q0 53 -37 89t-88 36q-53 0 -89 -36t-36 -89z"/>
<glyph unicode="æ" horiz-adv-x="1699" d="M61 240q0 72 22.5 119t68 78.5t111 52t149.5 38.5q68 14 120 27.5t85.5 33t51 49.5t17.5 77q0 68 -54 111.5t-153 43.5q-47 0 -85 -9t-70 -32q55 -4 87.5 -35.5t32.5 -78.5q0 -57 -45 -95t-116 -38q-80 0 -129.5 44t-49.5 115q0 55 31 102.5t88.5 82.5t138 55t183.5 20 q104 0 184 -27.5t131 -78.5q127 106 297 106q113 0 203 -35.5t153.5 -103t97.5 -164t34 -217.5v-41h-666v-16q0 -266 199 -266q180 0 208 170h246q-51 -180 -171 -272.5t-302 -92.5q-125 0 -221 43t-178 135q-166 -178 -385 -178q-147 0 -230.5 76t-83.5 201zM412 279 q0 -47 33.5 -78t89.5 -31q66 0 104.5 42t38.5 122v143q-61 -33 -111.5 -55.5t-84 -43t-52 -43.5t-18.5 -56zM987 606h313v27q0 92 -39.5 141t-111.5 49q-158 0 -162 -217z"/>
<glyph unicode="ç" horiz-adv-x="1028" d="M47 485q0 119 35 215.5t101.5 164t160.5 103.5t213 36q98 0 177 -25t134.5 -70t85 -105.5t29.5 -133.5q0 -96 -55.5 -152.5t-151.5 -56.5q-78 0 -124 44t-46 118q0 72 41 111.5t113 39.5h4q-57 57 -137 57q-219 0 -219 -335q0 -342 188 -342q154 0 164 186h215 q-10 -180 -118.5 -277.5t-305.5 -97.5q-242 0 -373 136t-131 384zM196 -387l52 108q139 -82 256 -81q37 0 61.5 20.5t24.5 58.5q0 86 -99 86q-14 0 -29.5 -2t-33.5 -6v203h92v-109q35 8 74 9q92 0 143 -48.5t51 -134.5q0 -92 -63.5 -146t-175.5 -54q-74 0 -160.5 25.5 t-192.5 70.5z"/>
<glyph unicode="è" horiz-adv-x="1134" d="M57 473q0 121 36 218t101.5 165t161 104.5t211.5 36.5q244 0 379 -136t135 -384v-37h-665v-16q0 -266 198 -266q92 0 144.5 44t62.5 126h244q-92 -362 -490 -363q-117 0 -213 37t-163.5 103.5t-104.5 159.5t-37 208zM420 606h315v8q0 207 -160 207q-72 0 -112.5 -54.5 t-42.5 -160.5zM217 1401q0 49 32.5 82t81.5 33q45 0 83 -27t83 -74l295 -313h-121l-346 172q-55 29 -81.5 57.5t-26.5 69.5z"/>
<glyph unicode="é" horiz-adv-x="1134" d="M57 473q0 121 36 218t101.5 165t161 104.5t211.5 36.5q244 0 379 -136t135 -384v-37h-665v-16q0 -266 198 -266q92 0 144.5 44t62.5 126h244q-92 -362 -490 -363q-117 0 -213 37t-163.5 103.5t-104.5 159.5t-37 208zM420 606h315v8q0 207 -160 207q-72 0 -112.5 -54.5 t-42.5 -160.5zM342 1102l295 313q45 47 81.5 74t84.5 27q49 0 81.5 -33t32.5 -82q0 -41 -26.5 -69.5t-81.5 -57.5l-346 -172h-121z"/>
<glyph unicode="ê" horiz-adv-x="1134" d="M57 473q0 121 36 218t101.5 165t161 104.5t211.5 36.5q244 0 379 -136t135 -384v-37h-665v-16q0 -266 198 -266q92 0 144.5 44t62.5 126h244q-92 -362 -490 -363q-117 0 -213 37t-163.5 103.5t-104.5 159.5t-37 208zM420 606h315v8q0 207 -160 207q-72 0 -112.5 -54.5 t-42.5 -160.5zM227 1100l242 393h196l242 -393h-107l-233 182l-233 -182h-107z"/>
<glyph unicode="ë" horiz-adv-x="1134" d="M57 473q0 121 36 218t101.5 165t161 104.5t211.5 36.5q244 0 379 -136t135 -384v-37h-665v-16q0 -266 198 -266q92 0 144.5 44t62.5 126h244q-92 -362 -490 -363q-117 0 -213 37t-163.5 103.5t-104.5 159.5t-37 208zM420 606h315v8q0 207 -160 207q-72 0 -112.5 -54.5 t-42.5 -160.5zM186 1315q0 63 48 111.5t114 48.5q68 0 114 -47.5t46 -112.5q0 -72 -45.5 -117t-114.5 -45q-68 0 -115 46t-47 116zM624 1315q0 63 47.5 111.5t112.5 48.5q68 0 115 -47.5t47 -112.5q0 -72 -46 -117t-116 -45q-68 0 -114 46t-46 116z"/>
<glyph unicode="ì" horiz-adv-x="741" d="M49 0v166h62q61 0 78.5 18.5t17.5 77.5v414v12q0 33 -2 53.5t-10.5 32.5t-28 17.5t-51.5 5.5h-66v170h504v-705q0 -59 16.5 -77.5t75.5 -18.5h51v-166h-647zM15 1401q0 49 32.5 82t81.5 33q45 0 83 -27t83 -74l295 -313h-121l-346 172q-55 29 -81.5 57.5t-26.5 69.5z"/>
<glyph unicode="í" horiz-adv-x="741" d="M49 0v166h62q61 0 78.5 18.5t17.5 77.5v414v12q0 33 -2 53.5t-10.5 32.5t-28 17.5t-51.5 5.5h-66v170h504v-705q0 -59 16.5 -77.5t75.5 -18.5h51v-166h-647zM140 1102l295 313q45 47 81.5 74t84.5 27q49 0 81.5 -33t32.5 -82q0 -41 -26.5 -69.5t-81.5 -57.5l-346 -172 h-121z"/>
<glyph unicode="î" horiz-adv-x="741" d="M49 0v166h62q61 0 78.5 18.5t17.5 77.5v414v12q0 33 -2 53.5t-10.5 32.5t-28 17.5t-51.5 5.5h-66v170h504v-705q0 -59 16.5 -77.5t75.5 -18.5h51v-166h-647zM25 1100l242 393h196l242 -393h-107l-233 182l-233 -182h-107z"/>
<glyph unicode="ï" horiz-adv-x="741" d="M49 0v166h62q61 0 78.5 18.5t17.5 77.5v414v12q0 33 -2 53.5t-10.5 32.5t-28 17.5t-51.5 5.5h-66v170h504v-705q0 -59 16.5 -77.5t75.5 -18.5h51v-166h-647zM-16 1315q0 63 48 111.5t114 48.5q68 0 114 -47.5t46 -112.5q0 -72 -45.5 -117t-114.5 -45q-68 0 -115 46 t-47 116zM422 1315q0 63 47.5 111.5t112.5 48.5q68 0 115 -47.5t47 -112.5q0 -72 -46 -117t-116 -45q-68 0 -114 46t-46 116z"/>
<glyph unicode="ð" horiz-adv-x="1222" d="M51 453q0 111 39 200.5t108.5 154t167 99.5t214.5 35q35 0 74.5 -5t86.5 -15q-63 111 -147 211l-320 -142l-49 107l283 127q-63 61 -133 127l104 88q76 -47 125 -82t76 -58l326 146l49 -103l-273 -126q199 -176 294 -350.5t95 -377.5q0 -258 -143 -391t-418 -133 q-266 0 -412.5 130.5t-146.5 357.5zM420 453q0 -86 8 -146.5t29.5 -100.5t58.5 -58.5t94 -18.5q113 0 152 77t39 247t-39 246.5t-152 76.5q-57 0 -94 -18.5t-58.5 -58.5t-29.5 -100t-8 -146z"/>
<glyph unicode="ñ" horiz-adv-x="1359" d="M43 0v166h55q59 0 78 18.5t19 77.5v443q0 59 -18.5 77.5t-78.5 18.5h-55v166h477v-150q63 88 150.5 132t191.5 44q92 0 154.5 -20.5t99.5 -64.5t52.5 -111.5t15.5 -161.5v-373q0 -59 18.5 -77.5t77.5 -18.5h47v-166h-602v166h23q59 0 77.5 18.5t18.5 77.5v373 q0 174 -142 174q-78 0 -121.5 -55.5t-43.5 -163.5v-328q0 -59 18 -77.5t78 -18.5h20v-166h-610zM332 1133q51 283 246 282q37 0 84 -12l127 -33q14 -4 26 -6t23 -2q41 0 62.5 23.5t37.5 74.5h88q-55 -283 -242 -282q-29 0 -73 10l-123 35q-45 10 -62 10q-84 0 -106 -100h-88 z"/>
<glyph unicode="ò" horiz-adv-x="1222" d="M51 483q0 121 38 217.5t110.5 164t176 103.5t234.5 36t234.5 -36t176.5 -103.5t111.5 -164t38.5 -217.5t-38.5 -217t-111.5 -162.5t-176.5 -102.5t-234.5 -36t-234.5 36t-176 102.5t-110.5 162.5t-38 217zM420 483q0 -90 8 -154.5t29.5 -106.5t58.5 -61.5t94 -19.5 t94 19.5t58.5 60.5t30 106.5t8.5 155.5q0 180 -39 262t-152 82q-57 0 -94 -20.5t-58.5 -62.5t-29.5 -106.5t-8 -154.5zM262 1401q0 49 32.5 82t81.5 33q45 0 83 -27t83 -74l295 -313h-121l-346 172q-55 29 -81.5 57.5t-26.5 69.5z"/>
<glyph unicode="ó" horiz-adv-x="1222" d="M51 483q0 121 38 217.5t110.5 164t176 103.5t234.5 36t234.5 -36t176.5 -103.5t111.5 -164t38.5 -217.5t-38.5 -217t-111.5 -162.5t-176.5 -102.5t-234.5 -36t-234.5 36t-176 102.5t-110.5 162.5t-38 217zM420 483q0 -90 8 -154.5t29.5 -106.5t58.5 -61.5t94 -19.5 t94 19.5t58.5 60.5t30 106.5t8.5 155.5q0 180 -39 262t-152 82q-57 0 -94 -20.5t-58.5 -62.5t-29.5 -106.5t-8 -154.5zM387 1102l295 313q45 47 81.5 74t84.5 27q49 0 81.5 -33t32.5 -82q0 -41 -26.5 -69.5t-81.5 -57.5l-346 -172h-121z"/>
<glyph unicode="ô" horiz-adv-x="1222" d="M51 483q0 121 38 217.5t110.5 164t176 103.5t234.5 36t234.5 -36t176.5 -103.5t111.5 -164t38.5 -217.5t-38.5 -217t-111.5 -162.5t-176.5 -102.5t-234.5 -36t-234.5 36t-176 102.5t-110.5 162.5t-38 217zM420 483q0 -90 8 -154.5t29.5 -106.5t58.5 -61.5t94 -19.5 t94 19.5t58.5 60.5t30 106.5t8.5 155.5q0 180 -39 262t-152 82q-57 0 -94 -20.5t-58.5 -62.5t-29.5 -106.5t-8 -154.5zM272 1100l242 393h196l242 -393h-107l-233 182l-233 -182h-107z"/>
<glyph unicode="õ" horiz-adv-x="1222" d="M51 483q0 121 38 217.5t110.5 164t176 103.5t234.5 36t234.5 -36t176.5 -103.5t111.5 -164t38.5 -217.5t-38.5 -217t-111.5 -162.5t-176.5 -102.5t-234.5 -36t-234.5 36t-176 102.5t-110.5 162.5t-38 217zM420 483q0 -90 8 -154.5t29.5 -106.5t58.5 -61.5t94 -19.5 t94 19.5t58.5 60.5t30 106.5t8.5 155.5q0 180 -39 262t-152 82q-57 0 -94 -20.5t-58.5 -62.5t-29.5 -106.5t-8 -154.5zM264 1133q51 283 246 282q37 0 84 -12l127 -33q14 -4 26 -6t23 -2q41 0 62.5 23.5t37.5 74.5h88q-55 -283 -242 -282q-29 0 -73 10l-123 35 q-45 10 -62 10q-84 0 -106 -100h-88z"/>
<glyph unicode="ö" horiz-adv-x="1222" d="M51 483q0 121 38 217.5t110.5 164t176 103.5t234.5 36t234.5 -36t176.5 -103.5t111.5 -164t38.5 -217.5t-38.5 -217t-111.5 -162.5t-176.5 -102.5t-234.5 -36t-234.5 36t-176 102.5t-110.5 162.5t-38 217zM420 483q0 -90 8 -154.5t29.5 -106.5t58.5 -61.5t94 -19.5 t94 19.5t58.5 60.5t30 106.5t8.5 155.5q0 180 -39 262t-152 82q-57 0 -94 -20.5t-58.5 -62.5t-29.5 -106.5t-8 -154.5zM231 1315q0 63 48 111.5t114 48.5q68 0 114 -47.5t46 -112.5q0 -72 -45.5 -117t-114.5 -45q-68 0 -115 46t-47 116zM669 1315q0 63 47.5 111.5 t112.5 48.5q68 0 115 -47.5t47 -112.5q0 -72 -46 -117t-116 -45q-68 0 -114 46t-46 116z"/>
<glyph unicode="÷" horiz-adv-x="1705" d="M254 496v231h1198v-231h-1198zM688 205q0 70 49 118t117 48t116 -48.5t48 -117.5q0 -66 -46 -115t-118 -49q-68 0 -117 47t-49 117zM688 1016q0 70 49 118t117 48q33 0 62.5 -13.5t52 -36t36 -52t13.5 -64.5q0 -33 -12.5 -62.5t-35 -52t-53 -36t-65.5 -13.5 q-70 0 -117 48t-47 116z"/>
<glyph unicode="ø" horiz-adv-x="1222" d="M45 475q0 121 39 218.5t112.5 167t178 106.5t235.5 37q92 0 171 -19.5t153 -64.5l121 122l102 -98l-106 -110q127 -139 127 -338q0 -121 -39 -219.5t-113 -168t-179.5 -106.5t-236.5 -37q-94 0 -175 17.5t-154 60.5l-125 -127l-95 100l113 113q-129 141 -129 346z M420 444q0 -25 2 -53l342 352q-51 88 -150 88q-111 0 -152.5 -81.5t-41.5 -255.5v-50zM455 223q45 -86 157 -86q111 0 151 81t40 253q0 16 -1 41t-3 63z"/>
<glyph unicode="ù" horiz-adv-x="1359" d="M33 801v166h485v-637q0 -172 141 -172q166 0 166 233v314q0 59 -18.5 77.5t-77.5 18.5h-22v166h458v-705q0 -59 18.5 -77.5t78.5 -18.5h57v-166h-479v150q-129 -178 -340 -179q-92 0 -154.5 20.5t-100.5 64.5t-53.5 112t-15.5 162v375q0 59 -18.5 77.5t-77.5 18.5h-47z M291 1401q0 49 32.5 82t81.5 33q45 0 83 -27t83 -74l295 -313h-121l-346 172q-55 29 -81.5 57.5t-26.5 69.5z"/>
<glyph unicode="ú" horiz-adv-x="1359" d="M33 801v166h485v-637q0 -172 141 -172q166 0 166 233v314q0 59 -18.5 77.5t-77.5 18.5h-22v166h458v-705q0 -59 18.5 -77.5t78.5 -18.5h57v-166h-479v150q-129 -178 -340 -179q-92 0 -154.5 20.5t-100.5 64.5t-53.5 112t-15.5 162v375q0 59 -18.5 77.5t-77.5 18.5h-47z M416 1102l295 313q45 47 81.5 74t84.5 27q49 0 81.5 -33t32.5 -82q0 -41 -26.5 -69.5t-81.5 -57.5l-346 -172h-121z"/>
<glyph unicode="û" horiz-adv-x="1359" d="M33 801v166h485v-637q0 -172 141 -172q166 0 166 233v314q0 59 -18.5 77.5t-77.5 18.5h-22v166h458v-705q0 -59 18.5 -77.5t78.5 -18.5h57v-166h-479v150q-129 -178 -340 -179q-92 0 -154.5 20.5t-100.5 64.5t-53.5 112t-15.5 162v375q0 59 -18.5 77.5t-77.5 18.5h-47z M301 1100l242 393h196l242 -393h-107l-233 182l-233 -182h-107z"/>
<glyph unicode="ü" horiz-adv-x="1359" d="M33 801v166h485v-637q0 -172 141 -172q166 0 166 233v314q0 59 -18.5 77.5t-77.5 18.5h-22v166h458v-705q0 -59 18.5 -77.5t78.5 -18.5h57v-166h-479v150q-129 -178 -340 -179q-92 0 -154.5 20.5t-100.5 64.5t-53.5 112t-15.5 162v375q0 59 -18.5 77.5t-77.5 18.5h-47z M260 1315q0 63 48 111.5t114 48.5q68 0 114 -47.5t46 -112.5q0 -72 -45.5 -117t-114.5 -45q-68 0 -115 46t-47 116zM698 1315q0 63 47.5 111.5t112.5 48.5q68 0 115 -47.5t47 -112.5q0 -72 -46 -117t-116 -45q-68 0 -114 46t-46 116z"/>
<glyph unicode="ý" horiz-adv-x="1218" d="M27 -180q0 88 51 140t135 52q74 0 118 -37.5t44 -103.5t-39 -102.5t-105 -36.5h-16q-8 0 -18 2q45 -49 92 -49q72 0 132 61t101 184l-317 752q-23 53 -45.5 84t-69.5 31h-55v170h620v-170h-47q-84 0 -84 -33q0 -16 7.5 -33.5t17.5 -42.5l149 -344l131 332 q12 31 20.5 52.5t8.5 37.5q0 31 -74 31h-47v170h457v-170q-43 0 -69.5 -7.5t-44 -22.5t-30 -37.5t-24.5 -55.5l-311 -756q-39 -92 -78 -160.5t-86 -113.5t-103.5 -67.5t-130.5 -22.5q-63 0 -116.5 19t-92 54t-60 84.5t-21.5 108.5zM385 1102l295 313q45 47 81.5 74t84.5 27 q49 0 81.5 -33t32.5 -82q0 -41 -26.5 -69.5t-81.5 -57.5l-346 -172h-121z"/>
<glyph unicode="þ" horiz-adv-x="1271" d="M33 -274h47q59 0 77.5 18t18.5 78v1290q0 59 -18.5 77.5t-77.5 18.5h-47v166h483v-526q49 72 122 112.5t171 40.5q195 0 298 -129t103 -385q0 -123 -28.5 -220t-80.5 -164.5t-124 -102.5t-158 -35q-182 0 -301 144v-287q0 -59 18.5 -77.5t77.5 -18.5h68v-166h-649v166z M516 471q0 -317 164 -317q86 0 123 81.5t37 251.5q0 168 -38 251t-122 83q-164 0 -164 -350z"/>
<glyph unicode="ÿ" horiz-adv-x="1218" d="M27 -180q0 88 51 140t135 52q74 0 118 -37.5t44 -103.5t-39 -102.5t-105 -36.5h-16q-8 0 -18 2q45 -49 92 -49q72 0 132 61t101 184l-317 752q-23 53 -45.5 84t-69.5 31h-55v170h620v-170h-47q-84 0 -84 -33q0 -16 7.5 -33.5t17.5 -42.5l149 -344l131 332 q12 31 20.5 52.5t8.5 37.5q0 31 -74 31h-47v170h457v-170q-43 0 -69.5 -7.5t-44 -22.5t-30 -37.5t-24.5 -55.5l-311 -756q-39 -92 -78 -160.5t-86 -113.5t-103.5 -67.5t-130.5 -22.5q-63 0 -116.5 19t-92 54t-60 84.5t-21.5 108.5zM229 1315q0 63 48 111.5t114 48.5 q68 0 114 -47.5t46 -112.5q0 -72 -45.5 -117t-114.5 -45q-68 0 -115 46t-47 116zM667 1315q0 63 47.5 111.5t112.5 48.5q68 0 115 -47.5t47 -112.5q0 -72 -46 -117t-116 -45q-68 0 -114 46t-46 116z"/>
<glyph unicode="ı" horiz-adv-x="741" d="M49 0v166h62q61 0 78.5 18.5t17.5 77.5v414v12q0 33 -2 53.5t-10.5 32.5t-28 17.5t-51.5 5.5h-66v170h504v-705q0 -59 16.5 -77.5t75.5 -18.5h51v-166h-647z"/>
<glyph unicode="Œ" horiz-adv-x="2447" d="M68 686q0 168 52 303t152.5 230.5t242.5 145.5t325 50q137 0 263 -20.5t247 -20.5h970v-524h-180q-14 100 -34.5 168.5t-65.5 109.5q-51 47 -127 56.5t-187 9.5h-178v-391h35q57 0 94 9t58.5 33.5t30 66.5t8.5 108h172v-627h-172q-2 74 -10.5 119t-29 69.5t-57.5 33 t-94 8.5h-35v-443h185q109 0 181.5 15.5t118.5 57.5t70.5 117.5t36.5 196.5h180v-567h-921q-139 0 -278.5 -20.5t-280.5 -20.5q-182 0 -324.5 50t-243 144.5t-152.5 228.5t-52 304zM514 686q0 -276 82 -407.5t274 -131.5q94 0 151.5 20.5t90.5 66t44 114t11 164.5v350 q0 96 -11 165t-44 114t-90 65.5t-152 20.5q-193 0 -274.5 -131t-81.5 -410z"/>
<glyph unicode="œ" horiz-adv-x="1880" d="M51 483q0 246 148.5 381t425.5 135q121 0 209 -34.5t151 -110.5q80 76 164 110.5t186 34.5q113 0 203 -35.5t154.5 -103t99.5 -164t35 -217.5v-39h-666v-16q0 -266 199 -266q178 0 207 170h245q-49 -180 -170.5 -271.5t-312.5 -91.5q-111 0 -195.5 35t-150.5 111 q-141 -145 -387 -146q-125 0 -225.5 36t-171 103.5t-109.5 163.5t-39 215zM420 483q0 -90 8 -154.5t29.5 -106.5t58.5 -62.5t94 -20.5t94 19.5t58.5 61.5t30 107.5t8.5 155.5q0 180 -39 261t-152 81q-57 0 -94 -19.5t-58.5 -61.5t-29.5 -106.5t-8 -154.5zM1165 606h314 q0 106 -40 162.5t-114 56.5q-156 0 -160 -219z"/>
<glyph unicode="Ÿ" horiz-adv-x="1597" d="M47 1200v174h787v-174h-66q-86 0 -86 -51q0 -23 47 -94l160 -248l186 280q14 20 19.5 38t5.5 32q0 43 -109 43h-33v174h582v-174h-6q-49 0 -84 -11t-61.5 -31.5t-48 -50.5t-46.5 -69l-301 -471v-252q0 -47 4 -73.5t18.5 -42t39 -19.5t65.5 -4h97v-176h-830v176h96 q41 0 66.5 4t39 19.5t18.5 42t5 73.5v252l-301 471q-25 39 -49 69t-54 49.5t-69 30.5t-92 13zM418 1727q0 63 48 111.5t114 48.5q68 0 114 -47.5t46 -112.5q0 -72 -45.5 -117t-114.5 -45q-68 0 -115 46t-47 116zM856 1727q0 63 47.5 111.5t112.5 48.5q68 0 115 -47.5 t47 -112.5q0 -72 -46 -117t-116 -45q-68 0 -114 46t-46 116z"/>
<glyph unicode="ˆ" d="M172 1100l242 393h196l242 -393h-107l-233 182l-233 -182h-107z"/>
<glyph unicode="˜" d="M164 1133q51 283 246 282q37 0 84 -12l127 -33q14 -4 26 -6t23 -2q41 0 62.5 23.5t37.5 74.5h88q-55 -283 -242 -282q-29 0 -73 10l-123 35q-45 10 -62 10q-84 0 -106 -100h-88z"/>
<glyph unicode=" " horiz-adv-x="985"/>
<glyph unicode=" " horiz-adv-x="1972"/>
<glyph unicode=" " horiz-adv-x="985"/>
<glyph unicode=" " horiz-adv-x="1972"/>
<glyph unicode=" " horiz-adv-x="657"/>
<glyph unicode=" " horiz-adv-x="491"/>
<glyph unicode=" " horiz-adv-x="327"/>
<glyph unicode=" " horiz-adv-x="327"/>
<glyph unicode=" " horiz-adv-x="245"/>
<glyph unicode=" " horiz-adv-x="393"/>
<glyph unicode=" " horiz-adv-x="108"/>
<glyph unicode="‐" horiz-adv-x="724" d="M74 330v307h577v-307h-577z"/>
<glyph unicode="‑" horiz-adv-x="724" d="M74 330v307h577v-307h-577z"/>
<glyph unicode="‒" horiz-adv-x="724" d="M74 330v307h577v-307h-577z"/>
<glyph unicode="–" d="M0 371v225h1024v-225h-1024z"/>
<glyph unicode="—" horiz-adv-x="2048" d="M0 371v225h2048v-225h-2048z"/>
<glyph unicode="‘" horiz-adv-x="536" d="M78 1038q0 68 25.5 130.5t72.5 111.5t116.5 84t156.5 51v-117q-80 -12 -126.5 -49t-64.5 -104q12 4 25 4h22q70 0 112 -42t42 -112q0 -76 -51.5 -127t-126.5 -51q-90 0 -146.5 59.5t-56.5 161.5z"/>
<glyph unicode="’" horiz-adv-x="536" d="M78 1245q0 76 51 127t127 51q90 0 145.5 -59t55.5 -162q0 -68 -25.5 -130t-73 -111.5t-117 -85t-155.5 -50.5v117q80 12 127 48t66 104q-12 -4 -24 -4h-24q-70 0 -111.5 42.5t-41.5 112.5z"/>
<glyph unicode="‚" horiz-adv-x="536" d="M78 123q0 76 51 126t127 50q90 0 145.5 -59.5t55.5 -161.5q0 -137 -98.5 -240.5t-272.5 -134.5v115q80 12 127 49t66 104q-12 -4 -24 -4h-24q-70 0 -111.5 43t-41.5 113z"/>
<glyph unicode="“" horiz-adv-x="1011" d="M80 1038q0 68 25.5 130.5t72.5 111.5t117 84t156 51v-117q-80 -12 -127.5 -49t-65.5 -104q12 4 25 4h22q70 0 112 -42t42 -112q0 -76 -51.5 -127t-126.5 -51q-90 0 -145.5 59.5t-55.5 161.5zM555 1038q0 68 25.5 130.5t72.5 111.5t117 84t156 51v-117q-80 -12 -127 -49 t-66 -104q12 4 25 4h22q70 0 112 -42t42 -112q0 -76 -51.5 -127t-126.5 -51q-90 0 -145.5 59.5t-55.5 161.5z"/>
<glyph unicode="”" horiz-adv-x="1011" d="M78 1245q0 76 51 127t127 51q90 0 146.5 -59t56.5 -162q0 -68 -25.5 -130t-73 -111.5t-117 -85t-155.5 -50.5v117q80 12 126 48t65 104q-12 -4 -24 -4h-24q-70 0 -111.5 42.5t-41.5 112.5zM553 1245q0 76 51 127t127 51q90 0 146.5 -59t56.5 -162q0 -68 -25.5 -130 t-73 -111.5t-117 -85t-155.5 -50.5v117q80 12 126 48t65 104q-12 -4 -24 -4h-23q-70 0 -112 42.5t-42 112.5z"/>
<glyph unicode="„" horiz-adv-x="1011" d="M78 129q0 76 51 126t127 50q90 0 146.5 -59.5t56.5 -161.5q0 -68 -25.5 -130.5t-73 -111.5t-117 -85t-155.5 -50v117q80 12 126 49t65 104q-12 -4 -24 -4h-24q-70 0 -111.5 43t-41.5 113zM553 129q0 76 51 126t127 50q90 0 146.5 -59.5t56.5 -161.5q0 -68 -25.5 -130.5 t-73 -111.5t-117 -85t-155.5 -50v117q80 12 126 49t65 104q-12 -4 -24 -4h-23q-70 0 -112 43t-42 113z"/>
<glyph unicode="•" horiz-adv-x="1208" d="M307 762q0 61 23.5 114.5t63.5 93.5t94.5 63.5t115.5 23.5t114.5 -23.5t93.5 -63.5t63.5 -93.5t23.5 -114.5t-23.5 -114.5t-63.5 -94.5t-94 -64.5t-116 -23.5q-61 0 -115.5 23.5t-94.5 63.5t-62.5 94.5t-22.5 115.5z"/>
<glyph unicode="…" horiz-adv-x="2048" d="M168 131q0 72 51 123t123 51t122 -51t50 -123q0 -74 -49 -123t-123 -49t-124 50t-50 122zM850 131q0 72 51 123t123 51t122 -51t50 -123q0 -74 -49 -123t-123 -49t-124 50t-50 122zM1534 131q0 72 51 123t123 51t122 -51t50 -123q0 -74 -49 -123t-123 -49t-124 50 t-50 122z"/>
<glyph unicode=" " horiz-adv-x="393"/>
<glyph unicode="‹" horiz-adv-x="591" d="M94 483q0 72 213 353h174q-53 -131 -86 -217.5t-33 -135.5q0 -45 36 -130t100 -216h-191q-100 139 -156.5 222t-56.5 124z"/>
<glyph unicode="›" horiz-adv-x="591" d="M94 137q63 131 99 216t36 130q0 49 -32.5 135.5t-85.5 217.5h174q213 -281 213 -353q0 -41 -56.5 -124t-156.5 -222h-191z"/>
<glyph unicode=" " horiz-adv-x="491"/>
<glyph unicode="™" horiz-adv-x="1683" d="M217 1262l12 198h457l12 -198h-36q-6 78 -37 115.5t-93 37.5v-420q0 -43 31 -49l31 -6v-33h-272v33l30 6q31 6 31 49v420h-4q-115 0 -127 -153h-35zM745 907v33l35 6q35 6 35 49v375q0 43 -35 49l-35 6v35h222l127 -356l123 356h206v-26l-22 -7q-35 -8 -35 -49v-383 q0 -41 35 -49l22 -6v-33h-260v33l31 6q35 6 35 49v355l-148 -445h-43l-166 457v-367q0 -43 35 -49l35 -6v-33h-197z"/>
<glyph unicode="" horiz-adv-x="965" d="M0 965h965v-965h-965v965z"/>
<glyph unicode="ﬁ" horiz-adv-x="1374" d="M43 0v162q47 2 78 7t48 16.5t23.5 33t6.5 57.5v521h-156v170h156q-2 14 -2 27v28q0 203 122.5 295t385.5 92q223 0 340.5 -62.5t117.5 -166.5q0 -70 -49 -115t-131 -45q-78 0 -120 37t-42 102q0 51 41 84q-49 25 -119 25q-125 0 -176 -60.5t-51 -195.5q0 -10 1 -21.5 t1 -23.5h670v-674q0 -39 4 -63.5t15.5 -40t33 -21.5t57.5 -6h33v-162h-600v162q45 0 71.5 5t40 19.5t16.5 39t3 63.5v377q0 41 -3 66.5t-13 39.5t-30.5 19.5t-55.5 5.5h-244v-498q0 -41 3 -67.5t15.5 -42t37 -21.5t65.5 -6h14v-162h-608z"/>
<glyph unicode="ﬂ" horiz-adv-x="1374" d="M43 0v162q47 2 78 7t48 16.5t23.5 33t6.5 57.5v521h-156v170h156q-2 14 -2 26v25q0 205 120.5 301t370.5 96q127 0 303 -41l199 2v-1083q0 -41 3 -66.5t16.5 -40t38 -19.5t67.5 -5h16v-162h-598v162q47 2 72.5 7t38 19.5t15.5 38t3 62.5v762q-47 41 -47 100q0 51 43 92 q-55 25 -119 25q-123 0 -174 -60.5t-51 -195.5q0 -10 1 -21.5t1 -23.5h180v-170h-180v-508q0 -39 4 -63.5t16.5 -39t36 -19.5t64.5 -5h14v-162h-608z"/>
<glyph unicode="ﬃ" horiz-adv-x="2297" d="M1605 0v166h62q61 0 78.5 18.5t17.5 77.5v414v12q0 33 -2 53.5t-10.5 32.5t-28 17.5t-51.5 5.5h-66v170h504v-705q0 -59 16.5 -77.5t75.5 -18.5h51v-166h-647zM1746 1217q0 72 49.5 120.5t120.5 48.5q72 0 121 -49t49 -120q0 -72 -49 -121t-121 -49t-121 49t-49 121z M825 0v174h49q39 0 59.5 7t30 23.5t11.5 45.5t2 69v478h-152v170h152v55q0 84 9 146.5t50 111.5q47 59 134 95t200 36q158 0 247 -64.5t89 -162.5q0 -70 -41 -112t-107 -42q-59 0 -99 37t-40 94q0 63 76 103q-37 6 -66 6q-68 0 -89 -40t-21 -132v-131h176v-170h-176v-478 q0 -45 2 -72.5t12 -44t31.5 -22.5t58.5 -6h72v-174h-670zM47 0v174h49q39 0 59.5 7t30 23.5t11.5 45.5t2 69v478h-152v170h152v55q0 84 9 146.5t50 111.5q47 59 134 95t200 36q158 0 247 -64.5t89 -162.5q0 -70 -41 -112t-107 -42q-59 0 -99 37t-40 94q0 63 76 103 q-37 6 -66 6q-68 0 -89 -40t-21 -132v-131h176v-170h-176v-478q0 -45 2 -72.5t12 -44t31.5 -22.5t58.5 -6h72v-174h-670z"/>
<glyph unicode="ﬄ" horiz-adv-x="2269" d="M1587 0v166h55q61 0 78.5 18.5t17.5 77.5v825q0 39 -3 63t-12 37t-27.5 17t-49.5 4h-59v166h497v-1112q0 -59 14.5 -77.5t78.5 -18.5h55v-166h-645zM825 0v174h49q39 0 59.5 7t30 23.5t11.5 45.5t2 69v478h-152v170h152v55q0 84 9 146.5t50 111.5q47 59 134 95t200 36 q158 0 247 -64.5t89 -162.5q0 -70 -41 -112t-107 -42q-59 0 -99 37t-40 94q0 63 76 103q-37 6 -66 6q-68 0 -89 -40t-21 -132v-131h176v-170h-176v-478q0 -45 2 -72.5t12 -44t31.5 -22.5t58.5 -6h72v-174h-670zM47 0v174h49q39 0 59.5 7t30 23.5t11.5 45.5t2 69v478h-152 v170h152v55q0 84 9 146.5t50 111.5q47 59 134 95t200 36q158 0 247 -64.5t89 -162.5q0 -70 -41 -112t-107 -42q-59 0 -99 37t-40 94q0 63 76 103q-37 6 -66 6q-68 0 -89 -40t-21 -132v-131h176v-170h-176v-478q0 -45 2 -72.5t12 -44t31.5 -22.5t58.5 -6h72v-174h-670z"/>
</font>
</defs>
</svg>
