<?xml version="1.0" standalone="no"?>
<!DOCTYPE svg PUBLIC "-//W3C//DTD SVG 1.1//EN" "http://www.w3.org/Graphics/SVG/1.1/DTD/svg11.dtd" >
<svg xmlns="http://www.w3.org/2000/svg">
<metadata></metadata>
<defs>
<font id="interstatecondregular" horiz-adv-x="750" >
<font-face units-per-em="1000" ascent="800" descent="-200" />
<missing-glyph horiz-adv-x="220" />
<glyph unicode="&#xd;" horiz-adv-x="220" />
<glyph unicode=" "  horiz-adv-x="220" />
<glyph unicode="&#x09;" horiz-adv-x="220" />
<glyph unicode="&#xa0;" horiz-adv-x="220" />
<glyph unicode="!" horiz-adv-x="248" d="M173 352l-16 -150h-66l-16 150v348h98v-348zM192 57q0 -28 -19.5 -48t-48.5 -20q-28 0 -48 20t-20 48q0 29 20 49t48 20t48 -20t20 -49z" />
<glyph unicode="&#x22;" horiz-adv-x="442" d="M380 700l-25 -327h-67l-25 327h117zM179 700l-25 -327h-67l-25 327h117z" />
<glyph unicode="#" horiz-adv-x="600" d="M555 160h-95v-160h-93v160h-134v-160h-93v160h-95v90h95v200h-95v90h95v160h93v-160h134v160h93v-160h95v-90h-95v-200h95v-90zM367 250v200h-134v-200h134z" />
<glyph unicode="$" horiz-adv-x="443" d="M403 186q0 -72 -36 -120.5t-103 -61.5v-84h-98v84q-84 17 -139 109l77 62q51 -81 114 -81q84 0 84 87q0 40 -23 67.5t-95 75t-99 81.5q-41 51 -41 126q0 63 32.5 106t89.5 57v86h98v-83q73 -13 127 -91l-72 -64q-27 36 -48 50t-53 14q-73 0 -73 -72q0 -38 22 -64 q19 -23 80 -62q80 -52 111 -88q45 -55 45 -134z" />
<glyph unicode="%" horiz-adv-x="855" d="M805 207q0 -99 -37 -157q-39 -61 -113 -61t-112 60q-35 56 -35 156q0 101 36 158q38 61 113 61q148 0 148 -217zM653 700l-369 -700h-88l369 700h88zM347 494q0 -99 -37 -157q-39 -61 -113 -61t-112 60q-35 56 -35 156q0 101 36 158q38 61 113 61q148 0 148 -217z M723 205q0 141 -67 141q-65 0 -65 -139q0 -142 66 -142t66 140zM265 492q0 141 -67 141q-65 0 -65 -139q0 -142 66 -142t66 140z" />
<glyph unicode="&#x26;" horiz-adv-x="480" d="M471 0h-101l-35 59q-54 -70 -141 -70q-81 0 -123 48q-39 45 -39 125q0 124 114 216l-17 30q-33 58 -43 82q-16 39 -16 76q0 64 44.5 104.5t115.5 40.5q85 0 157 -56l-47 -80q-62 44 -111 44q-61 0 -61 -51q0 -48 33 -105l126 -217q14 45 27 105l80 -22q-28 -118 -52 -178 zM288 139l-98 166q-62 -65 -62 -132q0 -92 75 -92q52 0 85 58z" />
<glyph unicode="'" horiz-adv-x="241" d="M179 700l-25 -327h-67l-25 327h117z" />
<glyph unicode="(" horiz-adv-x="310" d="M274 -70l-53 -40q-83 98 -120 177q-51 107 -51 233q0 130 49 236q36 78 122 180l53 -40q-125 -169 -125 -371q0 -207 125 -375z" />
<glyph unicode=")" horiz-adv-x="310" d="M260 306q0 -130 -49 -236q-36 -78 -122 -180l-53 40q125 169 125 371q0 207 -125 375l53 40q83 -98 120 -177q51 -107 51 -233z" />
<glyph unicode="*" horiz-adv-x="429" d="M396 462l-41 -71l-115 82l15 -140h-80l14 141l-115 -83l-41 71l128 57l-127 58l41 70l114 -84l-14 140h80l-15 -137l114 82l41 -71l-131 -58z" />
<glyph unicode="+" horiz-adv-x="453" d="M418 297h-143v-158h-97v158h-143v94h143v158h97v-158h143v-94z" />
<glyph unicode="," horiz-adv-x="232" d="M187 126l-67 -239h-65l13 239h119z" />
<glyph unicode="-" horiz-adv-x="300" d="M260 316h-220v100h220v-100z" />
<glyph unicode="." horiz-adv-x="232" d="M186 59q0 -29 -20.5 -49.5t-49.5 -20.5t-49.5 20.5t-20.5 49.5t20.5 50t49.5 21t49.5 -21t20.5 -50z" />
<glyph unicode="/" horiz-adv-x="350" d="M356 790l-265 -880h-97l265 880h97z" />
<glyph unicode="0" horiz-adv-x="499" d="M456 351q0 -163 -48 -257q-54 -105 -160 -105q-105 0 -158 104q-47 93 -47 256t48 257q53 105 158 105q106 0 159 -103q48 -92 48 -257zM358 349q0 266 -111 266q-106 0 -106 -264q0 -266 110 -266q107 0 107 264z" />
<glyph unicode="1" horiz-adv-x="275" d="M210 0h-97v551h-94v68q49 6 74.5 24t36.5 57h80v-700z" />
<glyph unicode="2" horiz-adv-x="474" d="M420 0h-372q8 152 54 241q40 76 141 159q71 58 71 121q0 92 -85 92q-54 0 -117 -58l-61 71q83 85 184 85q86 0 132.5 -48t46.5 -129q0 -63 -26 -108.5t-90 -98.5t-92 -97q-36 -54 -46 -132h260v-98z" />
<glyph unicode="3" horiz-adv-x="465" d="M418 201q0 -99 -57 -155.5t-145 -56.5q-119 0 -195 112l72 61q58 -78 128 -78q44 0 71.5 29.5t27.5 82.5q0 127 -138 127h-23v94h25q55 0 87.5 29.5t32.5 81.5q0 88 -85 88q-46 0 -108 -59l-60 69q82 85 172 85q81 0 129 -45q50 -48 50 -135q0 -112 -99 -154 q115 -37 115 -176z" />
<glyph unicode="4" horiz-adv-x="475" d="M442 169h-48v-169h-95v169h-271v77l273 454h93v-438h48v-93zM302 544q-16 -30 -53 -94l-68 -111q-16 -27 -49 -78q9 0 33 1h39h95v182q0 -5 3 100z" />
<glyph unicode="5" horiz-adv-x="474" d="M431 238q0 -118 -54 -182q-57 -67 -165 -67q-101 0 -174 76l55 74q58 -55 124 -55q117 0 117 150q0 61 -24 98q-27 40 -75 40q-58 0 -91 -50l-84 16l18 362h331v-96h-241l-9 -163q41 26 90 26q87 0 134.5 -61t47.5 -168z" />
<glyph unicode="6" horiz-adv-x="468" d="M435 216q0 -104 -55 -165.5t-149 -61.5q-87 0 -136 62q-52 66 -52 197q0 204 82 326.5t234 136.5v-92q-86 -11 -143 -77q-54 -62 -69 -155q40 45 110 45q79 0 128.5 -60t49.5 -156zM340 214q0 56 -27.5 90.5t-75.5 34.5q-47 0 -73 -34.5t-26 -96.5q0 -57 26.5 -91.5 t72.5 -34.5q49 0 76 35.5t27 96.5z" />
<glyph unicode="7" horiz-adv-x="440" d="M402 600q-97 -113 -138 -274q-34 -133 -34 -326h-98q0 398 165 605h-267v95h372v-100z" />
<glyph unicode="8" horiz-adv-x="478" d="M437 211q0 -99 -55.5 -160.5t-138.5 -61.5q-84 0 -139 54q-59 60 -59 164q0 118 86 176q-71 46 -71 135q0 88 50.5 140.5t131.5 52.5q82 0 131.5 -52.5t49.5 -138.5q0 -90 -72 -137q86 -57 86 -172zM327 520q0 97 -86 97q-85 0 -85 -97q0 -42 23 -68.5t63 -26.5 q41 0 63 26.5t22 68.5zM341 209q0 57 -26.5 90t-72.5 33q-47 0 -74 -33t-27 -90q0 -126 104 -126q96 0 96 126z" />
<glyph unicode="9" horiz-adv-x="468" d="M425 452q0 -204 -81 -325q-83 -124 -235 -138v92q86 11 144 77q53 62 68 155q-40 -45 -110 -45q-79 0 -128.5 60t-49.5 156q0 104 55 165.5t149 61.5q87 0 136 -62q52 -66 52 -197zM330 492q0 57 -26.5 91.5t-72.5 34.5q-49 0 -76 -35.5t-27 -96.5q0 -56 27.5 -90.5 t75.5 -34.5q47 0 73 34.5t26 96.5z" />
<glyph unicode=":" horiz-adv-x="232" d="M186 465q0 -29 -20.5 -49.5t-49.5 -20.5t-49.5 20.5t-20.5 49.5t20.5 50t49.5 21t49.5 -21t20.5 -50zM186 59q0 -29 -20.5 -49.5t-49.5 -20.5t-49.5 20.5t-20.5 49.5t20.5 50t49.5 21t49.5 -21t20.5 -50z" />
<glyph unicode=";" horiz-adv-x="232" d="M186 465q0 -29 -20.5 -49.5t-49.5 -20.5t-49.5 20.5t-20.5 49.5t20.5 50t49.5 21t49.5 -21t20.5 -50zM177 126l-67 -239h-65l13 239h119z" />
<glyph unicode="&#x3c;" horiz-adv-x="324" d="M278 90l-241 210v88l241 210v-120l-157 -133l157 -134v-121z" />
<glyph unicode="=" horiz-adv-x="500" d="M435 411h-370v95h370v-95zM435 182h-370v95h370v-95z" />
<glyph unicode="&#x3e;" horiz-adv-x="324" d="M287 300l-241 -210v120l157 133l-157 134v121l241 -210v-88z" />
<glyph unicode="?" horiz-adv-x="451" d="M411 537q0 -66 -30 -110q-22 -34 -74 -69q-37 -25 -47 -58q-8 -26 -8 -98h-101q0 95 16 135q19 49 86 93q57 38 57 98q0 84 -88 84q-65 0 -142 -69l-62 73q95 95 208 95q89 0 137 -47t48 -127zM273 57q0 -28 -19.5 -48t-48.5 -20q-28 0 -48 20t-20 48q0 29 20 49t48 20 t48 -20t20 -49z" />
<glyph unicode="@" horiz-adv-x="646" d="M601 360q0 -206 -117 -206q-58 0 -82 60q-34 -60 -99 -60q-48 0 -81 34q-36 37 -36 103q0 61 34 95q31 32 79 32q50 0 84 -26v51q0 59 -69 59q-40 0 -74 -24l-22 49q49 34 102 34q122 0 122 -120v-168q0 -64 47 -64q57 0 57 152q0 138 -62 217q-61 76 -161 76 q-101 0 -160.5 -82.5t-59.5 -220.5t60.5 -222t161.5 -84q56 0 98 23l20 -47q-53 -32 -120 -32q-122 0 -200 99t-78 262t78 262t200 99q124 0 201 -96.5t77 -254.5zM383 268v63q-30 30 -76 30q-60 0 -60 -68q0 -79 64 -79q49 0 72 54z" />
<glyph unicode="A" horiz-adv-x="494" d="M469 0h-107l-41 185h-152l-40 -185h-104l172 700h101zM301 278l-26 118q-5 21 -30 153q-10 -53 -30 -153l-26 -118h112z" />
<glyph unicode="B" horiz-adv-x="497" d="M452 211q0 -102 -53 -156.5t-143 -54.5h-186v700h176q88 0 139 -44q55 -48 55 -141q0 -46 -20 -84q-22 -42 -62 -61q44 -16 69 -58.5t25 -100.5zM340 512q0 93 -91 93h-82v-190h80q41 0 67 24.5t26 72.5zM352 211q0 110 -107 110h-78v-226h88q97 0 97 116z" />
<glyph unicode="C" horiz-adv-x="480" d="M437 166q-37 -177 -186 -177q-107 0 -160 105q-46 93 -46 255q0 163 49 257q54 105 160 105q153 0 182 -171l-99 -25q-10 51 -28 72q-20 25 -58 25q-105 0 -105 -261q0 -111 24 -180q29 -83 88 -83q34 0 55 25q18 24 33 82z" />
<glyph unicode="D" horiz-adv-x="507" d="M462 353q0 -161 -55 -254q-59 -99 -167 -99h-170v700h170q112 0 169 -95q53 -89 53 -252zM361 353q0 251 -124 251h-69v-508h72q65 0 96 82q25 67 25 175z" />
<glyph unicode="E" horiz-adv-x="445" d="M412 0h-342v700h329v-95h-231v-187h151v-94h-151v-229h244v-95z" />
<glyph unicode="F" horiz-adv-x="428" d="M404 605h-236v-192h151v-94h-151v-319h-98v700h334v-95z" />
<glyph unicode="G" horiz-adv-x="511" d="M453 205q0 -96 -46 -152q-51 -64 -151 -64q-106 0 -161 106q-50 94 -50 255q0 165 52 260q56 101 162 101q154 0 187 -171l-98 -26q-12 54 -33 76t-59 22q-55 0 -84 -75q-26 -68 -26 -187q0 -107 24 -176q30 -86 93 -86q49 0 69.5 30t20.5 96v50h-78v96h178v-155z" />
<glyph unicode="H" horiz-adv-x="532" d="M462 0h-98v324h-196v-324h-98v700h98v-280h196v280h98v-700z" />
<glyph unicode="I" horiz-adv-x="248" d="M173 0h-98v700h98v-700z" />
<glyph unicode="J" horiz-adv-x="438" d="M371 200q0 -211 -178 -211q-153 0 -177 181l89 23q11 -59 31 -83t57 -24q80 0 80 111v503h98v-500z" />
<glyph unicode="K" horiz-adv-x="482" d="M462 0h-106l-130 351l-58 -94v-257h-98v700h98v-177q0 -68 -2 -112q20 37 56 99l115 190h111l-152 -246z" />
<glyph unicode="L" horiz-adv-x="418" d="M392 0h-322v700h98v-604h224v-96z" />
<glyph unicode="M" horiz-adv-x="612" d="M542 0h-96v282q0 119 2 173q-21 -74 -54 -181l-90 -293l-90 293q-33 107 -54 181q2 -54 2 -173v-282h-92v700h103l90 -291q28 -91 43 -153q30 110 44 156l90 288h102v-700z" />
<glyph unicode="N" horiz-adv-x="532" d="M462 0h-80l-169 375q-20 48 -49 115q2 -52 2 -140v-350h-96v700h98l151 -333q20 -47 49 -115q-2 52 -2 140v308h96v-700z" />
<glyph unicode="O" horiz-adv-x="513" d="M468 351q0 -162 -51 -257q-56 -105 -162 -105t-160 104q-50 94 -50 256t50 257q55 105 161 105t162 -104q50 -94 50 -256zM368 349q0 111 -25 181q-30 83 -89 83q-109 0 -109 -262q0 -111 25 -181q29 -83 88 -83q110 0 110 262z" />
<glyph unicode="P" horiz-adv-x="478" d="M452 496q0 -101 -61 -159q-56 -52 -141 -52h-82v-285h-98v700h185q82 0 136 -48q61 -54 61 -156zM351 493q0 56 -30 85q-28 26 -73 26h-80v-224h83q45 0 72.5 29t27.5 84z" />
<glyph unicode="Q" horiz-adv-x="513" d="M468 350q0 -196 -76 -291l35 -55l-69 -40l-28 43q-34 -18 -74 -18q-106 0 -161 104q-50 95 -50 257t50 257q55 104 161 104t162 -104q50 -95 50 -257zM368 350q0 112 -24 180q-29 83 -88 83t-87 -83q-24 -68 -24 -180t24 -182q28 -84 87 -84q13 0 22 4l-48 73l69 40 l37 -57q32 68 32 206z" />
<glyph unicode="R" horiz-adv-x="510" d="M464 0h-109l-106 305h-81v-305h-98v700h197q84 0 136 -45q59 -51 59 -149q0 -141 -110 -184zM361 503q0 102 -102 102h-91v-206h91q102 0 102 104z" />
<glyph unicode="S" horiz-adv-x="443" d="M403 181q0 -86 -50 -139t-141 -53q-118 0 -185 114l77 62q49 -78 114 -78q84 0 84 89q0 41 -23.5 71t-94 76.5t-99.5 84.5q-41 53 -41 128q0 78 48 126.5t129 48.5q105 0 170 -95l-72 -64q-26 35 -47.5 48t-53.5 13q-73 0 -73 -74q0 -39 21.5 -66t80.5 -65 q78 -50 111 -91q45 -56 45 -136z" />
<glyph unicode="T" horiz-adv-x="422" d="M389 604h-129v-604h-98v604h-129v96h356v-96z" />
<glyph unicode="U" horiz-adv-x="526" d="M459 208q0 -102 -53 -160.5t-143 -58.5q-87 0 -141.5 59t-54.5 154v498h98v-494q0 -49 22 -81q25 -37 76 -37q53 0 78 38q21 31 21 79v495h97v-492z" />
<glyph unicode="V" horiz-adv-x="484" d="M459 700l-181 -700h-73l-180 700h107l81 -351q11 -46 31 -148q20 98 31 148l80 351h104z" />
<glyph unicode="W" horiz-adv-x="618" d="M590 700l-126 -700h-75l-48 245q-27 140 -34 195q-7 -57 -33 -192l-48 -248h-73l-125 700h98l42 -252q27 -159 33 -213q5 40 32 212l40 253h75l41 -253q29 -180 33 -212q12 85 32 213l41 252h95z" />
<glyph unicode="X" horiz-adv-x="465" d="M437 0h-108l-53 136q-37 96 -45 124q-12 -39 -45 -124l-53 -136h-105l153 360l-143 340h108l43 -111q36 -93 45 -126q14 46 45 126l43 111h105l-143 -337z" />
<glyph unicode="Y" horiz-adv-x="493" d="M471 700l-173 -387v-313h-98v310l-178 390h111l62 -146q40 -93 55 -146q14 51 54 147l60 145h107z" />
<glyph unicode="Z" horiz-adv-x="460" d="M413 0h-372v91l200 394q35 69 68 126q-42 -2 -101 -2h-141v91h340v-91l-201 -395q-32 -62 -68 -125q42 2 101 2h174v-91z" />
<glyph unicode="[" horiz-adv-x="325" d="M274 -100h-199v800h199v-82h-106v-636h106v-82z" />
<glyph unicode="\" horiz-adv-x="350" d="M356 -90h-97l-265 880h97z" />
<glyph unicode="]" horiz-adv-x="325" d="M250 -100h-199v79h106v642h-106v79h199v-800z" />
<glyph unicode="^" horiz-adv-x="444" d="M414 382h-107l-86 202l-86 -202h-105l152 318h80z" />
<glyph unicode="_" horiz-adv-x="350" d="M350 -170h-350v88h350v-88z" />
<glyph unicode="`" horiz-adv-x="400" d="M297 595h-82l-145 160h135z" />
<glyph unicode="a" horiz-adv-x="434" d="M378 0h-96v36q-41 -47 -108 -47q-61 0 -100 44q-43 47 -43 132q0 83 48 129q46 43 123 43q44 0 80 -17v51q0 75 -68 75q-48 0 -103 -33l-41 73q75 50 151 50q86 0 121.5 -35t35.5 -122v-379zM282 125v105q-33 20 -79 20q-76 0 -76 -83q0 -91 66 -91q61 0 89 49z" />
<glyph unicode="b" horiz-adv-x="448" d="M409 257q0 -130 -43 -199t-122 -69q-53 0 -91 39v-28h-96v679l96 50v-239q43 46 98 46q158 0 158 -279zM312 252q0 194 -81 194q-49 0 -78 -48v-272q31 -47 83 -47q76 0 76 173z" />
<glyph unicode="c" horiz-adv-x="410" d="M375 82q-59 -93 -153 -93q-85 0 -132 67q-51 70 -51 204q0 136 49 206t138 70q94 0 148 -92l-69 -60q-38 60 -82 60q-87 0 -87 -182q0 -181 90 -181q43 0 80 58z" />
<glyph unicode="d" horiz-adv-x="448" d="M391 0h-96v35q-43 -46 -98 -46q-158 0 -158 279q0 130 43 199t122 69q53 0 91 -39v182l96 50v-729zM295 127v272q-31 47 -83 47q-76 0 -76 -173q0 -194 81 -194q49 0 78 48z" />
<glyph unicode="e" horiz-adv-x="450" d="M411 264q0 -24 -1 -34h-275q9 -149 99 -149q53 0 95 39l59 -61q-63 -70 -156 -70q-92 0 -143 74q-50 71 -50 197q0 134 52 207q49 69 135 69q82 0 132 -67q53 -73 53 -205zM313 313q-2 60 -25.5 96.5t-63.5 36.5q-76 0 -88 -133h177z" />
<glyph unicode="f" horiz-adv-x="291" d="M278 636q-18 6 -40 6q-34 0 -47.5 -13t-13.5 -43v-61h86v-90h-86v-435h-96v435h-53v90h53v74q0 62 34 96q31 31 84 31q48 0 79 -10v-80z" />
<glyph unicode="g" horiz-adv-x="448" d="M391 46q0 -115 -47 -169q-50 -57 -167 -70l-27 77q86 11 115.5 42t29.5 106v4q-42 -47 -98 -47q-158 0 -158 279q0 130 43 199t122 69q53 0 91 -39v28h96v-479zM295 127v272q-31 47 -83 47q-76 0 -76 -173q0 -194 81 -194q49 0 78 48z" />
<glyph unicode="h" horiz-adv-x="446" d="M392 0h-96v323q0 66 -14.5 94t-50.5 28q-49 0 -78 -48v-397h-96v679l96 50v-240q37 47 102 47q74 0 105.5 -47.5t31.5 -149.5v-339z" />
<glyph unicode="i" horiz-adv-x="220" d="M169 666q0 -24 -17.5 -41.5t-41.5 -17.5q-25 0 -42.5 17.5t-17.5 41.5q0 25 17.5 42.5t42.5 17.5q24 0 41.5 -17.5t17.5 -42.5zM158 0h-96v525h96v-525z" />
<glyph unicode="j" horiz-adv-x="220" d="M169 666q0 -24 -17.5 -41.5t-41.5 -17.5q-25 0 -42.5 17.5t-17.5 41.5q0 25 17.5 42.5t42.5 17.5q24 0 41.5 -17.5t17.5 -42.5zM158 19q0 -99 -41.5 -148.5t-132.5 -63.5l-25 78q58 14 80.5 41.5t22.5 86.5v512h96v-506z" />
<glyph unicode="k" horiz-adv-x="424" d="M397 0h-105l-87 245l-52 -83v-162h-96v679l96 50v-315q0 -61 -2 -113q11 23 43 81l79 143h109l-113 -182z" />
<glyph unicode="l" horiz-adv-x="220" d="M158 0h-96v679l96 50v-729z" />
<glyph unicode="m" horiz-adv-x="665" d="M611 0h-96v323q0 59 -4 78q-11 44 -51 44q-49 0 -78 -48v-397h-96v323q0 59 -4 78q-11 44 -51 44q-49 0 -78 -48v-397h-96v525h96v-36q37 47 98 47q74 0 106 -56q49 56 123 56q76 0 105 -51q26 -46 26 -156v-329z" />
<glyph unicode="n" horiz-adv-x="446" d="M392 0h-96v323q0 66 -14.5 94t-50.5 28q-49 0 -78 -48v-397h-96v525h96v-36q37 47 102 47q74 0 105.5 -47.5t31.5 -149.5v-339z" />
<glyph unicode="o" horiz-adv-x="456" d="M417 264q0 -135 -51.5 -205t-140.5 -70q-85 0 -134 67q-52 70 -52 204q0 135 51 207q49 69 139 69q86 0 136 -67q52 -72 52 -205zM320 262q0 182 -93 182q-91 0 -91 -182q0 -181 92 -181q44 0 68 49t24 132z" />
<glyph unicode="p" horiz-adv-x="448" d="M409 257q0 -130 -43 -199t-122 -69q-53 0 -91 39v-171l-96 -50v718h96v-35q43 46 98 46q158 0 158 -279zM312 252q0 194 -81 194q-49 0 -78 -48v-272q31 -47 83 -47q76 0 76 173z" />
<glyph unicode="q" horiz-adv-x="448" d="M391 -143l-96 -50v228q-43 -46 -98 -46q-158 0 -158 279q0 130 43 199t122 69q53 0 91 -39v28h96v-668zM295 127v272q-31 47 -83 47q-76 0 -76 -173q0 -194 81 -194q49 0 78 48z" />
<glyph unicode="r" horiz-adv-x="336" d="M318 518l-23 -96q-28 16 -67 16q-47 0 -75 -41v-397h-96v525h96v-36q37 47 93 47q43 0 72 -18z" />
<glyph unicode="s" horiz-adv-x="389" d="M351 144q0 -74 -43 -114.5t-120 -40.5q-85 0 -161 56l37 80q72 -45 122 -45q69 0 69 57q0 26 -23 47q-18 16 -78 51q-56 33 -79 61q-30 37 -30 94q0 69 39.5 107.5t110.5 38.5q79 0 143 -49l-39 -81q-55 39 -106 39q-52 0 -52 -46q0 -24 16.5 -41t69.5 -48q67 -39 92 -68 q32 -38 32 -98z" />
<glyph unicode="t" horiz-adv-x="319" d="M276 102l-11 -89q-37 -24 -86 -24q-101 0 -101 134v312h-57v90h57v153l96 51v-204h101v-90h-101v-303q0 -52 40 -52q36 0 62 22z" />
<glyph unicode="u" horiz-adv-x="446" d="M389 0h-96v36q-37 -47 -102 -47q-74 0 -106 49q-31 46 -31 148v339h96v-323q0 -66 14.5 -94t50.5 -28q49 0 78 48v397h96v-525z" />
<glyph unicode="v" horiz-adv-x="416" d="M396 525l-131 -525h-111l-132 525h98l64 -283q20 -89 27 -132q9 54 26 134l61 281h98z" />
<glyph unicode="w" horiz-adv-x="597" d="M573 525l-108 -525h-90l-54 253q-13 63 -24 129q-12 -77 -24 -132l-53 -250h-90l-106 525h92l39 -224q15 -86 23 -153q11 72 29 155l48 222h87l50 -222q19 -86 30 -155q9 72 22 153l37 224h92z" />
<glyph unicode="x" horiz-adv-x="441" d="M414 0h-109l-48 111q-6 14 -35 90q-20 -53 -38 -93l-48 -108h-109l134 274l-123 251h108l38 -88q26 -61 36 -90q11 34 37 93l37 85h109l-122 -251z" />
<glyph unicode="y" horiz-adv-x="434" d="M412 525l-207 -710h-94l57 185l-146 525h102l61 -249q19 -76 31 -143q11 62 32 144l62 248h102z" />
<glyph unicode="z" horiz-adv-x="407" d="M361 0h-325v82l175 281q18 29 49 74q-19 -1 -93 -1h-114v89h308v-81l-170 -282q-32 -53 -49 -74q19 1 93 1h126v-89z" />
<glyph unicode="{" horiz-adv-x="345" d="M309 -110q-116 0 -162 53q-40 47 -40 158v68q0 89 -50 89h-26v84h26q50 0 50 89v69q0 111 40 158q46 53 162 53v-70q-64 -7 -86 -38q-19 -26 -19 -92v-55q0 -71 -17.5 -105.5t-62.5 -50.5q45 -16 62.5 -50.5t17.5 -105.5v-54q0 -66 19 -92q22 -31 86 -38v-70z" />
<glyph unicode="|" horiz-adv-x="246" d="M168 -185h-90v985h90v-985z" />
<glyph unicode="}" horiz-adv-x="345" d="M314 259h-26q-50 0 -50 -89v-69q0 -111 -40 -158q-46 -53 -162 -53v70q64 7 86 38q19 26 19 92v55q0 71 17.5 105.5t62.5 50.5q-45 16 -62.5 50.5t-17.5 105.5v54q0 66 -19 92q-22 31 -86 38v70q116 0 162 -53q40 -47 40 -158v-68q0 -89 50 -89h26v-84z" />
<glyph unicode="~" horiz-adv-x="562" d="M520 424q-55 -141 -153 -141q-46 0 -96 34q-58 40 -83 40q-23 0 -37.5 -15.5t-36.5 -60.5l-72 37q55 141 153 141q47 0 96 -34q58 -40 82 -40q23 0 38 15.5t37 60.5z" />
<glyph unicode="&#xa0;" horiz-adv-x="248" d="M173 0h-98v700h98v-700zM306 905l-145 -160h-82l92 160h135z" />
<glyph unicode="&#xa1;" horiz-adv-x="407" d="M361 0h-325v82l175 281q18 29 49 74q-19 -1 -93 -1h-114v89h308v-81l-170 -282q-32 -53 -49 -74q19 1 93 1h126v-89zM356 755l-102 -160h-104l-102 160h78l77 -88l77 88h76z" />
<glyph unicode="&#xa2;" horiz-adv-x="410" d="M375 176q-44 -70 -108 -88v-99h-99v102q-129 41 -129 263q0 225 129 267v90h99v-86q64 -14 107 -87l-68 -59q-38 62 -83 62q-87 0 -87 -185q0 -184 90 -184q42 0 80 61z" />
<glyph unicode="&#xa3;" horiz-adv-x="469" d="M446 636l-60 -73q-34 29 -55 38q-27 12 -67 12q-36 0 -57.5 -22t-21.5 -58q0 -44 24 -99q18 -41 23 -64h114v-87h-109q-5 -97 -72 -194h267v-89h-372v102q46 49 63.5 88t19.5 93h-83v87h73q-11 30 -21 50q-27 55 -27 114q0 82 48 129.5t133 47.5q58 0 99 -18 q38 -16 81 -57z" />
<glyph unicode="&#xa4;" d="M730 346l-179 -125q-9 -5 -16 -2q-10 8 -6 20l19 61h-127v-137l63 20q10 3 18 -6q4 -7 -3 -17l-124 -178l-126 178q-5 11 -2 17q9 11 20 6l62 -20v137h-127l19 -61q3 -11 -7 -20q-6 -3 -17 2l-177 125l179 125q9 6 15 3q10 -9 7 -19l-19 -63h127v134l-62 -19 q-10 -5 -20 7q-3 7 2 17l126 177l124 -178q6 -9 3 -16q-8 -10 -18 -7l-63 19v-134h127l-19 63q-3 11 6 19q7 3 16 -3z" />
<glyph unicode="&#xa5;" horiz-adv-x="463" d="M441 700l-160 -402v-88h102v-89h-102v-121h-94v121h-102v89h102v85l-165 405h110l52 -146q39 -110 51 -156q12 47 50 157l50 145h106z" />
<glyph unicode="&#xa6;" horiz-adv-x="248" d="M173 0h-98v700h98v-700zM383 738h-78l-77 88l-77 -88h-76l102 160h104z" />
<glyph unicode="&#xa7;" horiz-adv-x="507" d="M462 261q0 -95 -93 -150q51 -45 51 -112q0 -74 -46 -118.5t-130 -44.5q-88 0 -165 57l53 76q55 -40 115 -40q69 0 69 64q0 27 -22 47t-84 51q-92 45 -125 81q-40 44 -40 114q0 95 93 150q-51 45 -51 112q0 74 46 118.5t130 44.5q88 0 165 -57l-53 -76q-55 40 -115 40 q-69 0 -69 -64q0 -27 22 -47t84 -51q92 -45 125 -81q40 -44 40 -114zM359 252q0 38 -22 61.5t-88 55.5l-32 16q-69 -33 -69 -90q0 -38 22 -61.5t88 -55.5l32 -16q69 33 69 90z" />
<glyph unicode="&#xa8;" horiz-adv-x="400" d="M351 657q0 -25 -18.5 -43.5t-43.5 -18.5t-44 18.5t-19 43.5q0 26 19 44.5t44 18.5t43.5 -19t18.5 -44zM174 657q0 -25 -18.5 -43.5t-43.5 -18.5t-44 18.5t-19 43.5q0 26 19 44.5t44 18.5t43.5 -19t18.5 -44z" />
<glyph unicode="&#xa9;" horiz-adv-x="248" d="M173 0h-98v700h98v-700zM377 807q0 -25 -18.5 -43.5t-43.5 -18.5t-44 18.5t-19 43.5q0 26 19 44.5t44 18.5t43.5 -19t18.5 -44zM200 807q0 -25 -18.5 -43.5t-43.5 -18.5t-44 18.5t-19 43.5q0 26 19 44.5t44 18.5t43.5 -19t18.5 -44z" />
<glyph unicode="&#xaa;" horiz-adv-x="378" d="M323 277h-78v29q-32 -38 -87 -38q-49 0 -81 35q-35 39 -35 107t38 104t101 36q34 0 64 -14v41q0 61 -55 61q-40 0 -83 -27l-33 59q62 41 120 41q71 0 100 -28.5t29 -98.5v-307zM245 378v85q-26 16 -64 16q-61 0 -61 -67q0 -74 53 -74q50 0 72 40z" />
<glyph unicode="&#xab;" horiz-adv-x="490" d="M445 0h-98l-135 262l135 263h98l-130 -262zM253 0h-98l-135 262l135 263h98l-130 -262z" />
<glyph unicode="&#xac;" horiz-adv-x="517" d="M472 353q0 -161 -55 -254q-59 -99 -167 -99h-170v321h-50v90h50v289h170q112 0 169 -95q53 -89 53 -252zM371 353q0 251 -124 251h-71v-193h81v-90h-81v-225h74q65 0 96 82q25 67 25 175z" />
<glyph unicode="&#xae;" horiz-adv-x="532" d="M462 0h-80l-169 375q-20 48 -49 115q2 -52 2 -140v-350h-96v700h98l151 -333q20 -47 49 -115q-2 52 -2 140v308h96v-700zM436 868q0 -60 -26 -93t-68 -33q-40 0 -106 40q-20 12 -33 12q-30 0 -35 -47h-66q0 59 28 93q26 31 68 31q38 0 104 -40q20 -12 35 -12q27 0 33 49 h66z" />
<glyph unicode="&#xaf;" horiz-adv-x="400" d="M330 610h-260v85h260v-85z" />
<glyph unicode="&#xb0;" horiz-adv-x="513" d="M468 351q0 -162 -51 -257q-56 -105 -162 -105t-160 104q-50 94 -50 256t50 257q55 105 161 105t162 -104q50 -94 50 -256zM368 349q0 111 -25 181q-30 83 -89 83q-109 0 -109 -262q0 -111 25 -181q29 -83 88 -83q110 0 110 262zM304 745h-82l-145 160h135z" />
<glyph unicode="&#xb1;" horiz-adv-x="513" d="M468 351q0 -162 -51 -257q-56 -105 -162 -105t-160 104q-50 94 -50 256t50 257q55 105 161 105t162 -104q50 -94 50 -256zM368 349q0 111 -25 181q-30 83 -89 83q-109 0 -109 -262q0 -111 25 -181q29 -83 88 -83q110 0 110 262zM431 905l-145 -160h-82l92 160h135z" />
<glyph unicode="&#xb2;" horiz-adv-x="445" d="M412 0h-342v700h329v-95h-231v-187h151v-94h-151v-229h244v-95zM394 745h-78l-77 88l-77 -88h-76l102 160h104z" />
<glyph unicode="&#xb3;" horiz-adv-x="445" d="M412 0h-342v700h329v-95h-231v-187h151v-94h-151v-229h244v-95zM399 807q0 -25 -18.5 -43.5t-43.5 -18.5t-44 18.5t-19 43.5q0 26 19 44.5t44 18.5t43.5 -19t18.5 -44zM222 807q0 -25 -18.5 -43.5t-43.5 -18.5t-44 18.5t-19 43.5q0 26 19 44.5t44 18.5t43.5 -19t18.5 -44 z" />
<glyph unicode="&#xb4;" horiz-adv-x="400" d="M330 755l-145 -160h-82l92 160h135z" />
<glyph unicode="&#xb6;" horiz-adv-x="607" d="M542 -185h-95v789h-79v-789h-95v470h-35q-79 0 -133 48q-63 55 -63 156t61 159q56 52 141 52h298v-885z" />
<glyph unicode="&#xb7;" horiz-adv-x="232" d="M186 367q0 -29 -20.5 -49.5t-49.5 -20.5t-49.5 20.5t-20.5 49.5t20.5 50t49.5 21t49.5 -21t20.5 -50z" />
<glyph unicode="&#xb8;" horiz-adv-x="400" d="M310 -110q0 -83 -107 -83q-52 0 -101 29l20 32q33 -17 73 -17q49 0 49 36q0 33 -26 33q-18 0 -37 -12l-32 13l19 91h47l-11 -60q15 9 42 9q64 0 64 -71z" />
<glyph unicode="&#xb9;" horiz-adv-x="445" d="M412 0h-342v700h329v-95h-231v-187h151v-94h-151v-229h244v-95zM408 905l-145 -160h-82l92 160h135z" />
<glyph unicode="&#xba;" horiz-adv-x="384" d="M345 491q0 -109 -42 -166t-114 -57q-69 0 -108 54q-42 57 -42 165q0 110 40.5 167t113.5 57q70 0 110 -54q42 -58 42 -166zM266 489q0 147 -75 147q-74 0 -74 -147t75 -147q35 0 54.5 40t19.5 107z" />
<glyph unicode="&#xbb;" horiz-adv-x="490" d="M460 262l-135 -262h-98l130 263l-130 262h98zM268 262l-135 -262h-98l130 263l-130 262h98z" />
<glyph unicode="&#xbc;" horiz-adv-x="494" d="M469 0h-107l-41 185h-152l-40 -185h-104l158 643q-49 31 -49 94q0 49 32 81t81 32t81 -32t32 -81q0 -62 -48 -93zM302 737q0 24 -16 40t-39 16t-39 -16t-16 -40t16 -40t39 -16t39 16t16 40zM301 278l-26 118q-5 21 -30 153q-10 -53 -30 -153l-26 -118h112z" />
<glyph unicode="&#xbd;" horiz-adv-x="480" d="M437 166q-35 -170 -175 -177l-7 -37q15 9 42 9q64 0 64 -71q0 -83 -107 -83q-52 0 -101 29l20 32q33 -17 73 -17q49 0 49 36q0 33 -26 33q-18 0 -37 -12l-32 13l15 71q-170 33 -170 357q0 163 49 257q54 105 160 105q153 0 182 -171l-99 -25q-10 51 -28 72q-20 25 -58 25 q-105 0 -105 -261q0 -111 24 -180q29 -83 88 -83q34 0 55 25q18 24 33 82z" />
<glyph unicode="&#xbe;" horiz-adv-x="445" d="M412 0h-342v700h329v-95h-231v-187h151v-94h-151v-229h244v-95zM297 745h-82l-145 160h135z" />
<glyph unicode="&#xbf;" horiz-adv-x="451" d="M314 643q0 -29 -20 -49t-48 -20t-48 20t-20 49t20 48.5t48 19.5q29 0 48.5 -19.5t19.5 -48.5zM433 84q-95 -95 -208 -95q-89 0 -137 47t-48 127q0 66 30 110q22 34 74 69q37 25 47 58q8 26 8 98h101q0 -95 -16 -135q-19 -49 -86 -93q-57 -38 -57 -98q0 -84 88 -84 q66 0 142 69z" />
<glyph unicode="&#xc0;" horiz-adv-x="513" d="M468 351q0 -162 -51 -257q-56 -105 -162 -105t-160 104q-50 94 -50 256t50 257q55 105 161 105t162 -104q50 -94 50 -256zM368 349q0 111 -25 181q-30 83 -89 83q-109 0 -109 -262q0 -111 25 -181q29 -83 88 -83q110 0 110 262zM424 866q0 -60 -26 -93t-68 -33 q-40 0 -106 40q-20 12 -33 12q-30 0 -35 -47h-66q0 59 28 93q26 31 68 31q38 0 104 -40q20 -12 35 -12q27 0 33 49h66z" />
<glyph unicode="&#xc1;" horiz-adv-x="513" d="M468 351q0 -162 -51 -257q-56 -105 -162 -105t-160 104q-50 94 -50 256t50 257q55 105 161 105t162 -104q50 -94 50 -256zM368 349q0 111 -25 181q-30 83 -89 83q-109 0 -109 -262q0 -111 25 -181q29 -83 88 -83q110 0 110 262zM404 807q0 -25 -18.5 -43.5t-43.5 -18.5 t-44 18.5t-19 43.5q0 26 19 44.5t44 18.5t43.5 -19t18.5 -44zM227 807q0 -25 -18.5 -43.5t-43.5 -18.5t-44 18.5t-19 43.5q0 26 19 44.5t44 18.5t43.5 -19t18.5 -44z" />
<glyph unicode="&#xc2;" d="M730 346l-179 -125q-9 -5 -16 -2q-10 8 -6 20l19 61h-127v-137l63 20q10 3 18 -6q4 -7 -3 -17l-124 -178l-126 178q-5 11 -2 17q9 11 20 6l62 -20v137h-127l19 -61q3 -11 -7 -20q-6 -3 -17 2l-177 125l179 125q9 6 15 3q10 -9 7 -19l-19 -63h127v134l-62 -19 q-10 -5 -20 7q-3 7 2 17l126 177l124 -178q6 -9 3 -16q-8 -10 -18 -7l-63 19v-134h127l-19 63q-3 11 6 19q7 3 16 -3z" />
<glyph unicode="&#xc3;" horiz-adv-x="526" d="M459 208q0 -102 -53 -160.5t-143 -58.5q-87 0 -141.5 59t-54.5 154v498h98v-494q0 -49 22 -81q25 -37 76 -37q53 0 78 38q21 31 21 79v495h97v-492zM314 735h-82l-145 160h135z" />
<glyph unicode="&#xc4;" horiz-adv-x="526" d="M459 208q0 -102 -53 -160.5t-143 -58.5q-87 0 -141.5 59t-54.5 154v498h98v-494q0 -49 22 -81q25 -37 76 -37q53 0 78 38q21 31 21 79v495h97v-492zM441 895l-145 -160h-82l92 160h135z" />
<glyph unicode="&#xc5;" horiz-adv-x="526" d="M459 208q0 -102 -53 -160.5t-143 -58.5q-87 0 -141.5 59t-54.5 154v498h98v-494q0 -49 22 -81q25 -37 76 -37q53 0 78 38q21 31 21 79v495h97v-492zM418 745h-78l-77 88l-77 -88h-76l102 160h104z" />
<glyph unicode="&#xc6;" horiz-adv-x="667" d="M634 0h-327v165h-137l-54 -165h-99l242 700h362v-95h-221v-187h141v-94h-141v-229h234v-95zM309 597q-14 -50 -42 -135l-67 -204h107v213q0 56 2 126z" />
<glyph unicode="&#xc7;" horiz-adv-x="526" d="M459 208q0 -102 -53 -160.5t-143 -58.5q-87 0 -141.5 59t-54.5 154v498h98v-494q0 -49 22 -81q25 -37 76 -37q53 0 78 38q21 31 21 79v495h97v-492zM414 807q0 -25 -18.5 -43.5t-43.5 -18.5t-44 18.5t-19 43.5q0 26 19 44.5t44 18.5t43.5 -19t18.5 -44zM237 807 q0 -25 -18.5 -43.5t-43.5 -18.5t-44 18.5t-19 43.5q0 26 19 44.5t44 18.5t43.5 -19t18.5 -44z" />
<glyph unicode="&#xc8;" horiz-adv-x="493" d="M471 700l-173 -387v-313h-98v310l-178 390h111l62 -146q40 -93 55 -146q14 51 54 147l60 145h107zM425 900l-145 -160h-82l92 160h135z" />
<glyph unicode="&#xc9;" horiz-adv-x="480" d="M437 166q-37 -177 -186 -177q-107 0 -160 105q-46 93 -46 255q0 163 49 257q54 105 160 105q153 0 182 -171l-99 -25q-10 51 -28 72q-20 25 -58 25q-105 0 -105 -261q0 -111 24 -180q29 -83 88 -83q34 0 55 25q18 24 33 82zM409 910l-102 -160h-104l-102 160h78l77 -88 l77 88h76z" />
<glyph unicode="&#xca;" horiz-adv-x="434" d="M378 0h-96v36q-41 -47 -108 -47q-61 0 -100 44q-43 47 -43 132q0 83 48 129q46 43 123 43q44 0 80 -17v51q0 75 -68 75q-48 0 -103 -33l-41 73q75 50 151 50q86 0 121.5 -35t35.5 -122v-379zM282 125v105q-33 20 -79 20q-76 0 -76 -83q0 -91 66 -91q61 0 89 49zM268 595 h-82l-145 160h135z" />
<glyph unicode="&#xcb;" horiz-adv-x="434" d="M378 0h-96v36q-41 -47 -108 -47q-61 0 -100 44q-43 47 -43 132q0 83 48 129q46 43 123 43q44 0 80 -17v51q0 75 -68 75q-48 0 -103 -33l-41 73q75 50 151 50q86 0 121.5 -35t35.5 -122v-379zM282 125v105q-33 20 -79 20q-76 0 -76 -83q0 -91 66 -91q61 0 89 49zM395 755 l-145 -160h-82l92 160h135z" />
<glyph unicode="&#xcc;" horiz-adv-x="434" d="M378 0h-96v36q-41 -47 -108 -47q-61 0 -100 44q-43 47 -43 132q0 83 48 129q46 43 123 43q44 0 80 -17v51q0 75 -68 75q-48 0 -103 -33l-41 73q75 50 151 50q86 0 121.5 -35t35.5 -122v-379zM282 125v105q-33 20 -79 20q-76 0 -76 -83q0 -91 66 -91q61 0 89 49zM372 590 h-78l-77 88l-77 -88h-76l102 160h104z" />
<glyph unicode="&#xcd;" horiz-adv-x="434" d="M378 0h-96v36q-41 -47 -108 -47q-61 0 -100 44q-43 47 -43 132q0 83 48 129q46 43 123 43q44 0 80 -17v51q0 75 -68 75q-48 0 -103 -33l-41 73q75 50 151 50q86 0 121.5 -35t35.5 -122v-379zM282 125v105q-33 20 -79 20q-76 0 -76 -83q0 -91 66 -91q61 0 89 49zM388 716 q0 -60 -26 -93t-68 -33q-40 0 -106 40q-20 12 -33 12q-30 0 -35 -47h-66q0 59 28 93q26 31 68 31q38 0 104 -40q20 -12 35 -12q27 0 33 49h66z" />
<glyph unicode="&#xce;" horiz-adv-x="434" d="M378 0h-96v36q-41 -47 -108 -47q-61 0 -100 44q-43 47 -43 132q0 83 48 129q46 43 123 43q44 0 80 -17v51q0 75 -68 75q-48 0 -103 -33l-41 73q75 50 151 50q86 0 121.5 -35t35.5 -122v-379zM282 125v105q-33 20 -79 20q-76 0 -76 -83q0 -91 66 -91q61 0 89 49zM369 652 q0 -25 -18.5 -43.5t-43.5 -18.5t-44 18.5t-19 43.5q0 26 19 44.5t44 18.5t43.5 -19t18.5 -44zM192 652q0 -25 -18.5 -43.5t-43.5 -18.5t-44 18.5t-19 43.5q0 26 19 44.5t44 18.5t43.5 -19t18.5 -44z" />
<glyph unicode="&#xcf;" horiz-adv-x="434" d="M378 0h-96v36q-41 -47 -108 -47q-61 0 -100 44q-43 47 -43 132q0 83 48 129q46 43 123 43q44 0 80 -17v51q0 75 -68 75q-48 0 -103 -33l-41 73q75 50 151 50q86 0 121.5 -35t35.5 -122v-379zM282 125v105q-33 20 -79 20q-76 0 -76 -83q0 -91 66 -91q61 0 89 49zM331 707 q0 -49 -32 -80.5t-81 -31.5t-81 31.5t-32 80.5t32 81t81 32t81 -32t32 -81zM273 707q0 24 -16 40t-39 16t-39 -16t-16 -40t16 -40t39 -16t39 16t16 40z" />
<glyph unicode="&#xd0;" horiz-adv-x="410" d="M375 82q-58 -91 -146 -93l-7 -37q15 9 42 9q64 0 64 -71q0 -83 -107 -83q-52 0 -101 29l20 32q33 -17 73 -17q49 0 49 36q0 33 -26 33q-18 0 -37 -12l-32 13l15 72q-143 33 -143 267q0 136 49 206t138 70q94 0 148 -92l-69 -60q-38 60 -82 60q-87 0 -87 -182 q0 -181 90 -181q43 0 80 58z" />
<glyph unicode="&#xd1;" horiz-adv-x="450" d="M411 264q0 -24 -1 -34h-275q9 -149 99 -149q53 0 95 39l59 -61q-63 -70 -156 -70q-92 0 -143 74q-50 71 -50 197q0 134 52 207q49 69 135 69q82 0 132 -67q53 -73 53 -205zM313 313q-2 60 -25.5 96.5t-63.5 36.5q-76 0 -88 -133h177zM275 595h-82l-145 160h135z" />
<glyph unicode="&#xd2;" horiz-adv-x="450" d="M411 264q0 -24 -1 -34h-275q9 -149 99 -149q53 0 95 39l59 -61q-63 -70 -156 -70q-92 0 -143 74q-50 71 -50 197q0 134 52 207q49 69 135 69q82 0 132 -67q53 -73 53 -205zM313 313q-2 60 -25.5 96.5t-63.5 36.5q-76 0 -88 -133h177zM402 755l-145 -160h-82l92 160h135z " />
<glyph unicode="&#xd3;" horiz-adv-x="450" d="M411 264q0 -24 -1 -34h-275q9 -149 99 -149q53 0 95 39l59 -61q-63 -70 -156 -70q-92 0 -143 74q-50 71 -50 197q0 134 52 207q49 69 135 69q82 0 132 -67q53 -73 53 -205zM313 313q-2 60 -25.5 96.5t-63.5 36.5q-76 0 -88 -133h177zM379 585h-78l-77 88l-77 -88h-76 l102 160h104z" />
<glyph unicode="&#xd4;" horiz-adv-x="450" d="M411 264q0 -24 -1 -34h-275q9 -149 99 -149q53 0 95 39l59 -61q-63 -70 -156 -70q-92 0 -143 74q-50 71 -50 197q0 134 52 207q49 69 135 69q82 0 132 -67q53 -73 53 -205zM313 313q-2 60 -25.5 96.5t-63.5 36.5q-76 0 -88 -133h177zM376 652q0 -25 -18.5 -43.5 t-43.5 -18.5t-44 18.5t-19 43.5q0 26 19 44.5t44 18.5t43.5 -19t18.5 -44zM199 652q0 -25 -18.5 -43.5t-43.5 -18.5t-44 18.5t-19 43.5q0 26 19 44.5t44 18.5t43.5 -19t18.5 -44z" />
<glyph unicode="&#xd5;" horiz-adv-x="220" d="M158 0h-96v525h96v-525zM289 595h-82l-145 160h135z" />
<glyph unicode="&#xd6;" horiz-adv-x="220" d="M158 0h-96v525h96v-525zM292 755l-145 -160h-82l92 160h135z" />
<glyph unicode="&#xd7;" horiz-adv-x="220" d="M158 0h-96v525h96v-525zM370 580h-78l-77 88l-77 -88h-76l102 160h104z" />
<glyph unicode="&#xd8;" horiz-adv-x="513" d="M468 351q0 -162 -51 -257q-56 -105 -162 -105q-40 0 -75 16l-18 -55h-86l38 111q-69 95 -69 288q0 162 50 257q55 105 161 105q42 0 74 -16l19 55h86l-38 -111q71 -94 71 -288zM299 602q-20 14 -45 14q-111 0 -111 -265q0 -96 17 -160zM370 349q0 98 -18 162l-140 -412 q20 -15 46 -15q59 0 88 83q24 69 24 182z" />
<glyph unicode="&#xd9;" horiz-adv-x="220" d="M158 0h-96v525h96v-525zM364 657q0 -25 -18.5 -43.5t-43.5 -18.5t-44 18.5t-19 43.5q0 26 19 44.5t44 18.5t43.5 -19t18.5 -44zM187 657q0 -25 -18.5 -43.5t-43.5 -18.5t-44 18.5t-19 43.5q0 26 19 44.5t44 18.5t43.5 -19t18.5 -44z" />
<glyph unicode="&#xda;" horiz-adv-x="448" d="M391 0h-96v35q-43 -46 -98 -46q-158 0 -158 279q0 130 43 199t122 69q53 0 91 -39v83h-82v79h82v71l96 -1v-70h49v-79h-49v-580zM295 127v272q-31 47 -83 47q-76 0 -76 -173q0 -194 81 -194q49 0 78 48z" />
<glyph unicode="&#xdb;" horiz-adv-x="446" d="M392 0h-96v323q0 66 -14.5 94t-50.5 28q-49 0 -78 -48v-397h-96v525h96v-36q37 47 102 47q74 0 105.5 -47.5t31.5 -149.5v-339zM391 716q0 -60 -26 -93t-68 -33q-40 0 -106 40q-20 12 -33 12q-30 0 -35 -47h-66q0 59 28 93q26 31 68 31q38 0 104 -40q20 -12 35 -12 q27 0 33 49h66z" />
<glyph unicode="&#xdc;" horiz-adv-x="456" d="M417 264q0 -135 -51.5 -205t-140.5 -70q-85 0 -134 67q-52 70 -52 204q0 135 51 207q49 69 139 69q86 0 136 -67q52 -72 52 -205zM320 262q0 182 -93 182q-91 0 -91 -182q0 -181 92 -181q44 0 68 49t24 132zM276 595h-82l-145 160h135z" />
<glyph unicode="&#xdd;" horiz-adv-x="456" d="M417 264q0 -135 -51.5 -205t-140.5 -70q-85 0 -134 67q-52 70 -52 204q0 135 51 207q49 69 139 69q86 0 136 -67q52 -72 52 -205zM320 262q0 182 -93 182q-91 0 -91 -182q0 -181 92 -181q44 0 68 49t24 132zM403 755l-145 -160h-82l92 160h135z" />
<glyph unicode="&#xde;" horiz-adv-x="456" d="M417 264q0 -135 -51.5 -205t-140.5 -70q-85 0 -134 67q-52 70 -52 204q0 135 51 207q49 69 139 69q86 0 136 -67q52 -72 52 -205zM320 262q0 182 -93 182q-91 0 -91 -182q0 -181 92 -181q44 0 68 49t24 132zM380 585h-78l-77 88l-77 -88h-76l102 160h104z" />
<glyph unicode="&#xdf;" horiz-adv-x="463" d="M421 218q0 -218 -199 -218h-11v88h12q101 0 101 127q0 137 -103 137h-10v87h9q80 0 80 99t-75 99q-72 0 -72 -95v-683l-96 -52v724q0 102 40.5 148.5t129.5 46.5q82 0 126 -47t44 -133q0 -103 -71 -144q95 -37 95 -184z" />
<glyph unicode="&#xe0;" horiz-adv-x="456" d="M417 264q0 -135 -51.5 -205t-140.5 -70q-85 0 -134 67q-52 70 -52 204q0 135 51 207q49 69 139 69q86 0 136 -67q52 -72 52 -205zM320 262q0 182 -93 182q-91 0 -91 -182q0 -181 92 -181q44 0 68 49t24 132zM396 716q0 -60 -26 -93t-68 -33q-40 0 -106 40q-20 12 -33 12 q-30 0 -35 -47h-66q0 59 28 93q26 31 68 31q38 0 104 -40q20 -12 35 -12q27 0 33 49h66z" />
<glyph unicode="&#xe1;" horiz-adv-x="456" d="M417 264q0 -135 -51.5 -205t-140.5 -70q-85 0 -134 67q-52 70 -52 204q0 135 51 207q49 69 139 69q86 0 136 -67q52 -72 52 -205zM320 262q0 182 -93 182q-91 0 -91 -182q0 -181 92 -181q44 0 68 49t24 132zM377 647q0 -25 -18.5 -43.5t-43.5 -18.5t-44 18.5t-19 43.5 q0 26 19 44.5t44 18.5t43.5 -19t18.5 -44zM200 647q0 -25 -18.5 -43.5t-43.5 -18.5t-44 18.5t-19 43.5q0 26 19 44.5t44 18.5t43.5 -19t18.5 -44z" />
<glyph unicode="&#xe2;" d="M730 346l-179 -125q-9 -5 -16 -2q-10 8 -6 20l19 61h-127v-137l63 20q10 3 18 -6q4 -7 -3 -17l-124 -178l-126 178q-5 11 -2 17q9 11 20 6l62 -20v137h-127l19 -61q3 -11 -7 -20q-6 -3 -17 2l-177 125l179 125q9 6 15 3q10 -9 7 -19l-19 -63h127v134l-62 -19 q-10 -5 -20 7q-3 7 2 17l126 177l124 -178q6 -9 3 -16q-8 -10 -18 -7l-63 19v-134h127l-19 63q-3 11 6 19q7 3 16 -3z" />
<glyph unicode="&#xe3;" horiz-adv-x="446" d="M389 0h-96v36q-37 -47 -102 -47q-74 0 -106 49q-31 46 -31 148v339h96v-323q0 -66 14.5 -94t50.5 -28q49 0 78 48v397h96v-525zM281 595h-82l-145 160h135z" />
<glyph unicode="&#xe4;" horiz-adv-x="446" d="M389 0h-96v36q-37 -47 -102 -47q-74 0 -106 49q-31 46 -31 148v339h96v-323q0 -66 14.5 -94t50.5 -28q49 0 78 48v397h96v-525zM396 755l-145 -160h-82l92 160h135z" />
<glyph unicode="&#xe5;" horiz-adv-x="446" d="M389 0h-96v36q-37 -47 -102 -47q-74 0 -106 49q-31 46 -31 148v339h96v-323q0 -66 14.5 -94t50.5 -28q49 0 78 48v397h96v-525zM373 595h-78l-77 88l-77 -88h-76l102 160h104z" />
<glyph unicode="&#xe6;" horiz-adv-x="685" d="M646 264q0 -24 -1 -34h-275q9 -149 99 -149q53 0 95 39l59 -61q-63 -70 -156 -70q-90 0 -135 76q-66 -76 -158 -76q-61 0 -100 44q-43 47 -43 132q0 83 48 129q46 43 123 43q44 0 80 -17v51q0 75 -68 75q-48 0 -103 -33l-41 73q75 50 148 50q55 0 84 -16q23 -13 42 -46 q41 62 117 62q82 0 132 -67q53 -73 53 -205zM548 313q-2 60 -25.5 96.5t-63.5 36.5q-76 0 -88 -133h177zM282 125v105q-33 20 -79 20q-76 0 -76 -83q0 -91 66 -91q61 0 89 49z" />
<glyph unicode="&#xe7;" horiz-adv-x="446" d="M389 0h-96v36q-37 -47 -102 -47q-74 0 -106 49q-31 46 -31 148v339h96v-323q0 -66 14.5 -94t50.5 -28q49 0 78 48v397h96v-525zM370 657q0 -25 -18.5 -43.5t-43.5 -18.5t-44 18.5t-19 43.5q0 26 19 44.5t44 18.5t43.5 -19t18.5 -44zM193 657q0 -25 -18.5 -43.5 t-43.5 -18.5t-44 18.5t-19 43.5q0 26 19 44.5t44 18.5t43.5 -19t18.5 -44z" />
<glyph unicode="&#xe8;" horiz-adv-x="434" d="M412 525l-207 -710h-94l57 185l-146 525h102l61 -249q19 -76 31 -143q11 62 32 144l62 248h102zM391 745l-145 -160h-82l92 160h135z" />
<glyph unicode="&#xe9;" horiz-adv-x="410" d="M375 82q-59 -93 -153 -93q-85 0 -132 67q-51 70 -51 204q0 136 49 206t138 70q94 0 148 -92l-69 -60q-38 60 -82 60q-87 0 -87 -182q0 -181 90 -181q43 0 80 58zM375 755l-102 -160h-104l-102 160h78l77 -88l77 88h76z" />
<glyph unicode="&#xea;" horiz-adv-x="434" d="M412 525l-207 -710h-94l57 185l-146 525h102l61 -249q19 -76 31 -143q11 62 32 144l62 248h102zM365 647q0 -25 -18.5 -43.5t-43.5 -18.5t-44 18.5t-19 43.5q0 26 19 44.5t44 18.5t43.5 -19t18.5 -44zM188 647q0 -25 -18.5 -43.5t-43.5 -18.5t-44 18.5t-19 43.5 q0 26 19 44.5t44 18.5t43.5 -19t18.5 -44z" />
<glyph unicode="&#xeb;" horiz-adv-x="443" d="M403 181q0 -86 -50 -139t-141 -53q-118 0 -185 114l77 62q49 -78 114 -78q84 0 84 89q0 41 -23.5 71t-94 76.5t-99.5 84.5q-41 53 -41 128q0 78 48 126.5t129 48.5q105 0 170 -95l-72 -64q-26 35 -47.5 48t-53.5 13q-73 0 -73 -74q0 -39 21.5 -66t80.5 -65 q78 -50 111 -91q45 -56 45 -136zM368 910l-102 -160h-104l-102 160h78l77 -88l77 88h76z" />
<glyph unicode="&#xec;" horiz-adv-x="389" d="M351 144q0 -74 -43 -114.5t-120 -40.5q-85 0 -161 56l37 80q72 -45 122 -45q69 0 69 57q0 26 -23 47q-18 16 -78 51q-56 33 -79 61q-30 37 -30 94q0 69 39.5 107.5t110.5 38.5q79 0 143 -49l-39 -81q-55 39 -106 39q-52 0 -52 -46q0 -24 16.5 -41t69.5 -48q67 -39 92 -68 q32 -38 32 -98zM342 755l-102 -160h-104l-102 160h78l77 -88l77 88h76z" />
<glyph unicode="&#xed;" horiz-adv-x="575" d="M539 307h-56v159q0 11 1 45v44q-7 -24 -28 -93l-51 -164l-51 164q-10 33 -27 89q0 -12 1 -43v-42v-159h-55v393h59l51 -164q10 -29 24 -82q5 29 22 84l51 162h59v-393zM220 643h-71v-336h-57v336h-73v57h201v-57z" />
<glyph unicode="&#xee;" horiz-adv-x="493" d="M471 700l-173 -387v-313h-98v310l-178 390h111l62 -146q40 -93 55 -146q14 51 54 147l60 145h107zM398 802q0 -25 -18.5 -43.5t-43.5 -18.5t-44 18.5t-19 43.5q0 26 19 44.5t44 18.5t43.5 -19t18.5 -44zM221 802q0 -25 -18.5 -43.5t-43.5 -18.5t-44 18.5t-19 43.5 q0 26 19 44.5t44 18.5t43.5 -19t18.5 -44z" />
<glyph unicode="&#xef;" d="M730 346l-179 -125q-9 -5 -16 -2q-10 8 -6 20l19 61h-127v-137l63 20q10 3 18 -6q4 -7 -3 -17l-124 -178l-126 178q-5 11 -2 17q9 11 20 6l62 -20v137h-127l19 -61q3 -11 -7 -20q-6 -3 -17 2l-177 125l179 125q9 6 15 3q10 -9 7 -19l-19 -63h127v134l-62 -19 q-10 -5 -20 7q-3 7 2 17l126 177l124 -178q6 -9 3 -16q-8 -10 -18 -7l-63 19v-134h127l-19 63q-3 11 6 19q7 3 16 -3z" />
<glyph unicode="&#xf1;" horiz-adv-x="356" d="M306 185q4 -9 -3 -19l-125 -179l-126 179q-6 12 -2 19q9 12 23 8l57 -18v525h96v-525l58 18q13 4 22 -8z" />
<glyph unicode="&#xf2;" horiz-adv-x="490" d="M475 700l-231 -700h-99l-123 340h107l29 -98q22 -75 36 -136q14 56 40 140l138 454h103z" />
<glyph unicode="&#xf3;" horiz-adv-x="356" d="M306 515q-9 -12 -22 -8l-58 18v-525h-96v525l-57 -18q-14 -4 -23 8q-4 8 2 19l126 179l125 -179q7 -10 3 -19z" />
<glyph unicode="&#xf4;" horiz-adv-x="448" d="M391 0h-96v35q-43 -46 -98 -46q-158 0 -158 279q0 130 43 199t122 69q53 0 91 -39v28h96v-525zM295 127v272q-31 47 -83 47q-76 0 -76 -173q0 -194 81 -194q49 0 78 48z" />
<glyph unicode="&#xf6;" d="M730 346l-179 -125q-9 -5 -16 -2q-10 8 -6 20l19 61h-127v-137l63 20q10 3 18 -6q4 -7 -3 -17l-124 -178l-126 178q-5 11 -2 17q9 11 20 6l62 -20v137h-127l19 -61q3 -11 -7 -20q-6 -3 -17 2l-177 125l179 125q9 6 15 3q10 -9 7 -19l-19 -63h127v134l-62 -19 q-10 -5 -20 7q-3 7 2 17l126 177l124 -178q6 -9 3 -16q-8 -10 -18 -7l-63 19v-134h127l-19 63q-3 11 6 19q7 3 16 -3z" />
<glyph unicode="&#xf7;" d="M730 346l-179 -125q-9 -5 -16 -2q-10 8 -6 20l19 61h-127v-137l63 20q10 3 18 -6q4 -7 -3 -17l-124 -178l-126 178q-5 11 -2 17q9 11 20 6l62 -20v137h-127l19 -61q3 -11 -7 -20q-6 -3 -17 2l-177 125l179 125q9 6 15 3q10 -9 7 -19l-19 -63h127v134l-62 -19 q-10 -5 -20 7q-3 7 2 17l126 177l124 -178q6 -9 3 -16q-8 -10 -18 -7l-63 19v-134h127l-19 63q-3 11 6 19q7 3 16 -3z" />
<glyph unicode="&#xf8;" horiz-adv-x="456" d="M417 264q0 -135 -51.5 -205t-140.5 -70q-28 0 -55 8l-17 -47h-82l33 89q-65 71 -65 221q0 135 51 207q49 69 139 69q28 0 55 -8l17 47h82l-33 -89q67 -70 67 -222zM253 444q-11 4 -26 4q-95 0 -95 -186q0 -70 13 -112zM324 262q0 70 -14 114l-109 -295q12 -4 27 -4 q45 0 70.5 50.5t25.5 134.5z" />
<glyph unicode="&#xf9;" horiz-adv-x="356" d="M306 185q4 -9 -3 -19l-125 -179l-126 179q-6 12 -2 19q9 12 23 8l57 -18v350l-57 -18q-14 -4 -23 8q-4 8 2 19l126 179l125 -179q7 -10 3 -19q-9 -12 -22 -8l-58 18v-350l58 18q13 4 22 -8z" />
<glyph unicode="&#xfa;" d="M730 346l-179 -125q-9 -5 -16 -2q-10 8 -6 20l19 61h-127v-137l63 20q10 3 18 -6q4 -7 -3 -17l-124 -178l-126 178q-5 11 -2 17q9 11 20 6l62 -20v137h-127l19 -61q3 -11 -7 -20q-6 -3 -17 2l-177 125l179 125q9 6 15 3q10 -9 7 -19l-19 -63h127v134l-62 -19 q-10 -5 -20 7q-3 7 2 17l126 177l124 -178q6 -9 3 -16q-8 -10 -18 -7l-63 19v-134h127l-19 63q-3 11 6 19q7 3 16 -3z" />
<glyph unicode="&#xfb;" d="M730 346l-179 -125q-9 -5 -16 -2q-10 8 -6 20l19 61h-127v-137l63 20q10 3 18 -6q4 -7 -3 -17l-124 -178l-126 178q-5 11 -2 17q9 11 20 6l62 -20v137h-127l19 -61q3 -11 -7 -20q-6 -3 -17 2l-177 125l179 125q9 6 15 3q10 -9 7 -19l-19 -63h127v134l-62 -19 q-10 -5 -20 7q-3 7 2 17l126 177l124 -178q6 -9 3 -16q-8 -10 -18 -7l-63 19v-134h127l-19 63q-3 11 6 19q7 3 16 -3z" />
<glyph unicode="&#xfc;" d="M730 346l-179 -125q-9 -5 -16 -2q-10 8 -6 20l19 61h-127v-137l63 20q10 3 18 -6q4 -7 -3 -17l-124 -178l-126 178q-5 11 -2 17q9 11 20 6l62 -20v137h-127l19 -61q3 -11 -7 -20q-6 -3 -17 2l-177 125l179 125q9 6 15 3q10 -9 7 -19l-19 -63h127v134l-62 -19 q-10 -5 -20 7q-3 7 2 17l126 177l124 -178q6 -9 3 -16q-8 -10 -18 -7l-63 19v-134h127l-19 63q-3 11 6 19q7 3 16 -3z" />
<glyph unicode="&#xfd;" d="M730 346l-179 -125q-9 -5 -16 -2q-10 8 -6 20l19 61h-127v-137l63 20q10 3 18 -6q4 -7 -3 -17l-124 -178l-126 178q-5 11 -2 17q9 11 20 6l62 -20v137h-127l19 -61q3 -11 -7 -20q-6 -3 -17 2l-177 125l179 125q9 6 15 3q10 -9 7 -19l-19 -63h127v134l-62 -19 q-10 -5 -20 7q-3 7 2 17l126 177l124 -178q6 -9 3 -16q-8 -10 -18 -7l-63 19v-134h127l-19 63q-3 11 6 19q7 3 16 -3z" />
<glyph unicode="&#x131;" horiz-adv-x="220" d="M158 0h-96v525h96v-525z" />
<glyph unicode="&#x141;" horiz-adv-x="428" d="M402 0h-322v227l-40 -33v105l40 33v368h96v-300l103 82v-105l-103 -82v-199h226v-96z" />
<glyph unicode="&#x142;" horiz-adv-x="248" d="M214 340l-43 -35v-305h-94v237l-43 -34v105l43 34v337l94 50v-319l43 35v-105z" />
<glyph unicode="&#x152;" horiz-adv-x="735" d="M702 0h-322v63q-48 -74 -125 -74q-106 0 -160 104q-50 94 -50 256t50 257q55 105 161 105q90 0 124 -78v67h309v-95h-231v-187h151v-94h-151v-229h244v-95zM368 349q0 111 -25 181q-30 83 -89 83q-109 0 -109 -262q0 -111 25 -181q29 -83 88 -83q110 0 110 262z" />
<glyph unicode="&#x153;" horiz-adv-x="725" d="M686 264q0 -24 -1 -34h-275q9 -149 99 -149q53 0 95 39l59 -61q-63 -70 -156 -70q-100 0 -141 85q-43 -85 -141 -85q-85 0 -134 67q-52 70 -52 204q0 135 51 207q49 69 139 69q95 0 136 -84q45 84 136 84q82 0 132 -67q53 -73 53 -205zM588 313q-2 60 -25.5 96.5 t-63.5 36.5q-76 0 -88 -133h177zM320 262q0 182 -93 182q-91 0 -91 -182q0 -181 92 -181q44 0 68 49t24 132z" />
<glyph unicode="&#x192;" horiz-adv-x="340" d="M309 619q-24 6 -56 6q-55 0 -55 -56v-44h96v-88h-96v-578l-96 -52v630h-53v88h53v59q0 127 123 127q44 0 84 -10v-82z" />
<glyph unicode="&#x2c6;" horiz-adv-x="400" d="M354 595h-78l-77 88l-77 -88h-76l102 160h104z" />
<glyph unicode="&#x2c7;" horiz-adv-x="400" d="M354 755l-102 -160h-104l-102 160h78l77 -88l77 88h76z" />
<glyph unicode="&#x2d8;" horiz-adv-x="400" d="M355 755q-22 -160 -155 -160q-137 0 -153 160h69q17 -80 86 -80q66 0 84 80h69z" />
<glyph unicode="&#x2d9;" horiz-adv-x="400" d="M264 659q0 -25 -19 -44.5t-45 -19.5t-45.5 19t-19.5 45t19.5 45.5t45.5 19.5t45 -19.5t19 -45.5z" />
<glyph unicode="&#x2da;" horiz-adv-x="400" d="M313 707q0 -49 -32 -80.5t-81 -31.5t-81 31.5t-32 80.5t32 81t81 32t81 -32t32 -81zM255 707q0 24 -16 40t-39 16t-39 -16t-16 -40t16 -40t39 -16t39 16t16 40z" />
<glyph unicode="&#x2db;" horiz-adv-x="400" d="M306 -150q-60 -43 -111 -43q-92 0 -92 78q0 63 86 115h50q-59 -59 -59 -100t38 -41q26 0 66 24z" />
<glyph unicode="&#x2dc;" horiz-adv-x="400" d="M370 716q0 -60 -26 -93t-68 -33q-40 0 -106 40q-20 12 -33 12q-30 0 -35 -47h-66q0 59 28 93q26 31 68 31q38 0 104 -40q20 -12 35 -12q27 0 33 49h66z" />
<glyph unicode="&#x2dd;" horiz-adv-x="400" d="M424 755l-145 -160h-82l97 160h130zM234 755l-145 -160h-82l97 160h130z" />
<glyph unicode="&#x3bc;" horiz-adv-x="513" d="M468 351q0 -162 -51 -257q-56 -105 -162 -105t-160 104q-50 94 -50 256t50 257q55 105 161 105t162 -104q50 -94 50 -256zM368 349q0 111 -25 181q-30 83 -89 83q-109 0 -109 -262q0 -111 25 -181q29 -83 88 -83q110 0 110 262zM408 740h-78l-77 88l-77 -88h-76l102 160 h104z" />
<glyph unicode="&#x2013;" horiz-adv-x="401" d="M366 319h-326v94h326v-94z" />
<glyph unicode="&#x2014;" horiz-adv-x="550" d="M510 319h-470v94h470v-94z" />
<glyph unicode="&#x2018;" horiz-adv-x="242" d="M180 700l-13 -239h-119l67 239h65z" />
<glyph unicode="&#x2019;" horiz-adv-x="242" d="M194 700l-67 -239h-65l13 239h119z" />
<glyph unicode="&#x201a;" horiz-adv-x="242" d="M194 126l-67 -239h-65l13 239h119z" />
<glyph unicode="&#x201c;" horiz-adv-x="457" d="M395 700l-13 -239h-119l67 239h65zM180 700l-13 -239h-119l67 239h65z" />
<glyph unicode="&#x201d;" horiz-adv-x="457" d="M409 700l-67 -239h-65l13 239h119zM194 700l-67 -239h-65l13 239h119z" />
<glyph unicode="&#x201e;" horiz-adv-x="457" d="M409 126l-67 -239h-65l13 239h119zM194 126l-67 -239h-65l13 239h119z" />
<glyph unicode="&#x2020;" horiz-adv-x="410" d="M375 82q-59 -93 -153 -93q-85 0 -132 67q-51 70 -51 204q0 136 49 206t138 70q94 0 148 -92l-69 -60q-38 60 -82 60q-87 0 -87 -182q0 -181 90 -181q43 0 80 58zM410 755l-145 -160h-82l92 160h135z" />
<glyph unicode="&#x2021;" horiz-adv-x="480" d="M437 166q-37 -177 -186 -177q-107 0 -160 105q-46 93 -46 255q0 163 49 257q54 105 160 105q153 0 182 -171l-99 -25q-10 51 -28 72q-20 25 -58 25q-105 0 -105 -261q0 -111 24 -180q29 -83 88 -83q34 0 55 25q18 24 33 82zM447 905l-145 -160h-82l92 160h135z" />
<glyph unicode="&#x2022;" horiz-adv-x="400" d="M350 366q0 -63 -43.5 -106.5t-106.5 -43.5t-106.5 43.5t-43.5 106.5t43.5 107.5t106.5 44.5t106.5 -44.5t43.5 -107.5z" />
<glyph unicode="&#x2026;" horiz-adv-x="696" d="M651 60q0 -30 -20.5 -50.5t-50.5 -20.5t-50.5 20.5t-20.5 50.5t20.5 51t50.5 21t50.5 -21t20.5 -51zM419 60q0 -30 -20.5 -50.5t-50.5 -20.5t-50.5 20.5t-20.5 50.5t20.5 51t50.5 21t50.5 -21t20.5 -51zM187 60q0 -30 -20.5 -50.5t-50.5 -20.5t-50.5 20.5t-20.5 50.5 t20.5 51t50.5 21t50.5 -21t20.5 -51z" />
<glyph unicode="&#x2030;" horiz-adv-x="1203" d="M1160 207q0 -99 -37 -157q-39 -61 -113 -61t-112 60q-35 56 -35 156q0 101 36 158q38 61 113 61q148 0 148 -217zM805 207q0 -99 -37 -157q-39 -61 -113 -61t-112 60q-35 56 -35 156q0 101 36 158q38 61 113 61q148 0 148 -217zM653 700l-369 -700h-88l369 700h88z M347 494q0 -99 -37 -157q-39 -61 -113 -61t-112 60q-35 56 -35 156q0 101 36 158q38 61 113 61q148 0 148 -217zM1078 205q0 141 -67 141q-65 0 -65 -139q0 -142 66 -142t66 140zM723 205q0 141 -67 141q-65 0 -65 -139q0 -142 66 -142t66 140zM265 492q0 141 -67 141 q-65 0 -65 -139q0 -142 66 -142t66 140z" />
<glyph unicode="&#x2039;" horiz-adv-x="298" d="M253 0h-98l-135 262l135 263h98l-130 -262z" />
<glyph unicode="&#x203a;" horiz-adv-x="298" d="M278 263l-135 -263h-98l130 262l-130 263h98z" />
<glyph unicode="&#x2044;" horiz-adv-x="389" d="M441 700l-389 -700h-104l389 700h104z" />
<glyph unicode="&#x2212;" horiz-adv-x="248" d="M173 0h-98v700h98v-700zM169 745h-82l-145 160h135z" />
<glyph unicode="&#xe000;" horiz-adv-x="525" d="M0 525h525v-525h-525v525z" />
<glyph unicode="&#xf001;" horiz-adv-x="505" d="M454 666q0 -24 -17.5 -41.5t-41.5 -17.5q-25 0 -42.5 17.5t-17.5 41.5q0 25 17.5 42.5t42.5 17.5q24 0 41.5 -17.5t17.5 -42.5zM443 0h-96v525h96v-525zM278 636q-18 6 -40 6q-34 0 -47.5 -13t-13.5 -43v-61h86v-90h-86v-435h-96v435h-53v90h53v74q0 62 34 96 q31 31 84 31q48 0 79 -10v-80z" />
<glyph unicode="&#xf002;" horiz-adv-x="505" d="M443 0h-96v679l96 50v-729zM278 636q-18 6 -40 6q-34 0 -47.5 -13t-13.5 -43v-61h86v-90h-86v-435h-96v435h-53v90h53v74q0 62 34 96q31 31 84 31q48 0 79 -10v-80z" />
<glyph horiz-adv-x="280" />
<glyph horiz-adv-x="494" d="M469 0h-107l-41 185h-152l-40 -185h-104l172 700h101zM301 278l-26 118q-5 21 -30 153q-10 -53 -30 -153l-26 -118h112zM398 807q0 -25 -18.5 -43.5t-43.5 -18.5t-44 18.5t-19 43.5q0 26 19 44.5t44 18.5t43.5 -19t18.5 -44zM221 807q0 -25 -18.5 -43.5t-43.5 -18.5 t-44 18.5t-19 43.5q0 26 19 44.5t44 18.5t43.5 -19t18.5 -44z" />
<glyph horiz-adv-x="494" d="M469 0h-107l-41 185h-152l-40 -185h-104l172 700h101zM301 278l-26 118q-5 21 -30 153q-10 -53 -30 -153l-26 -118h112zM417 866q0 -60 -26 -93t-68 -33q-40 0 -106 40q-20 12 -33 12q-30 0 -35 -47h-66q0 59 28 93q26 31 68 31q38 0 104 -40q20 -12 35 -12q27 0 33 49 h66z" />
<glyph horiz-adv-x="494" d="M469 0h-107l-41 185h-152l-40 -185h-104l172 700h101zM301 278l-26 118q-5 21 -30 153q-10 -53 -30 -153l-26 -118h112zM401 734h-78l-77 88l-77 -88h-76l102 160h104z" />
<glyph horiz-adv-x="494" d="M469 0h-107l-41 185h-152l-40 -185h-104l172 700h101zM301 278l-26 118q-5 21 -30 153q-10 -53 -30 -153l-26 -118h112zM424 905l-145 -160h-82l92 160h135z" />
<glyph horiz-adv-x="494" d="M469 0h-107l-41 185h-152l-40 -185h-104l172 700h101zM301 278l-26 118q-5 21 -30 153q-10 -53 -30 -153l-26 -118h112zM297 745h-82l-145 160h135z" />
<glyph horiz-adv-x="700" d="M680 346l-179 -126q-11 -6 -19 -2q-12 9 -8 23l18 57h-284l18 -57q4 -14 -8 -23q-7 -4 -19 2l-179 126l179 125q10 7 19 3q12 -9 8 -22l-18 -58h284l-18 58q-4 13 8 22q9 4 19 -3z" />
<glyph d="M730 346l-179 -125q-9 -5 -16 -2q-10 8 -6 20l19 61h-127v-137l63 20q10 3 18 -6q4 -7 -3 -17l-124 -178l-126 178q-5 11 -2 17q9 11 20 6l62 -20v137h-127l19 -61q3 -11 -7 -20q-6 -3 -17 2l-177 125l179 125q9 6 15 3q10 -9 7 -19l-19 -63h127v134l-62 -19 q-10 -5 -20 7q-3 7 2 17l126 177l124 -178q6 -9 3 -16q-8 -10 -18 -7l-63 19v-134h127l-19 63q-3 11 6 19q7 3 16 -3z" />
<glyph horiz-adv-x="400" d="M368 544q0 -72 -48.5 -120.5t-119.5 -48.5t-119.5 48.5t-48.5 120.5q0 70 49 118.5t119 48.5q71 0 119.5 -48.5t48.5 -118.5zM289 544q0 36 -26 62.5t-63 26.5t-63 -26.5t-26 -62.5q0 -38 26 -64.5t63 -26.5t63 26.5t26 64.5z" />
<glyph horiz-adv-x="646" d="M601 350q0 -163 -78 -262t-200 -99t-200 99t-78 262t78 262t200 99t200 -99t78 -262zM543 349q0 139 -59.5 223t-160.5 84t-160.5 -83.5t-59.5 -221.5t60.5 -222.5t161.5 -84.5t159.5 83.5t58.5 221.5zM447 443q0 -76 -63 -102l62 -180h-64l-58 169h-42v-169h-58v394h111 q48 0 78 -26q34 -30 34 -86zM387 443q0 55 -54 55h-51v-112h49q56 0 56 57z" />
<glyph horiz-adv-x="443" d="M403 181q0 -86 -50 -139t-141 -53q-118 0 -185 114l77 62q49 -78 114 -78q84 0 84 89q0 41 -23.5 71t-94 76.5t-99.5 84.5q-41 53 -41 128q0 78 48 126.5t129 48.5q105 0 170 -95l-72 -64q-26 35 -47.5 48t-53.5 13q-73 0 -73 -74q0 -39 21.5 -66t80.5 -65 q78 -50 111 -91q45 -56 45 -136zM368 910l-102 -160h-104l-102 160h78l77 -88l77 88h76z" />
<glyph horiz-adv-x="646" d="M601 350q0 -163 -78 -262t-200 -99t-200 99t-78 262t78 262t200 99t200 -99t78 -262zM543 349q0 139 -59.5 223t-160.5 84t-160.5 -83.5t-59.5 -221.5t60.5 -222.5t161.5 -84.5t159.5 83.5t58.5 221.5zM428 250q-21 -102 -105 -102q-116 0 -116 204q0 92 28 145 q30 59 90 59q86 0 103 -97l-58 -14q-11 52 -47 52q-57 0 -57 -144q0 -146 61 -146q33 0 48 60z" />
<glyph horiz-adv-x="460" d="M413 0h-372v91l200 394q35 69 68 126q-42 -2 -101 -2h-141v91h340v-91l-201 -395q-32 -62 -68 -125q42 2 101 2h174v-91zM386 905l-102 -160h-104l-102 160h78l77 -88l77 88h76z" />
<glyph horiz-adv-x="110" />
<glyph d="M730 346l-179 -125q-9 -5 -16 -2q-10 8 -6 20l19 61h-127v-137l63 20q10 3 18 -6q4 -7 -3 -17l-124 -178l-126 178q-5 11 -2 17q9 11 20 6l62 -20v137h-127l19 -61q3 -11 -7 -20q-6 -3 -17 2l-177 125l179 125q9 6 15 3q10 -9 7 -19l-19 -63h127v134l-62 -19 q-10 -5 -20 7q-3 7 2 17l126 177l124 -178q6 -9 3 -16q-8 -10 -18 -7l-63 19v-134h127l-19 63q-3 11 6 19q7 3 16 -3z" />
<glyph d="M730 346l-179 -125q-9 -5 -16 -2q-10 8 -6 20l19 61h-127v-137l63 20q10 3 18 -6q4 -7 -3 -17l-124 -178l-126 178q-5 11 -2 17q9 11 20 6l62 -20v137h-127l19 -61q3 -11 -7 -20q-6 -3 -17 2l-177 125l179 125q9 6 15 3q10 -9 7 -19l-19 -63h127v134l-62 -19 q-10 -5 -20 7q-3 7 2 17l126 177l124 -178q6 -9 3 -16q-8 -10 -18 -7l-63 19v-134h127l-19 63q-3 11 6 19q7 3 16 -3z" />
<glyph d="M730 346l-179 -125q-9 -5 -16 -2q-10 8 -6 20l19 61h-127v-137l63 20q10 3 18 -6q4 -7 -3 -17l-124 -178l-126 178q-5 11 -2 17q9 11 20 6l62 -20v137h-127l19 -61q3 -11 -7 -20q-6 -3 -17 2l-177 125l179 125q9 6 15 3q10 -9 7 -19l-19 -63h127v134l-62 -19 q-10 -5 -20 7q-3 7 2 17l126 177l124 -178q6 -9 3 -16q-8 -10 -18 -7l-63 19v-134h127l-19 63q-3 11 6 19q7 3 16 -3z" />
<glyph d="M730 346l-179 -125q-9 -5 -16 -2q-10 8 -6 20l19 61h-127v-137l63 20q10 3 18 -6q4 -7 -3 -17l-124 -178l-126 178q-5 11 -2 17q9 11 20 6l62 -20v137h-127l19 -61q3 -11 -7 -20q-6 -3 -17 2l-177 125l179 125q9 6 15 3q10 -9 7 -19l-19 -63h127v134l-62 -19 q-10 -5 -20 7q-3 7 2 17l126 177l124 -178q6 -9 3 -16q-8 -10 -18 -7l-63 19v-134h127l-19 63q-3 11 6 19q7 3 16 -3z" />
<glyph d="M730 346l-179 -125q-9 -5 -16 -2q-10 8 -6 20l19 61h-127v-137l63 20q10 3 18 -6q4 -7 -3 -17l-124 -178l-126 178q-5 11 -2 17q9 11 20 6l62 -20v137h-127l19 -61q3 -11 -7 -20q-6 -3 -17 2l-177 125l179 125q9 6 15 3q10 -9 7 -19l-19 -63h127v134l-62 -19 q-10 -5 -20 7q-3 7 2 17l126 177l124 -178q6 -9 3 -16q-8 -10 -18 -7l-63 19v-134h127l-19 63q-3 11 6 19q7 3 16 -3z" />
<glyph d="M730 346l-179 -125q-9 -5 -16 -2q-10 8 -6 20l19 61h-127v-137l63 20q10 3 18 -6q4 -7 -3 -17l-124 -178l-126 178q-5 11 -2 17q9 11 20 6l62 -20v137h-127l19 -61q3 -11 -7 -20q-6 -3 -17 2l-177 125l179 125q9 6 15 3q10 -9 7 -19l-19 -63h127v134l-62 -19 q-10 -5 -20 7q-3 7 2 17l126 177l124 -178q6 -9 3 -16q-8 -10 -18 -7l-63 19v-134h127l-19 63q-3 11 6 19q7 3 16 -3z" />
<glyph d="M730 346l-179 -125q-9 -5 -16 -2q-10 8 -6 20l19 61h-127v-137l63 20q10 3 18 -6q4 -7 -3 -17l-124 -178l-126 178q-5 11 -2 17q9 11 20 6l62 -20v137h-127l19 -61q3 -11 -7 -20q-6 -3 -17 2l-177 125l179 125q9 6 15 3q10 -9 7 -19l-19 -63h127v134l-62 -19 q-10 -5 -20 7q-3 7 2 17l126 177l124 -178q6 -9 3 -16q-8 -10 -18 -7l-63 19v-134h127l-19 63q-3 11 6 19q7 3 16 -3z" />
</font>
</defs>
</svg>
