<?xml version="1.0" encoding="utf-8"?>
<!-- Generator: Adobe Illustrator 18.1.1, SVG Export Plug-In . SVG Version: 6.00 Build 0)  -->
<!DOCTYPE svg PUBLIC "-//W3C//DTD SVG 1.1//EN" "http://www.w3.org/Graphics/SVG/1.1/DTD/svg11.dtd">
<svg version="1.1" id="Layer_1" xmlns="http://www.w3.org/2000/svg" xmlns:xlink="http://www.w3.org/1999/xlink" x="0px" y="0px"
	 viewBox="0 0 900 566" enable-background="new 0 0 900 566" xml:space="preserve">
<rect fill="none" width="900" height="566"/>
<g>
	<path fill="#FFFFFF" d="M508.1,348.2c0,1.5-1.2,2.7-2.7,2.7H331c-1.5,0-2.7-1.2-2.7-2.7v-86.6c0-1.5,1.2-2.7,2.7-2.7h174.3
		c1.5,0,2.7,1.2,2.7,2.7V348.2z"/>
	<path fill="none" stroke="#1E7A85" stroke-width="0.9577" stroke-miterlimit="10" d="M508.1,348.2c0,1.5-1.2,2.7-2.7,2.7H331
		c-1.5,0-2.7-1.2-2.7-2.7v-86.6c0-1.5,1.2-2.7,2.7-2.7h174.3c1.5,0,2.7,1.2,2.7,2.7V348.2z"/>
</g>
<text transform="matrix(1 0 0 1 367.3208 300.1226)"><tspan x="0" y="0" fill="#1E7A85" font-family="'Helvetica'" font-size="21.1177">36’7 x 22’1</tspan><tspan x="-19.9" y="25.3" fill="#1E7A85" font-family="'Helvetica'" font-size="21.1177">(11.1m x 6.7m)</tspan></text>
<rect x="0.1" y="-0.1" fill="none" width="899.8" height="566.3"/>
</svg>
