<?xml version="1.0" encoding="utf-8"?>
<!-- Generator: Adobe Illustrator 18.1.1, SVG Export Plug-In . SVG Version: 6.00 Build 0)  -->
<!DOCTYPE svg PUBLIC "-//W3C//DTD SVG 1.1//EN" "http://www.w3.org/Graphics/SVG/1.1/DTD/svg11.dtd">
<svg version="1.1" id="Layer_1" xmlns="http://www.w3.org/2000/svg" xmlns:xlink="http://www.w3.org/1999/xlink" x="0px" y="0px"
	 viewBox="0 0 1920 1080" enable-background="new 0 0 1920 1080" xml:space="preserve">
<g>
	<g>
		<g>
			<path fill="#FFFFFF" d="M1070.7,664.4c0,2.8-2.3,5.2-5.2,5.2H733.1c-2.8,0-5.2-2.3-5.2-5.2V499.2c0-2.8,2.3-5.2,5.2-5.2h332.5
				c2.8,0,5.2,2.3,5.2,5.2V664.4z"/>
		</g>
		<g>
			<path fill="#1E7A85" d="M1065.6,670.5H733.1c-3.4,0-6.1-2.7-6.1-6.1V499.2c0-3.4,2.7-6.1,6.1-6.1h332.5c3.4,0,6.1,2.7,6.1,6.1
				v165.2C1071.7,667.8,1068.9,670.5,1065.6,670.5z M733.1,494.9c-2.4,0-4.3,1.9-4.3,4.3v165.2c0,2.4,1.9,4.3,4.3,4.3h332.5
				c2.4,0,4.3-1.9,4.3-4.3V499.2c0-2.4-1.9-4.3-4.3-4.3H733.1z"/>
		</g>
	</g>
	<g>
		<path fill="#1E7A85" d="M805.5,570.7c-1.5-1.8-2.3-4.1-2.3-6.7h3.7c0.2,1.8,0.5,3.1,1,4c0.9,1.5,2.6,2.2,5,2.2
			c1.9,0,3.4-0.5,4.5-1.5c1.1-1,1.7-2.3,1.7-3.9c0-1.9-0.6-3.3-1.8-4.1c-1.2-0.8-2.8-1.2-4.9-1.2c-0.2,0-0.5,0-0.7,0
			c-0.2,0-0.5,0-0.7,0v-3.1c0.4,0,0.7,0.1,0.9,0.1c0.2,0,0.5,0,0.8,0c1.3,0,2.4-0.2,3.3-0.6c1.5-0.7,2.2-2,2.2-3.9
			c0-1.4-0.5-2.5-1.5-3.2c-1-0.8-2.2-1.1-3.5-1.1c-2.4,0-4,0.8-4.9,2.4c-0.5,0.9-0.8,2.1-0.8,3.7H804c0-2.1,0.4-3.9,1.3-5.3
			c1.4-2.6,4-3.9,7.6-3.9c2.9,0,5.1,0.6,6.7,1.9s2.4,3.1,2.4,5.6c0,1.7-0.5,3.1-1.4,4.2c-0.6,0.7-1.3,1.2-2.2,1.6
			c1.5,0.4,2.6,1.2,3.5,2.3c0.8,1.2,1.2,2.6,1.2,4.3c0,2.7-0.9,4.9-2.7,6.6c-1.8,1.7-4.3,2.5-7.5,2.5
			C809.4,573.4,807,572.5,805.5,570.7z"/>
		<path fill="#1E7A85" d="M843.1,546.8c1.2,1.6,1.9,3.3,1.9,5h-3.5c-0.2-1.1-0.5-2-1-2.6c-0.9-1.2-2.1-1.8-3.9-1.8
			c-2,0-3.6,0.9-4.7,2.7s-1.8,4.4-1.9,7.9c0.8-1.2,1.8-2.1,3.1-2.7c1.1-0.5,2.4-0.8,3.8-0.8c2.4,0,4.4,0.8,6.2,2.3
			c1.8,1.5,2.6,3.8,2.6,6.7c0,2.6-0.8,4.8-2.5,6.8c-1.7,2-4,3-7.1,3c-2.6,0-4.9-1-6.8-3c-1.9-2-2.9-5.4-2.9-10.1
			c0-3.5,0.4-6.5,1.3-8.9c1.6-4.7,4.6-7,9-7C839.6,544.4,841.8,545.2,843.1,546.8z M840.4,568.4c0.9-1.3,1.4-2.7,1.4-4.4
			c0-1.4-0.4-2.8-1.2-4.1s-2.3-2-4.5-2c-1.5,0-2.9,0.5-4,1.5s-1.7,2.5-1.7,4.6c0,1.8,0.5,3.3,1.6,4.5c1,1.2,2.5,1.8,4.3,1.8
			C838.1,570.2,839.5,569.6,840.4,568.4z"/>
		<path fill="#1E7A85" d="M850.5,552.2c0.7-0.1,1.3-0.5,1.7-1.2c0.4-0.7,0.6-1.5,0.6-2.4c0-0.1,0-0.2,0-0.2c0-0.1,0-0.2,0-0.2h-2.2
			v-4.3h4.2v4c0,1.7-0.3,3.1-1,4.3c-0.7,1.2-1.8,1.8-3.2,2V552.2z"/>
		<path fill="#1E7A85" d="M877.1,545v3.1c-0.9,0.9-2.1,2.4-3.6,4.6c-1.5,2.2-2.8,4.5-4,7c-1.1,2.5-2,4.7-2.6,6.7
			c-0.4,1.3-0.9,3.4-1.5,6.3h-3.9c0.9-5.4,2.9-10.7,5.9-16c1.8-3.1,3.7-5.8,5.7-8.1h-15.6V545H877.1z"/>
		<path fill="#1E7A85" d="M890.2,551.6h4.6l4.8,7.4l4.9-7.4l4.3,0.1l-7.1,10.2l7.4,10.8h-4.5l-5.2-7.9l-5.1,7.9h-4.5l7.4-10.8
			L890.2,551.6z"/>
		<path fill="#1E7A85" d="M923.7,566.3c0.9-1.8,2.6-3.4,5.1-4.9l3.8-2.2c1.7-1,2.9-1.8,3.6-2.5c1.1-1.1,1.6-2.3,1.6-3.7
			c0-1.6-0.5-2.9-1.5-3.9s-2.3-1.4-3.9-1.4c-2.4,0-4.1,0.9-5,2.8c-0.5,1-0.8,2.4-0.8,4.1h-3.6c0-2.5,0.5-4.5,1.4-6
			c1.5-2.7,4.2-4.1,8.1-4.1c3.2,0,5.6,0.9,7.1,2.6c1.5,1.7,2.2,3.7,2.2,5.8c0,2.3-0.8,4.2-2.4,5.8c-0.9,0.9-2.6,2.1-4.9,3.4
			l-2.7,1.5c-1.3,0.7-2.3,1.4-3,2c-1.3,1.1-2.1,2.4-2.5,3.8h15.4v3.3h-19.3C922.4,570.2,922.9,568.1,923.7,566.3z"/>
		<path fill="#1E7A85" d="M946.1,566.3c0.9-1.8,2.6-3.4,5.1-4.9l3.8-2.2c1.7-1,2.9-1.8,3.6-2.5c1.1-1.1,1.6-2.3,1.6-3.7
			c0-1.6-0.5-2.9-1.5-3.9s-2.3-1.4-3.9-1.4c-2.4,0-4.1,0.9-5,2.8c-0.5,1-0.8,2.4-0.8,4.1h-3.6c0-2.5,0.5-4.5,1.4-6
			c1.5-2.7,4.2-4.1,8.1-4.1c3.2,0,5.6,0.9,7.1,2.6c1.5,1.7,2.2,3.7,2.2,5.8c0,2.3-0.8,4.2-2.4,5.8c-0.9,0.9-2.6,2.1-4.9,3.4
			l-2.7,1.5c-1.3,0.7-2.3,1.4-3,2c-1.3,1.1-2.1,2.4-2.5,3.8H964v3.3h-19.3C944.8,570.2,945.3,568.1,946.1,566.3z"/>
		<path fill="#1E7A85" d="M969.1,552.2c0.7-0.1,1.3-0.5,1.7-1.2c0.4-0.7,0.6-1.5,0.6-2.4c0-0.1,0-0.2,0-0.2c0-0.1,0-0.2,0-0.2h-2.2
			v-4.3h4.2v4c0,1.7-0.3,3.1-1,4.3c-0.7,1.2-1.8,1.8-3.2,2V552.2z"/>
		<path fill="#1E7A85" d="M978.6,552.7V550c2.6-0.2,4.3-0.7,5.3-1.2s1.8-2,2.3-4.1h2.8v28h-3.8v-19.9H978.6z"/>
		<path fill="#1E7A85" d="M777.7,591.6c-2.1,4-3.4,6.9-4,8.8c-0.9,2.9-1.4,6.2-1.4,10c0,3.8,0.5,7.3,1.6,10.4
			c0.7,1.9,1.9,4.7,3.9,8.4h-2.4c-1.9-3-3.1-4.9-3.6-5.7c-0.5-0.8-1-1.9-1.5-3.4c-0.7-1.9-1.2-4-1.5-6.2c-0.1-1.1-0.2-2.2-0.2-3.3
			c0-3.9,0.6-7.3,1.8-10.4c0.8-1.9,2.4-4.8,4.8-8.7H777.7z"/>
		<path fill="#1E7A85" d="M783.1,601v-2.7c2.6-0.2,4.3-0.7,5.3-1.2s1.8-2,2.3-4.1h2.8v28h-3.8V601H783.1z"/>
		<path fill="#1E7A85" d="M802.5,601v-2.7c2.6-0.2,4.3-0.7,5.3-1.2s1.8-2,2.3-4.1h2.8v28h-3.8V601H802.5z"/>
		<path fill="#1E7A85" d="M824.5,616.7h4.1v4.3h-4.1V616.7z"/>
		<path fill="#1E7A85" d="M836.1,601v-2.7c2.6-0.2,4.3-0.7,5.3-1.2s1.8-2,2.3-4.1h2.8v28h-3.8V601H836.1z"/>
		<path fill="#1E7A85" d="M857.2,599.9h3.5v3c0.8-1,1.6-1.8,2.3-2.3c1.2-0.8,2.5-1.2,4-1.2c1.7,0,3,0.4,4.1,1.2
			c0.6,0.5,1.1,1.2,1.6,2.1c0.8-1.1,1.7-2,2.8-2.5c1.1-0.5,2.3-0.8,3.6-0.8c2.8,0,4.8,1,5.8,3.1c0.6,1.1,0.8,2.6,0.8,4.4v14h-3.7
			v-14.6c0-1.4-0.4-2.4-1.1-2.9c-0.7-0.5-1.6-0.8-2.6-0.8c-1.4,0-2.6,0.5-3.6,1.4c-1,0.9-1.5,2.5-1.5,4.7V621h-3.6v-13.7
			c0-1.4-0.2-2.5-0.5-3.1c-0.5-1-1.5-1.5-3-1.5c-1.3,0-2.6,0.5-3.6,1.6c-1.1,1-1.6,2.9-1.6,5.6V621h-3.5V599.9z"/>
		<path fill="#1E7A85" d="M900,599.9h4.6l4.8,7.4l4.9-7.4l4.3,0.1l-7.1,10.2l7.4,10.8h-4.5l-5.2-7.9l-5.1,7.9h-4.5l7.4-10.8
			L900,599.9z"/>
		<path fill="#1E7A85" d="M949.1,595.2c1.2,1.6,1.9,3.3,1.9,5h-3.5c-0.2-1.1-0.5-2-1-2.6c-0.9-1.2-2.1-1.8-3.9-1.8
			c-2,0-3.6,0.9-4.7,2.7s-1.8,4.4-1.9,7.9c0.8-1.2,1.8-2.1,3.1-2.7c1.1-0.5,2.4-0.8,3.8-0.8c2.4,0,4.4,0.8,6.2,2.3
			c1.8,1.5,2.6,3.8,2.6,6.7c0,2.6-0.8,4.8-2.5,6.8c-1.7,2-4,3-7.1,3c-2.6,0-4.9-1-6.8-3c-1.9-2-2.9-5.4-2.9-10.1
			c0-3.5,0.4-6.5,1.3-8.9c1.6-4.7,4.6-7,9-7C945.6,592.7,947.8,593.5,949.1,595.2z M946.4,616.7c0.9-1.3,1.4-2.7,1.4-4.4
			c0-1.4-0.4-2.8-1.2-4.1s-2.3-2-4.5-2c-1.5,0-2.9,0.5-4,1.5s-1.7,2.5-1.7,4.6c0,1.8,0.5,3.3,1.6,4.5c1,1.2,2.5,1.8,4.3,1.8
			C944.1,618.6,945.5,617.9,946.4,616.7z"/>
		<path fill="#1E7A85" d="M956.5,616.7h4.1v4.3h-4.1V616.7z"/>
		<path fill="#1E7A85" d="M985.3,593.3v3.1c-0.9,0.9-2.1,2.4-3.6,4.6c-1.5,2.2-2.8,4.5-4,7c-1.1,2.5-2,4.7-2.6,6.7
			c-0.4,1.3-0.9,3.4-1.5,6.3h-3.9c0.9-5.4,2.9-10.7,5.9-16c1.8-3.1,3.7-5.8,5.7-8.1h-15.6v-3.6H985.3z"/>
		<path fill="#1E7A85" d="M989.3,599.9h3.5v3c0.8-1,1.6-1.8,2.3-2.3c1.2-0.8,2.5-1.2,4-1.2c1.7,0,3,0.4,4.1,1.2
			c0.6,0.5,1.1,1.2,1.6,2.1c0.8-1.1,1.7-2,2.8-2.5c1.1-0.5,2.3-0.8,3.6-0.8c2.8,0,4.8,1,5.8,3.1c0.6,1.1,0.8,2.6,0.8,4.4v14h-3.7
			v-14.6c0-1.4-0.4-2.4-1.1-2.9c-0.7-0.5-1.6-0.8-2.6-0.8c-1.4,0-2.6,0.5-3.6,1.4c-1,0.9-1.5,2.5-1.5,4.7V621h-3.6v-13.7
			c0-1.4-0.2-2.5-0.5-3.1c-0.5-1-1.5-1.5-3-1.5c-1.3,0-2.6,0.5-3.6,1.6c-1.1,1-1.6,2.9-1.6,5.6V621h-3.5V599.9z"/>
		<path fill="#1E7A85" d="M1021.6,629.2c2.1-4.1,3.4-7,4-8.9c0.9-2.8,1.4-6.1,1.4-9.9s-0.5-7.3-1.6-10.4c-0.7-1.9-1.9-4.7-3.9-8.4
			h2.4c2,3.2,3.2,5.2,3.7,6c0.4,0.8,0.9,1.8,1.4,3.1c0.6,1.6,1.1,3.3,1.3,4.9s0.4,3.1,0.4,4.6c0,3.9-0.6,7.3-1.8,10.4
			c-0.8,2-2.4,4.8-4.8,8.6H1021.6z"/>
	</g>
</g>
</svg>
