<?xml version="1.0" encoding="utf-8"?>
<!-- Generator: Adobe Illustrator 18.1.1, SVG Export Plug-In . SVG Version: 6.00 Build 0)  -->
<!DOCTYPE svg PUBLIC "-//W3C//DTD SVG 1.1//EN" "http://www.w3.org/Graphics/SVG/1.1/DTD/svg11.dtd">
<svg version="1.1" id="Layer_1" xmlns="http://www.w3.org/2000/svg" xmlns:xlink="http://www.w3.org/1999/xlink" x="0px" y="0px"
	 viewBox="0 0 1920 1080" enable-background="new 0 0 1920 1080" xml:space="preserve">
<g>
	<g>
		<g>
			<g>
				<path fill="#1E7A85" d="M1549.6,894.7h-50.8v61h50.8V894.7z M1505.1,949.6v-48.8h31.8v48.8H1505.1z"/>
			</g>
		</g>
	</g>
	<g>
		<path fill="#1E7A85" d="M1491.6,964.7h-79.1v-79.1h79.1V964.7z M1414.2,962.9h75.5v-75.5h-75.5V962.9z"/>
	</g>
	<g>
		<g>
			<g>
				<path fill="#1E7A85" d="M1549.6,768.4h-50.8v61h50.8V768.4z M1505.1,823.3v-48.8h31.8v48.8H1505.1z"/>
			</g>
		</g>
	</g>
	<g>
		<path fill="#1E7A85" d="M1491.6,838.5h-79.1v-79.1h79.1V838.5z M1414.2,836.7h75.5v-75.5h-75.5V836.7z"/>
	</g>
	<g>
		<g>
			<g>
				<path fill="#1E7A85" d="M1549.6,642.2h-50.8v61h50.8V642.2z M1505.1,697.1v-48.8h31.8v48.8H1505.1z"/>
			</g>
		</g>
	</g>
	<g>
		<path fill="#1E7A85" d="M1491.6,712.3h-79.1v-79.1h79.1V712.3z M1414.2,710.4h75.5V635h-75.5V710.4z"/>
	</g>
	<g>
		<g>
			<g>
				<path fill="#1E7A85" d="M1549.6,516h-50.8v61h50.8V516z M1505.1,570.9v-48.8h31.8v48.8H1505.1z"/>
			</g>
		</g>
	</g>
	<g>
		<path fill="#1E7A85" d="M1491.6,586h-79.1v-79.1h79.1V586z M1414.2,584.2h75.5v-75.5h-75.5V584.2z"/>
	</g>
	<g>
		<g>
			<g>
				<path fill="#1E7A85" d="M1549.6,389.7h-50.8v61h50.8V389.7z M1505.1,444.6v-48.8h31.8v48.8H1505.1z"/>
			</g>
		</g>
	</g>
	<g>
		<path fill="#1E7A85" d="M1491.6,459.8h-79.1v-79.1h79.1V459.8z M1414.2,458h75.5v-75.5h-75.5V458z"/>
	</g>
	<g>
		<g>
			<g>
				<path fill="#1E7A85" d="M1549.6,263.5h-50.8v61h50.8V263.5z M1505.1,318.4v-48.8h31.8v48.8H1505.1z"/>
			</g>
		</g>
	</g>
	<g>
		<path fill="#1E7A85" d="M1491.6,333.6h-79.1v-79.1h79.1V333.6z M1414.2,331.7h75.5v-75.5h-75.5V331.7z"/>
	</g>
	<g>
		<g>
			<g>
				<path fill="#1E7A85" d="M1235.9,894.7h-50.8v61h50.8V894.7z M1191.4,949.6v-48.8h31.8v48.8H1191.4z"/>
			</g>
		</g>
	</g>
	<g>
		<path fill="#1E7A85" d="M1177.8,964.7h-79.1v-79.1h79.1V964.7z M1100.5,962.9h75.5v-75.5h-75.5V962.9z"/>
	</g>
	<g>
		<g>
			<g>
				<path fill="#1E7A85" d="M1235.9,768.4h-50.8v61h50.8V768.4z M1191.4,823.3v-48.8h31.8v48.8H1191.4z"/>
			</g>
		</g>
	</g>
	<g>
		<path fill="#1E7A85" d="M1177.8,838.5h-79.1v-79.1h79.1V838.5z M1100.5,836.7h75.5v-75.5h-75.5V836.7z"/>
	</g>
	<g>
		<g>
			<g>
				<path fill="#1E7A85" d="M1235.9,642.2h-50.8v61h50.8V642.2z M1191.4,697.1v-48.8h31.8v48.8H1191.4z"/>
			</g>
		</g>
	</g>
	<g>
		<path fill="#1E7A85" d="M1177.8,712.3h-79.1v-79.1h79.1V712.3z M1100.5,710.4h75.5V635h-75.5V710.4z"/>
	</g>
	<g>
		<g>
			<g>
				<path fill="#1E7A85" d="M1235.9,516h-50.8v61h50.8V516z M1191.4,570.9v-48.8h31.8v48.8H1191.4z"/>
			</g>
		</g>
	</g>
	<g>
		<path fill="#1E7A85" d="M1177.8,586h-79.1v-79.1h79.1V586z M1100.5,584.2h75.5v-75.5h-75.5V584.2z"/>
	</g>
	<g>
		<g>
			<g>
				<path fill="#1E7A85" d="M1235.9,389.7h-50.8v61h50.8V389.7z M1191.4,444.6v-48.8h31.8v48.8H1191.4z"/>
			</g>
		</g>
	</g>
	<g>
		<path fill="#1E7A85" d="M1177.8,459.8h-79.1v-79.1h79.1V459.8z M1100.5,458h75.5v-75.5h-75.5V458z"/>
	</g>
	<g>
		<g>
			<g>
				<path fill="#1E7A85" d="M1235.9,263.5h-50.8v61h50.8V263.5z M1191.4,318.4v-48.8h31.8v48.8H1191.4z"/>
			</g>
		</g>
	</g>
	<g>
		<path fill="#1E7A85" d="M1177.8,333.6h-79.1v-79.1h79.1V333.6z M1100.5,331.7h75.5v-75.5h-75.5V331.7z"/>
	</g>
	<g>
		<g>
			<g>
				<path fill="#1E7A85" d="M922.2,894.7h-50.8v61h50.8V894.7z M877.7,949.6v-48.8h31.8v48.8H877.7z"/>
			</g>
		</g>
	</g>
	<g>
		<path fill="#1E7A85" d="M864.1,964.7H785v-79.1h79.1V964.7z M786.8,962.9h75.5v-75.5h-75.5V962.9z"/>
	</g>
	<g>
		<g>
			<g>
				<path fill="#1E7A85" d="M922.2,768.4h-50.8v61h50.8V768.4z M877.7,823.3v-48.8h31.8v48.8H877.7z"/>
			</g>
		</g>
	</g>
	<g>
		<path fill="#1E7A85" d="M864.1,838.5H785v-79.1h79.1V838.5z M786.8,836.7h75.5v-75.5h-75.5V836.7z"/>
	</g>
	<g>
		<g>
			<g>
				<path fill="#1E7A85" d="M922.2,642.2h-50.8v61h50.8V642.2z M877.7,697.1v-48.8h31.8v48.8H877.7z"/>
			</g>
		</g>
	</g>
	<g>
		<path fill="#1E7A85" d="M864.1,712.3H785v-79.1h79.1V712.3z M786.8,710.4h75.5V635h-75.5V710.4z"/>
	</g>
	<g>
		<g>
			<g>
				<path fill="#1E7A85" d="M922.2,516h-50.8v61h50.8V516z M877.7,570.9v-48.8h31.8v48.8H877.7z"/>
			</g>
		</g>
	</g>
	<g>
		<path fill="#1E7A85" d="M864.1,586H785v-79.1h79.1V586z M786.8,584.2h75.5v-75.5h-75.5V584.2z"/>
	</g>
	<g>
		<g>
			<g>
				<path fill="#1E7A85" d="M922.2,389.7h-50.8v61h50.8V389.7z M877.7,444.6v-48.8h31.8v48.8H877.7z"/>
			</g>
		</g>
	</g>
	<g>
		<path fill="#1E7A85" d="M864.1,459.8H785v-79.1h79.1V459.8z M786.8,458h75.5v-75.5h-75.5V458z"/>
	</g>
	<g>
		<g>
			<g>
				<path fill="#1E7A85" d="M922.2,263.5h-50.8v61h50.8V263.5z M877.7,318.4v-48.8h31.8v48.8H877.7z"/>
			</g>
		</g>
	</g>
	<g>
		<path fill="#1E7A85" d="M864.1,333.6H785v-79.1h79.1V333.6z M786.8,331.7h75.5v-75.5h-75.5V331.7z"/>
	</g>
	<g>
		<path fill="#1E7A85" d="M287.5,687.8h-79.1V506.9h79.1V687.8z M210.2,686h75.5V508.7h-75.5V686z"/>
	</g>
	<g>
		<g>
			<g>
				<path fill="#1E7A85" d="M608.5,894.7h-50.8v61h50.8V894.7z M564,949.6v-48.8h31.8v48.8H564z"/>
			</g>
		</g>
	</g>
	<g>
		<path fill="#1E7A85" d="M550.4,964.7h-79.1v-79.1h79.1V964.7z M473.1,962.9h75.5v-75.5h-75.5V962.9z"/>
	</g>
	<g>
		<g>
			<g>
				<path fill="#1E7A85" d="M608.5,768.4h-50.8v61h50.8V768.4z M564,823.3v-48.8h31.8v48.8H564z"/>
			</g>
		</g>
	</g>
	<g>
		<path fill="#1E7A85" d="M550.4,838.5h-79.1v-79.1h79.1V838.5z M473.1,836.7h75.5v-75.5h-75.5V836.7z"/>
	</g>
	<g>
		<g>
			<g>
				<path fill="#1E7A85" d="M608.5,642.2h-50.8v61h50.8V642.2z M564,697.1v-48.8h31.8v48.8H564z"/>
			</g>
		</g>
	</g>
	<g>
		<path fill="#1E7A85" d="M550.4,712.3h-79.1v-79.1h79.1V712.3z M473.1,710.4h75.5V635h-75.5V710.4z"/>
	</g>
	<g>
		<g>
			<g>
				<path fill="#1E7A85" d="M608.5,516h-50.8v61h50.8V516z M564,570.9v-48.8h31.8v48.8H564z"/>
			</g>
		</g>
	</g>
	<g>
		<path fill="#1E7A85" d="M550.4,586h-79.1v-79.1h79.1V586z M473.1,584.2h75.5v-75.5h-75.5V584.2z"/>
	</g>
	<g>
		<g>
			<g>
				<path fill="#1E7A85" d="M608.5,389.7h-50.8v61h50.8V389.7z M564,444.6v-48.8h31.8v48.8H564z"/>
			</g>
		</g>
	</g>
	<g>
		<path fill="#1E7A85" d="M550.4,459.8h-79.1v-79.1h79.1V459.8z M473.1,458h75.5v-75.5h-75.5V458z"/>
	</g>
	<g>
		<g>
			<g>
				<path fill="#1E7A85" d="M608.5,263.5h-50.8v61h50.8V263.5z M564,318.4v-48.8h31.8v48.8H564z"/>
			</g>
		</g>
	</g>
	<g>
		<path fill="#1E7A85" d="M550.4,333.6h-79.1v-79.1h79.1V333.6z M473.1,331.7h75.5v-75.5h-75.5V331.7z"/>
	</g>
</g>
</svg>
