<?xml version="1.0" encoding="utf-8"?>
<!-- Generator: Adobe Illustrator 18.1.1, SVG Export Plug-In . SVG Version: 6.00 Build 0)  -->
<!DOCTYPE svg PUBLIC "-//W3C//DTD SVG 1.1//EN" "http://www.w3.org/Graphics/SVG/1.1/DTD/svg11.dtd">
<svg version="1.1" id="Layer_1" xmlns="http://www.w3.org/2000/svg" xmlns:xlink="http://www.w3.org/1999/xlink" x="0px" y="0px"
	 viewBox="0 0 900 566" enable-background="new 0 0 900 566" xml:space="preserve">
<rect fill="none" width="900" height="566"/>
<g>
	<polygon fill="#FFFFFF" stroke="#1E7A85" stroke-width="0.9577" stroke-miterlimit="10" points="373.8,82.9 373.8,132.6 
		425.1,132.6 425.1,82.9 406.8,82.9 406.8,75.2 412.9,75.2 399.5,58.6 386.1,75.2 392.2,75.2 392.2,82.9 	"/>
	<rect x="395.7" y="94.5" fill="#1E7A85" width="7.6" height="14"/>
	<rect x="386.7" y="115.3" fill="#1E7A85" width="8.9" height="6.1"/>
	<rect x="403.3" y="115.3" fill="#1E7A85" width="8.9" height="6.1"/>
</g>
<g>
	<polygon fill="#FFFFFF" stroke="#1E7A85" stroke-width="0.9577" stroke-miterlimit="10" points="814,204.8 764.3,204.8 
		764.3,256.1 814,256.1 814,237.8 821.7,237.8 821.7,243.9 838.3,230.4 821.7,217 821.7,223.1 814,223.1 	"/>
	<rect x="788.4" y="226.6" fill="#1E7A85" width="14" height="7.7"/>
	<rect x="775.5" y="217.7" fill="#1E7A85" width="6.1" height="8.9"/>
	<rect x="775.5" y="234.3" fill="#1E7A85" width="6.1" height="8.9"/>
</g>
<g>
	<polygon fill="#FFFFFF" stroke="#1E7A85" stroke-width="0.9577" stroke-miterlimit="10" points="814,350.2 764.3,350.2 
		764.3,401.5 814,401.5 814,383.2 821.7,383.2 821.7,389.3 838.3,375.9 821.7,362.4 821.7,368.5 814,368.5 	"/>
	<rect x="788.4" y="372.1" fill="#1E7A85" width="14" height="7.7"/>
	<rect x="775.5" y="363.1" fill="#1E7A85" width="6.1" height="8.9"/>
	<rect x="775.5" y="379.7" fill="#1E7A85" width="6.1" height="8.9"/>
</g>
<g>
	<polygon fill="#FFFFFF" stroke="#1E7A85" stroke-width="0.9577" stroke-miterlimit="10" points="425.1,523.4 425.1,473.7 
		373.8,473.7 373.8,523.4 392.2,523.4 392.2,531.1 386.1,531.1 399.5,547.7 412.9,531.1 406.8,531.1 406.8,523.4 	"/>
	<rect x="395.7" y="497.8" fill="#1E7A85" width="7.7" height="14"/>
	<rect x="403.3" y="484.8" fill="#1E7A85" width="8.9" height="6.1"/>
	<rect x="386.7" y="484.8" fill="#1E7A85" width="8.9" height="6.1"/>
</g>
<g>
	<polygon fill="#FFFFFF" stroke="#1E7A85" stroke-width="0.9577" stroke-miterlimit="10" points="43.5,435.1 93.2,435.1 93.2,383.8 
		43.5,383.8 43.5,402.1 35.8,402.1 35.8,396 19.2,409.5 35.8,422.9 35.8,416.8 43.5,416.8 	"/>
	<rect x="55.1" y="405.6" fill="#1E7A85" width="14" height="7.7"/>
	<rect x="75.9" y="413.3" fill="#1E7A85" width="6.1" height="8.9"/>
	<rect x="75.9" y="396.7" fill="#1E7A85" width="6.1" height="8.9"/>
</g>
<rect x="0.1" y="-0.1" fill="none" width="899.8" height="566.3"/>
</svg>
