<?xml version="1.0" encoding="utf-8"?>
<!-- Generator: Adobe Illustrator 18.1.1, SVG Export Plug-In . SVG Version: 6.00 Build 0)  -->
<!DOCTYPE svg PUBLIC "-//W3C//DTD SVG 1.1//EN" "http://www.w3.org/Graphics/SVG/1.1/DTD/svg11.dtd">
<svg version="1.1" id="Layer_1" xmlns="http://www.w3.org/2000/svg" xmlns:xlink="http://www.w3.org/1999/xlink" x="0px" y="0px"
	 viewBox="0 0 900 566" enable-background="new 0 0 900 566" xml:space="preserve">
<rect fill="none" width="900" height="566"/>
<rect x="17.2" y="209.6" fill="#1E7A85" width="6" height="189.1"/>
<rect x="259.3" y="543.1" fill="#1E7A85" width="317" height="6"/>
<path fill="#221F1F" d="M222.5,310.9v4.4c0,1,0.8,1.8,1.8,1.8h16.8c1,0,1.8-0.8,1.8-1.8v-23c0-1-0.8-1.8-1.8-1.8h-16.8
	c-1,0-1.8,0.8-1.8,1.8v4.9h-1.8v13.7H222.5z M237.7,297.2h0.7v13.7h-0.7V297.2z M241.2,310.9h-0.9v-13.7h0.9V310.9z M236.4,292.3
	h3.3v3.3h-3.3V292.3z M235,297.2h0.9v13.7H235V297.2z"/>
<path fill="#221F1F" d="M424.8,154.6h4.4c1,0,1.8-0.8,1.8-1.8V136c0-1-0.8-1.8-1.8-1.8h-23c-1,0-1.8,0.8-1.8,1.8v16.8
	c0,1,0.8,1.8,1.8,1.8h4.9v1.8h13.7V154.6z M411.1,139.5v-0.7h13.7v0.7H411.1z M424.8,136v0.9h-13.7V136H424.8z M406.3,140.8v-3.3
	h3.3v3.3H406.3z M411.1,142.2v-0.9h13.7v0.9H411.1z"/>
</svg>
