<?xml version="1.0" encoding="utf-8"?>
<!-- Generator: Adobe Illustrator 18.1.1, SVG Export Plug-In . SVG Version: 6.00 Build 0)  -->
<!DOCTYPE svg PUBLIC "-//W3C//DTD SVG 1.1//EN" "http://www.w3.org/Graphics/SVG/1.1/DTD/svg11.dtd">
<svg version="1.1" id="Layer_1" xmlns="http://www.w3.org/2000/svg" xmlns:xlink="http://www.w3.org/1999/xlink" x="0px" y="0px"
	 viewBox="0 0 881 600" enable-background="new 0 0 881 600" xml:space="preserve">
<rect fill="none" width="881" height="600"/>
<g>
	<g>
		<path fill="#1E7A85" d="M142.8,236.9v16.7h20v-16.7H142.8z M160.8,251.5h-16v-10.4h16V251.5z"/>
	</g>
</g>
<g>
	<g>
		<path fill="#1E7A85" d="M167.8,236.9v16.7h20v-16.7H167.8z M185.9,251.5h-16v-10.4h16V251.5z"/>
	</g>
</g>
<g>
	<g>
		<path fill="#1E7A85" d="M192.9,236.9v16.7h20v-16.7H192.9z M210.9,251.5h-16v-10.4h16V251.5z"/>
	</g>
</g>
<g>
	<g>
		<path fill="#1E7A85" d="M217.9,236.9v16.7h20v-16.7H217.9z M235.9,251.5h-16v-10.4h16V251.5z"/>
	</g>
</g>
<g>
	<g>
		<path fill="#1E7A85" d="M242.9,236.9v16.7h20v-16.7H242.9z M261,251.5h-16v-10.4h16V251.5z"/>
	</g>
</g>
<g>
	<g>
		<path fill="#1E7A85" d="M268,236.9v16.7h20v-16.7H268z M286,251.5h-16v-10.4h16V251.5z"/>
	</g>
</g>
<g>
	<g>
		<path fill="#1E7A85" d="M293,236.9v16.7h20v-16.7H293z M311,251.5h-16v-10.4h16V251.5z"/>
	</g>
</g>
<g>
	<g>
		<path fill="#1E7A85" d="M318,236.9v16.7h20v-16.7H318z M336.1,251.5h-16v-10.4h16V251.5z"/>
	</g>
</g>
<g>
	<g>
		<path fill="#1E7A85" d="M343.1,236.9v16.7h20v-16.7H343.1z M361.1,251.5h-16v-10.4h16V251.5z"/>
	</g>
</g>
<g>
	<g>
		<path fill="#1E7A85" d="M368.1,236.9v16.7h20v-16.7H368.1z M386.1,251.5h-16v-10.4h16V251.5z"/>
	</g>
</g>
<g>
	<g>
		<path fill="#1E7A85" d="M393.1,236.9v16.7h20v-16.7H393.1z M411.2,251.5h-16v-10.4h16V251.5z"/>
	</g>
</g>
<g>
	<g>
		<path fill="#1E7A85" d="M418.2,236.9v16.7h20v-16.7H418.2z M436.2,251.5h-16v-10.4h16V251.5z"/>
	</g>
</g>
<g>
	<g>
		<path fill="#1E7A85" d="M443.2,236.9v16.7h20v-16.7H443.2z M461.2,251.5h-16v-10.4h16V251.5z"/>
	</g>
</g>
<g>
	<g>
		<path fill="#1E7A85" d="M468.2,236.9v16.7h20v-16.7H468.2z M486.3,251.5h-16v-10.4h16V251.5z"/>
	</g>
</g>
<g>
	<g>
		<path fill="#1E7A85" d="M493.3,236.9v16.7h20v-16.7H493.3z M511.3,251.5h-16v-10.4h16V251.5z"/>
	</g>
</g>
<g>
	<g>
		<path fill="#1E7A85" d="M518.3,236.9v16.7h20v-16.7H518.3z M536.3,251.5h-16v-10.4h16V251.5z"/>
	</g>
</g>
<g>
	<g>
		<path fill="#1E7A85" d="M543.3,236.9v16.7h20v-16.7H543.3z M561.4,251.5h-16v-10.4h16V251.5z"/>
	</g>
</g>
<g>
	<g>
		<path fill="#1E7A85" d="M563.4,385.4v-16.7h-20v16.7H563.4z M545.3,370.8h16v10.4h-16V370.8z"/>
	</g>
</g>
<g>
	<g>
		<path fill="#1E7A85" d="M538.3,385.4v-16.7h-20v16.7H538.3z M520.3,370.8h16v10.4h-16V370.8z"/>
	</g>
</g>
<g>
	<g>
		<path fill="#1E7A85" d="M513.3,385.4v-16.7h-20v16.7H513.3z M495.3,370.8h16v10.4h-16V370.8z"/>
	</g>
</g>
<g>
	<g>
		<path fill="#1E7A85" d="M488.3,385.4v-16.7h-20v16.7H488.3z M470.2,370.8h16v10.4h-16V370.8z"/>
	</g>
</g>
<g>
	<g>
		<path fill="#1E7A85" d="M463.2,385.4v-16.7h-20v16.7H463.2z M445.2,370.8h16v10.4h-16V370.8z"/>
	</g>
</g>
<g>
	<g>
		<path fill="#1E7A85" d="M438.2,385.4v-16.7h-20v16.7H438.2z M420.2,370.8h16v10.4h-16V370.8z"/>
	</g>
</g>
<g>
	<g>
		<path fill="#1E7A85" d="M413.2,385.4v-16.7h-20v16.7H413.2z M395.1,370.8h16v10.4h-16V370.8z"/>
	</g>
</g>
<g>
	<g>
		<path fill="#1E7A85" d="M388.1,385.4v-16.7h-20v16.7H388.1z M370.1,370.8h16v10.4h-16V370.8z"/>
	</g>
</g>
<g>
	<g>
		<path fill="#1E7A85" d="M363.1,385.4v-16.7h-20v16.7H363.1z M345.1,370.8h16v10.4h-16V370.8z"/>
	</g>
</g>
<g>
	<g>
		<path fill="#1E7A85" d="M338.1,385.4v-16.7h-20v16.7H338.1z M320,370.8h16v10.4h-16V370.8z"/>
	</g>
</g>
<g>
	<g>
		<path fill="#1E7A85" d="M313,385.4v-16.7h-20v16.7H313z M295,370.8h16v10.4h-16V370.8z"/>
	</g>
</g>
<g>
	<g>
		<path fill="#1E7A85" d="M288,385.4v-16.7h-20v16.7H288z M270,370.8h16v10.4h-16V370.8z"/>
	</g>
</g>
<g>
	<g>
		<path fill="#1E7A85" d="M263,385.4v-16.7h-20v16.7H263z M244.9,370.8h16v10.4h-16V370.8z"/>
	</g>
</g>
<g>
	<g>
		<path fill="#1E7A85" d="M237.9,385.4v-16.7h-20v16.7H237.9z M219.9,370.8h16v10.4h-16V370.8z"/>
	</g>
</g>
<g>
	<g>
		<path fill="#1E7A85" d="M212.9,385.4v-16.7h-20v16.7H212.9z M194.9,370.8h16v10.4h-16V370.8z"/>
	</g>
</g>
<g>
	<g>
		<path fill="#1E7A85" d="M187.9,385.4v-16.7h-20v16.7H187.9z M169.8,370.8h16v10.4h-16V370.8z"/>
	</g>
</g>
<g>
	<g>
		<path fill="#1E7A85" d="M162.8,385.4v-16.7h-20v16.7H162.8z M144.8,370.8h16v10.4h-16V370.8z"/>
	</g>
</g>
<rect x="353" y="256" fill="#FFFFFF" stroke="#1E7A85" stroke-width="0.8571" stroke-miterlimit="10" width="59.3" height="36.5"/>
<rect x="234.5" y="256" fill="#FFFFFF" stroke="#1E7A85" stroke-width="0.8571" stroke-miterlimit="10" width="59.3" height="36.5"/>
<rect x="293.7" y="256" fill="#FFFFFF" stroke="#1E7A85" stroke-width="0.8571" stroke-miterlimit="10" width="59.3" height="36.5"/>
<rect x="471.6" y="256" fill="#FFFFFF" stroke="#1E7A85" stroke-width="0.8571" stroke-miterlimit="10" width="59.3" height="36.5"/>
<rect x="412.3" y="256" fill="#FFFFFF" stroke="#1E7A85" stroke-width="0.8571" stroke-miterlimit="10" width="59.3" height="36.5"/>
<rect x="175.2" y="256" fill="none" stroke="#1E7A85" stroke-width="0.8571" stroke-miterlimit="10" width="59.3" height="36.5"/>
<rect x="530.9" y="256" fill="none" stroke="#1E7A85" stroke-width="0.8571" stroke-miterlimit="10" width="36.5" height="109.4"/>
<rect x="138.7" y="256" fill="none" stroke="#1E7A85" stroke-width="0.8571" stroke-miterlimit="10" width="36.5" height="109.4"/>
<rect x="353" y="292.5" fill="#FFFFFF" stroke="#1E7A85" stroke-width="0.8571" stroke-miterlimit="10" width="59.3" height="36.5"/>
<rect x="234.5" y="292.5" fill="none" stroke="#1E7A85" stroke-width="0.8571" stroke-miterlimit="10" width="59.3" height="36.5"/>
<rect x="293.7" y="292.5" fill="#FFFFFF" stroke="#1E7A85" stroke-width="0.8571" stroke-miterlimit="10" width="59.3" height="36.5"/>
<rect x="471.6" y="292.5" fill="#FFFFFF" stroke="#1E7A85" stroke-width="0.8571" stroke-miterlimit="10" width="59.3" height="36.5"/>
<rect x="412.3" y="292.5" fill="#FFFFFF" stroke="#1E7A85" stroke-width="0.8571" stroke-miterlimit="10" width="59.3" height="36.5"/>
<rect x="175.2" y="292.5" fill="none" stroke="#1E7A85" stroke-width="0.8571" stroke-miterlimit="10" width="59.3" height="36.5"/>
<rect x="353" y="329" fill="#FFFFFF" stroke="#1E7A85" stroke-width="0.8571" stroke-miterlimit="10" width="59.3" height="36.5"/>
<rect x="234.5" y="329" fill="#FFFFFF" stroke="#1E7A85" stroke-width="0.8571" stroke-miterlimit="10" width="59.3" height="36.5"/>
<rect x="293.7" y="329" fill="#FFFFFF" stroke="#1E7A85" stroke-width="0.8571" stroke-miterlimit="10" width="59.3" height="36.5"/>
<rect x="471.6" y="329" fill="#FFFFFF" stroke="#1E7A85" stroke-width="0.8571" stroke-miterlimit="10" width="59.3" height="36.5"/>
<rect x="412.3" y="329" fill="#FFFFFF" stroke="#1E7A85" stroke-width="0.8571" stroke-miterlimit="10" width="59.3" height="36.5"/>
<rect x="175.2" y="329" fill="none" stroke="#1E7A85" stroke-width="0.8571" stroke-miterlimit="10" width="59.3" height="36.5"/>
<g>
	<g>
		<path fill="#1E7A85" d="M118.4,334.2h16.7v-20h-16.7V334.2z M133,316.2v16h-10.4v-16H133z"/>
	</g>
</g>
<g>
	<g>
		<path fill="#1E7A85" d="M118.4,361.3h16.7v-20h-16.7V361.3z M133,343.3v16h-10.4v-16H133z"/>
	</g>
</g>
<g>
	<g>
		<path fill="#1E7A85" d="M118.4,307h16.7v-20h-16.7V307z M133,289v16h-10.4v-16H133z"/>
	</g>
</g>
<g>
	<g>
		<path fill="#1E7A85" d="M118.4,279.9h16.7v-20h-16.7V279.9z M133,261.9v16h-10.4v-16H133z"/>
	</g>
</g>
<g>
	<g>
		<path fill="#1E7A85" d="M586.5,259.9h-16.7v20h16.7V259.9z M571.9,277.9v-16h10.4v16H571.9z"/>
	</g>
</g>
<g>
	<g>
		<path fill="#1E7A85" d="M586.5,287h-16.7v20h16.7V287z M571.9,305v-16h10.4v16H571.9z"/>
	</g>
</g>
<g>
	<g>
		<path fill="#1E7A85" d="M586.5,314.2h-16.7v20h16.7V314.2z M571.9,332.2v-16h10.4v16H571.9z"/>
	</g>
</g>
<g>
	<g>
		<path fill="#1E7A85" d="M586.5,341.3h-16.7v20h16.7V341.3z M571.9,359.3v-16h10.4v16H571.9z"/>
	</g>
</g>
</svg>
