<?xml version="1.0" encoding="utf-8"?>
<!-- Generator: Adobe Illustrator 18.1.1, SVG Export Plug-In . SVG Version: 6.00 Build 0)  -->
<!DOCTYPE svg PUBLIC "-//W3C//DTD SVG 1.1//EN" "http://www.w3.org/Graphics/SVG/1.1/DTD/svg11.dtd">
<svg version="1.1" id="Layer_1" xmlns="http://www.w3.org/2000/svg" xmlns:xlink="http://www.w3.org/1999/xlink" x="0px" y="0px"
	 viewBox="0 0 881 600" enable-background="new 0 0 881 600" xml:space="preserve">
<rect fill="none" width="881" height="600"/>
<g>
	
		<rect x="493.1" y="273.7" fill="none" stroke="#1E7A85" stroke-width="0.8571" stroke-miterlimit="10" width="28.2" height="72.5"/>
	<g>
		<g>
			<path fill="#1E7A85" d="M473.2,342.7h15v-18h-15V342.7z M486.4,326.5v14.4H477v-14.4H486.4z"/>
		</g>
	</g>
	<g>
		<g>
			<path fill="#1E7A85" d="M473.2,295.9h15v-18h-15V295.9z M486.3,279.7v14.4H477v-14.4H486.3z"/>
		</g>
	</g>
	<g>
		<g>
			<path fill="#1E7A85" d="M473.2,319h15v-18h-15V319z M486.3,302.7v14.4H477v-14.4H486.3z"/>
		</g>
	</g>
	<g>
		<g>
			<path fill="#1E7A85" d="M516.3,365.4v-15h-18v15H516.3z M500.1,352.2h14.4v9.4h-14.4V352.2z"/>
		</g>
	</g>
	<g>
		<g>
			<path fill="#1E7A85" d="M498.3,254.3v15h18v-15H498.3z M514.5,267.4h-14.4V258h14.4V267.4z"/>
		</g>
	</g>
</g>
<g>
	
		<rect x="511.3" y="135.2" transform="matrix(0.9587 0.2843 -0.2843 0.9587 70.4397 -142.3178)" fill="none" stroke="#1E7A85" stroke-width="0.8571" stroke-miterlimit="10" width="28.2" height="72.5"/>
	<g>
		<g>
			<path fill="#1E7A85" d="M483.5,193.2l14.4,4.3l5.1-17.3l-14.4-4.3L483.5,193.2z M500.7,181.4l-4.1,13.8l-9-2.7l4.1-13.8
				L500.7,181.4z"/>
		</g>
	</g>
	<g>
		<g>
			<path fill="#1E7A85" d="M496.8,148.3l14.4,4.3l5.1-17.3l-14.4-4.3L496.8,148.3z M514,136.5l-4.1,13.8l-9-2.7l4.1-13.8L514,136.5z
				"/>
		</g>
	</g>
	<g>
		<g>
			<path fill="#1E7A85" d="M490.2,170.4l14.4,4.3l5.1-17.3l-14.4-4.3L490.2,170.4z M507.4,158.6l-4.1,13.8l-9-2.7l4.1-13.8
				L507.4,158.6z"/>
		</g>
	</g>
	<g>
		<g>
			<path fill="#1E7A85" d="M518.3,227.1l4.3-14.4l-17.3-5.1L501,222L518.3,227.1z M506.5,209.9l13.8,4.1l-2.7,9l-13.8-4.1
				L506.5,209.9z"/>
		</g>
	</g>
	<g>
		<g>
			<path fill="#1E7A85" d="M532.6,115.5l-4.3,14.4l17.3,5.1l4.3-14.4L532.6,115.5z M544.4,132.7l-13.8-4.1l2.7-9l13.8,4.1
				L544.4,132.7z"/>
		</g>
	</g>
</g>
<g>
	
		<rect x="423.4" y="135.2" transform="matrix(0.9587 0.2843 -0.2843 0.9587 66.8109 -117.319)" fill="none" stroke="#1E7A85" stroke-width="0.8571" stroke-miterlimit="10" width="28.2" height="72.5"/>
	<g>
		<g>
			<path fill="#1E7A85" d="M395.5,193.2l14.4,4.3l5.1-17.3l-14.4-4.3L395.5,193.2z M412.7,181.4l-4.1,13.8l-9-2.7l4.1-13.8
				L412.7,181.4z"/>
		</g>
	</g>
	<g>
		<g>
			<path fill="#1E7A85" d="M408.8,148.3l14.4,4.3l5.1-17.3L414,131L408.8,148.3z M426,136.5l-4.1,13.8l-9-2.7l4.1-13.8L426,136.5z"
				/>
		</g>
	</g>
	<g>
		<g>
			<path fill="#1E7A85" d="M402.3,170.4l14.4,4.3l5.1-17.3l-14.4-4.3L402.3,170.4z M419.5,158.6l-4.1,13.8l-9-2.7l4.1-13.8
				L419.5,158.6z"/>
		</g>
	</g>
	<g>
		<g>
			<path fill="#1E7A85" d="M430.4,227.1l4.3-14.4l-17.3-5.1l-4.3,14.4L430.4,227.1z M418.6,209.9l13.8,4.1l-2.7,9l-13.8-4.1
				L418.6,209.9z"/>
		</g>
	</g>
	<g>
		<g>
			<path fill="#1E7A85" d="M444.7,115.5l-4.3,14.4l17.3,5.1l4.3-14.4L444.7,115.5z M456.5,132.7l-13.8-4.1l2.7-9l13.8,4.1
				L456.5,132.7z"/>
		</g>
	</g>
</g>
<g>
	
		<rect x="335.4" y="135.2" transform="matrix(0.9587 0.2843 -0.2843 0.9587 63.1816 -92.3193)" fill="none" stroke="#1E7A85" stroke-width="0.8571" stroke-miterlimit="10" width="28.2" height="72.5"/>
	<g>
		<g>
			<path fill="#1E7A85" d="M307.6,193.2l14.4,4.3l5.1-17.3l-14.4-4.3L307.6,193.2z M324.8,181.4l-4.1,13.8l-9-2.7l4.1-13.8
				L324.8,181.4z"/>
		</g>
	</g>
	<g>
		<g>
			<path fill="#1E7A85" d="M320.9,148.3l14.4,4.3l5.1-17.3L326,131L320.9,148.3z M338.1,136.5l-4.1,13.8l-9-2.7l4.1-13.8
				L338.1,136.5z"/>
		</g>
	</g>
	<g>
		<g>
			<path fill="#1E7A85" d="M314.4,170.4l14.4,4.3l5.1-17.3l-14.4-4.3L314.4,170.4z M331.6,158.6l-4.1,13.8l-9-2.7l4.1-13.8
				L331.6,158.6z"/>
		</g>
	</g>
	<g>
		<g>
			<path fill="#1E7A85" d="M342.5,227.1l4.3-14.4l-17.3-5.1l-4.3,14.4L342.5,227.1z M330.6,209.9l13.8,4.1l-2.7,9l-13.8-4.1
				L330.6,209.9z"/>
		</g>
	</g>
	<g>
		<g>
			<path fill="#1E7A85" d="M356.8,115.5l-4.3,14.4l17.3,5.1l4.3-14.4L356.8,115.5z M368.6,132.7l-13.8-4.1l2.7-9l13.8,4.1
				L368.6,132.7z"/>
		</g>
	</g>
</g>
<g>
	
		<rect x="247.5" y="135.2" transform="matrix(0.9587 0.2843 -0.2843 0.9587 59.5525 -67.3201)" fill="none" stroke="#1E7A85" stroke-width="0.8571" stroke-miterlimit="10" width="28.2" height="72.5"/>
	<g>
		<g>
			<path fill="#1E7A85" d="M219.7,193.2l14.4,4.3l5.1-17.3l-14.4-4.3L219.7,193.2z M236.9,181.4l-4.1,13.8l-9-2.7l4.1-13.8
				L236.9,181.4z"/>
		</g>
	</g>
	<g>
		<g>
			<path fill="#1E7A85" d="M233,148.3l14.4,4.3l5.1-17.3l-14.4-4.3L233,148.3z M250.2,136.5l-4.1,13.8l-9-2.7l4.1-13.8L250.2,136.5z
				"/>
		</g>
	</g>
	<g>
		<g>
			<path fill="#1E7A85" d="M226.4,170.4l14.4,4.3l5.1-17.3l-14.4-4.3L226.4,170.4z M243.6,158.6l-4.1,13.8l-9-2.7l4.1-13.8
				L243.6,158.6z"/>
		</g>
	</g>
	<g>
		<g>
			<path fill="#1E7A85" d="M254.5,227.1l4.3-14.4l-17.3-5.1l-4.3,14.4L254.5,227.1z M242.7,209.9l13.8,4.1l-2.7,9l-13.8-4.1
				L242.7,209.9z"/>
		</g>
	</g>
	<g>
		<g>
			<path fill="#1E7A85" d="M268.8,115.5l-4.3,14.4l17.3,5.1l4.3-14.4L268.8,115.5z M280.7,132.7l-13.8-4.1l2.7-9l13.8,4.1
				L280.7,132.7z"/>
		</g>
	</g>
</g>
<g>
	
		<rect x="159.6" y="135.2" transform="matrix(0.9587 0.2843 -0.2843 0.9587 55.9216 -42.32)" fill="none" stroke="#1E7A85" stroke-width="0.8571" stroke-miterlimit="10" width="28.2" height="72.5"/>
	<g>
		<g>
			<path fill="#1E7A85" d="M131.8,193.2l14.4,4.3l5.1-17.3l-14.4-4.3L131.8,193.2z M149,181.4l-4.1,13.8l-9-2.7l4.1-13.8L149,181.4z
				"/>
		</g>
	</g>
	<g>
		<g>
			<path fill="#1E7A85" d="M145.1,148.3l14.4,4.3l5.1-17.3l-14.4-4.3L145.1,148.3z M162.3,136.5l-4.1,13.8l-9-2.7l4.1-13.8
				L162.3,136.5z"/>
		</g>
	</g>
	<g>
		<g>
			<path fill="#1E7A85" d="M138.5,170.4l14.4,4.3l5.1-17.3l-14.4-4.3L138.5,170.4z M155.7,158.6l-4.1,13.8l-9-2.7l4.1-13.8
				L155.7,158.6z"/>
		</g>
	</g>
	<g>
		<g>
			<path fill="#1E7A85" d="M166.6,227.1l4.3-14.4l-17.3-5.1l-4.3,14.4L166.6,227.1z M154.8,209.9l13.8,4.1l-2.7,9l-13.8-4.1
				L154.8,209.9z"/>
		</g>
	</g>
	<g>
		<g>
			<path fill="#1E7A85" d="M180.9,115.5l-4.3,14.4l17.3,5.1l4.3-14.4L180.9,115.5z M192.7,132.7l-13.8-4.1l2.7-9l13.8,4.1
				L192.7,132.7z"/>
		</g>
	</g>
</g>
<g>
	
		<rect x="511.3" y="412.2" transform="matrix(0.9587 -0.2843 0.2843 0.9587 -105.8257 167.9058)" fill="none" stroke="#1E7A85" stroke-width="0.8571" stroke-miterlimit="10" width="28.2" height="72.5"/>
	<g>
		<g>
			<path fill="#1E7A85" d="M488.6,444l14.4-4.3l-5.1-17.3l-14.4,4.3L488.6,444z M491.7,441.2l-4.1-13.8l9-2.7l4.1,13.8L491.7,441.2z
				"/>
		</g>
	</g>
	<g>
		<g>
			<path fill="#1E7A85" d="M501.9,488.9l14.4-4.3l-5.1-17.3l-14.4,4.3L501.9,488.9z M505,486.1l-4.1-13.8l9-2.7l4.1,13.8L505,486.1z
				"/>
		</g>
	</g>
	<g>
		<g>
			<path fill="#1E7A85" d="M495.3,466.8l14.4-4.3l-5.1-17.3l-14.4,4.3L495.3,466.8z M498.4,464l-4.1-13.8l9-2.7l4.1,13.8L498.4,464z
				"/>
		</g>
	</g>
	<g>
		<g>
			<path fill="#1E7A85" d="M501,397.9l4.3,14.4l17.3-5.1l-4.3-14.4L501,397.9z M503.8,401l13.8-4.1l2.7,9l-13.8,4.1L503.8,401z"/>
		</g>
	</g>
	<g>
		<g>
			<path fill="#1E7A85" d="M549.9,499.3l-4.3-14.4l-17.3,5.1l4.3,14.4L549.9,499.3z M547.1,496.2l-13.8,4.1l-2.7-9l13.8-4.1
				L547.1,496.2z"/>
		</g>
	</g>
</g>
<g>
	
		<rect x="423.4" y="412.2" transform="matrix(0.9587 -0.2843 0.2843 0.9587 -109.455 142.9071)" fill="none" stroke="#1E7A85" stroke-width="0.8571" stroke-miterlimit="10" width="28.2" height="72.5"/>
	<g>
		<g>
			<path fill="#1E7A85" d="M400.7,444l14.4-4.3l-5.1-17.3l-14.4,4.3L400.7,444z M403.7,441.2l-4.1-13.8l9-2.7l4.1,13.8L403.7,441.2z
				"/>
		</g>
	</g>
	<g>
		<g>
			<path fill="#1E7A85" d="M414,488.9l14.4-4.3l-5.1-17.3l-14.4,4.3L414,488.9z M417,486.1l-4.1-13.8l9-2.7l4.1,13.8L417,486.1z"/>
		</g>
	</g>
	<g>
		<g>
			<path fill="#1E7A85" d="M407.4,466.8l14.4-4.3l-5.1-17.3l-14.4,4.3L407.4,466.8z M410.5,464l-4.1-13.8l9-2.7l4.1,13.8L410.5,464z
				"/>
		</g>
	</g>
	<g>
		<g>
			<path fill="#1E7A85" d="M413.1,397.9l4.3,14.4l17.3-5.1l-4.3-14.4L413.1,397.9z M415.9,401l13.8-4.1l2.7,9l-13.8,4.1L415.9,401z"
				/>
		</g>
	</g>
	<g>
		<g>
			<path fill="#1E7A85" d="M462,499.3l-4.3-14.4l-17.3,5.1l4.3,14.4L462,499.3z M459.2,496.2l-13.8,4.1l-2.7-9l13.8-4.1L459.2,496.2
				z"/>
		</g>
	</g>
</g>
<g>
	
		<rect x="335.4" y="412.2" transform="matrix(0.9587 -0.2843 0.2843 0.9587 -113.0838 117.9073)" fill="none" stroke="#1E7A85" stroke-width="0.8571" stroke-miterlimit="10" width="28.2" height="72.5"/>
	<g>
		<g>
			<path fill="#1E7A85" d="M312.7,444l14.4-4.3l-5.1-17.3l-14.4,4.3L312.7,444z M315.8,441.2l-4.1-13.8l9-2.7l4.1,13.8L315.8,441.2z
				"/>
		</g>
	</g>
	<g>
		<g>
			<path fill="#1E7A85" d="M326,488.9l14.4-4.3l-5.1-17.3l-14.4,4.3L326,488.9z M329.1,486.1l-4.1-13.8l9-2.7l4.1,13.8L329.1,486.1z
				"/>
		</g>
	</g>
	<g>
		<g>
			<path fill="#1E7A85" d="M319.5,466.8l14.4-4.3l-5.1-17.3l-14.4,4.3L319.5,466.8z M322.6,464l-4.1-13.8l9-2.7l4.1,13.8L322.6,464z
				"/>
		</g>
	</g>
	<g>
		<g>
			<path fill="#1E7A85" d="M325.2,397.9l4.3,14.4l17.3-5.1l-4.3-14.4L325.2,397.9z M328,401l13.8-4.1l2.7,9l-13.8,4.1L328,401z"/>
		</g>
	</g>
	<g>
		<g>
			<path fill="#1E7A85" d="M374,499.3l-4.3-14.4l-17.3,5.1l4.3,14.4L374,499.3z M371.2,496.2l-13.8,4.1l-2.7-9l13.8-4.1L371.2,496.2
				z"/>
		</g>
	</g>
</g>
<g>
	
		<rect x="247.5" y="412.2" transform="matrix(0.9587 -0.2843 0.2843 0.9587 -116.7129 92.9081)" fill="none" stroke="#1E7A85" stroke-width="0.8571" stroke-miterlimit="10" width="28.2" height="72.5"/>
	<g>
		<g>
			<path fill="#1E7A85" d="M224.8,444l14.4-4.3l-5.1-17.3l-14.4,4.3L224.8,444z M227.9,441.2l-4.1-13.8l9-2.7l4.1,13.8L227.9,441.2z
				"/>
		</g>
	</g>
	<g>
		<g>
			<path fill="#1E7A85" d="M238.1,488.9l14.4-4.3l-5.1-17.3l-14.4,4.3L238.1,488.9z M241.2,486.1l-4.1-13.8l9-2.7l4.1,13.8
				L241.2,486.1z"/>
		</g>
	</g>
	<g>
		<g>
			<path fill="#1E7A85" d="M231.6,466.8l14.4-4.3l-5.1-17.3l-14.4,4.3L231.6,466.8z M234.6,464l-4.1-13.8l9-2.7l4.1,13.8L234.6,464z
				"/>
		</g>
	</g>
	<g>
		<g>
			<path fill="#1E7A85" d="M237.3,397.9l4.3,14.4l17.3-5.1l-4.3-14.4L237.3,397.9z M240.1,401l13.8-4.1l2.7,9l-13.8,4.1L240.1,401z"
				/>
		</g>
	</g>
	<g>
		<g>
			<path fill="#1E7A85" d="M286.1,499.3l-4.3-14.4l-17.3,5.1l4.3,14.4L286.1,499.3z M283.3,496.2l-13.8,4.1l-2.7-9l13.8-4.1
				L283.3,496.2z"/>
		</g>
	</g>
</g>
<g>
	
		<rect x="159.6" y="412.2" transform="matrix(0.9587 -0.2843 0.2843 0.9587 -120.3387 67.9064)" fill="none" stroke="#1E7A85" stroke-width="0.8571" stroke-miterlimit="10" width="28.2" height="72.5"/>
	<g>
		<g>
			<path fill="#1E7A85" d="M136.9,444l14.4-4.3l-5.1-17.3l-14.4,4.3L136.9,444z M140,441.2l-4.1-13.8l9-2.7l4.1,13.8L140,441.2z"/>
		</g>
	</g>
	<g>
		<g>
			<path fill="#1E7A85" d="M150.2,488.9l14.4-4.3l-5.1-17.3l-14.4,4.3L150.2,488.9z M153.3,486.1l-4.1-13.8l9-2.7l4.1,13.8
				L153.3,486.1z"/>
		</g>
	</g>
	<g>
		<g>
			<path fill="#1E7A85" d="M143.6,466.8l14.4-4.3l-5.1-17.3l-14.4,4.3L143.6,466.8z M146.7,464l-4.1-13.8l9-2.7l4.1,13.8L146.7,464z
				"/>
		</g>
	</g>
	<g>
		<g>
			<path fill="#1E7A85" d="M149.3,397.9l4.3,14.4l17.3-5.1l-4.3-14.4L149.3,397.9z M152.1,401l13.8-4.1l2.7,9l-13.8,4.1L152.1,401z"
				/>
		</g>
	</g>
	<g>
		<g>
			<path fill="#1E7A85" d="M198.2,499.3l-4.3-14.4l-17.3,5.1l4.3,14.4L198.2,499.3z M195.4,496.2l-13.8,4.1l-2.7-9l13.8-4.1
				L195.4,496.2z"/>
		</g>
	</g>
</g>
<g>
	
		<rect x="407.8" y="273.7" fill="none" stroke="#1E7A85" stroke-width="0.8571" stroke-miterlimit="10" width="28.2" height="72.5"/>
	<g>
		<g>
			<path fill="#1E7A85" d="M387.9,342.7h15v-18h-15V342.7z M401,326.5v14.4h-9.4v-14.4H401z"/>
		</g>
	</g>
	<g>
		<g>
			<path fill="#1E7A85" d="M387.8,295.9h15v-18h-15V295.9z M401,279.7v14.4h-9.4v-14.4H401z"/>
		</g>
	</g>
	<g>
		<g>
			<path fill="#1E7A85" d="M387.8,319h15v-18h-15V319z M401,302.7v14.4h-9.4v-14.4H401z"/>
		</g>
	</g>
	<g>
		<g>
			<path fill="#1E7A85" d="M430.9,365.4v-15h-18v15H430.9z M414.7,352.2h14.4v9.4h-14.4V352.2z"/>
		</g>
	</g>
	<g>
		<g>
			<path fill="#1E7A85" d="M412.9,254.3v15h18v-15H412.9z M429.1,267.4h-14.4V258h14.4V267.4z"/>
		</g>
	</g>
</g>
<g>
	
		<rect x="322.4" y="273.7" fill="none" stroke="#1E7A85" stroke-width="0.8571" stroke-miterlimit="10" width="28.2" height="72.5"/>
	<g>
		<g>
			<path fill="#1E7A85" d="M302.5,342.7h15v-18h-15V342.7z M315.7,326.5v14.4h-9.4v-14.4H315.7z"/>
		</g>
	</g>
	<g>
		<g>
			<path fill="#1E7A85" d="M302.5,295.9h15v-18h-15V295.9z M315.6,279.7v14.4h-9.4v-14.4H315.6z"/>
		</g>
	</g>
	<g>
		<g>
			<path fill="#1E7A85" d="M302.5,319h15v-18h-15V319z M315.6,302.7v14.4h-9.4v-14.4H315.6z"/>
		</g>
	</g>
	<g>
		<g>
			<path fill="#1E7A85" d="M345.6,365.4v-15h-18v15H345.6z M329.3,352.2h14.4v9.4h-14.4V352.2z"/>
		</g>
	</g>
	<g>
		<g>
			<path fill="#1E7A85" d="M327.5,254.3v15h18v-15H327.5z M343.8,267.4h-14.4V258h14.4V267.4z"/>
		</g>
	</g>
</g>
<g>
	
		<rect x="237.1" y="273.7" fill="none" stroke="#1E7A85" stroke-width="0.8571" stroke-miterlimit="10" width="28.2" height="72.5"/>
	<g>
		<g>
			<path fill="#1E7A85" d="M217.2,342.7h15v-18h-15V342.7z M230.3,326.5v14.4h-9.4v-14.4H230.3z"/>
		</g>
	</g>
	<g>
		<g>
			<path fill="#1E7A85" d="M217.1,295.9h15v-18h-15V295.9z M230.3,279.7v14.4h-9.4v-14.4H230.3z"/>
		</g>
	</g>
	<g>
		<g>
			<path fill="#1E7A85" d="M217.1,319h15v-18h-15V319z M230.3,302.7v14.4h-9.4v-14.4H230.3z"/>
		</g>
	</g>
	<g>
		<g>
			<path fill="#1E7A85" d="M260.2,365.4v-15h-18v15H260.2z M244,352.2h14.4v9.4H244V352.2z"/>
		</g>
	</g>
	<g>
		<g>
			<path fill="#1E7A85" d="M242.2,254.3v15h18v-15H242.2z M258.4,267.4H244V258h14.4V267.4z"/>
		</g>
	</g>
</g>
<g>
	
		<rect x="151.7" y="273.7" fill="none" stroke="#1E7A85" stroke-width="0.8571" stroke-miterlimit="10" width="28.3" height="72.5"/>
	<g>
		<g>
			<path fill="#1E7A85" d="M131.8,342.7h15v-18h-15V342.7z M144.9,326.5v14.4h-9.4v-14.4H144.9z"/>
		</g>
	</g>
	<g>
		<g>
			<path fill="#1E7A85" d="M131.8,295.9h15v-18h-15V295.9z M144.9,279.7v14.4h-9.4v-14.4H144.9z"/>
		</g>
	</g>
	<g>
		<g>
			<path fill="#1E7A85" d="M131.8,319h15v-18h-15V319z M144.9,302.7v14.4h-9.4v-14.4H144.9z"/>
		</g>
	</g>
	<g>
		<g>
			<path fill="#1E7A85" d="M174.8,365.4v-15h-18v15H174.8z M158.6,352.2H173v9.4h-14.4V352.2z"/>
		</g>
	</g>
	<g>
		<g>
			<path fill="#1E7A85" d="M156.8,254.3v15h18v-15H156.8z M173,267.4h-14.4V258H173V267.4z"/>
		</g>
	</g>
</g>
<rect x="220.9" y="302.7" fill="#FFFFFF" width="9.4" height="14.4"/>
</svg>
