<?xml version="1.0" encoding="utf-8"?>
<!-- Generator: Adobe Illustrator 18.1.1, SVG Export Plug-In . SVG Version: 6.00 Build 0)  -->
<!DOCTYPE svg PUBLIC "-//W3C//DTD SVG 1.1//EN" "http://www.w3.org/Graphics/SVG/1.1/DTD/svg11.dtd">
<svg version="1.1" id="Layer_1" xmlns="http://www.w3.org/2000/svg" xmlns:xlink="http://www.w3.org/1999/xlink" x="0px" y="0px"
	 viewBox="0 0 881 600" enable-background="new 0 0 881 600" xml:space="preserve">
<rect fill="none" width="881" height="600"/>
<g>
	<path fill="#FFFFFF" d="M453.9,345.9c0,1.3-1.1,2.4-2.4,2.4H270.7c-1.3,0-2.4-1.1-2.4-2.4v-84.1c0-1.3,1.1-2.4,2.4-2.4h180.8
		c1.3,0,2.4,1.1,2.4,2.4V345.9z"/>
	<path fill="none" stroke="#1E7A85" stroke-width="0.8571" stroke-miterlimit="10" d="M453.9,345.9c0,1.3-1.1,2.4-2.4,2.4H270.7
		c-1.3,0-2.4-1.1-2.4-2.4v-84.1c0-1.3,1.1-2.4,2.4-2.4h180.8c1.3,0,2.4,1.1,2.4,2.4V345.9z"/>
</g>
<text transform="matrix(1 0 0 1 316.574 299.2676)"><tspan x="0" y="0" fill="#1E7A85" font-family="'Helvetica'" font-size="20.4002">51’ x 45’5</tspan><tspan x="-30.6" y="24.5" fill="#1E7A85" font-family="'Helvetica'" font-size="20.4002">(15.5m x 13.8m)</tspan></text>
</svg>
