<?xml version="1.0" encoding="utf-8"?>
<!-- Generator: Adobe Illustrator 18.1.1, SVG Export Plug-In . SVG Version: 6.00 Build 0)  -->
<!DOCTYPE svg PUBLIC "-//W3C//DTD SVG 1.1//EN" "http://www.w3.org/Graphics/SVG/1.1/DTD/svg11.dtd">
<svg version="1.1" id="Layer_1" xmlns="http://www.w3.org/2000/svg" xmlns:xlink="http://www.w3.org/1999/xlink" x="0px" y="0px"
	 viewBox="0 0 881 600" enable-background="new 0 0 881 600" xml:space="preserve">
<rect fill="none" width="881" height="600"/>
<rect x="311.8" y="150.8" fill="#FFFFFF" stroke="#1E7A85" stroke-width="0.8571" stroke-miterlimit="10" width="61.5" height="36.5"/>
<rect x="188.8" y="150.8" fill="#FFFFFF" stroke="#1E7A85" stroke-width="0.8571" stroke-miterlimit="10" width="61.5" height="36.5"/>
<rect x="250.3" y="150.8" fill="#FFFFFF" stroke="#1E7A85" stroke-width="0.8571" stroke-miterlimit="10" width="61.5" height="36.5"/>
<rect x="434.8" y="150.8" fill="#FFFFFF" stroke="#1E7A85" stroke-width="0.8571" stroke-miterlimit="10" width="61.5" height="36.5"/>
<rect x="373.3" y="150.8" fill="#FFFFFF" stroke="#1E7A85" stroke-width="0.8571" stroke-miterlimit="10" width="61.5" height="36.5"/>
<rect x="127.3" y="150.8" fill="none" stroke="#1E7A85" stroke-width="0.8571" stroke-miterlimit="10" width="61.5" height="36.5"/>
<rect x="312.3" y="289.2" fill="#FFFFFF" stroke="#1E7A85" stroke-width="0.8571" stroke-miterlimit="10" width="61.7" height="36.5"/>
<rect x="189" y="289.2" fill="#FFFFFF" stroke="#1E7A85" stroke-width="0.8571" stroke-miterlimit="10" width="61.7" height="36.5"/>
<rect x="250.6" y="289.2" fill="#FFFFFF" stroke="#1E7A85" stroke-width="0.8571" stroke-miterlimit="10" width="61.7" height="36.5"/>
<rect x="435.6" y="289.2" fill="#FFFFFF" stroke="#1E7A85" stroke-width="0.8571" stroke-miterlimit="10" width="61.7" height="36.5"/>
<rect x="373.9" y="289.2" fill="#FFFFFF" stroke="#1E7A85" stroke-width="0.8571" stroke-miterlimit="10" width="61.7" height="36.5"/>
<rect x="127.3" y="289.2" fill="none" stroke="#1E7A85" stroke-width="0.8571" stroke-miterlimit="10" width="61.7" height="36.5"/>
<rect x="312.3" y="430.6" fill="#FFFFFF" stroke="#1E7A85" stroke-width="0.8571" stroke-miterlimit="10" width="61.7" height="36.5"/>
<rect x="189" y="430.6" fill="#FFFFFF" stroke="#1E7A85" stroke-width="0.8571" stroke-miterlimit="10" width="61.7" height="36.5"/>
<rect x="250.6" y="430.6" fill="#FFFFFF" stroke="#1E7A85" stroke-width="0.8571" stroke-miterlimit="10" width="61.7" height="36.5"/>
<rect x="435.6" y="430.6" fill="#FFFFFF" stroke="#1E7A85" stroke-width="0.8571" stroke-miterlimit="10" width="61.7" height="36.5"/>
<rect x="373.9" y="430.6" fill="#FFFFFF" stroke="#1E7A85" stroke-width="0.8571" stroke-miterlimit="10" width="61.7" height="36.5"/>
<rect x="127.3" y="430.6" fill="none" stroke="#1E7A85" stroke-width="0.8571" stroke-miterlimit="10" width="61.7" height="36.5"/>
<g>
	<g>
		<path fill="#1E7A85" d="M127.3,130v16.7h20V130H127.3z M145.3,144.6h-16v-10.4h16V144.6z"/>
	</g>
</g>
<g>
	<g>
		<path fill="#1E7A85" d="M150.6,130v16.7h20V130H150.6z M168.6,144.6h-16v-10.4h16V144.6z"/>
	</g>
</g>
<g>
	<g>
		<path fill="#1E7A85" d="M173.8,130v16.7h20V130H173.8z M191.9,144.6h-16v-10.4h16V144.6z"/>
	</g>
</g>
<g>
	<g>
		<path fill="#1E7A85" d="M197.1,130v16.7h20V130H197.1z M215.1,144.6h-16v-10.4h16V144.6z"/>
	</g>
</g>
<g>
	<g>
		<path fill="#1E7A85" d="M220.4,130v16.7h20V130H220.4z M238.4,144.6h-16v-10.4h16V144.6z"/>
	</g>
</g>
<g>
	<g>
		<path fill="#1E7A85" d="M243.6,130v16.7h20V130H243.6z M261.6,144.6h-16v-10.4h16V144.6z"/>
	</g>
</g>
<g>
	<g>
		<path fill="#1E7A85" d="M266.9,130v16.7h20V130H266.9z M284.9,144.6h-16v-10.4h16V144.6z"/>
	</g>
</g>
<g>
	<g>
		<path fill="#1E7A85" d="M290.1,130v16.7h20V130H290.1z M308.2,144.6h-16v-10.4h16V144.6z"/>
	</g>
</g>
<g>
	<g>
		<path fill="#1E7A85" d="M313.4,130v16.7h20V130H313.4z M331.4,144.6h-16v-10.4h16V144.6z"/>
	</g>
</g>
<g>
	<g>
		<path fill="#1E7A85" d="M336.7,130v16.7h20V130H336.7z M354.7,144.6h-16v-10.4h16V144.6z"/>
	</g>
</g>
<g>
	<g>
		<path fill="#1E7A85" d="M359.9,130v16.7h20V130H359.9z M377.9,144.6h-16v-10.4h16V144.6z"/>
	</g>
</g>
<g>
	<g>
		<path fill="#1E7A85" d="M383.2,130v16.7h20V130H383.2z M401.2,144.6h-16v-10.4h16V144.6z"/>
	</g>
</g>
<g>
	<g>
		<path fill="#1E7A85" d="M406.4,130v16.7h20V130H406.4z M424.5,144.6h-16v-10.4h16V144.6z"/>
	</g>
</g>
<g>
	<g>
		<path fill="#1E7A85" d="M429.7,130v16.7h20V130H429.7z M447.7,144.6h-16v-10.4h16V144.6z"/>
	</g>
</g>
<g>
	<g>
		<path fill="#1E7A85" d="M453,130v16.7h20V130H453z M471,144.6h-16v-10.4h16V144.6z"/>
	</g>
</g>
<g>
	<g>
		<path fill="#1E7A85" d="M476.2,130v16.7h20V130H476.2z M494.2,144.6h-16v-10.4h16V144.6z"/>
	</g>
</g>
<g>
	<g>
		<path fill="#1E7A85" d="M496.2,208.1v-16.7h-20v16.7H496.2z M478.2,193.6h16V204h-16V193.6z"/>
	</g>
</g>
<g>
	<g>
		<path fill="#1E7A85" d="M473,208.1v-16.7h-20v16.7H473z M455,193.6h16V204h-16V193.6z"/>
	</g>
</g>
<g>
	<g>
		<path fill="#1E7A85" d="M449.7,208.1v-16.7h-20v16.7H449.7z M431.7,193.6h16V204h-16V193.6z"/>
	</g>
</g>
<g>
	<g>
		<path fill="#1E7A85" d="M426.5,208.1v-16.7h-20v16.7H426.5z M408.4,193.6h16V204h-16V193.6z"/>
	</g>
</g>
<g>
	<g>
		<path fill="#1E7A85" d="M403.2,208.1v-16.7h-20v16.7H403.2z M385.2,193.6h16V204h-16V193.6z"/>
	</g>
</g>
<g>
	<g>
		<path fill="#1E7A85" d="M379.9,208.1v-16.7h-20v16.7H379.9z M361.9,193.6h16V204h-16V193.6z"/>
	</g>
</g>
<g>
	<g>
		<path fill="#1E7A85" d="M356.7,208.1v-16.7h-20v16.7H356.7z M338.7,193.6h16V204h-16V193.6z"/>
	</g>
</g>
<g>
	<g>
		<path fill="#1E7A85" d="M333.4,208.1v-16.7h-20v16.7H333.4z M315.4,193.6h16V204h-16V193.6z"/>
	</g>
</g>
<g>
	<g>
		<path fill="#1E7A85" d="M310.2,208.1v-16.7h-20v16.7H310.2z M292.1,193.6h16V204h-16V193.6z"/>
	</g>
</g>
<g>
	<g>
		<path fill="#1E7A85" d="M286.9,208.1v-16.7h-20v16.7H286.9z M268.9,193.6h16V204h-16V193.6z"/>
	</g>
</g>
<g>
	<g>
		<path fill="#1E7A85" d="M263.6,208.1v-16.7h-20v16.7H263.6z M245.6,193.6h16V204h-16V193.6z"/>
	</g>
</g>
<g>
	<g>
		<path fill="#1E7A85" d="M240.4,208.1v-16.7h-20v16.7H240.4z M222.4,193.6h16V204h-16V193.6z"/>
	</g>
</g>
<g>
	<g>
		<path fill="#1E7A85" d="M217.1,208.1v-16.7h-20v16.7H217.1z M199.1,193.6h16V204h-16V193.6z"/>
	</g>
</g>
<g>
	<g>
		<path fill="#1E7A85" d="M193.9,208.1v-16.7h-20v16.7H193.9z M175.8,193.6h16V204h-16V193.6z"/>
	</g>
</g>
<g>
	<g>
		<path fill="#1E7A85" d="M170.6,208.1v-16.7h-20v16.7H170.6z M152.6,193.6h16V204h-16V193.6z"/>
	</g>
</g>
<g>
	<g>
		<path fill="#1E7A85" d="M147.3,208.1v-16.7h-20v16.7H147.3z M129.3,193.6h16V204h-16V193.6z"/>
	</g>
</g>
<g>
	<g>
		<path fill="#1E7A85" d="M127.3,268.3V285h20v-16.7H127.3z M145.3,282.9h-16v-10.4h16V282.9z"/>
	</g>
</g>
<g>
	<g>
		<path fill="#1E7A85" d="M150.6,268.3V285h20v-16.7H150.6z M168.6,282.9h-16v-10.4h16V282.9z"/>
	</g>
</g>
<g>
	<g>
		<path fill="#1E7A85" d="M173.8,268.3V285h20v-16.7H173.8z M191.9,282.9h-16v-10.4h16V282.9z"/>
	</g>
</g>
<g>
	<g>
		<path fill="#1E7A85" d="M197.1,268.3V285h20v-16.7H197.1z M215.1,282.9h-16v-10.4h16V282.9z"/>
	</g>
</g>
<g>
	<g>
		<path fill="#1E7A85" d="M220.4,268.3V285h20v-16.7H220.4z M238.4,282.9h-16v-10.4h16V282.9z"/>
	</g>
</g>
<g>
	<g>
		<path fill="#1E7A85" d="M243.6,268.3V285h20v-16.7H243.6z M261.6,282.9h-16v-10.4h16V282.9z"/>
	</g>
</g>
<g>
	<g>
		<path fill="#1E7A85" d="M266.9,268.3V285h20v-16.7H266.9z M284.9,282.9h-16v-10.4h16V282.9z"/>
	</g>
</g>
<g>
	<g>
		<path fill="#1E7A85" d="M290.1,268.3V285h20v-16.7H290.1z M308.2,282.9h-16v-10.4h16V282.9z"/>
	</g>
</g>
<g>
	<g>
		<path fill="#1E7A85" d="M313.4,268.3V285h20v-16.7H313.4z M331.4,282.9h-16v-10.4h16V282.9z"/>
	</g>
</g>
<g>
	<g>
		<path fill="#1E7A85" d="M336.7,268.3V285h20v-16.7H336.7z M354.7,282.9h-16v-10.4h16V282.9z"/>
	</g>
</g>
<g>
	<g>
		<path fill="#1E7A85" d="M359.9,268.3V285h20v-16.7H359.9z M377.9,282.9h-16v-10.4h16V282.9z"/>
	</g>
</g>
<g>
	<g>
		<path fill="#1E7A85" d="M383.2,268.3V285h20v-16.7H383.2z M401.2,282.9h-16v-10.4h16V282.9z"/>
	</g>
</g>
<g>
	<g>
		<path fill="#1E7A85" d="M406.4,268.3V285h20v-16.7H406.4z M424.5,282.9h-16v-10.4h16V282.9z"/>
	</g>
</g>
<g>
	<g>
		<path fill="#1E7A85" d="M429.7,268.3V285h20v-16.7H429.7z M447.7,282.9h-16v-10.4h16V282.9z"/>
	</g>
</g>
<g>
	<g>
		<path fill="#1E7A85" d="M453,268.3V285h20v-16.7H453z M471,282.9h-16v-10.4h16V282.9z"/>
	</g>
</g>
<g>
	<g>
		<path fill="#1E7A85" d="M476.2,268.3V285h20v-16.7H476.2z M494.2,282.9h-16v-10.4h16V282.9z"/>
	</g>
</g>
<g>
	<g>
		<path fill="#1E7A85" d="M496.2,346.5v-16.7h-20v16.7H496.2z M478.2,331.9h16v10.4h-16V331.9z"/>
	</g>
</g>
<g>
	<g>
		<path fill="#1E7A85" d="M473,346.5v-16.7h-20v16.7H473z M455,331.9h16v10.4h-16V331.9z"/>
	</g>
</g>
<g>
	<g>
		<path fill="#1E7A85" d="M449.7,346.5v-16.7h-20v16.7H449.7z M431.7,331.9h16v10.4h-16V331.9z"/>
	</g>
</g>
<g>
	<g>
		<path fill="#1E7A85" d="M426.5,346.5v-16.7h-20v16.7H426.5z M408.4,331.9h16v10.4h-16V331.9z"/>
	</g>
</g>
<g>
	<g>
		<path fill="#1E7A85" d="M403.2,346.5v-16.7h-20v16.7H403.2z M385.2,331.9h16v10.4h-16V331.9z"/>
	</g>
</g>
<g>
	<g>
		<path fill="#1E7A85" d="M379.9,346.5v-16.7h-20v16.7H379.9z M361.9,331.9h16v10.4h-16V331.9z"/>
	</g>
</g>
<g>
	<g>
		<path fill="#1E7A85" d="M356.7,346.5v-16.7h-20v16.7H356.7z M338.7,331.9h16v10.4h-16V331.9z"/>
	</g>
</g>
<g>
	<g>
		<path fill="#1E7A85" d="M333.4,346.5v-16.7h-20v16.7H333.4z M315.4,331.9h16v10.4h-16V331.9z"/>
	</g>
</g>
<g>
	<g>
		<path fill="#1E7A85" d="M310.2,346.5v-16.7h-20v16.7H310.2z M292.1,331.9h16v10.4h-16V331.9z"/>
	</g>
</g>
<g>
	<g>
		<path fill="#1E7A85" d="M286.9,346.5v-16.7h-20v16.7H286.9z M268.9,331.9h16v10.4h-16V331.9z"/>
	</g>
</g>
<g>
	<g>
		<path fill="#1E7A85" d="M263.6,346.5v-16.7h-20v16.7H263.6z M245.6,331.9h16v10.4h-16V331.9z"/>
	</g>
</g>
<g>
	<g>
		<path fill="#1E7A85" d="M240.4,346.5v-16.7h-20v16.7H240.4z M222.4,331.9h16v10.4h-16V331.9z"/>
	</g>
</g>
<g>
	<g>
		<path fill="#1E7A85" d="M217.1,346.5v-16.7h-20v16.7H217.1z M199.1,331.9h16v10.4h-16V331.9z"/>
	</g>
</g>
<g>
	<g>
		<path fill="#1E7A85" d="M193.9,346.5v-16.7h-20v16.7H193.9z M175.8,331.9h16v10.4h-16V331.9z"/>
	</g>
</g>
<g>
	<g>
		<path fill="#1E7A85" d="M170.6,346.5v-16.7h-20v16.7H170.6z M152.6,331.9h16v10.4h-16V331.9z"/>
	</g>
</g>
<g>
	<g>
		<path fill="#1E7A85" d="M147.3,346.5v-16.7h-20v16.7H147.3z M129.3,331.9h16v10.4h-16V331.9z"/>
	</g>
</g>
<g>
	<g>
		<path fill="#1E7A85" d="M127.3,409.8v16.7h20v-16.7H127.3z M145.3,424.4h-16V414h16V424.4z"/>
	</g>
</g>
<g>
	<g>
		<path fill="#1E7A85" d="M150.6,409.8v16.7h20v-16.7H150.6z M168.6,424.4h-16V414h16V424.4z"/>
	</g>
</g>
<g>
	<g>
		<path fill="#1E7A85" d="M173.8,409.8v16.7h20v-16.7H173.8z M191.9,424.4h-16V414h16V424.4z"/>
	</g>
</g>
<g>
	<g>
		<path fill="#1E7A85" d="M197.1,409.8v16.7h20v-16.7H197.1z M215.1,424.4h-16V414h16V424.4z"/>
	</g>
</g>
<g>
	<g>
		<path fill="#1E7A85" d="M220.4,409.8v16.7h20v-16.7H220.4z M238.4,424.4h-16V414h16V424.4z"/>
	</g>
</g>
<g>
	<g>
		<path fill="#1E7A85" d="M243.6,409.8v16.7h20v-16.7H243.6z M261.6,424.4h-16V414h16V424.4z"/>
	</g>
</g>
<g>
	<g>
		<path fill="#1E7A85" d="M266.9,409.8v16.7h20v-16.7H266.9z M284.9,424.4h-16V414h16V424.4z"/>
	</g>
</g>
<g>
	<g>
		<path fill="#1E7A85" d="M290.1,409.8v16.7h20v-16.7H290.1z M308.2,424.4h-16V414h16V424.4z"/>
	</g>
</g>
<g>
	<g>
		<path fill="#1E7A85" d="M313.4,409.8v16.7h20v-16.7H313.4z M331.4,424.4h-16V414h16V424.4z"/>
	</g>
</g>
<g>
	<g>
		<path fill="#1E7A85" d="M336.7,409.8v16.7h20v-16.7H336.7z M354.7,424.4h-16V414h16V424.4z"/>
	</g>
</g>
<g>
	<g>
		<path fill="#1E7A85" d="M359.9,409.8v16.7h20v-16.7H359.9z M377.9,424.4h-16V414h16V424.4z"/>
	</g>
</g>
<g>
	<g>
		<path fill="#1E7A85" d="M383.2,409.8v16.7h20v-16.7H383.2z M401.2,424.4h-16V414h16V424.4z"/>
	</g>
</g>
<g>
	<g>
		<path fill="#1E7A85" d="M406.4,409.8v16.7h20v-16.7H406.4z M424.5,424.4h-16V414h16V424.4z"/>
	</g>
</g>
<g>
	<g>
		<path fill="#1E7A85" d="M429.7,409.8v16.7h20v-16.7H429.7z M447.7,424.4h-16V414h16V424.4z"/>
	</g>
</g>
<g>
	<g>
		<path fill="#1E7A85" d="M453,409.8v16.7h20v-16.7H453z M471,424.4h-16V414h16V424.4z"/>
	</g>
</g>
<g>
	<g>
		<path fill="#1E7A85" d="M476.2,409.8v16.7h20v-16.7H476.2z M494.2,424.4h-16V414h16V424.4z"/>
	</g>
</g>
<g>
	<g>
		<path fill="#1E7A85" d="M496.2,488v-16.7h-20V488H496.2z M478.2,473.4h16v10.4h-16V473.4z"/>
	</g>
</g>
<g>
	<g>
		<path fill="#1E7A85" d="M473,488v-16.7h-20V488H473z M455,473.4h16v10.4h-16V473.4z"/>
	</g>
</g>
<g>
	<g>
		<path fill="#1E7A85" d="M449.7,488v-16.7h-20V488H449.7z M431.7,473.4h16v10.4h-16V473.4z"/>
	</g>
</g>
<g>
	<g>
		<path fill="#1E7A85" d="M426.5,488v-16.7h-20V488H426.5z M408.4,473.4h16v10.4h-16V473.4z"/>
	</g>
</g>
<g>
	<g>
		<path fill="#1E7A85" d="M403.2,488v-16.7h-20V488H403.2z M385.2,473.4h16v10.4h-16V473.4z"/>
	</g>
</g>
<g>
	<g>
		<path fill="#1E7A85" d="M379.9,488v-16.7h-20V488H379.9z M361.9,473.4h16v10.4h-16V473.4z"/>
	</g>
</g>
<g>
	<g>
		<path fill="#1E7A85" d="M356.7,488v-16.7h-20V488H356.7z M338.7,473.4h16v10.4h-16V473.4z"/>
	</g>
</g>
<g>
	<g>
		<path fill="#1E7A85" d="M333.4,488v-16.7h-20V488H333.4z M315.4,473.4h16v10.4h-16V473.4z"/>
	</g>
</g>
<g>
	<g>
		<path fill="#1E7A85" d="M310.2,488v-16.7h-20V488H310.2z M292.1,473.4h16v10.4h-16V473.4z"/>
	</g>
</g>
<g>
	<g>
		<path fill="#1E7A85" d="M286.9,488v-16.7h-20V488H286.9z M268.9,473.4h16v10.4h-16V473.4z"/>
	</g>
</g>
<g>
	<g>
		<path fill="#1E7A85" d="M263.6,488v-16.7h-20V488H263.6z M245.6,473.4h16v10.4h-16V473.4z"/>
	</g>
</g>
<g>
	<g>
		<path fill="#1E7A85" d="M240.4,488v-16.7h-20V488H240.4z M222.4,473.4h16v10.4h-16V473.4z"/>
	</g>
</g>
<g>
	<g>
		<path fill="#1E7A85" d="M217.1,488v-16.7h-20V488H217.1z M199.1,473.4h16v10.4h-16V473.4z"/>
	</g>
</g>
<g>
	<g>
		<path fill="#1E7A85" d="M193.9,488v-16.7h-20V488H193.9z M175.8,473.4h16v10.4h-16V473.4z"/>
	</g>
</g>
<g>
	<g>
		<path fill="#1E7A85" d="M170.6,488v-16.7h-20V488H170.6z M152.6,473.4h16v10.4h-16V473.4z"/>
	</g>
</g>
<g>
	<g>
		<path fill="#1E7A85" d="M147.3,488v-16.7h-20V488H147.3z M129.3,473.4h16v10.4h-16V473.4z"/>
	</g>
</g>
<rect x="530.3" y="378.5" fill="#FFFFFF" stroke="#1E7A85" stroke-width="0.8571" stroke-miterlimit="10" width="36.5" height="69.3"/>
<rect x="530.3" y="239.9" fill="#FFFFFF" stroke="#1E7A85" stroke-width="0.8571" stroke-miterlimit="10" width="36.5" height="69.3"/>
<rect x="530.3" y="309.2" fill="#FFFFFF" stroke="#1E7A85" stroke-width="0.8571" stroke-miterlimit="10" width="36.5" height="69.3"/>
<rect x="530.3" y="170.7" fill="none" stroke="#1E7A85" stroke-width="0.8571" stroke-miterlimit="10" width="36.5" height="69.3"/>
<g>
	<g>
		<path fill="#1E7A85" d="M587.6,170.7h-16.7v20h16.7V170.7z M573,188.7v-16h10.4v16H573z"/>
	</g>
</g>
<g>
	<g>
		<path fill="#1E7A85" d="M587.6,193.9h-16.7v20h16.7V193.9z M573,211.9v-16h10.4v16H573z"/>
	</g>
</g>
<g>
	<g>
		<path fill="#1E7A85" d="M587.6,217.2h-16.7v20h16.7V217.2z M573,235.2v-16h10.4v16H573z"/>
	</g>
</g>
<g>
	<g>
		<path fill="#1E7A85" d="M587.6,240.4h-16.7v20h16.7V240.4z M573,258.5v-16h10.4v16H573z"/>
	</g>
</g>
<g>
	<g>
		<path fill="#1E7A85" d="M587.6,263.7h-16.7v20h16.7V263.7z M573,281.7v-16h10.4v16H573z"/>
	</g>
</g>
<g>
	<g>
		<path fill="#1E7A85" d="M587.6,287h-16.7v20h16.7V287z M573,305v-16h10.4v16H573z"/>
	</g>
</g>
<g>
	<g>
		<path fill="#1E7A85" d="M587.6,310.2h-16.7v20h16.7V310.2z M573,328.2v-16h10.4v16H573z"/>
	</g>
</g>
<g>
	<g>
		<path fill="#1E7A85" d="M587.6,333.5h-16.7v20h16.7V333.5z M573,351.5v-16h10.4v16H573z"/>
	</g>
</g>
<g>
	<g>
		<path fill="#1E7A85" d="M587.6,356.7h-16.7v20h16.7V356.7z M573,374.8v-16h10.4v16H573z"/>
	</g>
</g>
<g>
	<g>
		<path fill="#1E7A85" d="M587.6,380h-16.7v20h16.7V380z M573,398v-16h10.4v16H573z"/>
	</g>
</g>
<g>
	<g>
		<path fill="#1E7A85" d="M587.6,403.3h-16.7v20h16.7V403.3z M573,421.3v-16h10.4v16H573z"/>
	</g>
</g>
<g>
	<g>
		<path fill="#1E7A85" d="M587.6,426.5h-16.7v20h16.7V426.5z M573,444.5v-16h10.4v16H573z"/>
	</g>
</g>
</svg>
