<?xml version="1.0" encoding="utf-8"?>
<!-- Generator: Adobe Illustrator 19.0.0, SVG Export Plug-In . SVG Version: 6.00 Build 0)  -->
<!DOCTYPE svg PUBLIC "-//W3C//DTD SVG 1.1//EN" "http://www.w3.org/Graphics/SVG/1.1/DTD/svg11.dtd">
<svg version="1.1" id="Layer_1" xmlns="http://www.w3.org/2000/svg" xmlns:xlink="http://www.w3.org/1999/xlink" x="0px" y="0px"
	 viewBox="166.6 461 1586.7 1080" style="enable-background:new 166.6 461 1586.7 1080;" xml:space="preserve">
<style type="text/css">
	.st0{fill-rule:evenodd;clip-rule:evenodd;fill:#1E7A85;}
	.st1{fill:#1E7A85;}
	.st2{fill:none;}
</style>
<g>
	<g>
		<g>
			<path class="st0" d="M473,600.3c0-2.5,2.1-4.6,4.7-4.6c2.5,0,4.6,2.1,4.6,4.6c0,2.5-2.1,4.6-4.7,4.6
				C475.1,604.9,473,602.8,473,600.3z"/>
		</g>
	</g>
	<g>
		<g>
			<g>
				<path class="st0" d="M1231.8,1355.9c0-2.5,2.1-4.6,4.7-4.6c2.5,0,4.6,2.1,4.5,4.6c0,2.5-2.1,4.6-4.7,4.6
					C1233.8,1360.5,1231.8,1358.4,1231.8,1355.9z"/>
			</g>
		</g>
		<g>
			<path class="st1" d="M1199.4,1345.7v63.9h22.2v9.7h-7l17.1,21.2l17.1-21.2h-7v-9.7h22.2v-21.9v-20.2v-20.1v-1.8H1199.4z
				 M1248.9,1401c0,0.3-0.1,0.6-0.3,0.8c-1.4,1.4-2.7,2.8-4.1,4.1c-0.2,0.2-0.4,0.4-0.7,0.4c-2,0-3.9,0-5.9,0c-0.1,0-0.1,0-0.2,0
				c0-0.2,0.2-0.3,0.3-0.5c1.1-1,2.1-2.1,3.2-3.1c0.1-0.1,0.3-0.2,0.2-0.4c-0.1-0.1-0.3-0.1-0.4-0.1c-1.4,0-2.7,0-4.1,0
				c-0.3,0-0.6,0.1-0.8,0.4c-1.1,1.1-2.1,2.3-3.2,3.4c-0.2,0.2-0.5,0.3-0.8,0.3c-8.4,0-16.8,0-25.2,0c-0.2,0-0.5,0-0.9-0.1
				c0.5-0.4,0.9-0.8,1.3-1.2c1.2-1.1,2.3-2.2,3.5-3.4c0.2-0.2,0.3-0.4,0.3-0.7c0-2.1,0-4.2,0-6.3c0-0.5-0.2-0.6-0.6-0.6
				c-2.4,0-4.8,0-7.2,0c-0.2,0-0.3,0-0.5,0c-0.4,0-0.5-0.2-0.2-0.5c0.8-1.1,1.5-2.2,2.3-3.3c1-1.4,2-2.7,2.9-4.1
				c0.2-0.3,0.4-0.5,0.8-0.4c0.7,0,1.4,0,2,0c0.3,0,0.5-0.1,0.5-0.5c0-0.2,0-0.5,0-0.7c0-11.5,0-23,0-34.6c0-0.2,0-0.4,0-0.6
				c0-0.3,0.1-0.4,0.4-0.4c0.2,0,0.4,0,0.5,0c12,0,23.9,0,35.9,0c0.1,0,0.1,0,0.2,0c0.8,0,0.8,0,0.8,0.8c0,6.8,0,13.6,0,20.4
				c0,0.7,0,0.7-0.8,0.7c-1.5,0-3,0-4.5,0c-0.4,0-0.7-0.1-0.9-0.4c-1.2-1.6-2.3-3.3-3.5-4.9c-0.8-1.1-1.6-2.2-2.4-3.4
				c-0.2-0.3-0.4-0.3-0.7-0.3c-2,0-4.1-0.1-6.1,0c-3.3,0.2-6.7,0-10,0.1c-0.4,0-0.6,0.1-0.9,0.5c-1.7,2.8-3.4,5.5-5.1,8.3
				c-0.4,0.6-0.3,1.4,0.3,2c0.4,0.4,0.7,0.9,1.4,0.8c0.2,0,0.4-0.1,0.6-0.3c1-0.9,1.6-2.2,2.3-3.3c0.7-1.1,1.4-2.2,2.1-3.4
				c0.1-0.2,0.3-0.3,0.6-0.3c1.9,0,3.7,0,5.6,0c0.5,0,0.5,0.2,0.3,0.5c-0.9,1.7-1.7,3.4-2.5,5.2c-0.6,1.3-1.3,2.6-1.9,3.9
				c-0.3,0.7-0.2,1.4-0.3,2.1c-0.2,2.3-0.4,4.6-0.6,6.9c-0.1,0.8-0.2,1.6-0.2,2.4c0,0.6-0.5,1-1.2,1c-3.3,0-6.7,0-10,0
				c-0.2,0-0.5,0-0.7,0.2c-0.8,1.1-1.7,2.2-2.5,3.3c-0.1,0.1-0.1,0.2-0.2,0.4c0.3,0,0.6,0,0.8,0c5.4,0,10.8,0,16.2,0
				c1.1,0,1.8-0.7,1.9-1.8c0.1-2,0.4-3.9,0.6-5.9c0.1-1.1,0.2-2.3,0.3-3.4c0-0.3,0.1-0.7,0.3-0.9c0.3-0.3,0.5-0.3,0.7,0.1
				c1.3,2.7,2.6,5.4,4,8.2c1.2,2.4,2.4,4.8,3.6,7.3c0.7,1.5,1.5,3,2.2,4.5c0.1,0.3,0.3,0.4,0.7,0.4c1.4,0,2.9,0,4.3,0
				c0.5,0,0.5-0.1,0.3-0.5c-0.9-1.8-1.8-3.6-2.6-5.4c-1.7-3.5-3.4-6.9-5-10.4c-1-2.1-2-4.2-3-6.2c-0.1-0.3-0.2-0.5,0-0.8
				c1.2-2.3,2.4-4.6,3.7-6.9c0.2-0.4,0.5-0.8,0.7-1.3c0.2-0.3,0.3-0.3,0.4,0c1.2,1.8,2.4,3.5,3.6,5.3c0.2,0.4,0.5,0.5,1,0.5
				c2.2,0,4.3,0,6.5,0c0.5,0,0.6,0.1,0.6,0.6C1248.9,1383.9,1248.9,1392.4,1248.9,1401z"/>
		</g>
	</g>
	<g>
		<path class="st2" d="M489.4,593.1c-0.1,0-0.1,0-0.2,0c-11.9,0-23.9,0-35.9,0c-0.2,0-0.4,0-0.5,0c-0.3,0-0.4,0.1-0.4,0.4
			c0,0.2,0,0.4,0,0.6c0,11.5,0,23,0,34.6c0,0.2,0,0.5,0,0.7c0,0.3-0.1,0.5-0.5,0.5c-0.7,0-1.4,0-2,0c-0.4,0-0.6,0.1-0.8,0.4
			c-1,1.4-1.9,2.7-2.9,4.1c-0.8,1.1-1.5,2.2-2.3,3.3c-0.2,0.3-0.2,0.5,0.2,0.5c0.2,0,0.3,0,0.5,0c2.4,0,4.8,0,7.2,0
			c0.4,0,0.6,0.1,0.6,0.6c0,2.1,0,4.2,0,6.3c0,0.3-0.1,0.5-0.3,0.7c-1.2,1.1-2.3,2.2-3.5,3.4c-0.4,0.4-0.8,0.7-1.3,1.2
			c0.4,0.2,0.6,0.1,0.9,0.1c8.4,0,16.8,0,25.2,0c0.3,0,0.6-0.1,0.8-0.3c1.1-1.1,2.1-2.3,3.2-3.4c0.2-0.3,0.5-0.4,0.8-0.4
			c1.4,0,2.8,0,4.1,0c0.1,0,0.3-0.1,0.4,0.1c0.1,0.2-0.1,0.3-0.2,0.4c-1.1,1-2.1,2.1-3.2,3.1c-0.1,0.1-0.3,0.2-0.3,0.5
			c0.1,0,0.2,0,0.2,0c2,0,3.9,0,5.9,0c0.3,0,0.5-0.2,0.7-0.4c1.3-1.4,2.7-2.8,4.1-4.1c0.2-0.2,0.3-0.5,0.3-0.8c0-8.6,0-17.1,0-25.7
			c0-0.5-0.2-0.6-0.6-0.6c-2.2,0-4.3,0-6.5,0c-0.4,0-0.7-0.1-1-0.5c-1.2-1.8-2.4-3.5-3.6-5.3c-0.2-0.3-0.3-0.3-0.5,0
			c-0.2,0.4-0.5,0.8-0.7,1.3c-1.2,2.3-2.4,4.6-3.7,6.9c-0.2,0.3-0.1,0.5,0,0.8c1,2.1,2,4.2,3,6.2c1.7,3.5,3.3,6.9,5,10.4
			c0.9,1.8,1.7,3.6,2.6,5.4c0.2,0.4,0.1,0.5-0.3,0.5c-1.4,0-2.9,0-4.3,0c-0.4,0-0.5-0.1-0.7-0.4c-0.7-1.5-1.5-3-2.2-4.5
			c-1.2-2.4-2.4-4.9-3.6-7.3c-1.3-2.7-2.7-5.4-4-8.2c-0.2-0.4-0.4-0.4-0.7-0.1c-0.3,0.2-0.3,0.6-0.3,0.9c-0.1,1.1-0.2,2.3-0.3,3.4
			c-0.2,2-0.5,3.9-0.6,5.9c-0.1,1.1-0.8,1.8-1.9,1.8c-5.4,0-10.8,0-16.2,0c-0.2,0-0.5,0-0.8,0c0.1-0.2,0.2-0.3,0.2-0.4
			c0.8-1.1,1.7-2.2,2.5-3.3c0.2-0.3,0.4-0.2,0.7-0.2c3.3,0,6.7,0,10,0c0.7,0,1.1-0.4,1.2-1c0-0.8,0.1-1.6,0.2-2.4
			c0.2-2.3,0.3-4.6,0.6-6.9c0.1-0.7,0-1.4,0.3-2.1c0.7-1.3,1.3-2.6,1.9-3.9c0.8-1.7,1.7-3.5,2.5-5.2c0.2-0.4,0.2-0.5-0.3-0.5
			c-1.9,0-3.7,0-5.6,0c-0.3,0-0.5,0.1-0.6,0.3c-0.7,1.1-1.4,2.3-2.1,3.4c-0.7,1.1-1.3,2.4-2.3,3.3c-0.2,0.2-0.4,0.2-0.6,0.3
			c-0.7,0.1-1-0.4-1.4-0.8c-0.5-0.5-0.6-1.3-0.2-2c1.7-2.8,3.4-5.5,5.1-8.3c0.2-0.4,0.4-0.5,0.9-0.5c3.3-0.1,6.7,0.1,10-0.1
			c2-0.1,4.1,0,6.1,0c0.3,0,0.5,0,0.7,0.3c0.8,1.1,1.6,2.3,2.4,3.4c1.2,1.6,2.3,3.3,3.5,4.9c0.2,0.3,0.5,0.4,0.9,0.4
			c1.5,0,3,0,4.5,0c0.8,0,0.8,0,0.8-0.7c0-6.8,0-13.6,0-20.4C490.2,593.1,490.2,593.1,489.4,593.1z"/>
		<path class="st1" d="M440.6,590.1V654h22.2H483h22.2v-21.9V612v-20.1v-1.8H440.6z M490.2,614.3c0,0.7,0,0.7-0.8,0.7
			c-1.5,0-3,0-4.5,0c-0.4,0-0.7-0.1-0.9-0.4c-1.2-1.6-2.3-3.3-3.5-4.9c-0.8-1.1-1.6-2.2-2.4-3.4c-0.2-0.3-0.4-0.3-0.7-0.3
			c-2,0-4.1-0.1-6.1,0c-3.3,0.2-6.7,0-10,0.1c-0.4,0-0.6,0.1-0.9,0.5c-1.7,2.8-3.4,5.5-5.1,8.3c-0.4,0.6-0.3,1.4,0.2,2
			c0.4,0.4,0.7,0.9,1.4,0.8c0.2,0,0.4-0.1,0.6-0.3c1-0.9,1.6-2.2,2.3-3.3c0.7-1.1,1.4-2.2,2.1-3.4c0.1-0.2,0.3-0.3,0.6-0.3
			c1.9,0,3.7,0,5.6,0c0.5,0,0.5,0.2,0.3,0.5c-0.9,1.7-1.7,3.4-2.5,5.2c-0.6,1.3-1.3,2.6-1.9,3.9c-0.3,0.7-0.2,1.4-0.3,2.1
			c-0.2,2.3-0.4,4.6-0.6,6.9c-0.1,0.8-0.2,1.6-0.2,2.4c0,0.6-0.5,1-1.2,1c-3.3,0-6.7,0-10,0c-0.2,0-0.5,0-0.7,0.2
			c-0.8,1.1-1.7,2.2-2.5,3.3c-0.1,0.1-0.1,0.2-0.2,0.4c0.3,0,0.6,0,0.8,0c5.4,0,10.8,0,16.2,0c1.1,0,1.8-0.7,1.9-1.8
			c0.2-2,0.4-3.9,0.6-5.9c0.1-1.1,0.2-2.3,0.3-3.4c0-0.3,0.1-0.7,0.3-0.9c0.3-0.3,0.5-0.3,0.7,0.1c1.3,2.7,2.6,5.4,4,8.2
			c1.2,2.4,2.4,4.8,3.6,7.3c0.7,1.5,1.5,3,2.2,4.5c0.1,0.3,0.3,0.4,0.7,0.4c1.4,0,2.9,0,4.3,0c0.5,0,0.5-0.1,0.3-0.5
			c-0.9-1.8-1.8-3.6-2.6-5.4c-1.7-3.5-3.4-6.9-5-10.4c-1-2.1-2-4.2-3-6.2c-0.1-0.3-0.2-0.5,0-0.8c1.2-2.3,2.5-4.6,3.7-6.9
			c0.2-0.4,0.5-0.8,0.7-1.3c0.2-0.3,0.3-0.3,0.5,0c1.2,1.8,2.4,3.5,3.6,5.3c0.3,0.4,0.5,0.5,1,0.5c2.2,0,4.3,0,6.5,0
			c0.5,0,0.6,0.1,0.6,0.6c0,8.6,0,17.1,0,25.7c0,0.3-0.1,0.6-0.3,0.8c-1.4,1.4-2.7,2.8-4.1,4.1c-0.2,0.2-0.4,0.4-0.7,0.4
			c-2,0-3.9,0-5.9,0c-0.1,0-0.1,0-0.2,0c0-0.2,0.2-0.3,0.3-0.5c1.1-1,2.1-2.1,3.2-3.1c0.1-0.1,0.3-0.2,0.2-0.4
			c-0.1-0.1-0.3-0.1-0.4-0.1c-1.4,0-2.7,0-4.1,0c-0.3,0-0.6,0.1-0.8,0.4c-1.1,1.1-2.1,2.3-3.2,3.4c-0.2,0.2-0.5,0.3-0.8,0.3
			c-8.4,0-16.8,0-25.2,0c-0.2,0-0.5,0-0.9-0.1c0.5-0.4,0.9-0.8,1.3-1.2c1.2-1.1,2.3-2.2,3.5-3.4c0.2-0.2,0.3-0.4,0.3-0.7
			c0-2.1,0-4.2,0-6.3c0-0.5-0.2-0.6-0.6-0.6c-2.4,0-4.8,0-7.2,0c-0.2,0-0.3,0-0.5,0c-0.4,0-0.4-0.2-0.2-0.5c0.8-1.1,1.5-2.2,2.3-3.3
			c1-1.4,2-2.7,2.9-4.1c0.2-0.3,0.4-0.5,0.8-0.4c0.7,0,1.4,0,2,0c0.3,0,0.5-0.1,0.5-0.5c0-0.2,0-0.5,0-0.7c0-11.5,0-23,0-34.6
			c0-0.2,0-0.4,0-0.6c0-0.3,0.1-0.4,0.4-0.4c0.2,0,0.4,0,0.5,0c12,0,23.9,0,35.9,0c0.1,0,0.1,0,0.2,0c0.8,0,0.8,0,0.8,0.8
			C490.2,600.7,490.2,607.5,490.2,614.3z"/>
		<polygon class="st1" points="490,580.4 472.9,559.2 455.8,580.4 462.8,580.4 462.8,590.1 483,590.1 483,580.4 		"/>
		<g>
			<g>
				<path class="st0" d="M315.4,999.9c0-2.5,2.1-4.6,4.7-4.6c2.5,0,4.6,2.1,4.6,4.6c0,2.5-2.1,4.6-4.7,4.6
					C317.5,1004.6,315.4,1002.5,315.4,999.9z"/>
			</g>
		</g>
		<path class="st1" d="M283.1,989.8v63.9h22.2h20.2h22.2v-21.9v-20.2v-20.1v-1.8H283.1z M332.6,1014c0,0.7,0,0.7-0.8,0.7
			c-1.5,0-3,0-4.5,0c-0.4,0-0.7-0.1-0.9-0.4c-1.2-1.6-2.3-3.3-3.5-4.9c-0.8-1.1-1.6-2.2-2.4-3.4c-0.2-0.3-0.4-0.3-0.7-0.3
			c-2,0-4.1-0.1-6.1,0c-3.3,0.2-6.7,0-10,0.1c-0.4,0-0.6,0.1-0.9,0.5c-1.7,2.8-3.4,5.5-5.1,8.3c-0.4,0.6-0.3,1.4,0.2,2
			c0.4,0.4,0.7,0.9,1.4,0.8c0.2,0,0.4-0.1,0.6-0.3c1-0.9,1.6-2.2,2.3-3.3c0.7-1.1,1.4-2.2,2.1-3.4c0.1-0.2,0.3-0.3,0.6-0.3
			c1.9,0,3.7,0,5.6,0c0.5,0,0.5,0.2,0.3,0.5c-0.9,1.7-1.7,3.4-2.5,5.2c-0.6,1.3-1.3,2.6-1.9,3.9c-0.3,0.7-0.2,1.4-0.3,2.1
			c-0.2,2.3-0.4,4.6-0.6,6.9c-0.1,0.8-0.2,1.6-0.2,2.4c0,0.6-0.5,1-1.2,1c-3.3,0-6.7,0-10,0c-0.2,0-0.5,0-0.7,0.2
			c-0.8,1.1-1.7,2.2-2.5,3.3c-0.1,0.1-0.1,0.2-0.2,0.4c0.3,0,0.6,0,0.8,0c5.4,0,10.8,0,16.2,0c1.1,0,1.8-0.7,1.9-1.8
			c0.2-2,0.4-3.9,0.6-5.9c0.1-1.1,0.2-2.3,0.3-3.4c0-0.3,0.1-0.7,0.3-0.9c0.3-0.3,0.5-0.3,0.7,0.1c1.3,2.7,2.6,5.4,4,8.2
			c1.2,2.4,2.4,4.8,3.6,7.3c0.7,1.5,1.5,3,2.2,4.5c0.1,0.3,0.3,0.4,0.7,0.4c1.4,0,2.9,0,4.3,0c0.5,0,0.5-0.1,0.3-0.5
			c-0.9-1.8-1.8-3.6-2.6-5.4c-1.7-3.5-3.4-6.9-5-10.4c-1-2.1-2-4.2-3-6.2c-0.1-0.3-0.2-0.5,0-0.8c1.2-2.3,2.5-4.6,3.7-6.9
			c0.2-0.4,0.5-0.8,0.7-1.3c0.2-0.3,0.3-0.3,0.5,0c1.2,1.8,2.4,3.5,3.6,5.3c0.3,0.4,0.5,0.5,1,0.5c2.2,0,4.3,0,6.5,0
			c0.5,0,0.6,0.1,0.6,0.6c0,8.6,0,17.1,0,25.7c0,0.3-0.1,0.6-0.3,0.8c-1.4,1.4-2.7,2.8-4.1,4.1c-0.2,0.2-0.4,0.4-0.7,0.4
			c-2,0-3.9,0-5.9,0c-0.1,0-0.1,0-0.2,0c0-0.2,0.2-0.3,0.3-0.5c1.1-1,2.1-2.1,3.2-3.1c0.1-0.1,0.3-0.2,0.2-0.4
			c-0.1-0.1-0.3-0.1-0.4-0.1c-1.4,0-2.7,0-4.1,0c-0.3,0-0.6,0.1-0.8,0.4c-1.1,1.1-2.1,2.3-3.2,3.4c-0.2,0.2-0.5,0.3-0.8,0.3
			c-8.4,0-16.8,0-25.2,0c-0.2,0-0.5,0-0.9-0.1c0.5-0.4,0.9-0.8,1.3-1.2c1.2-1.1,2.3-2.2,3.5-3.4c0.2-0.2,0.3-0.4,0.3-0.7
			c0-2.1,0-4.2,0-6.3c0-0.5-0.2-0.6-0.6-0.6c-2.4,0-4.8,0-7.2,0c-0.2,0-0.3,0-0.5,0c-0.4,0-0.4-0.2-0.2-0.5c0.8-1.1,1.5-2.2,2.3-3.3
			c1-1.4,2-2.7,2.9-4.1c0.2-0.3,0.4-0.5,0.8-0.4c0.7,0,1.4,0,2,0c0.3,0,0.5-0.1,0.5-0.5c0-0.2,0-0.5,0-0.7c0-11.5,0-23,0-34.6
			c0-0.2,0-0.4,0-0.6c0-0.3,0.1-0.4,0.4-0.4c0.2,0,0.4,0,0.5,0c12,0,23.9,0,35.9,0c0.1,0,0.1,0,0.2,0c0.8,0,0.8,0,0.8,0.8
			C332.6,1000.4,332.6,1007.2,332.6,1014z"/>
		<polygon class="st1" points="273.1,1004.5 251.9,1021.6 273.1,1038.6 273.1,1031.6 283.8,1031.6 283.8,1011.5 273.1,1011.5 		"/>
	</g>
</g>
<rect x="166.6" y="461" class="st2" width="1586.7" height="1080"/>
</svg>
