<?xml version="1.0" encoding="utf-8"?>
<!-- Generator: Adobe Illustrator 18.1.1, SVG Export Plug-In . SVG Version: 6.00 Build 0)  -->
<!DOCTYPE svg PUBLIC "-//W3C//DTD SVG 1.1//EN" "http://www.w3.org/Graphics/SVG/1.1/DTD/svg11.dtd">
<svg version="1.1" id="Layer_1" xmlns="http://www.w3.org/2000/svg" xmlns:xlink="http://www.w3.org/1999/xlink" x="0px" y="0px"
	 viewBox="0 0 881 600" enable-background="new 0 0 881 600" xml:space="preserve">
<rect fill="none" width="881" height="600"/>
<g>
	<path fill="#1E7A85" d="M363.8,108c-5.9,0-10.7-4.8-10.7-10.7s4.8-10.7,10.7-10.7s10.7,4.8,10.7,10.7S369.8,108,363.8,108z
		 M363.8,87.5c-5.4,0-9.8,4.4-9.8,9.8s4.4,9.8,9.8,9.8c5.4,0,9.8-4.4,9.8-9.8S369.3,87.5,363.8,87.5z"/>
</g>
<g>
	<path fill="#1E7A85" d="M363.8,105.8c-4.7,0-8.5-3.8-8.5-8.5c0-4.7,3.8-8.5,8.5-8.5c4.7,0,8.5,3.8,8.5,8.5
		C372.4,102,368.5,105.8,363.8,105.8z M363.8,91.8c-3,0-5.5,2.5-5.5,5.5c0,3,2.5,5.5,5.5,5.5c3,0,5.5-2.5,5.5-5.5
		C369.4,94.3,366.9,91.8,363.8,91.8z"/>
</g>
<g>
	<path fill="#1E7A85" d="M363.8,101.4c-2.3,0-4.1-1.8-4.1-4.1c0-2.3,1.8-4.1,4.1-4.1c2.3,0,4.1,1.8,4.1,4.1
		C368,99.6,366.1,101.4,363.8,101.4z M363.8,93.8c-1.9,0-3.5,1.6-3.5,3.5s1.6,3.5,3.5,3.5c1.9,0,3.5-1.6,3.5-3.5
		S365.8,93.8,363.8,93.8z"/>
</g>
<g>
	<path fill="#1E7A85" d="M363.8,99.9c-1.4,0-2.6-1.2-2.6-2.6s1.2-2.6,2.6-2.6c1.4,0,2.6,1.2,2.6,2.6S365.3,99.9,363.8,99.9z
		 M363.8,95.6c-0.9,0-1.7,0.8-1.7,1.7s0.8,1.7,1.7,1.7c0.9,0,1.7-0.8,1.7-1.7S364.8,95.6,363.8,95.6z"/>
</g>
<g>
	<circle fill="#1E7A85" cx="363.8" cy="97.3" r="0.9"/>
</g>
<g>
	<circle fill="#FFFFFF" cx="359" cy="92.4" r="0.8"/>
</g>
<g>
	<circle fill="#FFFFFF" cx="368.8" cy="102.4" r="1.2"/>
</g>
<g>
	<path fill="#1E7A85" d="M110.8,284.2c-5.9,0-10.7-4.8-10.7-10.7s4.8-10.7,10.7-10.7s10.7,4.8,10.7,10.7S116.7,284.2,110.8,284.2z
		 M110.8,263.7c-5.4,0-9.8,4.4-9.8,9.8c0,5.4,4.4,9.8,9.8,9.8c5.4,0,9.8-4.4,9.8-9.8C120.6,268.1,116.2,263.7,110.8,263.7z"/>
</g>
<g>
	<path fill="#1E7A85" d="M110.8,282c-4.7,0-8.5-3.8-8.5-8.5c0-4.7,3.8-8.5,8.5-8.5c4.7,0,8.5,3.8,8.5,8.5
		C119.3,278.2,115.5,282,110.8,282z M110.8,268c-3,0-5.5,2.5-5.5,5.5c0,3,2.5,5.5,5.5,5.5s5.5-2.5,5.5-5.5
		C116.3,270.4,113.9,268,110.8,268z"/>
</g>
<g>
	<path fill="#1E7A85" d="M110.8,277.6c-2.3,0-4.1-1.8-4.1-4.1c0-2.3,1.8-4.1,4.1-4.1c2.3,0,4.1,1.8,4.1,4.1
		C114.9,275.8,113.1,277.6,110.8,277.6z M110.8,270c-1.9,0-3.5,1.6-3.5,3.5s1.6,3.5,3.5,3.5c1.9,0,3.5-1.6,3.5-3.5
		S112.8,270,110.8,270z"/>
</g>
<g>
	<path fill="#1E7A85" d="M110.8,276.1c-1.4,0-2.6-1.2-2.6-2.6c0-1.4,1.2-2.6,2.6-2.6c1.4,0,2.6,1.2,2.6,2.6
		C113.4,274.9,112.3,276.1,110.8,276.1z M110.8,271.8c-0.9,0-1.7,0.8-1.7,1.7c0,0.9,0.8,1.7,1.7,1.7c0.9,0,1.7-0.8,1.7-1.7
		C112.5,272.6,111.8,271.8,110.8,271.8z"/>
</g>
<g>
	<circle fill="#1E7A85" cx="110.8" cy="273.5" r="0.9"/>
</g>
<g>
	<circle fill="#FFFFFF" cx="106" cy="268.6" r="0.8"/>
</g>
<g>
	<circle fill="#FFFFFF" cx="115.7" cy="278.6" r="1.2"/>
</g>
<g>
	<path fill="#1E7A85" d="M353.6,539.3c-5.9,0-10.7-4.8-10.7-10.7c0-5.9,4.8-10.7,10.7-10.7s10.7,4.8,10.7,10.7
		C364.3,534.5,359.5,539.3,353.6,539.3z M353.6,518.8c-5.4,0-9.8,4.4-9.8,9.8s4.4,9.8,9.8,9.8c5.4,0,9.8-4.4,9.8-9.8
		S359,518.8,353.6,518.8z"/>
</g>
<g>
	<path fill="#1E7A85" d="M353.6,537.1c-4.7,0-8.5-3.8-8.5-8.5c0-4.7,3.8-8.5,8.5-8.5c4.7,0,8.5,3.8,8.5,8.5
		C362.1,533.3,358.3,537.1,353.6,537.1z M353.6,523.1c-3,0-5.5,2.5-5.5,5.5c0,3,2.5,5.5,5.5,5.5c3,0,5.5-2.5,5.5-5.5
		C359.1,525.5,356.6,523.1,353.6,523.1z"/>
</g>
<g>
	<path fill="#1E7A85" d="M353.6,532.7c-2.3,0-4.1-1.8-4.1-4.1c0-2.3,1.8-4.1,4.1-4.1c2.3,0,4.1,1.8,4.1,4.1
		C357.7,530.8,355.8,532.7,353.6,532.7z M353.6,525.1c-1.9,0-3.5,1.6-3.5,3.5s1.6,3.5,3.5,3.5c1.9,0,3.5-1.6,3.5-3.5
		S355.5,525.1,353.6,525.1z"/>
</g>
<g>
	<path fill="#1E7A85" d="M353.6,531.2c-1.4,0-2.6-1.2-2.6-2.6s1.2-2.6,2.6-2.6c1.4,0,2.6,1.2,2.6,2.6S355,531.2,353.6,531.2z
		 M353.6,526.9c-0.9,0-1.7,0.8-1.7,1.7s0.8,1.7,1.7,1.7c0.9,0,1.7-0.8,1.7-1.7S354.5,526.9,353.6,526.9z"/>
</g>
<g>
	<circle fill="#1E7A85" cx="353.6" cy="528.6" r="0.9"/>
</g>
<g>
	<circle fill="#FFFFFF" cx="348.7" cy="523.7" r="0.8"/>
</g>
<g>
	<circle fill="#FFFFFF" cx="358.5" cy="533.7" r="1.2"/>
</g>
<g>
	<path fill="#1E7A85" d="M610.4,527.4c-5.9,0-10.7-4.8-10.7-10.7c0-5.9,4.8-10.7,10.7-10.7s10.7,4.8,10.7,10.7
		C621.1,522.6,616.3,527.4,610.4,527.4z M610.4,506.9c-5.4,0-9.8,4.4-9.8,9.8s4.4,9.8,9.8,9.8s9.8-4.4,9.8-9.8
		S615.8,506.9,610.4,506.9z"/>
</g>
<g>
	<path fill="#1E7A85" d="M610.4,525.2c-4.7,0-8.5-3.8-8.5-8.5c0-4.7,3.8-8.5,8.5-8.5s8.5,3.8,8.5,8.5
		C618.9,521.4,615.1,525.2,610.4,525.2z M610.4,511.2c-3,0-5.5,2.5-5.5,5.5c0,3,2.5,5.5,5.5,5.5s5.5-2.5,5.5-5.5
		C615.9,513.7,613.4,511.2,610.4,511.2z"/>
</g>
<g>
	<path fill="#1E7A85" d="M610.4,520.8c-2.3,0-4.1-1.8-4.1-4.1c0-2.3,1.8-4.1,4.1-4.1s4.1,1.8,4.1,4.1
		C614.5,519,612.6,520.8,610.4,520.8z M610.4,513.2c-1.9,0-3.5,1.6-3.5,3.5s1.6,3.5,3.5,3.5s3.5-1.6,3.5-3.5
		S612.3,513.2,610.4,513.2z"/>
</g>
<g>
	<path fill="#1E7A85" d="M610.4,519.3c-1.4,0-2.6-1.2-2.6-2.6s1.2-2.6,2.6-2.6s2.6,1.2,2.6,2.6S611.8,519.3,610.4,519.3z M610.4,515
		c-0.9,0-1.7,0.8-1.7,1.7s0.8,1.7,1.7,1.7s1.7-0.8,1.7-1.7S611.3,515,610.4,515z"/>
</g>
<g>
	<circle fill="#1E7A85" cx="610.4" cy="516.7" r="0.9"/>
</g>
<g>
	<circle fill="#FFFFFF" cx="605.5" cy="511.8" r="0.8"/>
</g>
<g>
	<circle fill="#FFFFFF" cx="615.3" cy="521.8" r="1.2"/>
</g>
</svg>
