<?xml version="1.0" encoding="utf-8"?>
<!-- Generator: Adobe Illustrator 18.1.1, SVG Export Plug-In . SVG Version: 6.00 Build 0)  -->
<!DOCTYPE svg PUBLIC "-//W3C//DTD SVG 1.1//EN" "http://www.w3.org/Graphics/SVG/1.1/DTD/svg11.dtd">
<svg version="1.1" id="Layer_1" xmlns="http://www.w3.org/2000/svg" xmlns:xlink="http://www.w3.org/1999/xlink" x="0px" y="0px"
	 viewBox="0 0 881 600" enable-background="new 0 0 881 600" xml:space="preserve">
<rect fill="none" width="881" height="600"/>
<rect x="355.7" y="165.7" fill="#FFFFFF" stroke="#1E7A85" stroke-width="0.8571" stroke-miterlimit="10" width="72.5" height="36.5"/>
<rect x="210.8" y="165.7" fill="#FFFFFF" stroke="#1E7A85" stroke-width="0.8571" stroke-miterlimit="10" width="72.5" height="36.5"/>
<rect x="283.3" y="165.7" fill="#FFFFFF" stroke="#1E7A85" stroke-width="0.8571" stroke-miterlimit="10" width="72.5" height="36.5"/>
<rect x="500.7" y="165.7" fill="#FFFFFF" stroke="#1E7A85" stroke-width="0.8571" stroke-miterlimit="10" width="72.5" height="36.5"/>
<rect x="428.2" y="165.7" fill="#FFFFFF" stroke="#1E7A85" stroke-width="0.8571" stroke-miterlimit="10" width="72.5" height="36.5"/>
<rect x="138.3" y="165.7" fill="none" stroke="#1E7A85" stroke-width="0.8571" stroke-miterlimit="10" width="72.5" height="36.5"/>
<rect x="138.3" y="274.6" fill="#FFFFFF" stroke="#1E7A85" stroke-width="0.8571" stroke-miterlimit="10" width="36.5" height="72.5"/>
<rect x="138.3" y="347.1" fill="#FFFFFF" stroke="#1E7A85" stroke-width="0.8571" stroke-miterlimit="10" width="36.5" height="72.5"/>
<rect x="138.3" y="202.2" fill="none" stroke="#1E7A85" stroke-width="0.8571" stroke-miterlimit="10" width="36.5" height="72.5"/>
<rect x="536.6" y="274.6" fill="#FFFFFF" stroke="#1E7A85" stroke-width="0.8571" stroke-miterlimit="10" width="36.5" height="72.5"/>
<rect x="536.6" y="347.1" fill="#FFFFFF" stroke="#1E7A85" stroke-width="0.8571" stroke-miterlimit="10" width="36.5" height="72.5"/>
<rect x="536.6" y="202.2" fill="none" stroke="#1E7A85" stroke-width="0.8571" stroke-miterlimit="10" width="36.5" height="72.5"/>
<rect x="355.7" y="419.6" fill="#FFFFFF" stroke="#1E7A85" stroke-width="0.8571" stroke-miterlimit="10" width="72.5" height="36.5"/>
<rect x="210.8" y="419.6" fill="#FFFFFF" stroke="#1E7A85" stroke-width="0.8571" stroke-miterlimit="10" width="72.5" height="36.5"/>
<rect x="283.3" y="419.6" fill="#FFFFFF" stroke="#1E7A85" stroke-width="0.8571" stroke-miterlimit="10" width="72.5" height="36.5"/>
<rect x="500.7" y="419.6" fill="#FFFFFF" stroke="#1E7A85" stroke-width="0.8571" stroke-miterlimit="10" width="72.5" height="36.5"/>
<rect x="428.2" y="419.6" fill="#FFFFFF" stroke="#1E7A85" stroke-width="0.8571" stroke-miterlimit="10" width="72.5" height="36.5"/>
<rect x="138.3" y="419.6" fill="none" stroke="#1E7A85" stroke-width="0.8571" stroke-miterlimit="10" width="72.5" height="36.5"/>
<g>
	<g>
		<path fill="#1E7A85" d="M141.8,145.8v15h18v-15H141.8z M158,158.9h-14.4v-9.4H158V158.9z"/>
	</g>
</g>
<g>
	<g>
		<path fill="#1E7A85" d="M188.6,145.7v15h18v-15H188.6z M204.9,158.9h-14.4v-9.4h14.4V158.9z"/>
	</g>
</g>
<g>
	<g>
		<path fill="#1E7A85" d="M165.6,145.7v15h18v-15H165.6z M181.8,158.9h-14.4v-9.4h14.4V158.9z"/>
	</g>
</g>
<g>
	<g>
		<path fill="#1E7A85" d="M214.9,145.8v15h18v-15H214.9z M231.1,158.9h-14.4v-9.4h14.4V158.9z"/>
	</g>
</g>
<g>
	<g>
		<path fill="#1E7A85" d="M261.8,145.7v15h18v-15H261.8z M278,158.9h-14.4v-9.4H278V158.9z"/>
	</g>
</g>
<g>
	<g>
		<path fill="#1E7A85" d="M238.7,145.7v15h18v-15H238.7z M254.9,158.9h-14.4v-9.4h14.4V158.9z"/>
	</g>
</g>
<g>
	<g>
		<path fill="#1E7A85" d="M287.4,145.8v15h18v-15H287.4z M303.6,158.9h-14.4v-9.4h14.4V158.9z"/>
	</g>
</g>
<g>
	<g>
		<path fill="#1E7A85" d="M334.3,145.7v15h18v-15H334.3z M350.5,158.9h-14.4v-9.4h14.4V158.9z"/>
	</g>
</g>
<g>
	<g>
		<path fill="#1E7A85" d="M311.2,145.7v15h18v-15H311.2z M327.4,158.9H313v-9.4h14.4V158.9z"/>
	</g>
</g>
<g>
	<g>
		<path fill="#1E7A85" d="M119.2,408.1h15v-18h-15V408.1z M132.3,391.9v14.4h-9.4v-14.4H132.3z"/>
	</g>
</g>
<g>
	<g>
		<path fill="#1E7A85" d="M119.2,363.8h15v-18h-15V363.8z M132.3,347.6V362h-9.4v-14.4H132.3z"/>
	</g>
</g>
<g>
	<g>
		<path fill="#1E7A85" d="M119.2,385.9h15v-18h-15V385.9z M132.3,369.7v14.4h-9.4v-14.4H132.3z"/>
	</g>
</g>
<g>
	<g>
		<path fill="#1E7A85" d="M119.2,341.6h15v-18h-15V341.6z M132.3,325.4v14.4h-9.4v-14.4H132.3z"/>
	</g>
</g>
<g>
	<g>
		<path fill="#1E7A85" d="M119.2,297.3h15v-18h-15V297.3z M132.3,281.1v14.4h-9.4v-14.4H132.3z"/>
	</g>
</g>
<g>
	<g>
		<path fill="#1E7A85" d="M119.2,319.5h15v-18h-15V319.5z M132.3,303.3v14.4h-9.4v-14.4H132.3z"/>
	</g>
</g>
<g>
	<g>
		<path fill="#1E7A85" d="M119.2,275.2h15v-18h-15V275.2z M132.3,259v14.4h-9.4V259H132.3z"/>
	</g>
</g>
<g>
	<g>
		<path fill="#1E7A85" d="M119.2,230.9h15v-18h-15V230.9z M132.3,214.7v14.4h-9.4v-14.4H132.3z"/>
	</g>
</g>
<g>
	<g>
		<path fill="#1E7A85" d="M119.2,208.7h15v-18h-15V208.7z M132.3,192.5v14.4h-9.4v-14.4H132.3z"/>
	</g>
</g>
<g>
	<g>
		<path fill="#1E7A85" d="M119.2,186.6h15v-18h-15V186.6z M132.3,170.4v14.4h-9.4v-14.4H132.3z"/>
	</g>
</g>
<g>
	<g>
		<path fill="#1E7A85" d="M119.2,430.2h15v-18h-15V430.2z M132.3,414v14.4h-9.4V414H132.3z"/>
	</g>
</g>
<g>
	<g>
		<path fill="#1E7A85" d="M119.2,452.4h15v-18h-15V452.4z M132.3,436.1v14.4h-9.4v-14.4H132.3z"/>
	</g>
</g>
<g>
	<g>
		<path fill="#1E7A85" d="M119.2,253h15v-18h-15V253z M132.3,236.8v14.4h-9.4v-14.4H132.3z"/>
	</g>
</g>
<g>
	<g>
		<path fill="#1E7A85" d="M359.9,145.8v15h18v-15H359.9z M376.1,158.9h-14.4v-9.4h14.4V158.9z"/>
	</g>
</g>
<g>
	<g>
		<path fill="#1E7A85" d="M406.7,145.7v15h18v-15H406.7z M422.9,158.9h-14.4v-9.4h14.4V158.9z"/>
	</g>
</g>
<g>
	<g>
		<path fill="#1E7A85" d="M383.6,145.7v15h18v-15H383.6z M399.8,158.9h-14.4v-9.4h14.4V158.9z"/>
	</g>
</g>
<g>
	<g>
		<path fill="#1E7A85" d="M432.3,145.8v15h18v-15H432.3z M448.5,158.9h-14.4v-9.4h14.4V158.9z"/>
	</g>
</g>
<g>
	<g>
		<path fill="#1E7A85" d="M479.2,145.7v15h18v-15H479.2z M495.4,158.9H481v-9.4h14.4V158.9z"/>
	</g>
</g>
<g>
	<g>
		<path fill="#1E7A85" d="M456.1,145.7v15h18v-15H456.1z M472.3,158.9h-14.4v-9.4h14.4V158.9z"/>
	</g>
</g>
<g>
	<g>
		<path fill="#1E7A85" d="M504.8,145.8v15h18v-15H504.8z M521,158.9h-14.4v-9.4H521V158.9z"/>
	</g>
</g>
<g>
	<g>
		<path fill="#1E7A85" d="M551.7,145.7v15h18v-15H551.7z M567.9,158.9h-14.4v-9.4h14.4V158.9z"/>
	</g>
</g>
<g>
	<g>
		<path fill="#1E7A85" d="M528.6,145.7v15h18v-15H528.6z M544.8,158.9h-14.4v-9.4h14.4V158.9z"/>
	</g>
</g>
<g>
	<g>
		<path fill="#1E7A85" d="M569.7,475.2v-15h-18v15H569.7z M553.5,462.1h14.4v9.4h-14.4V462.1z"/>
	</g>
</g>
<g>
	<g>
		<path fill="#1E7A85" d="M522.8,475.3v-15h-18v15H522.8z M506.6,462.1H521v9.4h-14.4V462.1z"/>
	</g>
</g>
<g>
	<g>
		<path fill="#1E7A85" d="M545.9,475.3v-15h-18v15H545.9z M529.7,462.1h14.4v9.4h-14.4V462.1z"/>
	</g>
</g>
<g>
	<g>
		<path fill="#1E7A85" d="M496.5,475.2v-15h-18v15H496.5z M480.3,462.1h14.4v9.4h-14.4V462.1z"/>
	</g>
</g>
<g>
	<g>
		<path fill="#1E7A85" d="M449.7,475.3v-15h-18v15H449.7z M433.4,462.1h14.4v9.4h-14.4V462.1z"/>
	</g>
</g>
<g>
	<g>
		<path fill="#1E7A85" d="M472.8,475.3v-15h-18v15H472.8z M456.5,462.1H471v9.4h-14.4V462.1z"/>
	</g>
</g>
<g>
	<g>
		<path fill="#1E7A85" d="M424.1,475.2v-15h-18v15H424.1z M407.8,462.1h14.4v9.4h-14.4V462.1z"/>
	</g>
</g>
<g>
	<g>
		<path fill="#1E7A85" d="M377.2,475.3v-15h-18v15H377.2z M361,462.1h14.4v9.4H361V462.1z"/>
	</g>
</g>
<g>
	<g>
		<path fill="#1E7A85" d="M400.3,475.3v-15h-18v15H400.3z M384.1,462.1h14.4v9.4h-14.4V462.1z"/>
	</g>
</g>
<g>
	<g>
		<path fill="#1E7A85" d="M351.6,475.2v-15h-18v15H351.6z M335.4,462.1h14.4v9.4h-14.4V462.1z"/>
	</g>
</g>
<g>
	<g>
		<path fill="#1E7A85" d="M304.7,475.3v-15h-18v15H304.7z M288.5,462.1h14.4v9.4h-14.4V462.1z"/>
	</g>
</g>
<g>
	<g>
		<path fill="#1E7A85" d="M327.8,475.3v-15h-18v15H327.8z M311.6,462.1H326v9.4h-14.4V462.1z"/>
	</g>
</g>
<g>
	<g>
		<path fill="#1E7A85" d="M279.1,475.2v-15h-18v15H279.1z M262.9,462.1h14.4v9.4h-14.4V462.1z"/>
	</g>
</g>
<g>
	<g>
		<path fill="#1E7A85" d="M232.3,475.3v-15h-18v15H232.3z M216.1,462.1h14.4v9.4h-14.4V462.1z"/>
	</g>
</g>
<g>
	<g>
		<path fill="#1E7A85" d="M255.4,475.3v-15h-18v15H255.4z M239.1,462.1h14.4v9.4h-14.4V462.1z"/>
	</g>
</g>
<g>
	<g>
		<path fill="#1E7A85" d="M206.7,475.2v-15h-18v15H206.7z M190.5,462.1h14.4v9.4h-14.4V462.1z"/>
	</g>
</g>
<g>
	<g>
		<path fill="#1E7A85" d="M159.8,475.3v-15h-18v15H159.8z M143.6,462.1H158v9.4h-14.4V462.1z"/>
	</g>
</g>
<g>
	<g>
		<path fill="#1E7A85" d="M182.9,475.3v-15h-18v15H182.9z M166.7,462.1h14.4v9.4h-14.4V462.1z"/>
	</g>
</g>
<g>
	<g>
		<path fill="#1E7A85" d="M592.3,212.9h-15v18h15V212.9z M579.1,229.1v-14.4h9.4v14.4H579.1z"/>
	</g>
</g>
<g>
	<g>
		<path fill="#1E7A85" d="M592.3,257.2h-15v18h15V257.2z M579.1,273.4V259h9.4v14.4H579.1z"/>
	</g>
</g>
<g>
	<g>
		<path fill="#1E7A85" d="M592.3,235h-15v18h15V235z M579.1,251.2v-14.4h9.4v14.4H579.1z"/>
	</g>
</g>
<g>
	<g>
		<path fill="#1E7A85" d="M592.3,279.3h-15v18h15V279.3z M579.1,295.5v-14.4h9.4v14.4H579.1z"/>
	</g>
</g>
<g>
	<g>
		<path fill="#1E7A85" d="M592.3,323.6h-15v18h15V323.6z M579.1,339.8v-14.4h9.4v14.4H579.1z"/>
	</g>
</g>
<g>
	<g>
		<path fill="#1E7A85" d="M592.3,301.5h-15v18h15V301.5z M579.1,317.7v-14.4h9.4v14.4H579.1z"/>
	</g>
</g>
<g>
	<g>
		<path fill="#1E7A85" d="M592.3,345.8h-15v18h15V345.8z M579.1,362v-14.4h9.4V362H579.1z"/>
	</g>
</g>
<g>
	<g>
		<path fill="#1E7A85" d="M592.3,390.1h-15v18h15V390.1z M579.1,406.3v-14.4h9.4v14.4H579.1z"/>
	</g>
</g>
<g>
	<g>
		<path fill="#1E7A85" d="M592.3,412.2h-15v18h15V412.2z M579.1,428.4V414h9.4v14.4H579.1z"/>
	</g>
</g>
<g>
	<g>
		<path fill="#1E7A85" d="M592.3,434.3h-15v18h15V434.3z M579.1,450.6v-14.4h9.4v14.4H579.1z"/>
	</g>
</g>
<g>
	<g>
		<path fill="#1E7A85" d="M592.3,190.7h-15v18h15V190.7z M579.1,206.9v-14.4h9.4v14.4H579.1z"/>
	</g>
</g>
<g>
	<g>
		<path fill="#1E7A85" d="M592.3,168.6h-15v18h15V168.6z M579.1,184.8v-14.4h9.4v14.4H579.1z"/>
	</g>
</g>
<g>
	<g>
		<path fill="#1E7A85" d="M592.3,367.9h-15v18h15V367.9z M579.1,384.1v-14.4h9.4v14.4H579.1z"/>
	</g>
</g>
</svg>
