<?xml version="1.0" encoding="utf-8"?>
<!-- Generator: Adobe Illustrator 18.1.1, SVG Export Plug-In . SVG Version: 6.00 Build 0)  -->
<!DOCTYPE svg PUBLIC "-//W3C//DTD SVG 1.1//EN" "http://www.w3.org/Graphics/SVG/1.1/DTD/svg11.dtd">
<svg version="1.1" id="Layer_1" xmlns="http://www.w3.org/2000/svg" xmlns:xlink="http://www.w3.org/1999/xlink" x="0px" y="0px"
	 viewBox="0 0 881 600" enable-background="new 0 0 881 600" xml:space="preserve">
<rect fill="none" width="881" height="600"/>
<g>
	<g>
		<polygon fill="#FFFFFF" points="429.1,101.5 429.1,135.7 464.4,135.7 464.4,101.5 451.8,101.5 451.8,96.2 456,96.2 446.8,84.8 
			437.5,96.2 441.7,96.2 441.7,101.5 		"/>
		<path fill="#1E7A85" d="M464.8,136.1h-36.1V101h12.6v-4.4h-4.7l10.1-12.6l10.1,12.6h-4.7v4.4h12.6V136.1z M429.6,135.2H464v-33.3
			h-12.6v-6.1h3.7l-8.3-10.3l-8.3,10.3h3.7v6.1h-12.6V135.2z"/>
	</g>
</g>
<g>
	<g>
		<polygon fill="#FFFFFF" points="112.7,393.7 146.9,393.7 146.9,358.4 112.7,358.4 112.7,371 107.4,371 107.4,366.8 96,376.1 
			107.4,385.3 107.4,381.1 112.7,381.1 		"/>
		<path fill="#1E7A85" d="M147.3,394.1h-35.1v-12.6h-4.4v4.7l-12.6-10.1l12.6-10.1v4.7h4.4V358h35.1V394.1z M113.1,393.3h33.4v-34.4
			h-33.4v12.6H107v-3.7l-10.3,8.3l10.3,8.3v-3.7h6.1V393.3z"/>
	</g>
</g>
<g>
	<g>
		<polygon fill="#FFFFFF" points="326.2,537.5 326.2,503.3 290.9,503.3 290.9,537.5 303.5,537.5 303.5,542.8 299.3,542.8 
			308.5,554.2 317.8,542.8 313.6,542.8 313.6,537.5 		"/>
		<path fill="#1E7A85" d="M308.5,554.9l-10.1-12.6h4.7v-4.4h-12.6v-35.1h36.1v35.1H314v4.4h4.7L308.5,554.9z M300.2,543.2l8.3,10.3
			l8.3-10.3h-3.7v-6.1h12.6v-33.3h-34.4v33.3h12.6v6.1H300.2z"/>
	</g>
</g>
<g>
	<g>
		<polygon fill="#FFFFFF" points="598.3,459.8 564.1,459.8 564.1,495.1 598.3,495.1 598.3,482.5 603.6,482.5 603.6,486.7 615,477.4 
			603.6,468.2 603.6,472.4 598.3,472.4 		"/>
		<path fill="#1E7A85" d="M598.8,495.5h-35.1v-36.1h35.1v12.6h4.4v-4.7l12.6,10.1l-12.6,10.1v-4.7h-4.4V495.5z M564.5,494.6h33.3
			V482h6.1v3.7l10.3-8.3l-10.3-8.3v3.7h-6.1v-12.6h-33.3V494.6z"/>
	</g>
</g>
<g>
	<g>
		<polygon fill="#FFFFFF" points="598.3,171 564.1,171 564.1,206.2 598.3,206.2 598.3,193.6 603.6,193.6 603.6,197.8 615,188.6 
			603.6,179.4 603.6,183.6 598.3,183.6 		"/>
		<path fill="#1E7A85" d="M598.8,206.7h-35.1v-36.1h35.1v12.6h4.4v-4.7l12.6,10.1l-12.6,10.1v-4.7h-4.4V206.7z M564.5,205.8h33.3
			v-12.6h6.1v3.7l10.3-8.3l-10.3-8.3v3.7h-6.1v-12.6h-33.3V205.8z"/>
	</g>
</g>
<g>
	<g>
		<polygon fill="#FFFFFF" points="655.8,179 690,179 690,143.7 655.8,143.7 655.8,156.3 650.5,156.3 650.5,152.1 639.1,161.4 
			650.5,170.6 650.5,166.4 655.8,166.4 		"/>
		<path fill="#1E7A85" d="M690.4,179.4h-35.1v-12.6h-4.4v4.7l-12.6-10.1l12.6-10.1v4.7h4.4v-12.6h35.1V179.4z M656.2,178.6h33.4
			v-34.4h-33.4v12.6h-6.1V153l-10.3,8.3l10.3,8.3V166h6.1V178.6z"/>
	</g>
</g>
<g>
	<g>
		<polygon fill="#FFFFFF" points="682.7,506 682.7,471.8 647.4,471.8 647.4,506 660,506 660,511.3 655.8,511.3 665.1,522.7 
			674.3,511.3 670.1,511.3 670.1,506 		"/>
		<path fill="#1E7A85" d="M665.1,523.4L655,510.8h4.7v-4.4H647v-35.1h36.1v35.1h-12.6v4.4h4.7L665.1,523.4z M656.7,511.7l8.3,10.3
			l8.3-10.3h-3.7v-6.1h12.6v-33.3h-34.4v33.3h12.6v6.1H656.7z"/>
	</g>
</g>
<g>
	<g>
		<polygon fill="#FFFFFF" points="851.2,259.9 817,259.9 817,295.1 851.2,295.1 851.2,282.5 856.5,282.5 856.5,286.7 867.9,277.5 
			856.5,268.3 856.5,272.5 851.2,272.5 		"/>
		<path fill="#1E7A85" d="M851.7,295.6h-35.1v-36.1h35.1V272h4.4v-4.7l12.6,10.1l-12.6,10.1V283h-4.4V295.6z M817.5,294.7h33.3
			v-12.6h6.1v3.7l10.3-8.3l-10.3-8.3v3.7h-6.1v-12.6h-33.3V294.7z"/>
	</g>
</g>
<g>
	<path fill="#1E7A85" d="M448.9,116.5l5.6,1.2l-18.4,14.2l6.6-11.2l-5.6-1.2l18.4-13.6L448.9,116.5z"/>
</g>
<g>
	<path fill="#1E7A85" d="M583.6,186.8l5.6,1.2l-18.4,14.2l6.6-11.2l-5.6-1.2l18.4-13.6L583.6,186.8z"/>
</g>
<g>
	<path fill="#1E7A85" d="M675.6,159.4l5.6,1.2l-18.4,14.2l6.6-11.2l-5.6-1.2l18.4-13.6L675.6,159.4z"/>
</g>
<g>
	<path fill="#1E7A85" d="M837.2,275.7l5.6,1.2l-18.4,14.2L831,280l-5.6-1.2l18.4-13.6L837.2,275.7z"/>
</g>
<g>
	<path fill="#1E7A85" d="M583.6,475.1l5.6,1.2l-18.4,14.2l6.6-11.2l-5.6-1.2l18.4-13.6L583.6,475.1z"/>
</g>
<g>
	<path fill="#1E7A85" d="M667.6,486.7l5.6,1.2l-18.4,14.2l6.6-11.2l-5.6-1.2l18.4-13.6L667.6,486.7z"/>
</g>
<g>
	<path fill="#1E7A85" d="M311.9,518.2l5.6,1.2l-18.4,14.2l6.6-11.2l-5.6-1.2l18.4-13.6L311.9,518.2z"/>
</g>
<g>
	<path fill="#1E7A85" d="M132.6,373.5l5.6,1.2L119.8,389l6.6-11.2l-5.6-1.2l18.4-13.6L132.6,373.5z"/>
</g>
</svg>
