<?xml version="1.0" encoding="utf-8"?>
<!-- Generator: Adobe Illustrator 18.1.1, SVG Export Plug-In . SVG Version: 6.00 Build 0)  -->
<!DOCTYPE svg PUBLIC "-//W3C//DTD SVG 1.1//EN" "http://www.w3.org/Graphics/SVG/1.1/DTD/svg11.dtd">
<svg version="1.1" id="Layer_1" xmlns="http://www.w3.org/2000/svg" xmlns:xlink="http://www.w3.org/1999/xlink" x="0px" y="0px"
	 viewBox="0 0 881 600" enable-background="new 0 0 881 600" xml:space="preserve">
<rect fill="none" width="881" height="600"/>
<rect x="654.1" y="253.8" fill="none" stroke="#1E7A85" stroke-width="0.8571" stroke-miterlimit="10" width="28.8" height="66.7"/>
<rect x="654.1" y="328.8" fill="none" stroke="#1E7A85" stroke-width="0.8571" stroke-miterlimit="10" width="28.8" height="66.7"/>
<g>
	<g>
		<g>
			<path fill="#1E7A85" d="M136,392h15v-18h-15V392z M149.1,375.7v14.4h-9.4v-14.4H149.1z"/>
		</g>
	</g>
	<g>
		<g>
			<path fill="#1E7A85" d="M136,345.1h15v-18h-15V345.1z M149.1,328.9v14.4h-9.4v-14.4H149.1z"/>
		</g>
	</g>
	<g>
		<g>
			<path fill="#1E7A85" d="M136,368.2h15v-18h-15V368.2z M149.1,352v14.4h-9.4V352H149.1z"/>
		</g>
	</g>
	<g>
		<g>
			<path fill="#1E7A85" d="M136,461h15v-18h-15V461z M149.1,444.7v14.4h-9.4v-14.4H149.1z"/>
		</g>
	</g>
	<g>
		<g>
			<path fill="#1E7A85" d="M136,414.1h15v-18h-15V414.1z M149.1,397.9v14.4h-9.4v-14.4H149.1z"/>
		</g>
	</g>
	<g>
		<g>
			<path fill="#1E7A85" d="M136,437.2h15v-18h-15V437.2z M149.1,421v14.4h-9.4V421H149.1z"/>
		</g>
	</g>
	<g>
		<g>
			<path fill="#1E7A85" d="M136,507h15v-18h-15V507z M149.1,490.8v14.4h-9.4v-14.4H149.1z"/>
		</g>
	</g>
	<g>
		<g>
			<path fill="#1E7A85" d="M136,530.8h15v-18h-15V530.8z M149.1,514.6V529h-9.4v-14.4H149.1z"/>
		</g>
	</g>
	<g>
		<g>
			<path fill="#1E7A85" d="M136,483.3h15v-18h-15V483.3z M149.1,467v14.4h-9.4V467H149.1z"/>
		</g>
	</g>
</g>
<g>
	<g>
		<g>
			<path fill="#1E7A85" d="M167.7,392h15v-18h-15V392z M180.8,375.7v14.4h-9.4v-14.4H180.8z"/>
		</g>
	</g>
	<g>
		<g>
			<path fill="#1E7A85" d="M167.7,345.1h15v-18h-15V345.1z M180.8,328.9v14.4h-9.4v-14.4H180.8z"/>
		</g>
	</g>
	<g>
		<g>
			<path fill="#1E7A85" d="M167.7,368.2h15v-18h-15V368.2z M180.8,352v14.4h-9.4V352H180.8z"/>
		</g>
	</g>
	<g>
		<g>
			<path fill="#1E7A85" d="M167.7,461h15v-18h-15V461z M180.8,444.7v14.4h-9.4v-14.4H180.8z"/>
		</g>
	</g>
	<g>
		<g>
			<path fill="#1E7A85" d="M167.7,414.1h15v-18h-15V414.1z M180.8,397.9v14.4h-9.4v-14.4H180.8z"/>
		</g>
	</g>
	<g>
		<g>
			<path fill="#1E7A85" d="M167.7,437.2h15v-18h-15V437.2z M180.8,421v14.4h-9.4V421H180.8z"/>
		</g>
	</g>
	<g>
		<g>
			<path fill="#1E7A85" d="M167.7,507h15v-18h-15V507z M180.8,490.8v14.4h-9.4v-14.4H180.8z"/>
		</g>
	</g>
	<g>
		<g>
			<path fill="#1E7A85" d="M167.7,530.8h15v-18h-15V530.8z M180.8,514.6V529h-9.4v-14.4H180.8z"/>
		</g>
	</g>
	<g>
		<g>
			<path fill="#1E7A85" d="M167.7,483.3h15v-18h-15V483.3z M180.8,467v14.4h-9.4V467H180.8z"/>
		</g>
	</g>
</g>
<g>
	<g>
		<g>
			<path fill="#1E7A85" d="M199.4,392h15v-18h-15V392z M212.6,375.7v14.4h-9.4v-14.4H212.6z"/>
		</g>
	</g>
	<g>
		<g>
			<path fill="#1E7A85" d="M199.4,345.1h15v-18h-15V345.1z M212.6,328.9v14.4h-9.4v-14.4H212.6z"/>
		</g>
	</g>
	<g>
		<g>
			<path fill="#1E7A85" d="M199.4,368.2h15v-18h-15V368.2z M212.5,352v14.4h-9.4V352H212.5z"/>
		</g>
	</g>
	<g>
		<g>
			<path fill="#1E7A85" d="M199.4,461h15v-18h-15V461z M212.6,444.7v14.4h-9.4v-14.4H212.6z"/>
		</g>
	</g>
	<g>
		<g>
			<path fill="#1E7A85" d="M199.4,414.1h15v-18h-15V414.1z M212.6,397.9v14.4h-9.4v-14.4H212.6z"/>
		</g>
	</g>
	<g>
		<g>
			<path fill="#1E7A85" d="M199.4,437.2h15v-18h-15V437.2z M212.5,421v14.4h-9.4V421H212.5z"/>
		</g>
	</g>
	<g>
		<g>
			<path fill="#1E7A85" d="M199.4,507h15v-18h-15V507z M212.6,490.8v14.4h-9.4v-14.4H212.6z"/>
		</g>
	</g>
	<g>
		<g>
			<path fill="#1E7A85" d="M199.4,530.8h15v-18h-15V530.8z M212.6,514.6V529h-9.4v-14.4H212.6z"/>
		</g>
	</g>
	<g>
		<g>
			<path fill="#1E7A85" d="M199.4,483.3h15v-18h-15V483.3z M212.5,467v14.4h-9.4V467H212.5z"/>
		</g>
	</g>
</g>
<g>
	<g>
		<g>
			<path fill="#1E7A85" d="M231.2,392h15v-18h-15V392z M244.3,375.7v14.4h-9.4v-14.4H244.3z"/>
		</g>
	</g>
	<g>
		<g>
			<path fill="#1E7A85" d="M231.1,345.1h15v-18h-15V345.1z M244.3,328.9v14.4h-9.4v-14.4H244.3z"/>
		</g>
	</g>
	<g>
		<g>
			<path fill="#1E7A85" d="M231.1,368.2h15v-18h-15V368.2z M244.3,352v14.4h-9.4V352H244.3z"/>
		</g>
	</g>
	<g>
		<g>
			<path fill="#1E7A85" d="M231.2,461h15v-18h-15V461z M244.3,444.7v14.4h-9.4v-14.4H244.3z"/>
		</g>
	</g>
	<g>
		<g>
			<path fill="#1E7A85" d="M231.1,414.1h15v-18h-15V414.1z M244.3,397.9v14.4h-9.4v-14.4H244.3z"/>
		</g>
	</g>
	<g>
		<g>
			<path fill="#1E7A85" d="M231.1,437.2h15v-18h-15V437.2z M244.3,421v14.4h-9.4V421H244.3z"/>
		</g>
	</g>
	<g>
		<g>
			<path fill="#1E7A85" d="M231.2,507h15v-18h-15V507z M244.3,490.8v14.4h-9.4v-14.4H244.3z"/>
		</g>
	</g>
	<g>
		<g>
			<path fill="#1E7A85" d="M231.2,530.8h15v-18h-15V530.8z M244.3,514.6V529h-9.4v-14.4H244.3z"/>
		</g>
	</g>
	<g>
		<g>
			<path fill="#1E7A85" d="M231.1,483.3h15v-18h-15V483.3z M244.3,467v14.4h-9.4V467H244.3z"/>
		</g>
	</g>
</g>
<g>
	<g>
		<g>
			<path fill="#1E7A85" d="M262.9,392h15v-18h-15V392z M276,375.7v14.4h-9.4v-14.4H276z"/>
		</g>
	</g>
	<g>
		<g>
			<path fill="#1E7A85" d="M262.9,345.1h15v-18h-15V345.1z M276,328.9v14.4h-9.4v-14.4H276z"/>
		</g>
	</g>
	<g>
		<g>
			<path fill="#1E7A85" d="M262.9,368.2h15v-18h-15V368.2z M276,352v14.4h-9.4V352H276z"/>
		</g>
	</g>
	<g>
		<g>
			<path fill="#1E7A85" d="M262.9,461h15v-18h-15V461z M276,444.7v14.4h-9.4v-14.4H276z"/>
		</g>
	</g>
	<g>
		<g>
			<path fill="#1E7A85" d="M262.9,414.1h15v-18h-15V414.1z M276,397.9v14.4h-9.4v-14.4H276z"/>
		</g>
	</g>
	<g>
		<g>
			<path fill="#1E7A85" d="M262.9,437.2h15v-18h-15V437.2z M276,421v14.4h-9.4V421H276z"/>
		</g>
	</g>
	<g>
		<g>
			<path fill="#1E7A85" d="M262.9,507h15v-18h-15V507z M276,490.8v14.4h-9.4v-14.4H276z"/>
		</g>
	</g>
	<g>
		<g>
			<path fill="#1E7A85" d="M262.9,530.8h15v-18h-15V530.8z M276,514.6V529h-9.4v-14.4H276z"/>
		</g>
	</g>
	<g>
		<g>
			<path fill="#1E7A85" d="M262.9,483.3h15v-18h-15V483.3z M276,467v14.4h-9.4V467H276z"/>
		</g>
	</g>
</g>
<g>
	<g>
		<g>
			<path fill="#1E7A85" d="M294.6,392h15v-18h-15V392z M307.7,375.7v14.4h-9.4v-14.4H307.7z"/>
		</g>
	</g>
	<g>
		<g>
			<path fill="#1E7A85" d="M294.6,345.1h15v-18h-15V345.1z M307.7,328.9v14.4h-9.4v-14.4H307.7z"/>
		</g>
	</g>
	<g>
		<g>
			<path fill="#1E7A85" d="M294.6,368.2h15v-18h-15V368.2z M307.7,352v14.4h-9.4V352H307.7z"/>
		</g>
	</g>
	<g>
		<g>
			<path fill="#1E7A85" d="M294.6,461h15v-18h-15V461z M307.7,444.7v14.4h-9.4v-14.4H307.7z"/>
		</g>
	</g>
	<g>
		<g>
			<path fill="#1E7A85" d="M294.6,414.1h15v-18h-15V414.1z M307.7,397.9v14.4h-9.4v-14.4H307.7z"/>
		</g>
	</g>
	<g>
		<g>
			<path fill="#1E7A85" d="M294.6,437.2h15v-18h-15V437.2z M307.7,421v14.4h-9.4V421H307.7z"/>
		</g>
	</g>
	<g>
		<g>
			<path fill="#1E7A85" d="M294.6,507h15v-18h-15V507z M307.7,490.8v14.4h-9.4v-14.4H307.7z"/>
		</g>
	</g>
	<g>
		<g>
			<path fill="#1E7A85" d="M294.6,530.8h15v-18h-15V530.8z M307.7,514.6V529h-9.4v-14.4H307.7z"/>
		</g>
	</g>
	<g>
		<g>
			<path fill="#1E7A85" d="M294.6,483.3h15v-18h-15V483.3z M307.7,467v14.4h-9.4V467H307.7z"/>
		</g>
	</g>
</g>
<g>
	<g>
		<g>
			<path fill="#1E7A85" d="M326.3,392h15v-18h-15V392z M339.5,375.7v14.4h-9.4v-14.4H339.5z"/>
		</g>
	</g>
	<g>
		<g>
			<path fill="#1E7A85" d="M326.3,345.1h15v-18h-15V345.1z M339.5,328.9v14.4h-9.4v-14.4H339.5z"/>
		</g>
	</g>
	<g>
		<g>
			<path fill="#1E7A85" d="M326.3,368.2h15v-18h-15V368.2z M339.4,352v14.4h-9.4V352H339.4z"/>
		</g>
	</g>
	<g>
		<g>
			<path fill="#1E7A85" d="M326.3,461h15v-18h-15V461z M339.5,444.7v14.4h-9.4v-14.4H339.5z"/>
		</g>
	</g>
	<g>
		<g>
			<path fill="#1E7A85" d="M326.3,414.1h15v-18h-15V414.1z M339.5,397.9v14.4h-9.4v-14.4H339.5z"/>
		</g>
	</g>
	<g>
		<g>
			<path fill="#1E7A85" d="M326.3,437.2h15v-18h-15V437.2z M339.4,421v14.4h-9.4V421H339.4z"/>
		</g>
	</g>
	<g>
		<g>
			<path fill="#1E7A85" d="M326.3,507h15v-18h-15V507z M339.5,490.8v14.4h-9.4v-14.4H339.5z"/>
		</g>
	</g>
	<g>
		<g>
			<path fill="#1E7A85" d="M326.3,530.8h15v-18h-15V530.8z M339.5,514.6V529h-9.4v-14.4H339.5z"/>
		</g>
	</g>
	<g>
		<g>
			<path fill="#1E7A85" d="M326.3,483.3h15v-18h-15V483.3z M339.4,467v14.4h-9.4V467H339.4z"/>
		</g>
	</g>
</g>
<g>
	<g>
		<g>
			<path fill="#1E7A85" d="M358.1,392h15v-18h-15V392z M371.2,375.7v14.4h-9.4v-14.4H371.2z"/>
		</g>
	</g>
	<g>
		<g>
			<path fill="#1E7A85" d="M358,345.1h15v-18h-15V345.1z M371.2,328.9v14.4h-9.4v-14.4H371.2z"/>
		</g>
	</g>
	<g>
		<g>
			<path fill="#1E7A85" d="M358,368.2h15v-18h-15V368.2z M371.2,352v14.4h-9.4V352H371.2z"/>
		</g>
	</g>
	<g>
		<g>
			<path fill="#1E7A85" d="M358.1,461h15v-18h-15V461z M371.2,444.7v14.4h-9.4v-14.4H371.2z"/>
		</g>
	</g>
	<g>
		<g>
			<path fill="#1E7A85" d="M358,414.1h15v-18h-15V414.1z M371.2,397.9v14.4h-9.4v-14.4H371.2z"/>
		</g>
	</g>
	<g>
		<g>
			<path fill="#1E7A85" d="M358,437.2h15v-18h-15V437.2z M371.2,421v14.4h-9.4V421H371.2z"/>
		</g>
	</g>
	<g>
		<g>
			<path fill="#1E7A85" d="M358.1,507h15v-18h-15V507z M371.2,490.8v14.4h-9.4v-14.4H371.2z"/>
		</g>
	</g>
	<g>
		<g>
			<path fill="#1E7A85" d="M358.1,530.8h15v-18h-15V530.8z M371.2,514.6V529h-9.4v-14.4H371.2z"/>
		</g>
	</g>
	<g>
		<g>
			<path fill="#1E7A85" d="M358,483.3h15v-18h-15V483.3z M371.2,467v14.4h-9.4V467H371.2z"/>
		</g>
	</g>
</g>
<g>
	<g>
		<g>
			<path fill="#1E7A85" d="M389.8,392h15v-18h-15V392z M402.9,375.7v14.4h-9.4v-14.4H402.9z"/>
		</g>
	</g>
	<g>
		<g>
			<path fill="#1E7A85" d="M389.8,345.1h15v-18h-15V345.1z M402.9,328.9v14.4h-9.4v-14.4H402.9z"/>
		</g>
	</g>
	<g>
		<g>
			<path fill="#1E7A85" d="M389.8,368.2h15v-18h-15V368.2z M402.9,352v14.4h-9.4V352H402.9z"/>
		</g>
	</g>
	<g>
		<g>
			<path fill="#1E7A85" d="M389.8,461h15v-18h-15V461z M402.9,444.7v14.4h-9.4v-14.4H402.9z"/>
		</g>
	</g>
	<g>
		<g>
			<path fill="#1E7A85" d="M389.8,414.1h15v-18h-15V414.1z M402.9,397.9v14.4h-9.4v-14.4H402.9z"/>
		</g>
	</g>
	<g>
		<g>
			<path fill="#1E7A85" d="M389.8,437.2h15v-18h-15V437.2z M402.9,421v14.4h-9.4V421H402.9z"/>
		</g>
	</g>
	<g>
		<g>
			<path fill="#1E7A85" d="M389.8,507h15v-18h-15V507z M402.9,490.8v14.4h-9.4v-14.4H402.9z"/>
		</g>
	</g>
	<g>
		<g>
			<path fill="#1E7A85" d="M389.8,530.8h15v-18h-15V530.8z M402.9,514.6V529h-9.4v-14.4H402.9z"/>
		</g>
	</g>
	<g>
		<g>
			<path fill="#1E7A85" d="M389.8,483.3h15v-18h-15V483.3z M402.9,467v14.4h-9.4V467H402.9z"/>
		</g>
	</g>
</g>
<g>
	<g>
		<g>
			<path fill="#1E7A85" d="M421.5,392h15v-18h-15V392z M434.6,375.7v14.4h-9.4v-14.4H434.6z"/>
		</g>
	</g>
	<g>
		<g>
			<path fill="#1E7A85" d="M421.5,345.1h15v-18h-15V345.1z M434.6,328.9v14.4h-9.4v-14.4H434.6z"/>
		</g>
	</g>
	<g>
		<g>
			<path fill="#1E7A85" d="M421.5,368.2h15v-18h-15V368.2z M434.6,352v14.4h-9.4V352H434.6z"/>
		</g>
	</g>
	<g>
		<g>
			<path fill="#1E7A85" d="M421.5,461h15v-18h-15V461z M434.6,444.7v14.4h-9.4v-14.4H434.6z"/>
		</g>
	</g>
	<g>
		<g>
			<path fill="#1E7A85" d="M421.5,414.1h15v-18h-15V414.1z M434.6,397.9v14.4h-9.4v-14.4H434.6z"/>
		</g>
	</g>
	<g>
		<g>
			<path fill="#1E7A85" d="M421.5,437.2h15v-18h-15V437.2z M434.6,421v14.4h-9.4V421H434.6z"/>
		</g>
	</g>
	<g>
		<g>
			<path fill="#1E7A85" d="M421.5,507h15v-18h-15V507z M434.6,490.8v14.4h-9.4v-14.4H434.6z"/>
		</g>
	</g>
	<g>
		<g>
			<path fill="#1E7A85" d="M421.5,530.8h15v-18h-15V530.8z M434.6,514.6V529h-9.4v-14.4H434.6z"/>
		</g>
	</g>
	<g>
		<g>
			<path fill="#1E7A85" d="M421.5,483.3h15v-18h-15V483.3z M434.6,467v14.4h-9.4V467H434.6z"/>
		</g>
	</g>
</g>
<g>
	<g>
		<g>
			<path fill="#1E7A85" d="M453.2,392h15v-18h-15V392z M466.4,375.7v14.4H457v-14.4H466.4z"/>
		</g>
	</g>
	<g>
		<g>
			<path fill="#1E7A85" d="M453.2,345.1h15v-18h-15V345.1z M466.3,328.9v14.4H457v-14.4H466.3z"/>
		</g>
	</g>
	<g>
		<g>
			<path fill="#1E7A85" d="M453.2,368.2h15v-18h-15V368.2z M466.3,352v14.4H457V352H466.3z"/>
		</g>
	</g>
	<g>
		<g>
			<path fill="#1E7A85" d="M453.2,461h15v-18h-15V461z M466.4,444.7v14.4H457v-14.4H466.4z"/>
		</g>
	</g>
	<g>
		<g>
			<path fill="#1E7A85" d="M453.2,414.1h15v-18h-15V414.1z M466.3,397.9v14.4H457v-14.4H466.3z"/>
		</g>
	</g>
	<g>
		<g>
			<path fill="#1E7A85" d="M453.2,437.2h15v-18h-15V437.2z M466.3,421v14.4H457V421H466.3z"/>
		</g>
	</g>
	<g>
		<g>
			<path fill="#1E7A85" d="M453.2,507h15v-18h-15V507z M466.4,490.8v14.4H457v-14.4H466.4z"/>
		</g>
	</g>
	<g>
		<g>
			<path fill="#1E7A85" d="M453.2,530.8h15v-18h-15V530.8z M466.4,514.6V529H457v-14.4H466.4z"/>
		</g>
	</g>
	<g>
		<g>
			<path fill="#1E7A85" d="M453.2,483.3h15v-18h-15V483.3z M466.3,467v14.4H457V467H466.3z"/>
		</g>
	</g>
</g>
<g>
	<g>
		<g>
			<path fill="#1E7A85" d="M485,392h15v-18h-15V392z M498.1,375.7v14.4h-9.4v-14.4H498.1z"/>
		</g>
	</g>
	<g>
		<g>
			<path fill="#1E7A85" d="M484.9,345.1h15v-18h-15V345.1z M498.1,328.9v14.4h-9.4v-14.4H498.1z"/>
		</g>
	</g>
	<g>
		<g>
			<path fill="#1E7A85" d="M484.9,368.2h15v-18h-15V368.2z M498.1,352v14.4h-9.4V352H498.1z"/>
		</g>
	</g>
	<g>
		<g>
			<path fill="#1E7A85" d="M485,461h15v-18h-15V461z M498.1,444.7v14.4h-9.4v-14.4H498.1z"/>
		</g>
	</g>
	<g>
		<g>
			<path fill="#1E7A85" d="M484.9,414.1h15v-18h-15V414.1z M498.1,397.9v14.4h-9.4v-14.4H498.1z"/>
		</g>
	</g>
	<g>
		<g>
			<path fill="#1E7A85" d="M484.9,437.2h15v-18h-15V437.2z M498.1,421v14.4h-9.4V421H498.1z"/>
		</g>
	</g>
	<g>
		<g>
			<path fill="#1E7A85" d="M485,507h15v-18h-15V507z M498.1,490.8v14.4h-9.4v-14.4H498.1z"/>
		</g>
	</g>
	<g>
		<g>
			<path fill="#1E7A85" d="M485,530.8h15v-18h-15V530.8z M498.1,514.6V529h-9.4v-14.4H498.1z"/>
		</g>
	</g>
	<g>
		<g>
			<path fill="#1E7A85" d="M484.9,483.3h15v-18h-15V483.3z M498.1,467v14.4h-9.4V467H498.1z"/>
		</g>
	</g>
</g>
<g>
	<g>
		<g>
			<path fill="#1E7A85" d="M516.7,392h15v-18h-15V392z M529.8,375.7v14.4h-9.4v-14.4H529.8z"/>
		</g>
	</g>
	<g>
		<g>
			<path fill="#1E7A85" d="M516.7,345.1h15v-18h-15V345.1z M529.8,328.9v14.4h-9.4v-14.4H529.8z"/>
		</g>
	</g>
	<g>
		<g>
			<path fill="#1E7A85" d="M516.7,368.2h15v-18h-15V368.2z M529.8,352v14.4h-9.4V352H529.8z"/>
		</g>
	</g>
	<g>
		<g>
			<path fill="#1E7A85" d="M516.7,461h15v-18h-15V461z M529.8,444.7v14.4h-9.4v-14.4H529.8z"/>
		</g>
	</g>
	<g>
		<g>
			<path fill="#1E7A85" d="M516.7,414.1h15v-18h-15V414.1z M529.8,397.9v14.4h-9.4v-14.4H529.8z"/>
		</g>
	</g>
	<g>
		<g>
			<path fill="#1E7A85" d="M516.7,437.2h15v-18h-15V437.2z M529.8,421v14.4h-9.4V421H529.8z"/>
		</g>
	</g>
	<g>
		<g>
			<path fill="#1E7A85" d="M516.7,507h15v-18h-15V507z M529.8,490.8v14.4h-9.4v-14.4H529.8z"/>
		</g>
	</g>
	<g>
		<g>
			<path fill="#1E7A85" d="M516.7,530.8h15v-18h-15V530.8z M529.8,514.6V529h-9.4v-14.4H529.8z"/>
		</g>
	</g>
	<g>
		<g>
			<path fill="#1E7A85" d="M516.7,483.3h15v-18h-15V483.3z M529.8,467v14.4h-9.4V467H529.8z"/>
		</g>
	</g>
</g>
<g>
	<g>
		<g>
			<path fill="#1E7A85" d="M548.4,392h15v-18h-15V392z M561.5,375.7v14.4h-9.4v-14.4H561.5z"/>
		</g>
	</g>
	<g>
		<g>
			<path fill="#1E7A85" d="M548.4,345.1h15v-18h-15V345.1z M561.5,328.9v14.4h-9.4v-14.4H561.5z"/>
		</g>
	</g>
	<g>
		<g>
			<path fill="#1E7A85" d="M548.4,368.2h15v-18h-15V368.2z M561.5,352v14.4h-9.4V352H561.5z"/>
		</g>
	</g>
	<g>
		<g>
			<path fill="#1E7A85" d="M548.4,461h15v-18h-15V461z M561.5,444.7v14.4h-9.4v-14.4H561.5z"/>
		</g>
	</g>
	<g>
		<g>
			<path fill="#1E7A85" d="M548.4,414.1h15v-18h-15V414.1z M561.5,397.9v14.4h-9.4v-14.4H561.5z"/>
		</g>
	</g>
	<g>
		<g>
			<path fill="#1E7A85" d="M548.4,437.2h15v-18h-15V437.2z M561.5,421v14.4h-9.4V421H561.5z"/>
		</g>
	</g>
	<g>
		<g>
			<path fill="#1E7A85" d="M548.4,507h15v-18h-15V507z M561.5,490.8v14.4h-9.4v-14.4H561.5z"/>
		</g>
	</g>
	<g>
		<g>
			<path fill="#1E7A85" d="M548.4,483.3h15v-18h-15V483.3z M561.5,467v14.4h-9.4V467H561.5z"/>
		</g>
	</g>
</g>
<g>
	<g>
		<g>
			<path fill="#1E7A85" d="M136,156.1h15v-18h-15V156.1z M149.1,139.9v14.4h-9.4v-14.4H149.1z"/>
		</g>
	</g>
	<g>
		<g>
			<path fill="#1E7A85" d="M136,109.3h15v-18h-15V109.3z M149.1,93v14.4h-9.4V93H149.1z"/>
		</g>
	</g>
	<g>
		<g>
			<path fill="#1E7A85" d="M136,132.4h15v-18h-15V132.4z M149.1,116.1v14.4h-9.4v-14.4H149.1z"/>
		</g>
	</g>
	<g>
		<g>
			<path fill="#1E7A85" d="M136,225.1h15v-18h-15V225.1z M149.1,208.9v14.4h-9.4v-14.4H149.1z"/>
		</g>
	</g>
	<g>
		<g>
			<path fill="#1E7A85" d="M136,178.3h15v-18h-15V178.3z M149.1,162.1v14.4h-9.4v-14.4H149.1z"/>
		</g>
	</g>
	<g>
		<g>
			<path fill="#1E7A85" d="M136,201.4h15v-18h-15V201.4z M149.1,185.1v14.4h-9.4v-14.4H149.1z"/>
		</g>
	</g>
	<g>
		<g>
			<path fill="#1E7A85" d="M136,271.2h15v-18h-15V271.2z M149.1,255v14.4h-9.4V255H149.1z"/>
		</g>
	</g>
	<g>
		<g>
			<path fill="#1E7A85" d="M136,295h15v-18h-15V295z M149.1,278.8v14.4h-9.4v-14.4H149.1z"/>
		</g>
	</g>
	<g>
		<g>
			<path fill="#1E7A85" d="M136,247.4h15v-18h-15V247.4z M149.1,231.2v14.4h-9.4v-14.4H149.1z"/>
		</g>
	</g>
</g>
<g>
	<g>
		<g>
			<path fill="#1E7A85" d="M167.7,156.1h15v-18h-15V156.1z M180.8,139.9v14.4h-9.4v-14.4H180.8z"/>
		</g>
	</g>
	<g>
		<g>
			<path fill="#1E7A85" d="M167.7,109.3h15v-18h-15V109.3z M180.8,93v14.4h-9.4V93H180.8z"/>
		</g>
	</g>
	<g>
		<g>
			<path fill="#1E7A85" d="M167.7,132.4h15v-18h-15V132.4z M180.8,116.1v14.4h-9.4v-14.4H180.8z"/>
		</g>
	</g>
	<g>
		<g>
			<path fill="#1E7A85" d="M167.7,225.1h15v-18h-15V225.1z M180.8,208.9v14.4h-9.4v-14.4H180.8z"/>
		</g>
	</g>
	<g>
		<g>
			<path fill="#1E7A85" d="M167.7,178.3h15v-18h-15V178.3z M180.8,162.1v14.4h-9.4v-14.4H180.8z"/>
		</g>
	</g>
	<g>
		<g>
			<path fill="#1E7A85" d="M167.7,201.4h15v-18h-15V201.4z M180.8,185.1v14.4h-9.4v-14.4H180.8z"/>
		</g>
	</g>
	<g>
		<g>
			<path fill="#1E7A85" d="M167.7,271.2h15v-18h-15V271.2z M180.8,255v14.4h-9.4V255H180.8z"/>
		</g>
	</g>
	<g>
		<g>
			<path fill="#1E7A85" d="M167.7,295h15v-18h-15V295z M180.8,278.8v14.4h-9.4v-14.4H180.8z"/>
		</g>
	</g>
	<g>
		<g>
			<path fill="#1E7A85" d="M167.7,247.4h15v-18h-15V247.4z M180.8,231.2v14.4h-9.4v-14.4H180.8z"/>
		</g>
	</g>
</g>
<g>
	<g>
		<g>
			<path fill="#1E7A85" d="M199.4,156.1h15v-18h-15V156.1z M212.6,139.9v14.4h-9.4v-14.4H212.6z"/>
		</g>
	</g>
	<g>
		<g>
			<path fill="#1E7A85" d="M199.4,109.3h15v-18h-15V109.3z M212.6,93v14.4h-9.4V93H212.6z"/>
		</g>
	</g>
	<g>
		<g>
			<path fill="#1E7A85" d="M199.4,132.4h15v-18h-15V132.4z M212.5,116.1v14.4h-9.4v-14.4H212.5z"/>
		</g>
	</g>
	<g>
		<g>
			<path fill="#1E7A85" d="M199.4,225.1h15v-18h-15V225.1z M212.6,208.9v14.4h-9.4v-14.4H212.6z"/>
		</g>
	</g>
	<g>
		<g>
			<path fill="#1E7A85" d="M199.4,178.3h15v-18h-15V178.3z M212.6,162.1v14.4h-9.4v-14.4H212.6z"/>
		</g>
	</g>
	<g>
		<g>
			<path fill="#1E7A85" d="M199.4,201.4h15v-18h-15V201.4z M212.5,185.1v14.4h-9.4v-14.4H212.5z"/>
		</g>
	</g>
	<g>
		<g>
			<path fill="#1E7A85" d="M199.4,271.2h15v-18h-15V271.2z M212.6,255v14.4h-9.4V255H212.6z"/>
		</g>
	</g>
	<g>
		<g>
			<path fill="#1E7A85" d="M199.4,295h15v-18h-15V295z M212.6,278.8v14.4h-9.4v-14.4H212.6z"/>
		</g>
	</g>
	<g>
		<g>
			<path fill="#1E7A85" d="M199.4,247.4h15v-18h-15V247.4z M212.5,231.2v14.4h-9.4v-14.4H212.5z"/>
		</g>
	</g>
</g>
<g>
	<g>
		<g>
			<path fill="#1E7A85" d="M231.2,156.1h15v-18h-15V156.1z M244.3,139.9v14.4h-9.4v-14.4H244.3z"/>
		</g>
	</g>
	<g>
		<g>
			<path fill="#1E7A85" d="M231.1,109.3h15v-18h-15V109.3z M244.3,93v14.4h-9.4V93H244.3z"/>
		</g>
	</g>
	<g>
		<g>
			<path fill="#1E7A85" d="M231.1,132.4h15v-18h-15V132.4z M244.3,116.1v14.4h-9.4v-14.4H244.3z"/>
		</g>
	</g>
	<g>
		<g>
			<path fill="#1E7A85" d="M231.2,225.1h15v-18h-15V225.1z M244.3,208.9v14.4h-9.4v-14.4H244.3z"/>
		</g>
	</g>
	<g>
		<g>
			<path fill="#1E7A85" d="M231.1,178.3h15v-18h-15V178.3z M244.3,162.1v14.4h-9.4v-14.4H244.3z"/>
		</g>
	</g>
	<g>
		<g>
			<path fill="#1E7A85" d="M231.1,201.4h15v-18h-15V201.4z M244.3,185.1v14.4h-9.4v-14.4H244.3z"/>
		</g>
	</g>
	<g>
		<g>
			<path fill="#1E7A85" d="M231.2,271.2h15v-18h-15V271.2z M244.3,255v14.4h-9.4V255H244.3z"/>
		</g>
	</g>
	<g>
		<g>
			<path fill="#1E7A85" d="M231.2,295h15v-18h-15V295z M244.3,278.8v14.4h-9.4v-14.4H244.3z"/>
		</g>
	</g>
	<g>
		<g>
			<path fill="#1E7A85" d="M231.1,247.4h15v-18h-15V247.4z M244.3,231.2v14.4h-9.4v-14.4H244.3z"/>
		</g>
	</g>
</g>
<g>
	<g>
		<g>
			<path fill="#1E7A85" d="M262.9,156.1h15v-18h-15V156.1z M276,139.9v14.4h-9.4v-14.4H276z"/>
		</g>
	</g>
	<g>
		<g>
			<path fill="#1E7A85" d="M262.9,109.3h15v-18h-15V109.3z M276,93v14.4h-9.4V93H276z"/>
		</g>
	</g>
	<g>
		<g>
			<path fill="#1E7A85" d="M262.9,132.4h15v-18h-15V132.4z M276,116.1v14.4h-9.4v-14.4H276z"/>
		</g>
	</g>
	<g>
		<g>
			<path fill="#1E7A85" d="M262.9,225.1h15v-18h-15V225.1z M276,208.9v14.4h-9.4v-14.4H276z"/>
		</g>
	</g>
	<g>
		<g>
			<path fill="#1E7A85" d="M262.9,178.3h15v-18h-15V178.3z M276,162.1v14.4h-9.4v-14.4H276z"/>
		</g>
	</g>
	<g>
		<g>
			<path fill="#1E7A85" d="M262.9,201.4h15v-18h-15V201.4z M276,185.1v14.4h-9.4v-14.4H276z"/>
		</g>
	</g>
	<g>
		<g>
			<path fill="#1E7A85" d="M262.9,271.2h15v-18h-15V271.2z M276,255v14.4h-9.4V255H276z"/>
		</g>
	</g>
	<g>
		<g>
			<path fill="#1E7A85" d="M262.9,295h15v-18h-15V295z M276,278.8v14.4h-9.4v-14.4H276z"/>
		</g>
	</g>
	<g>
		<g>
			<path fill="#1E7A85" d="M262.9,247.4h15v-18h-15V247.4z M276,231.2v14.4h-9.4v-14.4H276z"/>
		</g>
	</g>
</g>
<g>
	<g>
		<g>
			<path fill="#1E7A85" d="M294.6,156.1h15v-18h-15V156.1z M307.7,139.9v14.4h-9.4v-14.4H307.7z"/>
		</g>
	</g>
	<g>
		<g>
			<path fill="#1E7A85" d="M294.6,109.3h15v-18h-15V109.3z M307.7,93v14.4h-9.4V93H307.7z"/>
		</g>
	</g>
	<g>
		<g>
			<path fill="#1E7A85" d="M294.6,132.4h15v-18h-15V132.4z M307.7,116.1v14.4h-9.4v-14.4H307.7z"/>
		</g>
	</g>
	<g>
		<g>
			<path fill="#1E7A85" d="M294.6,225.1h15v-18h-15V225.1z M307.7,208.9v14.4h-9.4v-14.4H307.7z"/>
		</g>
	</g>
	<g>
		<g>
			<path fill="#1E7A85" d="M294.6,178.3h15v-18h-15V178.3z M307.7,162.1v14.4h-9.4v-14.4H307.7z"/>
		</g>
	</g>
	<g>
		<g>
			<path fill="#1E7A85" d="M294.6,201.4h15v-18h-15V201.4z M307.7,185.1v14.4h-9.4v-14.4H307.7z"/>
		</g>
	</g>
	<g>
		<g>
			<path fill="#1E7A85" d="M294.6,271.2h15v-18h-15V271.2z M307.7,255v14.4h-9.4V255H307.7z"/>
		</g>
	</g>
	<g>
		<g>
			<path fill="#1E7A85" d="M294.6,295h15v-18h-15V295z M307.7,278.8v14.4h-9.4v-14.4H307.7z"/>
		</g>
	</g>
	<g>
		<g>
			<path fill="#1E7A85" d="M294.6,247.4h15v-18h-15V247.4z M307.7,231.2v14.4h-9.4v-14.4H307.7z"/>
		</g>
	</g>
</g>
<g>
	<g>
		<g>
			<path fill="#1E7A85" d="M326.3,156.1h15v-18h-15V156.1z M339.5,139.9v14.4h-9.4v-14.4H339.5z"/>
		</g>
	</g>
	<g>
		<g>
			<path fill="#1E7A85" d="M326.3,109.3h15v-18h-15V109.3z M339.5,93v14.4h-9.4V93H339.5z"/>
		</g>
	</g>
	<g>
		<g>
			<path fill="#1E7A85" d="M326.3,132.4h15v-18h-15V132.4z M339.4,116.1v14.4h-9.4v-14.4H339.4z"/>
		</g>
	</g>
	<g>
		<g>
			<path fill="#1E7A85" d="M326.3,225.1h15v-18h-15V225.1z M339.5,208.9v14.4h-9.4v-14.4H339.5z"/>
		</g>
	</g>
	<g>
		<g>
			<path fill="#1E7A85" d="M326.3,178.3h15v-18h-15V178.3z M339.5,162.1v14.4h-9.4v-14.4H339.5z"/>
		</g>
	</g>
	<g>
		<g>
			<path fill="#1E7A85" d="M326.3,201.4h15v-18h-15V201.4z M339.4,185.1v14.4h-9.4v-14.4H339.4z"/>
		</g>
	</g>
	<g>
		<g>
			<path fill="#1E7A85" d="M326.3,271.2h15v-18h-15V271.2z M339.5,255v14.4h-9.4V255H339.5z"/>
		</g>
	</g>
	<g>
		<g>
			<path fill="#1E7A85" d="M326.3,295h15v-18h-15V295z M339.5,278.8v14.4h-9.4v-14.4H339.5z"/>
		</g>
	</g>
	<g>
		<g>
			<path fill="#1E7A85" d="M326.3,247.4h15v-18h-15V247.4z M339.4,231.2v14.4h-9.4v-14.4H339.4z"/>
		</g>
	</g>
</g>
<g>
	<g>
		<g>
			<path fill="#1E7A85" d="M358.1,156.1h15v-18h-15V156.1z M371.2,139.9v14.4h-9.4v-14.4H371.2z"/>
		</g>
	</g>
	<g>
		<g>
			<path fill="#1E7A85" d="M358,109.3h15v-18h-15V109.3z M371.2,93v14.4h-9.4V93H371.2z"/>
		</g>
	</g>
	<g>
		<g>
			<path fill="#1E7A85" d="M358,132.4h15v-18h-15V132.4z M371.2,116.1v14.4h-9.4v-14.4H371.2z"/>
		</g>
	</g>
	<g>
		<g>
			<path fill="#1E7A85" d="M358.1,225.1h15v-18h-15V225.1z M371.2,208.9v14.4h-9.4v-14.4H371.2z"/>
		</g>
	</g>
	<g>
		<g>
			<path fill="#1E7A85" d="M358,178.3h15v-18h-15V178.3z M371.2,162.1v14.4h-9.4v-14.4H371.2z"/>
		</g>
	</g>
	<g>
		<g>
			<path fill="#1E7A85" d="M358,201.4h15v-18h-15V201.4z M371.2,185.1v14.4h-9.4v-14.4H371.2z"/>
		</g>
	</g>
	<g>
		<g>
			<path fill="#1E7A85" d="M358.1,271.2h15v-18h-15V271.2z M371.2,255v14.4h-9.4V255H371.2z"/>
		</g>
	</g>
	<g>
		<g>
			<path fill="#1E7A85" d="M358.1,295h15v-18h-15V295z M371.2,278.8v14.4h-9.4v-14.4H371.2z"/>
		</g>
	</g>
	<g>
		<g>
			<path fill="#1E7A85" d="M358,247.4h15v-18h-15V247.4z M371.2,231.2v14.4h-9.4v-14.4H371.2z"/>
		</g>
	</g>
</g>
<g>
	<g>
		<g>
			<path fill="#1E7A85" d="M389.8,156.1h15v-18h-15V156.1z M402.9,139.9v14.4h-9.4v-14.4H402.9z"/>
		</g>
	</g>
	<g>
		<g>
			<path fill="#1E7A85" d="M389.8,109.3h15v-18h-15V109.3z M402.9,93v14.4h-9.4V93H402.9z"/>
		</g>
	</g>
	<g>
		<g>
			<path fill="#1E7A85" d="M389.8,132.4h15v-18h-15V132.4z M402.9,116.1v14.4h-9.4v-14.4H402.9z"/>
		</g>
	</g>
	<g>
		<g>
			<path fill="#1E7A85" d="M389.8,225.1h15v-18h-15V225.1z M402.9,208.9v14.4h-9.4v-14.4H402.9z"/>
		</g>
	</g>
	<g>
		<g>
			<path fill="#1E7A85" d="M389.8,178.3h15v-18h-15V178.3z M402.9,162.1v14.4h-9.4v-14.4H402.9z"/>
		</g>
	</g>
	<g>
		<g>
			<path fill="#1E7A85" d="M389.8,201.4h15v-18h-15V201.4z M402.9,185.1v14.4h-9.4v-14.4H402.9z"/>
		</g>
	</g>
	<g>
		<g>
			<path fill="#1E7A85" d="M389.8,271.2h15v-18h-15V271.2z M402.9,255v14.4h-9.4V255H402.9z"/>
		</g>
	</g>
	<g>
		<g>
			<path fill="#1E7A85" d="M389.8,295h15v-18h-15V295z M402.9,278.8v14.4h-9.4v-14.4H402.9z"/>
		</g>
	</g>
	<g>
		<g>
			<path fill="#1E7A85" d="M389.8,247.4h15v-18h-15V247.4z M402.9,231.2v14.4h-9.4v-14.4H402.9z"/>
		</g>
	</g>
</g>
<g>
	<g>
		<g>
			<path fill="#1E7A85" d="M421.5,156.1h15v-18h-15V156.1z M434.6,139.9v14.4h-9.4v-14.4H434.6z"/>
		</g>
	</g>
	<g>
		<g>
			<path fill="#1E7A85" d="M421.5,109.3h15v-18h-15V109.3z M434.6,93v14.4h-9.4V93H434.6z"/>
		</g>
	</g>
	<g>
		<g>
			<path fill="#1E7A85" d="M421.5,132.4h15v-18h-15V132.4z M434.6,116.1v14.4h-9.4v-14.4H434.6z"/>
		</g>
	</g>
	<g>
		<g>
			<path fill="#1E7A85" d="M421.5,225.1h15v-18h-15V225.1z M434.6,208.9v14.4h-9.4v-14.4H434.6z"/>
		</g>
	</g>
	<g>
		<g>
			<path fill="#1E7A85" d="M421.5,178.3h15v-18h-15V178.3z M434.6,162.1v14.4h-9.4v-14.4H434.6z"/>
		</g>
	</g>
	<g>
		<g>
			<path fill="#1E7A85" d="M421.5,201.4h15v-18h-15V201.4z M434.6,185.1v14.4h-9.4v-14.4H434.6z"/>
		</g>
	</g>
	<g>
		<g>
			<path fill="#1E7A85" d="M421.5,271.2h15v-18h-15V271.2z M434.6,255v14.4h-9.4V255H434.6z"/>
		</g>
	</g>
	<g>
		<g>
			<path fill="#1E7A85" d="M421.5,295h15v-18h-15V295z M434.6,278.8v14.4h-9.4v-14.4H434.6z"/>
		</g>
	</g>
	<g>
		<g>
			<path fill="#1E7A85" d="M421.5,247.4h15v-18h-15V247.4z M434.6,231.2v14.4h-9.4v-14.4H434.6z"/>
		</g>
	</g>
</g>
<g>
	<g>
		<g>
			<path fill="#1E7A85" d="M453.2,156.1h15v-18h-15V156.1z M466.4,139.9v14.4H457v-14.4H466.4z"/>
		</g>
	</g>
	<g>
		<g>
			<path fill="#1E7A85" d="M453.2,109.3h15v-18h-15V109.3z M466.3,93v14.4H457V93H466.3z"/>
		</g>
	</g>
	<g>
		<g>
			<path fill="#1E7A85" d="M453.2,132.4h15v-18h-15V132.4z M466.3,116.1v14.4H457v-14.4H466.3z"/>
		</g>
	</g>
	<g>
		<g>
			<path fill="#1E7A85" d="M453.2,225.1h15v-18h-15V225.1z M466.4,208.9v14.4H457v-14.4H466.4z"/>
		</g>
	</g>
	<g>
		<g>
			<path fill="#1E7A85" d="M453.2,178.3h15v-18h-15V178.3z M466.3,162.1v14.4H457v-14.4H466.3z"/>
		</g>
	</g>
	<g>
		<g>
			<path fill="#1E7A85" d="M453.2,201.4h15v-18h-15V201.4z M466.3,185.1v14.4H457v-14.4H466.3z"/>
		</g>
	</g>
	<g>
		<g>
			<path fill="#1E7A85" d="M453.2,271.2h15v-18h-15V271.2z M466.4,255v14.4H457V255H466.4z"/>
		</g>
	</g>
	<g>
		<g>
			<path fill="#1E7A85" d="M453.2,295h15v-18h-15V295z M466.4,278.8v14.4H457v-14.4H466.4z"/>
		</g>
	</g>
	<g>
		<g>
			<path fill="#1E7A85" d="M453.2,247.4h15v-18h-15V247.4z M466.3,231.2v14.4H457v-14.4H466.3z"/>
		</g>
	</g>
</g>
<g>
	<g>
		<g>
			<path fill="#1E7A85" d="M485,156.1h15v-18h-15V156.1z M498.1,139.9v14.4h-9.4v-14.4H498.1z"/>
		</g>
	</g>
	<g>
		<g>
			<path fill="#1E7A85" d="M484.9,109.3h15v-18h-15V109.3z M498.1,93v14.4h-9.4V93H498.1z"/>
		</g>
	</g>
	<g>
		<g>
			<path fill="#1E7A85" d="M484.9,132.4h15v-18h-15V132.4z M498.1,116.1v14.4h-9.4v-14.4H498.1z"/>
		</g>
	</g>
	<g>
		<g>
			<path fill="#1E7A85" d="M485,225.1h15v-18h-15V225.1z M498.1,208.9v14.4h-9.4v-14.4H498.1z"/>
		</g>
	</g>
	<g>
		<g>
			<path fill="#1E7A85" d="M484.9,178.3h15v-18h-15V178.3z M498.1,162.1v14.4h-9.4v-14.4H498.1z"/>
		</g>
	</g>
	<g>
		<g>
			<path fill="#1E7A85" d="M484.9,201.4h15v-18h-15V201.4z M498.1,185.1v14.4h-9.4v-14.4H498.1z"/>
		</g>
	</g>
	<g>
		<g>
			<path fill="#1E7A85" d="M485,271.2h15v-18h-15V271.2z M498.1,255v14.4h-9.4V255H498.1z"/>
		</g>
	</g>
	<g>
		<g>
			<path fill="#1E7A85" d="M485,295h15v-18h-15V295z M498.1,278.8v14.4h-9.4v-14.4H498.1z"/>
		</g>
	</g>
	<g>
		<g>
			<path fill="#1E7A85" d="M484.9,247.4h15v-18h-15V247.4z M498.1,231.2v14.4h-9.4v-14.4H498.1z"/>
		</g>
	</g>
</g>
<g>
	<g>
		<g>
			<path fill="#1E7A85" d="M516.7,156.1h15v-18h-15V156.1z M529.8,139.9v14.4h-9.4v-14.4H529.8z"/>
		</g>
	</g>
	<g>
		<g>
			<path fill="#1E7A85" d="M516.7,109.3h15v-18h-15V109.3z M529.8,93v14.4h-9.4V93H529.8z"/>
		</g>
	</g>
	<g>
		<g>
			<path fill="#1E7A85" d="M516.7,132.4h15v-18h-15V132.4z M529.8,116.1v14.4h-9.4v-14.4H529.8z"/>
		</g>
	</g>
	<g>
		<g>
			<path fill="#1E7A85" d="M516.7,225.1h15v-18h-15V225.1z M529.8,208.9v14.4h-9.4v-14.4H529.8z"/>
		</g>
	</g>
	<g>
		<g>
			<path fill="#1E7A85" d="M516.7,178.3h15v-18h-15V178.3z M529.8,162.1v14.4h-9.4v-14.4H529.8z"/>
		</g>
	</g>
	<g>
		<g>
			<path fill="#1E7A85" d="M516.7,201.4h15v-18h-15V201.4z M529.8,185.1v14.4h-9.4v-14.4H529.8z"/>
		</g>
	</g>
	<g>
		<g>
			<path fill="#1E7A85" d="M516.7,271.2h15v-18h-15V271.2z M529.8,255v14.4h-9.4V255H529.8z"/>
		</g>
	</g>
	<g>
		<g>
			<path fill="#1E7A85" d="M516.7,295h15v-18h-15V295z M529.8,278.8v14.4h-9.4v-14.4H529.8z"/>
		</g>
	</g>
	<g>
		<g>
			<path fill="#1E7A85" d="M516.7,247.4h15v-18h-15V247.4z M529.8,231.2v14.4h-9.4v-14.4H529.8z"/>
		</g>
	</g>
</g>
<g>
	<g>
		<g>
			<path fill="#1E7A85" d="M548.4,156.1h15v-18h-15V156.1z M561.5,139.9v14.4h-9.4v-14.4H561.5z"/>
		</g>
	</g>
	<g>
		<g>
			<path fill="#1E7A85" d="M548.4,132.4h15v-18h-15V132.4z M561.5,116.1v14.4h-9.4v-14.4H561.5z"/>
		</g>
	</g>
	<g>
		<g>
			<path fill="#1E7A85" d="M548.4,225.1h15v-18h-15V225.1z M561.5,208.9v14.4h-9.4v-14.4H561.5z"/>
		</g>
	</g>
	<g>
		<g>
			<path fill="#1E7A85" d="M548.4,178.3h15v-18h-15V178.3z M561.5,162.1v14.4h-9.4v-14.4H561.5z"/>
		</g>
	</g>
	<g>
		<g>
			<path fill="#1E7A85" d="M548.4,201.4h15v-18h-15V201.4z M561.5,185.1v14.4h-9.4v-14.4H561.5z"/>
		</g>
	</g>
	<g>
		<g>
			<path fill="#1E7A85" d="M548.4,271.2h15v-18h-15V271.2z M561.5,255v14.4h-9.4V255H561.5z"/>
		</g>
	</g>
	<g>
		<g>
			<path fill="#1E7A85" d="M548.4,295h15v-18h-15V295z M561.5,278.8v14.4h-9.4v-14.4H561.5z"/>
		</g>
	</g>
	<g>
		<g>
			<path fill="#1E7A85" d="M548.4,247.4h15v-18h-15V247.4z M561.5,231.2v14.4h-9.4v-14.4H561.5z"/>
		</g>
	</g>
</g>
</svg>
