<?xml version="1.0" encoding="utf-8"?>
<!-- Generator: Adobe Illustrator 18.1.1, SVG Export Plug-In . SVG Version: 6.00 Build 0)  -->
<!DOCTYPE svg PUBLIC "-//W3C//DTD SVG 1.1//EN" "http://www.w3.org/Graphics/SVG/1.1/DTD/svg11.dtd">
<svg version="1.1" id="Layer_1" xmlns="http://www.w3.org/2000/svg" xmlns:xlink="http://www.w3.org/1999/xlink" x="0px" y="0px"
	 viewBox="0 0 1920 1080" enable-background="new 0 0 1920 1080" xml:space="preserve">
<g>
	<g>
		<g>
			<polygon fill="#FFFFFF" points="582.2,164 718.9,121.5 739.1,188 602.4,230.4 			"/>
			<path fill="#1E7A85" d="M601.8,231.4l-20.6-67.9l0.7-0.2l137.5-42.7l20.6,67.9l-0.7,0.2L601.8,231.4z M583.2,164.5l19.7,64.9
				l135.2-41.9l-19.7-64.9L583.2,164.5z"/>
		</g>
		<g>
			<g>
				<path fill="#1E7A85" d="M550.7,241.3l44.4-13.5l-16.2-53.4l-44.4,13.5L550.7,241.3z M575,181.4l12.9,42.7l-27.8,8.4l-13-42.7
					L575,181.4z"/>
			</g>
		</g>
		<g>
			<g>
				<path fill="#1E7A85" d="M771.9,114.9l-44.4,13.5l16.2,53.4l44.4-13.5L771.9,114.9z M747.6,174.8l-13-42.7l27.8-8.4l13,42.7
					L747.6,174.8z"/>
			</g>
		</g>
		<g>
			<g>
				<path fill="#1E7A85" d="M638.8,90.1l13.5,44.5l53.3-16.2l-13.5-44.5L638.8,90.1z M698.6,114.4l-42.7,13l-8.4-27.8l42.7-13
					L698.6,114.4z"/>
			</g>
		</g>
		<g>
			<g>
				<path fill="#1E7A85" d="M577.5,109l13.5,44.5l53.3-16.2l-13.5-44.5L577.5,109z M637.3,133.3l-42.7,13l-8.4-27.8l42.7-13
					L637.3,133.3z"/>
			</g>
		</g>
	</g>
	<g>
		<g>
			<polygon fill="#FFFFFF" points="582.2,362.8 718.9,320.4 739.1,386.8 602.4,429.2 			"/>
			<path fill="#1E7A85" d="M601.8,430.2l-20.6-67.9l0.7-0.2l137.5-42.7l20.6,68l-0.7,0.2L601.8,430.2z M583.2,363.3l19.7,64.9
				l135.2-41.9l-19.7-64.9L583.2,363.3z"/>
		</g>
		<g>
			<g>
				<path fill="#1E7A85" d="M550.7,440.1l44.4-13.5l-16.2-53.4l-44.4,13.5L550.7,440.1z M575,380.3l12.9,42.7l-27.8,8.4l-13-42.7
					L575,380.3z"/>
			</g>
		</g>
		<g>
			<g>
				<path fill="#1E7A85" d="M771.9,313.8l-44.4,13.5l16.2,53.4l44.4-13.5L771.9,313.8z M747.6,373.6l-13-42.7l27.8-8.4l13,42.7
					L747.6,373.6z"/>
			</g>
		</g>
		<g>
			<g>
				<path fill="#1E7A85" d="M638.8,288.9l13.5,44.5l53.3-16.2l-13.5-44.5L638.8,288.9z M698.6,313.2l-42.7,13l-8.4-27.8l42.7-13
					L698.6,313.2z"/>
			</g>
		</g>
		<g>
			<g>
				<path fill="#1E7A85" d="M577.5,307.8l13.5,44.5l53.3-16.2l-13.5-44.5L577.5,307.8z M637.3,332.1l-42.7,13l-8.4-27.8l42.7-13
					L637.3,332.1z"/>
			</g>
		</g>
	</g>
	<g>
		<g>
			<polygon fill="#FFFFFF" points="582.2,561.6 718.9,519.2 739.1,585.6 602.4,628 			"/>
			<path fill="#1E7A85" d="M601.8,629l-20.6-67.9l0.7-0.2l137.5-42.7l20.6,68l-0.7,0.2L601.8,629z M583.2,562.1l19.7,64.9
				l135.2-41.9l-19.7-64.9L583.2,562.1z"/>
		</g>
		<g>
			<g>
				<path fill="#1E7A85" d="M550.7,638.9l44.4-13.5l-16.2-53.4l-44.4,13.5L550.7,638.9z M575,579.1l12.9,42.7l-27.8,8.4l-13-42.7
					L575,579.1z"/>
			</g>
		</g>
		<g>
			<g>
				<path fill="#1E7A85" d="M771.9,512.6l-44.4,13.5l16.2,53.4l44.4-13.5L771.9,512.6z M747.6,572.4l-13-42.7l27.8-8.4l13,42.7
					L747.6,572.4z"/>
			</g>
		</g>
		<g>
			<g>
				<path fill="#1E7A85" d="M638.8,487.7l13.5,44.5l53.3-16.2l-13.5-44.5L638.8,487.7z M698.6,512.1l-42.7,13l-8.4-27.8l42.7-13
					L698.6,512.1z"/>
			</g>
		</g>
		<g>
			<g>
				<path fill="#1E7A85" d="M577.5,506.6l13.5,44.5l53.3-16.2l-13.5-44.5L577.5,506.6z M637.3,530.9l-42.7,13l-8.4-27.8l42.7-13
					L637.3,530.9z"/>
			</g>
		</g>
	</g>
	<g>
		<g>
			<polygon fill="#FFFFFF" points="365.4,807.9 443.9,688.3 501.7,726.7 423.2,846.4 			"/>
			<path fill="#1E7A85" d="M423.4,847.5l-0.7-0.4l-58.5-38.9l79.4-121l0.7,0.4l58.5,38.9L423.4,847.5z M366.5,807.7l56.5,37.6
				l77.7-118.4l-56.5-37.6L366.5,807.7z"/>
		</g>
		<g>
			<g>
				<path fill="#1E7A85" d="M390.2,887.7l25.7-38.7l-46.4-30.9l-25.7,38.7L390.2,887.7z M370.9,826l37.1,24.7L392,874.9l-37.1-24.7
					L370.9,826z"/>
			</g>
		</g>
		<g>
			<g>
				<path fill="#1E7A85" d="M480.6,649.5l-25.7,38.7l46.4,30.9l25.7-38.7L480.6,649.5z M499.9,711.1l-37.1-24.7l16.1-24.2l37.1,24.7
					L499.9,711.1z"/>
			</g>
		</g>
		<g>
			<g>
				<path fill="#1E7A85" d="M362.1,714.9l38.7,25.7l30.9-46.4l-38.7-25.7L362.1,714.9z M423.7,695.7L399,732.8l-24.2-16.1l24.7-37.1
					L423.7,695.7z"/>
			</g>
		</g>
		<g>
			<g>
				<path fill="#1E7A85" d="M326.8,768.5l38.7,25.7l30.9-46.4L357.7,722L326.8,768.5z M388.4,749.2l-24.7,37.1l-24.2-16.1l24.7-37.1
					L388.4,749.2z"/>
			</g>
		</g>
	</g>
	<g>
		<g>
			<polygon fill="#FFFFFF" points="1042.7,164 906,121.5 885.9,188 1022.6,230.4 			"/>
			<path fill="#1E7A85" d="M1023.1,231.4l-138.2-42.9l20.6-67.9l138.2,42.9L1023.1,231.4z M886.8,187.5l135.2,41.9l19.7-64.9
				l-135.2-41.9L886.8,187.5z"/>
		</g>
		<g>
			<g>
				<path fill="#1E7A85" d="M1090.5,187.9l-44.4-13.5l-16.2,53.4l44.4,13.5L1090.5,187.9z M1077.7,189.9l-13,42.7l-27.8-8.4
					l12.9-42.7L1077.7,189.9z"/>
			</g>
		</g>
		<g>
			<g>
				<path fill="#1E7A85" d="M836.8,168.3l44.4,13.5l16.2-53.4L853,114.9L836.8,168.3z M849.6,166.3l12.9-42.7l27.8,8.4l-12.9,42.7
					L849.6,166.3z"/>
			</g>
		</g>
		<g>
			<g>
				<path fill="#1E7A85" d="M932.8,73.9l-13.5,44.5l53.3,16.2l13.5-44.5L932.8,73.9z M934.8,86.6l42.7,13l-8.4,27.8l-42.7-13
					L934.8,86.6z"/>
			</g>
		</g>
		<g>
			<g>
				<path fill="#1E7A85" d="M994.1,92.8l-13.5,44.5l53.3,16.2l13.5-44.5L994.1,92.8z M996,105.5l42.7,13l-8.4,27.8l-42.7-13
					L996,105.5z"/>
			</g>
		</g>
	</g>
	<g>
		<g>
			<polygon fill="#FFFFFF" points="1042.7,362.8 906,320.4 885.9,386.8 1022.6,429.2 			"/>
			<path fill="#1E7A85" d="M1023.1,430.2l-138.2-42.9l20.6-68l138.2,42.9L1023.1,430.2z M886.8,386.3l135.2,41.9l19.7-64.9
				l-135.2-42L886.8,386.3z"/>
		</g>
		<g>
			<g>
				<path fill="#1E7A85" d="M1090.5,386.7l-44.4-13.5l-16.2,53.4l44.4,13.5L1090.5,386.7z M1077.7,388.7l-13,42.7L1037,423
					l12.9-42.7L1077.7,388.7z"/>
			</g>
		</g>
		<g>
			<g>
				<path fill="#1E7A85" d="M836.8,367.1l44.4,13.5l16.2-53.4L853,313.8L836.8,367.1z M849.6,365.1l12.9-42.7l27.8,8.4l-12.9,42.7
					L849.6,365.1z"/>
			</g>
		</g>
		<g>
			<g>
				<path fill="#1E7A85" d="M932.8,272.7l-13.5,44.5l53.3,16.2l13.5-44.5L932.8,272.7z M934.8,285.4l42.7,13l-8.4,27.8l-42.7-13
					L934.8,285.4z"/>
			</g>
		</g>
		<g>
			<g>
				<path fill="#1E7A85" d="M994.1,291.6l-13.5,44.5l53.3,16.2l13.5-44.5L994.1,291.6z M996,304.3l42.7,13l-8.4,27.8l-42.7-13
					L996,304.3z"/>
			</g>
		</g>
	</g>
	<g>
		<g>
			<polygon fill="#FFFFFF" points="1042.7,561.6 906,519.2 885.9,585.6 1022.6,628 			"/>
			<path fill="#1E7A85" d="M1023.1,629l-138.2-42.9l20.6-68l138.2,42.9L1023.1,629z M886.8,585.1l135.2,41.9l19.7-64.9l-135.2-42
				L886.8,585.1z"/>
		</g>
		<g>
			<g>
				<path fill="#1E7A85" d="M1090.5,585.6l-44.4-13.5l-16.2,53.4l44.4,13.5L1090.5,585.6z M1077.7,587.5l-13,42.7l-27.8-8.4
					l12.9-42.7L1077.7,587.5z"/>
			</g>
		</g>
		<g>
			<g>
				<path fill="#1E7A85" d="M836.8,565.9l44.4,13.5l16.2-53.4L853,512.6L836.8,565.9z M849.6,564l12.9-42.7l27.8,8.4l-12.9,42.7
					L849.6,564z"/>
			</g>
		</g>
		<g>
			<g>
				<path fill="#1E7A85" d="M932.8,471.5L919.3,516l53.3,16.2l13.5-44.5L932.8,471.5z M934.8,484.3l42.7,13L969,525l-42.7-13
					L934.8,484.3z"/>
			</g>
		</g>
		<g>
			<g>
				<path fill="#1E7A85" d="M994.1,490.4l-13.5,44.5l53.3,16.2l13.5-44.5L994.1,490.4z M996,503.2l42.7,13l-8.4,27.8l-42.7-13
					L996,503.2z"/>
			</g>
		</g>
	</g>
	<g>
		<g>
			<polygon fill="#FFFFFF" points="1259.6,807.9 1181,688.3 1123.2,726.7 1201.8,846.4 			"/>
			<path fill="#1E7A85" d="M1201.5,847.5l-0.4-0.7l-79-120.3l59.1-39.3l0.4,0.7l79,120.3L1201.5,847.5z M1124.3,726.9l77.7,118.4
				l56.5-37.6l-77.7-118.4L1124.3,726.9z"/>
		</g>
		<g>
			<g>
				<path fill="#1E7A85" d="M1281.2,856.8l-25.7-38.7L1209,849l25.7,38.7L1281.2,856.8z M1270.1,850.2l-37.1,24.7l-16.1-24.2
					L1254,826L1270.1,850.2z"/>
			</g>
		</g>
		<g>
			<g>
				<path fill="#1E7A85" d="M1097.9,680.4l25.7,38.7l46.4-30.9l-25.7-38.7L1097.9,680.4z M1109,686.9l37.1-24.7l16.1,24.2
					l-37.1,24.7L1109,686.9z"/>
			</g>
		</g>
		<g>
			<g>
				<path fill="#1E7A85" d="M1232,668.5l-38.7,25.7l30.9,46.4l38.7-25.7L1232,668.5z M1225.4,679.6l24.7,37.1l-24.2,16.1l-24.7-37.1
					L1225.4,679.6z"/>
			</g>
		</g>
		<g>
			<g>
				<path fill="#1E7A85" d="M1267.3,722l-38.7,25.7l30.9,46.4l38.7-25.7L1267.3,722z M1260.7,733.1l24.7,37.1l-24.2,16.1l-24.7-37.1
					L1260.7,733.1z"/>
			</g>
		</g>
	</g>
	<g>
		<rect x="724.2" y="846.3" fill="#FFFFFF" width="176.5" height="77.1"/>
		<path fill="#1E7A85" d="M901.5,924.2H723.4v-78.7h178.1V924.2z M725,922.6h174.9v-75.6H725V922.6z"/>
	</g>
</g>
</svg>
