<?xml version="1.0" encoding="utf-8"?>
<!-- Generator: Adobe Illustrator 18.1.1, SVG Export Plug-In . SVG Version: 6.00 Build 0)  -->
<!DOCTYPE svg PUBLIC "-//W3C//DTD SVG 1.1//EN" "http://www.w3.org/Graphics/SVG/1.1/DTD/svg11.dtd">
<svg version="1.1" id="Layer_1" xmlns="http://www.w3.org/2000/svg" xmlns:xlink="http://www.w3.org/1999/xlink" x="0px" y="0px"
	 viewBox="0 0 1920 1080" enable-background="new 0 0 1920 1080" xml:space="preserve">
<g>
	<g>
		<g>
			<path fill="#FFFFFF" d="M1000.7,359.8c0,2.5-2,4.5-4.5,4.5H685.1c-2.5,0-4.5-2-4.5-4.5V204.9c0-2.5,2-4.5,4.5-4.5h311.1
				c2.5,0,4.5,2,4.5,4.5V359.8z"/>
		</g>
		<g>
			<path fill="#1E7A85" d="M996.2,365.1H685.1c-2.9,0-5.3-2.4-5.3-5.3V204.9c0-2.9,2.4-5.3,5.3-5.3h311.1c2.9,0,5.3,2.4,5.3,5.3
				v154.9C1001.5,362.7,999.1,365.1,996.2,365.1z M685.1,201.2c-2,0-3.7,1.7-3.7,3.7v154.9c0,2,1.7,3.7,3.7,3.7h311.1
				c2,0,3.7-1.7,3.7-3.7V204.9c0-2-1.7-3.7-3.7-3.7H685.1z"/>
		</g>
	</g>
	<g>
		<g>
			<path fill="#FFFFFF" d="M1620.6,831.8c0,2.5-2,4.5-4.5,4.5H1305c-2.5,0-4.5-2-4.5-4.5V675.5c0-2.5,2-4.5,4.5-4.5h311.1
				c2.5,0,4.5,2,4.5,4.5V831.8z"/>
		</g>
		<g>
			<path fill="#1E7A85" d="M1616.1,837.1H1305c-2.9,0-5.3-2.4-5.3-5.3V675.5c0-2.9,2.4-5.3,5.3-5.3h311.1c2.9,0,5.3,2.4,5.3,5.3
				v156.3C1621.4,834.7,1619,837.1,1616.1,837.1z M1305,671.8c-2,0-3.7,1.7-3.7,3.7v156.3c0,2,1.7,3.7,3.7,3.7h311.1
				c2,0,3.7-1.7,3.7-3.7V675.5c0-2-1.7-3.7-3.7-3.7H1305z"/>
		</g>
	</g>
	<g>
		<path fill="#1E7A85" d="M768.3,255.2v-2.5c2.4-0.2,4.1-0.6,5-1.2c0.9-0.5,1.6-1.8,2.1-3.9h2.6v26.2h-3.5v-18.6H768.3z"/>
		<path fill="#1E7A85" d="M805.3,248v2.9c-0.8,0.8-2,2.2-3.4,4.3c-1.4,2-2.6,4.2-3.7,6.6c-1.1,2.3-1.9,4.4-2.4,6.3
			c-0.4,1.2-0.8,3.2-1.4,5.9h-3.7c0.8-5,2.7-10,5.5-15c1.7-2.9,3.4-5.4,5.3-7.5H787V248H805.3z"/>
		<path fill="#1E7A85" d="M809.7,254.7c0.7-0.1,1.2-0.5,1.5-1.1c0.4-0.6,0.5-1.4,0.5-2.2c0-0.1,0-0.2,0-0.2c0-0.1,0-0.1,0-0.2h-2v-4
			h3.9v3.7c0,1.6-0.3,2.9-1,4c-0.6,1.1-1.6,1.7-3,1.9V254.7z"/>
		<path fill="#1E7A85" d="M819.9,267.4c0.1,1.8,0.8,3.1,2.1,3.8c0.7,0.4,1.4,0.6,2.3,0.6c1.6,0,2.9-0.7,4-2c1.1-1.3,1.9-4,2.4-8
			c-0.7,1.2-1.6,2-2.7,2.5c-1.1,0.5-2.2,0.7-3.5,0.7c-2.5,0-4.5-0.8-6-2.4c-1.5-1.6-2.2-3.6-2.2-6.1c0-2.4,0.7-4.5,2.2-6.3
			c1.5-1.8,3.6-2.7,6.4-2.7c3.8,0,6.5,1.7,7.9,5.2c0.8,1.9,1.2,4.3,1.2,7.1c0,3.2-0.5,6.1-1.5,8.6c-1.6,4.1-4.3,6.2-8.2,6.2
			c-2.6,0-4.5-0.7-5.9-2c-1.3-1.3-2-3-2-5.1H819.9z M828.5,260.7c1.1-0.9,1.6-2.4,1.6-4.5c0-1.9-0.5-3.4-1.5-4.3
			c-1-0.9-2.2-1.4-3.7-1.4c-1.6,0-2.9,0.5-3.8,1.6c-0.9,1.1-1.4,2.5-1.4,4.3c0,1.7,0.4,3.1,1.2,4.1c0.8,1,2.2,1.5,4,1.5
			C826.2,262,827.4,261.6,828.5,260.7z"/>
		<path fill="#1E7A85" d="M846.8,254.1h4.3l4.5,6.9l4.6-6.9l4,0.1l-6.6,9.5l6.9,10.1h-4.2l-4.9-7.4l-4.7,7.4h-4.2l6.9-10.1
			L846.8,254.1z"/>
		<path fill="#1E7A85" d="M879.1,255.2v-2.5c2.4-0.2,4.1-0.6,5-1.2c0.9-0.5,1.6-1.8,2.1-3.9h2.6v26.2h-3.5v-18.6H879.1z"/>
		<path fill="#1E7A85" d="M899.4,272c-1.4-1.7-2.1-3.8-2.1-6.2h3.5c0.1,1.7,0.5,2.9,1,3.7c0.9,1.4,2.4,2.1,4.6,2.1
			c1.7,0,3.1-0.5,4.2-1.4c1.1-0.9,1.6-2.1,1.6-3.6c0-1.8-0.6-3.1-1.7-3.8c-1.1-0.7-2.6-1.1-4.6-1.1c-0.2,0-0.4,0-0.7,0
			c-0.2,0-0.5,0-0.7,0v-2.9c0.3,0,0.6,0.1,0.9,0.1c0.2,0,0.5,0,0.8,0c1.2,0,2.3-0.2,3-0.6c1.4-0.7,2.1-1.9,2.1-3.7
			c0-1.3-0.5-2.3-1.4-3s-2-1.1-3.2-1.1c-2.2,0-3.7,0.7-4.6,2.2c-0.5,0.8-0.7,2-0.8,3.5H898c0-2,0.4-3.6,1.2-5
			c1.3-2.4,3.7-3.7,7.1-3.7c2.7,0,4.8,0.6,6.2,1.8c1.5,1.2,2.2,2.9,2.2,5.2c0,1.6-0.4,2.9-1.3,3.9c-0.5,0.6-1.2,1.1-2.1,1.5
			c1.4,0.4,2.5,1.1,3.2,2.2c0.8,1.1,1.2,2.4,1.2,4c0,2.5-0.8,4.6-2.5,6.1c-1.7,1.6-4,2.4-7,2.4C903.1,274.5,900.8,273.7,899.4,272z"
			/>
		<path fill="#1E7A85" d="M736.2,291.5c-1.9,3.7-3.2,6.5-3.7,8.2c-0.9,2.7-1.3,5.8-1.3,9.3c0,3.5,0.5,6.8,1.5,9.7
			c0.6,1.8,1.8,4.4,3.6,7.8H734c-1.8-2.8-2.9-4.6-3.3-5.3c-0.4-0.8-0.9-1.8-1.4-3.1c-0.7-1.8-1.2-3.7-1.4-5.8
			c-0.1-1.1-0.2-2.1-0.2-3c0-3.6,0.6-6.8,1.7-9.7c0.7-1.8,2.2-4.5,4.5-8.1H736.2z"/>
		<path fill="#1E7A85" d="M742.2,312.2c0.2,1.9,1.1,3.2,2.6,3.9c0.8,0.4,1.7,0.6,2.7,0.6c2,0,3.4-0.6,4.4-1.9
			c0.9-1.2,1.4-2.6,1.4-4.1c0-1.8-0.6-3.3-1.7-4.3c-1.1-1-2.5-1.5-4-1.5c-1.1,0-2.1,0.2-2.9,0.7c-0.8,0.4-1.5,1.1-2.1,1.8l-2.9-0.2
			l2-14.2h13.7v3.2h-11.2l-1.1,7.3c0.6-0.5,1.2-0.8,1.7-1c1-0.4,2.1-0.6,3.4-0.6c2.4,0,4.5,0.8,6.1,2.3c1.7,1.6,2.5,3.5,2.5,5.9
			c0,2.5-0.8,4.7-2.3,6.6c-1.5,1.9-4,2.8-7.4,2.8c-2.1,0-4-0.6-5.7-1.8c-1.6-1.2-2.6-3.1-2.8-5.6H742.2z"/>
		<path fill="#1E7A85" d="M761.7,314.9h3.8v4h-3.8V314.9z"/>
		<path fill="#1E7A85" d="M781.4,318.9v-6.4h-11.5v-3.2l12-16.7h2.8v17.1h3.9v2.9h-3.9v6.4H781.4z M781.4,309.6v-11.9l-8.4,11.9
			H781.4z"/>
		<path fill="#1E7A85" d="M792.3,299.3h3.3v2.8c0.8-1,1.5-1.7,2.1-2.1c1.1-0.7,2.3-1.1,3.7-1.1c1.6,0,2.8,0.4,3.8,1.2
			c0.5,0.4,1,1.1,1.5,1.9c0.7-1.1,1.6-1.8,2.6-2.3s2.1-0.8,3.3-0.8c2.6,0,4.4,1,5.4,2.9c0.5,1,0.8,2.4,0.8,4.1v13.1h-3.4v-13.7
			c0-1.3-0.3-2.2-1-2.7s-1.5-0.7-2.4-0.7c-1.3,0-2.4,0.4-3.4,1.3c-0.9,0.9-1.4,2.3-1.4,4.4v11.4h-3.4v-12.8c0-1.3-0.2-2.3-0.5-2.9
			c-0.5-0.9-1.4-1.4-2.8-1.4c-1.2,0-2.4,0.5-3.4,1.5c-1,1-1.5,2.7-1.5,5.3v10.4h-3.3V299.3z"/>
		<path fill="#1E7A85" d="M832.2,299.3h4.3l4.5,6.9l4.6-6.9l4,0.1l-6.6,9.5l6.9,10.1h-4.2l-4.9-7.4l-4.7,7.4h-4.2l6.9-10.1
			L832.2,299.3z"/>
		<path fill="#1E7A85" d="M873.3,318.9v-6.4h-11.5v-3.2l12-16.7h2.8v17.1h3.9v2.9h-3.9v6.4H873.3z M873.3,309.6v-11.9l-8.4,11.9
			H873.3z"/>
		<path fill="#1E7A85" d="M885,314.9h3.8v4H885V314.9z"/>
		<path fill="#1E7A85" d="M909.8,296.8c1.2,2.2,1.8,5.1,1.8,8.9c0,3.6-0.5,6.5-1.6,8.9c-1.5,3.4-4.1,5-7.6,5c-3.2,0-5.5-1.4-7.1-4.1
			c-1.3-2.3-1.9-5.4-1.9-9.2c0-3,0.4-5.6,1.2-7.7c1.4-4,4.1-6,7.8-6C905.8,292.6,908.3,294,909.8,296.8z M906.4,314.4
			c1-1.5,1.5-4.3,1.5-8.5c0-3-0.4-5.4-1.1-7.4c-0.7-1.9-2.2-2.9-4.3-2.9c-1.9,0-3.4,0.9-4.3,2.7c-0.9,1.8-1.4,4.5-1.4,8.1
			c0,2.7,0.3,4.8,0.9,6.5c0.9,2.5,2.4,3.7,4.5,3.7C904.1,316.6,905.4,315.9,906.4,314.4z"/>
		<path fill="#1E7A85" d="M915.6,299.3h3.3v2.8c0.8-1,1.5-1.7,2.1-2.1c1.1-0.7,2.3-1.1,3.7-1.1c1.6,0,2.8,0.4,3.8,1.2
			c0.5,0.4,1,1.1,1.5,1.9c0.7-1.1,1.6-1.8,2.6-2.3s2.1-0.8,3.3-0.8c2.6,0,4.4,1,5.4,2.9c0.5,1,0.8,2.4,0.8,4.1v13.1h-3.4v-13.7
			c0-1.3-0.3-2.2-1-2.7s-1.5-0.7-2.4-0.7c-1.3,0-2.4,0.4-3.4,1.3c-0.9,0.9-1.4,2.3-1.4,4.4v11.4h-3.4v-12.8c0-1.3-0.2-2.3-0.5-2.9
			c-0.5-0.9-1.4-1.4-2.8-1.4c-1.2,0-2.4,0.5-3.4,1.5c-1,1-1.5,2.7-1.5,5.3v10.4h-3.3V299.3z"/>
		<path fill="#1E7A85" d="M945.8,326.6c1.9-3.8,3.2-6.6,3.8-8.3c0.9-2.6,1.3-5.7,1.3-9.3s-0.5-6.8-1.5-9.7c-0.6-1.8-1.8-4.4-3.6-7.8
			h2.2c1.9,3,3,4.9,3.4,5.6c0.4,0.7,0.8,1.7,1.3,2.9c0.6,1.5,1,3,1.3,4.5c0.3,1.5,0.4,2.9,0.4,4.3c0,3.6-0.6,6.9-1.7,9.7
			c-0.7,1.8-2.2,4.5-4.5,8.1H945.8z"/>
	</g>
	<g>
		<path fill="#1E7A85" d="M1374.6,724.4v-2.5c2.4-0.2,4.1-0.6,5-1.2c0.9-0.5,1.6-1.8,2.1-3.9h2.6V743h-3.5v-18.6H1374.6z"/>
		<path fill="#1E7A85" d="M1394.9,741.1c-1.4-1.7-2.1-3.8-2.1-6.2h3.5c0.1,1.7,0.5,2.9,1,3.7c0.9,1.4,2.4,2.1,4.6,2.1
			c1.7,0,3.1-0.5,4.2-1.4c1.1-0.9,1.6-2.1,1.6-3.6c0-1.8-0.6-3.1-1.7-3.8c-1.1-0.7-2.6-1.1-4.6-1.1c-0.2,0-0.4,0-0.7,0
			c-0.2,0-0.5,0-0.7,0v-2.9c0.3,0,0.6,0.1,0.9,0.1c0.2,0,0.5,0,0.8,0c1.2,0,2.3-0.2,3-0.6c1.4-0.7,2.1-1.9,2.1-3.7
			c0-1.3-0.5-2.3-1.4-3s-2-1.1-3.2-1.1c-2.2,0-3.7,0.7-4.6,2.2c-0.5,0.8-0.7,2-0.8,3.5h-3.3c0-2,0.4-3.6,1.2-5
			c1.3-2.4,3.7-3.7,7.1-3.7c2.7,0,4.8,0.6,6.2,1.8c1.5,1.2,2.2,2.9,2.2,5.2c0,1.6-0.4,2.9-1.3,3.9c-0.5,0.6-1.2,1.1-2.1,1.5
			c1.4,0.4,2.5,1.1,3.2,2.2c0.8,1.1,1.2,2.4,1.2,4c0,2.5-0.8,4.6-2.5,6.1c-1.7,1.6-4,2.4-7,2.4
			C1398.6,743.7,1396.3,742.8,1394.9,741.1z"/>
		<path fill="#1E7A85" d="M1416,723.9c0.7-0.1,1.2-0.5,1.5-1.1c0.4-0.6,0.5-1.4,0.5-2.2c0-0.1,0-0.2,0-0.2c0-0.1,0-0.1,0-0.2h-2v-4
			h3.9v3.7c0,1.6-0.3,2.9-1,4c-0.6,1.1-1.6,1.7-3,1.9V723.9z"/>
		<path fill="#1E7A85" d="M1423.8,737.1c0.8-1.7,2.4-3.2,4.8-4.6l3.5-2c1.6-0.9,2.7-1.7,3.3-2.4c1-1,1.5-2.2,1.5-3.5
			c0-1.5-0.5-2.8-1.4-3.7s-2.1-1.4-3.7-1.4c-2.3,0-3.8,0.9-4.7,2.6c-0.5,0.9-0.7,2.2-0.8,3.8h-3.4c0-2.3,0.5-4.2,1.3-5.6
			c1.4-2.5,4-3.8,7.6-3.8c3,0,5.2,0.8,6.6,2.4s2.1,3.4,2.1,5.4c0,2.1-0.7,3.9-2.2,5.4c-0.9,0.9-2.4,1.9-4.6,3.2l-2.5,1.4
			c-1.2,0.7-2.1,1.3-2.8,1.9c-1.2,1.1-2,2.2-2.3,3.5h14.4v3.1h-18C1422.5,740.7,1423,738.8,1423.8,737.1z"/>
		<path fill="#1E7A85" d="M1453.1,723.3h4.3l4.5,6.9l4.6-6.9l4,0.1l-6.6,9.5l6.9,10.1h-4.2l-4.9-7.4l-4.7,7.4h-4.2l6.9-10.1
			L1453.1,723.3z"/>
		<path fill="#1E7A85" d="M1485.4,724.4v-2.5c2.4-0.2,4.1-0.6,5-1.2c0.9-0.5,1.6-1.8,2.1-3.9h2.6V743h-3.5v-18.6H1485.4z"/>
		<path fill="#1E7A85" d="M1503.5,724.4v-2.5c2.4-0.2,4.1-0.6,5-1.2c0.9-0.5,1.6-1.8,2.1-3.9h2.6V743h-3.5v-18.6H1503.5z"/>
		<path fill="#1E7A85" d="M1524,723.9c0.7-0.1,1.2-0.5,1.5-1.1c0.4-0.6,0.5-1.4,0.5-2.2c0-0.1,0-0.2,0-0.2c0-0.1,0-0.1,0-0.2h-2v-4
			h3.9v3.7c0,1.6-0.3,2.9-1,4c-0.6,1.1-1.6,1.7-3,1.9V723.9z"/>
		<path fill="#1E7A85" d="M1532.8,727.6c-1-1-1.5-2.3-1.5-3.8c0-2,0.7-3.6,2.1-5c1.4-1.4,3.4-2.1,6-2.1c2.5,0,4.5,0.7,5.9,2
			c1.4,1.3,2.1,2.9,2.1,4.7c0,1.6-0.4,3-1.2,4c-0.5,0.6-1.2,1.1-2.2,1.7c1.1,0.5,2,1.1,2.6,1.7c1.2,1.2,1.8,2.8,1.8,4.8
			c0,2.3-0.8,4.3-2.3,5.9c-1.6,1.6-3.8,2.4-6.6,2.4c-2.6,0-4.7-0.7-6.5-2.1c-1.8-1.4-2.7-3.4-2.7-6c0-1.6,0.4-2.9,1.1-4
			s1.9-2,3.4-2.6C1534,728.6,1533.3,728.1,1532.8,727.6z M1543.4,739.5c1-0.8,1.5-2.1,1.5-3.7c0-1.7-0.5-3-1.6-3.9
			c-1-0.9-2.4-1.3-4-1.3c-1.6,0-2.9,0.5-3.9,1.3s-1.5,2.1-1.5,3.7c0,1.4,0.5,2.6,1.4,3.6c0.9,1,2.3,1.5,4.2,1.5
			C1541.2,740.7,1542.4,740.3,1543.4,739.5z M1542.8,726.5c0.8-0.8,1.2-1.8,1.2-2.9c0-1-0.4-1.9-1.2-2.7c-0.8-0.8-2-1.2-3.6-1.2
			c-1.6,0-2.7,0.4-3.4,1.2c-0.7,0.8-1.1,1.8-1.1,2.9c0,1.2,0.5,2.2,1.4,2.9c0.9,0.7,2,1,3.2,1C1540.9,727.7,1542,727.3,1542.8,726.5
			z"/>
		<path fill="#1E7A85" d="M1355.7,760.7c-1.9,3.7-3.2,6.5-3.7,8.2c-0.9,2.7-1.3,5.8-1.3,9.3c0,3.5,0.5,6.8,1.5,9.7
			c0.6,1.8,1.8,4.4,3.6,7.8h-2.2c-1.8-2.8-2.9-4.6-3.3-5.3c-0.4-0.8-0.9-1.8-1.4-3.1c-0.7-1.8-1.2-3.7-1.4-5.8
			c-0.1-1.1-0.2-2.1-0.2-3c0-3.6,0.6-6.8,1.7-9.7c0.7-1.8,2.2-4.5,4.5-8.1H1355.7z"/>
		<path fill="#1E7A85" d="M1369.6,788.1v-6.4h-11.5v-3.2l12-16.7h2.8v17.1h3.9v2.9h-3.9v6.4H1369.6z M1369.5,778.8v-11.9l-8.4,11.9
			H1369.5z"/>
		<path fill="#1E7A85" d="M1381.2,784.1h3.8v4h-3.8V784.1z"/>
		<path fill="#1E7A85" d="M1406,766c1.2,2.2,1.8,5.1,1.8,8.9c0,3.6-0.5,6.5-1.6,8.9c-1.5,3.4-4.1,5-7.6,5c-3.2,0-5.5-1.4-7.1-4.1
			c-1.3-2.3-1.9-5.4-1.9-9.2c0-3,0.4-5.6,1.2-7.7c1.4-4,4.1-6,7.8-6C1402.1,761.8,1404.5,763.2,1406,766z M1402.7,783.5
			c1-1.5,1.5-4.3,1.5-8.5c0-3-0.4-5.4-1.1-7.4c-0.7-1.9-2.2-2.9-4.3-2.9c-1.9,0-3.4,0.9-4.3,2.7c-0.9,1.8-1.4,4.5-1.4,8.1
			c0,2.7,0.3,4.8,0.9,6.5c0.9,2.5,2.4,3.7,4.5,3.7C1400.3,785.8,1401.7,785.1,1402.7,783.5z"/>
		<path fill="#1E7A85" d="M1411.8,768.4h3.3v2.8c0.8-1,1.5-1.7,2.1-2.1c1.1-0.7,2.3-1.1,3.7-1.1c1.6,0,2.8,0.4,3.8,1.2
			c0.5,0.4,1,1.1,1.5,1.9c0.7-1.1,1.6-1.8,2.6-2.3c1-0.5,2.1-0.8,3.3-0.8c2.6,0,4.4,1,5.4,2.9c0.5,1,0.8,2.4,0.8,4.1v13.1h-3.4
			v-13.7c0-1.3-0.3-2.2-1-2.7c-0.7-0.5-1.5-0.7-2.4-0.7c-1.3,0-2.4,0.4-3.4,1.3s-1.4,2.3-1.4,4.4v11.4h-3.4v-12.8
			c0-1.3-0.2-2.3-0.5-2.9c-0.5-0.9-1.4-1.4-2.8-1.4c-1.2,0-2.4,0.5-3.4,1.5c-1,1-1.5,2.7-1.5,5.3v10.4h-3.3V768.4z"/>
		<path fill="#1E7A85" d="M1451.7,768.4h4.3l4.5,6.9l4.6-6.9l4,0.1l-6.6,9.5l6.9,10.1h-4.2l-4.9-7.4l-4.7,7.4h-4.2l6.9-10.1
			L1451.7,768.4z"/>
		<path fill="#1E7A85" d="M1483.4,786.3c-1.4-1.7-2.1-3.8-2.1-6.2h3.5c0.1,1.7,0.5,2.9,1,3.7c0.9,1.4,2.4,2.1,4.6,2.1
			c1.7,0,3.1-0.5,4.2-1.4c1.1-0.9,1.6-2.1,1.6-3.6c0-1.8-0.6-3.1-1.7-3.8c-1.1-0.7-2.6-1.1-4.6-1.1c-0.2,0-0.4,0-0.7,0
			c-0.2,0-0.5,0-0.7,0v-2.9c0.3,0,0.6,0.1,0.9,0.1c0.2,0,0.5,0,0.8,0c1.2,0,2.3-0.2,3-0.6c1.4-0.7,2.1-1.9,2.1-3.7
			c0-1.3-0.5-2.3-1.4-3s-2-1.1-3.2-1.1c-2.2,0-3.7,0.7-4.6,2.2c-0.5,0.8-0.7,2-0.8,3.5h-3.3c0-2,0.4-3.6,1.2-5
			c1.3-2.4,3.7-3.7,7.1-3.7c2.7,0,4.8,0.6,6.2,1.8c1.5,1.2,2.2,2.9,2.2,5.2c0,1.6-0.4,2.9-1.3,3.9c-0.5,0.6-1.2,1.1-2.1,1.5
			c1.4,0.4,2.5,1.1,3.2,2.2c0.8,1.1,1.2,2.4,1.2,4c0,2.5-0.8,4.6-2.5,6.1c-1.7,1.6-4,2.4-7,2.4
			C1487.1,788.8,1484.8,788,1483.4,786.3z"/>
		<path fill="#1E7A85" d="M1504.5,784.1h3.8v4h-3.8V784.1z"/>
		<path fill="#1E7A85" d="M1528.9,764c1.2,1.5,1.7,3.1,1.7,4.7h-3.3c-0.2-1-0.5-1.9-0.9-2.4c-0.8-1.1-2-1.7-3.6-1.7
			c-1.8,0-3.3,0.9-4.4,2.6s-1.7,4.2-1.8,7.3c0.8-1.1,1.7-1.9,2.9-2.5c1.1-0.5,2.2-0.7,3.5-0.7c2.2,0,4.1,0.7,5.8,2.1
			c1.6,1.4,2.5,3.5,2.5,6.3c0,2.4-0.8,4.5-2.3,6.3c-1.6,1.8-3.8,2.8-6.6,2.8c-2.5,0-4.6-0.9-6.4-2.8c-1.8-1.9-2.7-5-2.7-9.4
			c0-3.3,0.4-6,1.2-8.3c1.5-4.4,4.3-6.5,8.4-6.5C1525.7,761.7,1527.8,762.5,1528.9,764z M1526.4,784.1c0.9-1.2,1.3-2.5,1.3-4.1
			c0-1.3-0.4-2.6-1.2-3.8c-0.8-1.2-2.2-1.8-4.2-1.8c-1.4,0-2.7,0.5-3.7,1.4c-1.1,0.9-1.6,2.4-1.6,4.3c0,1.7,0.5,3.1,1.5,4.2
			c1,1.1,2.3,1.7,4,1.7C1524.3,785.9,1525.6,785.3,1526.4,784.1z"/>
		<path fill="#1E7A85" d="M1535.1,768.4h3.3v2.8c0.8-1,1.5-1.7,2.1-2.1c1.1-0.7,2.3-1.1,3.7-1.1c1.6,0,2.8,0.4,3.8,1.2
			c0.5,0.4,1,1.1,1.5,1.9c0.7-1.1,1.6-1.8,2.6-2.3c1-0.5,2.1-0.8,3.3-0.8c2.6,0,4.4,1,5.4,2.9c0.5,1,0.8,2.4,0.8,4.1v13.1h-3.4
			v-13.7c0-1.3-0.3-2.2-1-2.7c-0.7-0.5-1.5-0.7-2.4-0.7c-1.3,0-2.4,0.4-3.4,1.3s-1.4,2.3-1.4,4.4v11.4h-3.4v-12.8
			c0-1.3-0.2-2.3-0.5-2.9c-0.5-0.9-1.4-1.4-2.8-1.4c-1.2,0-2.4,0.5-3.4,1.5c-1,1-1.5,2.7-1.5,5.3v10.4h-3.3V768.4z"/>
		<path fill="#1E7A85" d="M1565.3,795.8c1.9-3.8,3.2-6.6,3.8-8.3c0.9-2.6,1.3-5.7,1.3-9.3s-0.5-6.8-1.5-9.7
			c-0.6-1.8-1.8-4.4-3.6-7.8h2.2c1.9,3,3,4.9,3.4,5.6c0.4,0.7,0.8,1.7,1.3,2.9c0.6,1.5,1,3,1.3,4.5c0.3,1.5,0.4,2.9,0.4,4.3
			c0,3.6-0.6,6.9-1.7,9.7c-0.7,1.8-2.2,4.5-4.5,8.1H1565.3z"/>
	</g>
	<g>
		<g>
			<path fill="#FFFFFF" d="M832.6,842.4c0,2.5-2,4.5-4.5,4.5H514.7c-2.5,0-4.5-2-4.5-4.5V684.8c0-2.5,2-4.5,4.5-4.5h313.4
				c2.5,0,4.5,2,4.5,4.5V842.4z"/>
		</g>
		<g>
			<path fill="#1E7A85" d="M828.2,847.7H514.7c-2.9,0-5.3-2.4-5.3-5.3V684.8c0-2.9,2.4-5.3,5.3-5.3h313.4c2.9,0,5.3,2.4,5.3,5.3
				v157.6C833.4,845.3,831.1,847.7,828.2,847.7z M514.7,681.1c-2,0-3.7,1.7-3.7,3.7v157.6c0,2,1.7,3.7,3.7,3.7h313.4
				c2,0,3.7-1.7,3.7-3.7V684.8c0-2-1.7-3.7-3.7-3.7H514.7z"/>
		</g>
	</g>
	<g>
		<path fill="#1E7A85" d="M584.8,747c0.8-1.7,2.4-3.2,4.8-4.6l3.5-2c1.6-0.9,2.7-1.7,3.3-2.4c1-1,1.5-2.2,1.5-3.5
			c0-1.5-0.5-2.8-1.4-3.7c-0.9-0.9-2.1-1.4-3.7-1.4c-2.3,0-3.8,0.9-4.7,2.6c-0.5,0.9-0.7,2.2-0.8,3.8H584c0-2.3,0.5-4.2,1.3-5.6
			c1.4-2.5,4-3.8,7.6-3.8c3,0,5.2,0.8,6.6,2.4c1.4,1.6,2.1,3.4,2.1,5.4c0,2.1-0.7,3.9-2.2,5.4c-0.9,0.9-2.4,1.9-4.6,3.2l-2.5,1.4
			c-1.2,0.7-2.1,1.3-2.8,1.9c-1.2,1.1-2,2.2-2.3,3.5h14.4v3.1h-18C583.5,750.6,584,748.6,584.8,747z"/>
		<path fill="#1E7A85" d="M607.8,746.2c0.2,1.9,1.1,3.2,2.6,3.9c0.8,0.4,1.7,0.6,2.7,0.6c2,0,3.4-0.6,4.4-1.9
			c0.9-1.2,1.4-2.6,1.4-4.1c0-1.8-0.6-3.3-1.7-4.3c-1.1-1-2.5-1.5-4-1.5c-1.1,0-2.1,0.2-2.9,0.7c-0.8,0.4-1.5,1.1-2.1,1.8l-2.9-0.2
			l2-14.2H621v3.2h-11.2l-1.1,7.3c0.6-0.5,1.2-0.8,1.7-1c1-0.4,2.1-0.6,3.4-0.6c2.4,0,4.5,0.8,6.1,2.3c1.7,1.6,2.5,3.5,2.5,5.9
			c0,2.5-0.8,4.7-2.3,6.6c-1.5,1.9-4,2.8-7.4,2.8c-2.1,0-4-0.6-5.7-1.8c-1.6-1.2-2.6-3.1-2.8-5.6H607.8z"/>
		<path fill="#1E7A85" d="M627.2,733.8c0.7-0.1,1.2-0.5,1.5-1.1c0.4-0.6,0.5-1.4,0.5-2.2c0-0.1,0-0.2,0-0.2c0-0.1,0-0.1,0-0.2h-2v-4
			h3.9v3.7c0,1.6-0.3,2.9-1,4c-0.6,1.1-1.6,1.7-3,1.9V733.8z"/>
		<path fill="#1E7A85" d="M636,734.3v-2.5c2.4-0.2,4.1-0.6,5-1.2c0.9-0.5,1.6-1.8,2.1-3.9h2.6v26.2h-3.5v-18.6H636z"/>
		<path fill="#1E7A85" d="M664.3,733.2h4.3l4.5,6.9l4.6-6.9l4,0.1l-6.6,9.5l6.9,10.1h-4.2l-4.9-7.4l-4.7,7.4H664l6.9-10.1
			L664.3,733.2z"/>
		<path fill="#1E7A85" d="M696.6,734.3v-2.5c2.4-0.2,4.1-0.6,5-1.2c0.9-0.5,1.6-1.8,2.1-3.9h2.6v26.2h-3.5v-18.6H696.6z"/>
		<path fill="#1E7A85" d="M714.7,734.3v-2.5c2.4-0.2,4.1-0.6,5-1.2c0.9-0.5,1.6-1.8,2.1-3.9h2.6v26.2h-3.5v-18.6H714.7z"/>
		<path fill="#1E7A85" d="M735.2,733.8c0.7-0.1,1.2-0.5,1.5-1.1c0.4-0.6,0.5-1.4,0.5-2.2c0-0.1,0-0.2,0-0.2c0-0.1,0-0.1,0-0.2h-2v-4
			h3.9v3.7c0,1.6-0.3,2.9-1,4c-0.6,1.1-1.6,1.7-3,1.9V733.8z"/>
		<path fill="#1E7A85" d="M760.1,727v2.9c-0.8,0.8-2,2.2-3.4,4.3c-1.4,2-2.6,4.2-3.7,6.6c-1.1,2.3-1.9,4.4-2.4,6.3
			c-0.4,1.2-0.8,3.2-1.4,5.9h-3.7c0.8-5,2.7-10,5.5-15c1.7-2.9,3.4-5.4,5.3-7.5h-14.5V727H760.1z"/>
		<path fill="#1E7A85" d="M566.9,770.6c-1.9,3.7-3.2,6.5-3.7,8.2c-0.9,2.7-1.3,5.8-1.3,9.3c0,3.5,0.5,6.8,1.5,9.7
			c0.6,1.8,1.8,4.4,3.6,7.8h-2.2c-1.8-2.8-2.9-4.6-3.3-5.3c-0.4-0.8-0.9-1.8-1.4-3.1c-0.7-1.8-1.2-3.7-1.4-5.8
			c-0.1-1.1-0.2-2.1-0.2-3c0-3.6,0.6-6.8,1.7-9.7c0.7-1.8,2.2-4.5,4.5-8.1H566.9z"/>
		<path fill="#1E7A85" d="M588,772.2v2.9c-0.8,0.8-2,2.2-3.4,4.3c-1.4,2-2.6,4.2-3.7,6.6c-1.1,2.3-1.9,4.4-2.4,6.3
			c-0.4,1.2-0.8,3.2-1.4,5.9h-3.7c0.8-5,2.7-10,5.5-15c1.7-2.9,3.4-5.4,5.3-7.5h-14.5v-3.3H588z"/>
		<path fill="#1E7A85" d="M592.5,794h3.8v4h-3.8V794z"/>
		<path fill="#1E7A85" d="M616.8,773.9c1.2,1.5,1.7,3.1,1.7,4.7h-3.3c-0.2-1-0.5-1.9-0.9-2.4c-0.8-1.1-2-1.7-3.6-1.7
			c-1.8,0-3.3,0.9-4.4,2.6c-1.1,1.7-1.7,4.2-1.8,7.3c0.8-1.1,1.7-1.9,2.9-2.5c1.1-0.5,2.2-0.7,3.5-0.7c2.2,0,4.1,0.7,5.8,2.1
			c1.6,1.4,2.5,3.5,2.5,6.3c0,2.4-0.8,4.5-2.3,6.3c-1.6,1.8-3.8,2.8-6.6,2.8c-2.5,0-4.6-0.9-6.4-2.8c-1.8-1.9-2.7-5-2.7-9.4
			c0-3.3,0.4-6,1.2-8.3c1.5-4.4,4.3-6.5,8.4-6.5C613.6,771.6,615.7,772.4,616.8,773.9z M614.3,794c0.9-1.2,1.3-2.5,1.3-4.1
			c0-1.3-0.4-2.6-1.2-3.8c-0.8-1.2-2.2-1.8-4.2-1.8c-1.4,0-2.7,0.5-3.7,1.4c-1.1,0.9-1.6,2.4-1.6,4.3c0,1.7,0.5,3.1,1.5,4.2
			c1,1.1,2.3,1.7,4,1.7C612.2,795.7,613.5,795.2,614.3,794z"/>
		<path fill="#1E7A85" d="M623,778.3h3.3v2.8c0.8-1,1.5-1.7,2.1-2.1c1.1-0.7,2.3-1.1,3.7-1.1c1.6,0,2.8,0.4,3.8,1.2
			c0.5,0.4,1,1.1,1.5,1.9c0.7-1.1,1.6-1.8,2.6-2.3s2.1-0.8,3.3-0.8c2.6,0,4.4,1,5.4,2.9c0.5,1,0.8,2.4,0.8,4.1V798H646v-13.7
			c0-1.3-0.3-2.2-1-2.7s-1.5-0.7-2.4-0.7c-1.3,0-2.4,0.4-3.4,1.3c-0.9,0.9-1.4,2.3-1.4,4.4V798h-3.4v-12.8c0-1.3-0.2-2.3-0.5-2.9
			c-0.5-0.9-1.4-1.4-2.8-1.4c-1.2,0-2.4,0.5-3.4,1.5c-1,1-1.5,2.7-1.5,5.3V798H623V778.3z"/>
		<path fill="#1E7A85" d="M662.9,778.3h4.3l4.5,6.9l4.6-6.9l4,0.1l-6.6,9.5l6.9,10.1h-4.2l-4.9-7.4l-4.7,7.4h-4.2l6.9-10.1
			L662.9,778.3z"/>
		<path fill="#1E7A85" d="M694.6,796.2c-1.4-1.7-2.1-3.8-2.1-6.2h3.5c0.1,1.7,0.5,2.9,1,3.7c0.9,1.4,2.4,2.1,4.6,2.1
			c1.7,0,3.1-0.5,4.2-1.4c1.1-0.9,1.6-2.1,1.6-3.6c0-1.8-0.6-3.1-1.7-3.8c-1.1-0.7-2.6-1.1-4.6-1.1c-0.2,0-0.4,0-0.7,0
			c-0.2,0-0.5,0-0.7,0V783c0.3,0,0.6,0.1,0.9,0.1c0.2,0,0.5,0,0.8,0c1.2,0,2.3-0.2,3-0.6c1.4-0.7,2.1-1.9,2.1-3.7
			c0-1.3-0.5-2.3-1.4-3s-2-1.1-3.2-1.1c-2.2,0-3.7,0.7-4.6,2.2c-0.5,0.8-0.7,2-0.8,3.5h-3.3c0-2,0.4-3.6,1.2-5
			c1.3-2.4,3.7-3.7,7.1-3.7c2.7,0,4.8,0.6,6.2,1.8c1.5,1.2,2.2,2.9,2.2,5.2c0,1.6-0.4,2.9-1.3,3.9c-0.5,0.6-1.2,1.1-2.1,1.5
			c1.4,0.4,2.5,1.1,3.2,2.2c0.8,1.1,1.2,2.4,1.2,4c0,2.5-0.8,4.6-2.5,6.1c-1.7,1.6-4,2.4-7,2.4C698.3,798.7,696,797.9,694.6,796.2z"
			/>
		<path fill="#1E7A85" d="M715.7,794h3.8v4h-3.8V794z"/>
		<path fill="#1E7A85" d="M727.6,791.3c0.2,1.9,1.1,3.2,2.6,3.9c0.8,0.4,1.7,0.6,2.7,0.6c2,0,3.4-0.6,4.4-1.9
			c0.9-1.2,1.4-2.6,1.4-4.1c0-1.8-0.6-3.3-1.7-4.3c-1.1-1-2.5-1.5-4-1.5c-1.1,0-2.1,0.2-2.9,0.7c-0.8,0.4-1.5,1.1-2.1,1.8l-2.9-0.2
			l2-14.2h13.7v3.2h-11.2l-1.1,7.3c0.6-0.5,1.2-0.8,1.7-1c1-0.4,2.1-0.6,3.4-0.6c2.4,0,4.5,0.8,6.1,2.3c1.7,1.6,2.5,3.5,2.5,5.9
			c0,2.5-0.8,4.7-2.3,6.6c-1.5,1.9-4,2.8-7.4,2.8c-2.1,0-4-0.6-5.7-1.8c-1.6-1.2-2.6-3.1-2.8-5.6H727.6z"/>
		<path fill="#1E7A85" d="M746.3,778.3h3.3v2.8c0.8-1,1.5-1.7,2.1-2.1c1.1-0.7,2.3-1.1,3.7-1.1c1.6,0,2.8,0.4,3.8,1.2
			c0.5,0.4,1,1.1,1.5,1.9c0.7-1.1,1.6-1.8,2.6-2.3s2.1-0.8,3.3-0.8c2.6,0,4.4,1,5.4,2.9c0.5,1,0.8,2.4,0.8,4.1V798h-3.4v-13.7
			c0-1.3-0.3-2.2-1-2.7s-1.5-0.7-2.4-0.7c-1.3,0-2.4,0.4-3.4,1.3c-0.9,0.9-1.4,2.3-1.4,4.4V798h-3.4v-12.8c0-1.3-0.2-2.3-0.5-2.9
			c-0.5-0.9-1.4-1.4-2.8-1.4c-1.2,0-2.4,0.5-3.4,1.5c-1,1-1.5,2.7-1.5,5.3V798h-3.3V778.3z"/>
		<path fill="#1E7A85" d="M776.5,805.7c1.9-3.8,3.2-6.6,3.8-8.3c0.9-2.6,1.3-5.7,1.3-9.3s-0.5-6.8-1.5-9.7c-0.6-1.8-1.8-4.4-3.6-7.8
			h2.2c1.9,3,3,4.9,3.4,5.6c0.4,0.7,0.8,1.7,1.3,2.9c0.6,1.5,1,3,1.3,4.5c0.3,1.5,0.4,2.9,0.4,4.3c0,3.6-0.6,6.9-1.7,9.7
			c-0.7,1.8-2.2,4.5-4.5,8.1H776.5z"/>
	</g>
</g>
</svg>
