<?xml version="1.0" encoding="utf-8"?>
<!-- Generator: Adobe Illustrator 18.1.1, SVG Export Plug-In . SVG Version: 6.00 Build 0)  -->
<!DOCTYPE svg PUBLIC "-//W3C//DTD SVG 1.1//EN" "http://www.w3.org/Graphics/SVG/1.1/DTD/svg11.dtd">
<svg version="1.1" id="Layer_1" xmlns="http://www.w3.org/2000/svg" xmlns:xlink="http://www.w3.org/1999/xlink" x="0px" y="0px"
	 viewBox="0 0 1920 1080" enable-background="new 0 0 1920 1080" xml:space="preserve">
<g>
	<g>
		<g>
			<path fill-rule="evenodd" clip-rule="evenodd" fill="#1E7A85" d="M1034.1,335c0-3.5,2.9-6.4,6.4-6.3c3.4,0,6.3,2.9,6.3,6.4
				c0,3.5-2.9,6.4-6.4,6.3C1037,341.3,1034.1,338.4,1034.1,335z"/>
		</g>
	</g>
	<g>
		<g>
			<g>
				<path fill-rule="evenodd" clip-rule="evenodd" fill="#1E7A85" d="M1606.7,852.3c0-3.5,2.9-6.4,6.4-6.3c3.4,0,6.3,2.9,6.3,6.4
					c0,3.5-2.9,6.4-6.4,6.3C1609.5,858.6,1606.7,855.7,1606.7,852.3z"/>
			</g>
		</g>
		<g>
			<path fill="#1E7A85" d="M1561.9,838.2v88.4h30.7v13.4h-9.7l23.6,29.4l23.6-29.4h-9.7v-13.4h30.7v-30.2v-27.9v-27.8v-2.4H1561.9z
				 M1630.4,914.6c0,0.5-0.2,0.8-0.5,1.1c-1.9,1.9-3.7,3.8-5.6,5.7c-0.3,0.3-0.5,0.5-0.9,0.5c-2.7,0-5.4,0-8.2,0
				c-0.1,0-0.2,0-0.3-0.1c0-0.3,0.3-0.5,0.5-0.6c1.5-1.4,2.9-2.9,4.4-4.3c0.2-0.1,0.4-0.3,0.3-0.5c-0.1-0.2-0.4-0.1-0.5-0.1
				c-1.9,0-3.8,0-5.7,0c-0.5,0-0.8,0.1-1.2,0.5c-1.5,1.6-2.9,3.1-4.4,4.7c-0.3,0.3-0.6,0.5-1.1,0.5c-11.6,0-23.2,0-34.8,0
				c-0.3,0-0.6,0.1-1.2-0.2c0.7-0.6,1.3-1.1,1.8-1.6c1.6-1.5,3.2-3.1,4.8-4.7c0.3-0.3,0.5-0.6,0.5-1c0-2.9,0-5.8,0-8.8
				c0-0.7-0.3-0.8-0.9-0.8c-3.3,0-6.7,0-10,0c-0.2,0-0.5,0-0.7,0c-0.6,0-0.6-0.2-0.3-0.7c1.1-1.5,2.1-3,3.2-4.5
				c1.3-1.9,2.7-3.8,4-5.7c0.3-0.4,0.6-0.6,1.1-0.6c0.9,0,1.9,0,2.8,0c0.5,0,0.7-0.2,0.7-0.7c0-0.3,0-0.6,0-1c0-15.9,0-31.9,0-47.8
				c0-0.3,0-0.6,0-0.9c0-0.4,0.2-0.6,0.6-0.6c0.3,0,0.5,0,0.7,0c16.5,0,33.1,0,49.6,0c0.1,0,0.2,0,0.2,0c1.1,0,1.1,0,1.1,1.1
				c0,9.4,0,18.8,0,28.2c0,1,0,1-1,1c-2.1,0-4.2,0-6.2,0c-0.6,0-0.9-0.2-1.2-0.6c-1.6-2.3-3.2-4.5-4.8-6.8c-1.1-1.6-2.3-3.1-3.3-4.7
				c-0.3-0.4-0.5-0.4-0.9-0.4c-2.8,0-5.6-0.1-8.5,0c-4.6,0.2-9.2,0-13.9,0.1c-0.6,0-0.9,0.1-1.2,0.6c-2.3,3.8-4.7,7.6-7,11.4
				c-0.5,0.9-0.4,2,0.3,2.7c0.5,0.5,1,1.2,1.9,1.1c0.3,0,0.6-0.1,0.8-0.4c1.4-1.2,2.2-3,3.2-4.5c1-1.5,1.9-3.1,2.9-4.6
				c0.2-0.3,0.4-0.5,0.8-0.5c2.6,0,5.2,0,7.7,0c0.7,0,0.6,0.2,0.4,0.7c-1.2,2.4-2.4,4.8-3.5,7.2c-0.9,1.8-1.7,3.6-2.7,5.4
				c-0.5,0.9-0.3,1.9-0.4,2.9c-0.3,3.2-0.5,6.3-0.8,9.5c-0.1,1.1-0.2,2.2-0.3,3.3c0,0.8-0.6,1.3-1.6,1.3c-4.6,0-9.2,0-13.8,0
				c-0.3,0-0.6,0-0.9,0.3c-1.1,1.6-2.3,3.1-3.4,4.6c-0.1,0.1-0.1,0.2-0.3,0.5c0.5,0,0.8,0,1.1,0c7.5,0,14.9,0,22.4,0
				c1.5,0,2.5-1,2.6-2.5c0.2-2.7,0.5-5.4,0.9-8.1c0.2-1.6,0.3-3.1,0.5-4.7c0.1-0.5,0.1-0.9,0.5-1.3c0.4-0.3,0.6-0.4,0.9,0.2
				c1.8,3.8,3.6,7.5,5.5,11.3c1.6,3.4,3.4,6.7,5,10.1c1,2.1,2,4.1,3,6.2c0.2,0.4,0.4,0.6,0.9,0.6c2,0,4,0,5.9,0
				c0.6,0,0.7-0.2,0.5-0.7c-1.2-2.5-2.4-4.9-3.7-7.4c-2.3-4.8-4.6-9.6-7-14.4c-1.4-2.9-2.8-5.8-4.2-8.6c-0.2-0.4-0.2-0.7,0-1.1
				c1.7-3.2,3.4-6.3,5.1-9.5c0.3-0.6,0.6-1.2,0.9-1.8c0.2-0.5,0.4-0.4,0.6,0c1.7,2.5,3.4,4.9,5,7.3c0.3,0.5,0.7,0.7,1.3,0.7
				c3,0,6,0,9,0c0.6,0,0.9,0.2,0.9,0.8C1630.4,890.9,1630.4,902.7,1630.4,914.6z"/>
		</g>
	</g>
	<g>
		<path fill="none" d="M1056.8,325.1c-0.1,0-0.1,0-0.2,0c-16.5,0-33,0-49.6,0c-0.2,0-0.5,0-0.7,0c-0.4,0-0.6,0.2-0.6,0.6
			c0,0.3,0,0.6,0,0.9c0,15.9,0,31.9,0,47.8c0,0.3,0,0.6,0,1c0,0.5-0.2,0.7-0.7,0.7c-0.9,0-1.9,0-2.8,0c-0.5,0-0.9,0.2-1.1,0.6
			c-1.3,1.9-2.7,3.8-4,5.7c-1.1,1.5-2.1,3-3.2,4.5c-0.3,0.4-0.3,0.7,0.3,0.7c0.2,0,0.4,0,0.7,0c3.3,0,6.7,0,10,0
			c0.6,0,0.9,0.2,0.9,0.8c0,2.9,0,5.8,0,8.8c0,0.4-0.2,0.7-0.5,1c-1.6,1.5-3.2,3.1-4.8,4.7c-0.5,0.5-1.1,1-1.8,1.6
			c0.6,0.2,0.9,0.2,1.2,0.2c11.6,0,23.2,0,34.8,0c0.5,0,0.8-0.1,1.1-0.5c1.5-1.6,2.9-3.1,4.4-4.7c0.3-0.3,0.7-0.5,1.2-0.5
			c1.9,0,3.8,0,5.7,0c0.2,0,0.5-0.1,0.5,0.1c0.1,0.3-0.2,0.4-0.3,0.5c-1.5,1.4-2.9,2.9-4.4,4.3c-0.2,0.2-0.4,0.3-0.5,0.6
			c0.1,0,0.2,0.1,0.3,0.1c2.7,0,5.4,0,8.2,0c0.4,0,0.7-0.2,0.9-0.5c1.9-1.9,3.7-3.8,5.6-5.7c0.3-0.3,0.5-0.7,0.5-1.1
			c0-11.8,0-23.6,0-35.5c0-0.7-0.2-0.8-0.9-0.8c-3,0-6,0-9,0c-0.6,0-1-0.2-1.3-0.7c-1.7-2.5-3.4-4.9-5-7.3c-0.3-0.4-0.4-0.5-0.6,0
			c-0.3,0.6-0.6,1.2-1,1.7c-1.7,3.2-3.4,6.3-5.1,9.5c-0.2,0.4-0.2,0.7,0,1.1c1.4,2.9,2.8,5.8,4.2,8.6c2.3,4.8,4.6,9.6,7,14.3
			c1.2,2.5,2.4,5,3.7,7.4c0.3,0.6,0.2,0.7-0.5,0.7c-2,0-3.9,0-5.9,0c-0.5,0-0.7-0.2-1-0.6c-1-2.1-2-4.1-3-6.2
			c-1.6-3.4-3.3-6.7-4.9-10.1c-1.8-3.8-3.7-7.5-5.5-11.3c-0.3-0.6-0.5-0.5-0.9-0.2c-0.4,0.3-0.4,0.8-0.5,1.3
			c-0.2,1.6-0.3,3.1-0.5,4.7c-0.3,2.7-0.7,5.4-0.9,8.1c-0.1,1.5-1.1,2.5-2.6,2.5c-7.5,0-14.9,0-22.4,0c-0.3,0-0.6,0-1.1,0
			c0.2-0.3,0.2-0.4,0.3-0.5c1.2-1.5,2.3-3.1,3.4-4.6c0.3-0.4,0.6-0.3,0.9-0.3c4.6,0,9.2,0,13.8,0c1,0,1.6-0.5,1.6-1.3
			c0.1-1.1,0.2-2.2,0.3-3.3c0.3-3.2,0.5-6.3,0.8-9.5c0.1-1,0-2,0.4-2.9c0.9-1.8,1.8-3.6,2.7-5.4c1.2-2.4,2.3-4.8,3.5-7.2
			c0.2-0.5,0.3-0.7-0.4-0.7c-2.6,0-5.1,0-7.7,0c-0.4,0-0.6,0.1-0.8,0.5c-1,1.5-1.9,3.1-2.9,4.6c-1,1.5-1.7,3.3-3.2,4.5
			c-0.3,0.2-0.5,0.3-0.8,0.4c-0.9,0.1-1.4-0.6-1.9-1.1c-0.7-0.7-0.9-1.8-0.3-2.7c2.3-3.8,4.7-7.6,7-11.4c0.3-0.5,0.6-0.6,1.2-0.6
			c4.6-0.1,9.2,0.1,13.9-0.1c2.8-0.1,5.6,0,8.5,0c0.4,0,0.7,0.1,0.9,0.4c1.1,1.6,2.2,3.1,3.3,4.7c1.6,2.3,3.2,4.5,4.8,6.8
			c0.3,0.4,0.7,0.6,1.2,0.6c2.1,0,4.2,0,6.2,0c1,0,1,0,1-1c0-9.4,0-18.8,0-28.2C1057.9,325.1,1057.9,325.1,1056.8,325.1z"/>
		<path fill="#1E7A85" d="M989.4,320.9v88.4h15h15.7h27.9h30.7V379v-27.9v-27.8v-2.4H989.4z M1057.9,354.4c0,1,0,1-1,1
			c-2.1,0-4.2,0-6.2,0c-0.6,0-0.9-0.2-1.2-0.6c-1.6-2.3-3.2-4.5-4.8-6.8c-1.1-1.6-2.3-3.1-3.3-4.7c-0.3-0.4-0.5-0.4-0.9-0.4
			c-2.8,0-5.7-0.1-8.5,0c-4.6,0.2-9.2,0-13.9,0.1c-0.5,0-0.9,0.1-1.2,0.6c-2.3,3.8-4.7,7.6-7,11.4c-0.5,0.9-0.4,2,0.3,2.7
			c0.5,0.5,1,1.2,1.9,1.1c0.3,0,0.6-0.1,0.8-0.4c1.4-1.2,2.2-3,3.2-4.5c1-1.5,1.9-3.1,2.9-4.6c0.2-0.3,0.4-0.5,0.8-0.5
			c2.6,0,5.2,0,7.7,0c0.7,0,0.6,0.2,0.4,0.7c-1.2,2.4-2.4,4.8-3.5,7.2c-0.9,1.8-1.7,3.6-2.7,5.4c-0.5,0.9-0.3,1.9-0.4,2.9
			c-0.3,3.2-0.5,6.3-0.8,9.5c-0.1,1.1-0.2,2.2-0.3,3.3c0,0.8-0.6,1.3-1.6,1.3c-4.6,0-9.2,0-13.8,0c-0.3,0-0.6,0-0.9,0.3
			c-1.1,1.6-2.3,3.1-3.4,4.6c-0.1,0.1-0.1,0.2-0.3,0.5c0.5,0,0.8,0,1.1,0c7.5,0,14.9,0,22.4,0c1.5,0,2.5-1,2.6-2.5
			c0.2-2.7,0.5-5.4,0.9-8.1c0.2-1.6,0.3-3.1,0.5-4.7c0.1-0.5,0.1-0.9,0.5-1.3c0.4-0.3,0.6-0.4,0.9,0.2c1.8,3.8,3.6,7.5,5.5,11.3
			c1.6,3.4,3.4,6.7,4.9,10.1c1,2.1,2,4.1,3,6.2c0.2,0.4,0.4,0.6,1,0.6c2,0,4,0,5.9,0c0.6,0,0.7-0.2,0.5-0.7
			c-1.2-2.5-2.4-4.9-3.7-7.4c-2.3-4.8-4.6-9.6-7-14.3c-1.4-2.9-2.8-5.8-4.2-8.6c-0.2-0.4-0.2-0.7,0-1.1c1.7-3.2,3.4-6.3,5.1-9.5
			c0.3-0.6,0.7-1.2,1-1.7c0.2-0.5,0.4-0.4,0.6,0c1.7,2.5,3.4,4.9,5,7.3c0.3,0.5,0.7,0.7,1.3,0.7c3,0,6,0,9,0c0.6,0,0.9,0.2,0.9,0.8
			c0,11.8,0,23.6,0,35.5c0,0.5-0.2,0.8-0.5,1.1c-1.9,1.9-3.7,3.8-5.6,5.7c-0.3,0.3-0.5,0.5-0.9,0.5c-2.7,0-5.4,0-8.2,0
			c-0.1,0-0.2,0-0.3-0.1c0-0.3,0.3-0.5,0.5-0.6c1.5-1.4,3-2.9,4.4-4.3c0.2-0.1,0.4-0.3,0.3-0.5c-0.1-0.2-0.4-0.1-0.5-0.1
			c-1.9,0-3.8,0-5.7,0c-0.5,0-0.8,0.1-1.2,0.5c-1.5,1.6-3,3.1-4.4,4.7c-0.3,0.3-0.6,0.5-1.1,0.5c-11.6,0-23.2,0-34.8,0
			c-0.3,0-0.6,0.1-1.2-0.2c0.7-0.6,1.3-1.1,1.8-1.6c1.6-1.5,3.2-3.1,4.8-4.7c0.3-0.3,0.5-0.6,0.5-1c0-2.9,0-5.8,0-8.8
			c0-0.7-0.3-0.8-0.9-0.8c-3.3,0-6.7,0-10,0c-0.2,0-0.5,0-0.7,0c-0.6,0-0.6-0.2-0.3-0.7c1.1-1.5,2.1-3,3.2-4.5
			c1.3-1.9,2.7-3.8,4-5.7c0.3-0.4,0.6-0.6,1.1-0.6c0.9,0,1.9,0,2.8,0c0.5,0,0.7-0.2,0.7-0.7c0-0.3,0-0.6,0-1c0-15.9,0-31.9,0-47.8
			c0-0.3,0-0.6,0-0.9c0-0.4,0.2-0.6,0.6-0.6c0.2,0,0.5,0,0.7,0c16.5,0,33.1,0,49.6,0c0.1,0,0.2,0,0.2,0c1.1,0,1.1,0,1.1,1.1
			C1057.9,335.6,1057.9,345,1057.9,354.4z"/>
		<polygon fill="#1E7A85" points="1091.2,388.5 1120.6,364.9 1091.2,341.2 1091.2,350.9 1077.9,350.9 1077.9,378.8 1091.2,378.8 		
			"/>
	</g>
</g>
</svg>
