<?xml version="1.0" encoding="utf-8"?>
<!-- Generator: Adobe Illustrator 18.1.1, SVG Export Plug-In . SVG Version: 6.00 Build 0)  -->
<!DOCTYPE svg PUBLIC "-//W3C//DTD SVG 1.1//EN" "http://www.w3.org/Graphics/SVG/1.1/DTD/svg11.dtd">
<svg version="1.1" id="Layer_1" xmlns="http://www.w3.org/2000/svg" xmlns:xlink="http://www.w3.org/1999/xlink" x="0px" y="0px"
	 viewBox="0 0 1920 1080" enable-background="new 0 0 1920 1080" xml:space="preserve">
<g>
	<g>
		<g>
			<path fill="#1E7A85" d="M629.7,632.4v50h59.9v-50H629.7z M683.7,676.1h-48v-31.2h48V676.1z"/>
		</g>
	</g>
	<g>
		<g>
			<path fill="#1E7A85" d="M720.1,632.4v50h59.9v-50H720.1z M774.1,676.1h-48v-31.2h48V676.1z"/>
		</g>
	</g>
	<g>
		<g>
			<path fill="#1E7A85" d="M810.5,632.4v50h59.9l0-50H810.5z M864.5,676.1h-48v-31.2h48V676.1z"/>
		</g>
	</g>
	<g>
		<g>
			<path fill="#1E7A85" d="M585.7,529.2v49.9h59.9v-49.9H585.7z M639.6,572.9h-48v-31.2h48V572.9z"/>
		</g>
	</g>
	<g>
		<g>
			<path fill="#1E7A85" d="M676,529.2v49.9h60v-49.9H676z M730,572.9h-48v-31.2h48V572.9z"/>
		</g>
	</g>
	<g>
		<g>
			<path fill="#1E7A85" d="M766.5,529.2l0,49.9h59.9l0-49.9H766.5z M820.4,572.9h-48v-31.2h48V572.9z"/>
		</g>
	</g>
	<g>
		<g>
			<path fill="#1E7A85" d="M585.7,425.9v50h59.9v-50H585.7z M639.6,469.6h-48v-31.2h48V469.6z"/>
		</g>
	</g>
	<g>
		<g>
			<path fill="#1E7A85" d="M676,425.9v50h60v-50H676z M730,469.6h-48v-31.2h48V469.6z"/>
		</g>
	</g>
	<g>
		<g>
			<path fill="#1E7A85" d="M766.5,425.9l0,50h59.9l0-50H766.5z M820.4,469.6h-48v-31.2h48V469.6z"/>
		</g>
	</g>
	<g>
		<g>
			<path fill="#1E7A85" d="M900.9,632.4l0,50h59.9v-50H900.9z M954.9,676.1h-48v-31.2h48V676.1z"/>
		</g>
	</g>
	<g>
		<g>
			<path fill="#1E7A85" d="M991.3,632.4v50h59.9v-50H991.3z M1045.3,676.1h-48v-31.2h48V676.1z"/>
		</g>
	</g>
	<g>
		<g>
			<path fill="#1E7A85" d="M856.9,529.2l0,49.9h59.9v-49.9H856.9z M910.8,572.9h-48v-31.2h48V572.9z"/>
		</g>
	</g>
	<g>
		<g>
			<path fill="#1E7A85" d="M947.3,529.2v49.9h59.9v-49.9H947.3z M1001.2,572.9h-48v-31.2h48V572.9z"/>
		</g>
	</g>
	<g>
		<g>
			<path fill="#1E7A85" d="M1037.7,529.2l0,49.9h59.9l0-49.9H1037.7z M1091.6,572.9h-48v-31.2h48V572.9z"/>
		</g>
	</g>
	<g>
		<g>
			<path fill="#1E7A85" d="M856.9,425.9l0,50h59.9v-50H856.9z M910.8,469.6h-48v-31.2h48V469.6z"/>
		</g>
	</g>
	<g>
		<g>
			<path fill="#1E7A85" d="M947.3,425.9v50h59.9v-50H947.3z M1001.2,469.6h-48v-31.2h48V469.6z"/>
		</g>
	</g>
	<g>
		<g>
			<path fill="#1E7A85" d="M1037.7,425.9l0,50h59.9l0-50H1037.7z M1091.6,469.6h-48v-31.2h48V469.6z"/>
		</g>
	</g>
	<g>
		<g>
			<path fill="#1E7A85" d="M585.7,321.9v50h59.9v-50H585.7z M639.6,365.6h-48v-31.2h48V365.6z"/>
		</g>
	</g>
	<g>
		<g>
			<path fill="#1E7A85" d="M676,321.9v50h60v-50H676z M730,365.6h-48v-31.2h48V365.6z"/>
		</g>
	</g>
	<g>
		<g>
			<path fill="#1E7A85" d="M766.5,321.9l0,50h59.9l0-50H766.5z M820.4,365.6h-48v-31.2h48V365.6z"/>
		</g>
	</g>
	<g>
		<g>
			<path fill="#1E7A85" d="M856.9,321.9l0,50h59.9v-50H856.9z M910.8,365.6h-48v-31.2h48V365.6z"/>
		</g>
	</g>
	<g>
		<g>
			<path fill="#1E7A85" d="M947.3,321.9v50h59.9v-50H947.3z M1001.2,365.6h-48v-31.2h48V365.6z"/>
		</g>
	</g>
	<g>
		<g>
			<path fill="#1E7A85" d="M1037.7,321.9l0,50h59.9l0-50H1037.7z M1091.6,365.6h-48v-31.2h48V365.6z"/>
		</g>
	</g>
	<g>
		<g>
			<path fill="#1E7A85" d="M585.7,218.6v50h59.9v-50H585.7z M639.6,262.4h-48v-31.2h48V262.4z"/>
		</g>
	</g>
	<g>
		<g>
			<path fill="#1E7A85" d="M676,218.6v50h60v-50H676z M730,262.4h-48v-31.2h48V262.4z"/>
		</g>
	</g>
	<g>
		<g>
			<path fill="#1E7A85" d="M766.5,218.6l0,50h59.9l0-50H766.5z M820.4,262.4h-48v-31.2h48V262.4z"/>
		</g>
	</g>
	<g>
		<g>
			<path fill="#1E7A85" d="M856.9,218.6l0,50h59.9v-50H856.9z M910.8,262.4h-48v-31.2h48V262.4z"/>
		</g>
	</g>
	<g>
		<g>
			<path fill="#1E7A85" d="M947.3,218.6v50h59.9v-50H947.3z M1001.2,262.4h-48v-31.2h48V262.4z"/>
		</g>
	</g>
	<g>
		<g>
			<path fill="#1E7A85" d="M1037.7,218.6l0,50h59.9l0-50H1037.7z M1091.6,262.4h-48v-31.2h48V262.4z"/>
		</g>
	</g>
	<g>
		<g>
			<path fill="#1E7A85" d="M585.7,115.4v50h59.9v-50H585.7z M639.6,159.1h-48v-31.2h48V159.1z"/>
		</g>
	</g>
	<g>
		<g>
			<path fill="#1E7A85" d="M676,115.4v50h60v-50H676z M730,159.1h-48v-31.2h48V159.1z"/>
		</g>
	</g>
	<g>
		<g>
			<path fill="#1E7A85" d="M766.5,115.4l0,50h59.9l0-50H766.5z M820.4,159.1h-48v-31.2h48V159.1z"/>
		</g>
	</g>
	<g>
		<g>
			<path fill="#1E7A85" d="M856.9,115.4l0,50h59.9v-50H856.9z M910.8,159.1h-48v-31.2h48V159.1z"/>
		</g>
	</g>
	<g>
		<g>
			<path fill="#1E7A85" d="M947.3,115.4v50h59.9v-50H947.3z M1001.2,159.1h-48v-31.2h48V159.1z"/>
		</g>
	</g>
	<g>
		<g>
			<path fill="#1E7A85" d="M1037.7,115.4l0,50h59.9l0-50H1037.7z M1091.6,159.1h-48v-31.2h48V159.1z"/>
		</g>
	</g>
	<g>
		<path d="M901.2,920.7H779.8v-58h121.4V920.7z M781.4,919.2h118.3v-54.8H781.4V919.2z"/>
	</g>
</g>
</svg>
