<?xml version="1.0" encoding="utf-8"?>
<!-- Generator: Adobe Illustrator 18.1.1, SVG Export Plug-In . SVG Version: 6.00 Build 0)  -->
<!DOCTYPE svg PUBLIC "-//W3C//DTD SVG 1.1//EN" "http://www.w3.org/Graphics/SVG/1.1/DTD/svg11.dtd">
<svg version="1.1" id="Layer_1" xmlns="http://www.w3.org/2000/svg" xmlns:xlink="http://www.w3.org/1999/xlink" x="0px" y="0px"
	 viewBox="0 0 1920 1080" enable-background="new 0 0 1920 1080" xml:space="preserve">
<g>
	<g>
		<path fill="#1E7A85" d="M909.7,40.6v46.5h55.7V40.6H909.7z M959.9,81.3h-44.6v-29h44.6V81.3z"/>
	</g>
	<g>
		<path fill="#1E7A85" d="M845.5,40.6v46.5h55.7V40.6H845.5z M895.7,81.3h-44.6v-29h44.6V81.3z"/>
	</g>
	<g>
		<path fill="#1E7A85" d="M782.9,40.6v46.5h55.7V40.6H782.9z M833.1,81.3h-44.6v-29h44.6V81.3z"/>
	</g>
	<g>
		<path fill="#1E7A85" d="M718.7,40.6v46.5h55.7V40.6H718.7z M768.8,81.3h-44.6v-29h44.6V81.3z"/>
	</g>
	<g>
		<path fill="#1E7A85" d="M656.1,40.6v46.5h55.7V40.6H656.1z M706.2,81.3h-44.6v-29h44.6V81.3z"/>
	</g>
	<g>
		<path fill="#1E7A85" d="M591.8,40.6v46.5h55.7V40.6H591.8z M642,81.3h-44.6v-29H642V81.3z"/>
	</g>
	<g>
		<path fill="#1E7A85" d="M1177.1,443h-46.5v55.7h46.5V443z M1136.4,493.2v-44.6h29v44.6H1136.4z"/>
	</g>
	<g>
		<path fill="#1E7A85" d="M1177.1,252.7h-46.5v55.7h46.5V252.7z M1136.4,302.9v-44.6h29v44.6H1136.4z"/>
	</g>
	<g>
		<path fill="#1E7A85" d="M1037.3,40.6v46.5h55.7V40.6H1037.3z M1087.4,81.3h-44.6v-29h44.6V81.3z"/>
	</g>
	<g>
		<path fill="#1E7A85" d="M973.1,40.6v46.5h55.7V40.6H973.1z M1023.2,81.3h-44.6v-29h44.6V81.3z"/>
	</g>
	<g>
		<path fill="#1E7A85" d="M1177.1,189.4h-46.5v55.7h46.5V189.4z M1136.4,239.5V195h29v44.6H1136.4z"/>
	</g>
	<g>
		<path fill="#1E7A85" d="M1177.1,125.2h-46.5v55.7h46.5V125.2z M1136.4,175.3v-44.6h29v44.6H1136.4z"/>
	</g>
	<g>
		<path fill="#1E7A85" d="M511.9,180.9h46.5v-55.7h-46.5V180.9z M552.5,130.7v44.6h-29v-44.6H552.5z"/>
	</g>
	<g>
		<path fill="#1E7A85" d="M511.9,245.1h46.5v-55.7h-46.5V245.1z M552.5,194.9v44.6h-29v-44.6H552.5z"/>
	</g>
	<g>
		<path fill="#1E7A85" d="M511.9,307.7h46.5V252h-46.5V307.7z M552.5,257.5v44.6h-29v-44.6H552.5z"/>
	</g>
	<g>
		<path fill="#1E7A85" d="M511.9,371.9h46.5v-55.7h-46.5V371.9z M552.5,321.8v44.6h-29v-44.6H552.5z"/>
	</g>
	<g>
		<path fill="#1E7A85" d="M511.9,434.5h46.5v-55.7h-46.5V434.5z M552.5,384.4V429h-29v-44.6H552.5z"/>
	</g>
	<g>
		<path fill="#1E7A85" d="M511.9,498.7h46.5V443h-46.5V498.7z M552.5,448.6v44.6h-29v-44.6H552.5z"/>
	</g>
	<g>
		<path fill="#1E7A85" d="M1177.1,823.4h-46.5v55.7h46.5V823.4z M1136.4,873.6V829h29v44.6H1136.4z"/>
	</g>
	<g>
		<path fill="#1E7A85" d="M1177.1,759.2h-46.5v55.7h46.5V759.2z M1136.4,809.4v-44.6h29v44.6H1136.4z"/>
	</g>
	<g>
		<path fill="#1E7A85" d="M1177.1,696.6h-46.5v55.7h46.5V696.6z M1136.4,746.8v-44.6h29v44.6H1136.4z"/>
	</g>
	<g>
		<path fill="#1E7A85" d="M1177.1,632.4h-46.5v55.7h46.5V632.4z M1136.4,682.6V638h29v44.6H1136.4z"/>
	</g>
	<g>
		<path fill="#1E7A85" d="M1177.1,569.8h-46.5v55.7h46.5V569.8z M1136.4,620v-44.6h29V620H1136.4z"/>
	</g>
	<g>
		<path fill="#1E7A85" d="M1177.1,505.6h-46.5v55.7h46.5V505.6z M1136.4,555.7v-44.6h29v44.6H1136.4z"/>
	</g>
	<g>
		<path fill="#1E7A85" d="M511.9,561.3h46.5v-55.7h-46.5V561.3z M552.5,511.2v44.6h-29v-44.6H552.5z"/>
	</g>
	<g>
		<path fill="#1E7A85" d="M511.9,625.5h46.5v-55.7h-46.5V625.5z M552.5,575.4V620h-29v-44.6H552.5z"/>
	</g>
	<g>
		<path fill="#1E7A85" d="M511.9,688.1h46.5v-55.7h-46.5V688.1z M552.5,638v44.6h-29V638H552.5z"/>
	</g>
	<g>
		<path fill="#1E7A85" d="M511.9,752.3h46.5v-55.7h-46.5V752.3z M552.5,702.2v44.6h-29v-44.6H552.5z"/>
	</g>
	<g>
		<path fill="#1E7A85" d="M511.9,814.9h46.5v-55.7h-46.5V814.9z M552.5,764.8v44.6h-29v-44.6H552.5z"/>
	</g>
	<g>
		<path fill="#1E7A85" d="M511.9,879.2h46.5v-55.7h-46.5V879.2z M552.5,829v44.6h-29V829H552.5z"/>
	</g>
</g>
</svg>
