<?xml version="1.0" encoding="utf-8"?>
<!-- Generator: Adobe Illustrator 18.1.1, SVG Export Plug-In . SVG Version: 6.00 Build 0)  -->
<!DOCTYPE svg PUBLIC "-//W3C//DTD SVG 1.1//EN" "http://www.w3.org/Graphics/SVG/1.1/DTD/svg11.dtd">
<svg version="1.1" id="Layer_1" xmlns="http://www.w3.org/2000/svg" xmlns:xlink="http://www.w3.org/1999/xlink" x="0px" y="0px"
	 viewBox="0 0 1920 1080" enable-background="new 0 0 1920 1080" xml:space="preserve">
<g>
	<g>
		<g>
			<g>
				<path fill="#1E7A85" d="M423.6,425.5v30h36v-30H423.6z M456.1,451.7h-28.8V433h28.8V451.7z"/>
			</g>
		</g>
	</g>
	<g>
		<g>
			<g>
				<path fill="#1E7A85" d="M468.7,425.5v30h36v-30H468.7z M501.1,451.7h-28.8V433h28.8V451.7z"/>
			</g>
		</g>
	</g>
	<g>
		<g>
			<g>
				<path fill="#1E7A85" d="M513.8,425.5v30h36v-30H513.8z M546.2,451.7h-28.8V433h28.8V451.7z"/>
			</g>
		</g>
	</g>
	<g>
		<g>
			<g>
				<path fill="#1E7A85" d="M558.8,425.5v30h36v-30H558.8z M591.3,451.7h-28.8V433h28.8V451.7z"/>
			</g>
		</g>
	</g>
	<g>
		<g>
			<g>
				<path fill="#1E7A85" d="M603.9,425.5v30h36v-30H603.9z M636.3,451.7h-28.8V433h28.8V451.7z"/>
			</g>
		</g>
	</g>
	<g>
		<g>
			<g>
				<path fill="#1E7A85" d="M648.9,425.5v30h36v-30H648.9z M681.4,451.7h-28.8V433h28.8V451.7z"/>
			</g>
		</g>
	</g>
	<g>
		<g>
			<g>
				<path fill="#1E7A85" d="M694,425.5v30h36v-30H694z M726.4,451.7h-28.8V433h28.8V451.7z"/>
			</g>
		</g>
	</g>
	<g>
		<g>
			<g>
				<path fill="#1E7A85" d="M739.1,425.5v30h36v-30H739.1z M771.5,451.7h-28.8V433h28.8V451.7z"/>
			</g>
		</g>
	</g>
	<g>
		<g>
			<g>
				<path fill="#1E7A85" d="M784.1,425.5v30h36v-30H784.1z M816.6,451.7h-28.8V433h28.8V451.7z"/>
			</g>
		</g>
	</g>
	<g>
		<g>
			<g>
				<path fill="#1E7A85" d="M829.2,425.5v30h36v-30H829.2z M861.6,451.7h-28.8V433h28.8V451.7z"/>
			</g>
		</g>
	</g>
	<g>
		<g>
			<g>
				<path fill="#1E7A85" d="M874.3,425.5v30h36v-30H874.3z M906.7,451.7h-28.8V433h28.8V451.7z"/>
			</g>
		</g>
	</g>
	<g>
		<g>
			<g>
				<path fill="#1E7A85" d="M919.3,425.5v30h36v-30H919.3z M951.8,451.7h-28.8V433h28.8V451.7z"/>
			</g>
		</g>
	</g>
	<g>
		<g>
			<g>
				<path fill="#1E7A85" d="M964.4,425.5v30h36v-30H964.4z M996.8,451.7H968V433h28.8V451.7z"/>
			</g>
		</g>
	</g>
	<g>
		<g>
			<g>
				<path fill="#1E7A85" d="M1009.5,425.5v30h36v-30H1009.5z M1041.9,451.7h-28.8V433h28.8V451.7z"/>
			</g>
		</g>
	</g>
	<g>
		<g>
			<g>
				<path fill="#1E7A85" d="M1054.5,425.5v30h36v-30H1054.5z M1087,451.7h-28.8V433h28.8V451.7z"/>
			</g>
		</g>
	</g>
	<g>
		<g>
			<g>
				<path fill="#1E7A85" d="M1099.6,425.5v30h36v-30H1099.6z M1132,451.7h-28.8V433h28.8V451.7z"/>
			</g>
		</g>
	</g>
	<g>
		<g>
			<g>
				<path fill="#1E7A85" d="M1144.7,425.5v30h36v-30H1144.7z M1177.1,451.7h-28.8V433h28.8V451.7z"/>
			</g>
		</g>
	</g>
	<g>
		<g>
			<g>
				<path fill="#1E7A85" d="M1180.7,693.8v-30h-36v30H1180.7z M1148.3,667.5h28.8v18.8h-28.8V667.5z"/>
			</g>
		</g>
	</g>
	<g>
		<g>
			<g>
				<path fill="#1E7A85" d="M1135.6,693.8v-30h-36v30H1135.6z M1103.2,667.5h28.8v18.8h-28.8V667.5z"/>
			</g>
		</g>
	</g>
	<g>
		<g>
			<g>
				<path fill="#1E7A85" d="M1090.6,693.8v-30h-36v30H1090.6z M1058.1,667.5h28.8v18.8h-28.8V667.5z"/>
			</g>
		</g>
	</g>
	<g>
		<g>
			<g>
				<path fill="#1E7A85" d="M1045.5,693.8v-30h-36v30H1045.5z M1013.1,667.5h28.8v18.8h-28.8V667.5z"/>
			</g>
		</g>
	</g>
	<g>
		<g>
			<g>
				<path fill="#1E7A85" d="M1000.4,693.8v-30h-36v30H1000.4z M968,667.5h28.8v18.8H968V667.5z"/>
			</g>
		</g>
	</g>
	<g>
		<g>
			<g>
				<path fill="#1E7A85" d="M955.4,693.8v-30h-36v30H955.4z M922.9,667.5h28.8v18.8h-28.8V667.5z"/>
			</g>
		</g>
	</g>
	<g>
		<g>
			<g>
				<path fill="#1E7A85" d="M910.3,693.8v-30h-36v30H910.3z M877.9,667.5h28.8v18.8h-28.8V667.5z"/>
			</g>
		</g>
	</g>
	<g>
		<g>
			<g>
				<path fill="#1E7A85" d="M865.2,693.8v-30h-36v30H865.2z M832.8,667.5h28.8v18.8h-28.8V667.5z"/>
			</g>
		</g>
	</g>
	<g>
		<g>
			<g>
				<path fill="#1E7A85" d="M820.2,693.8v-30h-36v30H820.2z M787.7,667.5h28.8v18.8h-28.8V667.5z"/>
			</g>
		</g>
	</g>
	<g>
		<g>
			<g>
				<path fill="#1E7A85" d="M775.1,693.8v-30h-36v30H775.1z M742.7,667.5h28.8v18.8h-28.8V667.5z"/>
			</g>
		</g>
	</g>
	<g>
		<g>
			<g>
				<path fill="#1E7A85" d="M730,693.8v-30h-36v30H730z M697.6,667.5h28.8v18.8h-28.8V667.5z"/>
			</g>
		</g>
	</g>
	<g>
		<g>
			<g>
				<path fill="#1E7A85" d="M685,693.8v-30h-36v30H685z M652.5,667.5h28.8v18.8h-28.8V667.5z"/>
			</g>
		</g>
	</g>
	<g>
		<g>
			<g>
				<path fill="#1E7A85" d="M639.9,693.8v-30h-36v30H639.9z M607.5,667.5h28.8v18.8h-28.8V667.5z"/>
			</g>
		</g>
	</g>
	<g>
		<g>
			<g>
				<path fill="#1E7A85" d="M594.9,693.8v-30h-36v30H594.9z M562.4,667.5h28.8v18.8h-28.8V667.5z"/>
			</g>
		</g>
	</g>
	<g>
		<g>
			<g>
				<path fill="#1E7A85" d="M549.8,693.8v-30h-36v30H549.8z M517.4,667.5h28.8v18.8h-28.8V667.5z"/>
			</g>
		</g>
	</g>
	<g>
		<g>
			<g>
				<path fill="#1E7A85" d="M504.7,693.8v-30h-36v30H504.7z M472.3,667.5h28.8v18.8h-28.8V667.5z"/>
			</g>
		</g>
	</g>
	<g>
		<g>
			<g>
				<path fill="#1E7A85" d="M459.7,693.8v-30h-36v30H459.7z M427.2,667.5h28.8v18.8h-28.8V667.5z"/>
			</g>
		</g>
	</g>
	<g>
		<rect x="802.1" y="460.8" fill="#FFFFFF" width="106.7" height="65.7"/>
		<path fill="#1E7A85" d="M909.5,527.3H801.3V460h108.3V527.3z M802.8,525.8H908v-64.2H802.8V525.8z"/>
	</g>
	<g>
		<rect x="588.6" y="460.8" fill="#FFFFFF" width="106.7" height="65.7"/>
		<path fill="#1E7A85" d="M696.1,527.3H587.9V460h108.3V527.3z M589.4,525.8h105.2v-64.2H589.4V525.8z"/>
	</g>
	<g>
		<rect x="695.3" y="460.8" fill="#FFFFFF" width="106.7" height="65.7"/>
		<path fill="#1E7A85" d="M802.8,527.3H694.6V460h108.3V527.3z M696.1,525.8h105.2v-64.2H696.1V525.8z"/>
	</g>
	<g>
		<rect x="1015.5" y="460.8" fill="#FFFFFF" width="106.7" height="65.7"/>
		<path fill="#1E7A85" d="M1123,527.3h-108.3V460H1123V527.3z M1016.3,525.8h105.2v-64.2h-105.2V525.8z"/>
	</g>
	<g>
		<rect x="908.8" y="460.8" fill="#FFFFFF" width="106.7" height="65.7"/>
		<path fill="#1E7A85" d="M1016.3,527.3H908V460h108.3V527.3z M909.5,525.8h105.2v-64.2H909.5V525.8z"/>
	</g>
	<g>
		<path fill="#1E7A85" d="M589.4,527.3H481.1V460h108.3V527.3z M482.7,525.8h105.2v-64.2H482.7V525.8z"/>
	</g>
	<g>
		<path fill="#1E7A85" d="M1188.7,658.6h-67.3V460.1h67.3V658.6z M1123,657.1h64.2V461.6H1123V657.1z"/>
	</g>
	<g>
		<path fill="#1E7A85" d="M482.7,658.6h-67.3V460.1h67.3V658.6z M417,657.1h64.2V461.6H417V657.1z"/>
	</g>
	<g>
		<rect x="802.1" y="526.5" fill="#FFFFFF" width="106.7" height="65.7"/>
		<path fill="#1E7A85" d="M909.5,593H801.3v-67.3h108.3V593z M802.8,591.5H908v-64.2H802.8V591.5z"/>
	</g>
	<g>
		<path fill="#1E7A85" d="M696.1,593H587.9v-67.3h108.3V593z M589.4,591.5h105.2v-64.2H589.4V591.5z"/>
	</g>
	<g>
		<rect x="695.3" y="526.5" fill="#FFFFFF" width="106.7" height="65.7"/>
		<path fill="#1E7A85" d="M802.8,593H694.6v-67.3h108.3V593z M696.1,591.5h105.2v-64.2H696.1V591.5z"/>
	</g>
	<g>
		<rect x="1015.5" y="526.5" fill="#FFFFFF" width="106.7" height="65.7"/>
		<path fill="#1E7A85" d="M1123,593h-108.3v-67.3H1123V593z M1016.3,591.5h105.2v-64.2h-105.2V591.5z"/>
	</g>
	<g>
		<rect x="908.8" y="526.5" fill="#FFFFFF" width="106.7" height="65.7"/>
		<path fill="#1E7A85" d="M1016.3,593H908v-67.3h108.3V593z M909.5,591.5h105.2v-64.2H909.5V591.5z"/>
	</g>
	<g>
		<path fill="#1E7A85" d="M589.4,593H481.1v-67.3h108.3V593z M482.7,591.5h105.2v-64.2H482.7V591.5z"/>
	</g>
	<g>
		<rect x="802.1" y="592.3" fill="#FFFFFF" width="106.7" height="65.7"/>
		<path fill="#1E7A85" d="M909.5,658.8H801.3v-67.3h108.3V658.8z M802.8,657.2H908V593H802.8V657.2z"/>
	</g>
	<g>
		<rect x="588.6" y="592.3" fill="#FFFFFF" width="106.7" height="65.7"/>
		<path fill="#1E7A85" d="M696.1,658.8H587.9v-67.3h108.3V658.8z M589.4,657.2h105.2V593H589.4V657.2z"/>
	</g>
	<g>
		<rect x="695.3" y="592.3" fill="#FFFFFF" width="106.7" height="65.7"/>
		<path fill="#1E7A85" d="M802.8,658.8H694.6v-67.3h108.3V658.8z M696.1,657.2h105.2V593H696.1V657.2z"/>
	</g>
	<g>
		<rect x="1015.5" y="592.3" fill="#FFFFFF" width="106.7" height="65.7"/>
		<path fill="#1E7A85" d="M1123,658.8h-108.3v-67.3H1123V658.8z M1016.3,657.2h105.2V593h-105.2V657.2z"/>
	</g>
	<g>
		<rect x="908.8" y="592.3" fill="#FFFFFF" width="106.7" height="65.7"/>
		<path fill="#1E7A85" d="M1016.3,658.8H908v-67.3h108.3V658.8z M909.5,657.2h105.2V593H909.5V657.2z"/>
	</g>
	<g>
		<path fill="#1E7A85" d="M589.4,658.8H481.1v-67.3h108.3V658.8z M482.7,657.2h105.2V593H482.7V657.2z"/>
	</g>
	<g>
		<g>
			<g>
				<path fill="#1E7A85" d="M379.7,601.5h30v-36h-30V601.5z M406,569.1v28.8h-18.8v-28.8H406z"/>
			</g>
		</g>
	</g>
	<g>
		<g>
			<g>
				<path fill="#1E7A85" d="M379.7,650.4h30v-36h-30V650.4z M406,618v28.8h-18.8V618H406z"/>
			</g>
		</g>
	</g>
	<g>
		<g>
			<g>
				<path fill="#1E7A85" d="M379.7,552.6h30v-36h-30V552.6z M406,520.2V549h-18.8v-28.8H406z"/>
			</g>
		</g>
	</g>
	<g>
		<g>
			<g>
				<path fill="#1E7A85" d="M379.7,503.8h30v-36h-30V503.8z M406,471.3v28.8h-18.8v-28.8H406z"/>
			</g>
		</g>
	</g>
	<g>
		<g>
			<g>
				<path fill="#1E7A85" d="M1223.3,467.7h-30v36h30V467.7z M1197,500.2v-28.8h18.8v28.8H1197z"/>
			</g>
		</g>
	</g>
	<g>
		<g>
			<g>
				<path fill="#1E7A85" d="M1223.3,516.6h-30v36h30V516.6z M1197,549v-28.8h18.8V549H1197z"/>
			</g>
		</g>
	</g>
	<g>
		<g>
			<g>
				<path fill="#1E7A85" d="M1223.3,565.5h-30v36h30V565.5z M1197,597.9v-28.8h18.8v28.8H1197z"/>
			</g>
		</g>
	</g>
	<g>
		<g>
			<g>
				<path fill="#1E7A85" d="M1223.3,614.4h-30v36h30V614.4z M1197,646.8V618h18.8v28.8H1197z"/>
			</g>
		</g>
	</g>
</g>
</svg>
