<?xml version="1.0" encoding="utf-8"?>
<!-- Generator: Adobe Illustrator 18.1.1, SVG Export Plug-In . SVG Version: 6.00 Build 0)  -->
<!DOCTYPE svg PUBLIC "-//W3C//DTD SVG 1.1//EN" "http://www.w3.org/Graphics/SVG/1.1/DTD/svg11.dtd">
<svg version="1.1" id="Layer_1" xmlns="http://www.w3.org/2000/svg" xmlns:xlink="http://www.w3.org/1999/xlink" x="0px" y="0px"
	 viewBox="0 0 1920 1080" enable-background="new 0 0 1920 1080" xml:space="preserve">
<g>
	<g>
		<g>
			<path fill="#1E7A85" d="M1105.9,623.9h-52.4v-132h52.4V623.9z M1055.1,622.4h49.3V493.5h-49.3V622.4z"/>
		</g>
		<g>
			<g>
				<g>
					<path fill="#1E7A85" d="M1018.4,616.9h27v-32.4h-27V616.9z M1042.1,587.7v25.9h-16.9v-25.9H1042.1z"/>
				</g>
			</g>
		</g>
		<g>
			<g>
				<g>
					<path fill="#1E7A85" d="M1018.4,532.6h27v-32.4h-27V532.6z M1042.1,503.4v25.9h-16.9v-25.9H1042.1z"/>
				</g>
			</g>
		</g>
		<g>
			<g>
				<g>
					<path fill="#1E7A85" d="M1018.4,574.1h27v-32.4h-27V574.1z M1042.1,544.9v25.9h-16.9v-25.9H1042.1z"/>
				</g>
			</g>
		</g>
		<g>
			<g>
				<g>
					<path fill="#1E7A85" d="M1095.9,657.6v-27h-32.4v27H1095.9z M1066.7,634h25.9v16.9h-25.9V634z"/>
				</g>
			</g>
		</g>
		<g>
			<g>
				<g>
					<path fill="#1E7A85" d="M1063.5,457.7v27h32.4v-27H1063.5z M1092.7,481.4h-25.9v-16.9h25.9V481.4z"/>
				</g>
			</g>
		</g>
	</g>
	<g>
		<g>
			<path fill="#1E7A85" d="M1118.7,379.3l-50.2-14.9l0.2-0.7l37.3-125.8l50.2,14.9l-0.2,0.7L1118.7,379.3z M1070.4,363.4l47.3,14
				l36.7-123.6l-47.3-14L1070.4,363.4z"/>
		</g>
		<g>
			<g>
				<g>
					<path fill="#1E7A85" d="M1036.9,347.7l25.9,7.7l9.2-31.1l-25.9-7.7L1036.9,347.7z M1067.8,326.5l-7.4,24.9l-16.2-4.8l7.4-24.9
						L1067.8,326.5z"/>
				</g>
			</g>
		</g>
		<g>
			<g>
				<g>
					<path fill="#1E7A85" d="M1060.8,266.9l25.9,7.7l9.2-31.1l-25.9-7.7L1060.8,266.9z M1091.8,245.6l-7.4,24.9l-16.2-4.8l7.4-24.9
						L1091.8,245.6z"/>
				</g>
			</g>
		</g>
		<g>
			<g>
				<g>
					<path fill="#1E7A85" d="M1049,306.7l25.9,7.7l9.2-31.1l-25.9-7.7L1049,306.7z M1080,285.4l-7.4,24.9l-16.2-4.8l7.4-24.9
						L1080,285.4z"/>
				</g>
			</g>
		</g>
		<g>
			<g>
				<g>
					<path fill="#1E7A85" d="M1099.6,408.8l7.7-25.9l-31.1-9.2l-7.7,25.9L1099.6,408.8z M1078.3,377.8l24.9,7.4l-4.8,16.2l-24.9-7.4
						L1078.3,377.8z"/>
				</g>
			</g>
		</g>
		<g>
			<g>
				<g>
					<path fill="#1E7A85" d="M1125.3,207.9l-7.7,25.9l31.1,9.2l7.7-25.9L1125.3,207.9z M1146.6,238.9l-24.9-7.4l4.8-16.2l24.9,7.4
						L1146.6,238.9z"/>
				</g>
			</g>
		</g>
	</g>
	<g>
		<g>
			<path fill="#1E7A85" d="M960.5,379.3l-50.2-14.9l0.2-0.7l37.3-125.8l50.2,14.9l-0.2,0.7L960.5,379.3z M912.1,363.4l47.3,14
				l36.7-123.6l-47.3-14L912.1,363.4z"/>
		</g>
		<g>
			<g>
				<g>
					<path fill="#1E7A85" d="M878.6,347.7l25.9,7.7l9.2-31.1l-25.9-7.7L878.6,347.7z M909.6,326.5l-7.4,24.9l-16.2-4.8l7.4-24.9
						L909.6,326.5z"/>
				</g>
			</g>
		</g>
		<g>
			<g>
				<g>
					<path fill="#1E7A85" d="M902.5,266.9l25.9,7.7l9.2-31.1l-25.9-7.7L902.5,266.9z M933.5,245.6l-7.4,24.9l-16.2-4.8l7.4-24.9
						L933.5,245.6z"/>
				</g>
			</g>
		</g>
		<g>
			<g>
				<g>
					<path fill="#1E7A85" d="M890.7,306.7l25.9,7.7l9.2-31.1l-25.9-7.7L890.7,306.7z M921.7,285.4l-7.4,24.9l-16.2-4.8l7.4-24.9
						L921.7,285.4z"/>
				</g>
			</g>
		</g>
		<g>
			<g>
				<g>
					<path fill="#1E7A85" d="M941.3,408.8l7.7-25.9l-31.1-9.2l-7.7,25.9L941.3,408.8z M920,377.8l24.9,7.4l-4.8,16.2l-24.9-7.4
						L920,377.8z"/>
				</g>
			</g>
		</g>
		<g>
			<g>
				<g>
					<path fill="#1E7A85" d="M967,207.9l-7.7,25.9l31.1,9.2l7.7-25.9L967,207.9z M988.3,238.9l-24.9-7.4l4.8-16.2l24.9,7.4
						L988.3,238.9z"/>
				</g>
			</g>
		</g>
	</g>
	<g>
		<g>
			<path fill="#1E7A85" d="M802.2,379.3l-50.2-14.9l0.2-0.7l37.3-125.8l50.2,14.9l-0.2,0.7L802.2,379.3z M753.9,363.4l47.3,14
				l36.7-123.6l-47.3-14L753.9,363.4z"/>
		</g>
		<g>
			<g>
				<g>
					<path fill="#1E7A85" d="M720.3,347.7l25.9,7.7l9.2-31.1l-25.9-7.7L720.3,347.7z M751.3,326.5l-7.4,24.9l-16.2-4.8l7.4-24.9
						L751.3,326.5z"/>
				</g>
			</g>
		</g>
		<g>
			<g>
				<g>
					<path fill="#1E7A85" d="M744.3,266.9l25.9,7.7l9.2-31.1l-25.9-7.7L744.3,266.9z M775.2,245.6l-7.4,24.9l-16.2-4.8l7.4-24.9
						L775.2,245.6z"/>
				</g>
			</g>
		</g>
		<g>
			<g>
				<g>
					<path fill="#1E7A85" d="M732.4,306.7l25.9,7.7l9.2-31.1l-25.9-7.7L732.4,306.7z M763.4,285.4l-7.4,24.9l-16.2-4.8l7.4-24.9
						L763.4,285.4z"/>
				</g>
			</g>
		</g>
		<g>
			<g>
				<g>
					<path fill="#1E7A85" d="M783,408.8l7.7-25.9l-31.1-9.2l-7.7,25.9L783,408.8z M761.8,377.8l24.9,7.4l-4.8,16.2L757,394
						L761.8,377.8z"/>
				</g>
			</g>
		</g>
		<g>
			<g>
				<g>
					<path fill="#1E7A85" d="M808.8,207.9l-7.7,25.9l31.1,9.2l7.7-25.9L808.8,207.9z M830,238.9l-24.9-7.4l4.8-16.2l24.9,7.4
						L830,238.9z"/>
				</g>
			</g>
		</g>
	</g>
	<g>
		<g>
			<path fill="#1E7A85" d="M643.9,379.3l-50.2-14.9l0.2-0.7l37.3-125.8l50.2,14.9l-0.2,0.7L643.9,379.3z M595.6,363.4l47.3,14
				l36.7-123.6l-47.3-14L595.6,363.4z"/>
		</g>
		<g>
			<g>
				<g>
					<path fill="#1E7A85" d="M562,347.7l25.9,7.7l9.2-31.1l-25.9-7.7L562,347.7z M593,326.5l-7.4,24.9l-16.2-4.8l7.4-24.9L593,326.5
						z"/>
				</g>
			</g>
		</g>
		<g>
			<g>
				<g>
					<path fill="#1E7A85" d="M586,266.9l25.9,7.7l9.2-31.1l-25.9-7.7L586,266.9z M617,245.6l-7.4,24.9l-16.2-4.8l7.4-24.9L617,245.6
						z"/>
				</g>
			</g>
		</g>
		<g>
			<g>
				<g>
					<path fill="#1E7A85" d="M574.2,306.7l25.9,7.7l9.2-31.1l-25.9-7.7L574.2,306.7z M605.1,285.4l-7.4,24.9l-16.2-4.8l7.4-24.9
						L605.1,285.4z"/>
				</g>
			</g>
		</g>
		<g>
			<g>
				<g>
					<path fill="#1E7A85" d="M624.7,408.8l7.7-25.9l-31.1-9.2l-7.7,25.9L624.7,408.8z M603.5,377.8l24.9,7.4l-4.8,16.2l-24.9-7.4
						L603.5,377.8z"/>
				</g>
			</g>
		</g>
		<g>
			<g>
				<g>
					<path fill="#1E7A85" d="M650.5,207.9l-7.7,25.9l31.1,9.2l7.7-25.9L650.5,207.9z M671.8,238.9l-24.9-7.4l4.8-16.2l24.9,7.4
						L671.8,238.9z"/>
				</g>
			</g>
		</g>
	</g>
	<g>
		<g>
			<path fill="#1E7A85" d="M485.6,379.3l-50.2-14.9l0.2-0.7l37.3-125.8l50.2,14.9l-0.2,0.7L485.6,379.3z M437.3,363.4l47.3,14
				l36.7-123.6l-47.3-14L437.3,363.4z"/>
		</g>
		<g>
			<g>
				<g>
					<path fill="#1E7A85" d="M403.8,347.7l25.9,7.7l9.2-31.1l-25.9-7.7L403.8,347.7z M434.7,326.5l-7.4,24.9l-16.2-4.8l7.4-24.9
						L434.7,326.5z"/>
				</g>
			</g>
		</g>
		<g>
			<g>
				<g>
					<path fill="#1E7A85" d="M427.7,266.9l25.9,7.7l9.2-31.1l-25.9-7.7L427.7,266.9z M458.7,245.6l-7.4,24.9l-16.2-4.8l7.4-24.9
						L458.7,245.6z"/>
				</g>
			</g>
		</g>
		<g>
			<g>
				<g>
					<path fill="#1E7A85" d="M415.9,306.7l25.9,7.7l9.2-31.1l-25.9-7.7L415.9,306.7z M446.9,285.4l-7.4,24.9l-16.2-4.8l7.4-24.9
						L446.9,285.4z"/>
				</g>
			</g>
		</g>
		<g>
			<g>
				<g>
					<path fill="#1E7A85" d="M466.5,408.8l7.7-25.9l-31.1-9.2l-7.7,25.9L466.5,408.8z M445.2,377.8l24.9,7.4l-4.8,16.2l-24.9-7.4
						L445.2,377.8z"/>
				</g>
			</g>
		</g>
		<g>
			<g>
				<g>
					<path fill="#1E7A85" d="M492.2,207.9l-7.7,25.9l31.1,9.2l7.7-25.9L492.2,207.9z M513.5,238.9l-24.9-7.4l4.8-16.2l24.9,7.4
						L513.5,238.9z"/>
				</g>
			</g>
		</g>
	</g>
	<g>
		<g>
			<path fill="#1E7A85" d="M1106,878l-37.5-126.5l50.2-14.9l37.5,126.5L1106,878z M1070.4,752.5l36.7,123.6l47.3-14l-36.7-123.6
				L1070.4,752.5z"/>
		</g>
		<g>
			<g>
				<g>
					<path fill="#1E7A85" d="M1046.1,799.2l25.9-7.7l-9.2-31.1l-25.9,7.7L1046.1,799.2z M1051.6,794.2l-7.4-24.9l16.2-4.8l7.4,24.9
						L1051.6,794.2z"/>
				</g>
			</g>
		</g>
		<g>
			<g>
				<g>
					<path fill="#1E7A85" d="M1070,880.1l25.9-7.7l-9.2-31.1l-25.9,7.7L1070,880.1z M1075.6,875l-7.4-24.9l16.2-4.8l7.4,24.9
						L1075.6,875z"/>
				</g>
			</g>
		</g>
		<g>
			<g>
				<g>
					<path fill="#1E7A85" d="M1058.2,840.2l25.9-7.7l-9.2-31.1l-25.9,7.7L1058.2,840.2z M1063.8,835.2l-7.4-24.9l16.2-4.8l7.4,24.9
						L1063.8,835.2z"/>
				</g>
			</g>
		</g>
		<g>
			<g>
				<g>
					<path fill="#1E7A85" d="M1068.5,716.2l7.7,25.9l31.1-9.2l-7.7-25.9L1068.5,716.2z M1073.5,721.8l24.9-7.4l4.8,16.2l-24.9,7.4
						L1073.5,721.8z"/>
				</g>
			</g>
		</g>
		<g>
			<g>
				<g>
					<path fill="#1E7A85" d="M1156.4,898.7l-7.7-25.9l-31.1,9.2l7.7,25.9L1156.4,898.7z M1151.4,893.1l-24.9,7.4l-4.8-16.2l24.9-7.4
						L1151.4,893.1z"/>
				</g>
			</g>
		</g>
	</g>
	<g>
		<g>
			<path fill="#1E7A85" d="M947.7,878l-37.5-126.5l50.2-14.9L998,863.1L947.7,878z M912.1,752.5L948.8,876l47.3-14l-36.7-123.6
				L912.1,752.5z"/>
		</g>
		<g>
			<g>
				<g>
					<path fill="#1E7A85" d="M887.8,799.2l25.9-7.7l-9.2-31.1l-25.9,7.7L887.8,799.2z M893.4,794.2l-7.4-24.9l16.2-4.8l7.4,24.9
						L893.4,794.2z"/>
				</g>
			</g>
		</g>
		<g>
			<g>
				<g>
					<path fill="#1E7A85" d="M911.8,880.1l25.9-7.7l-9.2-31.1l-25.9,7.7L911.8,880.1z M917.3,875l-7.4-24.9l16.2-4.8l7.4,24.9
						L917.3,875z"/>
				</g>
			</g>
		</g>
		<g>
			<g>
				<g>
					<path fill="#1E7A85" d="M899.9,840.2l25.9-7.7l-9.2-31.1l-25.9,7.7L899.9,840.2z M905.5,835.2l-7.4-24.9l16.2-4.8l7.4,24.9
						L905.5,835.2z"/>
				</g>
			</g>
		</g>
		<g>
			<g>
				<g>
					<path fill="#1E7A85" d="M910.2,716.2l7.7,25.9l31.1-9.2l-7.7-25.9L910.2,716.2z M915.2,721.8l24.9-7.4l4.8,16.2L920,738
						L915.2,721.8z"/>
				</g>
			</g>
		</g>
		<g>
			<g>
				<g>
					<path fill="#1E7A85" d="M998.1,898.7l-7.7-25.9l-31.1,9.2l7.7,25.9L998.1,898.7z M993.1,893.1l-24.9,7.4l-4.8-16.2l24.9-7.4
						L993.1,893.1z"/>
				</g>
			</g>
		</g>
	</g>
	<g>
		<g>
			<path fill="#1E7A85" d="M789.5,878l-37.5-126.5l50.2-14.9l37.5,126.5L789.5,878z M753.9,752.5L790.5,876l47.3-14l-36.7-123.6
				L753.9,752.5z"/>
		</g>
		<g>
			<g>
				<g>
					<path fill="#1E7A85" d="M729.5,799.2l25.9-7.7l-9.2-31.1l-25.9,7.7L729.5,799.2z M735.1,794.2l-7.4-24.9l16.2-4.8l7.4,24.9
						L735.1,794.2z"/>
				</g>
			</g>
		</g>
		<g>
			<g>
				<g>
					<path fill="#1E7A85" d="M753.5,880.1l25.9-7.7l-9.2-31.1l-25.9,7.7L753.5,880.1z M759,875l-7.4-24.9l16.2-4.8l7.4,24.9L759,875
						z"/>
				</g>
			</g>
		</g>
		<g>
			<g>
				<g>
					<path fill="#1E7A85" d="M741.7,840.2l25.9-7.7l-9.2-31.1l-25.9,7.7L741.7,840.2z M747.2,835.2l-7.4-24.9l16.2-4.8l7.4,24.9
						L747.2,835.2z"/>
				</g>
			</g>
		</g>
		<g>
			<g>
				<g>
					<path fill="#1E7A85" d="M751.9,716.2l7.7,25.9l31.1-9.2L783,707L751.9,716.2z M757,721.8l24.9-7.4l4.8,16.2l-24.9,7.4
						L757,721.8z"/>
				</g>
			</g>
		</g>
		<g>
			<g>
				<g>
					<path fill="#1E7A85" d="M839.9,898.7l-7.7-25.9l-31.1,9.2l7.7,25.9L839.9,898.7z M834.8,893.1l-24.9,7.4l-4.8-16.2l24.9-7.4
						L834.8,893.1z"/>
				</g>
			</g>
		</g>
	</g>
	<g>
		<g>
			<path fill="#1E7A85" d="M631.2,878l-37.5-126.5l50.2-14.9l37.5,126.5L631.2,878z M595.6,752.5L632.2,876l47.3-14l-36.7-123.6
				L595.6,752.5z"/>
		</g>
		<g>
			<g>
				<g>
					<path fill="#1E7A85" d="M571.3,799.2l25.9-7.7l-9.2-31.1l-25.9,7.7L571.3,799.2z M576.8,794.2l-7.4-24.9l16.2-4.8l7.4,24.9
						L576.8,794.2z"/>
				</g>
			</g>
		</g>
		<g>
			<g>
				<g>
					<path fill="#1E7A85" d="M595.2,880.1l25.9-7.7l-9.2-31.1L586,849L595.2,880.1z M600.8,875l-7.4-24.9l16.2-4.8l7.4,24.9
						L600.8,875z"/>
				</g>
			</g>
		</g>
		<g>
			<g>
				<g>
					<path fill="#1E7A85" d="M583.4,840.2l25.9-7.7l-9.2-31.1l-25.9,7.7L583.4,840.2z M588.9,835.2l-7.4-24.9l16.2-4.8l7.4,24.9
						L588.9,835.2z"/>
				</g>
			</g>
		</g>
		<g>
			<g>
				<g>
					<path fill="#1E7A85" d="M593.6,716.2l7.7,25.9l31.1-9.2l-7.7-25.9L593.6,716.2z M598.7,721.8l24.9-7.4l4.8,16.2l-24.9,7.4
						L598.7,721.8z"/>
				</g>
			</g>
		</g>
		<g>
			<g>
				<g>
					<path fill="#1E7A85" d="M681.6,898.7l-7.7-25.9l-31.1,9.2l7.7,25.9L681.6,898.7z M676.6,893.1l-24.9,7.4l-4.8-16.2l24.9-7.4
						L676.6,893.1z"/>
				</g>
			</g>
		</g>
	</g>
	<g>
		<g>
			<path fill="#1E7A85" d="M472.9,878l-37.5-126.5l50.2-14.9l37.5,126.5L472.9,878z M437.3,752.5L474,876l47.3-14l-36.7-123.6
				L437.3,752.5z"/>
		</g>
		<g>
			<g>
				<g>
					<path fill="#1E7A85" d="M413,799.2l25.9-7.7l-9.2-31.1l-25.9,7.7L413,799.2z M418.5,794.2l-7.4-24.9l16.2-4.8l7.4,24.9
						L418.5,794.2z"/>
				</g>
			</g>
		</g>
		<g>
			<g>
				<g>
					<path fill="#1E7A85" d="M436.9,880.1l25.9-7.7l-9.2-31.1l-25.9,7.7L436.9,880.1z M442.5,875l-7.4-24.9l16.2-4.8l7.4,24.9
						L442.5,875z"/>
				</g>
			</g>
		</g>
		<g>
			<g>
				<g>
					<path fill="#1E7A85" d="M425.1,840.2l25.9-7.7l-9.2-31.1l-25.9,7.7L425.1,840.2z M430.7,835.2l-7.4-24.9l16.2-4.8l7.4,24.9
						L430.7,835.2z"/>
				</g>
			</g>
		</g>
		<g>
			<g>
				<g>
					<path fill="#1E7A85" d="M435.4,716.2l7.7,25.9l31.1-9.2l-7.7-25.9L435.4,716.2z M440.4,721.8l24.9-7.4l4.8,16.2l-24.9,7.4
						L440.4,721.8z"/>
				</g>
			</g>
		</g>
		<g>
			<g>
				<g>
					<path fill="#1E7A85" d="M523.3,898.7l-7.7-25.9l-31.1,9.2l7.7,25.9L523.3,898.7z M518.3,893.1l-24.9,7.4l-4.8-16.2l24.9-7.4
						L518.3,893.1z"/>
				</g>
			</g>
		</g>
	</g>
	<g>
		<g>
			<path fill="#1E7A85" d="M952.3,623.9h-52.4v-132h52.4V623.9z M901.4,622.4h49.3V493.5h-49.3V622.4z"/>
		</g>
		<g>
			<g>
				<g>
					<path fill="#1E7A85" d="M864.8,616.9h27v-32.4h-27V616.9z M888.4,587.7v25.9h-16.9v-25.9H888.4z"/>
				</g>
			</g>
		</g>
		<g>
			<g>
				<g>
					<path fill="#1E7A85" d="M864.7,532.6h27v-32.4h-27V532.6z M888.4,503.4v25.9h-16.9v-25.9H888.4z"/>
				</g>
			</g>
		</g>
		<g>
			<g>
				<g>
					<path fill="#1E7A85" d="M864.7,574.1h27v-32.4h-27V574.1z M888.4,544.9v25.9h-16.9v-25.9H888.4z"/>
				</g>
			</g>
		</g>
		<g>
			<g>
				<g>
					<path fill="#1E7A85" d="M942.3,657.6v-27h-32.4v27H942.3z M913.1,634H939v16.9h-25.9V634z"/>
				</g>
			</g>
		</g>
		<g>
			<g>
				<g>
					<path fill="#1E7A85" d="M909.8,457.7v27h32.4v-27H909.8z M939,481.4h-25.9v-16.9H939V481.4z"/>
				</g>
			</g>
		</g>
	</g>
	<g>
		<g>
			<path fill="#1E7A85" d="M798.6,623.9h-52.4v-132h52.4V623.9z M747.7,622.4H797V493.5h-49.3V622.4z"/>
		</g>
		<g>
			<g>
				<g>
					<path fill="#1E7A85" d="M711.1,616.9h27v-32.4h-27V616.9z M734.8,587.7v25.9h-16.9v-25.9H734.8z"/>
				</g>
			</g>
		</g>
		<g>
			<g>
				<g>
					<path fill="#1E7A85" d="M711.1,532.6h27v-32.4h-27V532.6z M734.7,503.4v25.9h-16.9v-25.9H734.7z"/>
				</g>
			</g>
		</g>
		<g>
			<g>
				<g>
					<path fill="#1E7A85" d="M711.1,574.1h27v-32.4h-27V574.1z M734.7,544.9v25.9h-16.9v-25.9H734.7z"/>
				</g>
			</g>
		</g>
		<g>
			<g>
				<g>
					<path fill="#1E7A85" d="M788.6,657.6v-27h-32.4v27H788.6z M759.4,634h25.9v16.9h-25.9V634z"/>
				</g>
			</g>
		</g>
		<g>
			<g>
				<g>
					<path fill="#1E7A85" d="M756.2,457.7v27h32.4v-27H756.2z M785.4,481.4h-25.9v-16.9h25.9V481.4z"/>
				</g>
			</g>
		</g>
	</g>
	<g>
		<g>
			<path fill="#1E7A85" d="M644.9,623.9h-52.4v-132h52.4V623.9z M594.1,622.4h49.3V493.5h-49.3V622.4z"/>
		</g>
		<g>
			<g>
				<g>
					<path fill="#1E7A85" d="M557.5,616.9h27v-32.4h-27V616.9z M581.1,587.7v25.9h-16.9v-25.9H581.1z"/>
				</g>
			</g>
		</g>
		<g>
			<g>
				<g>
					<path fill="#1E7A85" d="M557.4,532.6h27v-32.4h-27V532.6z M581.1,503.4v25.9h-16.9v-25.9H581.1z"/>
				</g>
			</g>
		</g>
		<g>
			<g>
				<g>
					<path fill="#1E7A85" d="M557.4,574.1h27v-32.4h-27V574.1z M581.1,544.9v25.9h-16.9v-25.9H581.1z"/>
				</g>
			</g>
		</g>
		<g>
			<g>
				<g>
					<path fill="#1E7A85" d="M635,657.6v-27h-32.4v27H635z M605.8,634h25.9v16.9h-25.9V634z"/>
				</g>
			</g>
		</g>
		<g>
			<g>
				<g>
					<path fill="#1E7A85" d="M602.5,457.7v27H635v-27H602.5z M631.7,481.4h-25.9v-16.9h25.9V481.4z"/>
				</g>
			</g>
		</g>
	</g>
	<g>
		<g>
			<path fill="#1E7A85" d="M491.3,623.9h-52.4v-132h52.4V623.9z M440.4,622.4h49.3V493.5h-49.3V622.4z"/>
		</g>
		<g>
			<g>
				<g>
					<path fill="#1E7A85" d="M403.8,616.9h27v-32.4h-27V616.9z M427.5,587.7v25.9h-16.9v-25.9H427.5z"/>
				</g>
			</g>
		</g>
		<g>
			<g>
				<g>
					<path fill="#1E7A85" d="M403.8,532.6h27v-32.4h-27V532.6z M427.4,503.4v25.9h-16.9v-25.9H427.4z"/>
				</g>
			</g>
		</g>
		<g>
			<g>
				<g>
					<path fill="#1E7A85" d="M403.8,574.1h27v-32.4h-27V574.1z M427.4,544.9v25.9h-16.9v-25.9H427.4z"/>
				</g>
			</g>
		</g>
		<g>
			<g>
				<g>
					<path fill="#1E7A85" d="M481.3,657.6v-27h-32.4v27H481.3z M452.1,634H478v16.9h-25.9V634z"/>
				</g>
			</g>
		</g>
		<g>
			<g>
				<g>
					<path fill="#1E7A85" d="M448.9,457.7v27h32.4v-27H448.9z M478.1,481.4h-25.9v-16.9h25.9V481.4z"/>
				</g>
			</g>
		</g>
	</g>
	<g>
		<rect x="564.2" y="544.9" fill="#FFFFFF" width="16.9" height="25.9"/>
	</g>
</g>
</svg>
