<?xml version="1.0" encoding="utf-8"?>
<!-- Generator: Adobe Illustrator 18.1.1, SVG Export Plug-In . SVG Version: 6.00 Build 0)  -->
<!DOCTYPE svg PUBLIC "-//W3C//DTD SVG 1.1//EN" "http://www.w3.org/Graphics/SVG/1.1/DTD/svg11.dtd">
<svg version="1.1" id="Layer_1" xmlns="http://www.w3.org/2000/svg" xmlns:xlink="http://www.w3.org/1999/xlink" x="0px" y="0px"
	 viewBox="0 0 1920 1080" enable-background="new 0 0 1920 1080" xml:space="preserve">
<g>
	<g>
		<g>
			<path fill="#FFFFFF" d="M983.7,622.8c0,2.4-2,4.4-4.4,4.4H653.9c-2.4,0-4.4-2-4.4-4.4V471.4c0-2.4,2-4.4,4.4-4.4h325.4
				c2.4,0,4.4,2,4.4,4.4V622.8z"/>
		</g>
		<g>
			<path fill="#1E7A85" d="M979.3,627.9H653.9c-2.8,0-5.1-2.3-5.1-5.1V471.4c0-2.8,2.3-5.1,5.1-5.1h325.4c2.8,0,5.1,2.3,5.1,5.1
				v151.3C984.5,625.6,982.2,627.9,979.3,627.9z M653.9,467.8c-2,0-3.6,1.6-3.6,3.6v151.3c0,2,1.6,3.6,3.6,3.6h325.4
				c2,0,3.6-1.6,3.6-3.6V471.4c0-2-1.6-3.6-3.6-3.6H653.9z"/>
		</g>
	</g>
	<g>
		<path fill="#1E7A85" d="M741.7,532.2c0.2,1.8,1.1,3.1,2.6,3.8c0.8,0.4,1.6,0.5,2.7,0.5c1.9,0,3.3-0.6,4.2-1.8
			c0.9-1.2,1.4-2.6,1.4-4.1c0-1.8-0.5-3.2-1.6-4.2s-2.4-1.5-3.9-1.5c-1.1,0-2.1,0.2-2.9,0.6c-0.8,0.4-1.5,1-2,1.8l-2.8-0.2l2-13.8
			h13.3v3.1h-10.9l-1.1,7.1c0.6-0.5,1.2-0.8,1.7-1c1-0.4,2.1-0.6,3.3-0.6c2.4,0,4.4,0.8,6,2.3c1.6,1.5,2.5,3.4,2.5,5.8
			c0,2.4-0.8,4.6-2.3,6.4c-1.5,1.9-3.9,2.8-7.2,2.8c-2.1,0-3.9-0.6-5.5-1.8c-1.6-1.2-2.5-3-2.7-5.4H741.7z"/>
		<path fill="#1E7A85" d="M761.1,520.6v-2.5c2.3-0.2,4-0.6,4.9-1.1c0.9-0.5,1.6-1.8,2.1-3.8h2.5v25.6h-3.4v-18.2H761.1z"/>
		<path fill="#1E7A85" d="M781.1,520.1c0.7-0.1,1.2-0.5,1.5-1.1c0.3-0.6,0.5-1.4,0.5-2.2c0-0.1,0-0.2,0-0.2c0-0.1,0-0.1,0-0.2h-2
			v-3.9h3.8v3.6c0,1.5-0.3,2.8-1,3.9c-0.6,1.1-1.6,1.7-2.9,1.8V520.1z"/>
		<path fill="#1E7A85" d="M795.6,519.5h4.2l4.4,6.8l4.5-6.8l3.9,0.1l-6.5,9.3l6.8,9.8h-4.1l-4.8-7.2l-4.6,7.2h-4.1l6.8-9.8
			L795.6,519.5z"/>
		<path fill="#1E7A85" d="M835.8,538.7v-6.3h-11.3v-3.2l11.8-16.3h2.7v16.7h3.8v2.8h-3.8v6.3H835.8z M835.8,529.7V518l-8.2,11.7
			H835.8z"/>
		<path fill="#1E7A85" d="M848.6,532.2c0.2,1.8,1.1,3.1,2.6,3.8c0.8,0.4,1.6,0.5,2.7,0.5c1.9,0,3.3-0.6,4.2-1.8
			c0.9-1.2,1.4-2.6,1.4-4.1c0-1.8-0.5-3.2-1.6-4.2s-2.4-1.5-3.9-1.5c-1.1,0-2.1,0.2-2.9,0.6c-0.8,0.4-1.5,1-2,1.8l-2.8-0.2l2-13.8
			h13.3v3.1h-10.9l-1.1,7.1c0.6-0.5,1.2-0.8,1.7-1c1-0.4,2.1-0.6,3.3-0.6c2.4,0,4.4,0.8,6,2.3c1.6,1.5,2.5,3.4,2.5,5.8
			c0,2.4-0.8,4.6-2.3,6.4c-1.5,1.9-3.9,2.8-7.2,2.8c-2.1,0-3.9-0.6-5.5-1.8c-1.6-1.2-2.5-3-2.7-5.4H848.6z"/>
		<path fill="#1E7A85" d="M867.5,520.1c0.7-0.1,1.2-0.5,1.5-1.1c0.3-0.6,0.5-1.4,0.5-2.2c0-0.1,0-0.2,0-0.2c0-0.1,0-0.1,0-0.2h-2
			v-3.9h3.8v3.6c0,1.5-0.3,2.8-1,3.9c-0.6,1.1-1.6,1.7-2.9,1.8V520.1z"/>
		<path fill="#1E7A85" d="M877.2,532.2c0.2,1.8,1.1,3.1,2.6,3.8c0.8,0.4,1.6,0.5,2.7,0.5c1.9,0,3.3-0.6,4.2-1.8
			c0.9-1.2,1.4-2.6,1.4-4.1c0-1.8-0.5-3.2-1.6-4.2s-2.4-1.5-3.9-1.5c-1.1,0-2.1,0.2-2.9,0.6c-0.8,0.4-1.5,1-2,1.8l-2.8-0.2l2-13.8
			H890v3.1h-10.9l-1.1,7.1c0.6-0.5,1.2-0.8,1.7-1c1-0.4,2.1-0.6,3.3-0.6c2.4,0,4.4,0.8,6,2.3c1.6,1.5,2.5,3.4,2.5,5.8
			c0,2.4-0.8,4.6-2.3,6.4c-1.5,1.9-3.9,2.8-7.2,2.8c-2.1,0-3.9-0.6-5.5-1.8c-1.6-1.2-2.5-3-2.7-5.4H877.2z"/>
		<path fill="#1E7A85" d="M692.3,556c-1.9,3.6-3.1,6.3-3.7,8.1c-0.8,2.6-1.3,5.6-1.3,9.1c0,3.5,0.5,6.6,1.5,9.5
			c0.6,1.8,1.8,4.3,3.5,7.6h-2.2c-1.7-2.7-2.8-4.5-3.2-5.2c-0.4-0.8-0.9-1.8-1.4-3.1c-0.7-1.8-1.1-3.7-1.4-5.7c-0.1-1-0.2-2-0.2-3
			c0-3.5,0.6-6.7,1.7-9.5c0.7-1.8,2.2-4.4,4.4-7.9H692.3z"/>
		<path fill="#1E7A85" d="M697.2,564.6v-2.5c2.3-0.2,4-0.6,4.9-1.1c0.9-0.5,1.6-1.8,2.1-3.8h2.5v25.6h-3.4v-18.2H697.2z"/>
		<path fill="#1E7A85" d="M718.6,576.3c0.2,1.8,1.1,3.1,2.6,3.8c0.8,0.4,1.6,0.5,2.7,0.5c1.9,0,3.3-0.6,4.2-1.8
			c0.9-1.2,1.4-2.6,1.4-4.1c0-1.8-0.5-3.2-1.6-4.2s-2.4-1.5-3.9-1.5c-1.1,0-2.1,0.2-2.9,0.6c-0.8,0.4-1.5,1-2,1.8l-2.8-0.2l2-13.8
			h13.3v3.1h-10.9l-1.1,7.1c0.6-0.5,1.2-0.8,1.7-1c1-0.4,2.1-0.6,3.3-0.6c2.4,0,4.4,0.8,6,2.3c1.6,1.5,2.5,3.4,2.5,5.8
			c0,2.4-0.8,4.6-2.3,6.4c-1.5,1.9-3.9,2.8-7.2,2.8c-2.1,0-3.9-0.6-5.5-1.8c-1.6-1.2-2.5-3-2.7-5.4H718.6z"/>
		<path fill="#1E7A85" d="M737.7,578.9h3.7v3.9h-3.7V578.9z"/>
		<path fill="#1E7A85" d="M749.3,576.3c0.2,1.8,1.1,3.1,2.6,3.8c0.8,0.4,1.6,0.5,2.7,0.5c1.9,0,3.3-0.6,4.2-1.8
			c0.9-1.2,1.4-2.6,1.4-4.1c0-1.8-0.5-3.2-1.6-4.2s-2.4-1.5-3.9-1.5c-1.1,0-2.1,0.2-2.9,0.6c-0.8,0.4-1.5,1-2,1.8l-2.8-0.2l2-13.8
			h13.3v3.1h-10.9l-1.1,7.1c0.6-0.5,1.2-0.8,1.7-1c1-0.4,2.1-0.6,3.3-0.6c2.4,0,4.4,0.8,6,2.3c1.6,1.5,2.5,3.4,2.5,5.8
			c0,2.4-0.8,4.6-2.3,6.4c-1.5,1.9-3.9,2.8-7.2,2.8c-2.1,0-3.9-0.6-5.5-1.8c-1.6-1.2-2.5-3-2.7-5.4H749.3z"/>
		<path fill="#1E7A85" d="M767.5,563.6h3.2v2.7c0.8-0.9,1.5-1.6,2.1-2.1c1.1-0.7,2.3-1.1,3.6-1.1c1.5,0,2.8,0.4,3.7,1.1
			c0.5,0.4,1,1.1,1.4,1.9c0.7-1,1.6-1.8,2.5-2.3c1-0.5,2.1-0.7,3.3-0.7c2.6,0,4.3,0.9,5.3,2.8c0.5,1,0.8,2.4,0.8,4.1v12.8H790v-13.3
			c0-1.3-0.3-2.2-1-2.6c-0.6-0.5-1.4-0.7-2.3-0.7c-1.3,0-2.4,0.4-3.3,1.3c-0.9,0.8-1.4,2.3-1.4,4.2v11.2h-3.3v-12.5
			c0-1.3-0.2-2.3-0.5-2.9c-0.5-0.9-1.4-1.3-2.7-1.3c-1.2,0-2.3,0.5-3.3,1.4c-1,0.9-1.5,2.7-1.5,5.1v10.2h-3.2V563.6z"/>
		<path fill="#1E7A85" d="M806.5,563.6h4.2l4.4,6.8l4.5-6.8l3.9,0.1L817,573l6.8,9.8h-4.1l-4.8-7.2l-4.6,7.2h-4.1l6.8-9.8
			L806.5,563.6z"/>
		<path fill="#1E7A85" d="M838,564.6v-2.5c2.3-0.2,4-0.6,4.9-1.1c0.9-0.5,1.6-1.8,2.1-3.8h2.5v25.6h-3.4v-18.2H838z"/>
		<path fill="#1E7A85" d="M857.9,581c-1.4-1.7-2.1-3.7-2.1-6.1h3.4c0.1,1.7,0.5,2.9,0.9,3.6c0.8,1.4,2.3,2,4.5,2
			c1.7,0,3.1-0.5,4.1-1.4c1-0.9,1.5-2.1,1.5-3.5c0-1.8-0.5-3-1.6-3.7c-1.1-0.7-2.6-1.1-4.5-1.1c-0.2,0-0.4,0-0.7,0
			c-0.2,0-0.4,0-0.7,0v-2.9c0.3,0,0.6,0.1,0.8,0.1c0.2,0,0.5,0,0.7,0c1.2,0,2.2-0.2,3-0.6c1.4-0.7,2-1.9,2-3.6c0-1.3-0.5-2.3-1.4-3
			c-0.9-0.7-2-1-3.2-1c-2.2,0-3.6,0.7-4.5,2.2c-0.5,0.8-0.7,1.9-0.8,3.4h-3.2c0-1.9,0.4-3.5,1.1-4.9c1.3-2.4,3.6-3.6,6.9-3.6
			c2.6,0,4.6,0.6,6.1,1.7c1.4,1.2,2.2,2.9,2.2,5.1c0,1.6-0.4,2.9-1.3,3.8c-0.5,0.6-1.2,1.1-2,1.4c1.4,0.4,2.4,1.1,3.2,2.1
			c0.8,1.1,1.1,2.4,1.1,3.9c0,2.5-0.8,4.4-2.4,6c-1.6,1.5-3.9,2.3-6.9,2.3C861.4,583.5,859.2,582.7,857.9,581z"/>
		<path fill="#1E7A85" d="M878.5,578.9h3.7v3.9h-3.7V578.9z"/>
		<path fill="#1E7A85" d="M889.1,567.8c-0.9-1-1.4-2.2-1.4-3.7c0-1.9,0.7-3.6,2.1-4.9c1.4-1.4,3.3-2.1,5.9-2.1
			c2.5,0,4.4,0.6,5.8,1.9s2.1,2.8,2.1,4.5c0,1.6-0.4,2.9-1.2,3.9c-0.5,0.6-1.2,1.1-2.1,1.7c1.1,0.5,1.9,1.1,2.5,1.7
			c1.1,1.2,1.7,2.8,1.7,4.7c0,2.3-0.8,4.2-2.3,5.7c-1.5,1.6-3.7,2.4-6.4,2.4c-2.5,0-4.6-0.7-6.3-2c-1.7-1.4-2.6-3.3-2.6-5.9
			c0-1.5,0.4-2.8,1.1-3.9s1.8-2,3.3-2.5C890.3,568.8,889.6,568.3,889.1,567.8z M899.5,579.4c1-0.8,1.5-2,1.5-3.6
			c0-1.7-0.5-2.9-1.5-3.8c-1-0.9-2.3-1.3-3.9-1.3c-1.5,0-2.8,0.4-3.8,1.3c-1,0.9-1.5,2.1-1.5,3.6c0,1.3,0.4,2.5,1.3,3.5
			c0.9,1,2.3,1.5,4.1,1.5C897.2,580.6,898.5,580.2,899.5,579.4z M898.9,566.7c0.8-0.8,1.2-1.7,1.2-2.8c0-1-0.4-1.8-1.1-2.6
			c-0.8-0.8-1.9-1.2-3.5-1.2c-1.6,0-2.7,0.4-3.4,1.2c-0.7,0.8-1,1.7-1,2.8c0,1.2,0.4,2.2,1.3,2.8c0.9,0.7,2,1,3.2,1
			C897,567.9,898.1,567.5,898.9,566.7z"/>
		<path fill="#1E7A85" d="M908.4,563.6h3.2v2.7c0.8-0.9,1.5-1.6,2.1-2.1c1.1-0.7,2.3-1.1,3.6-1.1c1.5,0,2.8,0.4,3.7,1.1
			c0.5,0.4,1,1.1,1.4,1.9c0.7-1,1.6-1.8,2.5-2.3c1-0.5,2.1-0.7,3.3-0.7c2.6,0,4.3,0.9,5.3,2.8c0.5,1,0.8,2.4,0.8,4.1v12.8h-3.4
			v-13.3c0-1.3-0.3-2.2-1-2.6c-0.6-0.5-1.4-0.7-2.3-0.7c-1.3,0-2.4,0.4-3.3,1.3c-0.9,0.8-1.4,2.3-1.4,4.2v11.2h-3.3v-12.5
			c0-1.3-0.2-2.3-0.5-2.9c-0.5-0.9-1.4-1.3-2.7-1.3c-1.2,0-2.3,0.5-3.3,1.4c-1,0.9-1.5,2.7-1.5,5.1v10.2h-3.2V563.6z"/>
		<path fill="#1E7A85" d="M937.9,590.3c1.9-3.7,3.1-6.4,3.7-8.1c0.8-2.6,1.3-5.6,1.3-9s-0.5-6.6-1.5-9.5c-0.6-1.8-1.8-4.3-3.5-7.6
			h2.2c1.8,2.9,3,4.8,3.3,5.4c0.4,0.7,0.8,1.6,1.3,2.8c0.6,1.5,1,3,1.2,4.4c0.2,1.5,0.4,2.9,0.4,4.2c0,3.5-0.6,6.7-1.7,9.5
			c-0.7,1.8-2.2,4.4-4.4,7.9H937.9z"/>
	</g>
</g>
</svg>
