<?xml version="1.0" encoding="utf-8"?>
<!-- Generator: Adobe Illustrator 18.1.1, SVG Export Plug-In . SVG Version: 6.00 Build 0)  -->
<!DOCTYPE svg PUBLIC "-//W3C//DTD SVG 1.1//EN" "http://www.w3.org/Graphics/SVG/1.1/DTD/svg11.dtd">
<svg version="1.1" id="Layer_1" xmlns="http://www.w3.org/2000/svg" xmlns:xlink="http://www.w3.org/1999/xlink" x="0px" y="0px"
	 viewBox="0 0 1920 1080" enable-background="new 0 0 1920 1080" xml:space="preserve">
<g>
	<g>
		<rect x="727.8" y="271.4" fill="#FFFFFF" width="110.7" height="65.7"/>
		<path fill="#1E7A85" d="M839.3,337.9H727v-67.3h112.2V337.9z M728.6,336.4h109.2v-64.2H728.6V336.4z"/>
	</g>
	<g>
		<rect x="506.4" y="271.4" fill="#FFFFFF" width="110.7" height="65.7"/>
		<path fill="#1E7A85" d="M617.9,337.9H505.6v-67.3h112.2V337.9z M507.2,336.4h109.2v-64.2H507.2V336.4z"/>
	</g>
	<g>
		<rect x="617.1" y="271.4" fill="#FFFFFF" width="110.7" height="65.7"/>
		<path fill="#1E7A85" d="M728.6,337.9H616.3v-67.3h112.2V337.9z M617.9,336.4H727v-64.2H617.9V336.4z"/>
	</g>
	<g>
		<rect x="949.2" y="271.4" fill="#FFFFFF" width="110.7" height="65.7"/>
		<path fill="#1E7A85" d="M1060.7,337.9H948.4v-67.3h112.2V337.9z M950,336.4h109.2v-64.2H950V336.4z"/>
	</g>
	<g>
		<rect x="838.5" y="271.4" fill="#FFFFFF" width="110.7" height="65.7"/>
		<path fill="#1E7A85" d="M950,337.9H837.7v-67.3H950V337.9z M839.3,336.4h109.2v-64.2H839.3V336.4z"/>
	</g>
	<g>
		<path fill="#1E7A85" d="M507.2,337.9H394.9v-67.3h112.2V337.9z M396.5,336.4h109.2v-64.2H396.5V336.4z"/>
	</g>
	<g>
		<rect x="728.7" y="520.5" fill="#FFFFFF" width="111" height="65.7"/>
		<path fill="#1E7A85" d="M840.4,587H727.9v-67.3h112.5V587z M729.4,585.4h109.4v-64.2H729.4V585.4z"/>
	</g>
	<g>
		<rect x="506.7" y="520.5" fill="#FFFFFF" width="111" height="65.7"/>
		<path fill="#1E7A85" d="M618.4,587H505.9v-67.3h112.5V587z M507.5,585.4h109.4v-64.2H507.5V585.4z"/>
	</g>
	<g>
		<rect x="617.7" y="520.5" fill="#FFFFFF" width="111" height="65.7"/>
		<path fill="#1E7A85" d="M729.4,587H616.9v-67.3h112.5V587z M618.4,585.4h109.4v-64.2H618.4V585.4z"/>
	</g>
	<g>
		<rect x="950.6" y="520.5" fill="#FFFFFF" width="111" height="65.7"/>
		<path fill="#1E7A85" d="M1062.4,587H949.9v-67.3h112.5V587z M951.4,585.4h109.4v-64.2H951.4V585.4z"/>
	</g>
	<g>
		<rect x="839.7" y="520.5" fill="#FFFFFF" width="111" height="65.7"/>
		<path fill="#1E7A85" d="M951.4,587H838.9v-67.3h112.5V587z M840.4,585.4h109.4v-64.2H840.4V585.4z"/>
	</g>
	<g>
		<path fill="#1E7A85" d="M507.5,587H394.9v-67.3h112.5V587z M396.5,585.4h109.4v-64.2H396.5V585.4z"/>
	</g>
	<g>
		<rect x="728.7" y="775.2" fill="#FFFFFF" width="111" height="65.7"/>
		<path fill="#1E7A85" d="M840.4,841.7H727.9v-67.3h112.5V841.7z M729.4,840.1h109.4V776H729.4V840.1z"/>
	</g>
	<g>
		<rect x="506.7" y="775.2" fill="#FFFFFF" width="111" height="65.7"/>
		<path fill="#1E7A85" d="M618.4,841.7H505.9v-67.3h112.5V841.7z M507.5,840.1h109.4V776H507.5V840.1z"/>
	</g>
	<g>
		<rect x="617.7" y="775.2" fill="#FFFFFF" width="111" height="65.7"/>
		<path fill="#1E7A85" d="M729.4,841.7H616.9v-67.3h112.5V841.7z M618.4,840.1h109.4V776H618.4V840.1z"/>
	</g>
	<g>
		<rect x="950.6" y="775.2" fill="#FFFFFF" width="111" height="65.7"/>
		<path fill="#1E7A85" d="M1062.4,841.7H949.9v-67.3h112.5V841.7z M951.4,840.1h109.4V776H951.4V840.1z"/>
	</g>
	<g>
		<rect x="839.7" y="775.2" fill="#FFFFFF" width="111" height="65.7"/>
		<path fill="#1E7A85" d="M951.4,841.7H838.9v-67.3h112.5V841.7z M840.4,840.1h109.4V776H840.4V840.1z"/>
	</g>
	<g>
		<path fill="#1E7A85" d="M507.5,841.7H394.9v-67.3h112.5V841.7z M396.5,840.1h109.4V776H396.5V840.1z"/>
	</g>
	<g>
		<g>
			<g>
				<path fill="#1E7A85" d="M395.7,234v30h36v-30H395.7z M428.2,260.3h-28.8v-18.8h28.8V260.3z"/>
			</g>
		</g>
	</g>
	<g>
		<g>
			<g>
				<path fill="#1E7A85" d="M437.6,234v30h36v-30H437.6z M470,260.3h-28.8v-18.8H470V260.3z"/>
			</g>
		</g>
	</g>
	<g>
		<g>
			<g>
				<path fill="#1E7A85" d="M479.5,234v30h36v-30H479.5z M511.9,260.3h-28.8v-18.8h28.8V260.3z"/>
			</g>
		</g>
	</g>
	<g>
		<g>
			<g>
				<path fill="#1E7A85" d="M521.4,234v30h36v-30H521.4z M553.8,260.3H525v-18.8h28.8V260.3z"/>
			</g>
		</g>
	</g>
	<g>
		<g>
			<g>
				<path fill="#1E7A85" d="M563.2,234v30h36v-30H563.2z M595.7,260.3h-28.8v-18.8h28.8V260.3z"/>
			</g>
		</g>
	</g>
	<g>
		<g>
			<g>
				<path fill="#1E7A85" d="M605.1,234v30h36v-30H605.1z M637.5,260.3h-28.8v-18.8h28.8V260.3z"/>
			</g>
		</g>
	</g>
	<g>
		<g>
			<g>
				<path fill="#1E7A85" d="M647,234v30h36v-30H647z M679.4,260.3h-28.8v-18.8h28.8V260.3z"/>
			</g>
		</g>
	</g>
	<g>
		<g>
			<g>
				<path fill="#1E7A85" d="M688.9,234v30h36v-30H688.9z M721.3,260.3h-28.8v-18.8h28.8V260.3z"/>
			</g>
		</g>
	</g>
	<g>
		<g>
			<g>
				<path fill="#1E7A85" d="M730.7,234v30h36v-30H730.7z M763.2,260.3h-28.8v-18.8h28.8V260.3z"/>
			</g>
		</g>
	</g>
	<g>
		<g>
			<g>
				<path fill="#1E7A85" d="M772.6,234v30h36v-30H772.6z M805,260.3h-28.8v-18.8H805V260.3z"/>
			</g>
		</g>
	</g>
	<g>
		<g>
			<g>
				<path fill="#1E7A85" d="M814.5,234v30h36v-30H814.5z M846.9,260.3h-28.8v-18.8h28.8V260.3z"/>
			</g>
		</g>
	</g>
	<g>
		<g>
			<g>
				<path fill="#1E7A85" d="M856.3,234v30h36v-30H856.3z M888.8,260.3h-28.8v-18.8h28.8V260.3z"/>
			</g>
		</g>
	</g>
	<g>
		<g>
			<g>
				<path fill="#1E7A85" d="M898.2,234v30h36v-30H898.2z M930.7,260.3h-28.8v-18.8h28.8V260.3z"/>
			</g>
		</g>
	</g>
	<g>
		<g>
			<g>
				<path fill="#1E7A85" d="M940.1,234v30h36v-30H940.1z M972.5,260.3h-28.8v-18.8h28.8V260.3z"/>
			</g>
		</g>
	</g>
	<g>
		<g>
			<g>
				<path fill="#1E7A85" d="M982,234v30h36v-30H982z M1014.4,260.3h-28.8v-18.8h28.8V260.3z"/>
			</g>
		</g>
	</g>
	<g>
		<g>
			<g>
				<path fill="#1E7A85" d="M1023.8,234v30h36v-30H1023.8z M1056.3,260.3h-28.8v-18.8h28.8V260.3z"/>
			</g>
		</g>
	</g>
	<g>
		<g>
			<g>
				<path fill="#1E7A85" d="M1059.9,374.6v-30h-36v30H1059.9z M1027.4,348.4h28.8v18.8h-28.8V348.4z"/>
			</g>
		</g>
	</g>
	<g>
		<g>
			<g>
				<path fill="#1E7A85" d="M1018,374.6v-30h-36v30H1018z M985.6,348.4h28.8v18.8h-28.8V348.4z"/>
			</g>
		</g>
	</g>
	<g>
		<g>
			<g>
				<path fill="#1E7A85" d="M976.1,374.6v-30h-36v30H976.1z M943.7,348.4h28.8v18.8h-28.8V348.4z"/>
			</g>
		</g>
	</g>
	<g>
		<g>
			<g>
				<path fill="#1E7A85" d="M934.3,374.6v-30h-36v30H934.3z M901.8,348.4h28.8v18.8h-28.8V348.4z"/>
			</g>
		</g>
	</g>
	<g>
		<g>
			<g>
				<path fill="#1E7A85" d="M892.4,374.6v-30h-36v30H892.4z M859.9,348.4h28.8v18.8h-28.8V348.4z"/>
			</g>
		</g>
	</g>
	<g>
		<g>
			<g>
				<path fill="#1E7A85" d="M850.5,374.6v-30h-36v30H850.5z M818.1,348.4h28.8v18.8h-28.8V348.4z"/>
			</g>
		</g>
	</g>
	<g>
		<g>
			<g>
				<path fill="#1E7A85" d="M808.6,374.6v-30h-36v30H808.6z M776.2,348.4H805v18.8h-28.8V348.4z"/>
			</g>
		</g>
	</g>
	<g>
		<g>
			<g>
				<path fill="#1E7A85" d="M766.8,374.6v-30h-36v30H766.8z M734.3,348.4h28.8v18.8h-28.8V348.4z"/>
			</g>
		</g>
	</g>
	<g>
		<g>
			<g>
				<path fill="#1E7A85" d="M724.9,374.6v-30h-36v30H724.9z M692.5,348.4h28.8v18.8h-28.8V348.4z"/>
			</g>
		</g>
	</g>
	<g>
		<g>
			<g>
				<path fill="#1E7A85" d="M683,374.6v-30h-36v30H683z M650.6,348.4h28.8v18.8h-28.8V348.4z"/>
			</g>
		</g>
	</g>
	<g>
		<g>
			<g>
				<path fill="#1E7A85" d="M641.1,374.6v-30h-36v30H641.1z M608.7,348.4h28.8v18.8h-28.8V348.4z"/>
			</g>
		</g>
	</g>
	<g>
		<g>
			<g>
				<path fill="#1E7A85" d="M599.3,374.6v-30h-36v30H599.3z M566.8,348.4h28.8v18.8h-28.8V348.4z"/>
			</g>
		</g>
	</g>
	<g>
		<g>
			<g>
				<path fill="#1E7A85" d="M557.4,374.6v-30h-36v30H557.4z M525,348.4h28.8v18.8H525V348.4z"/>
			</g>
		</g>
	</g>
	<g>
		<g>
			<g>
				<path fill="#1E7A85" d="M515.5,374.6v-30h-36v30H515.5z M483.1,348.4h28.8v18.8h-28.8V348.4z"/>
			</g>
		</g>
	</g>
	<g>
		<g>
			<g>
				<path fill="#1E7A85" d="M473.6,374.6v-30h-36v30H473.6z M441.2,348.4H470v18.8h-28.8V348.4z"/>
			</g>
		</g>
	</g>
	<g>
		<g>
			<g>
				<path fill="#1E7A85" d="M431.8,374.6v-30h-36v30H431.8z M399.3,348.4h28.8v18.8h-28.8V348.4z"/>
			</g>
		</g>
	</g>
	<g>
		<g>
			<g>
				<path fill="#1E7A85" d="M395.7,483v30h36v-30H395.7z M428.2,509.3h-28.8v-18.8h28.8V509.3z"/>
			</g>
		</g>
	</g>
	<g>
		<g>
			<g>
				<path fill="#1E7A85" d="M437.6,483v30h36v-30H437.6z M470,509.3h-28.8v-18.8H470V509.3z"/>
			</g>
		</g>
	</g>
	<g>
		<g>
			<g>
				<path fill="#1E7A85" d="M479.5,483v30h36v-30H479.5z M511.9,509.3h-28.8v-18.8h28.8V509.3z"/>
			</g>
		</g>
	</g>
	<g>
		<g>
			<g>
				<path fill="#1E7A85" d="M521.4,483v30h36v-30H521.4z M553.8,509.3H525v-18.8h28.8V509.3z"/>
			</g>
		</g>
	</g>
	<g>
		<g>
			<g>
				<path fill="#1E7A85" d="M563.2,483v30h36v-30H563.2z M595.7,509.3h-28.8v-18.8h28.8V509.3z"/>
			</g>
		</g>
	</g>
	<g>
		<g>
			<g>
				<path fill="#1E7A85" d="M605.1,483v30h36v-30H605.1z M637.5,509.3h-28.8v-18.8h28.8V509.3z"/>
			</g>
		</g>
	</g>
	<g>
		<g>
			<g>
				<path fill="#1E7A85" d="M647,483v30h36v-30H647z M679.4,509.3h-28.8v-18.8h28.8V509.3z"/>
			</g>
		</g>
	</g>
	<g>
		<g>
			<g>
				<path fill="#1E7A85" d="M688.9,483v30h36v-30H688.9z M721.3,509.3h-28.8v-18.8h28.8V509.3z"/>
			</g>
		</g>
	</g>
	<g>
		<g>
			<g>
				<path fill="#1E7A85" d="M730.7,483v30h36v-30H730.7z M763.2,509.3h-28.8v-18.8h28.8V509.3z"/>
			</g>
		</g>
	</g>
	<g>
		<g>
			<g>
				<path fill="#1E7A85" d="M772.6,483v30h36v-30H772.6z M805,509.3h-28.8v-18.8H805V509.3z"/>
			</g>
		</g>
	</g>
	<g>
		<g>
			<g>
				<path fill="#1E7A85" d="M814.5,483v30h36v-30H814.5z M846.9,509.3h-28.8v-18.8h28.8V509.3z"/>
			</g>
		</g>
	</g>
	<g>
		<g>
			<g>
				<path fill="#1E7A85" d="M856.3,483v30h36v-30H856.3z M888.8,509.3h-28.8v-18.8h28.8V509.3z"/>
			</g>
		</g>
	</g>
	<g>
		<g>
			<g>
				<path fill="#1E7A85" d="M898.2,483v30h36v-30H898.2z M930.7,509.3h-28.8v-18.8h28.8V509.3z"/>
			</g>
		</g>
	</g>
	<g>
		<g>
			<g>
				<path fill="#1E7A85" d="M940.1,483v30h36v-30H940.1z M972.5,509.3h-28.8v-18.8h28.8V509.3z"/>
			</g>
		</g>
	</g>
	<g>
		<g>
			<g>
				<path fill="#1E7A85" d="M982,483v30h36v-30H982z M1014.4,509.3h-28.8v-18.8h28.8V509.3z"/>
			</g>
		</g>
	</g>
	<g>
		<g>
			<g>
				<path fill="#1E7A85" d="M1023.8,483v30h36v-30H1023.8z M1056.3,509.3h-28.8v-18.8h28.8V509.3z"/>
			</g>
		</g>
	</g>
	<g>
		<g>
			<g>
				<path fill="#1E7A85" d="M1059.9,623.7v-30h-36v30H1059.9z M1027.4,597.4h28.8v18.8h-28.8V597.4z"/>
			</g>
		</g>
	</g>
	<g>
		<g>
			<g>
				<path fill="#1E7A85" d="M1018,623.7v-30h-36v30H1018z M985.6,597.4h28.8v18.8h-28.8V597.4z"/>
			</g>
		</g>
	</g>
	<g>
		<g>
			<g>
				<path fill="#1E7A85" d="M976.1,623.7v-30h-36v30H976.1z M943.7,597.4h28.8v18.8h-28.8V597.4z"/>
			</g>
		</g>
	</g>
	<g>
		<g>
			<g>
				<path fill="#1E7A85" d="M934.3,623.7v-30h-36v30H934.3z M901.8,597.4h28.8v18.8h-28.8V597.4z"/>
			</g>
		</g>
	</g>
	<g>
		<g>
			<g>
				<path fill="#1E7A85" d="M892.4,623.7v-30h-36v30H892.4z M859.9,597.4h28.8v18.8h-28.8V597.4z"/>
			</g>
		</g>
	</g>
	<g>
		<g>
			<g>
				<path fill="#1E7A85" d="M850.5,623.7v-30h-36v30H850.5z M818.1,597.4h28.8v18.8h-28.8V597.4z"/>
			</g>
		</g>
	</g>
	<g>
		<g>
			<g>
				<path fill="#1E7A85" d="M808.6,623.7v-30h-36v30H808.6z M776.2,597.4H805v18.8h-28.8V597.4z"/>
			</g>
		</g>
	</g>
	<g>
		<g>
			<g>
				<path fill="#1E7A85" d="M766.8,623.7v-30h-36v30H766.8z M734.3,597.4h28.8v18.8h-28.8V597.4z"/>
			</g>
		</g>
	</g>
	<g>
		<g>
			<g>
				<path fill="#1E7A85" d="M724.9,623.7v-30h-36v30H724.9z M692.5,597.4h28.8v18.8h-28.8V597.4z"/>
			</g>
		</g>
	</g>
	<g>
		<g>
			<g>
				<path fill="#1E7A85" d="M683,623.7v-30h-36v30H683z M650.6,597.4h28.8v18.8h-28.8V597.4z"/>
			</g>
		</g>
	</g>
	<g>
		<g>
			<g>
				<path fill="#1E7A85" d="M641.1,623.7v-30h-36v30H641.1z M608.7,597.4h28.8v18.8h-28.8V597.4z"/>
			</g>
		</g>
	</g>
	<g>
		<g>
			<g>
				<path fill="#1E7A85" d="M599.3,623.7v-30h-36v30H599.3z M566.8,597.4h28.8v18.8h-28.8V597.4z"/>
			</g>
		</g>
	</g>
	<g>
		<g>
			<g>
				<path fill="#1E7A85" d="M557.4,623.7v-30h-36v30H557.4z M525,597.4h28.8v18.8H525V597.4z"/>
			</g>
		</g>
	</g>
	<g>
		<g>
			<g>
				<path fill="#1E7A85" d="M515.5,623.7v-30h-36v30H515.5z M483.1,597.4h28.8v18.8h-28.8V597.4z"/>
			</g>
		</g>
	</g>
	<g>
		<g>
			<g>
				<path fill="#1E7A85" d="M473.6,623.7v-30h-36v30H473.6z M441.2,597.4H470v18.8h-28.8V597.4z"/>
			</g>
		</g>
	</g>
	<g>
		<g>
			<g>
				<path fill="#1E7A85" d="M431.8,623.7v-30h-36v30H431.8z M399.3,597.4h28.8v18.8h-28.8V597.4z"/>
			</g>
		</g>
	</g>
	<g>
		<g>
			<g>
				<path fill="#1E7A85" d="M395.7,737.7v30h36v-30H395.7z M428.2,764h-28.8v-18.8h28.8V764z"/>
			</g>
		</g>
	</g>
	<g>
		<g>
			<g>
				<path fill="#1E7A85" d="M437.6,737.7v30h36v-30H437.6z M470,764h-28.8v-18.8H470V764z"/>
			</g>
		</g>
	</g>
	<g>
		<g>
			<g>
				<path fill="#1E7A85" d="M479.5,737.7v30h36v-30H479.5z M511.9,764h-28.8v-18.8h28.8V764z"/>
			</g>
		</g>
	</g>
	<g>
		<g>
			<g>
				<path fill="#1E7A85" d="M521.4,737.7v30h36v-30H521.4z M553.8,764H525v-18.8h28.8V764z"/>
			</g>
		</g>
	</g>
	<g>
		<g>
			<g>
				<path fill="#1E7A85" d="M563.2,737.7v30h36v-30H563.2z M595.7,764h-28.8v-18.8h28.8V764z"/>
			</g>
		</g>
	</g>
	<g>
		<g>
			<g>
				<path fill="#1E7A85" d="M605.1,737.7v30h36v-30H605.1z M637.5,764h-28.8v-18.8h28.8V764z"/>
			</g>
		</g>
	</g>
	<g>
		<g>
			<g>
				<path fill="#1E7A85" d="M647,737.7v30h36v-30H647z M679.4,764h-28.8v-18.8h28.8V764z"/>
			</g>
		</g>
	</g>
	<g>
		<g>
			<g>
				<path fill="#1E7A85" d="M688.9,737.7v30h36v-30H688.9z M721.3,764h-28.8v-18.8h28.8V764z"/>
			</g>
		</g>
	</g>
	<g>
		<g>
			<g>
				<path fill="#1E7A85" d="M730.7,737.7v30h36v-30H730.7z M763.2,764h-28.8v-18.8h28.8V764z"/>
			</g>
		</g>
	</g>
	<g>
		<g>
			<g>
				<path fill="#1E7A85" d="M772.6,737.7v30h36v-30H772.6z M805,764h-28.8v-18.8H805V764z"/>
			</g>
		</g>
	</g>
	<g>
		<g>
			<g>
				<path fill="#1E7A85" d="M814.5,737.7v30h36v-30H814.5z M846.9,764h-28.8v-18.8h28.8V764z"/>
			</g>
		</g>
	</g>
	<g>
		<g>
			<g>
				<path fill="#1E7A85" d="M856.3,737.7v30h36v-30H856.3z M888.8,764h-28.8v-18.8h28.8V764z"/>
			</g>
		</g>
	</g>
	<g>
		<g>
			<g>
				<path fill="#1E7A85" d="M898.2,737.7v30h36v-30H898.2z M930.7,764h-28.8v-18.8h28.8V764z"/>
			</g>
		</g>
	</g>
	<g>
		<g>
			<g>
				<path fill="#1E7A85" d="M940.1,737.7v30h36v-30H940.1z M972.5,764h-28.8v-18.8h28.8V764z"/>
			</g>
		</g>
	</g>
	<g>
		<g>
			<g>
				<path fill="#1E7A85" d="M982,737.7v30h36v-30H982z M1014.4,764h-28.8v-18.8h28.8V764z"/>
			</g>
		</g>
	</g>
	<g>
		<g>
			<g>
				<path fill="#1E7A85" d="M1023.8,737.7v30h36v-30H1023.8z M1056.3,764h-28.8v-18.8h28.8V764z"/>
			</g>
		</g>
	</g>
	<g>
		<g>
			<g>
				<path fill="#1E7A85" d="M1059.9,878.4v-30h-36v30H1059.9z M1027.4,852.1h28.8v18.8h-28.8V852.1z"/>
			</g>
		</g>
	</g>
	<g>
		<g>
			<g>
				<path fill="#1E7A85" d="M1018,878.4v-30h-36v30H1018z M985.6,852.1h28.8v18.8h-28.8V852.1z"/>
			</g>
		</g>
	</g>
	<g>
		<g>
			<g>
				<path fill="#1E7A85" d="M976.1,878.4v-30h-36v30H976.1z M943.7,852.1h28.8v18.8h-28.8V852.1z"/>
			</g>
		</g>
	</g>
	<g>
		<g>
			<g>
				<path fill="#1E7A85" d="M934.3,878.4v-30h-36v30H934.3z M901.8,852.1h28.8v18.8h-28.8V852.1z"/>
			</g>
		</g>
	</g>
	<g>
		<g>
			<g>
				<path fill="#1E7A85" d="M892.4,878.4v-30h-36v30H892.4z M859.9,852.1h28.8v18.8h-28.8V852.1z"/>
			</g>
		</g>
	</g>
	<g>
		<g>
			<g>
				<path fill="#1E7A85" d="M850.5,878.4v-30h-36v30H850.5z M818.1,852.1h28.8v18.8h-28.8V852.1z"/>
			</g>
		</g>
	</g>
	<g>
		<g>
			<g>
				<path fill="#1E7A85" d="M808.6,878.4v-30h-36v30H808.6z M776.2,852.1H805v18.8h-28.8V852.1z"/>
			</g>
		</g>
	</g>
	<g>
		<g>
			<g>
				<path fill="#1E7A85" d="M766.8,878.4v-30h-36v30H766.8z M734.3,852.1h28.8v18.8h-28.8V852.1z"/>
			</g>
		</g>
	</g>
	<g>
		<g>
			<g>
				<path fill="#1E7A85" d="M724.9,878.4v-30h-36v30H724.9z M692.5,852.1h28.8v18.8h-28.8V852.1z"/>
			</g>
		</g>
	</g>
	<g>
		<g>
			<g>
				<path fill="#1E7A85" d="M683,878.4v-30h-36v30H683z M650.6,852.1h28.8v18.8h-28.8V852.1z"/>
			</g>
		</g>
	</g>
	<g>
		<g>
			<g>
				<path fill="#1E7A85" d="M641.1,878.4v-30h-36v30H641.1z M608.7,852.1h28.8v18.8h-28.8V852.1z"/>
			</g>
		</g>
	</g>
	<g>
		<g>
			<g>
				<path fill="#1E7A85" d="M599.3,878.4v-30h-36v30H599.3z M566.8,852.1h28.8v18.8h-28.8V852.1z"/>
			</g>
		</g>
	</g>
	<g>
		<g>
			<g>
				<path fill="#1E7A85" d="M557.4,878.4v-30h-36v30H557.4z M525,852.1h28.8v18.8H525V852.1z"/>
			</g>
		</g>
	</g>
	<g>
		<g>
			<g>
				<path fill="#1E7A85" d="M515.5,878.4v-30h-36v30H515.5z M483.1,852.1h28.8v18.8h-28.8V852.1z"/>
			</g>
		</g>
	</g>
	<g>
		<g>
			<g>
				<path fill="#1E7A85" d="M473.6,878.4v-30h-36v30H473.6z M441.2,852.1H470v18.8h-28.8V852.1z"/>
			</g>
		</g>
	</g>
	<g>
		<g>
			<g>
				<path fill="#1E7A85" d="M431.8,878.4v-30h-36v30H431.8z M399.3,852.1h28.8v18.8h-28.8V852.1z"/>
			</g>
		</g>
	</g>
	<g>
		<rect x="1121.1" y="681.3" fill="#FFFFFF" width="65.7" height="124.7"/>
		<path fill="#1E7A85" d="M1187.6,806.8h-67.3V680.6h67.3V806.8z M1121.9,805.3h64.2V682.1h-64.2V805.3z"/>
	</g>
	<g>
		<rect x="1121.1" y="431.9" fill="#FFFFFF" width="65.7" height="124.7"/>
		<path fill="#1E7A85" d="M1187.6,557.4h-67.3V431.1h67.3V557.4z M1121.9,555.8h64.2V432.7h-64.2V555.8z"/>
	</g>
	<g>
		<rect x="1121.1" y="556.6" fill="#FFFFFF" width="65.7" height="124.7"/>
		<path fill="#1E7A85" d="M1187.6,682.1h-67.3V555.8h67.3V682.1z M1121.9,680.6h64.2V557.4h-64.2V680.6z"/>
	</g>
	<g>
		<path fill="#1E7A85" d="M1187.6,432.7h-67.3V306.4h67.3V432.7z M1121.9,431.1h64.2V307.9h-64.2V431.1z"/>
	</g>
	<g>
		<g>
			<g>
				<path fill="#1E7A85" d="M1224.3,307.2h-30v36h30V307.2z M1198,339.6v-28.8h18.8v28.8H1198z"/>
			</g>
		</g>
	</g>
	<g>
		<g>
			<g>
				<path fill="#1E7A85" d="M1224.3,349h-30v36h30V349z M1198,381.5v-28.8h18.8v28.8H1198z"/>
			</g>
		</g>
	</g>
	<g>
		<g>
			<g>
				<path fill="#1E7A85" d="M1224.3,390.9h-30v36h30V390.9z M1198,423.4v-28.8h18.8v28.8H1198z"/>
			</g>
		</g>
	</g>
	<g>
		<g>
			<g>
				<path fill="#1E7A85" d="M1224.3,432.8h-30v36h30V432.8z M1198,465.2v-28.8h18.8v28.8H1198z"/>
			</g>
		</g>
	</g>
	<g>
		<g>
			<g>
				<path fill="#1E7A85" d="M1224.3,474.7h-30v36h30V474.7z M1198,507.1v-28.8h18.8v28.8H1198z"/>
			</g>
		</g>
	</g>
	<g>
		<g>
			<g>
				<path fill="#1E7A85" d="M1224.3,516.5h-30v36h30V516.5z M1198,549v-28.8h18.8V549H1198z"/>
			</g>
		</g>
	</g>
	<g>
		<g>
			<g>
				<path fill="#1E7A85" d="M1224.3,558.4h-30v36h30V558.4z M1198,590.8V562h18.8v28.8H1198z"/>
			</g>
		</g>
	</g>
	<g>
		<g>
			<g>
				<path fill="#1E7A85" d="M1224.3,600.3h-30v36h30V600.3z M1198,632.7v-28.8h18.8v28.8H1198z"/>
			</g>
		</g>
	</g>
	<g>
		<g>
			<g>
				<path fill="#1E7A85" d="M1224.3,642.2h-30v36h30V642.2z M1198,674.6v-28.8h18.8v28.8H1198z"/>
			</g>
		</g>
	</g>
	<g>
		<g>
			<g>
				<path fill="#1E7A85" d="M1224.3,684h-30v36h30V684z M1198,716.5v-28.8h18.8v28.8H1198z"/>
			</g>
		</g>
	</g>
	<g>
		<g>
			<g>
				<path fill="#1E7A85" d="M1224.3,725.9h-30v36h30V725.9z M1198,758.3v-28.8h18.8v28.8H1198z"/>
			</g>
		</g>
	</g>
	<g>
		<g>
			<g>
				<path fill="#1E7A85" d="M1224.3,767.8h-30v36h30V767.8z M1198,800.2v-28.8h18.8v28.8H1198z"/>
			</g>
		</g>
	</g>
</g>
</svg>
