<?xml version="1.0" encoding="utf-8"?>
<!-- Generator: Adobe Illustrator 18.1.1, SVG Export Plug-In . SVG Version: 6.00 Build 0)  -->
<!DOCTYPE svg PUBLIC "-//W3C//DTD SVG 1.1//EN" "http://www.w3.org/Graphics/SVG/1.1/DTD/svg11.dtd">
<svg version="1.1" id="Layer_1" xmlns="http://www.w3.org/2000/svg" xmlns:xlink="http://www.w3.org/1999/xlink" x="0px" y="0px"
	 viewBox="0 0 1920 1080" enable-background="new 0 0 1920 1080" xml:space="preserve">
<g>
	<g>
		<g>
			<g>
				<path fill="#1E7A85" d="M922.9,292.5h21.5v-25.8h-21.5V292.5z M941.7,269.3v20.6h-13.4v-20.6H941.7z"/>
			</g>
		</g>
	</g>
	<g>
		<path fill="#1E7A85" d="M981.3,296.7h-34.2v-34.2h34.2V296.7z M948.6,295.2h31.1V264h-31.1V295.2z"/>
	</g>
	<g>
		<g>
			<g>
				<path fill="#1E7A85" d="M922.9,363h21.5v-25.8h-21.5V363z M941.7,339.8v20.6h-13.4v-20.6H941.7z"/>
			</g>
		</g>
	</g>
	<g>
		<path fill="#1E7A85" d="M981.3,367.2h-34.2V333h34.2V367.2z M948.6,365.7h31.1v-31.1h-31.1V365.7z"/>
	</g>
	<g>
		<g>
			<g>
				<path fill="#1E7A85" d="M922.9,432h21.5v-25.8h-21.5V432z M941.7,408.8v20.6h-13.4v-20.6H941.7z"/>
			</g>
		</g>
	</g>
	<g>
		<path fill="#1E7A85" d="M981.3,436.2h-34.2V402h34.2V436.2z M948.6,434.7h31.1v-31.1h-31.1V434.7z"/>
	</g>
	<g>
		<g>
			<g>
				<path fill="#1E7A85" d="M922.9,501.8h21.5V476h-21.5V501.8z M941.7,478.6v20.6h-13.4v-20.6H941.7z"/>
			</g>
		</g>
	</g>
	<g>
		<path fill="#1E7A85" d="M981.3,506h-34.2v-34.2h34.2V506z M948.6,504.4h31.1v-31.1h-31.1V504.4z"/>
	</g>
	<g>
		<g>
			<g>
				<path fill="#1E7A85" d="M922.9,571.5h21.5v-25.8h-21.5V571.5z M941.7,548.3v20.6h-13.4v-20.6H941.7z"/>
			</g>
		</g>
	</g>
	<g>
		<path fill="#1E7A85" d="M981.3,575.7h-34.2v-34.2h34.2V575.7z M948.6,574.2h31.1v-31.1h-31.1V574.2z"/>
	</g>
	<g>
		<g>
			<g>
				<path fill="#1E7A85" d="M922.9,641.3h21.5v-25.8h-21.5V641.3z M941.7,618.1v20.6h-13.4v-20.6H941.7z"/>
			</g>
		</g>
	</g>
	<g>
		<path fill="#1E7A85" d="M981.3,645.5h-34.2v-34.2h34.2V645.5z M948.6,643.9h31.1v-31.1h-31.1V643.9z"/>
	</g>
	<g>
		<g>
			<g>
				<path fill="#1E7A85" d="M1001.2,292.5h21.5v-25.8h-21.5V292.5z M1020,269.3v20.6h-13.4v-20.6H1020z"/>
			</g>
		</g>
	</g>
	<g>
		<path fill="#1E7A85" d="M1059.5,296.7h-34.2v-34.2h34.2V296.7z M1026.9,295.2h31.1V264h-31.1V295.2z"/>
	</g>
	<g>
		<g>
			<g>
				<path fill="#1E7A85" d="M1001.2,363h21.5v-25.8h-21.5V363z M1020,339.8v20.6h-13.4v-20.6H1020z"/>
			</g>
		</g>
	</g>
	<g>
		<path fill="#1E7A85" d="M1059.5,367.2h-34.2V333h34.2V367.2z M1026.9,365.7h31.1v-31.1h-31.1V365.7z"/>
	</g>
	<g>
		<g>
			<g>
				<path fill="#1E7A85" d="M1001.2,432h21.5v-25.8h-21.5V432z M1020,408.8v20.6h-13.4v-20.6H1020z"/>
			</g>
		</g>
	</g>
	<g>
		<path fill="#1E7A85" d="M1059.5,436.2h-34.2V402h34.2V436.2z M1026.9,434.7h31.1v-31.1h-31.1V434.7z"/>
	</g>
	<g>
		<g>
			<g>
				<path fill="#1E7A85" d="M1001.2,501.8h21.5V476h-21.5V501.8z M1020,478.6v20.6h-13.4v-20.6H1020z"/>
			</g>
		</g>
	</g>
	<g>
		<path fill="#1E7A85" d="M1059.5,506h-34.2v-34.2h34.2V506z M1026.9,504.4h31.1v-31.1h-31.1V504.4z"/>
	</g>
	<g>
		<g>
			<g>
				<path fill="#1E7A85" d="M1001.2,571.5h21.5v-25.8h-21.5V571.5z M1020,548.3v20.6h-13.4v-20.6H1020z"/>
			</g>
		</g>
	</g>
	<g>
		<path fill="#1E7A85" d="M1059.5,575.7h-34.2v-34.2h34.2V575.7z M1026.9,574.2h31.1v-31.1h-31.1V574.2z"/>
	</g>
	<g>
		<g>
			<g>
				<path fill="#1E7A85" d="M1001.2,641.3h21.5v-25.8h-21.5V641.3z M1020,618.1v20.6h-13.4v-20.6H1020z"/>
			</g>
		</g>
	</g>
	<g>
		<path fill="#1E7A85" d="M1059.5,645.5h-34.2v-34.2h34.2V645.5z M1026.9,643.9h31.1v-31.1h-31.1V643.9z"/>
	</g>
	<g>
		<g>
			<g>
				<path fill="#1E7A85" d="M1079.4,292.5h21.5v-25.8h-21.5V292.5z M1098.2,269.3v20.6h-13.4v-20.6H1098.2z"/>
			</g>
		</g>
	</g>
	<g>
		<path fill="#1E7A85" d="M1137.8,296.7h-34.2v-34.2h34.2V296.7z M1105.1,295.2h31.1V264h-31.1V295.2z"/>
	</g>
	<g>
		<g>
			<g>
				<path fill="#1E7A85" d="M1079.4,363h21.5v-25.8h-21.5V363z M1098.2,339.8v20.6h-13.4v-20.6H1098.2z"/>
			</g>
		</g>
	</g>
	<g>
		<path fill="#1E7A85" d="M1137.8,367.2h-34.2V333h34.2V367.2z M1105.1,365.7h31.1v-31.1h-31.1V365.7z"/>
	</g>
	<g>
		<g>
			<g>
				<path fill="#1E7A85" d="M1079.4,432h21.5v-25.8h-21.5V432z M1098.2,408.8v20.6h-13.4v-20.6H1098.2z"/>
			</g>
		</g>
	</g>
	<g>
		<path fill="#1E7A85" d="M1137.8,436.2h-34.2V402h34.2V436.2z M1105.1,434.7h31.1v-31.1h-31.1V434.7z"/>
	</g>
	<g>
		<g>
			<g>
				<path fill="#1E7A85" d="M1079.4,501.8h21.5V476h-21.5V501.8z M1098.2,478.6v20.6h-13.4v-20.6H1098.2z"/>
			</g>
		</g>
	</g>
	<g>
		<path fill="#1E7A85" d="M1137.8,506h-34.2v-34.2h34.2V506z M1105.1,504.4h31.1v-31.1h-31.1V504.4z"/>
	</g>
	<g>
		<g>
			<g>
				<path fill="#1E7A85" d="M1079.4,571.5h21.5v-25.8h-21.5V571.5z M1098.2,548.3v20.6h-13.4v-20.6H1098.2z"/>
			</g>
		</g>
	</g>
	<g>
		<path fill="#1E7A85" d="M1137.8,575.7h-34.2v-34.2h34.2V575.7z M1105.1,574.2h31.1v-31.1h-31.1V574.2z"/>
	</g>
	<g>
		<g>
			<g>
				<path fill="#1E7A85" d="M1079.4,641.3h21.5v-25.8h-21.5V641.3z M1098.2,618.1v20.6h-13.4v-20.6H1098.2z"/>
			</g>
		</g>
	</g>
	<g>
		<path fill="#1E7A85" d="M1137.8,645.5h-34.2v-34.2h34.2V645.5z M1105.1,643.9h31.1v-31.1h-31.1V643.9z"/>
	</g>
	<g>
		<g>
			<g>
				<path fill="#1E7A85" d="M1157.7,292.5h21.5v-25.8h-21.5V292.5z M1176.5,269.3v20.6H1163v-20.6H1176.5z"/>
			</g>
		</g>
	</g>
	<g>
		<path fill="#1E7A85" d="M1216,296.7h-34.2v-34.2h34.2V296.7z M1183.4,295.2h31.1V264h-31.1V295.2z"/>
	</g>
	<g>
		<g>
			<g>
				<path fill="#1E7A85" d="M1157.7,363h21.5v-25.8h-21.5V363z M1176.5,339.8v20.6H1163v-20.6H1176.5z"/>
			</g>
		</g>
	</g>
	<g>
		<path fill="#1E7A85" d="M1216,367.2h-34.2V333h34.2V367.2z M1183.4,365.7h31.1v-31.1h-31.1V365.7z"/>
	</g>
	<g>
		<g>
			<g>
				<path fill="#1E7A85" d="M1157.7,432h21.5v-25.8h-21.5V432z M1176.5,408.8v20.6H1163v-20.6H1176.5z"/>
			</g>
		</g>
	</g>
	<g>
		<path fill="#1E7A85" d="M1216,436.2h-34.2V402h34.2V436.2z M1183.4,434.7h31.1v-31.1h-31.1V434.7z"/>
	</g>
	<g>
		<g>
			<g>
				<path fill="#1E7A85" d="M1157.7,501.8h21.5V476h-21.5V501.8z M1176.5,478.6v20.6H1163v-20.6H1176.5z"/>
			</g>
		</g>
	</g>
	<g>
		<path fill="#1E7A85" d="M1216,506h-34.2v-34.2h34.2V506z M1183.4,504.4h31.1v-31.1h-31.1V504.4z"/>
	</g>
	<g>
		<path fill="#1E7A85" d="M1396.6,577.7h-53.4V456.1h53.4V577.7z M1344.8,576.1h50.3V457.6h-50.3V576.1z"/>
	</g>
	<g>
		<path fill="#1E7A85" d="M1396.6,712.6h-53.4V591h53.4V712.6z M1344.8,711h50.3V592.5h-50.3V711z"/>
	</g>
	<g>
		<g>
			<g>
				<path fill="#1E7A85" d="M1157.7,571.5h21.5v-25.8h-21.5V571.5z M1176.5,548.3v20.6H1163v-20.6H1176.5z"/>
			</g>
		</g>
	</g>
	<g>
		<path fill="#1E7A85" d="M1216,575.7h-34.2v-34.2h34.2V575.7z M1183.4,574.2h31.1v-31.1h-31.1V574.2z"/>
	</g>
	<g>
		<g>
			<g>
				<path fill="#1E7A85" d="M1157.7,641.3h21.5v-25.8h-21.5V641.3z M1176.5,618.1v20.6H1163v-20.6H1176.5z"/>
			</g>
		</g>
	</g>
	<g>
		<path fill="#1E7A85" d="M1216,645.5h-34.2v-34.2h34.2V645.5z M1183.4,643.9h31.1v-31.1h-31.1V643.9z"/>
	</g>
	<g>
		<g>
			<g>
				<path fill="#1E7A85" d="M922.9,711.6h21.5v-25.8h-21.5V711.6z M941.7,688.4V709h-13.4v-20.6H941.7z"/>
			</g>
		</g>
	</g>
	<g>
		<path fill="#1E7A85" d="M981.3,715.8h-34.2v-34.2h34.2V715.8z M948.6,714.3h31.1v-31.1h-31.1V714.3z"/>
	</g>
	<g>
		<g>
			<g>
				<path fill="#1E7A85" d="M922.9,781.4h21.5v-25.8h-21.5V781.4z M941.7,758.2v20.6h-13.4v-20.6H941.7z"/>
			</g>
		</g>
	</g>
	<g>
		<path fill="#1E7A85" d="M981.3,785.6h-34.2v-34.2h34.2V785.6z M948.6,784h31.1v-31.1h-31.1V784z"/>
	</g>
	<g>
		<g>
			<g>
				<path fill="#1E7A85" d="M922.9,851.1h21.5v-25.8h-21.5V851.1z M941.7,827.9v20.6h-13.4v-20.6H941.7z"/>
			</g>
		</g>
	</g>
	<g>
		<path fill="#1E7A85" d="M981.3,855.3h-34.2v-34.2h34.2V855.3z M948.6,853.8h31.1v-31.1h-31.1V853.8z"/>
	</g>
	<g>
		<g>
			<g>
				<path fill="#1E7A85" d="M1001.2,711.6h21.5v-25.8h-21.5V711.6z M1020,688.4V709h-13.4v-20.6H1020z"/>
			</g>
		</g>
	</g>
	<g>
		<path fill="#1E7A85" d="M1059.5,715.8h-34.2v-34.2h34.2V715.8z M1026.9,714.3h31.1v-31.1h-31.1V714.3z"/>
	</g>
	<g>
		<g>
			<g>
				<path fill="#1E7A85" d="M1001.2,781.4h21.5v-25.8h-21.5V781.4z M1020,758.2v20.6h-13.4v-20.6H1020z"/>
			</g>
		</g>
	</g>
	<g>
		<path fill="#1E7A85" d="M1059.5,785.6h-34.2v-34.2h34.2V785.6z M1026.9,784h31.1v-31.1h-31.1V784z"/>
	</g>
	<g>
		<g>
			<g>
				<path fill="#1E7A85" d="M1001.2,851.1h21.5v-25.8h-21.5V851.1z M1020,827.9v20.6h-13.4v-20.6H1020z"/>
			</g>
		</g>
	</g>
	<g>
		<path fill="#1E7A85" d="M1059.5,855.3h-34.2v-34.2h34.2V855.3z M1026.9,853.8h31.1v-31.1h-31.1V853.8z"/>
	</g>
	<g>
		<g>
			<g>
				<path fill="#1E7A85" d="M1079.4,711.6h21.5v-25.8h-21.5V711.6z M1098.2,688.4V709h-13.4v-20.6H1098.2z"/>
			</g>
		</g>
	</g>
	<g>
		<path fill="#1E7A85" d="M1137.8,715.8h-34.2v-34.2h34.2V715.8z M1105.1,714.3h31.1v-31.1h-31.1V714.3z"/>
	</g>
	<g>
		<g>
			<g>
				<path fill="#1E7A85" d="M1079.4,781.4h21.5v-25.8h-21.5V781.4z M1098.2,758.2v20.6h-13.4v-20.6H1098.2z"/>
			</g>
		</g>
	</g>
	<g>
		<path fill="#1E7A85" d="M1137.8,785.6h-34.2v-34.2h34.2V785.6z M1105.1,784h31.1v-31.1h-31.1V784z"/>
	</g>
	<g>
		<g>
			<g>
				<path fill="#1E7A85" d="M1079.4,851.1h21.5v-25.8h-21.5V851.1z M1098.2,827.9v20.6h-13.4v-20.6H1098.2z"/>
			</g>
		</g>
	</g>
	<g>
		<path fill="#1E7A85" d="M1137.8,855.3h-34.2v-34.2h34.2V855.3z M1105.1,853.8h31.1v-31.1h-31.1V853.8z"/>
	</g>
	<g>
		<g>
			<g>
				<path fill="#1E7A85" d="M1157.7,711.6h21.5v-25.8h-21.5V711.6z M1176.5,688.4V709H1163v-20.6H1176.5z"/>
			</g>
		</g>
	</g>
	<g>
		<path fill="#1E7A85" d="M1216,715.8h-34.2v-34.2h34.2V715.8z M1183.4,714.3h31.1v-31.1h-31.1V714.3z"/>
	</g>
	<g>
		<g>
			<g>
				<path fill="#1E7A85" d="M1157.7,781.4h21.5v-25.8h-21.5V781.4z M1176.5,758.2v20.6H1163v-20.6H1176.5z"/>
			</g>
		</g>
	</g>
	<g>
		<path fill="#1E7A85" d="M1216,785.6h-34.2v-34.2h34.2V785.6z M1183.4,784h31.1v-31.1h-31.1V784z"/>
	</g>
	<g>
		<g>
			<g>
				<path fill="#1E7A85" d="M1157.7,851.1h21.5v-25.8h-21.5V851.1z M1176.5,827.9v20.6H1163v-20.6H1176.5z"/>
			</g>
		</g>
	</g>
	<g>
		<path fill="#1E7A85" d="M1216,855.3h-34.2v-34.2h34.2V855.3z M1183.4,853.8h31.1v-31.1h-31.1V853.8z"/>
	</g>
	<g>
		<g>
			<g>
				<path fill="#1E7A85" d="M609.8,292.5h21.5v-25.8h-21.5V292.5z M628.5,269.3v20.6h-13.4v-20.6H628.5z"/>
			</g>
		</g>
	</g>
	<g>
		<path fill="#1E7A85" d="M668.1,296.7h-34.2v-34.2h34.2V296.7z M635.4,295.2h31.1V264h-31.1V295.2z"/>
	</g>
	<g>
		<g>
			<g>
				<path fill="#1E7A85" d="M609.8,363h21.5v-25.8h-21.5V363z M628.5,339.8v20.6h-13.4v-20.6H628.5z"/>
			</g>
		</g>
	</g>
	<g>
		<path fill="#1E7A85" d="M668.1,367.2h-34.2V333h34.2V367.2z M635.4,365.7h31.1v-31.1h-31.1V365.7z"/>
	</g>
	<g>
		<g>
			<g>
				<path fill="#1E7A85" d="M609.8,432h21.5v-25.8h-21.5V432z M628.5,408.8v20.6h-13.4v-20.6H628.5z"/>
			</g>
		</g>
	</g>
	<g>
		<path fill="#1E7A85" d="M668.1,436.2h-34.2V402h34.2V436.2z M635.4,434.7h31.1v-31.1h-31.1V434.7z"/>
	</g>
	<g>
		<g>
			<g>
				<path fill="#1E7A85" d="M609.8,501.8h21.5V476h-21.5V501.8z M628.5,478.6v20.6h-13.4v-20.6H628.5z"/>
			</g>
		</g>
	</g>
	<g>
		<path fill="#1E7A85" d="M668.1,506h-34.2v-34.2h34.2V506z M635.4,504.4h31.1v-31.1h-31.1V504.4z"/>
	</g>
	<g>
		<g>
			<g>
				<path fill="#1E7A85" d="M609.8,571.5h21.5v-25.8h-21.5V571.5z M628.5,548.3v20.6h-13.4v-20.6H628.5z"/>
			</g>
		</g>
	</g>
	<g>
		<path fill="#1E7A85" d="M668.1,575.7h-34.2v-34.2h34.2V575.7z M635.4,574.2h31.1v-31.1h-31.1V574.2z"/>
	</g>
	<g>
		<g>
			<g>
				<path fill="#1E7A85" d="M609.8,641.3h21.5v-25.8h-21.5V641.3z M628.5,618.1v20.6h-13.4v-20.6H628.5z"/>
			</g>
		</g>
	</g>
	<g>
		<path fill="#1E7A85" d="M668.1,645.5h-34.2v-34.2h34.2V645.5z M635.4,643.9h31.1v-31.1h-31.1V643.9z"/>
	</g>
	<g>
		<g>
			<g>
				<path fill="#1E7A85" d="M688,292.5h21.5v-25.8H688V292.5z M706.8,269.3v20.6h-13.4v-20.6H706.8z"/>
			</g>
		</g>
	</g>
	<g>
		<path fill="#1E7A85" d="M746.3,296.7h-34.2v-34.2h34.2V296.7z M713.7,295.2h31.1V264h-31.1V295.2z"/>
	</g>
	<g>
		<g>
			<g>
				<path fill="#1E7A85" d="M688,363h21.5v-25.8H688V363z M706.8,339.8v20.6h-13.4v-20.6H706.8z"/>
			</g>
		</g>
	</g>
	<g>
		<path fill="#1E7A85" d="M746.3,367.2h-34.2V333h34.2V367.2z M713.7,365.7h31.1v-31.1h-31.1V365.7z"/>
	</g>
	<g>
		<g>
			<g>
				<path fill="#1E7A85" d="M688,432h21.5v-25.8H688V432z M706.8,408.8v20.6h-13.4v-20.6H706.8z"/>
			</g>
		</g>
	</g>
	<g>
		<path fill="#1E7A85" d="M746.3,436.2h-34.2V402h34.2V436.2z M713.7,434.7h31.1v-31.1h-31.1V434.7z"/>
	</g>
	<g>
		<g>
			<g>
				<path fill="#1E7A85" d="M688,501.8h21.5V476H688V501.8z M706.8,478.6v20.6h-13.4v-20.6H706.8z"/>
			</g>
		</g>
	</g>
	<g>
		<path fill="#1E7A85" d="M746.3,506h-34.2v-34.2h34.2V506z M713.7,504.4h31.1v-31.1h-31.1V504.4z"/>
	</g>
	<g>
		<g>
			<g>
				<path fill="#1E7A85" d="M688,571.5h21.5v-25.8H688V571.5z M706.8,548.3v20.6h-13.4v-20.6H706.8z"/>
			</g>
		</g>
	</g>
	<g>
		<path fill="#1E7A85" d="M746.3,575.7h-34.2v-34.2h34.2V575.7z M713.7,574.2h31.1v-31.1h-31.1V574.2z"/>
	</g>
	<g>
		<g>
			<g>
				<path fill="#1E7A85" d="M688,641.3h21.5v-25.8H688V641.3z M706.8,618.1v20.6h-13.4v-20.6H706.8z"/>
			</g>
		</g>
	</g>
	<g>
		<path fill="#1E7A85" d="M746.3,645.5h-34.2v-34.2h34.2V645.5z M713.7,643.9h31.1v-31.1h-31.1V643.9z"/>
	</g>
	<g>
		<g>
			<g>
				<path fill="#1E7A85" d="M766.2,292.5h21.5v-25.8h-21.5V292.5z M785,269.3v20.6h-13.4v-20.6H785z"/>
			</g>
		</g>
	</g>
	<g>
		<path fill="#1E7A85" d="M824.6,296.7h-34.2v-34.2h34.2V296.7z M791.9,295.2H823V264h-31.1V295.2z"/>
	</g>
	<g>
		<g>
			<g>
				<path fill="#1E7A85" d="M766.2,363h21.5v-25.8h-21.5V363z M785,339.8v20.6h-13.4v-20.6H785z"/>
			</g>
		</g>
	</g>
	<g>
		<path fill="#1E7A85" d="M824.6,367.2h-34.2V333h34.2V367.2z M791.9,365.7H823v-31.1h-31.1V365.7z"/>
	</g>
	<g>
		<g>
			<g>
				<path fill="#1E7A85" d="M766.2,432h21.5v-25.8h-21.5V432z M785,408.8v20.6h-13.4v-20.6H785z"/>
			</g>
		</g>
	</g>
	<g>
		<path fill="#1E7A85" d="M824.6,436.2h-34.2V402h34.2V436.2z M791.9,434.7H823v-31.1h-31.1V434.7z"/>
	</g>
	<g>
		<g>
			<g>
				<path fill="#1E7A85" d="M766.2,501.8h21.5V476h-21.5V501.8z M785,478.6v20.6h-13.4v-20.6H785z"/>
			</g>
		</g>
	</g>
	<g>
		<path fill="#1E7A85" d="M824.6,506h-34.2v-34.2h34.2V506z M791.9,504.4H823v-31.1h-31.1V504.4z"/>
	</g>
	<g>
		<g>
			<g>
				<path fill="#1E7A85" d="M766.2,571.5h21.5v-25.8h-21.5V571.5z M785,548.3v20.6h-13.4v-20.6H785z"/>
			</g>
		</g>
	</g>
	<g>
		<path fill="#1E7A85" d="M824.6,575.7h-34.2v-34.2h34.2V575.7z M791.9,574.2H823v-31.1h-31.1V574.2z"/>
	</g>
	<g>
		<g>
			<g>
				<path fill="#1E7A85" d="M766.2,641.3h21.5v-25.8h-21.5V641.3z M785,618.1v20.6h-13.4v-20.6H785z"/>
			</g>
		</g>
	</g>
	<g>
		<path fill="#1E7A85" d="M824.6,645.5h-34.2v-34.2h34.2V645.5z M791.9,643.9H823v-31.1h-31.1V643.9z"/>
	</g>
	<g>
		<g>
			<g>
				<path fill="#1E7A85" d="M844.5,292.5H866v-25.8h-21.5V292.5z M863.3,269.3v20.6h-13.4v-20.6H863.3z"/>
			</g>
		</g>
	</g>
	<g>
		<path fill="#1E7A85" d="M902.8,296.7h-34.2v-34.2h34.2V296.7z M870.2,295.2h31.1V264h-31.1V295.2z"/>
	</g>
	<g>
		<g>
			<g>
				<path fill="#1E7A85" d="M844.5,363H866v-25.8h-21.5V363z M863.3,339.8v20.6h-13.4v-20.6H863.3z"/>
			</g>
		</g>
	</g>
	<g>
		<path fill="#1E7A85" d="M902.8,367.2h-34.2V333h34.2V367.2z M870.2,365.7h31.1v-31.1h-31.1V365.7z"/>
	</g>
	<g>
		<g>
			<g>
				<path fill="#1E7A85" d="M844.5,432H866v-25.8h-21.5V432z M863.3,408.8v20.6h-13.4v-20.6H863.3z"/>
			</g>
		</g>
	</g>
	<g>
		<path fill="#1E7A85" d="M902.8,436.2h-34.2V402h34.2V436.2z M870.2,434.7h31.1v-31.1h-31.1V434.7z"/>
	</g>
	<g>
		<g>
			<g>
				<path fill="#1E7A85" d="M844.5,501.8H866V476h-21.5V501.8z M863.3,478.6v20.6h-13.4v-20.6H863.3z"/>
			</g>
		</g>
	</g>
	<g>
		<path fill="#1E7A85" d="M902.8,506h-34.2v-34.2h34.2V506z M870.2,504.4h31.1v-31.1h-31.1V504.4z"/>
	</g>
	<g>
		<g>
			<g>
				<path fill="#1E7A85" d="M844.5,571.5H866v-25.8h-21.5V571.5z M863.3,548.3v20.6h-13.4v-20.6H863.3z"/>
			</g>
		</g>
	</g>
	<g>
		<path fill="#1E7A85" d="M902.8,575.7h-34.2v-34.2h34.2V575.7z M870.2,574.2h31.1v-31.1h-31.1V574.2z"/>
	</g>
	<g>
		<g>
			<g>
				<path fill="#1E7A85" d="M844.5,641.3H866v-25.8h-21.5V641.3z M863.3,618.1v20.6h-13.4v-20.6H863.3z"/>
			</g>
		</g>
	</g>
	<g>
		<path fill="#1E7A85" d="M902.8,645.5h-34.2v-34.2h34.2V645.5z M870.2,643.9h31.1v-31.1h-31.1V643.9z"/>
	</g>
	<g>
		<g>
			<g>
				<path fill="#1E7A85" d="M609.8,711.6h21.5v-25.8h-21.5V711.6z M628.5,688.4V709h-13.4v-20.6H628.5z"/>
			</g>
		</g>
	</g>
	<g>
		<path fill="#1E7A85" d="M668.1,715.8h-34.2v-34.2h34.2V715.8z M635.4,714.3h31.1v-31.1h-31.1V714.3z"/>
	</g>
	<g>
		<g>
			<g>
				<path fill="#1E7A85" d="M609.8,781.4h21.5v-25.8h-21.5V781.4z M628.5,758.2v20.6h-13.4v-20.6H628.5z"/>
			</g>
		</g>
	</g>
	<g>
		<path fill="#1E7A85" d="M668.1,785.6h-34.2v-34.2h34.2V785.6z M635.4,784h31.1v-31.1h-31.1V784z"/>
	</g>
	<g>
		<g>
			<g>
				<path fill="#1E7A85" d="M609.8,851.1h21.5v-25.8h-21.5V851.1z M628.5,827.9v20.6h-13.4v-20.6H628.5z"/>
			</g>
		</g>
	</g>
	<g>
		<path fill="#1E7A85" d="M668.1,855.3h-34.2v-34.2h34.2V855.3z M635.4,853.8h31.1v-31.1h-31.1V853.8z"/>
	</g>
	<g>
		<g>
			<g>
				<path fill="#1E7A85" d="M688,711.6h21.5v-25.8H688V711.6z M706.8,688.4V709h-13.4v-20.6H706.8z"/>
			</g>
		</g>
	</g>
	<g>
		<path fill="#1E7A85" d="M746.3,715.8h-34.2v-34.2h34.2V715.8z M713.7,714.3h31.1v-31.1h-31.1V714.3z"/>
	</g>
	<g>
		<g>
			<g>
				<path fill="#1E7A85" d="M688,781.4h21.5v-25.8H688V781.4z M706.8,758.2v20.6h-13.4v-20.6H706.8z"/>
			</g>
		</g>
	</g>
	<g>
		<path fill="#1E7A85" d="M746.3,785.6h-34.2v-34.2h34.2V785.6z M713.7,784h31.1v-31.1h-31.1V784z"/>
	</g>
	<g>
		<g>
			<g>
				<path fill="#1E7A85" d="M688,851.1h21.5v-25.8H688V851.1z M706.8,827.9v20.6h-13.4v-20.6H706.8z"/>
			</g>
		</g>
	</g>
	<g>
		<path fill="#1E7A85" d="M746.3,855.3h-34.2v-34.2h34.2V855.3z M713.7,853.8h31.1v-31.1h-31.1V853.8z"/>
	</g>
	<g>
		<g>
			<g>
				<path fill="#1E7A85" d="M766.2,711.6h21.5v-25.8h-21.5V711.6z M785,688.4V709h-13.4v-20.6H785z"/>
			</g>
		</g>
	</g>
	<g>
		<path fill="#1E7A85" d="M824.6,715.8h-34.2v-34.2h34.2V715.8z M791.9,714.3H823v-31.1h-31.1V714.3z"/>
	</g>
	<g>
		<g>
			<g>
				<path fill="#1E7A85" d="M766.2,781.4h21.5v-25.8h-21.5V781.4z M785,758.2v20.6h-13.4v-20.6H785z"/>
			</g>
		</g>
	</g>
	<g>
		<path fill="#1E7A85" d="M824.6,785.6h-34.2v-34.2h34.2V785.6z M791.9,784H823v-31.1h-31.1V784z"/>
	</g>
	<g>
		<g>
			<g>
				<path fill="#1E7A85" d="M766.2,851.1h21.5v-25.8h-21.5V851.1z M785,827.9v20.6h-13.4v-20.6H785z"/>
			</g>
		</g>
	</g>
	<g>
		<path fill="#1E7A85" d="M824.6,855.3h-34.2v-34.2h34.2V855.3z M791.9,853.8H823v-31.1h-31.1V853.8z"/>
	</g>
	<g>
		<g>
			<g>
				<path fill="#1E7A85" d="M375.4,292.5h21.5v-25.8h-21.5V292.5z M394.2,269.3v20.6h-13.4v-20.6H394.2z"/>
			</g>
		</g>
	</g>
	<g>
		<path fill="#1E7A85" d="M433.8,296.7h-34.2v-34.2h34.2V296.7z M401.1,295.2h31.1V264h-31.1V295.2z"/>
	</g>
	<g>
		<g>
			<g>
				<path fill="#1E7A85" d="M375.4,363h21.5v-25.8h-21.5V363z M394.2,339.8v20.6h-13.4v-20.6H394.2z"/>
			</g>
		</g>
	</g>
	<g>
		<path fill="#1E7A85" d="M433.8,367.2h-34.2V333h34.2V367.2z M401.1,365.7h31.1v-31.1h-31.1V365.7z"/>
	</g>
	<g>
		<g>
			<g>
				<path fill="#1E7A85" d="M375.4,432h21.5v-25.8h-21.5V432z M394.2,408.8v20.6h-13.4v-20.6H394.2z"/>
			</g>
		</g>
	</g>
	<g>
		<path fill="#1E7A85" d="M433.8,436.2h-34.2V402h34.2V436.2z M401.1,434.7h31.1v-31.1h-31.1V434.7z"/>
	</g>
	<g>
		<g>
			<g>
				<path fill="#1E7A85" d="M375.4,501.8h21.5V476h-21.5V501.8z M394.2,478.6v20.6h-13.4v-20.6H394.2z"/>
			</g>
		</g>
	</g>
	<g>
		<path fill="#1E7A85" d="M433.8,506h-34.2v-34.2h34.2V506z M401.1,504.4h31.1v-31.1h-31.1V504.4z"/>
	</g>
	<g>
		<g>
			<g>
				<path fill="#1E7A85" d="M375.4,571.5h21.5v-25.8h-21.5V571.5z M394.2,548.3v20.6h-13.4v-20.6H394.2z"/>
			</g>
		</g>
	</g>
	<g>
		<path fill="#1E7A85" d="M433.8,575.7h-34.2v-34.2h34.2V575.7z M401.1,574.2h31.1v-31.1h-31.1V574.2z"/>
	</g>
	<g>
		<g>
			<g>
				<path fill="#1E7A85" d="M375.4,641.3h21.5v-25.8h-21.5V641.3z M394.2,618.1v20.6h-13.4v-20.6H394.2z"/>
			</g>
		</g>
	</g>
	<g>
		<path fill="#1E7A85" d="M433.8,645.5h-34.2v-34.2h34.2V645.5z M401.1,643.9h31.1v-31.1h-31.1V643.9z"/>
	</g>
	<g>
		<g>
			<g>
				<path fill="#1E7A85" d="M453.7,292.5h21.5v-25.8h-21.5V292.5z M472.5,269.3v20.6H459v-20.6H472.5z"/>
			</g>
		</g>
	</g>
	<g>
		<path fill="#1E7A85" d="M512,296.7h-34.2v-34.2H512V296.7z M479.4,295.2h31.1V264h-31.1V295.2z"/>
	</g>
	<g>
		<g>
			<g>
				<path fill="#1E7A85" d="M453.7,363h21.5v-25.8h-21.5V363z M472.5,339.8v20.6H459v-20.6H472.5z"/>
			</g>
		</g>
	</g>
	<g>
		<path fill="#1E7A85" d="M512,367.2h-34.2V333H512V367.2z M479.4,365.7h31.1v-31.1h-31.1V365.7z"/>
	</g>
	<g>
		<g>
			<g>
				<path fill="#1E7A85" d="M453.7,432h21.5v-25.8h-21.5V432z M472.5,408.8v20.6H459v-20.6H472.5z"/>
			</g>
		</g>
	</g>
	<g>
		<path fill="#1E7A85" d="M512,436.2h-34.2V402H512V436.2z M479.4,434.7h31.1v-31.1h-31.1V434.7z"/>
	</g>
	<g>
		<g>
			<g>
				<path fill="#1E7A85" d="M453.7,501.8h21.5V476h-21.5V501.8z M472.5,478.6v20.6H459v-20.6H472.5z"/>
			</g>
		</g>
	</g>
	<g>
		<path fill="#1E7A85" d="M512,506h-34.2v-34.2H512V506z M479.4,504.4h31.1v-31.1h-31.1V504.4z"/>
	</g>
	<g>
		<g>
			<g>
				<path fill="#1E7A85" d="M453.7,571.5h21.5v-25.8h-21.5V571.5z M472.5,548.3v20.6H459v-20.6H472.5z"/>
			</g>
		</g>
	</g>
	<g>
		<path fill="#1E7A85" d="M512,575.7h-34.2v-34.2H512V575.7z M479.4,574.2h31.1v-31.1h-31.1V574.2z"/>
	</g>
	<g>
		<g>
			<g>
				<path fill="#1E7A85" d="M453.7,641.3h21.5v-25.8h-21.5V641.3z M472.5,618.1v20.6H459v-20.6H472.5z"/>
			</g>
		</g>
	</g>
	<g>
		<path fill="#1E7A85" d="M512,645.5h-34.2v-34.2H512V645.5z M479.4,643.9h31.1v-31.1h-31.1V643.9z"/>
	</g>
	<g>
		<g>
			<g>
				<path fill="#1E7A85" d="M531.9,292.5h21.5v-25.8h-21.5V292.5z M550.7,269.3v20.6h-13.4v-20.6H550.7z"/>
			</g>
		</g>
	</g>
	<g>
		<path fill="#1E7A85" d="M590.3,296.7h-34.2v-34.2h34.2V296.7z M557.6,295.2h31.1V264h-31.1V295.2z"/>
	</g>
	<g>
		<g>
			<g>
				<path fill="#1E7A85" d="M531.9,363h21.5v-25.8h-21.5V363z M550.7,339.8v20.6h-13.4v-20.6H550.7z"/>
			</g>
		</g>
	</g>
	<g>
		<path fill="#1E7A85" d="M590.3,367.2h-34.2V333h34.2V367.2z M557.6,365.7h31.1v-31.1h-31.1V365.7z"/>
	</g>
	<g>
		<g>
			<g>
				<path fill="#1E7A85" d="M531.9,432h21.5v-25.8h-21.5V432z M550.7,408.8v20.6h-13.4v-20.6H550.7z"/>
			</g>
		</g>
	</g>
	<g>
		<path fill="#1E7A85" d="M590.3,436.2h-34.2V402h34.2V436.2z M557.6,434.7h31.1v-31.1h-31.1V434.7z"/>
	</g>
	<g>
		<g>
			<g>
				<path fill="#1E7A85" d="M531.9,501.8h21.5V476h-21.5V501.8z M550.7,478.6v20.6h-13.4v-20.6H550.7z"/>
			</g>
		</g>
	</g>
	<g>
		<path fill="#1E7A85" d="M590.3,506h-34.2v-34.2h34.2V506z M557.6,504.4h31.1v-31.1h-31.1V504.4z"/>
	</g>
	<g>
		<g>
			<g>
				<path fill="#1E7A85" d="M531.9,571.5h21.5v-25.8h-21.5V571.5z M550.7,548.3v20.6h-13.4v-20.6H550.7z"/>
			</g>
		</g>
	</g>
	<g>
		<rect x="556.8" y="542.3" fill="#FFFFFF" width="32.7" height="32.7"/>
		<path fill="#1E7A85" d="M590.3,575.7h-34.2v-34.2h34.2V575.7z M557.6,574.2h31.1v-31.1h-31.1V574.2z"/>
	</g>
	<g>
		<g>
			<g>
				<path fill="#1E7A85" d="M531.9,641.3h21.5v-25.8h-21.5V641.3z M550.7,618.1v20.6h-13.4v-20.6H550.7z"/>
			</g>
		</g>
	</g>
	<g>
		<path fill="#1E7A85" d="M590.3,645.5h-34.2v-34.2h34.2V645.5z M557.6,643.9h31.1v-31.1h-31.1V643.9z"/>
	</g>
	<g>
		<g>
			<g>
				<path fill="#1E7A85" d="M375.4,711.6h21.5v-25.8h-21.5V711.6z M394.2,688.4V709h-13.4v-20.6H394.2z"/>
			</g>
		</g>
	</g>
	<g>
		<path fill="#1E7A85" d="M433.8,715.8h-34.2v-34.2h34.2V715.8z M401.1,714.3h31.1v-31.1h-31.1V714.3z"/>
	</g>
	<g>
		<g>
			<g>
				<path fill="#1E7A85" d="M375.4,781.4h21.5v-25.8h-21.5V781.4z M394.2,758.2v20.6h-13.4v-20.6H394.2z"/>
			</g>
		</g>
	</g>
	<g>
		<path fill="#1E7A85" d="M433.8,785.6h-34.2v-34.2h34.2V785.6z M401.1,784h31.1v-31.1h-31.1V784z"/>
	</g>
	<g>
		<g>
			<g>
				<path fill="#1E7A85" d="M375.4,851.1h21.5v-25.8h-21.5V851.1z M394.2,827.9v20.6h-13.4v-20.6H394.2z"/>
			</g>
		</g>
	</g>
	<g>
		<path fill="#1E7A85" d="M433.8,855.3h-34.2v-34.2h34.2V855.3z M401.1,853.8h31.1v-31.1h-31.1V853.8z"/>
	</g>
	<g>
		<g>
			<g>
				<path fill="#1E7A85" d="M453.7,711.6h21.5v-25.8h-21.5V711.6z M472.5,688.4V709H459v-20.6H472.5z"/>
			</g>
		</g>
	</g>
	<g>
		<path fill="#1E7A85" d="M512,715.8h-34.2v-34.2H512V715.8z M479.4,714.3h31.1v-31.1h-31.1V714.3z"/>
	</g>
	<g>
		<g>
			<g>
				<path fill="#1E7A85" d="M453.7,781.4h21.5v-25.8h-21.5V781.4z M472.5,758.2v20.6H459v-20.6H472.5z"/>
			</g>
		</g>
	</g>
	<g>
		<path fill="#1E7A85" d="M512,785.6h-34.2v-34.2H512V785.6z M479.4,784h31.1v-31.1h-31.1V784z"/>
	</g>
	<g>
		<g>
			<g>
				<path fill="#1E7A85" d="M453.7,851.1h21.5v-25.8h-21.5V851.1z M472.5,827.9v20.6H459v-20.6H472.5z"/>
			</g>
		</g>
	</g>
	<g>
		<path fill="#1E7A85" d="M512,855.3h-34.2v-34.2H512V855.3z M479.4,853.8h31.1v-31.1h-31.1V853.8z"/>
	</g>
	<g>
		<g>
			<g>
				<path fill="#1E7A85" d="M531.9,711.6h21.5v-25.8h-21.5V711.6z M550.7,688.4V709h-13.4v-20.6H550.7z"/>
			</g>
		</g>
	</g>
	<g>
		<path fill="#1E7A85" d="M590.3,715.8h-34.2v-34.2h34.2V715.8z M557.6,714.3h31.1v-31.1h-31.1V714.3z"/>
	</g>
	<g>
		<g>
			<g>
				<path fill="#1E7A85" d="M531.9,781.4h21.5v-25.8h-21.5V781.4z M550.7,758.2v20.6h-13.4v-20.6H550.7z"/>
			</g>
		</g>
	</g>
	<g>
		<path fill="#1E7A85" d="M590.3,785.6h-34.2v-34.2h34.2V785.6z M557.6,784h31.1v-31.1h-31.1V784z"/>
	</g>
	<g>
		<g>
			<g>
				<path fill="#1E7A85" d="M531.9,851.1h21.5v-25.8h-21.5V851.1z M550.7,827.9v20.6h-13.4v-20.6H550.7z"/>
			</g>
		</g>
	</g>
	<g>
		<path fill="#1E7A85" d="M590.3,855.3h-34.2v-34.2h34.2V855.3z M557.6,853.8h31.1v-31.1h-31.1V853.8z"/>
	</g>
	<g>
		<g>
			<g>
				<path fill="#1E7A85" d="M844.5,711.6H866v-25.8h-21.5V711.6z M863.3,688.4V709h-13.4v-20.6H863.3z"/>
			</g>
		</g>
	</g>
	<g>
		<path fill="#1E7A85" d="M902.8,715.8h-34.2v-34.2h34.2V715.8z M870.2,714.3h31.1v-31.1h-31.1V714.3z"/>
	</g>
	<g>
		<g>
			<g>
				<path fill="#1E7A85" d="M844.5,781.4H866v-25.8h-21.5V781.4z M863.3,758.2v20.6h-13.4v-20.6H863.3z"/>
			</g>
		</g>
	</g>
	<g>
		<path fill="#1E7A85" d="M902.8,785.6h-34.2v-34.2h34.2V785.6z M870.2,784h31.1v-31.1h-31.1V784z"/>
	</g>
	<g>
		<g>
			<g>
				<path fill="#1E7A85" d="M844.5,851.1H866v-25.8h-21.5V851.1z M863.3,827.9v20.6h-13.4v-20.6H863.3z"/>
			</g>
		</g>
	</g>
	<g>
		<path fill="#1E7A85" d="M902.8,855.3h-34.2v-34.2h34.2V855.3z M870.2,853.8h31.1v-31.1h-31.1V853.8z"/>
	</g>
</g>
</svg>
