<?xml version="1.0" encoding="utf-8"?>
<!-- Generator: Adobe Illustrator 18.1.1, SVG Export Plug-In . SVG Version: 6.00 Build 0)  -->
<!DOCTYPE svg PUBLIC "-//W3C//DTD SVG 1.1//EN" "http://www.w3.org/Graphics/SVG/1.1/DTD/svg11.dtd">
<svg version="1.1" id="Layer_1" xmlns="http://www.w3.org/2000/svg" xmlns:xlink="http://www.w3.org/1999/xlink" x="0px" y="0px"
	 viewBox="0 0 881 600" enable-background="new 0 0 881 600" xml:space="preserve">
<rect fill="none" width="881" height="600"/>
<g>
	<g>
		<path fill="#1E7A85" d="M420.2,162.5h11.9v-14.3h-11.9V162.5z M430.6,149.6v11.4h-7.5v-11.4H430.6z"/>
	</g>
</g>
<rect x="434" y="146.3" fill="none" stroke="#1E7A85" stroke-width="0.8571" stroke-miterlimit="10" width="18.1" height="18.1"/>
<g>
	<g>
		<path fill="#1E7A85" d="M420.2,201.7h11.9v-14.3h-11.9V201.7z M430.6,188.8v11.5h-7.5v-11.5H430.6z"/>
	</g>
</g>
<rect x="434" y="185.4" fill="none" stroke="#1E7A85" stroke-width="0.8571" stroke-miterlimit="10" width="18.1" height="18.1"/>
<g>
	<g>
		<path fill="#1E7A85" d="M420.2,240h11.9v-14.3h-11.9V240z M430.6,227.1v11.4h-7.5v-11.4H430.6z"/>
	</g>
</g>
<rect x="434" y="223.8" fill="none" stroke="#1E7A85" stroke-width="0.8571" stroke-miterlimit="10" width="18.1" height="18.1"/>
<g>
	<g>
		<path fill="#1E7A85" d="M420.2,278.8h11.9v-14.3h-11.9V278.8z M430.6,265.9v11.4h-7.5v-11.4H430.6z"/>
	</g>
</g>
<rect x="434" y="262.5" fill="none" stroke="#1E7A85" stroke-width="0.8571" stroke-miterlimit="10" width="18.1" height="18.1"/>
<g>
	<g>
		<path fill="#1E7A85" d="M420.2,317.5h11.9v-14.3h-11.9V317.5z M430.6,304.6v11.4h-7.5v-11.4H430.6z"/>
	</g>
</g>
<rect x="434" y="301.3" fill="none" stroke="#1E7A85" stroke-width="0.8571" stroke-miterlimit="10" width="18.1" height="18.1"/>
<g>
	<g>
		<path fill="#1E7A85" d="M420.2,356.3h11.9v-14.3h-11.9V356.3z M430.6,343.4v11.5h-7.5v-11.5H430.6z"/>
	</g>
</g>
<rect x="434" y="340" fill="none" stroke="#1E7A85" stroke-width="0.8571" stroke-miterlimit="10" width="18.1" height="18.1"/>
<g>
	<g>
		<path fill="#1E7A85" d="M463.6,162.5h11.9v-14.3h-11.9V162.5z M474.1,149.6v11.4h-7.5v-11.4H474.1z"/>
	</g>
</g>
<rect x="477.5" y="146.3" fill="none" stroke="#1E7A85" stroke-width="0.8571" stroke-miterlimit="10" width="18.1" height="18.1"/>
<g>
	<g>
		<path fill="#1E7A85" d="M463.6,201.7h11.9v-14.3h-11.9V201.7z M474.1,188.8v11.5h-7.5v-11.5H474.1z"/>
	</g>
</g>
<rect x="477.5" y="185.4" fill="none" stroke="#1E7A85" stroke-width="0.8571" stroke-miterlimit="10" width="18.1" height="18.1"/>
<g>
	<g>
		<path fill="#1E7A85" d="M463.6,240h11.9v-14.3h-11.9V240z M474.1,227.1v11.4h-7.5v-11.4H474.1z"/>
	</g>
</g>
<rect x="477.5" y="223.8" fill="none" stroke="#1E7A85" stroke-width="0.8571" stroke-miterlimit="10" width="18.1" height="18.1"/>
<g>
	<g>
		<path fill="#1E7A85" d="M463.6,278.8h11.9v-14.3h-11.9V278.8z M474.1,265.9v11.4h-7.5v-11.4H474.1z"/>
	</g>
</g>
<rect x="477.5" y="262.5" fill="none" stroke="#1E7A85" stroke-width="0.8571" stroke-miterlimit="10" width="18.1" height="18.1"/>
<g>
	<g>
		<path fill="#1E7A85" d="M463.6,317.5h11.9v-14.3h-11.9V317.5z M474.1,304.6v11.4h-7.5v-11.4H474.1z"/>
	</g>
</g>
<rect x="477.5" y="301.3" fill="none" stroke="#1E7A85" stroke-width="0.8571" stroke-miterlimit="10" width="18.1" height="18.1"/>
<g>
	<g>
		<path fill="#1E7A85" d="M463.6,356.3h11.9v-14.3h-11.9V356.3z M474.1,343.4v11.5h-7.5v-11.5H474.1z"/>
	</g>
</g>
<rect x="477.5" y="340" fill="none" stroke="#1E7A85" stroke-width="0.8571" stroke-miterlimit="10" width="18.1" height="18.1"/>
<g>
	<g>
		<path fill="#1E7A85" d="M507.1,162.5H519v-14.3h-11.9V162.5z M517.5,149.6v11.4h-7.5v-11.4H517.5z"/>
	</g>
</g>
<rect x="520.9" y="146.3" fill="none" stroke="#1E7A85" stroke-width="0.8571" stroke-miterlimit="10" width="18.1" height="18.1"/>
<g>
	<g>
		<path fill="#1E7A85" d="M507.1,201.7H519v-14.3h-11.9V201.7z M517.5,188.8v11.5h-7.5v-11.5H517.5z"/>
	</g>
</g>
<rect x="520.9" y="185.4" fill="none" stroke="#1E7A85" stroke-width="0.8571" stroke-miterlimit="10" width="18.1" height="18.1"/>
<g>
	<g>
		<path fill="#1E7A85" d="M507.1,240H519v-14.3h-11.9V240z M517.5,227.1v11.4h-7.5v-11.4H517.5z"/>
	</g>
</g>
<rect x="520.9" y="223.8" fill="none" stroke="#1E7A85" stroke-width="0.8571" stroke-miterlimit="10" width="18.1" height="18.1"/>
<g>
	<g>
		<path fill="#1E7A85" d="M507.1,278.8H519v-14.3h-11.9V278.8z M517.5,265.9v11.4h-7.5v-11.4H517.5z"/>
	</g>
</g>
<rect x="520.9" y="262.5" fill="none" stroke="#1E7A85" stroke-width="0.8571" stroke-miterlimit="10" width="18.1" height="18.1"/>
<g>
	<g>
		<path fill="#1E7A85" d="M507.1,317.5H519v-14.3h-11.9V317.5z M517.5,304.6v11.4h-7.5v-11.4H517.5z"/>
	</g>
</g>
<rect x="520.9" y="301.3" fill="none" stroke="#1E7A85" stroke-width="0.8571" stroke-miterlimit="10" width="18.1" height="18.1"/>
<g>
	<g>
		<path fill="#1E7A85" d="M507.1,356.3H519v-14.3h-11.9V356.3z M517.5,343.4v11.5h-7.5v-11.5H517.5z"/>
	</g>
</g>
<rect x="520.9" y="340" fill="none" stroke="#1E7A85" stroke-width="0.8571" stroke-miterlimit="10" width="18.1" height="18.1"/>
<g>
	<g>
		<path fill="#1E7A85" d="M550.6,162.5h11.9v-14.3h-11.9V162.5z M561,149.6v11.4h-7.5v-11.4H561z"/>
	</g>
</g>
<rect x="564.4" y="146.3" fill="none" stroke="#1E7A85" stroke-width="0.8571" stroke-miterlimit="10" width="18.1" height="18.1"/>
<g>
	<g>
		<path fill="#1E7A85" d="M550.6,201.7h11.9v-14.3h-11.9V201.7z M561,188.8v11.5h-7.5v-11.5H561z"/>
	</g>
</g>
<rect x="564.4" y="185.4" fill="none" stroke="#1E7A85" stroke-width="0.8571" stroke-miterlimit="10" width="18.1" height="18.1"/>
<g>
	<g>
		<path fill="#1E7A85" d="M550.6,240h11.9v-14.3h-11.9V240z M561,227.1v11.4h-7.5v-11.4H561z"/>
	</g>
</g>
<rect x="564.4" y="223.8" fill="none" stroke="#1E7A85" stroke-width="0.8571" stroke-miterlimit="10" width="18.1" height="18.1"/>
<g>
	<g>
		<path fill="#1E7A85" d="M550.6,278.8h11.9v-14.3h-11.9V278.8z M561,265.9v11.4h-7.5v-11.4H561z"/>
	</g>
</g>
<rect x="564.4" y="262.5" fill="none" stroke="#1E7A85" stroke-width="0.8571" stroke-miterlimit="10" width="18.1" height="18.1"/>
<rect x="654.1" y="253.8" fill="none" stroke="#1E7A85" stroke-width="0.8571" stroke-miterlimit="10" width="28.8" height="66.7"/>
<rect x="654.1" y="328.8" fill="none" stroke="#1E7A85" stroke-width="0.8571" stroke-miterlimit="10" width="28.8" height="66.7"/>
<g>
	<g>
		<path fill="#1E7A85" d="M550.6,317.5h11.9v-14.3h-11.9V317.5z M561,304.6v11.4h-7.5v-11.4H561z"/>
	</g>
</g>
<rect x="564.4" y="301.3" fill="none" stroke="#1E7A85" stroke-width="0.8571" stroke-miterlimit="10" width="18.1" height="18.1"/>
<g>
	<g>
		<path fill="#1E7A85" d="M550.6,356.3h11.9v-14.3h-11.9V356.3z M561,343.4v11.5h-7.5v-11.5H561z"/>
	</g>
</g>
<rect x="564.4" y="340" fill="none" stroke="#1E7A85" stroke-width="0.8571" stroke-miterlimit="10" width="18.1" height="18.1"/>
<g>
	<g>
		<path fill="#1E7A85" d="M420.2,395.3h11.9V381h-11.9V395.3z M430.6,382.4v11.4h-7.5v-11.4H430.6z"/>
	</g>
</g>
<rect x="434" y="379.1" fill="none" stroke="#1E7A85" stroke-width="0.8571" stroke-miterlimit="10" width="18.1" height="18.1"/>
<g>
	<g>
		<path fill="#1E7A85" d="M420.2,434.1h11.9v-14.3h-11.9V434.1z M430.6,421.2v11.4h-7.5v-11.4H430.6z"/>
	</g>
</g>
<rect x="434" y="417.8" fill="none" stroke="#1E7A85" stroke-width="0.8571" stroke-miterlimit="10" width="18.1" height="18.1"/>
<g>
	<g>
		<path fill="#1E7A85" d="M420.2,472.8h11.9v-14.3h-11.9V472.8z M430.6,459.9v11.4h-7.5v-11.4H430.6z"/>
	</g>
</g>
<rect x="434" y="456.6" fill="none" stroke="#1E7A85" stroke-width="0.8571" stroke-miterlimit="10" width="18.1" height="18.1"/>
<g>
	<g>
		<path fill="#1E7A85" d="M463.6,395.3h11.9V381h-11.9V395.3z M474.1,382.4v11.4h-7.5v-11.4H474.1z"/>
	</g>
</g>
<rect x="477.5" y="379.1" fill="none" stroke="#1E7A85" stroke-width="0.8571" stroke-miterlimit="10" width="18.1" height="18.1"/>
<g>
	<g>
		<path fill="#1E7A85" d="M463.6,434.1h11.9v-14.3h-11.9V434.1z M474.1,421.2v11.4h-7.5v-11.4H474.1z"/>
	</g>
</g>
<rect x="477.5" y="417.8" fill="none" stroke="#1E7A85" stroke-width="0.8571" stroke-miterlimit="10" width="18.1" height="18.1"/>
<g>
	<g>
		<path fill="#1E7A85" d="M463.6,472.8h11.9v-14.3h-11.9V472.8z M474.1,459.9v11.4h-7.5v-11.4H474.1z"/>
	</g>
</g>
<rect x="477.5" y="456.6" fill="none" stroke="#1E7A85" stroke-width="0.8571" stroke-miterlimit="10" width="18.1" height="18.1"/>
<g>
	<g>
		<path fill="#1E7A85" d="M507.1,395.3H519V381h-11.9V395.3z M517.5,382.4v11.4h-7.5v-11.4H517.5z"/>
	</g>
</g>
<rect x="520.9" y="379.1" fill="none" stroke="#1E7A85" stroke-width="0.8571" stroke-miterlimit="10" width="18.1" height="18.1"/>
<g>
	<g>
		<path fill="#1E7A85" d="M507.1,434.1H519v-14.3h-11.9V434.1z M517.5,421.2v11.4h-7.5v-11.4H517.5z"/>
	</g>
</g>
<rect x="520.9" y="417.8" fill="none" stroke="#1E7A85" stroke-width="0.8571" stroke-miterlimit="10" width="18.1" height="18.1"/>
<g>
	<g>
		<path fill="#1E7A85" d="M507.1,472.8H519v-14.3h-11.9V472.8z M517.5,459.9v11.4h-7.5v-11.4H517.5z"/>
	</g>
</g>
<rect x="520.9" y="456.6" fill="none" stroke="#1E7A85" stroke-width="0.8571" stroke-miterlimit="10" width="18.1" height="18.1"/>
<g>
	<g>
		<path fill="#1E7A85" d="M550.6,395.3h11.9V381h-11.9V395.3z M561,382.4v11.4h-7.5v-11.4H561z"/>
	</g>
</g>
<rect x="564.4" y="379.1" fill="none" stroke="#1E7A85" stroke-width="0.8571" stroke-miterlimit="10" width="18.1" height="18.1"/>
<g>
	<g>
		<path fill="#1E7A85" d="M550.6,434.1h11.9v-14.3h-11.9V434.1z M561,421.2v11.4h-7.5v-11.4H561z"/>
	</g>
</g>
<rect x="564.4" y="417.8" fill="none" stroke="#1E7A85" stroke-width="0.8571" stroke-miterlimit="10" width="18.1" height="18.1"/>
<g>
	<g>
		<path fill="#1E7A85" d="M550.6,472.8h11.9v-14.3h-11.9V472.8z M561,459.9v11.4h-7.5v-11.4H561z"/>
	</g>
</g>
<rect x="564.4" y="456.6" fill="none" stroke="#1E7A85" stroke-width="0.8571" stroke-miterlimit="10" width="18.1" height="18.1"/>
<g>
	<g>
		<path fill="#1E7A85" d="M246.2,162.5h11.9v-14.3h-11.9V162.5z M256.6,149.6v11.4h-7.5v-11.4H256.6z"/>
	</g>
</g>
<rect x="260" y="146.3" fill="none" stroke="#1E7A85" stroke-width="0.8571" stroke-miterlimit="10" width="18.1" height="18.1"/>
<g>
	<g>
		<path fill="#1E7A85" d="M246.2,201.7h11.9v-14.3h-11.9V201.7z M256.6,188.8v11.5h-7.5v-11.5H256.6z"/>
	</g>
</g>
<rect x="260" y="185.4" fill="none" stroke="#1E7A85" stroke-width="0.8571" stroke-miterlimit="10" width="18.1" height="18.1"/>
<g>
	<g>
		<path fill="#1E7A85" d="M246.2,240h11.9v-14.3h-11.9V240z M256.6,227.1v11.4h-7.5v-11.4H256.6z"/>
	</g>
</g>
<rect x="260" y="223.8" fill="none" stroke="#1E7A85" stroke-width="0.8571" stroke-miterlimit="10" width="18.1" height="18.1"/>
<g>
	<g>
		<path fill="#1E7A85" d="M246.2,278.8h11.9v-14.3h-11.9V278.8z M256.6,265.9v11.4h-7.5v-11.4H256.6z"/>
	</g>
</g>
<rect x="260" y="262.5" fill="none" stroke="#1E7A85" stroke-width="0.8571" stroke-miterlimit="10" width="18.1" height="18.1"/>
<g>
	<g>
		<path fill="#1E7A85" d="M246.2,317.5h11.9v-14.3h-11.9V317.5z M256.6,304.6v11.4h-7.5v-11.4H256.6z"/>
	</g>
</g>
<rect x="260" y="301.3" fill="none" stroke="#1E7A85" stroke-width="0.8571" stroke-miterlimit="10" width="18.1" height="18.1"/>
<g>
	<g>
		<path fill="#1E7A85" d="M246.2,356.3h11.9v-14.3h-11.9V356.3z M256.6,343.4v11.5h-7.5v-11.5H256.6z"/>
	</g>
</g>
<rect x="260" y="340" fill="none" stroke="#1E7A85" stroke-width="0.8571" stroke-miterlimit="10" width="18.1" height="18.1"/>
<g>
	<g>
		<path fill="#1E7A85" d="M289.7,162.5h11.9v-14.3h-11.9V162.5z M300.1,149.6v11.4h-7.5v-11.4H300.1z"/>
	</g>
</g>
<rect x="303.5" y="146.3" fill="none" stroke="#1E7A85" stroke-width="0.8571" stroke-miterlimit="10" width="18.1" height="18.1"/>
<g>
	<g>
		<path fill="#1E7A85" d="M289.7,201.7h11.9v-14.3h-11.9V201.7z M300.1,188.8v11.5h-7.5v-11.5H300.1z"/>
	</g>
</g>
<rect x="303.5" y="185.4" fill="none" stroke="#1E7A85" stroke-width="0.8571" stroke-miterlimit="10" width="18.1" height="18.1"/>
<g>
	<g>
		<path fill="#1E7A85" d="M289.7,240h11.9v-14.3h-11.9V240z M300.1,227.1v11.4h-7.5v-11.4H300.1z"/>
	</g>
</g>
<rect x="303.5" y="223.8" fill="none" stroke="#1E7A85" stroke-width="0.8571" stroke-miterlimit="10" width="18.1" height="18.1"/>
<g>
	<g>
		<path fill="#1E7A85" d="M289.7,278.8h11.9v-14.3h-11.9V278.8z M300.1,265.9v11.4h-7.5v-11.4H300.1z"/>
	</g>
</g>
<rect x="303.5" y="262.5" fill="none" stroke="#1E7A85" stroke-width="0.8571" stroke-miterlimit="10" width="18.1" height="18.1"/>
<g>
	<g>
		<path fill="#1E7A85" d="M289.7,317.5h11.9v-14.3h-11.9V317.5z M300.1,304.6v11.4h-7.5v-11.4H300.1z"/>
	</g>
</g>
<rect x="303.5" y="301.3" fill="none" stroke="#1E7A85" stroke-width="0.8571" stroke-miterlimit="10" width="18.1" height="18.1"/>
<g>
	<g>
		<path fill="#1E7A85" d="M289.7,356.3h11.9v-14.3h-11.9V356.3z M300.1,343.4v11.5h-7.5v-11.5H300.1z"/>
	</g>
</g>
<rect x="303.5" y="340" fill="none" stroke="#1E7A85" stroke-width="0.8571" stroke-miterlimit="10" width="18.1" height="18.1"/>
<g>
	<g>
		<path fill="#1E7A85" d="M333.1,162.5h11.9v-14.3h-11.9V162.5z M343.6,149.6v11.4h-7.5v-11.4H343.6z"/>
	</g>
</g>
<rect x="347" y="146.3" fill="none" stroke="#1E7A85" stroke-width="0.8571" stroke-miterlimit="10" width="18.1" height="18.1"/>
<g>
	<g>
		<path fill="#1E7A85" d="M333.1,201.7h11.9v-14.3h-11.9V201.7z M343.6,188.8v11.5h-7.5v-11.5H343.6z"/>
	</g>
</g>
<rect x="347" y="185.4" fill="none" stroke="#1E7A85" stroke-width="0.8571" stroke-miterlimit="10" width="18.1" height="18.1"/>
<g>
	<g>
		<path fill="#1E7A85" d="M333.1,240h11.9v-14.3h-11.9V240z M343.6,227.1v11.4h-7.5v-11.4H343.6z"/>
	</g>
</g>
<rect x="347" y="223.8" fill="none" stroke="#1E7A85" stroke-width="0.8571" stroke-miterlimit="10" width="18.1" height="18.1"/>
<g>
	<g>
		<path fill="#1E7A85" d="M333.1,278.8h11.9v-14.3h-11.9V278.8z M343.6,265.9v11.4h-7.5v-11.4H343.6z"/>
	</g>
</g>
<rect x="347" y="262.5" fill="none" stroke="#1E7A85" stroke-width="0.8571" stroke-miterlimit="10" width="18.1" height="18.1"/>
<g>
	<g>
		<path fill="#1E7A85" d="M333.1,317.5h11.9v-14.3h-11.9V317.5z M343.6,304.6v11.4h-7.5v-11.4H343.6z"/>
	</g>
</g>
<rect x="347" y="301.3" fill="none" stroke="#1E7A85" stroke-width="0.8571" stroke-miterlimit="10" width="18.1" height="18.1"/>
<g>
	<g>
		<path fill="#1E7A85" d="M333.1,356.3h11.9v-14.3h-11.9V356.3z M343.6,343.4v11.5h-7.5v-11.5H343.6z"/>
	</g>
</g>
<rect x="347" y="340" fill="none" stroke="#1E7A85" stroke-width="0.8571" stroke-miterlimit="10" width="18.1" height="18.1"/>
<g>
	<g>
		<path fill="#1E7A85" d="M376.6,162.5h11.9v-14.3h-11.9V162.5z M387,149.6v11.4h-7.5v-11.4H387z"/>
	</g>
</g>
<rect x="390.4" y="146.3" fill="none" stroke="#1E7A85" stroke-width="0.8571" stroke-miterlimit="10" width="18.1" height="18.1"/>
<g>
	<g>
		<path fill="#1E7A85" d="M376.6,201.7h11.9v-14.3h-11.9V201.7z M387,188.8v11.5h-7.5v-11.5H387z"/>
	</g>
</g>
<rect x="390.4" y="185.4" fill="none" stroke="#1E7A85" stroke-width="0.8571" stroke-miterlimit="10" width="18.1" height="18.1"/>
<g>
	<g>
		<path fill="#1E7A85" d="M376.6,240h11.9v-14.3h-11.9V240z M387,227.1v11.4h-7.5v-11.4H387z"/>
	</g>
</g>
<rect x="390.4" y="223.8" fill="none" stroke="#1E7A85" stroke-width="0.8571" stroke-miterlimit="10" width="18.1" height="18.1"/>
<g>
	<g>
		<path fill="#1E7A85" d="M376.6,278.8h11.9v-14.3h-11.9V278.8z M387,265.9v11.4h-7.5v-11.4H387z"/>
	</g>
</g>
<rect x="390.4" y="262.5" fill="none" stroke="#1E7A85" stroke-width="0.8571" stroke-miterlimit="10" width="18.1" height="18.1"/>
<g>
	<g>
		<path fill="#1E7A85" d="M376.6,317.5h11.9v-14.3h-11.9V317.5z M387,304.6v11.4h-7.5v-11.4H387z"/>
	</g>
</g>
<rect x="390.4" y="301.3" fill="none" stroke="#1E7A85" stroke-width="0.8571" stroke-miterlimit="10" width="18.1" height="18.1"/>
<g>
	<g>
		<path fill="#1E7A85" d="M376.6,356.3h11.9v-14.3h-11.9V356.3z M387,343.4v11.5h-7.5v-11.5H387z"/>
	</g>
</g>
<rect x="390.4" y="340" fill="none" stroke="#1E7A85" stroke-width="0.8571" stroke-miterlimit="10" width="18.1" height="18.1"/>
<g>
	<g>
		<path fill="#1E7A85" d="M246.2,395.3h11.9V381h-11.9V395.3z M256.6,382.4v11.4h-7.5v-11.4H256.6z"/>
	</g>
</g>
<rect x="260" y="379.1" fill="none" stroke="#1E7A85" stroke-width="0.8571" stroke-miterlimit="10" width="18.1" height="18.1"/>
<g>
	<g>
		<path fill="#1E7A85" d="M246.2,434.1h11.9v-14.3h-11.9V434.1z M256.6,421.2v11.4h-7.5v-11.4H256.6z"/>
	</g>
</g>
<rect x="260" y="417.8" fill="none" stroke="#1E7A85" stroke-width="0.8571" stroke-miterlimit="10" width="18.1" height="18.1"/>
<g>
	<g>
		<path fill="#1E7A85" d="M246.2,472.8h11.9v-14.3h-11.9V472.8z M256.6,459.9v11.4h-7.5v-11.4H256.6z"/>
	</g>
</g>
<rect x="260" y="456.6" fill="none" stroke="#1E7A85" stroke-width="0.8571" stroke-miterlimit="10" width="18.1" height="18.1"/>
<g>
	<g>
		<path fill="#1E7A85" d="M289.7,395.3h11.9V381h-11.9V395.3z M300.1,382.4v11.4h-7.5v-11.4H300.1z"/>
	</g>
</g>
<rect x="303.5" y="379.1" fill="none" stroke="#1E7A85" stroke-width="0.8571" stroke-miterlimit="10" width="18.1" height="18.1"/>
<g>
	<g>
		<path fill="#1E7A85" d="M289.7,434.1h11.9v-14.3h-11.9V434.1z M300.1,421.2v11.4h-7.5v-11.4H300.1z"/>
	</g>
</g>
<rect x="303.5" y="417.8" fill="none" stroke="#1E7A85" stroke-width="0.8571" stroke-miterlimit="10" width="18.1" height="18.1"/>
<g>
	<g>
		<path fill="#1E7A85" d="M289.7,472.8h11.9v-14.3h-11.9V472.8z M300.1,459.9v11.4h-7.5v-11.4H300.1z"/>
	</g>
</g>
<rect x="303.5" y="456.6" fill="none" stroke="#1E7A85" stroke-width="0.8571" stroke-miterlimit="10" width="18.1" height="18.1"/>
<g>
	<g>
		<path fill="#1E7A85" d="M333.1,395.3h11.9V381h-11.9V395.3z M343.6,382.4v11.4h-7.5v-11.4H343.6z"/>
	</g>
</g>
<rect x="347" y="379.1" fill="none" stroke="#1E7A85" stroke-width="0.8571" stroke-miterlimit="10" width="18.1" height="18.1"/>
<g>
	<g>
		<path fill="#1E7A85" d="M333.1,434.1h11.9v-14.3h-11.9V434.1z M343.6,421.2v11.4h-7.5v-11.4H343.6z"/>
	</g>
</g>
<rect x="347" y="417.8" fill="none" stroke="#1E7A85" stroke-width="0.8571" stroke-miterlimit="10" width="18.1" height="18.1"/>
<g>
	<g>
		<path fill="#1E7A85" d="M333.1,472.8h11.9v-14.3h-11.9V472.8z M343.6,459.9v11.4h-7.5v-11.4H343.6z"/>
	</g>
</g>
<rect x="347" y="456.6" fill="none" stroke="#1E7A85" stroke-width="0.8571" stroke-miterlimit="10" width="18.1" height="18.1"/>
<g>
	<g>
		<path fill="#1E7A85" d="M116,162.5H128v-14.3H116V162.5z M126.5,149.6v11.4H119v-11.4H126.5z"/>
	</g>
</g>
<rect x="129.9" y="146.3" fill="none" stroke="#1E7A85" stroke-width="0.8571" stroke-miterlimit="10" width="18.1" height="18.1"/>
<g>
	<g>
		<path fill="#1E7A85" d="M116,201.7H128v-14.3H116V201.7z M126.5,188.8v11.5H119v-11.5H126.5z"/>
	</g>
</g>
<rect x="129.9" y="185.4" fill="none" stroke="#1E7A85" stroke-width="0.8571" stroke-miterlimit="10" width="18.1" height="18.1"/>
<g>
	<g>
		<path fill="#1E7A85" d="M116,240H128v-14.3H116V240z M126.5,227.1v11.4H119v-11.4H126.5z"/>
	</g>
</g>
<rect x="129.9" y="223.8" fill="none" stroke="#1E7A85" stroke-width="0.8571" stroke-miterlimit="10" width="18.1" height="18.1"/>
<g>
	<g>
		<path fill="#1E7A85" d="M116,278.8H128v-14.3H116V278.8z M126.5,265.9v11.4H119v-11.4H126.5z"/>
	</g>
</g>
<rect x="129.9" y="262.5" fill="none" stroke="#1E7A85" stroke-width="0.8571" stroke-miterlimit="10" width="18.1" height="18.1"/>
<g>
	<g>
		<path fill="#1E7A85" d="M116,317.5H128v-14.3H116V317.5z M126.5,304.6v11.4H119v-11.4H126.5z"/>
	</g>
</g>
<rect x="129.9" y="301.3" fill="none" stroke="#1E7A85" stroke-width="0.8571" stroke-miterlimit="10" width="18.1" height="18.1"/>
<g>
	<g>
		<path fill="#1E7A85" d="M116,356.3H128v-14.3H116V356.3z M126.5,343.4v11.5H119v-11.5H126.5z"/>
	</g>
</g>
<rect x="129.9" y="340" fill="none" stroke="#1E7A85" stroke-width="0.8571" stroke-miterlimit="10" width="18.1" height="18.1"/>
<g>
	<g>
		<path fill="#1E7A85" d="M159.5,162.5h11.9v-14.3h-11.9V162.5z M169.9,149.6v11.4h-7.5v-11.4H169.9z"/>
	</g>
</g>
<rect x="173.3" y="146.3" fill="none" stroke="#1E7A85" stroke-width="0.8571" stroke-miterlimit="10" width="18.1" height="18.1"/>
<g>
	<g>
		<path fill="#1E7A85" d="M159.5,201.7h11.9v-14.3h-11.9V201.7z M169.9,188.8v11.5h-7.5v-11.5H169.9z"/>
	</g>
</g>
<rect x="173.3" y="185.4" fill="none" stroke="#1E7A85" stroke-width="0.8571" stroke-miterlimit="10" width="18.1" height="18.1"/>
<g>
	<g>
		<path fill="#1E7A85" d="M159.5,240h11.9v-14.3h-11.9V240z M169.9,227.1v11.4h-7.5v-11.4H169.9z"/>
	</g>
</g>
<rect x="173.3" y="223.8" fill="none" stroke="#1E7A85" stroke-width="0.8571" stroke-miterlimit="10" width="18.1" height="18.1"/>
<g>
	<g>
		<path fill="#1E7A85" d="M159.5,278.8h11.9v-14.3h-11.9V278.8z M169.9,265.9v11.4h-7.5v-11.4H169.9z"/>
	</g>
</g>
<rect x="173.3" y="262.5" fill="none" stroke="#1E7A85" stroke-width="0.8571" stroke-miterlimit="10" width="18.1" height="18.1"/>
<g>
	<g>
		<path fill="#1E7A85" d="M159.5,317.5h11.9v-14.3h-11.9V317.5z M169.9,304.6v11.4h-7.5v-11.4H169.9z"/>
	</g>
</g>
<rect x="173.3" y="301.3" fill="none" stroke="#1E7A85" stroke-width="0.8571" stroke-miterlimit="10" width="18.1" height="18.1"/>
<g>
	<g>
		<path fill="#1E7A85" d="M159.5,356.3h11.9v-14.3h-11.9V356.3z M169.9,343.4v11.5h-7.5v-11.5H169.9z"/>
	</g>
</g>
<rect x="173.3" y="340" fill="none" stroke="#1E7A85" stroke-width="0.8571" stroke-miterlimit="10" width="18.1" height="18.1"/>
<g>
	<g>
		<path fill="#1E7A85" d="M203,162.5h11.9v-14.3H203V162.5z M213.4,149.6v11.4h-7.5v-11.4H213.4z"/>
	</g>
</g>
<rect x="216.8" y="146.3" fill="none" stroke="#1E7A85" stroke-width="0.8571" stroke-miterlimit="10" width="18.1" height="18.1"/>
<g>
	<g>
		<path fill="#1E7A85" d="M203,201.7h11.9v-14.3H203V201.7z M213.4,188.8v11.5h-7.5v-11.5H213.4z"/>
	</g>
</g>
<rect x="216.8" y="185.4" fill="none" stroke="#1E7A85" stroke-width="0.8571" stroke-miterlimit="10" width="18.1" height="18.1"/>
<g>
	<g>
		<path fill="#1E7A85" d="M203,240h11.9v-14.3H203V240z M213.4,227.1v11.4h-7.5v-11.4H213.4z"/>
	</g>
</g>
<rect x="216.8" y="223.8" fill="none" stroke="#1E7A85" stroke-width="0.8571" stroke-miterlimit="10" width="18.1" height="18.1"/>
<g>
	<g>
		<path fill="#1E7A85" d="M203,278.8h11.9v-14.3H203V278.8z M213.4,265.9v11.4h-7.5v-11.4H213.4z"/>
	</g>
</g>
<rect x="216.8" y="262.5" fill="none" stroke="#1E7A85" stroke-width="0.8571" stroke-miterlimit="10" width="18.1" height="18.1"/>
<g>
	<g>
		<path fill="#1E7A85" d="M203,317.5h11.9v-14.3H203V317.5z M213.4,304.6v11.4h-7.5v-11.4H213.4z"/>
	</g>
</g>
<rect x="216.8" y="301.3" fill="#FFFFFF" stroke="#1E7A85" stroke-width="0.8571" stroke-miterlimit="10" width="18.1" height="18.1"/>
<g>
	<g>
		<path fill="#1E7A85" d="M203,356.3h11.9v-14.3H203V356.3z M213.4,343.4v11.5h-7.5v-11.5H213.4z"/>
	</g>
</g>
<rect x="216.8" y="340" fill="none" stroke="#1E7A85" stroke-width="0.8571" stroke-miterlimit="10" width="18.1" height="18.1"/>
<g>
	<g>
		<path fill="#1E7A85" d="M116,395.3H128V381H116V395.3z M126.5,382.4v11.4H119v-11.4H126.5z"/>
	</g>
</g>
<rect x="129.9" y="379.1" fill="none" stroke="#1E7A85" stroke-width="0.8571" stroke-miterlimit="10" width="18.1" height="18.1"/>
<g>
	<g>
		<path fill="#1E7A85" d="M116,434.1H128v-14.3H116V434.1z M126.5,421.2v11.4H119v-11.4H126.5z"/>
	</g>
</g>
<rect x="129.9" y="417.8" fill="none" stroke="#1E7A85" stroke-width="0.8571" stroke-miterlimit="10" width="18.1" height="18.1"/>
<g>
	<g>
		<path fill="#1E7A85" d="M116,472.8H128v-14.3H116V472.8z M126.5,459.9v11.4H119v-11.4H126.5z"/>
	</g>
</g>
<rect x="129.9" y="456.6" fill="none" stroke="#1E7A85" stroke-width="0.8571" stroke-miterlimit="10" width="18.1" height="18.1"/>
<g>
	<g>
		<path fill="#1E7A85" d="M159.5,395.3h11.9V381h-11.9V395.3z M169.9,382.4v11.4h-7.5v-11.4H169.9z"/>
	</g>
</g>
<rect x="173.3" y="379.1" fill="none" stroke="#1E7A85" stroke-width="0.8571" stroke-miterlimit="10" width="18.1" height="18.1"/>
<g>
	<g>
		<path fill="#1E7A85" d="M159.5,434.1h11.9v-14.3h-11.9V434.1z M169.9,421.2v11.4h-7.5v-11.4H169.9z"/>
	</g>
</g>
<rect x="173.3" y="417.8" fill="none" stroke="#1E7A85" stroke-width="0.8571" stroke-miterlimit="10" width="18.1" height="18.1"/>
<g>
	<g>
		<path fill="#1E7A85" d="M159.5,472.8h11.9v-14.3h-11.9V472.8z M169.9,459.9v11.4h-7.5v-11.4H169.9z"/>
	</g>
</g>
<rect x="173.3" y="456.6" fill="none" stroke="#1E7A85" stroke-width="0.8571" stroke-miterlimit="10" width="18.1" height="18.1"/>
<g>
	<g>
		<path fill="#1E7A85" d="M203,395.3h11.9V381H203V395.3z M213.4,382.4v11.4h-7.5v-11.4H213.4z"/>
	</g>
</g>
<rect x="216.8" y="379.1" fill="none" stroke="#1E7A85" stroke-width="0.8571" stroke-miterlimit="10" width="18.1" height="18.1"/>
<g>
	<g>
		<path fill="#1E7A85" d="M203,434.1h11.9v-14.3H203V434.1z M213.4,421.2v11.4h-7.5v-11.4H213.4z"/>
	</g>
</g>
<rect x="216.8" y="417.8" fill="none" stroke="#1E7A85" stroke-width="0.8571" stroke-miterlimit="10" width="18.1" height="18.1"/>
<g>
	<g>
		<path fill="#1E7A85" d="M203,472.8h11.9v-14.3H203V472.8z M213.4,459.9v11.4h-7.5v-11.4H213.4z"/>
	</g>
</g>
<rect x="216.8" y="456.6" fill="none" stroke="#1E7A85" stroke-width="0.8571" stroke-miterlimit="10" width="18.1" height="18.1"/>
<g>
	<g>
		<path fill="#1E7A85" d="M376.6,395.3h11.9V381h-11.9V395.3z M387,382.4v11.4h-7.5v-11.4H387z"/>
	</g>
</g>
<rect x="390.4" y="379.1" fill="none" stroke="#1E7A85" stroke-width="0.8571" stroke-miterlimit="10" width="18.1" height="18.1"/>
<g>
	<g>
		<path fill="#1E7A85" d="M376.6,434.1h11.9v-14.3h-11.9V434.1z M387,421.2v11.4h-7.5v-11.4H387z"/>
	</g>
</g>
<rect x="390.4" y="417.8" fill="none" stroke="#1E7A85" stroke-width="0.8571" stroke-miterlimit="10" width="18.1" height="18.1"/>
<g>
	<g>
		<path fill="#1E7A85" d="M376.6,472.8h11.9v-14.3h-11.9V472.8z M387,459.9v11.4h-7.5v-11.4H387z"/>
	</g>
</g>
<rect x="390.4" y="456.6" fill="none" stroke="#1E7A85" stroke-width="0.8571" stroke-miterlimit="10" width="18.1" height="18.1"/>
</svg>
