<?xml version="1.0" encoding="utf-8"?>
<!-- Generator: Adobe Illustrator 18.1.1, SVG Export Plug-In . SVG Version: 6.00 Build 0)  -->
<!DOCTYPE svg PUBLIC "-//W3C//DTD SVG 1.1//EN" "http://www.w3.org/Graphics/SVG/1.1/DTD/svg11.dtd">
<svg version="1.1" id="Layer_1" xmlns="http://www.w3.org/2000/svg" xmlns:xlink="http://www.w3.org/1999/xlink" x="0px" y="0px"
	 viewBox="0 0 1920 1080" enable-background="new 0 0 1920 1080" xml:space="preserve">
<g>
	<g>
		<path fill="#1E7A85" d="M1396.7,577.7h-53.4V456.1h53.4V577.7z M1344.8,576.1h50.3V457.6h-50.3V576.1z"/>
	</g>
	<g>
		<path fill="#1E7A85" d="M1396.7,712.6h-53.4V591h53.4V712.6z M1344.8,711h50.3V592.5h-50.3V711z"/>
	</g>
	<g>
		<g>
			<g>
				<g>
					<path fill="#1E7A85" d="M411.3,705.5h27v-32.4h-27V705.5z M435,676.3v26h-16.9v-26H435z"/>
				</g>
			</g>
		</g>
		<g>
			<g>
				<g>
					<path fill="#1E7A85" d="M411.3,621.2h27v-32.4h-27V621.2z M434.9,592v25.9h-16.9V592H434.9z"/>
				</g>
			</g>
		</g>
		<g>
			<g>
				<g>
					<path fill="#1E7A85" d="M411.3,662.8h27v-32.4h-27V662.8z M434.9,633.6v26h-16.9v-26H434.9z"/>
				</g>
			</g>
		</g>
		<g>
			<g>
				<g>
					<path fill="#1E7A85" d="M411.3,829.8h27v-32.4h-27V829.8z M435,800.6v25.9h-16.9v-25.9H435z"/>
				</g>
			</g>
		</g>
		<g>
			<g>
				<g>
					<path fill="#1E7A85" d="M411.3,745.4h27V713h-27V745.4z M434.9,716.2v25.9h-16.9v-25.9H434.9z"/>
				</g>
			</g>
		</g>
		<g>
			<g>
				<g>
					<path fill="#1E7A85" d="M411.3,787h27v-32.4h-27V787z M434.9,757.8v26h-16.9v-26H434.9z"/>
				</g>
			</g>
		</g>
		<g>
			<g>
				<g>
					<path fill="#1E7A85" d="M411.3,912.7h27v-32.4h-27V912.7z M435,883.5v26h-16.9v-26H435z"/>
				</g>
			</g>
		</g>
		<g>
			<g>
				<g>
					<path fill="#1E7A85" d="M411.3,955.5h27v-32.4h-27V955.5z M435,926.4v25.9h-16.9v-25.9H435z"/>
				</g>
			</g>
		</g>
		<g>
			<g>
				<g>
					<path fill="#1E7A85" d="M411.3,869.9h27v-32.4h-27V869.9z M434.9,840.7v26h-16.9v-26H434.9z"/>
				</g>
			</g>
		</g>
	</g>
	<g>
		<g>
			<g>
				<g>
					<path fill="#1E7A85" d="M468.4,705.5h27v-32.4h-27V705.5z M492.1,676.3v26h-16.9v-26H492.1z"/>
				</g>
			</g>
		</g>
		<g>
			<g>
				<g>
					<path fill="#1E7A85" d="M468.4,621.2h27v-32.4h-27V621.2z M492.1,592v25.9h-16.9V592H492.1z"/>
				</g>
			</g>
		</g>
		<g>
			<g>
				<g>
					<path fill="#1E7A85" d="M468.4,662.8h27v-32.4h-27V662.8z M492.1,633.6v26h-16.9v-26H492.1z"/>
				</g>
			</g>
		</g>
		<g>
			<g>
				<g>
					<path fill="#1E7A85" d="M468.4,829.8h27v-32.4h-27V829.8z M492.1,800.6v25.9h-16.9v-25.9H492.1z"/>
				</g>
			</g>
		</g>
		<g>
			<g>
				<g>
					<path fill="#1E7A85" d="M468.4,745.4h27V713h-27V745.4z M492.1,716.2v25.9h-16.9v-25.9H492.1z"/>
				</g>
			</g>
		</g>
		<g>
			<g>
				<g>
					<path fill="#1E7A85" d="M468.4,787h27v-32.4h-27V787z M492.1,757.8v26h-16.9v-26H492.1z"/>
				</g>
			</g>
		</g>
		<g>
			<g>
				<g>
					<path fill="#1E7A85" d="M468.4,912.7h27v-32.4h-27V912.7z M492.1,883.5v26h-16.9v-26H492.1z"/>
				</g>
			</g>
		</g>
		<g>
			<g>
				<g>
					<path fill="#1E7A85" d="M468.4,955.5h27v-32.4h-27V955.5z M492.1,926.4v25.9h-16.9v-25.9H492.1z"/>
				</g>
			</g>
		</g>
		<g>
			<g>
				<g>
					<path fill="#1E7A85" d="M468.4,869.9h27v-32.4h-27V869.9z M492.1,840.7v26h-16.9v-26H492.1z"/>
				</g>
			</g>
		</g>
	</g>
	<g>
		<g>
			<g>
				<g>
					<path fill="#1E7A85" d="M525.6,705.5h27v-32.4h-27V705.5z M549.2,676.3v26h-16.9v-26H549.2z"/>
				</g>
			</g>
		</g>
		<g>
			<g>
				<g>
					<path fill="#1E7A85" d="M525.5,621.2h27v-32.4h-27V621.2z M549.2,592v25.9h-16.9V592H549.2z"/>
				</g>
			</g>
		</g>
		<g>
			<g>
				<g>
					<path fill="#1E7A85" d="M525.5,662.8h27v-32.4h-27V662.8z M549.2,633.6v26h-16.9v-26H549.2z"/>
				</g>
			</g>
		</g>
		<g>
			<g>
				<g>
					<path fill="#1E7A85" d="M525.6,829.8h27v-32.4h-27V829.8z M549.2,800.6v25.9h-16.9v-25.9H549.2z"/>
				</g>
			</g>
		</g>
		<g>
			<g>
				<g>
					<path fill="#1E7A85" d="M525.5,745.4h27V713h-27V745.4z M549.2,716.2v25.9h-16.9v-25.9H549.2z"/>
				</g>
			</g>
		</g>
		<g>
			<g>
				<g>
					<path fill="#1E7A85" d="M525.5,787h27v-32.4h-27V787z M549.2,757.8v26h-16.9v-26H549.2z"/>
				</g>
			</g>
		</g>
		<g>
			<g>
				<g>
					<path fill="#1E7A85" d="M525.6,912.7h27v-32.4h-27V912.7z M549.2,883.5v26h-16.9v-26H549.2z"/>
				</g>
			</g>
		</g>
		<g>
			<g>
				<g>
					<path fill="#1E7A85" d="M525.6,955.5h27v-32.4h-27V955.5z M549.2,926.4v25.9h-16.9v-25.9H549.2z"/>
				</g>
			</g>
		</g>
		<g>
			<g>
				<g>
					<path fill="#1E7A85" d="M525.5,869.9h27v-32.4h-27V869.9z M549.2,840.7v26h-16.9v-26H549.2z"/>
				</g>
			</g>
		</g>
	</g>
	<g>
		<g>
			<g>
				<g>
					<path fill="#1E7A85" d="M582.7,705.5h27v-32.4h-27V705.5z M606.3,676.3v26h-16.9v-26H606.3z"/>
				</g>
			</g>
		</g>
		<g>
			<g>
				<g>
					<path fill="#1E7A85" d="M582.6,621.2h27v-32.4h-27V621.2z M606.3,592v25.9h-16.9V592H606.3z"/>
				</g>
			</g>
		</g>
		<g>
			<g>
				<g>
					<path fill="#1E7A85" d="M582.6,662.8h27v-32.4h-27V662.8z M606.3,633.6v26h-16.9v-26H606.3z"/>
				</g>
			</g>
		</g>
		<g>
			<g>
				<g>
					<path fill="#1E7A85" d="M582.7,829.8h27v-32.4h-27V829.8z M606.3,800.6v25.9h-16.9v-25.9H606.3z"/>
				</g>
			</g>
		</g>
		<g>
			<g>
				<g>
					<path fill="#1E7A85" d="M582.6,745.4h27V713h-27V745.4z M606.3,716.2v25.9h-16.9v-25.9H606.3z"/>
				</g>
			</g>
		</g>
		<g>
			<g>
				<g>
					<path fill="#1E7A85" d="M582.6,787h27v-32.4h-27V787z M606.3,757.8v26h-16.9v-26H606.3z"/>
				</g>
			</g>
		</g>
		<g>
			<g>
				<g>
					<path fill="#1E7A85" d="M582.7,912.7h27v-32.4h-27V912.7z M606.3,883.5v26h-16.9v-26H606.3z"/>
				</g>
			</g>
		</g>
		<g>
			<g>
				<g>
					<path fill="#1E7A85" d="M582.7,955.5h27v-32.4h-27V955.5z M606.3,926.4v25.9h-16.9v-25.9H606.3z"/>
				</g>
			</g>
		</g>
		<g>
			<g>
				<g>
					<path fill="#1E7A85" d="M582.6,869.9h27v-32.4h-27V869.9z M606.3,840.7v26h-16.9v-26H606.3z"/>
				</g>
			</g>
		</g>
	</g>
	<g>
		<g>
			<g>
				<g>
					<path fill="#1E7A85" d="M639.8,705.5h27v-32.4h-27V705.5z M663.4,676.3v26h-16.9v-26H663.4z"/>
				</g>
			</g>
		</g>
		<g>
			<g>
				<g>
					<path fill="#1E7A85" d="M639.7,621.2h27v-32.4h-27V621.2z M663.4,592v25.9h-16.9V592H663.4z"/>
				</g>
			</g>
		</g>
		<g>
			<g>
				<g>
					<path fill="#1E7A85" d="M639.7,662.8h27v-32.4h-27V662.8z M663.4,633.6v26h-16.9v-26H663.4z"/>
				</g>
			</g>
		</g>
		<g>
			<g>
				<g>
					<path fill="#1E7A85" d="M639.8,829.8h27v-32.4h-27V829.8z M663.4,800.6v25.9h-16.9v-25.9H663.4z"/>
				</g>
			</g>
		</g>
		<g>
			<g>
				<g>
					<path fill="#1E7A85" d="M639.7,745.4h27V713h-27V745.4z M663.4,716.2v25.9h-16.9v-25.9H663.4z"/>
				</g>
			</g>
		</g>
		<g>
			<g>
				<g>
					<path fill="#1E7A85" d="M639.7,787h27v-32.4h-27V787z M663.4,757.8v26h-16.9v-26H663.4z"/>
				</g>
			</g>
		</g>
		<g>
			<g>
				<g>
					<path fill="#1E7A85" d="M639.8,912.7h27v-32.4h-27V912.7z M663.4,883.5v26h-16.9v-26H663.4z"/>
				</g>
			</g>
		</g>
		<g>
			<g>
				<g>
					<path fill="#1E7A85" d="M639.8,955.5h27v-32.4h-27V955.5z M663.4,926.4v25.9h-16.9v-25.9H663.4z"/>
				</g>
			</g>
		</g>
		<g>
			<g>
				<g>
					<path fill="#1E7A85" d="M639.7,869.9h27v-32.4h-27V869.9z M663.4,840.7v26h-16.9v-26H663.4z"/>
				</g>
			</g>
		</g>
	</g>
	<g>
		<g>
			<g>
				<g>
					<path fill="#1E7A85" d="M696.9,705.5h27v-32.4h-27V705.5z M720.5,676.3v26h-16.9v-26H720.5z"/>
				</g>
			</g>
		</g>
		<g>
			<g>
				<g>
					<path fill="#1E7A85" d="M696.9,621.2h27v-32.4h-27V621.2z M720.5,592v25.9h-16.9V592H720.5z"/>
				</g>
			</g>
		</g>
		<g>
			<g>
				<g>
					<path fill="#1E7A85" d="M696.9,662.8h27v-32.4h-27V662.8z M720.5,633.6v26h-16.9v-26H720.5z"/>
				</g>
			</g>
		</g>
		<g>
			<g>
				<g>
					<path fill="#1E7A85" d="M696.9,829.8h27v-32.4h-27V829.8z M720.5,800.6v25.9h-16.9v-25.9H720.5z"/>
				</g>
			</g>
		</g>
		<g>
			<g>
				<g>
					<path fill="#1E7A85" d="M696.9,745.4h27V713h-27V745.4z M720.5,716.2v25.9h-16.9v-25.9H720.5z"/>
				</g>
			</g>
		</g>
		<g>
			<g>
				<g>
					<path fill="#1E7A85" d="M696.9,787h27v-32.4h-27V787z M720.5,757.8v26h-16.9v-26H720.5z"/>
				</g>
			</g>
		</g>
		<g>
			<g>
				<g>
					<path fill="#1E7A85" d="M696.9,912.7h27v-32.4h-27V912.7z M720.5,883.5v26h-16.9v-26H720.5z"/>
				</g>
			</g>
		</g>
		<g>
			<g>
				<g>
					<path fill="#1E7A85" d="M696.9,955.5h27v-32.4h-27V955.5z M720.5,926.4v25.9h-16.9v-25.9H720.5z"/>
				</g>
			</g>
		</g>
		<g>
			<g>
				<g>
					<path fill="#1E7A85" d="M696.9,869.9h27v-32.4h-27V869.9z M720.5,840.7v26h-16.9v-26H720.5z"/>
				</g>
			</g>
		</g>
	</g>
	<g>
		<g>
			<g>
				<g>
					<path fill="#1E7A85" d="M754,705.5h27v-32.4h-27V705.5z M777.7,676.3v26h-16.9v-26H777.7z"/>
				</g>
			</g>
		</g>
		<g>
			<g>
				<g>
					<path fill="#1E7A85" d="M754,621.2h27v-32.4h-27V621.2z M777.6,592v25.9h-16.9V592H777.6z"/>
				</g>
			</g>
		</g>
		<g>
			<g>
				<g>
					<path fill="#1E7A85" d="M754,662.8h27v-32.4h-27V662.8z M777.6,633.6v26h-16.9v-26H777.6z"/>
				</g>
			</g>
		</g>
		<g>
			<g>
				<g>
					<path fill="#1E7A85" d="M754,829.8h27v-32.4h-27V829.8z M777.7,800.6v25.9h-16.9v-25.9H777.7z"/>
				</g>
			</g>
		</g>
		<g>
			<g>
				<g>
					<path fill="#1E7A85" d="M754,745.4h27V713h-27V745.4z M777.6,716.2v25.9h-16.9v-25.9H777.6z"/>
				</g>
			</g>
		</g>
		<g>
			<g>
				<g>
					<path fill="#1E7A85" d="M754,787h27v-32.4h-27V787z M777.6,757.8v26h-16.9v-26H777.6z"/>
				</g>
			</g>
		</g>
		<g>
			<g>
				<g>
					<path fill="#1E7A85" d="M754,912.7h27v-32.4h-27V912.7z M777.7,883.5v26h-16.9v-26H777.7z"/>
				</g>
			</g>
		</g>
		<g>
			<g>
				<g>
					<path fill="#1E7A85" d="M754,955.5h27v-32.4h-27V955.5z M777.7,926.4v25.9h-16.9v-25.9H777.7z"/>
				</g>
			</g>
		</g>
		<g>
			<g>
				<g>
					<path fill="#1E7A85" d="M754,869.9h27v-32.4h-27V869.9z M777.6,840.7v26h-16.9v-26H777.6z"/>
				</g>
			</g>
		</g>
	</g>
	<g>
		<g>
			<g>
				<g>
					<path fill="#1E7A85" d="M811.1,705.5h27v-32.4h-27V705.5z M834.8,676.3v26h-16.9v-26H834.8z"/>
				</g>
			</g>
		</g>
		<g>
			<g>
				<g>
					<path fill="#1E7A85" d="M811.1,621.2h27v-32.4h-27V621.2z M834.7,592v25.9h-16.9V592H834.7z"/>
				</g>
			</g>
		</g>
		<g>
			<g>
				<g>
					<path fill="#1E7A85" d="M811.1,662.8h27v-32.4h-27V662.8z M834.7,633.6v26h-16.9v-26H834.7z"/>
				</g>
			</g>
		</g>
		<g>
			<g>
				<g>
					<path fill="#1E7A85" d="M811.1,829.8h27v-32.4h-27V829.8z M834.8,800.6v25.9h-16.9v-25.9H834.8z"/>
				</g>
			</g>
		</g>
		<g>
			<g>
				<g>
					<path fill="#1E7A85" d="M811.1,745.4h27V713h-27V745.4z M834.7,716.2v25.9h-16.9v-25.9H834.7z"/>
				</g>
			</g>
		</g>
		<g>
			<g>
				<g>
					<path fill="#1E7A85" d="M811.1,787h27v-32.4h-27V787z M834.7,757.8v26h-16.9v-26H834.7z"/>
				</g>
			</g>
		</g>
		<g>
			<g>
				<g>
					<path fill="#1E7A85" d="M811.1,912.7h27v-32.4h-27V912.7z M834.8,883.5v26h-16.9v-26H834.8z"/>
				</g>
			</g>
		</g>
		<g>
			<g>
				<g>
					<path fill="#1E7A85" d="M811.1,955.5h27v-32.4h-27V955.5z M834.8,926.4v25.9h-16.9v-25.9H834.8z"/>
				</g>
			</g>
		</g>
		<g>
			<g>
				<g>
					<path fill="#1E7A85" d="M811.1,869.9h27v-32.4h-27V869.9z M834.7,840.7v26h-16.9v-26H834.7z"/>
				</g>
			</g>
		</g>
	</g>
	<g>
		<g>
			<g>
				<g>
					<path fill="#1E7A85" d="M868.2,705.5h27v-32.4h-27V705.5z M891.9,676.3v26H875v-26H891.9z"/>
				</g>
			</g>
		</g>
		<g>
			<g>
				<g>
					<path fill="#1E7A85" d="M868.2,621.2h27v-32.4h-27V621.2z M891.8,592v25.9h-16.9V592H891.8z"/>
				</g>
			</g>
		</g>
		<g>
			<g>
				<g>
					<path fill="#1E7A85" d="M868.2,662.8h27v-32.4h-27V662.8z M891.8,633.6v26h-16.9v-26H891.8z"/>
				</g>
			</g>
		</g>
		<g>
			<g>
				<g>
					<path fill="#1E7A85" d="M868.2,829.8h27v-32.4h-27V829.8z M891.9,800.6v25.9H875v-25.9H891.9z"/>
				</g>
			</g>
		</g>
		<g>
			<g>
				<g>
					<path fill="#1E7A85" d="M868.2,745.4h27V713h-27V745.4z M891.8,716.2v25.9h-16.9v-25.9H891.8z"/>
				</g>
			</g>
		</g>
		<g>
			<g>
				<g>
					<path fill="#1E7A85" d="M868.2,787h27v-32.4h-27V787z M891.8,757.8v26h-16.9v-26H891.8z"/>
				</g>
			</g>
		</g>
		<g>
			<g>
				<g>
					<path fill="#1E7A85" d="M868.2,912.7h27v-32.4h-27V912.7z M891.9,883.5v26H875v-26H891.9z"/>
				</g>
			</g>
		</g>
		<g>
			<g>
				<g>
					<path fill="#1E7A85" d="M868.2,955.5h27v-32.4h-27V955.5z M891.9,926.4v25.9H875v-25.9H891.9z"/>
				</g>
			</g>
		</g>
		<g>
			<g>
				<g>
					<path fill="#1E7A85" d="M868.2,869.9h27v-32.4h-27V869.9z M891.8,840.7v26h-16.9v-26H891.8z"/>
				</g>
			</g>
		</g>
	</g>
	<g>
		<g>
			<g>
				<g>
					<path fill="#1E7A85" d="M925.3,705.5h27v-32.4h-27V705.5z M949,676.3v26h-16.9v-26H949z"/>
				</g>
			</g>
		</g>
		<g>
			<g>
				<g>
					<path fill="#1E7A85" d="M925.3,621.2h27v-32.4h-27V621.2z M948.9,592v25.9h-16.9V592H948.9z"/>
				</g>
			</g>
		</g>
		<g>
			<g>
				<g>
					<path fill="#1E7A85" d="M925.3,662.8h27v-32.4h-27V662.8z M948.9,633.6v26h-16.9v-26H948.9z"/>
				</g>
			</g>
		</g>
		<g>
			<g>
				<g>
					<path fill="#1E7A85" d="M925.3,829.8h27v-32.4h-27V829.8z M949,800.6v25.9h-16.9v-25.9H949z"/>
				</g>
			</g>
		</g>
		<g>
			<g>
				<g>
					<path fill="#1E7A85" d="M925.3,745.4h27V713h-27V745.4z M948.9,716.2v25.9h-16.9v-25.9H948.9z"/>
				</g>
			</g>
		</g>
		<g>
			<g>
				<g>
					<path fill="#1E7A85" d="M925.3,787h27v-32.4h-27V787z M948.9,757.8v26h-16.9v-26H948.9z"/>
				</g>
			</g>
		</g>
		<g>
			<g>
				<g>
					<path fill="#1E7A85" d="M925.3,912.7h27v-32.4h-27V912.7z M949,883.5v26h-16.9v-26H949z"/>
				</g>
			</g>
		</g>
		<g>
			<g>
				<g>
					<path fill="#1E7A85" d="M925.3,955.5h27v-32.4h-27V955.5z M949,926.4v25.9h-16.9v-25.9H949z"/>
				</g>
			</g>
		</g>
		<g>
			<g>
				<g>
					<path fill="#1E7A85" d="M925.3,869.9h27v-32.4h-27V869.9z M948.9,840.7v26h-16.9v-26H948.9z"/>
				</g>
			</g>
		</g>
	</g>
	<g>
		<g>
			<g>
				<g>
					<path fill="#1E7A85" d="M982.5,705.5h27v-32.4h-27V705.5z M1006.1,676.3v26h-16.9v-26H1006.1z"/>
				</g>
			</g>
		</g>
		<g>
			<g>
				<g>
					<path fill="#1E7A85" d="M982.4,621.2h27v-32.4h-27V621.2z M1006.1,592v25.9h-16.9V592H1006.1z"/>
				</g>
			</g>
		</g>
		<g>
			<g>
				<g>
					<path fill="#1E7A85" d="M982.4,662.8h27v-32.4h-27V662.8z M1006.1,633.6v26h-16.9v-26H1006.1z"/>
				</g>
			</g>
		</g>
		<g>
			<g>
				<g>
					<path fill="#1E7A85" d="M982.5,829.8h27v-32.4h-27V829.8z M1006.1,800.6v25.9h-16.9v-25.9H1006.1z"/>
				</g>
			</g>
		</g>
		<g>
			<g>
				<g>
					<path fill="#1E7A85" d="M982.4,745.4h27V713h-27V745.4z M1006.1,716.2v25.9h-16.9v-25.9H1006.1z"/>
				</g>
			</g>
		</g>
		<g>
			<g>
				<g>
					<path fill="#1E7A85" d="M982.4,787h27v-32.4h-27V787z M1006.1,757.8v26h-16.9v-26H1006.1z"/>
				</g>
			</g>
		</g>
		<g>
			<g>
				<g>
					<path fill="#1E7A85" d="M982.5,912.7h27v-32.4h-27V912.7z M1006.1,883.5v26h-16.9v-26H1006.1z"/>
				</g>
			</g>
		</g>
		<g>
			<g>
				<g>
					<path fill="#1E7A85" d="M982.5,955.5h27v-32.4h-27V955.5z M1006.1,926.4v25.9h-16.9v-25.9H1006.1z"/>
				</g>
			</g>
		</g>
		<g>
			<g>
				<g>
					<path fill="#1E7A85" d="M982.4,869.9h27v-32.4h-27V869.9z M1006.1,840.7v26h-16.9v-26H1006.1z"/>
				</g>
			</g>
		</g>
	</g>
	<g>
		<g>
			<g>
				<g>
					<path fill="#1E7A85" d="M1039.6,705.5h27v-32.4h-27V705.5z M1063.2,676.3v26h-16.9v-26H1063.2z"/>
				</g>
			</g>
		</g>
		<g>
			<g>
				<g>
					<path fill="#1E7A85" d="M1039.5,621.2h27v-32.4h-27V621.2z M1063.2,592v25.9h-16.9V592H1063.2z"/>
				</g>
			</g>
		</g>
		<g>
			<g>
				<g>
					<path fill="#1E7A85" d="M1039.5,662.8h27v-32.4h-27V662.8z M1063.2,633.6v26h-16.9v-26H1063.2z"/>
				</g>
			</g>
		</g>
		<g>
			<g>
				<g>
					<path fill="#1E7A85" d="M1039.6,829.8h27v-32.4h-27V829.8z M1063.2,800.6v25.9h-16.9v-25.9H1063.2z"/>
				</g>
			</g>
		</g>
		<g>
			<g>
				<g>
					<path fill="#1E7A85" d="M1039.5,745.4h27V713h-27V745.4z M1063.2,716.2v25.9h-16.9v-25.9H1063.2z"/>
				</g>
			</g>
		</g>
		<g>
			<g>
				<g>
					<path fill="#1E7A85" d="M1039.5,787h27v-32.4h-27V787z M1063.2,757.8v26h-16.9v-26H1063.2z"/>
				</g>
			</g>
		</g>
		<g>
			<g>
				<g>
					<path fill="#1E7A85" d="M1039.6,912.7h27v-32.4h-27V912.7z M1063.2,883.5v26h-16.9v-26H1063.2z"/>
				</g>
			</g>
		</g>
		<g>
			<g>
				<g>
					<path fill="#1E7A85" d="M1039.6,955.5h27v-32.4h-27V955.5z M1063.2,926.4v25.9h-16.9v-25.9H1063.2z"/>
				</g>
			</g>
		</g>
		<g>
			<g>
				<g>
					<path fill="#1E7A85" d="M1039.5,869.9h27v-32.4h-27V869.9z M1063.2,840.7v26h-16.9v-26H1063.2z"/>
				</g>
			</g>
		</g>
	</g>
	<g>
		<g>
			<g>
				<g>
					<path fill="#1E7A85" d="M1096.7,705.5h27v-32.4h-27V705.5z M1120.3,676.3v26h-16.9v-26H1120.3z"/>
				</g>
			</g>
		</g>
		<g>
			<g>
				<g>
					<path fill="#1E7A85" d="M1096.6,621.2h27v-32.4h-27V621.2z M1120.3,592v25.9h-16.9V592H1120.3z"/>
				</g>
			</g>
		</g>
		<g>
			<g>
				<g>
					<path fill="#1E7A85" d="M1096.6,662.8h27v-32.4h-27V662.8z M1120.3,633.6v26h-16.9v-26H1120.3z"/>
				</g>
			</g>
		</g>
		<g>
			<g>
				<g>
					<path fill="#1E7A85" d="M1096.7,829.8h27v-32.4h-27V829.8z M1120.3,800.6v25.9h-16.9v-25.9H1120.3z"/>
				</g>
			</g>
		</g>
		<g>
			<g>
				<g>
					<path fill="#1E7A85" d="M1096.6,745.4h27V713h-27V745.4z M1120.3,716.2v25.9h-16.9v-25.9H1120.3z"/>
				</g>
			</g>
		</g>
		<g>
			<g>
				<g>
					<path fill="#1E7A85" d="M1096.6,787h27v-32.4h-27V787z M1120.3,757.8v26h-16.9v-26H1120.3z"/>
				</g>
			</g>
		</g>
		<g>
			<g>
				<g>
					<path fill="#1E7A85" d="M1096.7,912.7h27v-32.4h-27V912.7z M1120.3,883.5v26h-16.9v-26H1120.3z"/>
				</g>
			</g>
		</g>
		<g>
			<g>
				<g>
					<path fill="#1E7A85" d="M1096.7,955.5h27v-32.4h-27V955.5z M1120.3,926.4v25.9h-16.9v-25.9H1120.3z"/>
				</g>
			</g>
		</g>
		<g>
			<g>
				<g>
					<path fill="#1E7A85" d="M1096.6,869.9h27v-32.4h-27V869.9z M1120.3,840.7v26h-16.9v-26H1120.3z"/>
				</g>
			</g>
		</g>
	</g>
	<g>
		<g>
			<g>
				<g>
					<path fill="#1E7A85" d="M1153.8,705.5h27v-32.4h-27V705.5z M1177.4,676.3v26h-16.9v-26H1177.4z"/>
				</g>
			</g>
		</g>
		<g>
			<g>
				<g>
					<path fill="#1E7A85" d="M1153.7,621.2h27v-32.4h-27V621.2z M1177.4,592v25.9h-16.9V592H1177.4z"/>
				</g>
			</g>
		</g>
		<g>
			<g>
				<g>
					<path fill="#1E7A85" d="M1153.7,662.8h27v-32.4h-27V662.8z M1177.4,633.6v26h-16.9v-26H1177.4z"/>
				</g>
			</g>
		</g>
		<g>
			<g>
				<g>
					<path fill="#1E7A85" d="M1153.8,829.8h27v-32.4h-27V829.8z M1177.4,800.6v25.9h-16.9v-25.9H1177.4z"/>
				</g>
			</g>
		</g>
		<g>
			<g>
				<g>
					<path fill="#1E7A85" d="M1153.7,745.4h27V713h-27V745.4z M1177.4,716.2v25.9h-16.9v-25.9H1177.4z"/>
				</g>
			</g>
		</g>
		<g>
			<g>
				<g>
					<path fill="#1E7A85" d="M1153.7,787h27v-32.4h-27V787z M1177.4,757.8v26h-16.9v-26H1177.4z"/>
				</g>
			</g>
		</g>
		<g>
			<g>
				<g>
					<path fill="#1E7A85" d="M1153.8,912.7h27v-32.4h-27V912.7z M1177.4,883.5v26h-16.9v-26H1177.4z"/>
				</g>
			</g>
		</g>
		<g>
			<g>
				<g>
					<path fill="#1E7A85" d="M1153.7,869.9h27v-32.4h-27V869.9z M1177.4,840.7v26h-16.9v-26H1177.4z"/>
				</g>
			</g>
		</g>
	</g>
	<g>
		<g>
			<g>
				<g>
					<path fill="#1E7A85" d="M411.3,281h27v-32.4h-27V281z M435,251.8v26h-16.9v-26H435z"/>
				</g>
			</g>
		</g>
		<g>
			<g>
				<g>
					<path fill="#1E7A85" d="M411.3,196.6h27v-32.4h-27V196.6z M434.9,167.4v26h-16.9v-26H434.9z"/>
				</g>
			</g>
		</g>
		<g>
			<g>
				<g>
					<path fill="#1E7A85" d="M411.3,238.2h27v-32.4h-27V238.2z M434.9,209V235h-16.9V209H434.9z"/>
				</g>
			</g>
		</g>
		<g>
			<g>
				<g>
					<path fill="#1E7A85" d="M411.3,405.2h27v-32.4h-27V405.2z M435,376v26h-16.9v-26H435z"/>
				</g>
			</g>
		</g>
		<g>
			<g>
				<g>
					<path fill="#1E7A85" d="M411.3,320.9h27v-32.4h-27V320.9z M434.9,291.7v25.9h-16.9v-25.9H434.9z"/>
				</g>
			</g>
		</g>
		<g>
			<g>
				<g>
					<path fill="#1E7A85" d="M411.3,362.4h27V330h-27V362.4z M434.9,333.2v26h-16.9v-26H434.9z"/>
				</g>
			</g>
		</g>
		<g>
			<g>
				<g>
					<path fill="#1E7A85" d="M411.3,488.1h27v-32.4h-27V488.1z M435,459v26h-16.9v-26H435z"/>
				</g>
			</g>
		</g>
		<g>
			<g>
				<g>
					<path fill="#1E7A85" d="M411.3,531h27v-32.4h-27V531z M435,501.8v25.9h-16.9v-25.9H435z"/>
				</g>
			</g>
		</g>
		<g>
			<g>
				<g>
					<path fill="#1E7A85" d="M411.3,445.4h27v-32.4h-27V445.4z M434.9,416.2v25.9h-16.9v-25.9H434.9z"/>
				</g>
			</g>
		</g>
	</g>
	<g>
		<g>
			<g>
				<g>
					<path fill="#1E7A85" d="M468.4,281h27v-32.4h-27V281z M492.1,251.8v26h-16.9v-26H492.1z"/>
				</g>
			</g>
		</g>
		<g>
			<g>
				<g>
					<path fill="#1E7A85" d="M468.4,196.6h27v-32.4h-27V196.6z M492.1,167.4v26h-16.9v-26H492.1z"/>
				</g>
			</g>
		</g>
		<g>
			<g>
				<g>
					<path fill="#1E7A85" d="M468.4,238.2h27v-32.4h-27V238.2z M492.1,209V235h-16.9V209H492.1z"/>
				</g>
			</g>
		</g>
		<g>
			<g>
				<g>
					<path fill="#1E7A85" d="M468.4,405.2h27v-32.4h-27V405.2z M492.1,376v26h-16.9v-26H492.1z"/>
				</g>
			</g>
		</g>
		<g>
			<g>
				<g>
					<path fill="#1E7A85" d="M468.4,320.9h27v-32.4h-27V320.9z M492.1,291.7v25.9h-16.9v-25.9H492.1z"/>
				</g>
			</g>
		</g>
		<g>
			<g>
				<g>
					<path fill="#1E7A85" d="M468.4,362.4h27V330h-27V362.4z M492.1,333.2v26h-16.9v-26H492.1z"/>
				</g>
			</g>
		</g>
		<g>
			<g>
				<g>
					<path fill="#1E7A85" d="M468.4,488.1h27v-32.4h-27V488.1z M492.1,459v26h-16.9v-26H492.1z"/>
				</g>
			</g>
		</g>
		<g>
			<g>
				<g>
					<path fill="#1E7A85" d="M468.4,531h27v-32.4h-27V531z M492.1,501.8v25.9h-16.9v-25.9H492.1z"/>
				</g>
			</g>
		</g>
		<g>
			<g>
				<g>
					<path fill="#1E7A85" d="M468.4,445.4h27v-32.4h-27V445.4z M492.1,416.2v25.9h-16.9v-25.9H492.1z"/>
				</g>
			</g>
		</g>
	</g>
	<g>
		<g>
			<g>
				<g>
					<path fill="#1E7A85" d="M525.6,281h27v-32.4h-27V281z M549.2,251.8v26h-16.9v-26H549.2z"/>
				</g>
			</g>
		</g>
		<g>
			<g>
				<g>
					<path fill="#1E7A85" d="M525.5,196.6h27v-32.4h-27V196.6z M549.2,167.4v26h-16.9v-26H549.2z"/>
				</g>
			</g>
		</g>
		<g>
			<g>
				<g>
					<path fill="#1E7A85" d="M525.5,238.2h27v-32.4h-27V238.2z M549.2,209V235h-16.9V209H549.2z"/>
				</g>
			</g>
		</g>
		<g>
			<g>
				<g>
					<path fill="#1E7A85" d="M525.6,405.2h27v-32.4h-27V405.2z M549.2,376v26h-16.9v-26H549.2z"/>
				</g>
			</g>
		</g>
		<g>
			<g>
				<g>
					<path fill="#1E7A85" d="M525.5,320.9h27v-32.4h-27V320.9z M549.2,291.7v25.9h-16.9v-25.9H549.2z"/>
				</g>
			</g>
		</g>
		<g>
			<g>
				<g>
					<path fill="#1E7A85" d="M525.5,362.4h27V330h-27V362.4z M549.2,333.2v26h-16.9v-26H549.2z"/>
				</g>
			</g>
		</g>
		<g>
			<g>
				<g>
					<path fill="#1E7A85" d="M525.6,488.1h27v-32.4h-27V488.1z M549.2,459v26h-16.9v-26H549.2z"/>
				</g>
			</g>
		</g>
		<g>
			<g>
				<g>
					<path fill="#1E7A85" d="M525.6,531h27v-32.4h-27V531z M549.2,501.8v25.9h-16.9v-25.9H549.2z"/>
				</g>
			</g>
		</g>
		<g>
			<g>
				<g>
					<path fill="#1E7A85" d="M525.5,445.4h27v-32.4h-27V445.4z M549.2,416.2v25.9h-16.9v-25.9H549.2z"/>
				</g>
			</g>
		</g>
	</g>
	<g>
		<g>
			<g>
				<g>
					<path fill="#1E7A85" d="M582.7,281h27v-32.4h-27V281z M606.3,251.8v26h-16.9v-26H606.3z"/>
				</g>
			</g>
		</g>
		<g>
			<g>
				<g>
					<path fill="#1E7A85" d="M582.6,196.6h27v-32.4h-27V196.6z M606.3,167.4v26h-16.9v-26H606.3z"/>
				</g>
			</g>
		</g>
		<g>
			<g>
				<g>
					<path fill="#1E7A85" d="M582.6,238.2h27v-32.4h-27V238.2z M606.3,209V235h-16.9V209H606.3z"/>
				</g>
			</g>
		</g>
		<g>
			<g>
				<g>
					<path fill="#1E7A85" d="M582.7,405.2h27v-32.4h-27V405.2z M606.3,376v26h-16.9v-26H606.3z"/>
				</g>
			</g>
		</g>
		<g>
			<g>
				<g>
					<path fill="#1E7A85" d="M582.6,320.9h27v-32.4h-27V320.9z M606.3,291.7v25.9h-16.9v-25.9H606.3z"/>
				</g>
			</g>
		</g>
		<g>
			<g>
				<g>
					<path fill="#1E7A85" d="M582.6,362.4h27V330h-27V362.4z M606.3,333.2v26h-16.9v-26H606.3z"/>
				</g>
			</g>
		</g>
		<g>
			<g>
				<g>
					<path fill="#1E7A85" d="M582.7,488.1h27v-32.4h-27V488.1z M606.3,459v26h-16.9v-26H606.3z"/>
				</g>
			</g>
		</g>
		<g>
			<g>
				<g>
					<path fill="#1E7A85" d="M582.7,531h27v-32.4h-27V531z M606.3,501.8v25.9h-16.9v-25.9H606.3z"/>
				</g>
			</g>
		</g>
		<g>
			<g>
				<g>
					<path fill="#1E7A85" d="M582.6,445.4h27v-32.4h-27V445.4z M606.3,416.2v25.9h-16.9v-25.9H606.3z"/>
				</g>
			</g>
		</g>
	</g>
	<g>
		<g>
			<g>
				<g>
					<path fill="#1E7A85" d="M639.8,281h27v-32.4h-27V281z M663.4,251.8v26h-16.9v-26H663.4z"/>
				</g>
			</g>
		</g>
		<g>
			<g>
				<g>
					<path fill="#1E7A85" d="M639.7,196.6h27v-32.4h-27V196.6z M663.4,167.4v26h-16.9v-26H663.4z"/>
				</g>
			</g>
		</g>
		<g>
			<g>
				<g>
					<path fill="#1E7A85" d="M639.7,238.2h27v-32.4h-27V238.2z M663.4,209V235h-16.9V209H663.4z"/>
				</g>
			</g>
		</g>
		<g>
			<g>
				<g>
					<path fill="#1E7A85" d="M639.8,405.2h27v-32.4h-27V405.2z M663.4,376v26h-16.9v-26H663.4z"/>
				</g>
			</g>
		</g>
		<g>
			<g>
				<g>
					<path fill="#1E7A85" d="M639.7,320.9h27v-32.4h-27V320.9z M663.4,291.7v25.9h-16.9v-25.9H663.4z"/>
				</g>
			</g>
		</g>
		<g>
			<g>
				<g>
					<path fill="#1E7A85" d="M639.7,362.4h27V330h-27V362.4z M663.4,333.2v26h-16.9v-26H663.4z"/>
				</g>
			</g>
		</g>
		<g>
			<g>
				<g>
					<path fill="#1E7A85" d="M639.8,488.1h27v-32.4h-27V488.1z M663.4,459v26h-16.9v-26H663.4z"/>
				</g>
			</g>
		</g>
		<g>
			<g>
				<g>
					<path fill="#1E7A85" d="M639.8,531h27v-32.4h-27V531z M663.4,501.8v25.9h-16.9v-25.9H663.4z"/>
				</g>
			</g>
		</g>
		<g>
			<g>
				<g>
					<path fill="#1E7A85" d="M639.7,445.4h27v-32.4h-27V445.4z M663.4,416.2v25.9h-16.9v-25.9H663.4z"/>
				</g>
			</g>
		</g>
	</g>
	<g>
		<g>
			<g>
				<g>
					<path fill="#1E7A85" d="M696.9,281h27v-32.4h-27V281z M720.5,251.8v26h-16.9v-26H720.5z"/>
				</g>
			</g>
		</g>
		<g>
			<g>
				<g>
					<path fill="#1E7A85" d="M696.9,196.6h27v-32.4h-27V196.6z M720.5,167.4v26h-16.9v-26H720.5z"/>
				</g>
			</g>
		</g>
		<g>
			<g>
				<g>
					<path fill="#1E7A85" d="M696.9,238.2h27v-32.4h-27V238.2z M720.5,209V235h-16.9V209H720.5z"/>
				</g>
			</g>
		</g>
		<g>
			<g>
				<g>
					<path fill="#1E7A85" d="M696.9,405.2h27v-32.4h-27V405.2z M720.5,376v26h-16.9v-26H720.5z"/>
				</g>
			</g>
		</g>
		<g>
			<g>
				<g>
					<path fill="#1E7A85" d="M696.9,320.9h27v-32.4h-27V320.9z M720.5,291.7v25.9h-16.9v-25.9H720.5z"/>
				</g>
			</g>
		</g>
		<g>
			<g>
				<g>
					<path fill="#1E7A85" d="M696.9,362.4h27V330h-27V362.4z M720.5,333.2v26h-16.9v-26H720.5z"/>
				</g>
			</g>
		</g>
		<g>
			<g>
				<g>
					<path fill="#1E7A85" d="M696.9,488.1h27v-32.4h-27V488.1z M720.5,459v26h-16.9v-26H720.5z"/>
				</g>
			</g>
		</g>
		<g>
			<g>
				<g>
					<path fill="#1E7A85" d="M696.9,531h27v-32.4h-27V531z M720.5,501.8v25.9h-16.9v-25.9H720.5z"/>
				</g>
			</g>
		</g>
		<g>
			<g>
				<g>
					<path fill="#1E7A85" d="M696.9,445.4h27v-32.4h-27V445.4z M720.5,416.2v25.9h-16.9v-25.9H720.5z"/>
				</g>
			</g>
		</g>
	</g>
	<g>
		<g>
			<g>
				<g>
					<path fill="#1E7A85" d="M754,281h27v-32.4h-27V281z M777.7,251.8v26h-16.9v-26H777.7z"/>
				</g>
			</g>
		</g>
		<g>
			<g>
				<g>
					<path fill="#1E7A85" d="M754,196.6h27v-32.4h-27V196.6z M777.6,167.4v26h-16.9v-26H777.6z"/>
				</g>
			</g>
		</g>
		<g>
			<g>
				<g>
					<path fill="#1E7A85" d="M754,238.2h27v-32.4h-27V238.2z M777.6,209V235h-16.9V209H777.6z"/>
				</g>
			</g>
		</g>
		<g>
			<g>
				<g>
					<path fill="#1E7A85" d="M754,405.2h27v-32.4h-27V405.2z M777.7,376v26h-16.9v-26H777.7z"/>
				</g>
			</g>
		</g>
		<g>
			<g>
				<g>
					<path fill="#1E7A85" d="M754,320.9h27v-32.4h-27V320.9z M777.6,291.7v25.9h-16.9v-25.9H777.6z"/>
				</g>
			</g>
		</g>
		<g>
			<g>
				<g>
					<path fill="#1E7A85" d="M754,362.4h27V330h-27V362.4z M777.6,333.2v26h-16.9v-26H777.6z"/>
				</g>
			</g>
		</g>
		<g>
			<g>
				<g>
					<path fill="#1E7A85" d="M754,488.1h27v-32.4h-27V488.1z M777.7,459v26h-16.9v-26H777.7z"/>
				</g>
			</g>
		</g>
		<g>
			<g>
				<g>
					<path fill="#1E7A85" d="M754,531h27v-32.4h-27V531z M777.7,501.8v25.9h-16.9v-25.9H777.7z"/>
				</g>
			</g>
		</g>
		<g>
			<g>
				<g>
					<path fill="#1E7A85" d="M754,445.4h27v-32.4h-27V445.4z M777.6,416.2v25.9h-16.9v-25.9H777.6z"/>
				</g>
			</g>
		</g>
	</g>
	<g>
		<g>
			<g>
				<g>
					<path fill="#1E7A85" d="M811.1,281h27v-32.4h-27V281z M834.8,251.8v26h-16.9v-26H834.8z"/>
				</g>
			</g>
		</g>
		<g>
			<g>
				<g>
					<path fill="#1E7A85" d="M811.1,196.6h27v-32.4h-27V196.6z M834.7,167.4v26h-16.9v-26H834.7z"/>
				</g>
			</g>
		</g>
		<g>
			<g>
				<g>
					<path fill="#1E7A85" d="M811.1,238.2h27v-32.4h-27V238.2z M834.7,209V235h-16.9V209H834.7z"/>
				</g>
			</g>
		</g>
		<g>
			<g>
				<g>
					<path fill="#1E7A85" d="M811.1,405.2h27v-32.4h-27V405.2z M834.8,376v26h-16.9v-26H834.8z"/>
				</g>
			</g>
		</g>
		<g>
			<g>
				<g>
					<path fill="#1E7A85" d="M811.1,320.9h27v-32.4h-27V320.9z M834.7,291.7v25.9h-16.9v-25.9H834.7z"/>
				</g>
			</g>
		</g>
		<g>
			<g>
				<g>
					<path fill="#1E7A85" d="M811.1,362.4h27V330h-27V362.4z M834.7,333.2v26h-16.9v-26H834.7z"/>
				</g>
			</g>
		</g>
		<g>
			<g>
				<g>
					<path fill="#1E7A85" d="M811.1,488.1h27v-32.4h-27V488.1z M834.8,459v26h-16.9v-26H834.8z"/>
				</g>
			</g>
		</g>
		<g>
			<g>
				<g>
					<path fill="#1E7A85" d="M811.1,531h27v-32.4h-27V531z M834.8,501.8v25.9h-16.9v-25.9H834.8z"/>
				</g>
			</g>
		</g>
		<g>
			<g>
				<g>
					<path fill="#1E7A85" d="M811.1,445.4h27v-32.4h-27V445.4z M834.7,416.2v25.9h-16.9v-25.9H834.7z"/>
				</g>
			</g>
		</g>
	</g>
	<g>
		<g>
			<g>
				<g>
					<path fill="#1E7A85" d="M868.2,281h27v-32.4h-27V281z M891.9,251.8v26H875v-26H891.9z"/>
				</g>
			</g>
		</g>
		<g>
			<g>
				<g>
					<path fill="#1E7A85" d="M868.2,196.6h27v-32.4h-27V196.6z M891.8,167.4v26h-16.9v-26H891.8z"/>
				</g>
			</g>
		</g>
		<g>
			<g>
				<g>
					<path fill="#1E7A85" d="M868.2,238.2h27v-32.4h-27V238.2z M891.8,209V235h-16.9V209H891.8z"/>
				</g>
			</g>
		</g>
		<g>
			<g>
				<g>
					<path fill="#1E7A85" d="M868.2,405.2h27v-32.4h-27V405.2z M891.9,376v26H875v-26H891.9z"/>
				</g>
			</g>
		</g>
		<g>
			<g>
				<g>
					<path fill="#1E7A85" d="M868.2,320.9h27v-32.4h-27V320.9z M891.8,291.7v25.9h-16.9v-25.9H891.8z"/>
				</g>
			</g>
		</g>
		<g>
			<g>
				<g>
					<path fill="#1E7A85" d="M868.2,362.4h27V330h-27V362.4z M891.8,333.2v26h-16.9v-26H891.8z"/>
				</g>
			</g>
		</g>
		<g>
			<g>
				<g>
					<path fill="#1E7A85" d="M868.2,488.1h27v-32.4h-27V488.1z M891.9,459v26H875v-26H891.9z"/>
				</g>
			</g>
		</g>
		<g>
			<g>
				<g>
					<path fill="#1E7A85" d="M868.2,531h27v-32.4h-27V531z M891.9,501.8v25.9H875v-25.9H891.9z"/>
				</g>
			</g>
		</g>
		<g>
			<g>
				<g>
					<path fill="#1E7A85" d="M868.2,445.4h27v-32.4h-27V445.4z M891.8,416.2v25.9h-16.9v-25.9H891.8z"/>
				</g>
			</g>
		</g>
	</g>
	<g>
		<g>
			<g>
				<g>
					<path fill="#1E7A85" d="M925.3,281h27v-32.4h-27V281z M949,251.8v26h-16.9v-26H949z"/>
				</g>
			</g>
		</g>
		<g>
			<g>
				<g>
					<path fill="#1E7A85" d="M925.3,196.6h27v-32.4h-27V196.6z M948.9,167.4v26h-16.9v-26H948.9z"/>
				</g>
			</g>
		</g>
		<g>
			<g>
				<g>
					<path fill="#1E7A85" d="M925.3,238.2h27v-32.4h-27V238.2z M948.9,209V235h-16.9V209H948.9z"/>
				</g>
			</g>
		</g>
		<g>
			<g>
				<g>
					<path fill="#1E7A85" d="M925.3,405.2h27v-32.4h-27V405.2z M949,376v26h-16.9v-26H949z"/>
				</g>
			</g>
		</g>
		<g>
			<g>
				<g>
					<path fill="#1E7A85" d="M925.3,320.9h27v-32.4h-27V320.9z M948.9,291.7v25.9h-16.9v-25.9H948.9z"/>
				</g>
			</g>
		</g>
		<g>
			<g>
				<g>
					<path fill="#1E7A85" d="M925.3,362.4h27V330h-27V362.4z M948.9,333.2v26h-16.9v-26H948.9z"/>
				</g>
			</g>
		</g>
		<g>
			<g>
				<g>
					<path fill="#1E7A85" d="M925.3,488.1h27v-32.4h-27V488.1z M949,459v26h-16.9v-26H949z"/>
				</g>
			</g>
		</g>
		<g>
			<g>
				<g>
					<path fill="#1E7A85" d="M925.3,531h27v-32.4h-27V531z M949,501.8v25.9h-16.9v-25.9H949z"/>
				</g>
			</g>
		</g>
		<g>
			<g>
				<g>
					<path fill="#1E7A85" d="M925.3,445.4h27v-32.4h-27V445.4z M948.9,416.2v25.9h-16.9v-25.9H948.9z"/>
				</g>
			</g>
		</g>
	</g>
	<g>
		<g>
			<g>
				<g>
					<path fill="#1E7A85" d="M982.5,281h27v-32.4h-27V281z M1006.1,251.8v26h-16.9v-26H1006.1z"/>
				</g>
			</g>
		</g>
		<g>
			<g>
				<g>
					<path fill="#1E7A85" d="M982.4,196.6h27v-32.4h-27V196.6z M1006.1,167.4v26h-16.9v-26H1006.1z"/>
				</g>
			</g>
		</g>
		<g>
			<g>
				<g>
					<path fill="#1E7A85" d="M982.4,238.2h27v-32.4h-27V238.2z M1006.1,209V235h-16.9V209H1006.1z"/>
				</g>
			</g>
		</g>
		<g>
			<g>
				<g>
					<path fill="#1E7A85" d="M982.5,405.2h27v-32.4h-27V405.2z M1006.1,376v26h-16.9v-26H1006.1z"/>
				</g>
			</g>
		</g>
		<g>
			<g>
				<g>
					<path fill="#1E7A85" d="M982.4,320.9h27v-32.4h-27V320.9z M1006.1,291.7v25.9h-16.9v-25.9H1006.1z"/>
				</g>
			</g>
		</g>
		<g>
			<g>
				<g>
					<path fill="#1E7A85" d="M982.4,362.4h27V330h-27V362.4z M1006.1,333.2v26h-16.9v-26H1006.1z"/>
				</g>
			</g>
		</g>
		<g>
			<g>
				<g>
					<path fill="#1E7A85" d="M982.5,488.1h27v-32.4h-27V488.1z M1006.1,459v26h-16.9v-26H1006.1z"/>
				</g>
			</g>
		</g>
		<g>
			<g>
				<g>
					<path fill="#1E7A85" d="M982.5,531h27v-32.4h-27V531z M1006.1,501.8v25.9h-16.9v-25.9H1006.1z"/>
				</g>
			</g>
		</g>
		<g>
			<g>
				<g>
					<path fill="#1E7A85" d="M982.4,445.4h27v-32.4h-27V445.4z M1006.1,416.2v25.9h-16.9v-25.9H1006.1z"/>
				</g>
			</g>
		</g>
	</g>
	<g>
		<g>
			<g>
				<g>
					<path fill="#1E7A85" d="M1039.6,281h27v-32.4h-27V281z M1063.2,251.8v26h-16.9v-26H1063.2z"/>
				</g>
			</g>
		</g>
		<g>
			<g>
				<g>
					<path fill="#1E7A85" d="M1039.5,196.6h27v-32.4h-27V196.6z M1063.2,167.4v26h-16.9v-26H1063.2z"/>
				</g>
			</g>
		</g>
		<g>
			<g>
				<g>
					<path fill="#1E7A85" d="M1039.5,238.2h27v-32.4h-27V238.2z M1063.2,209V235h-16.9V209H1063.2z"/>
				</g>
			</g>
		</g>
		<g>
			<g>
				<g>
					<path fill="#1E7A85" d="M1039.6,405.2h27v-32.4h-27V405.2z M1063.2,376v26h-16.9v-26H1063.2z"/>
				</g>
			</g>
		</g>
		<g>
			<g>
				<g>
					<path fill="#1E7A85" d="M1039.5,320.9h27v-32.4h-27V320.9z M1063.2,291.7v25.9h-16.9v-25.9H1063.2z"/>
				</g>
			</g>
		</g>
		<g>
			<g>
				<g>
					<path fill="#1E7A85" d="M1039.5,362.4h27V330h-27V362.4z M1063.2,333.2v26h-16.9v-26H1063.2z"/>
				</g>
			</g>
		</g>
		<g>
			<g>
				<g>
					<path fill="#1E7A85" d="M1039.6,488.1h27v-32.4h-27V488.1z M1063.2,459v26h-16.9v-26H1063.2z"/>
				</g>
			</g>
		</g>
		<g>
			<g>
				<g>
					<path fill="#1E7A85" d="M1039.6,531h27v-32.4h-27V531z M1063.2,501.8v25.9h-16.9v-25.9H1063.2z"/>
				</g>
			</g>
		</g>
		<g>
			<g>
				<g>
					<path fill="#1E7A85" d="M1039.5,445.4h27v-32.4h-27V445.4z M1063.2,416.2v25.9h-16.9v-25.9H1063.2z"/>
				</g>
			</g>
		</g>
	</g>
	<g>
		<g>
			<g>
				<g>
					<path fill="#1E7A85" d="M1096.7,281h27v-32.4h-27V281z M1120.3,251.8v26h-16.9v-26H1120.3z"/>
				</g>
			</g>
		</g>
		<g>
			<g>
				<g>
					<path fill="#1E7A85" d="M1096.6,196.6h27v-32.4h-27V196.6z M1120.3,167.4v26h-16.9v-26H1120.3z"/>
				</g>
			</g>
		</g>
		<g>
			<g>
				<g>
					<path fill="#1E7A85" d="M1096.6,238.2h27v-32.4h-27V238.2z M1120.3,209V235h-16.9V209H1120.3z"/>
				</g>
			</g>
		</g>
		<g>
			<g>
				<g>
					<path fill="#1E7A85" d="M1096.7,405.2h27v-32.4h-27V405.2z M1120.3,376v26h-16.9v-26H1120.3z"/>
				</g>
			</g>
		</g>
		<g>
			<g>
				<g>
					<path fill="#1E7A85" d="M1096.6,320.9h27v-32.4h-27V320.9z M1120.3,291.7v25.9h-16.9v-25.9H1120.3z"/>
				</g>
			</g>
		</g>
		<g>
			<g>
				<g>
					<path fill="#1E7A85" d="M1096.6,362.4h27V330h-27V362.4z M1120.3,333.2v26h-16.9v-26H1120.3z"/>
				</g>
			</g>
		</g>
		<g>
			<g>
				<g>
					<path fill="#1E7A85" d="M1096.7,488.1h27v-32.4h-27V488.1z M1120.3,459v26h-16.9v-26H1120.3z"/>
				</g>
			</g>
		</g>
		<g>
			<g>
				<g>
					<path fill="#1E7A85" d="M1096.7,531h27v-32.4h-27V531z M1120.3,501.8v25.9h-16.9v-25.9H1120.3z"/>
				</g>
			</g>
		</g>
		<g>
			<g>
				<g>
					<path fill="#1E7A85" d="M1096.6,445.4h27v-32.4h-27V445.4z M1120.3,416.2v25.9h-16.9v-25.9H1120.3z"/>
				</g>
			</g>
		</g>
	</g>
	<g>
		<g>
			<g>
				<g>
					<path fill="#1E7A85" d="M1153.8,281h27v-32.4h-27V281z M1177.4,251.8v26h-16.9v-26H1177.4z"/>
				</g>
			</g>
		</g>
		<g>
			<g>
				<g>
					<path fill="#1E7A85" d="M1153.7,238.2h27v-32.4h-27V238.2z M1177.4,209V235h-16.9V209H1177.4z"/>
				</g>
			</g>
		</g>
		<g>
			<g>
				<g>
					<path fill="#1E7A85" d="M1153.8,405.2h27v-32.4h-27V405.2z M1177.4,376v26h-16.9v-26H1177.4z"/>
				</g>
			</g>
		</g>
		<g>
			<g>
				<g>
					<path fill="#1E7A85" d="M1153.7,320.9h27v-32.4h-27V320.9z M1177.4,291.7v25.9h-16.9v-25.9H1177.4z"/>
				</g>
			</g>
		</g>
		<g>
			<g>
				<g>
					<path fill="#1E7A85" d="M1153.7,362.4h27V330h-27V362.4z M1177.4,333.2v26h-16.9v-26H1177.4z"/>
				</g>
			</g>
		</g>
		<g>
			<g>
				<g>
					<path fill="#1E7A85" d="M1153.8,488.1h27v-32.4h-27V488.1z M1177.4,459v26h-16.9v-26H1177.4z"/>
				</g>
			</g>
		</g>
		<g>
			<g>
				<g>
					<path fill="#1E7A85" d="M1153.8,531h27v-32.4h-27V531z M1177.4,501.8v25.9h-16.9v-25.9H1177.4z"/>
				</g>
			</g>
		</g>
		<g>
			<g>
				<g>
					<path fill="#1E7A85" d="M1153.7,445.4h27v-32.4h-27V445.4z M1177.4,416.2v25.9h-16.9v-25.9H1177.4z"/>
				</g>
			</g>
		</g>
	</g>
</g>
</svg>
