<?xml version="1.0" encoding="utf-8"?>
<!-- Generator: Adobe Illustrator 18.1.1, SVG Export Plug-In . SVG Version: 6.00 Build 0)  -->
<!DOCTYPE svg PUBLIC "-//W3C//DTD SVG 1.1//EN" "http://www.w3.org/Graphics/SVG/1.1/DTD/svg11.dtd">
<svg version="1.1" id="Layer_1" xmlns="http://www.w3.org/2000/svg" xmlns:xlink="http://www.w3.org/1999/xlink" x="0px" y="0px"
	 viewBox="0 0 881 600" enable-background="new 0 0 881 600" xml:space="preserve">
<rect fill="none" width="881" height="600"/>
<g>
	<g>
		<g>
			<path fill="#1E7A85" d="M100.2,362.9h12.1v-14.5h-12.1V362.9z M110.7,349.9v11.6h-7.5v-11.6H110.7z"/>
		</g>
	</g>
</g>
<g>
	<g>
		<g>
			<path fill="#1E7A85" d="M100.2,434.4h12.1v-14.5h-12.1V434.4z M110.7,421.4v11.6h-7.5v-11.6H110.7z"/>
		</g>
	</g>
</g>
<g>
	<g>
		<g>
			<path fill="#1E7A85" d="M100.2,416.6h12.1v-14.5h-12.1V416.6z M110.7,403.6v11.6h-7.5v-11.6H110.7z"/>
		</g>
	</g>
</g>
<g>
	<g>
		<g>
			<path fill="#1E7A85" d="M100.2,398.5h12.1V384h-12.1V398.5z M110.7,385.4V397h-7.5v-11.6H110.7z"/>
		</g>
	</g>
</g>
<g>
	<g>
		<g>
			<path fill="#1E7A85" d="M100.2,380.7h12.1v-14.5h-12.1V380.7z M110.7,367.7v11.6h-7.5v-11.6H110.7z"/>
		</g>
	</g>
</g>
<g>
	<g>
		<g>
			<path fill="#1E7A85" d="M100.2,205.5h12.1V191h-12.1V205.5z M110.7,192.4V204h-7.5v-11.6H110.7z"/>
		</g>
	</g>
</g>
<g>
	<g>
		<g>
			<path fill="#1E7A85" d="M100.2,187.7h12.1v-14.5h-12.1V187.7z M110.7,174.6v11.6h-7.5v-11.6H110.7z"/>
		</g>
	</g>
</g>
<g>
	<g>
		<g>
			<path fill="#1E7A85" d="M100.2,169.5h12.1v-14.5h-12.1V169.5z M110.7,156.5v11.6h-7.5v-11.6H110.7z"/>
		</g>
	</g>
</g>
<g>
	<g>
		<g>
			<path fill="#1E7A85" d="M100.2,151.7h12.1v-14.5h-12.1V151.7z M110.7,138.7v11.6h-7.5v-11.6H110.7z"/>
		</g>
	</g>
</g>
<g>
	<g>
		<g>
			<path fill="#1E7A85" d="M100.2,276.9h12.1v-14.5h-12.1V276.9z M110.7,263.9v11.6h-7.5v-11.6H110.7z"/>
		</g>
	</g>
</g>
<g>
	<g>
		<g>
			<path fill="#1E7A85" d="M100.2,294.7h12.1v-14.5h-12.1V294.7z M110.7,281.7v11.6h-7.5v-11.6H110.7z"/>
		</g>
	</g>
</g>
<g>
	<g>
		<g>
			<path fill="#1E7A85" d="M100.2,345.1h12.1v-14.5h-12.1V345.1z M110.7,332.1v11.6h-7.5v-11.6H110.7z"/>
		</g>
	</g>
</g>
<g>
	<g>
		<g>
			<path fill="#1E7A85" d="M100.2,487.8h12.1v-14.5h-12.1V487.8z M110.7,474.7v11.6h-7.5v-11.6H110.7z"/>
		</g>
	</g>
</g>
<g>
	<g>
		<g>
			<path fill="#1E7A85" d="M100.2,470h12.1v-14.5h-12.1V470z M110.7,456.9v11.6h-7.5v-11.6H110.7z"/>
		</g>
	</g>
</g>
<g>
	<g>
		<g>
			<path fill="#1E7A85" d="M144.2,539V527h-14.5V539H144.2z M131.1,528.5h11.6v7.5h-11.6V528.5z"/>
		</g>
	</g>
</g>
<g>
	<g>
		<g>
			<path fill="#1E7A85" d="M126.7,539V527h-14.5V539H126.7z M113.7,528.5h11.6v7.5h-11.6V528.5z"/>
		</g>
	</g>
</g>
<g>
	<g>
		<g>
			<path fill="#1E7A85" d="M112.2,86.4v12.1h14.5V86.4H112.2z M125.2,96.9h-11.6v-7.5h11.6V96.9z"/>
		</g>
	</g>
</g>
<g>
	<g>
		<g>
			<path fill="#1E7A85" d="M130,86.4v12.1h14.5V86.4H130z M143,96.9h-11.6v-7.5H143V96.9z"/>
		</g>
	</g>
</g>
<g>
	<g>
		<g>
			<path fill="#1E7A85" d="M161.6,539V527h-14.5V539H161.6z M148.6,528.5h11.6v7.5h-11.6V528.5z"/>
		</g>
	</g>
</g>
<g>
	<g>
		<g>
			<path fill="#1E7A85" d="M100.2,452.2h12.1v-14.5h-12.1V452.2z M110.7,439.2v11.6h-7.5v-11.6H110.7z"/>
		</g>
	</g>
</g>
<g>
	<g>
		<g>
			<path fill="#1E7A85" d="M100.2,259.2h12.1v-14.5h-12.1V259.2z M110.7,246.1v11.6h-7.5v-11.6H110.7z"/>
		</g>
	</g>
</g>
<g>
	<g>
		<g>
			<path fill="#1E7A85" d="M100.2,241h12.1v-14.5h-12.1V241z M110.7,228v11.6h-7.5V228H110.7z"/>
		</g>
	</g>
</g>
<g>
	<g>
		<g>
			<path fill="#1E7A85" d="M100.2,223.2h12.1v-14.5h-12.1V223.2z M110.7,210.2v11.6h-7.5v-11.6H110.7z"/>
		</g>
	</g>
</g>
<g>
	<g>
		<g>
			<path fill="#1E7A85" d="M397.8,86.4v12.1h14.5V86.4H397.8z M410.8,96.9h-11.6v-7.5h11.6V96.9z"/>
		</g>
	</g>
</g>
<g>
	<g>
		<g>
			<path fill="#1E7A85" d="M415.6,86.4v12.1h14.5V86.4H415.6z M428.6,96.9h-11.6v-7.5h11.6V96.9z"/>
		</g>
	</g>
</g>
<g>
	<g>
		<g>
			<path fill="#1E7A85" d="M433.8,86.4v12.1h14.5V86.4H433.8z M446.8,96.9h-11.6v-7.5h11.6V96.9z"/>
		</g>
	</g>
</g>
<g>
	<g>
		<g>
			<path fill="#1E7A85" d="M451.5,86.4v12.1H466V86.4H451.5z M464.6,96.9H453v-7.5h11.6V96.9z"/>
		</g>
	</g>
</g>
<g>
	<g>
		<g>
			<path fill="#1E7A85" d="M326.3,86.4v12.1h14.5V86.4H326.3z M339.4,96.9h-11.6v-7.5h11.6V96.9z"/>
		</g>
	</g>
</g>
<g>
	<g>
		<g>
			<path fill="#1E7A85" d="M344.1,86.4v12.1h14.5V86.4H344.1z M357.1,96.9h-11.6v-7.5h11.6V96.9z"/>
		</g>
	</g>
</g>
<g>
	<g>
		<g>
			<path fill="#1E7A85" d="M362.3,86.4v12.1h14.5V86.4H362.3z M375.3,96.9h-11.6v-7.5h11.6V96.9z"/>
		</g>
	</g>
</g>
<g>
	<g>
		<g>
			<path fill="#1E7A85" d="M380,86.4v12.1h14.5V86.4H380z M393.1,96.9h-11.6v-7.5h11.6V96.9z"/>
		</g>
	</g>
</g>
<g>
	<g>
		<g>
			<path fill="#1E7A85" d="M540.8,86.4v12.1h14.5V86.4H540.8z M553.8,96.9h-11.6v-7.5h11.6V96.9z"/>
		</g>
	</g>
</g>
<g>
	<g>
		<g>
			<path fill="#1E7A85" d="M558.6,86.4v12.1h14.5V86.4H558.6z M571.6,96.9h-11.6v-7.5h11.6V96.9z"/>
		</g>
	</g>
</g>
<g>
	<g>
		<g>
			<path fill="#1E7A85" d="M576.3,86.4v12.1h14.5V86.4H576.3z M589.3,96.9h-11.6v-7.5h11.6V96.9z"/>
		</g>
	</g>
</g>
<g>
	<g>
		<g>
			<path fill="#1E7A85" d="M100.2,134.2h12.1v-14.5h-12.1V134.2z M110.7,121.1v11.6h-7.5v-11.6H110.7z"/>
		</g>
	</g>
</g>
<g>
	<g>
		<g>
			<path fill="#1E7A85" d="M100.2,116.4h12.1v-14.5h-12.1V116.4z M110.7,103.3v11.6h-7.5v-11.6H110.7z"/>
		</g>
	</g>
</g>
<g>
	<g>
		<g>
			<path fill="#1E7A85" d="M469.3,86.4v12.1h14.5V86.4H469.3z M482.3,96.9h-11.6v-7.5h11.6V96.9z"/>
		</g>
	</g>
</g>
<g>
	<g>
		<g>
			<path fill="#1E7A85" d="M273,86.4v12.1h14.5V86.4H273z M286,96.9h-11.6v-7.5H286V96.9z"/>
		</g>
	</g>
</g>
<g>
	<g>
		<g>
			<path fill="#1E7A85" d="M290.8,86.4v12.1h14.5V86.4H290.8z M303.8,96.9h-11.6v-7.5h11.6V96.9z"/>
		</g>
	</g>
</g>
<g>
	<g>
		<g>
			<path fill="#1E7A85" d="M308.5,86.4v12.1H323V86.4H308.5z M321.6,96.9H310v-7.5h11.6V96.9z"/>
		</g>
	</g>
</g>
<g>
	<g>
		<g>
			<path fill="#1E7A85" d="M219.3,86.4v12.1h14.5V86.4H219.3z M232.3,96.9h-11.6v-7.5h11.6V96.9z"/>
		</g>
	</g>
</g>
<g>
	<g>
		<g>
			<path fill="#1E7A85" d="M237.1,86.4v12.1h14.5V86.4H237.1z M250.1,96.9h-11.6v-7.5h11.6V96.9z"/>
		</g>
	</g>
</g>
<g>
	<g>
		<g>
			<path fill="#1E7A85" d="M255.2,86.4v12.1h14.5V86.4H255.2z M268.2,96.9h-11.6v-7.5h11.6V96.9z"/>
		</g>
	</g>
</g>
<g>
	<g>
		<g>
			<path fill="#1E7A85" d="M183.7,86.4v12.1h14.5V86.4H183.7z M196.7,96.9h-11.6v-7.5h11.6V96.9z"/>
		</g>
	</g>
</g>
<g>
	<g>
		<g>
			<path fill="#1E7A85" d="M594,86.4v12.1h14.5V86.4H594z M607.1,96.9h-11.6v-7.5h11.6V96.9z"/>
		</g>
	</g>
</g>
<g>
	<g>
		<g>
			<path fill="#1E7A85" d="M201.5,86.4v12.1H216V86.4H201.5z M214.5,96.9h-11.6v-7.5h11.6V96.9z"/>
		</g>
	</g>
</g>
<g>
	<g>
		<g>
			<path fill="#1E7A85" d="M487.1,86.4v12.1h14.5V86.4H487.1z M500.1,96.9h-11.6v-7.5h11.6V96.9z"/>
		</g>
	</g>
</g>
<g>
	<g>
		<g>
			<path fill="#1E7A85" d="M505.2,86.4v12.1h14.5V86.4H505.2z M518.3,96.9h-11.6v-7.5h11.6V96.9z"/>
		</g>
	</g>
</g>
<g>
	<g>
		<g>
			<path fill="#1E7A85" d="M523,86.4v12.1h14.5V86.4H523z M536.1,96.9h-11.6v-7.5h11.6V96.9z"/>
		</g>
	</g>
</g>
<g>
	<g>
		<g>
			<path fill="#1E7A85" d="M371.3,539V527h-14.5V539H371.3z M358.3,528.5h11.6v7.5h-11.6V528.5z"/>
		</g>
	</g>
</g>
<g>
	<g>
		<g>
			<path fill="#1E7A85" d="M353.8,539V527h-14.5V539H353.8z M340.8,528.5h11.6v7.5h-11.6V528.5z"/>
		</g>
	</g>
</g>
<g>
	<g>
		<g>
			<path fill="#1E7A85" d="M336.4,539V527h-14.5V539H336.4z M323.3,528.5h11.6v7.5h-11.6V528.5z"/>
		</g>
	</g>
</g>
<g>
	<g>
		<g>
			<path fill="#1E7A85" d="M318.9,539V527h-14.5V539H318.9z M305.9,528.5h11.6v7.5h-11.6V528.5z"/>
		</g>
	</g>
</g>
<g>
	<g>
		<g>
			<path fill="#1E7A85" d="M441.2,539V527h-14.5V539H441.2z M428.2,528.5h11.6v7.5h-11.6V528.5z"/>
		</g>
	</g>
</g>
<g>
	<g>
		<g>
			<path fill="#1E7A85" d="M423.7,539V527h-14.5V539H423.7z M410.7,528.5h11.6v7.5h-11.6V528.5z"/>
		</g>
	</g>
</g>
<g>
	<g>
		<g>
			<path fill="#1E7A85" d="M406.3,539V527h-14.5V539H406.3z M393.2,528.5h11.6v7.5h-11.6V528.5z"/>
		</g>
	</g>
</g>
<g>
	<g>
		<g>
			<path fill="#1E7A85" d="M388.8,539V527h-14.5V539H388.8z M375.8,528.5h11.6v7.5h-11.6V528.5z"/>
		</g>
	</g>
</g>
<g>
	<g>
		<g>
			<path fill="#1E7A85" d="M231.5,539V527h-14.5V539H231.5z M218.5,528.5h11.6v7.5h-11.6V528.5z"/>
		</g>
	</g>
</g>
<g>
	<g>
		<g>
			<path fill="#1E7A85" d="M214,539V527h-14.5V539H214z M201,528.5h11.6v7.5H201V528.5z"/>
		</g>
	</g>
</g>
<g>
	<g>
		<g>
			<path fill="#1E7A85" d="M196.6,539V527h-14.5V539H196.6z M183.5,528.5h11.6v7.5h-11.6V528.5z"/>
		</g>
	</g>
</g>
<g>
	<g>
		<g>
			<path fill="#1E7A85" d="M179.1,539V527h-14.5V539H179.1z M166.1,528.5h11.6v7.5h-11.6V528.5z"/>
		</g>
	</g>
</g>
<g>
	<g>
		<g>
			<path fill="#1E7A85" d="M301.4,539V527h-14.5V539H301.4z M288.4,528.5H300v7.5h-11.6V528.5z"/>
		</g>
	</g>
</g>
<g>
	<g>
		<g>
			<path fill="#1E7A85" d="M493.6,539V527h-14.5V539H493.6z M480.6,528.5h11.6v7.5h-11.6V528.5z"/>
		</g>
	</g>
</g>
<g>
	<g>
		<g>
			<path fill="#1E7A85" d="M476.2,539V527h-14.5V539H476.2z M463.1,528.5h11.6v7.5h-11.6V528.5z"/>
		</g>
	</g>
</g>
<g>
	<g>
		<g>
			<path fill="#1E7A85" d="M458.7,539V527h-14.5V539H458.7z M445.7,528.5h11.6v7.5h-11.6V528.5z"/>
		</g>
	</g>
</g>
<g>
	<g>
		<g>
			<path fill="#1E7A85" d="M528.6,539V527h-14.5V539H528.6z M515.6,528.5h11.6v7.5h-11.6V528.5z"/>
		</g>
	</g>
</g>
<g>
	<g>
		<g>
			<path fill="#1E7A85" d="M511.1,539V527h-14.5V539H511.1z M498.1,528.5h11.6v7.5h-11.6V528.5z"/>
		</g>
	</g>
</g>
<g>
	<g>
		<g>
			<path fill="#1E7A85" d="M563.5,539V527h-14.5V539H563.5z M550.5,528.5h11.6v7.5h-11.6V528.5z"/>
		</g>
	</g>
</g>
<g>
	<g>
		<g>
			<path fill="#1E7A85" d="M581,539V527h-14.5V539H581z M568,528.5h11.6v7.5H568V528.5z"/>
		</g>
	</g>
</g>
<g>
	<g>
		<g>
			<path fill="#1E7A85" d="M546,539V527h-14.5V539H546z M533,528.5h11.6v7.5H533V528.5z"/>
		</g>
	</g>
</g>
<g>
	<g>
		<g>
			<path fill="#1E7A85" d="M283.9,539V527h-14.5V539H283.9z M270.9,528.5h11.6v7.5h-11.6V528.5z"/>
		</g>
	</g>
</g>
<g>
	<g>
		<g>
			<path fill="#1E7A85" d="M266.5,539V527H252V539H266.5z M253.4,528.5H265v7.5h-11.6V528.5z"/>
		</g>
	</g>
</g>
<g>
	<g>
		<g>
			<path fill="#1E7A85" d="M249,539V527h-14.5V539H249z M236,528.5h11.6v7.5H236V528.5z"/>
		</g>
	</g>
</g>
<g>
	<g>
		<g>
			<path fill="#1E7A85" d="M100.2,523.1h12.1v-14.5h-12.1V523.1z M110.7,510.1v11.6h-7.5v-11.6H110.7z"/>
		</g>
	</g>
</g>
<g>
	<g>
		<g>
			<path fill="#1E7A85" d="M100.2,505.3h12.1v-14.5h-12.1V505.3z M110.7,492.3v11.6h-7.5v-11.6H110.7z"/>
		</g>
	</g>
</g>
</svg>
