<?xml version="1.0" encoding="utf-8"?>
<!-- Generator: Adobe Illustrator 18.1.1, SVG Export Plug-In . SVG Version: 6.00 Build 0)  -->
<!DOCTYPE svg PUBLIC "-//W3C//DTD SVG 1.1//EN" "http://www.w3.org/Graphics/SVG/1.1/DTD/svg11.dtd">
<svg version="1.1" id="Layer_1" xmlns="http://www.w3.org/2000/svg" xmlns:xlink="http://www.w3.org/1999/xlink" x="0px" y="0px"
	 viewBox="0 0 1920 1080" enable-background="new 0 0 1920 1080" xml:space="preserve">
<g>
	<g>
		<g>
			<g>
				<path fill="#1E7A85" d="M346.8,653.2h21.7v-26h-21.7V653.2z M365.8,629.8v20.8h-13.6v-20.8H365.8z"/>
			</g>
		</g>
	</g>
	<g>
		<g>
			<g>
				<path fill="#1E7A85" d="M346.8,781.9h21.7v-26h-21.7V781.9z M365.8,758.5v20.8h-13.6v-20.8H365.8z"/>
			</g>
		</g>
	</g>
	<g>
		<g>
			<g>
				<path fill="#1E7A85" d="M346.8,749.9h21.7v-26.1h-21.7V749.9z M365.8,726.5v20.8h-13.6v-20.8H365.8z"/>
			</g>
		</g>
	</g>
	<g>
		<g>
			<g>
				<path fill="#1E7A85" d="M346.8,717.3h21.7v-26h-21.7V717.3z M365.8,693.8v20.8h-13.6v-20.8H365.8z"/>
			</g>
		</g>
	</g>
	<g>
		<g>
			<g>
				<path fill="#1E7A85" d="M346.8,685.3h21.7v-26h-21.7V685.3z M365.8,661.8v20.8h-13.6v-20.8H365.8z"/>
			</g>
		</g>
	</g>
	<g>
		<g>
			<g>
				<path fill="#1E7A85" d="M346.8,369.8h21.7v-26h-21.7V369.8z M365.8,346.4v20.8h-13.6v-20.8H365.8z"/>
			</g>
		</g>
	</g>
	<g>
		<g>
			<g>
				<path fill="#1E7A85" d="M346.8,337.8h21.7v-26h-21.7V337.8z M365.8,314.3v20.8h-13.6v-20.8H365.8z"/>
			</g>
		</g>
	</g>
	<g>
		<g>
			<g>
				<path fill="#1E7A85" d="M346.8,305.1h21.7v-26h-21.7V305.1z M365.8,281.7v20.8h-13.6v-20.8H365.8z"/>
			</g>
		</g>
	</g>
	<g>
		<g>
			<g>
				<path fill="#1E7A85" d="M346.8,273.1h21.7v-26h-21.7V273.1z M365.8,249.7v20.8h-13.6v-20.8H365.8z"/>
			</g>
		</g>
	</g>
	<g>
		<g>
			<g>
				<path fill="#1E7A85" d="M346.8,498.5h21.7v-26h-21.7V498.5z M365.8,475.1v20.8h-13.6v-20.8H365.8z"/>
			</g>
		</g>
	</g>
	<g>
		<g>
			<g>
				<path fill="#1E7A85" d="M346.8,530.5h21.7v-26.1h-21.7V530.5z M365.8,507.1v20.8h-13.6v-20.8H365.8z"/>
			</g>
		</g>
	</g>
	<g>
		<g>
			<g>
				<path fill="#1E7A85" d="M346.8,621.2h21.7v-26h-21.7V621.2z M365.8,597.8v20.8h-13.6v-20.8H365.8z"/>
			</g>
		</g>
	</g>
	<g>
		<g>
			<g>
				<path fill="#1E7A85" d="M346.8,878h21.7v-26h-21.7V878z M365.8,854.5v20.8h-13.6v-20.8H365.8z"/>
			</g>
		</g>
	</g>
	<g>
		<g>
			<g>
				<path fill="#1E7A85" d="M346.8,846h21.7v-26h-21.7V846z M365.8,822.5v20.8h-13.6v-20.8H365.8z"/>
			</g>
		</g>
	</g>
	<g>
		<g>
			<g>
				<path fill="#1E7A85" d="M426,970.3v-21.7h-26v21.7H426z M402.6,951.3h20.8v13.6h-20.8V951.3z"/>
			</g>
		</g>
	</g>
	<g>
		<g>
			<g>
				<path fill="#1E7A85" d="M394.6,970.3v-21.7h-26v21.7H394.6z M371.1,951.3H392v13.6h-20.8V951.3z"/>
			</g>
		</g>
	</g>
	<g>
		<g>
			<g>
				<path fill="#1E7A85" d="M368.5,155.4v21.7h26v-21.7H368.5z M392,174.4h-20.8v-13.6H392V174.4z"/>
			</g>
		</g>
	</g>
	<g>
		<g>
			<g>
				<path fill="#1E7A85" d="M400.5,155.4v21.7h26.1v-21.7H400.5z M424,174.4h-20.8v-13.6H424V174.4z"/>
			</g>
		</g>
	</g>
	<g>
		<g>
			<g>
				<path fill="#1E7A85" d="M457.5,970.3v-21.7h-26v21.7H457.5z M434,951.3h20.8v13.6H434V951.3z"/>
			</g>
		</g>
	</g>
	<g>
		<g>
			<g>
				<path fill="#1E7A85" d="M346.8,814h21.7v-26h-21.7V814z M365.8,790.5v20.8h-13.6v-20.8H365.8z"/>
			</g>
		</g>
	</g>
	<g>
		<g>
			<g>
				<path fill="#1E7A85" d="M346.8,466.5h21.7v-26h-21.7V466.5z M365.8,443v20.8h-13.6V443H365.8z"/>
			</g>
		</g>
	</g>
	<g>
		<g>
			<g>
				<path fill="#1E7A85" d="M346.8,433.8h21.7v-26h-21.7V433.8z M365.8,410.4v20.8h-13.6v-20.8H365.8z"/>
			</g>
		</g>
	</g>
	<g>
		<g>
			<g>
				<path fill="#1E7A85" d="M346.8,401.8h21.7v-26h-21.7V401.8z M365.8,378.4v20.8h-13.6v-20.8H365.8z"/>
			</g>
		</g>
	</g>
	<g>
		<g>
			<g>
				<path fill="#1E7A85" d="M882.7,155.4v21.7h26v-21.7H882.7z M906.1,174.4h-20.8v-13.6h20.8V174.4z"/>
			</g>
		</g>
	</g>
	<g>
		<g>
			<g>
				<path fill="#1E7A85" d="M914.7,155.4v21.7h26v-21.7H914.7z M938.2,174.4h-20.8v-13.6h20.8V174.4z"/>
			</g>
		</g>
	</g>
	<g>
		<g>
			<g>
				<path fill="#1E7A85" d="M947.4,155.4v21.7h26.1v-21.7H947.4z M970.8,174.4H950v-13.6h20.8V174.4z"/>
			</g>
		</g>
	</g>
	<g>
		<g>
			<g>
				<path fill="#1E7A85" d="M979.4,155.4v21.7h26v-21.7H979.4z M1002.8,174.4H982v-13.6h20.8V174.4z"/>
			</g>
		</g>
	</g>
	<g>
		<g>
			<g>
				<path fill="#1E7A85" d="M754,155.4v21.7h26v-21.7H754z M777.4,174.4h-20.8v-13.6h20.8V174.4z"/>
			</g>
		</g>
	</g>
	<g>
		<g>
			<g>
				<path fill="#1E7A85" d="M786,155.4v21.7h26v-21.7H786z M809.5,174.4h-20.8v-13.6h20.8V174.4z"/>
			</g>
		</g>
	</g>
	<g>
		<g>
			<g>
				<path fill="#1E7A85" d="M818.7,155.4v21.7h26.1v-21.7H818.7z M842.1,174.4h-20.8v-13.6h20.8V174.4z"/>
			</g>
		</g>
	</g>
	<g>
		<g>
			<g>
				<path fill="#1E7A85" d="M850.7,155.4v21.7h26v-21.7H850.7z M874.1,174.4h-20.8v-13.6h20.8V174.4z"/>
			</g>
		</g>
	</g>
	<g>
		<g>
			<g>
				<path fill="#1E7A85" d="M1140.1,155.4v21.7h26v-21.7H1140.1z M1163.6,174.4h-20.8v-13.6h20.8V174.4z"/>
			</g>
		</g>
	</g>
	<g>
		<g>
			<g>
				<path fill="#1E7A85" d="M1172.1,155.4v21.7h26v-21.7H1172.1z M1195.6,174.4h-20.8v-13.6h20.8V174.4z"/>
			</g>
		</g>
	</g>
	<g>
		<g>
			<g>
				<path fill="#1E7A85" d="M1203.9,155.4v21.7h26v-21.7H1203.9z M1227.4,174.4h-20.8v-13.6h20.8V174.4z"/>
			</g>
		</g>
	</g>
	<g>
		<g>
			<g>
				<path fill="#1E7A85" d="M346.8,241.4h21.7v-26h-21.7V241.4z M365.8,218v20.8h-13.6V218H365.8z"/>
			</g>
		</g>
	</g>
	<g>
		<g>
			<g>
				<path fill="#1E7A85" d="M346.8,209.4h21.7v-26h-21.7V209.4z M365.8,186v20.8h-13.6V186H365.8z"/>
			</g>
		</g>
	</g>
	<g>
		<g>
			<g>
				<path fill="#1E7A85" d="M1011.4,155.4v21.7h26v-21.7H1011.4z M1034.9,174.4H1014v-13.6h20.8V174.4z"/>
			</g>
		</g>
	</g>
	<g>
		<g>
			<g>
				<path fill="#1E7A85" d="M657.9,155.4v21.7H684v-21.7H657.9z M681.4,174.4h-20.8v-13.6h20.8V174.4z"/>
			</g>
		</g>
	</g>
	<g>
		<g>
			<g>
				<path fill="#1E7A85" d="M690,155.4v21.7h26v-21.7H690z M713.4,174.4h-20.8v-13.6h20.8V174.4z"/>
			</g>
		</g>
	</g>
	<g>
		<g>
			<g>
				<path fill="#1E7A85" d="M722,155.4v21.7h26v-21.7H722z M745.4,174.4h-20.8v-13.6h20.8V174.4z"/>
			</g>
		</g>
	</g>
	<g>
		<g>
			<g>
				<path fill="#1E7A85" d="M561.3,155.4v21.7h26v-21.7H561.3z M584.7,174.4h-20.8v-13.6h20.8V174.4z"/>
			</g>
		</g>
	</g>
	<g>
		<g>
			<g>
				<path fill="#1E7A85" d="M593.3,155.4v21.7h26v-21.7H593.3z M616.7,174.4h-20.8v-13.6h20.8V174.4z"/>
			</g>
		</g>
	</g>
	<g>
		<g>
			<g>
				<path fill="#1E7A85" d="M625.9,155.4v21.7h26v-21.7H625.9z M649.4,174.4h-20.8v-13.6h20.8V174.4z"/>
			</g>
		</g>
	</g>
	<g>
		<g>
			<g>
				<path fill="#1E7A85" d="M497.2,155.4v21.7h26v-21.7H497.2z M520.7,174.4h-20.8v-13.6h20.8V174.4z"/>
			</g>
		</g>
	</g>
	<g>
		<g>
			<g>
				<path fill="#1E7A85" d="M1235.9,155.4v21.7h26v-21.7H1235.9z M1259.4,174.4h-20.8v-13.6h20.8V174.4z"/>
			</g>
		</g>
	</g>
	<g>
		<g>
			<g>
				<path fill="#1E7A85" d="M529.3,155.4v21.7h26v-21.7H529.3z M552.7,174.4h-20.8v-13.6h20.8V174.4z"/>
			</g>
		</g>
	</g>
	<g>
		<g>
			<g>
				<path fill="#1E7A85" d="M1043.4,155.4v21.7h26v-21.7H1043.4z M1066.9,174.4H1046v-13.6h20.8V174.4z"/>
			</g>
		</g>
	</g>
	<g>
		<g>
			<g>
				<path fill="#1E7A85" d="M1076.1,155.4v21.7h26v-21.7H1076.1z M1099.5,174.4h-20.8v-13.6h20.8V174.4z"/>
			</g>
		</g>
	</g>
	<g>
		<g>
			<g>
				<path fill="#1E7A85" d="M1108.1,155.4v21.7h26v-21.7H1108.1z M1131.5,174.4h-20.8v-13.6h20.8V174.4z"/>
			</g>
		</g>
	</g>
	<g>
		<g>
			<g>
				<path fill="#1E7A85" d="M835,970.3v-21.7h-26.1v21.7H835z M811.5,951.3h20.8v13.6h-20.8V951.3z"/>
			</g>
		</g>
	</g>
	<g>
		<g>
			<g>
				<path fill="#1E7A85" d="M803.5,970.3v-21.7h-26.1v21.7H803.5z M780.1,951.3h20.8v13.6h-20.8V951.3z"/>
			</g>
		</g>
	</g>
	<g>
		<g>
			<g>
				<path fill="#1E7A85" d="M772.1,970.3v-21.7H746v21.7H772.1z M748.6,951.3h20.8v13.6h-20.8V951.3z"/>
			</g>
		</g>
	</g>
	<g>
		<g>
			<g>
				<path fill="#1E7A85" d="M740.6,970.3v-21.7h-26v21.7H740.6z M717.2,951.3H738v13.6h-20.8V951.3z"/>
			</g>
		</g>
	</g>
	<g>
		<g>
			<g>
				<path fill="#1E7A85" d="M960.8,970.3v-21.7h-26v21.7H960.8z M937.4,951.3h20.8v13.6h-20.8V951.3z"/>
			</g>
		</g>
	</g>
	<g>
		<g>
			<g>
				<path fill="#1E7A85" d="M929.3,970.3v-21.7h-26v21.7H929.3z M905.9,951.3h20.8v13.6h-20.8V951.3z"/>
			</g>
		</g>
	</g>
	<g>
		<g>
			<g>
				<path fill="#1E7A85" d="M897.9,970.3v-21.7h-26v21.7H897.9z M874.4,951.3h20.8v13.6h-20.8V951.3z"/>
			</g>
		</g>
	</g>
	<g>
		<g>
			<g>
				<path fill="#1E7A85" d="M866.4,970.3v-21.7h-26v21.7H866.4z M843,951.3h20.8v13.6H843V951.3z"/>
			</g>
		</g>
	</g>
	<g>
		<g>
			<g>
				<path fill="#1E7A85" d="M583.3,970.3v-21.7h-26v21.7H583.3z M559.9,951.3h20.8v13.6h-20.8V951.3z"/>
			</g>
		</g>
	</g>
	<g>
		<g>
			<g>
				<path fill="#1E7A85" d="M551.9,970.3v-21.7h-26v21.7H551.9z M528.4,951.3h20.8v13.6h-20.8V951.3z"/>
			</g>
		</g>
	</g>
	<g>
		<g>
			<g>
				<path fill="#1E7A85" d="M520.4,970.3v-21.7h-26v21.7H520.4z M497,951.3h20.8v13.6H497V951.3z"/>
			</g>
		</g>
	</g>
	<g>
		<g>
			<g>
				<path fill="#1E7A85" d="M488.9,970.3v-21.7h-26v21.7H488.9z M465.5,951.3h20.8v13.6h-20.8V951.3z"/>
			</g>
		</g>
	</g>
	<g>
		<g>
			<g>
				<path fill="#1E7A85" d="M709.1,970.3v-21.7h-26v21.7H709.1z M685.7,951.3h20.8v13.6h-20.8V951.3z"/>
			</g>
		</g>
	</g>
	<g>
		<g>
			<g>
				<path fill="#1E7A85" d="M1055.2,970.3v-21.7h-26v21.7H1055.2z M1031.7,951.3h20.8v13.6h-20.8V951.3z"/>
			</g>
		</g>
	</g>
	<g>
		<g>
			<g>
				<path fill="#1E7A85" d="M1023.7,970.3v-21.7h-26v21.7H1023.7z M1000.3,951.3h20.8v13.6h-20.8V951.3z"/>
			</g>
		</g>
	</g>
	<g>
		<g>
			<g>
				<path fill="#1E7A85" d="M992.3,970.3v-21.7h-26v21.7H992.3z M968.8,951.3h20.8v13.6h-20.8V951.3z"/>
			</g>
		</g>
	</g>
	<g>
		<g>
			<g>
				<path fill="#1E7A85" d="M1118.1,970.3v-21.7h-26v21.7H1118.1z M1094.6,951.3h20.8v13.6h-20.8V951.3z"/>
			</g>
		</g>
	</g>
	<g>
		<g>
			<g>
				<path fill="#1E7A85" d="M1086.6,970.3v-21.7h-26v21.7H1086.6z M1063.2,951.3h20.8v13.6h-20.8V951.3z"/>
			</g>
		</g>
	</g>
	<g>
		<g>
			<g>
				<path fill="#1E7A85" d="M1181,970.3v-21.7h-26v21.7H1181z M1157.6,951.3h20.8v13.6h-20.8V951.3z"/>
			</g>
		</g>
	</g>
	<g>
		<g>
			<g>
				<path fill="#1E7A85" d="M1212.5,970.3v-21.7h-26v21.7H1212.5z M1189,951.3h20.8v13.6H1189V951.3z"/>
			</g>
		</g>
	</g>
	<g>
		<g>
			<g>
				<path fill="#1E7A85" d="M1149.5,970.3v-21.7h-26v21.7H1149.5z M1126.1,951.3h20.8v13.6h-20.8V951.3z"/>
			</g>
		</g>
	</g>
	<g>
		<g>
			<g>
				<path fill="#1E7A85" d="M677.7,970.3v-21.7h-26v21.7H677.7z M654.2,951.3h20.8v13.6h-20.8V951.3z"/>
			</g>
		</g>
	</g>
	<g>
		<g>
			<g>
				<path fill="#1E7A85" d="M646.2,970.3v-21.7h-26v21.7H646.2z M622.8,951.3h20.8v13.6h-20.8V951.3z"/>
			</g>
		</g>
	</g>
	<g>
		<g>
			<g>
				<path fill="#1E7A85" d="M614.8,970.3v-21.7h-26v21.7H614.8z M591.3,951.3h20.8v13.6h-20.8V951.3z"/>
			</g>
		</g>
	</g>
	<g>
		<g>
			<g>
				<path fill="#1E7A85" d="M346.8,941.6h21.7v-26.1h-21.7V941.6z M365.8,918.2V939h-13.6v-20.8H365.8z"/>
			</g>
		</g>
	</g>
	<g>
		<g>
			<g>
				<path fill="#1E7A85" d="M346.8,909.6h21.7v-26h-21.7V909.6z M365.8,886.2V907h-13.6v-20.8H365.8z"/>
			</g>
		</g>
	</g>
</g>
</svg>
