<?xml version="1.0" encoding="utf-8"?>
<!-- Generator: Adobe Illustrator 18.1.1, SVG Export Plug-In . SVG Version: 6.00 Build 0)  -->
<!DOCTYPE svg PUBLIC "-//W3C//DTD SVG 1.1//EN" "http://www.w3.org/Graphics/SVG/1.1/DTD/svg11.dtd">
<svg version="1.1" id="Layer_1" xmlns="http://www.w3.org/2000/svg" xmlns:xlink="http://www.w3.org/1999/xlink" x="0px" y="0px"
	 viewBox="0 0 1920 1080" enable-background="new 0 0 1920 1080" xml:space="preserve">
<g>
	<g>
		<path fill="#1E7A85" d="M804.2,112.2H632.6v-75h171.6V112.2z M634.2,110.6h168.3V38.9H634.2V110.6z"/>
	</g>
	<g>
		<path fill="#1E7A85" d="M634.2,112.2H462.6v-75h171.6V112.2z M464.3,110.6h168.3V38.9H464.3V110.6z"/>
	</g>
	<g>
		<g>
			<g>
				<g>
					<path fill="#1E7A85" d="M549.6,219.7c-5.1,0-10.5-7.2-12.4-16.8c-2.1-10.5,0.5-19.5,5.9-20.6c0.4-0.1,0.7-0.1,1.1-0.1
						c5.1,0,10.5,7.2,12.4,16.8c2.1,10.4-0.5,19.5-5.9,20.6C550.4,219.7,550,219.7,549.6,219.7z M544.3,183.8c-0.3,0-0.5,0-0.8,0.1
						c-4.4,0.9-6.6,9.5-4.7,18.7c1.8,8.7,6.5,15.5,10.8,15.5c0.3,0,0.5,0,0.8-0.1c4.4-0.9,6.6-9.5,4.7-18.7
						C553.3,190.6,548.6,183.8,544.3,183.8z"/>
				</g>
				<g>
					<path fill="#1E7A85" d="M546.9,210.5c-4.9,0-9-3.5-9.8-8.3c-0.9-5.4,2.8-10.5,8.2-11.4c0.5-0.1,1.1-0.1,1.6-0.1
						c4.9,0,9,3.5,9.8,8.3c0.4,2.6-0.2,5.2-1.7,7.4c-1.5,2.2-3.8,3.6-6.4,4C548,210.5,547.4,210.5,546.9,210.5z M546.9,192.3
						c-0.4,0-0.9,0-1.3,0.1c-4.5,0.7-7.6,5-6.8,9.6c0.7,4,4.1,6.9,8.2,6.9c0.5,0,0.9,0,1.4-0.1c2.2-0.4,4.1-1.6,5.4-3.4
						c1.3-1.8,1.8-4,1.4-6.2C554.4,195.2,551,192.3,546.9,192.3z"/>
				</g>
			</g>
			<g>
				<g>
					<path fill="#1E7A85" d="M591.7,236.2c-3.3,0-6.8-0.6-10.4-1.8c-6.8-2.3-12.3-6.2-14.3-10.4c-0.9-1.8-1.1-3.5-0.6-5.1
						c1.1-3.2,5.1-5.1,10.8-5.1c3.3,0,6.8,0.6,10.4,1.8c4.7,1.6,8.9,4,11.7,6.8c2.9,2.9,4.1,6,3.2,8.6
						C601.5,234.2,597.4,236.2,591.7,236.2z M577.3,215.4c-5,0-8.5,1.5-9.3,4.1c-0.4,1.1-0.2,2.4,0.5,3.9c1.8,3.7,7.1,7.5,13.4,9.6
						c3.4,1.1,6.8,1.7,9.8,1.7c5,0,8.5-1.5,9.3-4.1c0.7-2-0.3-4.5-2.8-7c-2.6-2.6-6.6-4.9-11.1-6.4
						C583.8,216,580.4,215.4,577.3,215.4z"/>
				</g>
				<g>
					<path fill="#1E7A85" d="M584.1,234.8c-1.2,0-2.4-0.2-3.5-0.6c-2.5-0.9-4.4-2.8-5.5-5.2c-1.1-2.4-1.2-5.1-0.3-7.6
						c1.5-3.8,5.2-6.4,9.3-6.4c1.2,0,2.4,0.2,3.5,0.6c2.5,0.9,4.4,2.8,5.5,5.2c1.1,2.4,1.2,5.1,0.3,7.6
						C592,232.2,588.3,234.8,584.1,234.8z M584.2,216.5c-3.4,0-6.6,2.2-7.8,5.4c-0.8,2.1-0.7,4.3,0.2,6.4c0.9,2,2.6,3.6,4.6,4.3
						c0.9,0.4,1.9,0.5,2.9,0.5c3.4,0,6.6-2.2,7.8-5.4c0.8-2.1,0.7-4.3-0.2-6.4c-0.9-2-2.6-3.6-4.6-4.3
						C586.1,216.7,585.2,216.5,584.2,216.5z"/>
				</g>
			</g>
			<g>
				<g>
					<path fill="#1E7A85" d="M500.7,301.6c-2.3,0-4.1-0.7-5.3-2.1c-1.1-1.2-1.6-2.9-1.5-4.9c0.3-4.6,3.8-10.4,9.2-15.1
						c5-4.5,11-7.2,15.5-7.2c2.3,0,4.1,0.7,5.3,2.1c3.7,4.2,0.3,13-7.7,20C511.2,298.8,505.3,301.6,500.7,301.6z M518.6,273.9
						c-4.1,0-9.6,2.6-14.4,6.8c-5,4.4-8.4,9.9-8.6,14c-0.1,1.6,0.3,2.8,1.1,3.7c0.9,1,2.3,1.5,4.1,1.5c4.1,0,9.7-2.6,14.4-6.8
						c7.1-6.3,10.5-14.4,7.5-17.8C521.8,274.4,520.4,273.9,518.6,273.9z"/>
				</g>
				<g>
					<path fill="#1E7A85" d="M509.4,297.1c-3,0-5.8-1.3-7.7-3.6c-3.5-4.2-2.8-10.5,1.4-14c1.8-1.5,4-2.2,6.3-2.2
						c3,0,5.8,1.3,7.7,3.6c1.7,2,2.5,4.6,2.2,7.2c-0.3,2.6-1.5,5-3.6,6.7C513.9,296.3,511.7,297.1,509.4,297.1z M509.4,278.9
						c-1.9,0-3.8,0.7-5.3,1.9c-3.5,2.9-4.1,8.1-1.2,11.7c1.6,1.9,3.9,3,6.4,3c1.9,0,3.8-0.7,5.3-1.9c1.7-1.4,2.8-3.4,3-5.6
						c0.2-2.2-0.4-4.4-1.9-6.1C514.2,280,511.9,278.9,509.4,278.9z"/>
				</g>
			</g>
			<g>
				<g>
					<path fill="#1E7A85" d="M552.5,270.9c-5.1,0-10.5-7.2-12.4-16.8c-1-4.9-1-9.7,0.1-13.5c1.1-4,3.2-6.5,5.9-7.1
						c0.4-0.1,0.7-0.1,1.1-0.1c5.1,0,10.5,7.2,12.4,16.8c1.4,7,0.7,13.8-1.8,17.6c-1.1,1.7-2.5,2.7-4.1,3
						C553.2,270.9,552.9,270.9,552.5,270.9z M547.1,235c-0.3,0-0.5,0-0.8,0.1c-2.1,0.4-3.7,2.5-4.6,5.9c-1,3.6-1,8.1,0,12.8
						c1.8,8.7,6.5,15.5,10.8,15.5c0.3,0,0.5,0,0.8-0.1c1.2-0.2,2.2-1,3.1-2.3c2.3-3.4,2.9-9.9,1.6-16.4
						C556.2,241.8,551.4,235,547.1,235z"/>
				</g>
				<g>
					<path fill="#1E7A85" d="M549.9,262.4c-4.9,0-9-3.5-9.8-8.3c-0.4-2.6,0.2-5.2,1.7-7.4c1.5-2.2,3.8-3.6,6.4-4
						c0.5-0.1,1.1-0.1,1.6-0.1c4.9,0,9,3.5,9.8,8.3c0.9,5.4-2.8,10.5-8.2,11.4C551,262.4,550.4,262.4,549.9,262.4z M549.9,244.2
						c-0.5,0-0.9,0-1.4,0.1c-2.2,0.4-4.1,1.5-5.4,3.3c-1.3,1.8-1.8,4-1.5,6.2c0.7,4,4.1,7,8.2,7c0.5,0,0.9,0,1.4-0.1
						c4.5-0.8,7.6-5,6.8-9.6C557.4,247.1,554,244.2,549.9,244.2z"/>
				</g>
			</g>
			<g>
				<g>
					<path fill="#1E7A85" d="M504.2,233.1c-3.3,0-6.8-0.6-10.4-1.8c-6.8-2.3-12.3-6.2-14.3-10.3c-0.9-1.8-1.1-3.5-0.6-5.1
						c1.1-3.2,5.1-5.2,10.8-5.2c3.3,0,6.8,0.6,10.4,1.8c6.8,2.3,12.3,6.2,14.3,10.4c0.9,1.8,1.1,3.5,0.6,5.1
						C514,231.2,509.9,233.1,504.2,233.1z M489.8,212.3c-5,0-8.5,1.5-9.3,4.1c-0.4,1.1-0.2,2.4,0.5,3.9c1.8,3.7,7.1,7.4,13.4,9.5
						c3.4,1.1,6.8,1.7,9.9,1.7c5,0,8.5-1.5,9.3-4.1c0.4-1.1,0.2-2.4-0.5-3.8c-1.8-3.7-7.1-7.5-13.4-9.6
						C496.3,212.9,492.9,212.3,489.8,212.3z"/>
				</g>
				<g>
					<path fill="#1E7A85" d="M497.4,232c-1.2,0-2.4-0.2-3.5-0.6c-2.5-0.9-4.5-2.8-5.5-5.2c-1.1-2.4-1.2-5.1-0.2-7.6
						c1.4-3.8,5.1-6.4,9.3-6.4c1.2,0,2.4,0.2,3.5,0.6c2.5,0.9,4.4,2.8,5.5,5.2c1.1,2.4,1.2,5.1,0.3,7.6
						C505.2,229.4,501.5,232,497.4,232z M497.4,213.7c-3.4,0-6.6,2.2-7.8,5.4c-0.8,2.1-0.7,4.3,0.2,6.3c0.9,2,2.6,3.6,4.6,4.3
						c0.9,0.4,1.9,0.5,2.9,0.5c3.4,0,6.6-2.2,7.8-5.4c0.8-2.1,0.7-4.3-0.2-6.4c-0.9-2-2.6-3.6-4.6-4.3
						C499.4,213.9,498.4,213.7,497.4,213.7z"/>
				</g>
			</g>
			<g>
				<g>
					<path fill="#1E7A85" d="M478.1,191.8c-2.3,0-4.1-0.7-5.3-2.1c-3.7-4.2-0.3-13,7.7-20c5.1-4.5,11-7.2,15.5-7.2
						c2.3,0,4.1,0.7,5.3,2.1c3.7,4.2,0.3,13-7.7,20C488.6,189.1,482.6,191.8,478.1,191.8z M496,164.1c-4.1,0-9.7,2.6-14.4,6.8
						c-7.1,6.2-10.5,14.4-7.6,17.8c0.9,1,2.3,1.5,4.1,1.5c4.1,0,9.7-2.6,14.4-6.8c7.1-6.3,10.5-14.4,7.6-17.8
						C499.3,164.6,497.8,164.1,496,164.1z"/>
				</g>
				<g>
					<path fill="#1E7A85" d="M487.4,186.8c-3,0-5.8-1.3-7.7-3.6c-1.7-2-2.5-4.6-2.2-7.3s1.5-5,3.6-6.7c1.8-1.4,4-2.2,6.3-2.2
						c3,0,5.8,1.3,7.7,3.6c1.7,2,2.5,4.6,2.2,7.3c-0.3,2.6-1.5,5-3.6,6.7C491.9,186,489.7,186.8,487.4,186.8z M487.4,168.6
						c-1.9,0-3.8,0.7-5.3,1.9c-1.7,1.4-2.8,3.4-3,5.6c-0.2,2.2,0.4,4.4,1.9,6.1c1.6,1.9,3.9,3,6.4,3c1.9,0,3.8-0.7,5.2-1.9
						c1.7-1.4,2.8-3.4,3-5.6c0.2-2.2-0.4-4.4-1.8-6.1C492.2,169.7,489.9,168.6,487.4,168.6z"/>
				</g>
			</g>
		</g>
		<g>
			<g>
				<g>
					<path fill="#1E7A85" d="M355.8,364.3c-0.8,0-1.5-0.1-2.2-0.4c-2.5-1-4.1-3.9-4.4-8.1c-0.3-4,0.6-8.7,2.5-13.3
						c3.4-8.4,9.3-14.2,14.2-14.2c0.8,0,1.5,0.1,2.2,0.4c5.1,2.1,6,11.5,1.9,21.4C366.6,358.4,360.7,364.3,355.8,364.3z
						 M365.9,329.9c-4.2,0-9.6,5.6-12.8,13.2c-1.8,4.4-2.6,8.9-2.4,12.6c0.3,3.5,1.5,5.9,3.4,6.7c0.5,0.2,1,0.3,1.5,0.3
						c4.2,0,9.6-5.6,12.8-13.2c3.6-8.7,3.1-17.5-1.1-19.3C367,330,366.5,329.9,365.9,329.9z"/>
				</g>
				<g>
					<path fill="#1E7A85" d="M360.7,356.6c-1.4,0-2.8-0.3-4.1-0.9c-2.4-1.1-4.2-3.1-5.2-5.6c-0.9-2.5-0.8-5.2,0.3-7.6
						c1.6-3.5,5.1-5.8,9-5.8c1.4,0,2.8,0.3,4.1,0.9c2.4,1.1,4.3,3.1,5.2,5.5c0.9,2.5,0.8,5.2-0.2,7.6
						C368.1,354.3,364.6,356.6,360.7,356.6z M360.7,338.3c-3.2,0-6.2,1.9-7.6,4.9c-0.9,2-1,4.3-0.2,6.4c0.8,2.1,2.3,3.7,4.3,4.7
						c1.1,0.5,2.2,0.7,3.4,0.7c3.3,0,6.2-1.9,7.6-4.9c0.9-2,1-4.3,0.2-6.4c-0.8-2.1-2.3-3.7-4.3-4.6
						C363,338.6,361.9,338.3,360.7,338.3z"/>
				</g>
			</g>
			<g>
				<g>
					<path fill="#1E7A85" d="M426.2,363c-5.5,0-10-8.5-10.1-19.1c-0.2-10.7,4.1-19.2,9.6-19.3c5.6,0,10,8.5,10.2,19
						C436,354.3,431.8,362,426.2,363L426.2,363z M425.8,326.1c-4.6,0.1-8.3,8.1-8.2,17.5c0.1,9.4,4.4,17.3,8.4,17.3v0.8l0.1-0.8
						c4.5-0.1,8.2-8.1,8.1-17.5C434.1,334,430.3,326.1,425.8,326.1z"/>
				</g>
				<g>
					<path fill="#1E7A85" d="M426,353.8l-0.2,0c-5.5-0.1-9.8-4.7-9.7-10.1c0.1-5.3,4.6-9.7,9.9-9.7l0.2,0c2.6,0.1,5.1,1.1,6.9,3
						c1.8,1.9,2.8,4.4,2.7,7.1C435.8,349.5,431.3,353.8,426,353.8z M426,335.6c-4.5,0-8.2,3.6-8.3,8.1c-0.1,4.6,3.5,8.4,8.1,8.5
						l0.2,0c4.5,0,8.2-3.6,8.3-8.1c0.1-2.2-0.8-4.3-2.3-5.9c-1.5-1.6-3.6-2.5-5.8-2.6L426,335.6z"/>
				</g>
			</g>
			<g>
				<g>
					<path fill="#1E7A85" d="M398.5,303.7c-3.6,0-7.8-0.9-11.8-2.5c-6.6-2.7-11.8-7-13.6-11.3c-0.8-1.8-0.8-3.6-0.2-5.1
						c1.2-2.8,4.6-4.5,9.6-4.5c3.6,0,7.8,0.9,11.8,2.5c6.6,2.7,11.8,7,13.6,11.3c0.8,1.8,0.8,3.6,0.2,5.1
						C406.9,302.1,403.5,303.7,398.5,303.7z M382.5,281.9c-4.2,0-7.2,1.3-8.1,3.5c-0.5,1.1-0.4,2.4,0.2,3.9
						c1.6,3.8,6.6,7.9,12.7,10.4c3.8,1.6,7.8,2.4,11.2,2.4c4.2,0,7.2-1.3,8.1-3.5c0.5-1.1,0.4-2.4-0.2-3.9
						c-1.6-3.8-6.6-7.9-12.7-10.4C389.9,282.8,385.9,281.9,382.5,281.9z"/>
				</g>
				<g>
					<path fill="#1E7A85" d="M390.2,301.8c-1.4,0-2.8-0.3-4.1-0.9c-5-2.3-7.2-8.2-4.9-13.1c1.6-3.5,5.2-5.8,9-5.8
						c1.4,0,2.8,0.3,4.1,0.9c2.4,1.1,4.2,3,5.2,5.5c0.9,2.5,0.8,5.2-0.3,7.6C397.6,299.5,394.1,301.8,390.2,301.8z M390.2,283.6
						c-3.3,0-6.2,1.9-7.6,4.9c-1.9,4.2,0,9.1,4.1,11c1.1,0.5,2.2,0.7,3.4,0.7c3.3,0,6.2-1.9,7.6-4.9c0.9-2,1-4.3,0.2-6.4
						c-0.8-2.1-2.3-3.7-4.3-4.6C392.5,283.8,391.4,283.6,390.2,283.6z"/>
				</g>
			</g>
			<g>
				<g>
					<path fill="#1E7A85" d="M387.4,402.6c-3.6,0-7.8-0.9-11.8-2.5c-9.9-4.1-15.9-11.3-13.8-16.4c1.2-2.8,4.7-4.5,9.6-4.5
						c3.6,0,7.8,0.9,11.8,2.5c4.6,1.9,8.6,4.6,11.2,7.6c2.7,3.1,3.7,6.3,2.6,8.8C395.9,400.9,392.4,402.6,387.4,402.6z M371.4,380.8
						c-4.2,0-7.2,1.3-8.1,3.5c-1.7,4.2,4.2,10.7,13,14.3c3.8,1.6,7.8,2.4,11.2,2.4c4.2,0,7.2-1.3,8.1-3.5c0.8-2,0-4.5-2.3-7.1
						c-2.4-2.8-6.2-5.3-10.6-7.1C378.8,381.6,374.8,380.8,371.4,380.8z"/>
				</g>
				<g>
					<path fill="#1E7A85" d="M379.1,400.6c-1.4,0-2.8-0.3-4.1-0.9c-5-2.3-7.2-8.1-4.9-13.1c1.6-3.5,5.2-5.8,9-5.8
						c1.4,0,2.8,0.3,4.1,0.9c2.4,1.1,4.2,3.1,5.2,5.5s0.8,5.2-0.3,7.6C386.5,398.4,383,400.6,379.1,400.6z M379.1,382.4
						c-3.2,0-6.2,1.9-7.6,4.9c-1.9,4.2,0,9.1,4.1,11c1.1,0.5,2.2,0.7,3.4,0.7c3.3,0,6.2-1.9,7.6-4.9c0.9-2,1-4.3,0.2-6.4
						c-0.8-2.1-2.3-3.7-4.3-4.6C381.4,382.7,380.3,382.4,379.1,382.4z"/>
				</g>
			</g>
		</g>
	</g>
	<g>
		<g>
			<g>
				<path fill="#1E7A85" d="M683.8,665.8c-4,0-6.9-1.3-8.2-3.7c-2.5-4.9,2.9-12.6,12.3-17.5c4.5-2.4,9.3-3.6,13.3-3.6
					c4,0,6.9,1.3,8.2,3.7c1.3,2.4,0.6,5.6-1.8,9c-2.3,3.2-6.1,6.2-10.5,8.5C692.5,664.5,687.8,665.8,683.8,665.8z M701.3,642.5
					c-3.8,0-8.2,1.2-12.5,3.5c-8.4,4.3-13.7,11.4-11.6,15.4c0.9,1.8,3.3,2.8,6.7,2.8c3.8,0,8.2-1.2,12.5-3.5c4.2-2.2,7.7-5,9.9-8
					c2.1-2.8,2.7-5.5,1.7-7.3C707,643.5,704.7,642.5,701.3,642.5z"/>
			</g>
			<g>
				<path fill="#1E7A85" d="M692.9,663.1c-3.8,0-7.3-2.2-9-5.7c-1.1-2.4-1.3-5.1-0.4-7.6c0.9-2.5,2.7-4.5,5.1-5.6
					c1.3-0.6,2.8-0.9,4.2-0.9c3.8,0,7.3,2.2,9,5.7c2.3,4.9,0.2,10.9-4.7,13.2C695.8,662.8,694.3,663.1,692.9,663.1z M692.9,644.9
					c-1.2,0-2.4,0.3-3.5,0.8c-2,0.9-3.5,2.6-4.3,4.7c-0.7,2.1-0.6,4.3,0.3,6.4c1.4,2.9,4.3,4.8,7.5,4.8c1.2,0,2.4-0.3,3.5-0.8
					c4.1-2,5.9-6.9,4-11.1C699,646.8,696.1,644.9,692.9,644.9z"/>
			</g>
		</g>
		<g>
			<g>
				<path fill="#1E7A85" d="M679.1,715.1c-0.1,0-0.2,0-0.3,0c-1.6-0.1-3.2-0.9-4.5-2.4c-3.1-3.4-4.8-10-4.5-17.1
					c0.5-10.6,5.3-18.8,10.8-18.5c1.6,0.1,3.2,0.9,4.5,2.4c3.1,3.4,4.8,10,4.5,17.1C689.1,706.9,684.5,715.1,679.1,715.1z
					 M680.3,678.7c-4.5,0-8.5,7.6-8.9,17c-0.3,6.6,1.3,12.9,4.1,15.9c1.1,1.2,2.2,1.8,3.4,1.8l0.2,0c4.5,0,8.5-7.6,8.9-17
					c0.3-6.6-1.3-12.9-4.1-15.9c-1.1-1.2-2.2-1.8-3.4-1.8L680.3,678.7z"/>
			</g>
			<g>
				<path fill="#1E7A85" d="M679.8,705.6c-0.3,0-0.5,0-0.8,0c-2.6-0.2-5-1.5-6.8-3.5c-1.7-2-2.5-4.6-2.3-7.2
					c0.4-5.4,5.2-9.5,10.7-9.1c5.5,0.5,9.5,5.3,9.1,10.7C689.2,701.6,684.9,705.6,679.8,705.6z M679.7,687.4c-4.3,0-7.9,3.4-8.3,7.6
					c-0.2,2.2,0.5,4.4,1.9,6.1c1.4,1.7,3.4,2.7,5.7,2.9c4.6,0.4,8.6-3.1,9-7.6c0.4-4.6-3-8.6-7.6-9
					C680.2,687.4,680,687.4,679.7,687.4z"/>
			</g>
		</g>
		<g>
			<g>
				<path fill="#1E7A85" d="M608.7,654.3c-4.3,0-9.5-1.8-14.4-4.9c-6-3.9-10.4-9-11.4-13.5c-0.4-1.9-0.2-3.7,0.7-5.1
					c1.3-2,3.7-3,6.9-3c4.3,0,9.5,1.8,14.4,4.9c9,5.7,13.7,13.9,10.7,18.6C614.4,653.3,612,654.3,608.7,654.3z M590.5,629.4
					c-1.9,0-4.4,0.4-5.6,2.3c-0.7,1-0.8,2.3-0.5,3.9c0.9,4,5.1,9,10.7,12.5c4.6,3,9.6,4.7,13.6,4.7c1.9,0,4.4-0.4,5.6-2.3
					c2.4-3.8-2.2-11.3-10.2-16.4C599.5,631.1,594.5,629.4,590.5,629.4z"/>
			</g>
			<g>
				<path fill="#1E7A85" d="M599.3,650.8c-2,0-4-0.6-5.6-1.8c-4.5-3.1-5.6-9.3-2.5-13.8c1.9-2.7,4.9-4.3,8.2-4.3c2,0,4,0.6,5.6,1.8
					c2.2,1.5,3.6,3.8,4.1,6.4c0.5,2.6-0.1,5.2-1.6,7.4C605.6,649.2,602.6,650.8,599.3,650.8z M599.3,632.5c-2.7,0-5.3,1.3-6.8,3.6
					c-2.6,3.8-1.7,8.9,2.1,11.6c1.4,1,3,1.5,4.7,1.5c2.7,0,5.3-1.3,6.8-3.6c1.3-1.8,1.7-4,1.4-6.2c-0.4-2.2-1.6-4.1-3.4-5.3
					C602.7,633.1,601,632.5,599.3,632.5z"/>
			</g>
		</g>
		<g>
			<g>
				<path fill="#1E7A85" d="M635.4,682.6c-4,0-6.9-1.3-8.2-3.7c-2.6-4.9,2.9-12.6,12.3-17.5c4.5-2.4,9.3-3.7,13.3-3.7
					c4,0,6.9,1.3,8.2,3.7c0.7,1.4,0.8,3.2,0.2,5.1c-1.4,4.4-6.2,9.2-12.6,12.4C644.1,681.3,639.4,682.6,635.4,682.6z M652.8,659.3
					c-3.8,0-8.2,1.2-12.5,3.5c-8.4,4.3-13.7,11.4-11.7,15.4c0.9,1.8,3.3,2.8,6.7,2.8c3.8,0,8.2-1.2,12.5-3.5
					c5.9-3,10.5-7.6,11.8-11.5c0.5-1.5,0.4-2.8-0.1-3.9C658.6,660.3,656.2,659.3,652.8,659.3z"/>
			</g>
			<g>
				<path fill="#1E7A85" d="M643.8,680.2c-3.8,0-7.4-2.2-9-5.7c-2.3-4.9-0.2-10.9,4.7-13.2c1.3-0.6,2.8-0.9,4.2-0.9
					c3.8,0,7.3,2.2,9,5.7c1.1,2.4,1.3,5.1,0.4,7.6c-0.9,2.5-2.7,4.5-5.1,5.6C646.6,679.9,645.2,680.2,643.8,680.2z M643.7,662
					c-1.2,0-2.4,0.3-3.5,0.8c-4.1,2-5.9,6.9-4,11.1c1.4,2.9,4.3,4.7,7.5,4.7c1.2,0,2.4-0.3,3.5-0.8c2-1,3.5-2.6,4.3-4.7
					c0.7-2.1,0.6-4.3-0.3-6.3C649.9,663.8,646.9,662,643.7,662z"/>
			</g>
		</g>
		<g>
			<g>
				<path fill="#1E7A85" d="M658.1,630.1c-0.1,0-0.2,0-0.3,0c-5.6-0.3-9.5-8.8-9-19.5c0.5-10.6,5.2-18.8,10.8-18.5
					c1.6,0.1,3.2,0.9,4.5,2.4c3.1,3.4,4.8,10,4.5,17.1C668.1,622,663.5,630.1,658.1,630.1z M659.3,593.7c-4.5,0-8.5,7.6-8.9,17
					c-0.4,9.4,3,17.6,7.5,17.8l0.2,0c4.5,0,8.5-7.6,8.9-17c0.3-6.6-1.3-12.9-4.1-15.9c-1.1-1.2-2.2-1.8-3.4-1.8L659.3,593.7z"/>
			</g>
			<g>
				<path fill="#1E7A85" d="M658.7,621.4c-0.3,0-0.5,0-0.8,0c-2.6-0.2-5-1.5-6.7-3.5c-1.7-2-2.5-4.6-2.3-7.2c0.4-5.4,5.2-9.5,10.7-9
					c2.6,0.2,5,1.4,6.7,3.4c1.7,2,2.5,4.6,2.3,7.2C668.1,617.4,663.8,621.4,658.7,621.4z M658.6,603.2c-4.3,0-7.9,3.3-8.2,7.6
					c-0.2,2.2,0.5,4.4,1.9,6.1c1.4,1.7,3.4,2.7,5.7,2.9c4.6,0.4,8.6-3.1,9-7.6c0.2-2.2-0.5-4.4-1.9-6.1c-1.4-1.7-3.4-2.7-5.7-2.9
					C659.1,603.2,658.9,603.2,658.6,603.2z"/>
			</g>
		</g>
		<g>
			<g>
				<path fill="#1E7A85" d="M708.1,602.5c-4.3,0-9.5-1.8-14.4-4.9c-9-5.7-13.7-13.9-10.7-18.6c1.3-2,3.7-3,6.9-3
					c4.3,0,9.5,1.8,14.4,4.9c4.2,2.7,7.6,6,9.7,9.5c2.1,3.6,2.5,6.8,1,9.1C713.8,601.5,711.4,602.5,708.1,602.5z M690,577.6
					c-1.9,0-4.4,0.4-5.6,2.3c-2.4,3.8,2.2,11.3,10.2,16.4c4.6,3,9.6,4.7,13.6,4.7c1.9,0,4.4-0.4,5.6-2.3c1.1-1.8,0.8-4.4-1-7.5
					c-1.9-3.2-5.2-6.4-9.2-8.9C698.9,579.3,693.9,577.6,690,577.6z"/>
			</g>
			<g>
				<path fill="#1E7A85" d="M699.3,599.4c-2,0-4-0.6-5.6-1.8c-2.2-1.5-3.6-3.8-4.1-6.4c-0.5-2.6,0.1-5.2,1.6-7.4
					c1.8-2.7,4.9-4.3,8.1-4.3c2,0,4,0.6,5.6,1.8c2.2,1.5,3.6,3.8,4.1,6.4c0.5,2.6-0.1,5.2-1.6,7.4
					C705.6,597.8,702.6,599.4,699.3,599.4z M699.4,581.2c-2.7,0-5.3,1.3-6.8,3.6c-1.3,1.8-1.7,4-1.4,6.2c0.4,2.2,1.6,4.1,3.4,5.3
					c1.4,1,3,1.5,4.7,1.5c2.7,0,5.3-1.3,6.8-3.6c1.3-1.8,1.7-4,1.3-6.2c-0.4-2.2-1.6-4.1-3.4-5.3C702.7,581.7,701,581.2,699.4,581.2
					z"/>
			</g>
		</g>
	</g>
	<g>
		<g>
			<g>
				<path fill="#1E7A85" d="M412.6,476.7c-1.4,0-2.7-0.1-4.1-0.2c-5-0.6-9.5-2.1-12.8-4.2c-3.5-2.3-5.2-5-4.9-7.8
					c0.5-4.7,7.1-7.9,15.9-7.9c1.4,0,2.7,0.1,4.1,0.2c10.6,1.2,18.4,6.5,17.8,12C428,473.4,421.5,476.7,412.6,476.7z M406.6,458.1
					c-7.9,0-13.9,2.7-14.3,6.5c-0.2,2.1,1.3,4.3,4.2,6.2c3.1,2,7.4,3.4,12.2,4c1.3,0.1,2.6,0.2,3.9,0.2c7.9,0,13.9-2.7,14.3-6.5
					c0.5-4.5-7-9.2-16.4-10.2C409.2,458.2,407.9,458.1,406.6,458.1z"/>
			</g>
			<g>
				<path fill="#1E7A85" d="M409.3,476.4c-0.5,0-1,0-1.5-0.1c-5.4-0.8-9.1-5.9-8.3-11.3c0.7-4.8,4.9-8.4,9.8-8.4c0.5,0,1,0,1.5,0.1
					c2.6,0.4,4.9,1.8,6.5,3.9c1.6,2.1,2.2,4.7,1.8,7.4C418.3,472.8,414.1,476.4,409.3,476.4z M409.2,458.2c-4.1,0-7.6,3-8.2,7.1
					c-0.7,4.5,2.5,8.8,7,9.4c0.4,0.1,0.8,0.1,1.2,0.1c4.1,0,7.6-3,8.2-7.1c0.3-2.2-0.2-4.4-1.5-6.2c-1.3-1.8-3.2-3-5.4-3.3
					C410.1,458.3,409.7,458.2,409.2,458.2z"/>
			</g>
		</g>
		<g>
			<g>
				<path fill="#1E7A85" d="M423.4,539.5c-6.2,0-10.5-2.1-11.5-5.5c-0.5-1.6-0.2-3.3,0.7-5.1c2.2-4.1,7.8-7.8,14.7-9.9
					c3.2-1,6.5-1.5,9.6-1.5c6.2,0,10.5,2.1,11.5,5.5c0.8,2.6-0.4,5.7-3.5,8.5c-2.9,2.7-7.1,5-11.9,6.4
					C429.7,538.9,426.4,539.5,423.4,539.5z M436.8,519.1c-2.9,0-6,0.5-9.1,1.4c-6.4,1.9-11.7,5.5-13.7,9.1c-0.7,1.4-0.9,2.7-0.6,3.8
					c0.8,2.7,4.6,4.4,10,4.4c2.9,0,6-0.5,9.1-1.4c4.5-1.4,8.5-3.5,11.2-6.1c2.6-2.4,3.6-4.9,3-6.9
					C446,520.8,442.2,519.1,436.8,519.1z"/>
			</g>
			<g>
				<path fill="#1E7A85" d="M429.8,538.5c-4.5,0-8.5-3.1-9.6-7.4c-0.7-2.6-0.3-5.2,1-7.5c1.3-2.3,3.5-3.9,6-4.6
					c0.8-0.2,1.7-0.3,2.5-0.3c4.5,0,8.4,3,9.6,7.4c0.7,2.6,0.3,5.2-1,7.5c-1.3,2.3-3.5,3.9-6,4.6
					C431.4,538.4,430.6,538.5,429.8,538.5z M429.8,520.3c-0.7,0-1.4,0.1-2.1,0.3c-2.1,0.6-3.9,1.9-5.1,3.8c-1.1,1.9-1.4,4.2-0.9,6.3
					c1,3.7,4.3,6.2,8,6.2c0.7,0,1.4-0.1,2.1-0.3c2.1-0.6,3.9-1.9,5.1-3.8c1.1-1.9,1.4-4.2,0.9-6.3
					C436.8,522.8,433.5,520.3,429.8,520.3z"/>
			</g>
		</g>
		<g>
			<g>
				<path fill="#1E7A85" d="M468.4,499.2c-0.2,0-0.4,0-0.6,0c-2.7-0.3-5-2.6-6.5-6.5c-1.4-3.7-1.8-8.5-1.2-13.5
					c1.2-10.5,6.4-18.4,12-17.8c1.6,0.2,3.1,1.1,4.4,2.6c2.9,3.6,4.1,10.2,3.3,17.4C478.6,491.6,473.8,499.2,468.4,499.2z
					 M471.5,463c-4.4,0-8.8,7.4-9.8,16.4c-0.5,4.7-0.1,9.2,1.2,12.7c1.2,3.3,3,5.3,5.1,5.5c4.6,0.5,9.2-7,10.2-16.4
					c0.7-6.6-0.4-13-3-16.2c-1-1.2-2.1-1.9-3.3-2.1C471.8,463,471.6,463,471.5,463z"/>
			</g>
			<g>
				<path fill="#1E7A85" d="M470,489.8c-0.5,0-1,0-1.5-0.1c-2.6-0.4-4.9-1.8-6.5-3.9c-1.6-2.1-2.2-4.7-1.8-7.4
					c0.7-4.8,4.9-8.4,9.8-8.4c0.5,0,1,0,1.5,0.1c5.4,0.8,9.1,5.9,8.3,11.3C479.1,486.2,474.9,489.8,470,489.8z M470,471.6
					c-4.1,0-7.6,3-8.2,7.1c-0.3,2.2,0.2,4.4,1.5,6.2c1.3,1.8,3.3,2.9,5.5,3.3c0.4,0.1,0.8,0.1,1.2,0.1c4.1,0,7.6-3,8.2-7.1
					c0.7-4.5-2.5-8.8-7-9.5C470.8,471.6,470.4,471.6,470,471.6z"/>
			</g>
		</g>
		<g>
			<g>
				<path fill="#1E7A85" d="M370.3,515.6c-0.2,0-0.4,0-0.6,0c-5.5-0.6-8.9-9.4-7.7-20c1.2-10.5,6.4-18.4,12-17.8
					c5.5,0.6,8.9,9.4,7.7,20C380.5,507.9,375.7,515.6,370.3,515.6z M373.4,479.3c-4.4,0-8.8,7.4-9.8,16.4
					c-1.1,9.4,1.8,17.7,6.3,18.2c4.5,0.5,9.2-7,10.2-16.4c1.1-9.4-1.8-17.7-6.3-18.2C373.7,479.3,373.5,479.3,373.4,479.3z"/>
			</g>
			<g>
				<path fill="#1E7A85" d="M371.9,506.2c-0.5,0-1,0-1.5-0.1c-2.6-0.4-4.9-1.8-6.5-3.9c-1.6-2.1-2.2-4.8-1.8-7.4
					c0.7-4.8,4.9-8.4,9.8-8.4c0.5,0,1,0,1.5,0.1c5.4,0.8,9.1,5.9,8.3,11.3C381,502.6,376.8,506.2,371.9,506.2z M371.9,488
					c-4.1,0-7.6,3-8.2,7.1c-0.3,2.2,0.2,4.4,1.5,6.2c1.3,1.8,3.3,2.9,5.4,3.3c0.4,0.1,0.8,0.1,1.3,0.1c4.1,0,7.6-3,8.2-7.1
					c0.7-4.5-2.4-8.8-7-9.5C372.7,488,372.3,488,371.9,488z"/>
			</g>
		</g>
	</g>
	<g>
		<g>
			<g>
				<g>
					<path fill="#1E7A85" d="M793.6,452.4c-0.2,0-0.5,0-0.7,0c-5.5-0.7-8.7-9.6-7.3-20.2c1.4-10.5,6.8-18.3,12.3-17.5
						c5.5,0.7,8.7,9.6,7.3,20.2C803.8,444.9,798.8,452.4,793.6,452.4z M797.1,416.2c-4.3,0-8.8,7.3-10,16.2
						c-1.2,9.3,1.5,17.8,5.9,18.4c4.5,0.6,9.3-6.9,10.5-16.2c1.2-9.4-1.5-17.8-5.9-18.4C797.5,416.2,797.3,416.2,797.1,416.2z"/>
				</g>
				<g>
					<path fill="#1E7A85" d="M795.4,443.1c-0.6,0-1.1,0-1.7-0.1c-2.6-0.4-4.9-1.9-6.4-4c-1.5-2.2-2.1-4.8-1.7-7.4
						c0.8-4.8,4.9-8.3,9.8-8.3c0.6,0,1.1,0,1.7,0.1c5.4,0.9,9,6.1,8.1,11.4C804.4,439.6,800.3,443.1,795.4,443.1z M795.4,424.8
						c-4.1,0-7.5,2.9-8.2,6.9c-0.4,2.2,0.1,4.4,1.4,6.2c1.3,1.8,3.2,3,5.4,3.4c0.5,0.1,0.9,0.1,1.4,0.1c4.1,0,7.5-2.9,8.2-6.9
						c0.8-4.5-2.3-8.8-6.8-9.6C796.3,424.9,795.9,424.8,795.4,424.8z"/>
				</g>
			</g>
			<g>
				<g>
					<path fill="#1E7A85" d="M832.1,482.5c-4.4,0-10.1-2.3-15.1-6.2c-5.7-4.4-9.6-9.9-10.1-14.5c-0.3-2,0.1-3.7,1.1-5
						c1.2-1.6,3.3-2.4,6-2.4c4.4,0,10.1,2.3,15.1,6.2c4,3,7.1,6.7,8.8,10.3c1.8,3.7,1.9,7,0.2,9.2
						C836.8,481.7,834.8,482.5,832.1,482.5z M813.9,456c-1.5,0-3.5,0.3-4.7,1.8c-0.7,1-1,2.2-0.8,3.8c0.5,4.1,4.3,9.4,9.5,13.4
						c4.8,3.7,10.1,5.9,14.2,5.9c1.5,0,3.5-0.3,4.7-1.8c1.3-1.7,1.2-4.3-0.4-7.5c-1.6-3.3-4.6-6.8-8.3-9.7
						C823.3,458.2,818,456,813.9,456z"/>
				</g>
				<g>
					<path fill="#1E7A85" d="M822.7,478.2c-2.3,0-4.5-0.8-6.3-2.3c-2-1.7-3.3-4.1-3.5-6.7c-0.2-2.6,0.5-5.2,2.2-7.2
						c1.9-2.3,4.7-3.6,7.6-3.6c2.3,0,4.6,0.8,6.3,2.3c2,1.7,3.3,4.1,3.5,6.7c0.2,2.6-0.5,5.2-2.2,7.2
						C828.4,476.8,825.7,478.2,822.7,478.2z M822.7,459.9c-2.5,0-4.8,1.1-6.4,3c-1.4,1.7-2.1,3.9-1.9,6.1c0.2,2.2,1.3,4.2,3,5.6
						c1.5,1.2,3.4,1.9,5.3,1.9c2.5,0,4.8-1.1,6.4-3c1.4-1.7,2.1-3.9,1.9-6.1c-0.2-2.2-1.3-4.2-3-5.6
						C826.5,460.6,824.6,459.9,822.7,459.9z"/>
				</g>
			</g>
			<g>
				<g>
					<path fill="#1E7A85" d="M724,514.3c-4.9,0-8.4-1.6-9.6-4.5c-0.6-1.5-0.5-3.3,0.2-5.1c1.8-4.3,7-8.6,13.6-11.3
						c4-1.7,8.2-2.6,11.8-2.6c4.9,0,8.4,1.6,9.6,4.5c2.1,5.1-3.9,12.3-13.8,16.4C731.8,513.4,727.6,514.3,724,514.3z M740,492.5
						c-3.4,0-7.4,0.9-11.2,2.4c-6.1,2.5-11.1,6.6-12.7,10.4c-0.6,1.5-0.7,2.8-0.2,3.9c0.9,2.2,3.9,3.5,8.1,3.5
						c3.4,0,7.4-0.9,11.2-2.4c8.7-3.6,14.6-10.2,12.9-14.3C747.2,493.8,744.3,492.5,740,492.5z"/>
				</g>
				<g>
					<path fill="#1E7A85" d="M731.7,512.7c-4.1,0-7.9-2.6-9.3-6.5c-1.9-5.1,0.7-10.8,5.9-12.7c1.1-0.4,2.3-0.6,3.4-0.6
						c4.1,0,7.9,2.6,9.3,6.5c0.9,2.5,0.8,5.2-0.3,7.6c-1.1,2.4-3.1,4.2-5.6,5.2C734,512.4,732.8,512.7,731.7,512.7z M731.7,494.4
						c-1,0-1.9,0.2-2.9,0.5c-4.3,1.6-6.5,6.4-4.9,10.7c1.2,3.2,4.3,5.4,7.8,5.4c1,0,1.9-0.2,2.9-0.5c2.1-0.8,3.7-2.3,4.7-4.3
						c0.9-2,1-4.3,0.2-6.3C738.3,496.6,735.1,494.4,731.7,494.4z"/>
				</g>
			</g>
			<g>
				<g>
					<path fill="#1E7A85" d="M779.5,501.7c-0.2,0-0.5,0-0.7,0c-5.5-0.7-8.7-9.6-7.3-20.2c1.4-10.5,6.8-18.3,12.3-17.5
						c2.7,0.4,5,2.7,6.3,6.7c1.3,3.8,1.6,8.5,1,13.5C789.8,494.2,784.8,501.7,779.5,501.7z M783.1,465.5c-4.3,0-8.8,7.3-10,16.2
						c-1.3,9.4,1.5,17.8,5.9,18.4c4.5,0.6,9.3-6.9,10.5-16.2c0.6-4.7,0.3-9.2-0.9-12.8c-1.1-3.3-2.9-5.3-5-5.6
						C783.5,465.5,783.3,465.5,783.1,465.5z"/>
				</g>
				<g>
					<path fill="#1E7A85" d="M781.3,493.1c-0.6,0-1.1,0-1.7-0.1c-5.4-0.9-9-6.1-8.1-11.5c0.8-4.8,4.9-8.2,9.7-8.2
						c0.6,0,1.1,0,1.7,0.1c2.6,0.4,4.9,1.9,6.4,4c1.5,2.2,2.1,4.8,1.7,7.4C790.2,489.7,786.1,493.1,781.3,493.1z M781.2,474.9
						c-4.1,0-7.5,2.9-8.2,6.9c-0.8,4.5,2.3,8.8,6.8,9.6c0.5,0.1,0.9,0.1,1.4,0.1c4.1,0,7.5-2.9,8.2-6.9c0.4-2.2-0.1-4.4-1.4-6.2
						c-1.3-1.8-3.2-3-5.4-3.4C782.2,474.9,781.7,474.9,781.2,474.9z"/>
				</g>
			</g>
			<g>
				<g>
					<path fill="#1E7A85" d="M750.4,451.1c-4.4,0-10.1-2.3-15.1-6.2c-4-3-7.1-6.7-8.8-10.2c-1.8-3.7-1.9-7-0.2-9.2
						c1.2-1.6,3.3-2.5,6-2.5c4.4,0,10.1,2.3,15.1,6.2c4,3,7.1,6.7,8.8,10.3c1.8,3.8,1.9,7,0.2,9.2
						C755.2,450.2,753.1,451.1,750.4,451.1z M732.2,424.6c-1.5,0-3.5,0.3-4.7,1.8c-1.3,1.7-1.2,4.3,0.4,7.5c1.6,3.4,4.6,6.8,8.3,9.7
						c4.8,3.7,10.1,5.9,14.2,5.9c1.5,0,3.5-0.3,4.7-1.8c1.3-1.7,1.1-4.3-0.4-7.5c-1.6-3.4-4.6-6.8-8.4-9.7
						C741.6,426.8,736.3,424.6,732.2,424.6z"/>
				</g>
				<g>
					<path fill="#1E7A85" d="M741.6,447.2c-2.3,0-4.6-0.8-6.3-2.3c-2-1.7-3.3-4.1-3.5-6.7c-0.2-2.6,0.6-5.2,2.3-7.2
						c1.9-2.3,4.7-3.6,7.6-3.6c2.3,0,4.6,0.8,6.3,2.3c2,1.7,3.3,4.1,3.5,6.7c0.3,2.6-0.5,5.2-2.2,7.3
						C747.4,445.9,744.6,447.2,741.6,447.2z M741.6,429c-2.5,0-4.8,1.1-6.4,3c-1.4,1.7-2.1,3.8-1.9,6.1c0.2,2.2,1.3,4.2,3,5.6
						c1.5,1.2,3.4,1.9,5.3,1.9c2.5,0,4.8-1.1,6.4-3c1.4-1.7,2.1-3.9,1.9-6.1c-0.2-2.2-1.3-4.2-3-5.6
						C745.4,429.6,743.6,429,741.6,429z"/>
				</g>
			</g>
			<g>
				<g>
					<path fill="#1E7A85" d="M738.5,403.2c-4.9,0-8.4-1.6-9.6-4.5c-2.1-5.2,4-12.4,13.8-16.4c4-1.6,8.2-2.6,11.8-2.6
						c4.9,0,8.4,1.6,9.6,4.5c2.1,5.1-4,12.3-13.8,16.4C746.3,402.3,742.1,403.2,738.5,403.2z M754.6,381.4c-3.4,0-7.4,0.9-11.2,2.4
						c-8.7,3.6-14.6,10.2-12.9,14.3c0.9,2.2,3.9,3.5,8.1,3.5c3.4,0,7.4-0.9,11.2-2.4c8.7-3.6,14.7-10.2,13-14.3
						C761.7,382.6,758.8,381.4,754.6,381.4z"/>
				</g>
				<g>
					<path fill="#1E7A85" d="M746.9,401.2c-4.1,0-7.9-2.6-9.3-6.5c-0.9-2.5-0.8-5.2,0.3-7.6c1.1-2.4,3.1-4.2,5.6-5.1
						c1.1-0.4,2.3-0.6,3.4-0.6c4.1,0,7.9,2.6,9.3,6.5c1.9,5.1-0.7,10.8-5.9,12.7C749.2,401,748.1,401.2,746.9,401.2z M746.9,383
						c-1,0-2,0.2-2.9,0.5c-2.1,0.8-3.7,2.3-4.7,4.3c-0.9,2-1,4.3-0.2,6.4c1.2,3.3,4.3,5.4,7.8,5.4c1,0,1.9-0.2,2.9-0.5
						c4.3-1.6,6.5-6.4,4.9-10.7C753.5,385.2,750.3,383,746.9,383z"/>
				</g>
			</g>
		</g>
		<g>
			<g>
				<g>
					<path fill="#1E7A85" d="M563.7,525.8c-1.7,0-3.2-0.5-4.3-1.5c-2.1-1.8-2.6-5-1.6-9.1c1-3.8,3.4-8,6.7-11.8
						c4.9-5.6,11.1-9.2,15.7-9.2c1.7,0,3.2,0.5,4.3,1.5c4.2,3.7,1.9,12.8-5.1,20.8C574.5,522.2,568.3,525.8,563.7,525.8z
						 M580.3,495.9c-4.2,0-9.9,3.4-14.5,8.6c-3.1,3.6-5.4,7.5-6.3,11.1c-0.9,3.4-0.5,6.1,1.1,7.5c0.8,0.7,1.9,1.1,3.2,1.1
						c4.2,0,9.9-3.4,14.5-8.6c6.2-7.1,8.7-15.6,5.3-18.6C582.7,496.3,581.6,495.9,580.3,495.9z"/>
				</g>
				<g>
					<path fill="#1E7A85" d="M571.7,520.3c-2.6,0-5-1-6.8-2.7c-4-3.8-4.1-10.1-0.4-14c1.9-2,4.4-3.1,7.2-3.1c2.5,0,5,1,6.8,2.7
						c1.9,1.8,3,4.3,3.1,6.9s-0.9,5.2-2.7,7.1C577,519.2,574.5,520.3,571.7,520.3z M571.7,502.1c-2.3,0-4.4,0.9-6,2.6
						c-3.2,3.3-3,8.6,0.3,11.8c1.5,1.5,3.6,2.3,5.7,2.3c2.3,0,4.5-0.9,6-2.6c1.5-1.6,2.3-3.7,2.3-5.9c-0.1-2.2-1-4.3-2.6-5.8
						C575.9,502.9,573.9,502.1,571.7,502.1z"/>
				</g>
			</g>
			<g>
				<g>
					<path fill="#1E7A85" d="M630.2,547.1c-0.6,0-1.2-0.1-1.7-0.3c-1.5-0.5-2.8-1.7-3.7-3.5c-2.1-4.1-2-10.9,0.3-17.7
						c2.9-8.8,8.6-15.2,13.6-15.2c0.6,0,1.2,0.1,1.7,0.3c2.6,0.9,4.4,3.6,5,7.7c0.6,3.9,0,8.7-1.5,13.4
						C640.9,540.7,635.2,547.1,630.2,547.1z M638.7,512c-4.2,0-9.4,6.1-12.1,14.1c-2.1,6.3-2.2,12.8-0.4,16.5
						c0.7,1.4,1.7,2.3,2.8,2.7c0.4,0.1,0.8,0.2,1.2,0.2c4.2,0,9.4-6.1,12.1-14.1c1.5-4.5,2-9,1.5-12.7c-0.5-3.5-1.9-5.8-3.9-6.4
						C639.5,512.1,639.1,512,638.7,512z"/>
				</g>
				<g>
					<path fill="#1E7A85" d="M634.3,539c-1.2,0-2.3-0.2-3.4-0.6c-5.1-1.9-7.7-7.6-5.8-12.7c1.4-3.9,5.2-6.5,9.3-6.5
						c1.2,0,2.3,0.2,3.4,0.6c2.5,0.9,4.5,2.7,5.6,5.2c1.1,2.4,1.2,5.1,0.3,7.6C642.2,536.4,638.4,539,634.3,539z M634.3,520.8
						c-3.5,0-6.6,2.2-7.8,5.4c-1.6,4.3,0.6,9.1,4.9,10.7c0.9,0.3,1.9,0.5,2.9,0.5c3.5,0,6.6-2.2,7.8-5.4c0.8-2.1,0.7-4.3-0.2-6.3
						c-0.9-2-2.6-3.6-4.7-4.3C636.3,521,635.3,520.8,634.3,520.8z"/>
				</g>
			</g>
			<g>
				<g>
					<path fill="#1E7A85" d="M626.7,483.1c-4.5,0-10.4-2.8-15.5-7.2c-5.4-4.7-8.9-10.5-9.2-15.1c-0.1-2,0.4-3.7,1.5-4.9
						c1.2-1.4,3-2.1,5.3-2.1c4.5,0,10.4,2.8,15.5,7.2c5.4,4.7,8.9,10.5,9.2,15.1c0.1,2-0.4,3.7-1.5,4.9
						C630.8,482.4,629,483.1,626.7,483.1z M608.8,455.4c-1.8,0-3.2,0.5-4.1,1.5c-0.8,0.9-1.2,2.2-1.1,3.7c0.3,4.1,3.6,9.6,8.6,14
						c4.8,4.2,10.3,6.8,14.4,6.8c1.8,0,3.2-0.5,4.1-1.5c0.8-0.9,1.2-2.2,1.1-3.7c-0.3-4.1-3.6-9.6-8.6-14
						C618.5,458.1,613,455.4,608.8,455.4z"/>
				</g>
				<g>
					<path fill="#1E7A85" d="M617.5,478.1c-2.5,0-5-1-6.8-2.7c-4-3.8-4.1-10.1-0.4-14c1.9-2,4.4-3.1,7.2-3.1c2.6,0,5,1,6.8,2.7
						c1.9,1.8,3,4.3,3.1,6.9c0.1,2.7-0.9,5.2-2.7,7.1C622.8,477,620.2,478.1,617.5,478.1z M617.5,459.9c-2.3,0-4.4,0.9-6,2.6
						c-3.2,3.3-3,8.6,0.3,11.8c1.5,1.5,3.6,2.3,5.7,2.3c2.3,0,4.5-0.9,6-2.6c1.5-1.6,2.3-3.7,2.3-5.9c-0.1-2.2-1-4.3-2.6-5.8
						C621.6,460.7,619.6,459.9,617.5,459.9z"/>
				</g>
			</g>
			<g>
				<g>
					<path fill="#1E7A85" d="M583.9,572.9c-4.5,0-10.4-2.8-15.5-7.2c-8-7-11.4-15.8-7.7-20c1.2-1.4,3-2.1,5.3-2.1
						c4.5,0,10.4,2.8,15.5,7.2c3.7,3.3,6.6,7.1,8.1,10.8c1.6,3.9,1.4,7.1-0.4,9.2C588.1,572.2,586.2,572.9,583.9,572.9z
						 M566.1,545.2c-1.8,0-3.2,0.5-4.1,1.5c-3,3.4,0.5,11.5,7.6,17.8c4.8,4.2,10.3,6.8,14.4,6.8c1.8,0,3.2-0.5,4.1-1.5
						c1.4-1.6,1.4-4.3,0.1-7.5c-1.4-3.5-4.1-7.1-7.7-10.2C575.7,547.9,570.2,545.2,566.1,545.2z"/>
				</g>
				<g>
					<path fill="#1E7A85" d="M574.7,567.9c-2.6,0-5-1-6.8-2.7c-4-3.8-4.1-10-0.4-14c1.9-2,4.5-3.1,7.2-3.1c2.6,0,5,1,6.8,2.7
						c1.9,1.8,3,4.3,3.1,6.9c0.1,2.6-0.9,5.2-2.7,7.1C580,566.8,577.5,567.9,574.7,567.9z M574.7,549.7c-2.3,0-4.4,0.9-6,2.6
						c-3.1,3.3-3,8.6,0.3,11.7c1.6,1.5,3.6,2.3,5.7,2.3c2.3,0,4.4-0.9,6-2.6c1.5-1.6,2.3-3.7,2.3-5.9c-0.1-2.2-1-4.3-2.6-5.8
						C578.9,550.5,576.8,549.7,574.7,549.7z"/>
				</g>
			</g>
		</g>
	</g>
	<g>
		<g>
			<g>
				<path fill="#1E7A85" d="M553.2,442.8c-4.8,0-10.9-4.2-15.6-10.8c-2.9-4.1-4.9-8.4-5.5-12.4c-0.7-4.1,0.2-7.3,2.5-8.9
					c1-0.7,2.2-1.1,3.6-1.1c4.8,0,10.9,4.2,15.5,10.8c6.2,8.7,7.6,18,3,21.2C555.8,442.4,554.5,442.8,553.2,442.8z M538.2,411.3
					c-1,0-1.9,0.3-2.6,0.8c-1.7,1.2-2.4,3.8-1.8,7.3c0.6,3.7,2.4,7.8,5.2,11.7c4.3,6,10.1,10.1,14.2,10.1c1,0,1.9-0.3,2.7-0.8
					c3.7-2.6,2.1-11.3-3.4-19C548.1,415.4,542.4,411.3,538.2,411.3z"/>
			</g>
			<g>
				<path fill="#1E7A85" d="M545.9,436.5c-3.3,0-6.4-1.7-8.3-4.4c-1.5-2.2-2-4.8-1.4-7.4c0.5-2.6,2-4.8,4.2-6.3
					c1.6-1.1,3.5-1.7,5.5-1.7c3.3,0,6.4,1.7,8.3,4.4c3,4.6,1.8,10.7-2.8,13.8C549.7,435.9,547.8,436.5,545.9,436.5z M545.9,418.2
					c-1.6,0-3.2,0.5-4.6,1.4c-1.8,1.2-3.1,3.1-3.5,5.3c-0.4,2.2,0,4.4,1.2,6.2c1.5,2.3,4.1,3.7,6.9,3.7c1.6,0,3.2-0.5,4.6-1.4
					c3.8-2.5,4.9-7.7,2.3-11.5C551.3,419.6,548.7,418.2,545.9,418.2z"/>
			</g>
		</g>
		<g>
			<g>
				<path fill="#1E7A85" d="M498.9,429.7c-9.1,0-15.8-3.4-16.3-8.2c-0.3-2.7,1.5-5.5,5-7.7c3.4-2.1,7.9-3.6,12.9-4
					c1.2-0.1,2.4-0.2,3.6-0.2c9.1,0,15.8,3.4,16.3,8.2c0.2,1.6-0.4,3.3-1.7,4.8c-2.9,3.6-9.2,6.2-16.3,6.9
					C501.3,429.7,500.1,429.7,498.9,429.7z M504.2,411.3c-1.1,0-2.3,0.1-3.5,0.2c-4.7,0.5-9.1,1.8-12.2,3.8c-3,1.9-4.5,4.1-4.3,6.2
					c0.4,3.8,6.7,6.7,14.7,6.7c1.1,0,2.3-0.1,3.5-0.2c6.6-0.6,12.6-3.1,15.2-6.3c1-1.2,1.4-2.4,1.3-3.6
					C518.5,414.2,512.2,411.3,504.2,411.3z"/>
			</g>
			<g>
				<path fill="#1E7A85" d="M501.9,429.6c-5.2,0-9.6-4.1-9.9-9.3c-0.2-2.6,0.7-5.2,2.5-7.2c1.8-2,4.2-3.2,6.8-3.3
					c5.5-0.3,10.2,3.9,10.5,9.3c0.3,5.5-3.8,10.2-9.3,10.5C502.3,429.6,502.1,429.6,501.9,429.6z M502,411.4c-0.2,0-0.4,0-0.5,0
					c-2.2,0.1-4.2,1.1-5.7,2.8c-1.5,1.7-2.2,3.8-2.1,6c0.3,4.5,4.2,8.1,8.8,7.8c4.6-0.3,8.1-4.2,7.8-8.8
					C510,414.8,506.3,411.4,502,411.4z"/>
			</g>
		</g>
		<g>
			<g>
				<path fill="#1E7A85" d="M656.4,380.4c-0.8,0-1.6-0.2-2.4-0.5c-5.1-2.3-5.6-11.7-1.2-21.4c3.7-8.1,9.6-13.7,14.5-13.7
					c0.8,0,1.6,0.2,2.4,0.5c1.5,0.7,2.6,2,3.3,3.9c1.6,4.3,0.8,11-2.2,17.5C667.3,374.7,661.3,380.4,656.4,380.4z M667.4,346.3
					c-4.2,0-9.7,5.4-13.1,12.8c-3.9,8.6-3.7,17.4,0.4,19.3c0.5,0.2,1.1,0.4,1.7,0.4c4.2,0,9.7-5.4,13-12.8c2.7-6,3.6-12.5,2.1-16.3
					c-0.6-1.5-1.4-2.5-2.5-3C668.6,346.5,668,346.3,667.4,346.3z"/>
			</g>
			<g>
				<path fill="#1E7A85" d="M662,372.1c-1.5,0-3-0.4-4.4-1c-2.4-1.2-4.1-3.2-5-5.7c-0.8-2.5-0.7-5.2,0.5-7.6
					c1.7-3.4,5.1-5.5,8.9-5.5c1.5,0,3,0.3,4.4,1c4.9,2.4,6.9,8.4,4.5,13.3C669.2,370,665.8,372.1,662,372.1z M662.1,353.9
					c-3.2,0-6,1.8-7.4,4.6c-1,2-1.1,4.2-0.4,6.4c0.7,2.1,2.2,3.8,4.2,4.8c1.2,0.6,2.4,0.9,3.7,0.9c3.2,0,6-1.8,7.4-4.6
					c2-4.1,0.4-9.1-3.7-11.1C664.6,354.2,663.4,353.9,662.1,353.9z"/>
			</g>
		</g>
		<g>
			<g>
				<path fill="#1E7A85" d="M529.6,397.2c-4.8,0-10.9-4.2-15.5-10.8c-4.2-5.8-6.3-12.3-5.5-16.8c0.3-2,1.2-3.5,2.5-4.4
					c1-0.7,2.2-1.1,3.6-1.1c4.8,0,10.9,4.2,15.5,10.8c4.2,5.8,6.3,12.2,5.6,16.8c-0.3,2-1.2,3.5-2.5,4.5
					C532.2,396.9,531,397.2,529.6,397.2z M514.6,365.8c-1,0-1.9,0.3-2.6,0.8c-1,0.7-1.6,1.8-1.9,3.4c-0.7,4.1,1.4,10.2,5.3,15.6
					c4.3,6,10,10.1,14.2,10.1c1,0,1.9-0.3,2.7-0.8c1-0.7,1.6-1.9,1.9-3.4c0.7-4.1-1.4-10.2-5.3-15.6
					C524.5,369.8,518.8,365.8,514.6,365.8z"/>
			</g>
			<g>
				<path fill="#1E7A85" d="M521.9,390.3c-3.3,0-6.4-1.7-8.3-4.4c-3-4.6-1.8-10.7,2.8-13.7c1.6-1.1,3.5-1.6,5.5-1.6
					c3.3,0,6.4,1.7,8.3,4.4c1.5,2.2,2,4.9,1.4,7.5c-0.5,2.6-2,4.8-4.2,6.3C525.8,389.7,523.9,390.3,521.9,390.3z M521.9,372.1
					c-1.6,0-3.2,0.5-4.6,1.4c-3.8,2.5-4.9,7.7-2.3,11.5c1.5,2.3,4.1,3.7,6.9,3.7c1.6,0,3.2-0.5,4.6-1.4c1.8-1.2,3.1-3.1,3.5-5.3
					c0.4-2.2,0-4.4-1.2-6.2C527.3,373.5,524.7,372.1,521.9,372.1z"/>
			</g>
		</g>
		<g>
			<g>
				<path fill="#1E7A85" d="M579.9,396.7c-9.1,0-15.8-3.4-16.3-8.2c-0.5-5.5,7.4-10.7,18-11.7c1.2-0.1,2.5-0.2,3.7-0.2
					c9.1,0,15.7,3.4,16.2,8.2c0.2,1.6-0.4,3.3-1.7,4.8c-2.9,3.6-9.2,6.2-16.3,6.9C582.4,396.6,581.1,396.7,579.9,396.7z
					 M585.3,378.2c-1.2,0-2.3,0.1-3.5,0.2c-9.4,0.9-17,5.5-16.5,10c0.4,3.8,6.7,6.7,14.7,6.7c1.1,0,2.3-0.1,3.5-0.2
					c6.6-0.6,12.6-3.1,15.2-6.3c1-1.2,1.5-2.5,1.3-3.7C599.6,381.1,593.3,378.2,585.3,378.2z"/>
			</g>
			<g>
				<path fill="#1E7A85" d="M582.2,396.6c-5.2,0-9.5-4.1-9.9-9.3c-0.2-2.6,0.7-5.2,2.5-7.2c1.8-2,4.2-3.2,6.8-3.3
					c5.5-0.3,10.2,3.9,10.5,9.3c0.2,2.6-0.7,5.2-2.4,7.2c-1.8,2-4.2,3.2-6.8,3.3C582.6,396.6,582.4,396.6,582.2,396.6z M582.3,378.4
					c-0.2,0-0.3,0-0.5,0c-2.2,0.1-4.2,1.1-5.7,2.8c-1.5,1.7-2.2,3.8-2.1,6c0.3,4.5,4.2,8.1,8.8,7.8c2.2-0.1,4.3-1.1,5.7-2.8
					c1.5-1.7,2.2-3.8,2-6C590.3,381.8,586.6,378.4,582.3,378.4z"/>
			</g>
		</g>
		<g>
			<g>
				<path fill="#1E7A85" d="M604.5,441.3c-0.8,0-1.6-0.2-2.4-0.5c-5.1-2.3-5.6-11.7-1.2-21.4c3.7-8.1,9.6-13.7,14.5-13.7
					c0.8,0,1.6,0.2,2.3,0.5c5.1,2.3,5.6,11.7,1.2,21.4C615.4,435.6,609.4,441.3,604.5,441.3z M615.5,407.2c-4.2,0-9.7,5.4-13.1,12.8
					c-3.9,8.6-3.7,17.4,0.4,19.3c0.5,0.2,1.1,0.4,1.7,0.4c4.2,0,9.7-5.4,13.1-12.8c3.9-8.6,3.7-17.4-0.4-19.3
					C616.7,407.3,616.1,407.2,615.5,407.2z"/>
			</g>
			<g>
				<path fill="#1E7A85" d="M609.9,433.7c-1.5,0-3-0.3-4.4-1c-2.4-1.2-4.1-3.2-5-5.7c-0.8-2.5-0.7-5.2,0.5-7.6
					c1.7-3.4,5.1-5.5,8.9-5.5c1.5,0,3,0.4,4.4,1c2.4,1.2,4.2,3.2,5,5.7c0.8,2.5,0.7,5.2-0.5,7.6
					C617.1,431.6,613.7,433.7,609.9,433.7z M609.9,415.5c-3.2,0-6,1.8-7.4,4.6c-1,2-1.1,4.2-0.4,6.4c0.7,2.1,2.2,3.8,4.2,4.8
					c1.2,0.6,2.4,0.9,3.7,0.9c3.2,0,6-1.8,7.4-4.6c1-2,1.2-4.2,0.5-6.3c-0.7-2.1-2.2-3.8-4.2-4.8
					C612.4,415.8,611.2,415.5,609.9,415.5z"/>
			</g>
		</g>
	</g>
	<g>
		<g>
			<g>
				<path fill="#1E7A85" d="M753.7,250.8c-5.5,0-10-8.2-10.3-18.7c-0.2-7.1,1.6-13.7,4.7-17c1.4-1.4,2.9-2.2,4.6-2.3l0.2,0
					c5.4,0,10,8.2,10.3,18.7c0.3,10.7-3.7,19.1-9.3,19.3L753.7,250.8z M752.8,214.4l-0.1,0c-1.2,0-2.4,0.6-3.4,1.8
					c-2.8,3-4.5,9.2-4.3,15.9c0.3,9.5,4.2,17.1,8.7,17.1l0.1,0c4.5-0.1,8.1-8.2,7.7-17.7C761.2,222.1,757.3,214.4,752.8,214.4z"/>
			</g>
			<g>
				<path fill="#1E7A85" d="M753.3,241L753.3,241c-2.7,0-5.2-0.9-7.1-2.8c-1.9-1.9-2.9-4.3-2.9-6.9c0-5.4,4.5-9.8,9.9-9.8
					c5.5,0,10,4.4,9.9,9.8C763.1,236.7,758.7,241,753.3,241z M753.3,223.1c-4.6,0-8.3,3.7-8.3,8.3c0,2.2,0.8,4.3,2.4,5.9
					c1.6,1.6,3.5,2.5,5.7,2.5l-0.1,0.8v-0.8c5,0,8.4-3.7,8.4-8.2C761.4,226.9,757.9,223.2,753.3,223.1z"/>
			</g>
		</g>
		<g>
			<g>
				<path fill="#1E7A85" d="M700.5,278.8c-4.9,0-10.9-5.6-14.6-13.6c-4.5-9.7-4.1-19.1,0.9-21.4c0.7-0.3,1.6-0.5,2.4-0.5
					c4.9,0,10.9,5.6,14.6,13.6c4.5,9.7,4.1,19.1-1,21.4C702.2,278.6,701.4,278.8,700.5,278.8z M689.3,244.9c-0.6,0-1.2,0.1-1.7,0.4
					c-4.1,1.9-4.2,10.7-0.2,19.3c3.4,7.3,8.9,12.6,13.1,12.6c0.6,0,1.2-0.1,1.7-0.4c4.1-1.9,4.2-10.7,0.2-19.3
					C699.1,250.2,693.5,244.9,689.3,244.9z"/>
			</g>
			<g>
				<path fill="#1E7A85" d="M694.8,270.6c-4,0-7.6-2.4-9.1-6.1c-1-2.4-1-5.1,0-7.6c1-2.5,2.9-4.4,5.3-5.4c1.2-0.5,2.5-0.8,3.8-0.8
					c4,0,7.6,2.4,9.1,6.1c1,2.4,1,5.1,0.1,7.6s-2.9,4.4-5.3,5.4C697.4,270.3,696.1,270.6,694.8,270.6z M694.8,252.4
					c-1.1,0-2.2,0.2-3.2,0.7c-2,0.9-3.6,2.5-4.5,4.5c-0.8,2.1-0.8,4.3,0,6.4c1.3,3.1,4.3,5.1,7.6,5.1c1.1,0,2.2-0.2,3.2-0.7
					c2-0.9,3.6-2.5,4.5-4.5c0.8-2.1,0.8-4.3,0-6.4C701.1,254.4,698.1,252.4,694.8,252.4z"/>
			</g>
		</g>
		<g>
			<g>
				<path fill="#1E7A85" d="M747.5,303.4c-10.2,0-17.9-4-18.1-9.3c-0.1-1.6,0.6-3.2,2-4.7c3.1-3.4,9.5-5.6,16.7-5.8
					c10.7-0.3,19.2,3.8,19.3,9.3c0.1,1.6-0.6,3.2-2,4.7c-3.1,3.4-9.5,5.6-16.7,5.8C748.3,303.4,747.9,303.4,747.5,303.4z
					 M749.3,285.2c-0.4,0-0.8,0-1.2,0c-6.6,0.2-12.7,2.3-15.6,5.3c-1.1,1.1-1.6,2.3-1.6,3.5c0.1,4.5,8.2,8.1,17.7,7.7
					c6.6-0.2,12.8-2.3,15.6-5.3c1.1-1.1,1.6-2.3,1.6-3.5C765.6,288.7,758.2,285.2,749.3,285.2z"/>
			</g>
			<g>
				<path fill="#1E7A85" d="M748.7,303L748.7,303c-2.7,0-5.2-0.8-7-2.7c-1.9-1.9-2.9-4.3-2.9-6.9c0-5.4,4.5-9.8,9.9-9.8
					c5.5,0,9.9,4.3,9.9,9.8C758.6,298.8,754.2,303,748.7,303z M748.8,285.2c-4.6,0-8.3,3.7-8.3,8.3c0,2.2,0.8,4.3,2.4,5.9
					c1.6,1.6,3.8,2.4,6,2.4l0.2,0.8v-0.8c4,0,8.2-3.7,8.2-8.3C757.2,288.9,753.4,285.2,748.8,285.2z"/>
			</g>
		</g>
		<g>
			<g>
				<path fill="#1E7A85" d="M717.1,208.7c-10.2,0-18-4-18.1-9.3c-0.2-5.6,8-10.2,18.7-10.5c10.7-0.3,19.2,3.8,19.3,9.3
					c0.2,5.6-8,10.2-18.7,10.5C717.9,208.7,717.5,208.7,717.1,208.7z M718.9,190.5c-0.4,0-0.8,0-1.2,0c-9.4,0.3-17.3,4.4-17.1,8.9
					c0.1,4.5,8.2,8,17.7,7.7c9.4-0.3,17.3-4.4,17.1-8.9C735.3,193.9,727.9,190.5,718.9,190.5z"/>
			</g>
			<g>
				<path fill="#1E7A85" d="M718.4,209L718.4,209c-2.7,0-5.2-1.2-7-3.1c-1.9-1.9-2.9-4.5-2.9-7.1c0-5.4,4.5-9.9,9.9-9.9
					c5.5,0,9.9,4.6,9.9,10.1C728.3,204.4,723.8,209,718.4,209z M718.4,190.5c-4.6,0-8.3,3.7-8.3,8.3c0,2.2,0.8,4.3,2.4,5.9
					c1.6,1.6,3.4,2.4,5.6,2.5l-0.1,0.8v-0.8c5,0,8.5-3.7,8.5-8.3C726.5,194.2,723,190.5,718.4,190.5z"/>
			</g>
		</g>
	</g>
	<g>
		<g>
			<g>
				<g>
					<path fill="#1E7A85" d="M451.4,694.5c-3.4,0-6-1.1-7.2-3.2c-2.9-4.8,2-12.8,11.1-18.3c4.8-2.9,10-4.6,14.2-4.6
						c3.4,0,6,1.1,7.2,3.2c2.9,4.7-2,12.8-11.1,18.3C460.8,692.8,455.6,694.5,451.4,694.5z M469.4,670c-3.9,0-8.8,1.6-13.3,4.3
						c-8.1,4.9-12.9,12.3-10.6,16.1c0.9,1.6,3,2.4,5.9,2.4c3.9,0,8.8-1.6,13.3-4.3c8.1-4.9,12.9-12.3,10.6-16.1
						C474.4,670.8,472.3,670,469.4,670z"/>
				</g>
				<g>
					<path fill="#1E7A85" d="M460.1,691.5c-3.6,0-6.9-1.9-8.7-5.1c-2.7-4.8-0.9-10.8,3.8-13.5c1.5-0.8,3.1-1.3,4.8-1.3
						c3.6,0,6.9,2,8.7,5.1c1.3,2.3,1.6,5,0.9,7.5c-0.7,2.5-2.4,4.7-4.7,5.9C463.4,691.1,461.8,691.5,460.1,691.5z M460.1,673.3
						c-1.4,0-2.8,0.4-4,1c-4,2.2-5.4,7.3-3.2,11.3c1.5,2.6,4.2,4.3,7.3,4.3c1.4,0,2.8-0.4,4-1.1c1.9-1.1,3.3-2.8,3.9-5
						c0.6-2.1,0.3-4.4-0.7-6.3C465.9,674.9,463.1,673.3,460.1,673.3z"/>
				</g>
			</g>
			<g>
				<g>
					<path fill="#1E7A85" d="M470.6,657c-5.5,0-10-8.3-10.2-18.8c-0.1-5,0.8-9.7,2.5-13.3c1.8-3.8,4.3-5.9,7-5.9h0.1
						c5.5,0,10,8.2,10.2,18.8c0.2,7.2-1.7,13.6-4.9,17c-1.4,1.4-3,2.2-4.6,2.2L470.6,657z M470,620.5c-2.2,0-4.2,1.8-5.7,5
						c-1.6,3.4-2.4,7.6-2.3,12.4c0.2,9.3,4.1,17.1,8.6,17.1h0.1c1.2,0,2.4-0.4,3.5-1.6c2.9-3,4.6-9.1,4.5-15.7
						C478.4,628.3,474.5,620.5,470,620.5z"/>
				</g>
				<g>
					<path fill="#1E7A85" d="M470.3,648h-0.1c-5.5,0-9.9-4.5-9.8-10c0.1-5.4,4.5-9.7,9.9-9.7l0.2,0c2.6,0,5.1,1.1,7,3
						c1.8,1.9,2.8,4.3,2.8,6.9C480.2,643.7,475.7,648,470.3,648z M470.3,630c-4.5,0-8.2,3.9-8.3,8.4c-0.1,4.6,3.6,8.6,8.2,8.6h0.1
						c4.5,0,8.2-3.9,8.3-8.4c0-2.2-0.8-4.4-2.3-6c-1.5-1.6-3.6-2.6-5.8-2.6H470.3z"/>
				</g>
			</g>
			<g>
				<g>
					<path fill="#1E7A85" d="M562.8,700.1c-4.1,0-9-1.5-13.6-4c-9.3-5.1-14.6-13-11.9-17.8c1.2-2.3,4-3.5,7.8-3.5
						c4.1,0,9,1.4,13.6,4c4.4,2.4,8,5.5,10.3,8.8c2.4,3.4,2.9,6.6,1.6,9.1C569.4,698.9,566.6,700.1,562.8,700.1z M545.1,676.4
						c-3.2,0-5.5,1-6.4,2.7c-2.2,4,3,11.1,11.3,15.7c4.4,2.4,9.1,3.8,12.9,3.8c3.2,0,5.5-0.9,6.4-2.7c1-1.8,0.5-4.5-1.5-7.4
						c-2.1-3.1-5.6-6-9.7-8.3C553.6,677.8,548.9,676.4,545.1,676.4z"/>
				</g>
				<g>
					<path fill="#1E7A85" d="M554.3,697.5c-1.8,0-3.5-0.5-5.1-1.4c-2.3-1.4-3.9-3.5-4.5-6.1c-0.6-2.6-0.2-5.2,1.1-7.5
						c1.8-3,5-4.8,8.5-4.8c1.8,0,3.5,0.5,5.1,1.4c4.7,2.8,6.2,8.9,3.4,13.6C561,695.7,557.7,697.5,554.3,697.5z M554.3,679.3
						c-2.9,0-5.6,1.6-7.1,4c-1.1,1.9-1.5,4.1-0.9,6.3c0.5,2.2,1.9,4,3.8,5.1c1.3,0.8,2.8,1.2,4.3,1.2c2.9,0,5.6-1.5,7.1-4
						c2.3-3.9,1.1-9-2.9-11.4C557.2,679.7,555.8,679.3,554.3,679.3z"/>
				</g>
			</g>
			<g>
				<g>
					<path fill="#1E7A85" d="M498.6,674.5c-3.4,0-6-1.1-7.2-3.2c-1.4-2.4-1-5.6,1.2-9.1c2.1-3.4,5.6-6.6,9.9-9.2
						c4.8-2.9,10-4.6,14.2-4.6c3.4,0,6,1.1,7.2,3.2c1.4,2.4,1,5.6-1.2,9.1c-2.1,3.4-5.6,6.6-9.9,9.2
						C508,672.8,502.8,674.5,498.6,674.5z M516.7,650c-3.9,0-8.8,1.6-13.3,4.3c-4.1,2.5-7.4,5.5-9.4,8.7c-1.9,3-2.3,5.6-1.2,7.4
						c0.9,1.6,3,2.4,5.9,2.4c3.9,0,8.8-1.6,13.3-4.3c4.1-2.5,7.4-5.5,9.4-8.7c1.9-3,2.3-5.6,1.2-7.4
						C521.6,650.9,519.5,650,516.7,650z"/>
				</g>
				<g>
					<path fill="#1E7A85" d="M508,671.2c-3.6,0-6.9-1.9-8.7-5.1c-1.3-2.3-1.6-5-0.9-7.5c0.7-2.6,2.4-4.7,4.7-6
						c1.5-0.8,3.1-1.3,4.8-1.3c3.6,0,6.9,1.9,8.7,5.1c2.7,4.8,0.9,10.8-3.8,13.5C511.3,670.7,509.7,671.2,508,671.2z M507.9,652.9
						c-1.4,0-2.8,0.4-4,1c-1.9,1.1-3.3,2.9-4,5c-0.6,2.1-0.3,4.4,0.7,6.3c1.5,2.6,4.2,4.3,7.3,4.3c1.4,0,2.8-0.4,4-1
						c4-2.2,5.4-7.3,3.2-11.3C513.8,654.6,511,652.9,507.9,652.9z"/>
				</g>
			</g>
			<g>
				<g>
					<path fill="#1E7A85" d="M497.3,740c-5.5,0-10-8.1-10.2-18.6c-0.1-5,0.8-9.8,2.5-13.4c1.8-3.8,4.3-6,7-6h0.1
						c5.5,0,10,8.4,10.2,19c0.1,5-0.8,9.6-2.5,13.2c-1.8,3.8-4.3,5.8-7,5.8H497.3z M496.7,703.9c-2.2,0-4.2,1.8-5.7,5
						c-1.6,3.4-2.4,8-2.3,12.7c0.2,9.3,4.1,17.4,8.6,17.4h0.1c2.1,0,4.1-2,5.6-5.2c1.6-3.4,2.4-7.9,2.3-12.6
						C505.1,711.9,501.2,703.9,496.7,703.9z"/>
				</g>
				<g>
					<path fill="#1E7A85" d="M497.1,730.8l-0.2,0c-2.6,0-5.1-1.1-7-3c-1.9-1.9-2.8-4.4-2.8-7.1c0.1-5.4,4.5-9.8,9.9-9.8h0.1
						c2.6,0,5.1,1.1,7,3c1.8,1.9,2.8,4.4,2.8,7.1C506.9,726.4,502.4,730.8,497.1,730.8z M497,713c-4.5,0-8.2,3.5-8.3,8
						c0,2.2,0.8,4.1,2.3,5.7c1.5,1.6,3.6,2.3,5.8,2.3h0.2c4.5,0,8.2-3.6,8.3-8.1c0-2.2-0.8-4.1-2.3-5.7c-1.5-1.6-3.6-2.3-5.8-2.3
						H497z"/>
				</g>
			</g>
			<g>
				<g>
					<path fill="#1E7A85" d="M467.1,758.5c-4.1,0-9-1.4-13.6-4c-9.4-5.1-14.6-13-11.9-17.9c1.2-2.3,4-3.5,7.8-3.5
						c4.1,0,9,1.5,13.6,4c9.3,5.1,14.6,13,11.9,17.8C473.7,757.2,470.9,758.5,467.1,758.5z M449.4,734.8c-3.2,0-5.5,0.9-6.4,2.7
						c-2.2,3.9,3,11.1,11.3,15.7c4.4,2.4,9,3.8,12.8,3.8c3.2,0,5.5-0.9,6.4-2.7c2.2-3.9-3-11.1-11.3-15.7
						C457.9,736.1,453.2,734.8,449.4,734.8z"/>
				</g>
				<g>
					<path fill="#1E7A85" d="M457.9,755.5c-1.8,0-3.5-0.5-5.1-1.4c-2.3-1.3-3.9-3.5-4.5-6.1c-0.7-2.6-0.3-5.2,1.1-7.5
						c1.8-3,5-4.8,8.5-4.8c1.8,0,3.5,0.5,5.1,1.4c2.3,1.3,3.9,3.5,4.5,6.1c0.6,2.6,0.3,5.2-1.1,7.5
						C464.7,753.7,461.4,755.5,457.9,755.5z M457.9,737.3c-3,0-5.6,1.5-7.1,4c-1.1,1.9-1.5,4.1-0.9,6.3c0.5,2.2,1.9,4,3.8,5.1
						c1.3,0.8,2.8,1.2,4.3,1.2c2.9,0,5.6-1.6,7.1-4.1c1.1-1.9,1.5-4.1,0.9-6.3c-0.5-2.2-1.9-4-3.8-5.1
						C460.9,737.7,459.4,737.3,457.9,737.3z"/>
				</g>
			</g>
		</g>
		<g>
			<g>
				<g>
					<path fill="#1E7A85" d="M661.3,817.4c-0.6,0-1.1,0-1.7,0c-10.7-0.5-18.8-5.2-18.6-10.8c0.2-5.5,8.8-9.5,19.4-9
						c5,0.2,9.6,1.4,13.1,3.3c3.6,2,5.6,4.7,5.5,7.4C678.9,813.5,671.2,817.4,661.3,817.4z M658.9,799.1c-8.9,0-16,3.3-16.2,7.5
						c-0.2,4.5,7.6,8.7,17,9.1c9.6,0.4,17.6-3,17.8-7.5c0.1-2.1-1.5-4.2-4.6-5.9c-3.3-1.8-7.7-2.9-12.4-3.1
						C659.9,799.1,659.4,799.1,658.9,799.1z"/>
				</g>
				<g>
					<path fill="#1E7A85" d="M660.5,817.4c-0.3,0-0.6,0-0.8,0c-2.6-0.2-5-1.4-6.7-3.5c-1.7-2-2.5-4.6-2.3-7.2
						c0.4-5.4,5.2-9.5,10.7-9.1c5.5,0.5,9.5,5.3,9.1,10.7C669.9,813.4,665.6,817.4,660.5,817.4z M660.5,799.1
						c-4.3,0-7.9,3.4-8.3,7.6c-0.2,2.2,0.5,4.4,1.9,6c1.4,1.7,3.4,2.7,5.6,2.9c4.6,0.4,8.6-3.1,9-7.6c0.4-4.6-3-8.6-7.6-9
						C660.9,799.2,660.7,799.1,660.5,799.1z"/>
				</g>
			</g>
			<g>
				<g>
					<path fill="#1E7A85" d="M627.8,758.5c-5.3,0-9-1.7-10.1-4.8c-1-2.6,0.1-5.7,2.9-8.7c2.7-2.9,6.8-5.5,11.4-7.2
						c3.8-1.4,7.7-2.2,11.1-2.2c5.3,0,9,1.7,10.1,4.8c0.6,1.5,0.4,3.3-0.4,5.1c-1.9,4.2-7.2,8.4-14,10.9
						C635.1,757.8,631.3,758.5,627.8,758.5z M643.1,737.2c-3.3,0-7,0.7-10.6,2.1c-4.4,1.7-8.3,4.1-10.8,6.8
						c-2.4,2.6-3.3,5.1-2.6,7.1c0.9,2.3,4.1,3.7,8.6,3.7c3.3,0,6.9-0.7,10.6-2.1c6.2-2.3,11.4-6.3,13.1-10c0.7-1.4,0.8-2.7,0.3-3.9
						C650.9,738.6,647.7,737.2,643.1,737.2z"/>
				</g>
				<g>
					<path fill="#1E7A85" d="M635.8,756.9c-4.3,0-8-2.7-9.4-6.8c-0.8-2.5-0.7-5.2,0.5-7.6c1.2-2.4,3.2-4.1,5.7-5
						c1-0.3,2.1-0.5,3.1-0.5c4.3,0,8.1,2.7,9.4,6.8c0.8,2.5,0.6,5.2-0.5,7.6c-1.2,2.4-3.2,4.1-5.7,5
						C638,756.7,636.9,756.9,635.8,756.9z M635.8,738.6c-0.9,0-1.8,0.1-2.6,0.4c-2.1,0.7-3.8,2.2-4.8,4.2c-1,2-1.1,4.2-0.4,6.4
						c1.1,3.4,4.3,5.7,7.9,5.7c0.9,0,1.8-0.1,2.6-0.4c2.1-0.7,3.8-2.2,4.8-4.2c1-2,1.1-4.2,0.4-6.3
						C642.6,740.9,639.4,738.6,635.8,738.6z"/>
				</g>
			</g>
			<g>
				<g>
					<path fill="#1E7A85" d="M598.4,816.8c-0.1,0-0.2,0-0.3,0c-1.6-0.1-3.2-0.9-4.5-2.3c-3.1-3.4-4.8-9.9-4.5-17.1
						c0.5-10.6,5.2-18.8,10.8-18.5c2.7,0.1,5.2,2.3,6.9,6.1c1.6,3.6,2.4,8.4,2.2,13.3C608.4,808.7,603.8,816.8,598.4,816.8z
						 M599.6,780.4c-4.5,0-8.5,7.6-8.9,17c-0.3,6.6,1.3,12.9,4.1,15.9c1.1,1.2,2.2,1.8,3.4,1.8l0.2,0c4.5,0,8.5-7.6,8.9-17
						c0.2-4.7-0.5-9.2-2-12.6c-1.4-3.2-3.4-5-5.5-5.1L599.6,780.4z"/>
				</g>
				<g>
					<path fill="#1E7A85" d="M599,808.1c-0.3,0-0.5,0-0.8,0c-5.4-0.5-9.5-5.3-9.1-10.7c0.4-5.4,5.2-9.5,10.7-9.1
						c2.6,0.2,5,1.4,6.8,3.5c1.7,2,2.5,4.6,2.3,7.2C608.4,804.1,604.1,808.1,599,808.1z M599,789.9c-4.3,0-7.9,3.3-8.3,7.6
						c-0.4,4.6,3,8.6,7.6,9c4.5,0.4,8.6-3.1,9-7.6c0.2-2.2-0.5-4.4-2-6c-1.4-1.7-3.4-2.7-5.7-2.9C599.4,789.9,599.2,789.9,599,789.9
						z"/>
				</g>
			</g>
			<g>
				<g>
					<path fill="#1E7A85" d="M695.2,793.9c-0.1,0-0.2,0-0.2,0c-5.5-0.3-9.5-8.8-9-19.5c0.5-10.6,5.2-18.8,10.8-18.5
						c5.5,0.3,9.5,8.8,9,19.4C705.2,785.7,700.6,793.9,695.2,793.9z M696.4,757.5c-4.5,0-8.5,7.6-8.9,17c-0.4,9.4,3,17.6,7.5,17.8
						l0.2,0c4.5,0,8.5-7.6,8.9-17c0.4-9.4-3-17.6-7.5-17.8L696.4,757.5z"/>
				</g>
				<g>
					<path fill="#1E7A85" d="M695.7,785.2c-0.3,0-0.5,0-0.8,0c-5.5-0.5-9.5-5.3-9.1-10.7c0.4-5.4,5.2-9.5,10.7-9.1
						c2.6,0.2,5,1.4,6.7,3.5c1.7,2,2.5,4.6,2.3,7.2C705.2,781.2,700.9,785.2,695.7,785.2z M695.7,766.9c-4.3,0-7.9,3.3-8.3,7.6
						c-0.4,4.6,3,8.6,7.6,9c0.2,0,0.4,0,0.7,0c4.3,0,7.9-3.4,8.3-7.6c0.2-2.2-0.5-4.4-2-6.1c-1.4-1.7-3.4-2.7-5.7-2.9
						C696.2,767,696,766.9,695.7,766.9z"/>
				</g>
			</g>
		</g>
	</g>
</g>
</svg>
