<?xml version="1.0" encoding="utf-8"?>
<!-- Generator: Adobe Illustrator 18.1.1, SVG Export Plug-In . SVG Version: 6.00 Build 0)  -->
<!DOCTYPE svg PUBLIC "-//W3C//DTD SVG 1.1//EN" "http://www.w3.org/Graphics/SVG/1.1/DTD/svg11.dtd">
<svg version="1.1" id="Layer_1" xmlns="http://www.w3.org/2000/svg" xmlns:xlink="http://www.w3.org/1999/xlink" x="0px" y="0px"
	 viewBox="0 0 1920 1080" enable-background="new 0 0 1920 1080" xml:space="preserve">
<g>
	<g>
		<g>
			<polygon fill="#FFFFFF" points="1142.6,65.8 1142.6,128.9 1207.6,128.9 1207.6,65.8 1184.4,65.8 1184.4,56.1 1192.2,56.1 
				1175.1,35.1 1158.1,56.1 1165.8,56.1 1165.8,65.8 			"/>
			<path fill="#1E7A85" d="M1208.4,129.7h-66.6V65h23.2V57h-8.6l18.7-23.2l18.7,23.2h-8.6V65h23.2V129.7z M1143.4,128.1h63.4V66.6
				h-23.2V55.3h6.9l-15.3-19l-15.3,19h6.9v11.3h-23.2V128.1z"/>
		</g>
	</g>
	<g>
		<g>
			<polygon fill="#FFFFFF" points="1310.9,65.8 1310.9,128.9 1375.9,128.9 1375.9,65.8 1352.6,65.8 1352.6,56.1 1360.4,56.1 
				1343.4,35.1 1326.3,56.1 1334.1,56.1 1334.1,65.8 			"/>
			<path fill="#1E7A85" d="M1376.7,129.7H1310V65h23.2V57h-8.6l18.7-23.2l18.7,23.2h-8.6V65h23.2V129.7z M1311.7,128.1h63.4V66.6
				h-23.2V55.3h6.9l-15.3-19l-15.4,19h6.9v11.3h-23.2V128.1z"/>
		</g>
	</g>
	<g>
		<g>
			<polygon fill="#FFFFFF" points="1339.2,181.3 1276.2,181.3 1276.2,246.3 1339.2,246.3 1339.2,223.1 1348.9,223.1 1348.9,230.9 
				1370,213.8 1348.9,196.8 1348.9,204.5 1339.2,204.5 			"/>
			<path fill="#1E7A85" d="M1340,247.1h-64.6v-66.6h64.6v23.2h8.1v-8.6l23.2,18.7l-23.2,18.7v-8.6h-8.1V247.1z M1277,245.5h61.4
				v-23.2h11.3v6.9l19-15.3l-19-15.3v6.9h-11.3v-23.2H1277V245.5z"/>
		</g>
	</g>
	<g>
		<g>
			<polygon fill="#FFFFFF" points="1223.8,319 1223.8,256 1158.8,256 1158.8,319 1182,319 1182,328.7 1174.3,328.7 1191.3,349.8 
				1208.3,328.7 1200.6,328.7 1200.6,319 			"/>
			<path fill="#1E7A85" d="M1191.3,351.1l-18.7-23.2h8.6v-8.1H1158v-64.6h66.6v64.6h-23.2v8.1h8.6L1191.3,351.1z M1176,329.5
				l15.3,19l15.3-19h-6.9v-11.3h23.2v-61.4h-63.4v61.4h23.2v11.3H1176z"/>
		</g>
	</g>
	<g>
		<g>
			<polygon fill="#FFFFFF" points="964.6,319 964.6,256 899.5,256 899.5,319 922.8,319 922.8,328.7 915,328.7 932.1,349.8 
				949.1,328.7 941.3,328.7 941.3,319 			"/>
			<path fill="#1E7A85" d="M932.1,351.1l-18.7-23.2h8.6v-8.1h-23.2v-64.6h66.6v64.6h-23.2v8.1h8.6L932.1,351.1z M916.7,329.5
				l15.3,19l15.3-19h-6.9v-11.3h23.2v-61.4h-63.4v61.4h23.2v11.3H916.7z"/>
		</g>
	</g>
	<g>
		<g>
			<polygon fill="#FFFFFF" points="518.1,914.2 502,853.2 439.2,869.9 455.3,930.8 477.7,924.9 480.2,934.2 472.7,936.2 
				494.6,952.3 505.7,927.5 498.2,929.5 495.7,920.1 			"/>
			<path fill="#1E7A85" d="M494.9,953.5l-24-17.6l8.3-2.2l-2.1-7.8l-22.4,5.9l-16.5-62.5l64.4-17l16.5,62.5l-22.4,5.9l2.1,7.8
				l8.3-2.2L494.9,953.5z M474.6,936.6l19.7,14.5l10-22.3l-6.6,1.8l-2.9-10.9l22.4-5.9l-15.7-59.4l-61.3,16.2l15.7,59.4l22.4-5.9
				l2.9,10.9L474.6,936.6z"/>
		</g>
	</g>
	<g>
		<g>
			<polygon fill="#FFFFFF" points="802.2,763.4 741.2,779.5 757.9,842.3 818.8,826.2 812.9,803.8 822.2,801.3 824.2,808.8 
				840.3,786.9 815.5,775.9 817.5,783.3 808.1,785.8 			"/>
			<path fill="#1E7A85" d="M757.3,843.3l-17-64.4l62.5-16.5l5.9,22.4l7.8-2.1l-2.2-8.3l27.2,12.2l-17.6,24l-2.2-8.3l-7.8,2.1
				l5.9,22.5L757.3,843.3z M742.2,780.1l16.2,61.3l59.4-15.7l-5.9-22.5l10.9-2.9l1.8,6.6l14.5-19.7l-22.3-10l1.8,6.6l-10.9,2.9
				l-5.9-22.4L742.2,780.1z"/>
		</g>
	</g>
</g>
<g>
	<path fill="#1E7A85" d="M1179.6,94.1l8.6,1.9l-28.2,21.9l10.2-17.2l-8.6-1.9l28.2-20.9L1179.6,94.1z"/>
</g>
<g>
	<path fill="#1E7A85" d="M1347.9,94.1l8.6,1.9l-28.2,21.9l10.2-17.2l-8.6-1.9l28.2-20.9L1347.9,94.1z"/>
</g>
<g>
	<path fill="#1E7A85" d="M1312.9,211.1l8.6,1.9l-28.2,21.9l10.2-17.2l-8.6-1.9l28.2-20.9L1312.9,211.1z"/>
</g>
<g>
	<path fill="#1E7A85" d="M1196.9,285.1l8.6,1.9l-28.2,21.9l10.2-17.2l-8.6-1.9l28.2-20.9L1196.9,285.1z"/>
</g>
<g>
	<path fill="#1E7A85" d="M937.4,285.1l8.6,1.9l-28.2,21.9l10.2-17.2l-8.6-1.9l28.2-20.9L937.4,285.1z"/>
</g>
<g>
	<path fill="#1E7A85" d="M785.9,799.5l8.6,1.9l-28.2,21.9l10.2-17.2l-8.6-1.9l28.2-20.9L785.9,799.5z"/>
</g>
<g>
	<path fill="#1E7A85" d="M484.4,890l8.6,1.9l-28.2,21.9l10.2-17.2l-8.6-1.9l28.2-20.9L484.4,890z"/>
</g>
</svg>
