<?xml version="1.0" encoding="utf-8"?>
<!-- Generator: Adobe Illustrator 18.1.1, SVG Export Plug-In . SVG Version: 6.00 Build 0)  -->
<!DOCTYPE svg PUBLIC "-//W3C//DTD SVG 1.1//EN" "http://www.w3.org/Graphics/SVG/1.1/DTD/svg11.dtd">
<svg version="1.1" id="Layer_1" xmlns="http://www.w3.org/2000/svg" xmlns:xlink="http://www.w3.org/1999/xlink" x="0px" y="0px"
	 viewBox="0 0 1920 1080" enable-background="new 0 0 1920 1080" xml:space="preserve">
<g>
	<g>
		<g>
			<rect x="842.6" y="340" fill="#FFFFFF" width="358.4" height="193"/>
			<path fill="#1E7A85" d="M1202.5,534.6H841.1v-196h361.4V534.6z M844.1,531.6h355.4v-190H844.1V531.6z"/>
		</g>
		<g>
			<rect x="842.6" y="533.1" fill="#FFFFFF" width="358.4" height="193"/>
			<path fill="#1E7A85" d="M1202.5,727.5H841.1v-196h361.4V727.5z M844.1,724.5h355.4v-190H844.1V724.5z"/>
		</g>
		<g>
			<rect x="484.2" y="533.1" fill="#FFFFFF" width="358.4" height="193"/>
			<path fill="#1E7A85" d="M844.1,727.5H482.7v-196h361.4V727.5z M485.7,724.5h355.4v-190H485.7V724.5z"/>
		</g>
		<g>
			<rect x="484.2" y="340" fill="#FFFFFF" width="358.4" height="193"/>
			<path fill="#1E7A85" d="M844.1,534.6H482.7v-196h361.4V534.6z M485.7,531.6h355.4v-190H485.7V531.6z"/>
		</g>
		<g>
			<path fill="#1E7A85" d="M492.9,245.1v86.3h103.6v-86.3H492.9z M586.1,320.6h-82.9v-54h82.9V320.6z"/>
		</g>
		<g>
			<path fill="#1E7A85" d="M730.4,245.1v86.3H834v-86.3H730.4z M823.6,320.6h-82.9v-54h82.9V320.6z"/>
		</g>
		<g>
			<path fill="#1E7A85" d="M611.6,245.1v86.3h103.6v-86.3H611.6z M704.9,320.6H622v-54h82.9V320.6z"/>
		</g>
		<g>
			<path fill="#1E7A85" d="M851.2,245.1v86.3h103.6v-86.3H851.2z M944.5,320.6h-82.9v-54h82.9V320.6z"/>
		</g>
		<g>
			<path fill="#1E7A85" d="M1088.7,245.1v86.3h103.6v-86.3H1088.7z M1182,320.6h-82.9v-54h82.9V320.6z"/>
		</g>
		<g>
			<path fill="#1E7A85" d="M970,245.1v86.3h103.6v-86.3H970z M1063.2,320.6h-82.9v-54h82.9V320.6z"/>
		</g>
		<g>
			<path fill="#1E7A85" d="M1192.3,821v-86.3h-103.6V821H1192.3z M1099.1,745.5h82.9v54h-82.9V745.5z"/>
		</g>
		<g>
			<path fill="#1E7A85" d="M1073.6,821v-86.3H970V821H1073.6z M980.3,745.5h82.9v54h-82.9V745.5z"/>
		</g>
		<g>
			<path fill="#1E7A85" d="M954.8,821v-86.3H851.2V821H954.8z M861.6,745.5h82.9v54h-82.9V745.5z"/>
		</g>
		<g>
			<path fill="#1E7A85" d="M834,821v-86.3H730.4V821H834z M740.7,745.5h82.9v54h-82.9V745.5z"/>
		</g>
		<g>
			<path fill="#1E7A85" d="M715.2,821v-86.3H611.6V821H715.2z M622,745.5h82.9v54H622V745.5z"/>
		</g>
		<g>
			<path fill="#1E7A85" d="M596.5,821v-86.3H492.9V821H596.5z M503.2,745.5h82.9v54h-82.9V745.5z"/>
		</g>
		<g>
			<path fill="#1E7A85" d="M1295.9,386.9h-86.3v103.6h86.3V386.9z M1220.4,480.1v-82.9h54v82.9H1220.4z"/>
		</g>
		<g>
			<path fill="#1E7A85" d="M1295.9,575.6h-86.3v103.6h86.3V575.6z M1220.4,668.9V586h54v82.9H1220.4z"/>
		</g>
		<g>
			<path fill="#1E7A85" d="M389.3,679.2h86.3V575.6h-86.3V679.2z M464.8,586v82.9h-54V586H464.8z"/>
		</g>
		<g>
			<path fill="#1E7A85" d="M389.3,490.5h86.3V386.9h-86.3V490.5z M464.8,397.2v82.9h-54v-82.9H464.8z"/>
		</g>
	</g>
</g>
</svg>
