<?xml version="1.0" encoding="utf-8"?>
<!-- Generator: Adobe Illustrator 18.1.1, SVG Export Plug-In . SVG Version: 6.00 Build 0)  -->
<!DOCTYPE svg PUBLIC "-//W3C//DTD SVG 1.1//EN" "http://www.w3.org/Graphics/SVG/1.1/DTD/svg11.dtd">
<svg version="1.1" id="Layer_1" xmlns="http://www.w3.org/2000/svg" xmlns:xlink="http://www.w3.org/1999/xlink" x="0px" y="0px"
	 viewBox="0 0 1920 1080" enable-background="new 0 0 1920 1080" xml:space="preserve">
<g>
	<g>
		<path fill="#FFFFFF" d="M1040.3,607.3c0,3.2-2.6,5.8-5.8,5.8H683.2c-3.2,0-5.8-2.6-5.8-5.8V433c0-3.2,2.6-5.8,5.8-5.8h351.4
			c3.2,0,5.8,2.6,5.8,5.8V607.3z"/>
	</g>
	<g>
		<path fill="#1E7A85" d="M1034.6,614.1H683.2c-3.7,0-6.8-3-6.8-6.8V433c0-3.7,3-6.8,6.8-6.8h351.4c3.7,0,6.8,3,6.8,6.8v174.3
			C1041.4,611.1,1038.3,614.1,1034.6,614.1z M683.2,428.2c-2.6,0-4.7,2.1-4.7,4.7v174.3c0,2.6,2.1,4.7,4.7,4.7h351.4
			c2.6,0,4.7-2.1,4.7-4.7V433c0-2.6-2.1-4.7-4.7-4.7H683.2z"/>
	</g>
</g>
<g>
	<path fill="#1E7A85" d="M760.3,489.3v-2.9c2.7-0.3,4.6-0.7,5.7-1.3c1.1-0.6,1.9-2.1,2.4-4.4h3v29.7h-4v-21.1H760.3z"/>
	<path fill="#1E7A85" d="M802.2,481.1v3.3c-1,0.9-2.2,2.5-3.8,4.9c-1.6,2.3-3,4.8-4.2,7.5c-1.2,2.6-2.1,5-2.7,7.1
		c-0.4,1.4-0.9,3.6-1.6,6.6h-4.1c0.9-5.7,3-11.4,6.2-17c1.9-3.3,3.9-6.2,6-8.6h-16.5v-3.8H802.2z"/>
	<path fill="#1E7A85" d="M807.1,488.8c0.8-0.1,1.4-0.6,1.8-1.3c0.4-0.7,0.6-1.6,0.6-2.5c0-0.1,0-0.2,0-0.3c0-0.1,0-0.2-0.1-0.3h-2.3
		v-4.5h4.5v4.2c0,1.8-0.4,3.3-1.1,4.5c-0.7,1.2-1.9,2-3.4,2.1V488.8z"/>
	<path fill="#1E7A85" d="M816,503.8c0.9-1.9,2.7-3.6,5.4-5.2l4-2.3c1.8-1,3-1.9,3.8-2.7c1.1-1.2,1.7-2.5,1.7-4
		c0-1.7-0.5-3.1-1.6-4.1s-2.4-1.5-4.2-1.5c-2.6,0-4.3,1-5.3,2.9c-0.5,1-0.8,2.5-0.9,4.3h-3.8c0-2.6,0.5-4.7,1.4-6.3
		c1.6-2.9,4.5-4.3,8.6-4.3c3.4,0,5.9,0.9,7.5,2.8c1.6,1.8,2.4,3.9,2.4,6.2c0,2.4-0.8,4.4-2.5,6.1c-1,1-2.7,2.2-5.2,3.6l-2.9,1.6
		c-1.4,0.8-2.4,1.5-3.2,2.1c-1.4,1.2-2.3,2.5-2.6,4h16.3v3.5h-20.5C814.5,507.9,815.1,505.7,816,503.8z"/>
	<path fill="#1E7A85" d="M849.3,488.2h4.9l5.1,7.8l5.2-7.8l4.6,0.1l-7.5,10.8l7.8,11.4h-4.8l-5.5-8.4l-5.4,8.4h-4.7l7.8-11.4
		L849.3,488.2z"/>
	<path fill="#1E7A85" d="M885.9,489.3v-2.9c2.7-0.3,4.6-0.7,5.7-1.3c1.1-0.6,1.9-2.1,2.4-4.4h3v29.7h-4v-21.1H885.9z"/>
	<path fill="#1E7A85" d="M908.4,503.8c0.9-1.9,2.7-3.6,5.4-5.2l4-2.3c1.8-1,3-1.9,3.8-2.7c1.1-1.2,1.7-2.5,1.7-4
		c0-1.7-0.5-3.1-1.6-4.1s-2.4-1.5-4.2-1.5c-2.6,0-4.3,1-5.3,2.9c-0.5,1-0.8,2.5-0.9,4.3h-3.8c0-2.6,0.5-4.7,1.4-6.3
		c1.6-2.9,4.5-4.3,8.6-4.3c3.4,0,5.9,0.9,7.5,2.8c1.6,1.8,2.4,3.9,2.4,6.2c0,2.4-0.8,4.4-2.5,6.1c-1,1-2.7,2.2-5.2,3.6l-2.9,1.6
		c-1.4,0.8-2.4,1.5-3.2,2.1c-1.4,1.2-2.3,2.5-2.6,4h16.3v3.5h-20.5C907,507.9,907.5,505.7,908.4,503.8z"/>
	<path fill="#1E7A85" d="M932.8,488.8c0.8-0.1,1.4-0.6,1.8-1.3c0.4-0.7,0.6-1.6,0.6-2.5c0-0.1,0-0.2,0-0.3c0-0.1,0-0.2-0.1-0.3h-2.3
		v-4.5h4.5v4.2c0,1.8-0.4,3.3-1.1,4.5c-0.7,1.2-1.9,2-3.4,2.1V488.8z"/>
	<path fill="#1E7A85" d="M942.1,508.4c-1.6-1.9-2.4-4.3-2.4-7.1h3.9c0.2,1.9,0.5,3.3,1.1,4.2c1,1.6,2.7,2.4,5.3,2.4
		c2,0,3.6-0.5,4.7-1.6c1.2-1.1,1.8-2.4,1.8-4.1c0-2.1-0.6-3.5-1.9-4.3c-1.3-0.8-3-1.2-5.2-1.2c-0.2,0-0.5,0-0.8,0
		c-0.3,0-0.5,0-0.8,0v-3.3c0.4,0,0.7,0.1,1,0.1s0.5,0,0.9,0c1.4,0,2.6-0.2,3.5-0.7c1.6-0.8,2.4-2.2,2.4-4.2c0-1.5-0.5-2.6-1.6-3.4
		s-2.3-1.2-3.7-1.2c-2.5,0-4.2,0.8-5.2,2.5c-0.5,0.9-0.8,2.2-0.9,3.9h-3.7c0-2.2,0.4-4.1,1.3-5.7c1.5-2.8,4.2-4.2,8.1-4.2
		c3,0,5.4,0.7,7.1,2c1.7,1.4,2.5,3.3,2.5,5.9c0,1.8-0.5,3.3-1.5,4.5c-0.6,0.7-1.4,1.3-2.4,1.7c1.6,0.4,2.8,1.3,3.7,2.5
		c0.9,1.2,1.3,2.7,1.3,4.5c0,2.8-0.9,5.2-2.8,7c-1.9,1.8-4.5,2.7-8,2.7C946.3,511.3,943.7,510.3,942.1,508.4z"/>
	<path fill="#1E7A85" d="M740.4,530.5c-2.2,4.2-3.6,7.3-4.2,9.3c-1,3-1.5,6.6-1.5,10.5c0,4,0.6,7.7,1.7,11c0.7,2.1,2.1,5,4.1,8.9
		H738c-2-3.2-3.3-5.2-3.8-6.1c-0.5-0.9-1-2.1-1.6-3.6c-0.8-2.1-1.3-4.2-1.6-6.6c-0.2-1.2-0.2-2.4-0.2-3.5c0-4.1,0.6-7.8,1.9-11
		c0.8-2,2.5-5.1,5.1-9.2H740.4z"/>
	<path fill="#1E7A85" d="M747.3,554c0.2,2.1,1.2,3.6,3,4.4c0.9,0.4,1.9,0.6,3.1,0.6c2.2,0,3.9-0.7,4.9-2.1c1.1-1.4,1.6-3,1.6-4.7
		c0-2.1-0.6-3.7-1.9-4.8c-1.3-1.1-2.8-1.7-4.6-1.7c-1.3,0-2.4,0.2-3.3,0.8s-1.7,1.2-2.4,2.1l-3.2-0.2l2.3-16.1h15.5v3.6h-12.7
		l-1.3,8.3c0.7-0.5,1.4-0.9,2-1.2c1.1-0.5,2.4-0.7,3.9-0.7c2.7,0,5.1,0.9,7,2.6c1.9,1.8,2.9,4,2.9,6.7c0,2.8-0.9,5.3-2.6,7.5
		c-1.7,2.2-4.5,3.2-8.3,3.2c-2.4,0-4.6-0.7-6.4-2c-1.9-1.4-2.9-3.5-3.1-6.3H747.3z"/>
	<path fill="#1E7A85" d="M769.4,557.1h4.4v4.5h-4.4V557.1z"/>
	<path fill="#1E7A85" d="M780.5,554.9c0.9-1.9,2.7-3.6,5.4-5.2l4-2.3c1.8-1,3-1.9,3.8-2.7c1.1-1.2,1.7-2.5,1.7-4
		c0-1.7-0.5-3.1-1.6-4.1s-2.4-1.5-4.2-1.5c-2.6,0-4.3,1-5.3,2.9c-0.5,1-0.8,2.5-0.9,4.3h-3.8c0-2.6,0.5-4.7,1.4-6.3
		c1.6-2.9,4.5-4.3,8.6-4.3c3.4,0,5.9,0.9,7.5,2.8c1.6,1.8,2.4,3.9,2.4,6.2c0,2.4-0.8,4.4-2.5,6.1c-1,1-2.7,2.2-5.2,3.6l-2.9,1.6
		c-1.4,0.8-2.4,1.5-3.2,2.1c-1.4,1.2-2.3,2.5-2.6,4h16.3v3.5h-20.5C779,559.1,779.6,556.8,780.5,554.9z"/>
	<path fill="#1E7A85" d="M804,539.3h3.7v3.2c0.9-1.1,1.7-1.9,2.4-2.4c1.2-0.8,2.6-1.3,4.2-1.3c1.8,0,3.2,0.4,4.3,1.3
		c0.6,0.5,1.2,1.2,1.7,2.2c0.8-1.2,1.8-2.1,2.9-2.7c1.1-0.6,2.4-0.9,3.8-0.9c3,0,5,1.1,6.1,3.2c0.6,1.2,0.9,2.7,0.9,4.7v14.8h-3.9
		v-15.5c0-1.5-0.4-2.5-1.1-3.1c-0.7-0.6-1.6-0.8-2.7-0.8c-1.5,0-2.7,0.5-3.8,1.5c-1.1,1-1.6,2.6-1.6,4.9v13h-3.8v-14.6
		c0-1.5-0.2-2.6-0.5-3.3c-0.6-1-1.6-1.6-3.2-1.6c-1.4,0-2.7,0.5-3.9,1.6c-1.2,1.1-1.7,3.1-1.7,6v11.8H804V539.3z"/>
	<path fill="#1E7A85" d="M849.3,539.3h4.9l5.1,7.8l5.2-7.8l4.6,0.1l-7.5,10.8l7.8,11.4h-4.8l-5.5-8.4l-5.4,8.4h-4.7l7.8-11.4
		L849.3,539.3z"/>
	<path fill="#1E7A85" d="M885.2,559.5c-1.6-1.9-2.4-4.3-2.4-7.1h3.9c0.2,1.9,0.5,3.3,1.1,4.2c1,1.6,2.7,2.4,5.3,2.4
		c2,0,3.6-0.5,4.7-1.6c1.2-1.1,1.8-2.4,1.8-4.1c0-2.1-0.6-3.5-1.9-4.3c-1.3-0.8-3-1.2-5.2-1.2c-0.2,0-0.5,0-0.8,0
		c-0.3,0-0.5,0-0.8,0v-3.3c0.4,0,0.7,0.1,1,0.1s0.5,0,0.9,0c1.4,0,2.6-0.2,3.5-0.7c1.6-0.8,2.4-2.2,2.4-4.2c0-1.5-0.5-2.6-1.6-3.4
		s-2.3-1.2-3.7-1.2c-2.5,0-4.2,0.8-5.2,2.5c-0.5,0.9-0.8,2.2-0.9,3.9h-3.7c0-2.2,0.4-4.1,1.3-5.7c1.5-2.8,4.2-4.2,8.1-4.2
		c3,0,5.4,0.7,7.1,2c1.7,1.4,2.5,3.3,2.5,5.9c0,1.8-0.5,3.3-1.5,4.5c-0.6,0.7-1.4,1.3-2.4,1.7c1.6,0.4,2.8,1.3,3.7,2.5
		c0.9,1.2,1.3,2.7,1.3,4.5c0,2.8-0.9,5.2-2.8,7c-1.9,1.8-4.5,2.7-8,2.7C889.4,562.4,886.8,561.5,885.2,559.5z"/>
	<path fill="#1E7A85" d="M909.2,557.1h4.4v4.5h-4.4V557.1z"/>
	<path fill="#1E7A85" d="M939.7,532.3v3.3c-1,0.9-2.2,2.5-3.8,4.9c-1.6,2.3-3,4.8-4.2,7.5c-1.2,2.6-2.1,5-2.7,7.1
		c-0.4,1.4-0.9,3.6-1.6,6.6h-4.1c0.9-5.7,3-11.4,6.2-17c1.9-3.3,3.9-6.2,6-8.6h-16.5v-3.8H939.7z"/>
	<path fill="#1E7A85" d="M943.8,539.3h3.7v3.2c0.9-1.1,1.7-1.9,2.4-2.4c1.2-0.8,2.6-1.3,4.2-1.3c1.8,0,3.2,0.4,4.3,1.3
		c0.6,0.5,1.2,1.2,1.7,2.2c0.8-1.2,1.8-2.1,2.9-2.7c1.1-0.6,2.4-0.9,3.8-0.9c3,0,5,1.1,6.1,3.2c0.6,1.2,0.9,2.7,0.9,4.7v14.8h-3.9
		v-15.5c0-1.5-0.4-2.5-1.1-3.1c-0.7-0.6-1.6-0.8-2.7-0.8c-1.5,0-2.7,0.5-3.8,1.5c-1.1,1-1.6,2.6-1.6,4.9v13h-3.8v-14.6
		c0-1.5-0.2-2.6-0.5-3.3c-0.6-1-1.6-1.6-3.2-1.6c-1.4,0-2.7,0.5-3.9,1.6c-1.2,1.1-1.7,3.1-1.7,6v11.8h-3.7V539.3z"/>
	<path fill="#1E7A85" d="M978.1,570.3c2.2-4.3,3.6-7.4,4.3-9.4c1-3,1.5-6.5,1.5-10.5c0-4-0.6-7.7-1.7-11c-0.7-2.1-2.1-5-4.1-8.9h2.5
		c2.1,3.4,3.4,5.5,3.9,6.3c0.5,0.8,0.9,1.9,1.5,3.3c0.7,1.7,1.1,3.4,1.4,5.1c0.3,1.7,0.4,3.3,0.4,4.9c0,4.1-0.7,7.8-2,11
		c-0.8,2.1-2.5,5.1-5.1,9.1H978.1z"/>
</g>
</svg>
