<?xml version="1.0" encoding="utf-8"?>
<!-- Generator: Adobe Illustrator 18.1.1, SVG Export Plug-In . SVG Version: 6.00 Build 0)  -->
<!DOCTYPE svg PUBLIC "-//W3C//DTD SVG 1.1//EN" "http://www.w3.org/Graphics/SVG/1.1/DTD/svg11.dtd">
<svg version="1.1" id="Layer_1" xmlns="http://www.w3.org/2000/svg" xmlns:xlink="http://www.w3.org/1999/xlink" x="0px" y="0px"
	 viewBox="0 0 1920 1080" enable-background="new 0 0 1920 1080" xml:space="preserve">
<g>
	<g>
		<path fill="#1E7A85" d="M667.3,254.1l-86.3,0v103.6l86.3,0V254.1z M591.8,347.3v-82.9l54,0v82.9H591.8z"/>
	</g>
	<g>
		<path fill="#1E7A85" d="M667.3,409.5l-86.3,0v103.6l86.3,0V409.5z M591.8,502.7v-82.9l54,0v82.9H591.8z"/>
	</g>
	<g>
		<path fill="#1E7A85" d="M667.3,564.9l-86.3,0v103.6l86.3,0V564.9z M591.8,658.1v-82.9l54,0v82.9H591.8z"/>
	</g>
	<g>
		<path fill="#1E7A85" d="M822.7,254.1l-86.3,0v103.6l86.3,0V254.1z M747.2,347.3v-82.9l54,0v82.9H747.2z"/>
	</g>
	<g>
		<path fill="#1E7A85" d="M822.7,409.5l-86.3,0v103.6l86.3,0V409.5z M747.2,502.7v-82.9l54,0v82.9H747.2z"/>
	</g>
	<g>
		<path fill="#1E7A85" d="M822.7,564.9l-86.3,0v103.6l86.3,0V564.9z M747.2,658.1v-82.9l54,0v82.9H747.2z"/>
	</g>
	<g>
		<path fill="#1E7A85" d="M978.2,254.1l-86.3,0v103.6l86.3,0V254.1z M902.6,347.3v-82.9l54,0v82.9H902.6z"/>
	</g>
	<g>
		<path fill="#1E7A85" d="M978.2,409.5l-86.3,0v103.6l86.3,0V409.5z M902.6,502.7v-82.9l54,0v82.9H902.6z"/>
	</g>
	<g>
		<path fill="#1E7A85" d="M978.1,564.9l-86.3,0v103.6l86.3,0V564.9z M902.6,658.1v-82.9l54,0v82.9H902.6z"/>
	</g>
	<g>
		<path fill="#1E7A85" d="M667.3,722l-86.3,0v103.6l86.3,0V722z M591.8,815.3v-82.9h54v82.9H591.8z"/>
	</g>
	<g>
		<path fill="#1E7A85" d="M822.7,722l-86.3,0v103.6l86.3,0V722z M747.2,815.3v-82.9h54v82.9H747.2z"/>
	</g>
	<g>
		<path fill="#1E7A85" d="M978.2,722l-86.3,0v103.6l86.3,0V722z M902.6,815.3v-82.9h54v82.9H902.6z"/>
	</g>
	<g>
		<path fill="#1E7A85" d="M1134.7,254.1l-86.3,0v103.6l86.3,0V254.1z M1059.2,347.3v-82.9l54,0v82.9H1059.2z"/>
	</g>
	<g>
		<path fill="#1E7A85" d="M1134.7,409.5l-86.3,0v103.6l86.3,0V409.5z M1059.2,502.7v-82.9l54,0v82.9H1059.2z"/>
	</g>
	<g>
		<path fill="#1E7A85" d="M1134.7,564.9l-86.3,0v103.6l86.3,0V564.9z M1059.2,658.1v-82.9l54,0v82.9H1059.2z"/>
	</g>
	<g>
		<path fill="#1E7A85" d="M1134.7,722l-86.3,0v103.6l86.3,0V722z M1059.2,815.3v-82.9h54v82.9H1059.2z"/>
	</g>
	<g>
		<rect x="269.8" y="422.9" fill="#FFFFFF" width="97.5" height="207.1"/>
		<path fill="#1E7A85" d="M368.8,631.5H268.3V421.4h100.5V631.5z M271.3,628.5h94.5V424.4h-94.5V628.5z"/>
	</g>
</g>
</svg>
