<?xml version="1.0" encoding="utf-8"?>
<!-- Generator: Adobe Illustrator 18.1.1, SVG Export Plug-In . SVG Version: 6.00 Build 0)  -->
<!DOCTYPE svg PUBLIC "-//W3C//DTD SVG 1.1//EN" "http://www.w3.org/Graphics/SVG/1.1/DTD/svg11.dtd">
<svg version="1.1" id="Layer_1" xmlns="http://www.w3.org/2000/svg" xmlns:xlink="http://www.w3.org/1999/xlink" x="0px" y="0px"
	 viewBox="0 0 1920 1080" enable-background="new 0 0 1920 1080" xml:space="preserve">
<g>
	<polygon fill="#FFFFFF" points="1456.6,509.6 1356.2,509.6 1356.2,613.2 1456.6,613.2 1456.6,576.2 1472,576.2 1472,588.5 
		1505.7,561.4 1472,534.3 1472,546.6 1456.6,546.6 	"/>
	<path fill="#1E7A85" d="M1457.6,614.2h-102.5V508.6h102.5v37h13.4v-13.4l36.2,29.3l-36.2,29.2v-13.4h-13.4V614.2z M1357.2,612.2
		h98.4v-37h17.5v11.2l31-25l-31-25v11.2h-17.5v-37h-98.4V612.2z"/>
</g>
<g>
	<g>
		<polygon fill="#FFFFFF" points="850.9,956.2 850.9,855.8 747.3,855.8 747.3,956.2 784.3,956.2 784.3,971.7 772,971.7 
			799.1,1005.3 826.3,971.7 813.9,971.7 813.9,956.2 		"/>
		<path fill="#1E7A85" d="M799.1,1006.9l-29.2-36.2h13.4v-13.4h-37V854.8H852v102.5h-37v13.4h13.4L799.1,1006.9z M774.1,972.7l25,31
			l25-31h-11.2v-17.5h37v-98.4H748.4v98.4h37v17.5H774.1z"/>
	</g>
</g>
<g>
	<path fill="#1E7A85" d="M1414.2,556.7l13.9,3.1l-45.9,35.6l16.5-27.9l-13.9-3.1l45.9-34L1414.2,556.7z"/>
</g>
<g>
	<path fill="#1E7A85" d="M808.3,900.6l13.9,3.1l-45.9,35.6l16.5-27.9l-13.9-3.1l45.9-34L808.3,900.6z"/>
</g>
</svg>
