<?xml version="1.0" encoding="utf-8"?>
<!-- Generator: Adobe Illustrator 18.1.1, SVG Export Plug-In . SVG Version: 6.00 Build 0)  -->
<!DOCTYPE svg PUBLIC "-//W3C//DTD SVG 1.1//EN" "http://www.w3.org/Graphics/SVG/1.1/DTD/svg11.dtd">
<svg version="1.1" id="Layer_1" xmlns="http://www.w3.org/2000/svg" xmlns:xlink="http://www.w3.org/1999/xlink" x="0px" y="0px"
	 viewBox="0 0 1920 1080" enable-background="new 0 0 1920 1080" xml:space="preserve">
<g>
	<g>
		<path fill="#1E7A85" d="M1185.9,237.9h-86.3v103.6h86.3V237.9z M1110.4,331.1v-82.9h54v82.9H1110.4z"/>
	</g>
	<g>
		<path fill="#1E7A85" d="M1185.9,350.1h-86.3v103.6h86.3V350.1z M1110.4,443.3v-82.9h54v82.9H1110.4z"/>
	</g>
	<g>
		<path fill="#1E7A85" d="M1185.9,462.3h-86.3v103.6h86.3V462.3z M1110.4,555.5v-82.9h54v82.9H1110.4z"/>
	</g>
	<g>
		<path fill="#1E7A85" d="M1185.9,574.5h-86.3v103.6h86.3V574.5z M1110.4,667.8v-82.9h54v82.9H1110.4z"/>
	</g>
	<g>
		<path fill="#1E7A85" d="M1185.9,686.5h-86.3v103.6h86.3V686.5z M1110.4,779.8v-82.9h54v82.9H1110.4z"/>
	</g>
	<g>
		<path fill="#1E7A85" d="M1090.9,885.1v-86.3H987.3v86.3H1090.9z M997.7,809.5h82.9v54h-82.9V809.5z"/>
	</g>
	<g>
		<path fill="#1E7A85" d="M978.7,885.1v-86.3H875.1v86.3H978.7z M885.5,809.5h82.9v54h-82.9V809.5z"/>
	</g>
	<g>
		<path fill="#1E7A85" d="M866.5,885.1v-86.3H762.9v86.3H866.5z M773.3,809.5h82.9v54h-82.9V809.5z"/>
	</g>
	<g>
		<path fill="#1E7A85" d="M754.3,885.1v-86.3H650.7v86.3H754.3z M661,809.5h82.9v54H661V809.5z"/>
	</g>
	<g>
		<path fill="#1E7A85" d="M642.3,885.1v-86.3H538.7v86.3H642.3z M549.1,809.5h82.9v54h-82.9V809.5z"/>
	</g>
	<g>
		<path fill="#1E7A85" d="M538.7,142.9v86.3h103.6v-86.3H538.7z M631.9,218.4h-82.9v-54h82.9V218.4z"/>
	</g>
	<g>
		<path fill="#1E7A85" d="M650.9,142.9v86.3h103.6v-86.3H650.9z M744.2,218.4h-82.9v-54h82.9V218.4z"/>
	</g>
	<g>
		<path fill="#1E7A85" d="M763.1,142.9v86.3h103.6v-86.3H763.1z M856.4,218.4h-82.9v-54h82.9V218.4z"/>
	</g>
	<g>
		<path fill="#1E7A85" d="M875.4,142.9v86.3h103.6v-86.3H875.4z M968.6,218.4h-82.9v-54h82.9V218.4z"/>
	</g>
	<g>
		<path fill="#1E7A85" d="M987.3,142.9v86.3h103.6v-86.3H987.3z M1080.6,218.4h-82.9v-54h82.9V218.4z"/>
	</g>
</g>
</svg>
