<?xml version="1.0" encoding="utf-8"?>
<!-- Generator: Adobe Illustrator 18.1.1, SVG Export Plug-In . SVG Version: 6.00 Build 0)  -->
<!DOCTYPE svg PUBLIC "-//W3C//DTD SVG 1.1//EN" "http://www.w3.org/Graphics/SVG/1.1/DTD/svg11.dtd">
<svg version="1.1" id="Layer_1" xmlns="http://www.w3.org/2000/svg" xmlns:xlink="http://www.w3.org/1999/xlink" x="0px" y="0px"
	 viewBox="0 0 1920 1080" enable-background="new 0 0 1920 1080" xml:space="preserve">
<g>
	<g>
		<rect x="806.9" y="298.2" fill="#FFFFFF" width="130.5" height="65.7"/>
		<path fill="#1E7A85" d="M938.1,364.7h-132v-67.3h132V364.7z M807.7,363.1h128.9V299H807.7V363.1z"/>
	</g>
	<g>
		<rect x="546" y="298.2" fill="#FFFFFF" width="130.5" height="65.7"/>
		<path fill="#1E7A85" d="M677.2,364.7h-132v-67.3h132V364.7z M546.8,363.1h128.9V299H546.8V363.1z"/>
	</g>
	<g>
		<rect x="676.5" y="298.2" fill="#FFFFFF" width="130.5" height="65.7"/>
		<path fill="#1E7A85" d="M807.7,364.7h-132v-67.3h132V364.7z M677.2,363.1h128.9V299H677.2V363.1z"/>
	</g>
	<g>
		<rect x="1067.8" y="298.2" fill="#FFFFFF" width="130.5" height="65.7"/>
		<path fill="#1E7A85" d="M1199,364.7h-132v-67.3h132V364.7z M1068.6,363.1h128.9V299h-128.9V363.1z"/>
	</g>
	<g>
		<rect x="937.4" y="298.2" fill="#FFFFFF" width="130.4" height="65.7"/>
		<path fill="#1E7A85" d="M1068.6,364.7h-132v-67.3h132V364.7z M938.1,363.1h128.9V299H938.1V363.1z"/>
	</g>
	<g>
		<path fill="#1E7A85" d="M546.8,364.7h-132v-67.3h132V364.7z M416.3,363.1h128.9V299H416.3V363.1z"/>
	</g>
	<g>
		<rect x="415.6" y="494.4" fill="#FFFFFF" width="65.7" height="130.5"/>
		<path fill="#1E7A85" d="M482.1,625.6h-67.3v-132h67.3V625.6z M416.3,624h64.2V495.1h-64.2V624z"/>
	</g>
	<g>
		<rect x="415.6" y="624.8" fill="#FFFFFF" width="65.7" height="130.5"/>
		<path fill="#1E7A85" d="M482.1,756h-67.3V624h67.3V756z M416.3,754.5h64.2V625.6h-64.2V754.5z"/>
	</g>
	<g>
		<path fill="#1E7A85" d="M482.1,495.1h-67.3v-132h67.3V495.1z M416.3,493.6h64.2V364.7h-64.2V493.6z"/>
	</g>
	<g>
		<rect x="1132.6" y="494.4" fill="#FFFFFF" width="65.7" height="130.5"/>
		<path fill="#1E7A85" d="M1199,625.6h-67.3v-132h67.3V625.6z M1133.3,624h64.2V495.1h-64.2V624z"/>
	</g>
	<g>
		<rect x="1132.6" y="624.8" fill="#FFFFFF" width="65.7" height="130.5"/>
		<path fill="#1E7A85" d="M1199,756h-67.3V624h67.3V756z M1133.3,754.5h64.2V625.6h-64.2V754.5z"/>
	</g>
	<g>
		<path fill="#1E7A85" d="M1199,495.1h-67.3v-132h67.3V495.1z M1133.3,493.6h64.2V364.7h-64.2V493.6z"/>
	</g>
	<g>
		<rect x="806.9" y="755.3" fill="#FFFFFF" width="130.5" height="65.7"/>
		<path fill="#1E7A85" d="M938.1,821.8h-132v-67.3h132V821.8z M807.7,820.2h128.9V756H807.7V820.2z"/>
	</g>
	<g>
		<rect x="546" y="755.3" fill="#FFFFFF" width="130.5" height="65.7"/>
		<path fill="#1E7A85" d="M677.2,821.8h-132v-67.3h132V821.8z M546.8,820.2h128.9V756H546.8V820.2z"/>
	</g>
	<g>
		<rect x="676.5" y="755.3" fill="#FFFFFF" width="130.5" height="65.7"/>
		<path fill="#1E7A85" d="M807.7,821.8h-132v-67.3h132V821.8z M677.2,820.2h128.9V756H677.2V820.2z"/>
	</g>
	<g>
		<rect x="1067.8" y="755.3" fill="#FFFFFF" width="130.5" height="65.7"/>
		<path fill="#1E7A85" d="M1199,821.8h-132v-67.3h132V821.8z M1068.6,820.2h128.9V756h-128.9V820.2z"/>
	</g>
	<g>
		<rect x="937.4" y="755.3" fill="#FFFFFF" width="130.4" height="65.7"/>
		<path fill="#1E7A85" d="M1068.6,821.8h-132v-67.3h132V821.8z M938.1,820.2h128.9V756H938.1V820.2z"/>
	</g>
	<g>
		<path fill="#1E7A85" d="M546.8,821.8h-132v-67.3h132V821.8z M416.3,820.2h128.9V756H416.3V820.2z"/>
	</g>
	<g>
		<g>
			<g>
				<path fill="#1E7A85" d="M421.8,262.3v27h32.4v-27H421.8z M451,286H425v-16.9H451V286z"/>
			</g>
		</g>
	</g>
	<g>
		<g>
			<g>
				<path fill="#1E7A85" d="M506.1,262.3v27h32.4v-27H506.1z M535.3,285.9h-25.9v-16.9h25.9V285.9z"/>
			</g>
		</g>
	</g>
	<g>
		<g>
			<g>
				<path fill="#1E7A85" d="M464.6,262.3v27H497v-27H464.6z M493.8,285.9h-25.9v-16.9h25.9V285.9z"/>
			</g>
		</g>
	</g>
	<g>
		<g>
			<g>
				<path fill="#1E7A85" d="M553.4,262.3v27h32.4v-27H553.4z M582.6,286h-25.9v-16.9h25.9V286z"/>
			</g>
		</g>
	</g>
	<g>
		<g>
			<g>
				<path fill="#1E7A85" d="M637.8,262.3v27h32.4v-27H637.8z M667,285.9h-25.9v-16.9H667V285.9z"/>
			</g>
		</g>
	</g>
	<g>
		<g>
			<g>
				<path fill="#1E7A85" d="M596.2,262.3v27h32.4v-27H596.2z M625.4,285.9h-25.9v-16.9h25.9V285.9z"/>
			</g>
		</g>
	</g>
	<g>
		<g>
			<g>
				<path fill="#1E7A85" d="M683.9,262.3v27h32.4v-27H683.9z M713.1,286h-25.9v-16.9h25.9V286z"/>
			</g>
		</g>
	</g>
	<g>
		<g>
			<g>
				<path fill="#1E7A85" d="M768.3,262.3v27h32.4v-27H768.3z M797.5,285.9h-25.9v-16.9h25.9V285.9z"/>
			</g>
		</g>
	</g>
	<g>
		<g>
			<g>
				<path fill="#1E7A85" d="M726.7,262.3v27h32.4v-27H726.7z M755.9,285.9h-25.9v-16.9h25.9V285.9z"/>
			</g>
		</g>
	</g>
	<g>
		<g>
			<g>
				<path fill="#1E7A85" d="M381.1,734.5h27v-32.4h-27V734.5z M404.7,705.4v26h-16.9v-26H404.7z"/>
			</g>
		</g>
	</g>
	<g>
		<g>
			<g>
				<path fill="#1E7A85" d="M381.1,654.8h27v-32.4h-27V654.8z M404.7,625.6v25.9h-16.9v-25.9H404.7z"/>
			</g>
		</g>
	</g>
	<g>
		<g>
			<g>
				<path fill="#1E7A85" d="M381,694.7h27v-32.4h-27V694.7z M404.7,665.5v26h-16.9v-26H404.7z"/>
			</g>
		</g>
	</g>
	<g>
		<g>
			<g>
				<path fill="#1E7A85" d="M381.1,614.9h27v-32.4h-27V614.9z M404.7,585.7v25.9h-16.9v-25.9H404.7z"/>
			</g>
		</g>
	</g>
	<g>
		<g>
			<g>
				<path fill="#1E7A85" d="M381.1,535.2h27v-32.4h-27V535.2z M404.7,506v26h-16.9v-26H404.7z"/>
			</g>
		</g>
	</g>
	<g>
		<g>
			<g>
				<path fill="#1E7A85" d="M381,575.1h27v-32.4h-27V575.1z M404.7,545.9v26h-16.9v-26H404.7z"/>
			</g>
		</g>
	</g>
	<g>
		<g>
			<g>
				<path fill="#1E7A85" d="M381.1,495.3h27v-32.4h-27V495.3z M404.7,466.1v25.9h-16.9v-25.9H404.7z"/>
			</g>
		</g>
	</g>
	<g>
		<g>
			<g>
				<path fill="#1E7A85" d="M381.1,415.6h27v-32.4h-27V415.6z M404.7,386.4v26h-16.9v-26H404.7z"/>
			</g>
		</g>
	</g>
	<g>
		<g>
			<g>
				<path fill="#1E7A85" d="M381.1,375.7h27v-32.4h-27V375.7z M404.7,346.5v26h-16.9v-26H404.7z"/>
			</g>
		</g>
	</g>
	<g>
		<g>
			<g>
				<path fill="#1E7A85" d="M381.1,335.8h27v-32.4h-27V335.8z M404.7,306.6v25.9h-16.9v-25.9H404.7z"/>
			</g>
		</g>
	</g>
	<g>
		<g>
			<g>
				<path fill="#1E7A85" d="M381.1,774.4h27V742h-27V774.4z M404.7,745.2v25.9h-16.9v-25.9H404.7z"/>
			</g>
		</g>
	</g>
	<g>
		<g>
			<g>
				<path fill="#1E7A85" d="M381.1,814.3h27v-32.4h-27V814.3z M404.7,785.1v26h-16.9v-26H404.7z"/>
			</g>
		</g>
	</g>
	<g>
		<g>
			<g>
				<path fill="#1E7A85" d="M381,455.4h27V423h-27V455.4z M404.7,426.2v25.9h-16.9v-25.9H404.7z"/>
			</g>
		</g>
	</g>
	<g>
		<g>
			<g>
				<path fill="#1E7A85" d="M814.4,262.3v27h32.4v-27H814.4z M843.5,286h-26v-16.9h26V286z"/>
			</g>
		</g>
	</g>
	<g>
		<g>
			<g>
				<path fill="#1E7A85" d="M898.7,262.3v27h32.4v-27H898.7z M927.9,285.9h-26v-16.9h26V285.9z"/>
			</g>
		</g>
	</g>
	<g>
		<g>
			<g>
				<path fill="#1E7A85" d="M857.1,262.3v27h32.4v-27H857.1z M886.3,285.9h-26v-16.9h26V285.9z"/>
			</g>
		</g>
	</g>
	<g>
		<g>
			<g>
				<path fill="#1E7A85" d="M944.8,262.3v27h32.4v-27H944.8z M974,286h-25.9v-16.9H974V286z"/>
			</g>
		</g>
	</g>
	<g>
		<g>
			<g>
				<path fill="#1E7A85" d="M1029.2,262.3v27h32.4v-27H1029.2z M1058.4,285.9h-26v-16.9h26V285.9z"/>
			</g>
		</g>
	</g>
	<g>
		<g>
			<g>
				<path fill="#1E7A85" d="M987.6,262.3v27h32.4v-27H987.6z M1016.8,285.9h-26v-16.9h26V285.9z"/>
			</g>
		</g>
	</g>
	<g>
		<g>
			<g>
				<path fill="#1E7A85" d="M1075.3,262.3v27h32.4v-27H1075.3z M1104.5,286h-26v-16.9h26V286z"/>
			</g>
		</g>
	</g>
	<g>
		<g>
			<g>
				<path fill="#1E7A85" d="M1159.6,262.3v27h32.4v-27H1159.6z M1188.8,285.9h-26v-16.9h26V285.9z"/>
			</g>
		</g>
	</g>
	<g>
		<g>
			<g>
				<path fill="#1E7A85" d="M1118,262.3v27h32.4v-27H1118z M1147.2,285.9h-26v-16.9h26V285.9z"/>
			</g>
		</g>
	</g>
	<g>
		<g>
			<g>
				<path fill="#1E7A85" d="M1192.1,855.5v-27h-32.4v27H1192.1z M1162.9,831.8h25.9v16.9h-25.9V831.8z"/>
			</g>
		</g>
	</g>
	<g>
		<g>
			<g>
				<path fill="#1E7A85" d="M1107.7,855.5v-27h-32.4v27H1107.7z M1078.5,831.9h25.9v16.9h-25.9V831.9z"/>
			</g>
		</g>
	</g>
	<g>
		<g>
			<g>
				<path fill="#1E7A85" d="M1149.3,855.5v-27h-32.4v27H1149.3z M1120.1,831.9h25.9v16.9h-25.9V831.9z"/>
			</g>
		</g>
	</g>
	<g>
		<g>
			<g>
				<path fill="#1E7A85" d="M1060.4,855.5v-27H1028v27H1060.4z M1031.2,831.8h26v16.9h-26V831.8z"/>
			</g>
		</g>
	</g>
	<g>
		<g>
			<g>
				<path fill="#1E7A85" d="M976,855.5v-27h-32.4v27H976z M946.8,831.9h26v16.9h-26V831.9z"/>
			</g>
		</g>
	</g>
	<g>
		<g>
			<g>
				<path fill="#1E7A85" d="M1017.6,855.5v-27h-32.4v27H1017.6z M988.4,831.9h25.9v16.9h-25.9V831.9z"/>
			</g>
		</g>
	</g>
	<g>
		<g>
			<g>
				<path fill="#1E7A85" d="M929.9,855.5v-27h-32.4v27H929.9z M900.7,831.8h25.9v16.9h-25.9V831.8z"/>
			</g>
		</g>
	</g>
	<g>
		<g>
			<g>
				<path fill="#1E7A85" d="M845.6,855.5v-27h-32.4v27H845.6z M816.4,831.9h25.9v16.9h-25.9V831.9z"/>
			</g>
		</g>
	</g>
	<g>
		<g>
			<g>
				<path fill="#1E7A85" d="M887.2,855.5v-27h-32.4v27H887.2z M858,831.9h25.9v16.9H858V831.9z"/>
			</g>
		</g>
	</g>
	<g>
		<g>
			<g>
				<path fill="#1E7A85" d="M799.5,855.5v-27H767v27H799.5z M770.3,831.8h26v16.9h-26V831.8z"/>
			</g>
		</g>
	</g>
	<g>
		<g>
			<g>
				<path fill="#1E7A85" d="M715.1,855.5v-27h-32.4v27H715.1z M685.9,831.9h26v16.9h-26V831.9z"/>
			</g>
		</g>
	</g>
	<g>
		<g>
			<g>
				<path fill="#1E7A85" d="M756.7,855.5v-27h-32.4v27H756.7z M727.5,831.9h26v16.9h-26V831.9z"/>
			</g>
		</g>
	</g>
	<g>
		<g>
			<g>
				<path fill="#1E7A85" d="M669,855.5v-27h-32.4v27H669z M639.8,831.8h25.9v16.9h-25.9V831.8z"/>
			</g>
		</g>
	</g>
	<g>
		<g>
			<g>
				<path fill="#1E7A85" d="M584.7,855.5v-27h-32.4v27H584.7z M555.5,831.9h25.9v16.9h-25.9V831.9z"/>
			</g>
		</g>
	</g>
	<g>
		<g>
			<g>
				<path fill="#1E7A85" d="M626.2,855.5v-27h-32.4v27H626.2z M597,831.9H623v16.9H597V831.9z"/>
			</g>
		</g>
	</g>
	<g>
		<g>
			<g>
				<path fill="#1E7A85" d="M538.6,855.5v-27h-32.4v27H538.6z M509.4,831.8h26v16.9h-26V831.8z"/>
			</g>
		</g>
	</g>
	<g>
		<g>
			<g>
				<path fill="#1E7A85" d="M454.2,855.5v-27h-32.4v27H454.2z M425,831.9H451v16.9H425V831.9z"/>
			</g>
		</g>
	</g>
	<g>
		<g>
			<g>
				<path fill="#1E7A85" d="M495.8,855.5v-27h-32.4v27H495.8z M466.6,831.9h25.9v16.9h-25.9V831.9z"/>
			</g>
		</g>
	</g>
	<g>
		<g>
			<g>
				<path fill="#1E7A85" d="M1232.7,383.1h-27v32.4h27V383.1z M1209.1,412.3v-26h16.9v26H1209.1z"/>
			</g>
		</g>
	</g>
	<g>
		<g>
			<g>
				<path fill="#1E7A85" d="M1232.8,462.9h-27v32.4h27V462.9z M1209.1,492.1v-25.9h16.9v25.9H1209.1z"/>
			</g>
		</g>
	</g>
	<g>
		<g>
			<g>
				<path fill="#1E7A85" d="M1232.8,423h-27v32.4h27V423z M1209.1,452.2v-25.9h16.9v25.9H1209.1z"/>
			</g>
		</g>
	</g>
	<g>
		<g>
			<g>
				<path fill="#1E7A85" d="M1232.7,502.7h-27v32.4h27V502.7z M1209.1,531.9v-26h16.9v26H1209.1z"/>
			</g>
		</g>
	</g>
	<g>
		<g>
			<g>
				<path fill="#1E7A85" d="M1232.8,582.5h-27v32.4h27V582.5z M1209.1,611.7v-26h16.9v26H1209.1z"/>
			</g>
		</g>
	</g>
	<g>
		<g>
			<g>
				<path fill="#1E7A85" d="M1232.8,542.6h-27V575h27V542.6z M1209.1,571.8v-25.9h16.9v25.9H1209.1z"/>
			</g>
		</g>
	</g>
	<g>
		<g>
			<g>
				<path fill="#1E7A85" d="M1232.7,622.4h-27v32.4h27V622.4z M1209.1,651.6v-25.9h16.9v25.9H1209.1z"/>
			</g>
		</g>
	</g>
	<g>
		<g>
			<g>
				<path fill="#1E7A85" d="M1232.8,702.1h-27v32.4h27V702.1z M1209.1,731.3v-26h16.9v26H1209.1z"/>
			</g>
		</g>
	</g>
	<g>
		<g>
			<g>
				<path fill="#1E7A85" d="M1232.8,742h-27v32.4h27V742z M1209.1,771.2v-25.9h16.9v25.9H1209.1z"/>
			</g>
		</g>
	</g>
	<g>
		<g>
			<g>
				<path fill="#1E7A85" d="M1232.8,781.9h-27v32.4h27V781.9z M1209.1,811v-26h16.9v26H1209.1z"/>
			</g>
		</g>
	</g>
	<g>
		<g>
			<g>
				<path fill="#1E7A85" d="M1232.8,343.3h-27v32.4h27V343.3z M1209.1,372.5v-26h16.9v26H1209.1z"/>
			</g>
		</g>
	</g>
	<g>
		<g>
			<g>
				<path fill="#1E7A85" d="M1232.8,303.4h-27v32.4h27V303.4z M1209.1,332.6v-25.9h16.9v25.9H1209.1z"/>
			</g>
		</g>
	</g>
	<g>
		<g>
			<g>
				<path fill="#1E7A85" d="M1232.8,662.2h-27v32.4h27V662.2z M1209.1,691.4v-25.9h16.9v25.9H1209.1z"/>
			</g>
		</g>
	</g>
</g>
</svg>
