<?xml version="1.0" encoding="utf-8"?>
<!-- Generator: Adobe Illustrator 18.1.1, SVG Export Plug-In . SVG Version: 6.00 Build 0)  -->
<!DOCTYPE svg PUBLIC "-//W3C//DTD SVG 1.1//EN" "http://www.w3.org/Graphics/SVG/1.1/DTD/svg11.dtd">
<svg version="1.1" id="Layer_1" xmlns="http://www.w3.org/2000/svg" xmlns:xlink="http://www.w3.org/1999/xlink" x="0px" y="0px"
	 viewBox="0 0 1920 1080" enable-background="new 0 0 1920 1080" xml:space="preserve">
<g>
	<g>
		<g>
			<polygon fill="#FFFFFF" points="939.2,182.7 939.2,244.2 1002.7,244.2 1002.7,182.7 980,182.7 980,173.2 987.5,173.2 
				970.9,152.6 954.3,173.2 961.8,173.2 961.8,182.7 			"/>
			<path fill="#1E7A85" d="M1003.4,245h-65.1v-63.1h22.7V174h-8.4l18.2-22.6l18.2,22.6h-8.4v7.9h22.7V245z M939.9,243.5h62v-60
				h-22.7v-11h6.7l-15-18.6l-15,18.6h6.7v11h-22.7V243.5z"/>
		</g>
	</g>
	<g>
		<g>
			<polygon fill="#FFFFFF" points="369.4,708.7 431,708.7 431,645.2 369.4,645.2 369.4,667.9 360,667.9 360,660.4 339.4,677 
				360,693.6 360,686.1 369.4,686.1 			"/>
			<path fill="#1E7A85" d="M431.8,709.5h-63.1v-22.7h-7.9v8.4L338.1,677l22.6-18.2v8.4h7.9v-22.7h63.1V709.5z M370.2,708h60v-62h-60
				v22.7h-11V662l-18.6,15l18.6,15v-6.7h11V708z"/>
		</g>
	</g>
	<g>
		<g>
			<polygon fill="#FFFFFF" points="753.8,967.6 753.8,906 690.3,906 690.3,967.6 713,967.6 713,977.1 705.4,977.1 722,997.7 
				738.7,977.1 731.1,977.1 731.1,967.6 			"/>
			<path fill="#1E7A85" d="M722,998.9l-18.2-22.6h8.4v-7.9h-22.7v-63.1h65.1v63.1h-22.7v7.9h8.4L722,998.9z M707,977.9l15,18.6
				l15-18.6h-6.7v-11H753v-60h-62v60h22.7v11H707z"/>
		</g>
	</g>
	<g>
		<g>
			<polygon fill="#FFFFFF" points="1243.7,827.7 1182.2,827.7 1182.2,891.2 1243.7,891.2 1243.7,868.5 1253.2,868.5 1253.2,876.1 
				1273.8,859.4 1253.2,842.8 1253.2,850.4 1243.7,850.4 			"/>
			<path fill="#1E7A85" d="M1244.5,892h-63.1v-65.1h63.1v22.7h7.9v-8.4l22.6,18.2l-22.6,18.2v-8.4h-7.9V892z M1182.9,890.4h60v-22.7
				h11v6.7l18.6-15l-18.6-15v6.7h-11v-22.7h-60V890.4z"/>
		</g>
	</g>
	<g>
		<g>
			<polygon fill="#FFFFFF" points="1243.7,307.8 1182.2,307.8 1182.2,371.3 1243.7,371.3 1243.7,348.6 1253.2,348.6 1253.2,356.2 
				1273.8,339.5 1253.2,322.9 1253.2,330.5 1243.7,330.5 			"/>
			<path fill="#1E7A85" d="M1244.5,372.1h-63.1V307h63.1v22.7h7.9v-8.4l22.6,18.2l-22.6,18.2v-8.4h-7.9V372.1z M1182.9,370.5h60
				v-22.7h11v6.7l18.6-15l-18.6-15v6.7h-11v-22.7h-60V370.5z"/>
		</g>
	</g>
	<g>
		<g>
			<polygon fill="#FFFFFF" points="1347.2,322.3 1408.7,322.3 1408.7,258.7 1347.2,258.7 1347.2,281.4 1337.7,281.4 1337.7,273.9 
				1317.1,290.5 1337.7,307.1 1337.7,299.6 1347.2,299.6 			"/>
			<path fill="#1E7A85" d="M1409.5,323h-63.1v-22.7h-7.9v8.4l-22.6-18.2l22.6-18.2v8.4h7.9V258h63.1V323z M1347.9,321.5h60v-62h-60
				v22.7h-11v-6.7l-18.6,15l18.6,15v-6.7h11V321.5z"/>
		</g>
	</g>
	<g>
		<g>
			<polygon fill="#FFFFFF" points="1395.7,910.9 1395.7,849.3 1332.2,849.3 1332.2,910.9 1354.9,910.9 1354.9,920.4 1347.3,920.4 
				1363.9,941 1380.6,920.4 1373,920.4 1373,910.9 			"/>
			<path fill="#1E7A85" d="M1363.9,942.2l-18.2-22.6h8.4v-7.9h-22.7v-63.1h65.1v63.1h-22.7v7.9h8.4L1363.9,942.2z M1348.9,921.1
				l15,18.6l15-18.6h-6.7v-11h22.7v-60h-62v60h22.7v11H1348.9z"/>
		</g>
	</g>
	<g>
		<g>
			<polygon fill="#FFFFFF" points="1699,467.8 1637.4,467.8 1637.4,531.3 1699,531.3 1699,508.6 1708.5,508.6 1708.5,516.2 
				1729.1,499.6 1708.5,482.9 1708.5,490.5 1699,490.5 			"/>
			<path fill="#1E7A85" d="M1699.8,532.1h-63.1V467h63.1v22.7h7.9v-8.4l22.6,18.2l-22.6,18.2v-8.4h-7.9V532.1z M1638.2,530.5h60
				v-22.7h11v6.7l18.6-15l-18.6-15v6.7h-11v-22.7h-60V530.5z"/>
		</g>
	</g>
</g>
<g>
	<path fill="#1E7A85" d="M975.7,211.5l8.6,1.9L956,235.3l10.2-17.2l-8.6-1.9l28.2-20.9L975.7,211.5z"/>
</g>
<g>
	<path fill="#1E7A85" d="M404.7,674.5l8.6,1.9L385,698.3l10.2-17.2l-8.6-1.9l28.2-20.9L404.7,674.5z"/>
</g>
<g>
	<path fill="#1E7A85" d="M726.8,933.1l8.6,1.9l-28.2,21.9l10.2-17.2l-8.6-1.9l28.2-20.9L726.8,933.1z"/>
</g>
<g>
	<path fill="#1E7A85" d="M1217.8,855.8l8.6,1.9l-28.2,21.9l10.2-17.2l-8.6-1.9l28.2-20.9L1217.8,855.8z"/>
</g>
<g>
	<path fill="#1E7A85" d="M1368.7,877.3l8.6,1.9l-28.2,21.9l10.2-17.2l-8.6-1.9l28.2-20.9L1368.7,877.3z"/>
</g>
<g>
	<path fill="#1E7A85" d="M1672.8,495.9l8.6,1.9l-28.2,21.9l10.2-17.2l-8.6-1.9l28.2-20.9L1672.8,495.9z"/>
</g>
<g>
	<path fill="#1E7A85" d="M1381.6,288l8.6,1.9l-28.2,21.9l10.2-17.2l-8.6-1.9l28.2-20.9L1381.6,288z"/>
</g>
<g>
	<path fill="#1E7A85" d="M1217.8,336.9l8.6,1.9l-28.2,21.9l10.2-17.2l-8.6-1.9l28.2-20.9L1217.8,336.9z"/>
</g>
</svg>
