<?xml version="1.0" encoding="utf-8"?>
<!-- Generator: Adobe Illustrator 18.1.1, SVG Export Plug-In . SVG Version: 6.00 Build 0)  -->
<!DOCTYPE svg PUBLIC "-//W3C//DTD SVG 1.1//EN" "http://www.w3.org/Graphics/SVG/1.1/DTD/svg11.dtd">
<svg version="1.1" id="Layer_1" xmlns="http://www.w3.org/2000/svg" xmlns:xlink="http://www.w3.org/1999/xlink" x="0px" y="0px"
	 viewBox="0 0 1920 1080" enable-background="new 0 0 1920 1080" xml:space="preserve">
<g>
	<g>
		<rect x="837.1" y="892.2" fill="#FFFFFF" width="176.5" height="77.1"/>
		<path fill="#1E7A85" d="M1014.4,970.1H836.3v-78.7h178.1V970.1z M837.9,968.5h174.9V893H837.9V968.5z"/>
	</g>
	<g>
		<rect x="660.6" y="892.2" fill="#FFFFFF" width="176.5" height="77.1"/>
		<path fill="#1E7A85" d="M837.9,970.1H659.8v-78.7h178.1V970.1z M661.4,968.5h174.9V893H661.4V968.5z"/>
	</g>
	<g>
		<g>
			<path fill="#1E7A85" d="M726.2,127.5c-5.7,0-13-6.4-17.7-15.5c-5.9-11.3-5.9-22.5,0-25.6c0.9-0.5,2-0.7,3.1-0.7
				c5.7,0,13,6.4,17.7,15.5c2.7,5.3,4.3,10.8,4.4,15.6c0.1,4.9-1.5,8.5-4.4,10C728.4,127.2,727.3,127.5,726.2,127.5z M711.6,87.2
				c-0.9,0-1.7,0.2-2.4,0.6c-4.9,2.5-4.6,13.3,0.7,23.4c4.5,8.6,11.2,14.6,16.3,14.6c0.9,0,1.7-0.2,2.4-0.6c2.3-1.2,3.6-4.2,3.5-8.5
				c-0.1-4.5-1.5-9.8-4.2-14.9C723.5,93.3,716.8,87.2,711.6,87.2z"/>
		</g>
		<g>
			<path fill="#1E7A85" d="M718.7,117.9c-4.5,0-8.7-2.6-10.6-6.7c-2.8-5.9-0.2-12.9,5.6-15.7c1.6-0.7,3.3-1.1,5-1.1
				c4.5,0,8.7,2.6,10.7,6.7c1.3,2.8,1.5,6,0.4,9c-1.1,3-3.2,5.3-6,6.7C722.1,117.5,720.4,117.9,718.7,117.9z M718.7,96
				c-1.5,0-3,0.3-4.3,1c-5.1,2.4-7.2,8.5-4.9,13.5c1.7,3.5,5.3,5.8,9.2,5.8c1.5,0,3-0.3,4.3-1c2.5-1.2,4.3-3.2,5.2-5.8
				c0.9-2.6,0.8-5.3-0.4-7.8C726.2,98.3,722.6,96,718.7,96z"/>
		</g>
	</g>
	<g>
		<g>
			<path fill="#1E7A85" d="M876.6,209c-0.7,0-1.4,0-2.1,0c-8.6-0.4-16.2-3.2-19.9-7.2c-1.6-1.7-2.4-3.7-2.3-5.6
				c0.3-6.5,10.5-11.3,23.2-10.7c12.7,0.6,22.4,6.2,22.1,12.8C897.4,204.4,888.4,209,876.6,209z M873.5,187c-10.7,0-19.3,4-19.5,9.2
				c-0.1,1.5,0.6,3,1.9,4.4c3.4,3.7,10.7,6.3,18.8,6.7c11.7,0.5,21.3-3.7,21.6-9.2c0.3-5.6-9-10.6-20.6-11.1
				C874.8,187,874.1,187,873.5,187z"/>
		</g>
		<g>
			<path fill="#1E7A85" d="M874.6,208.9c-0.3,0-0.7,0-1,0c-3.1-0.3-6-1.7-8-4.1c-2-2.4-3-5.4-2.8-8.6c0.5-6.4,6.2-11.3,12.7-10.7
				c3.1,0.3,6,1.7,8,4.1c2,2.4,3,5.4,2.7,8.6C885.8,204.2,880.7,208.9,874.6,208.9z M874.6,187c-5.2,0-9.7,4.1-10.1,9.3
				c-0.2,2.7,0.6,5.3,2.4,7.4c1.8,2.1,4.2,3.3,6.9,3.6c5.7,0.5,10.5-3.8,11-9.3c0.2-2.7-0.6-5.3-2.4-7.4c-1.8-2.1-4.2-3.3-6.9-3.6
				C875.1,187,874.9,187,874.6,187z"/>
		</g>
	</g>
	<g>
		<g>
			<path fill="#1E7A85" d="M722.5,311.1c-1.4,0-2.7-0.4-3.8-1.1c-1.6-1-2.7-2.8-3.2-5.1c-1.2-5.4,1-13.2,5.6-20.4
				c5.3-8.3,12.7-13.8,18.3-13.8c1.4,0,2.7,0.4,3.8,1.1c5.5,3.6,4.5,14.7-2.3,25.5C735.5,305.5,728.2,311.1,722.5,311.1z
				 M739.4,272.3c-5.1,0-12.1,5.4-17,13.1c-4.3,6.8-6.5,14.3-5.4,19.2c0.4,1.9,1.3,3.3,2.5,4.1c0.8,0.5,1.8,0.8,2.9,0.8
				c5.1,0,12.1-5.4,17-13.1c6.2-9.6,7.5-20.3,2.8-23.3C741.5,272.6,740.5,272.3,739.4,272.3z"/>
		</g>
		<g>
			<path fill="#1E7A85" d="M730.7,303c-2.4,0-4.7-0.7-6.7-2.1c-5.3-3.7-6.6-11-3-16.4c2.2-3.2,5.8-5.1,9.7-5.1
				c2.4,0,4.7,0.7,6.7,2.1c2.6,1.8,4.3,4.5,4.9,7.5c0.6,3.1-0.1,6.2-1.9,8.8C738.1,301.1,734.5,303,730.7,303z M730.7,281.1
				c-3.3,0-6.5,1.6-8.4,4.4c-3.2,4.6-2.1,11,2.6,14.2c1.7,1.2,3.7,1.8,5.8,1.8c3.3,0,6.5-1.6,8.4-4.4c1.6-2.2,2.1-4.9,1.7-7.6
				c-0.5-2.7-2-5-4.2-6.5C734.8,281.7,732.8,281.1,730.7,281.1z"/>
		</g>
	</g>
	<g>
		<g>
			<path fill="#1E7A85" d="M961.2,298.6c-5.7,0-13-6.4-17.7-15.5c-3.9-7.6-5.4-15.6-3.7-20.8c0.7-2.2,2-3.9,3.7-4.8
				c0.9-0.5,2-0.7,3.1-0.7c5.7,0,13,6.4,17.7,15.5c3.9,7.6,5.3,15.6,3.7,20.8c-0.7,2.2-2,3.9-3.7,4.7
				C963.4,298.3,962.4,298.6,961.2,298.6z M946.6,258.3c-0.9,0-1.7,0.2-2.4,0.6c-1.3,0.7-2.3,2-2.9,3.8c-1.5,4.8-0.1,12.5,3.6,19.6
				c4.5,8.6,11.2,14.7,16.3,14.7c0.9,0,1.7-0.2,2.4-0.6c1.3-0.7,2.3-2,2.9-3.8c1.5-4.8,0.1-12.5-3.6-19.6
				C958.6,264.5,951.7,258.3,946.6,258.3z"/>
		</g>
		<g>
			<path fill="#1E7A85" d="M954.2,289.8c-4.5,0-8.7-2.6-10.7-6.7c-1.3-2.8-1.5-6-0.4-9c1.1-3,3.2-5.3,6-6.6c1.6-0.8,3.3-1.1,5-1.1
				c4.5,0,8.7,2.6,10.6,6.7c2.8,5.9,0.3,12.9-5.6,15.7C957.6,289.5,955.9,289.8,954.2,289.8z M954.1,267.9c-1.5,0-3,0.3-4.3,1
				c-2.5,1.2-4.3,3.2-5.2,5.7c-0.9,2.6-0.8,5.3,0.4,7.8c1.7,3.5,5.3,5.8,9.2,5.8c1.5,0,3-0.3,4.3-1c5.1-2.4,7.2-8.5,4.8-13.5
				C961.7,270.2,958,267.9,954.1,267.9z"/>
		</g>
	</g>
	<g>
		<g>
			<path fill="#1E7A85" d="M642.7,231.6c-0.7,0-1.4,0-2.1,0c-6-0.3-11.5-1.7-15.7-4c-4.3-2.4-6.6-5.5-6.5-8.8
				c0.3-6.5,10.5-11.3,23.2-10.7c8.6,0.4,16.2,3.2,19.9,7.2c1.6,1.7,2.4,3.7,2.3,5.6C663.6,227,654.5,231.6,642.7,231.6z
				 M639.6,209.6c-10.7,0-19.3,4.1-19.5,9.2c-0.1,2.6,1.9,5.2,5.7,7.3c3.9,2.2,9.3,3.6,15,3.8c11.7,0.5,21.3-3.7,21.6-9.2
				c0.1-1.5-0.6-3-1.9-4.4c-3.4-3.7-10.8-6.3-18.8-6.7C640.9,209.6,640.3,209.6,639.6,209.6z"/>
		</g>
		<g>
			<path fill="#1E7A85" d="M641.6,231.6c-0.3,0-0.7,0-1,0c-3.1-0.3-6-1.7-8-4.1c-2-2.4-3-5.4-2.7-8.5c0.5-6.4,6.2-11.3,12.7-10.7
				c3.1,0.2,5.9,1.7,8,4.1c2,2.4,3,5.4,2.8,8.6C652.8,226.8,647.7,231.6,641.6,231.6z M641.6,209.7c-5.3,0-9.7,4.1-10.1,9.3
				c-0.2,2.7,0.6,5.3,2.3,7.4c1.8,2.1,4.2,3.3,6.9,3.6c5.6,0.5,10.5-3.8,11-9.3c0.2-2.7-0.6-5.3-2.4-7.4c-1.8-2.1-4.2-3.3-6.9-3.5
				C642.2,209.7,641.9,209.7,641.6,209.7z"/>
		</g>
	</g>
	<g>
		<g>
			<path fill="#1E7A85" d="M617.2,161.9c-1.4,0-2.7-0.4-3.8-1c-5.5-3.6-4.5-14.8,2.4-25.5c5.3-8.3,12.7-13.8,18.4-13.8
				c1.4,0,2.7,0.4,3.8,1.1c5.5,3.6,4.5,14.8-2.4,25.5C630.2,156.3,622.9,161.9,617.2,161.9z M634.1,123.1c-5.1,0-12.1,5.4-17,13.1
				c-6.2,9.6-7.5,20.3-2.8,23.3c0.8,0.5,1.8,0.8,2.9,0.8c5.1,0,12.1-5.4,17-13.1c6.2-9.6,7.5-20.3,2.8-23.3
				C636.2,123.4,635.2,123.1,634.1,123.1z"/>
		</g>
		<g>
			<path fill="#1E7A85" d="M625.9,153.1c-2.4,0-4.7-0.7-6.7-2.1c-2.6-1.8-4.3-4.5-4.9-7.6c-0.6-3.1,0.1-6.2,1.9-8.8
				c2.2-3.2,5.8-5.1,9.7-5.1c2.4,0,4.7,0.7,6.7,2.1c5.3,3.7,6.6,11,3,16.4C633.4,151.2,629.8,153.1,625.9,153.1z M625.9,131.2
				c-3.4,0-6.5,1.6-8.4,4.4c-1.6,2.2-2.1,4.9-1.7,7.6c0.5,2.7,2,5,4.2,6.5c1.7,1.2,3.7,1.8,5.8,1.8c3.3,0,6.5-1.6,8.4-4.4
				c3.2-4.6,2.1-11-2.6-14.2C630,131.8,628,131.2,625.9,131.2z"/>
		</g>
	</g>
	<g>
		<g>
			<path fill="#1E7A85" d="M576.4,431.2c-0.2,0-0.5,0-0.7,0c-3.2-0.4-5.9-3.1-7.6-7.8c-1.6-4.5-2.2-10.2-1.5-16.1
				c1.4-12.6,7.6-22,14.2-21.3c6.5,0.8,10.6,11.2,9.1,23.9C588.5,421.9,582.6,431.2,576.4,431.2z M580.1,387.6
				c-5.4,0-10.7,8.9-12,19.9c-0.6,5.7-0.1,11.2,1.4,15.4c1.5,4.1,3.7,6.4,6.3,6.7c5.6,0.6,11.2-8.5,12.5-19.9
				c1.3-11.4-2.3-21.5-7.7-22.1C580.4,387.6,580.2,387.6,580.1,387.6z"/>
		</g>
		<g>
			<path fill="#1E7A85" d="M578.2,420.8c-0.6,0-1.2,0-1.8-0.1c-6.4-1-10.9-7-9.9-13.4c0.9-5.7,5.8-10,11.6-10c0.6,0,1.2,0,1.8,0.1
				c3.1,0.5,5.8,2.1,7.7,4.6c1.9,2.5,2.6,5.6,2.2,8.7C588.9,416.5,583.9,420.8,578.2,420.8z M578.1,398.9c-5,0-9.3,3.7-10,8.6
				c-0.8,5.5,3,10.7,8.6,11.6c0.5,0.1,1,0.1,1.5,0.1c5,0,9.3-3.7,10.1-8.7c0.4-2.7-0.3-5.4-1.9-7.5c-1.6-2.2-4-3.6-6.7-4
				C579.1,398.9,578.6,398.9,578.1,398.9z"/>
		</g>
	</g>
	<g>
		<g>
			<path fill="#1E7A85" d="M657.4,406c-6,0-12.7-7.8-15.9-18.7c-3.7-12.2-1.6-23.2,4.7-25.1c0.6-0.2,1.2-0.3,1.9-0.3
				c6,0,12.7,7.8,15.9,18.6c1.7,5.7,2.2,11.5,1.4,16.1c-0.8,4.9-3,8.1-6.1,9C658.6,405.9,658,406,657.4,406z M648,363.5
				c-0.5,0-1,0.1-1.4,0.2c-5.3,1.6-7,12.2-3.7,23.2c3,10,9.2,17.5,14.4,17.5c0.5,0,1-0.1,1.4-0.2c2.5-0.8,4.3-3.5,5-7.8
				c0.8-4.4,0.3-9.9-1.4-15.4C659.5,371,653.3,363.5,648,363.5z"/>
		</g>
		<g>
			<path fill="#1E7A85" d="M652.8,396.1c-5.4,0-10-3.6-11.4-8.8c-0.8-3-0.4-6.2,1.2-8.9c1.6-2.7,4.1-4.6,7.2-5.4c1-0.3,2-0.4,3-0.4
				c5.3,0,10,3.6,11.4,8.8c0.8,3,0.4,6.2-1.2,8.9c-1.6,2.7-4.1,4.6-7.2,5.4C654.8,396,653.8,396.1,652.8,396.1z M652.9,374.2
				c-0.9,0-1.7,0.1-2.6,0.3c-2.6,0.7-4.8,2.3-6.2,4.7c-1.4,2.3-1.8,5.1-1.1,7.7c1.2,4.5,5.2,7.6,9.8,7.6c0.9,0,1.7-0.1,2.6-0.3
				c2.6-0.7,4.8-2.4,6.2-4.7c1.4-2.3,1.8-5.1,1.1-7.7C661.5,377.3,657.5,374.2,652.9,374.2z"/>
		</g>
	</g>
	<g>
		<g>
			<path fill="#1E7A85" d="M576.8,280.8c-1.6,0-3.3-0.1-4.9-0.3c-8.5-1-15.9-4.2-19.3-8.5c-1.5-1.8-2.1-3.8-1.9-5.7
				c0.6-5.5,8.4-9.4,18.9-9.4c1.6,0,3.3,0.1,5,0.3c5.9,0.7,11.4,2.5,15.4,5.1c4.1,2.7,6.2,6,5.9,9.2
				C595.2,277,587.4,280.8,576.8,280.8z M569.6,258.5c-9.5,0-16.8,3.4-17.4,8c-0.2,1.5,0.4,3,1.6,4.5c3.1,3.9,10.3,7,18.3,7.9
				c1.6,0.2,3.2,0.3,4.8,0.3c9.5,0,16.9-3.4,17.4-8c0.3-2.6-1.5-5.3-5.1-7.7c-3.8-2.5-9-4.2-14.7-4.8
				C572.8,258.6,571.2,258.5,569.6,258.5z"/>
		</g>
		<g>
			<path fill="#1E7A85" d="M572.8,280.6c-0.6,0-1.2,0-1.8-0.1c-6.4-1-10.8-7-9.9-13.4c0.9-5.7,5.9-10,11.6-10c0.6,0,1.2,0,1.8,0.1
				c3.1,0.5,5.8,2.1,7.7,4.6c1.9,2.5,2.6,5.6,2.2,8.7C583.5,276.3,578.5,280.6,572.8,280.6z M572.8,258.6c-5,0-9.3,3.7-10.1,8.7
				c-0.8,5.5,3,10.7,8.6,11.6c0.5,0.1,1,0.1,1.5,0.1c5,0,9.3-3.7,10-8.7c0.4-2.7-0.3-5.4-1.9-7.6c-1.6-2.2-4-3.6-6.6-4
				C573.8,258.7,573.3,258.6,572.8,258.6z"/>
		</g>
	</g>
	<g>
		<g>
			<path fill="#1E7A85" d="M607.3,568.1c-1.6,0-3.3-0.1-4.9-0.3c-12.7-1.4-22-7.7-21.3-14.2c0.6-5.5,8.4-9.4,18.9-9.4
				c1.6,0,3.3,0.1,5,0.3c5.9,0.7,11.4,2.5,15.4,5.1c4.1,2.7,6.2,6,5.9,9.2C625.6,564.2,617.8,568.1,607.3,568.1z M600.1,545.8
				c-9.5,0-16.8,3.4-17.4,8c-0.6,5.5,8.5,11.2,19.9,12.5c1.6,0.2,3.2,0.3,4.8,0.3c9.5,0,16.8-3.4,17.4-8c0.3-2.6-1.5-5.3-5.1-7.7
				c-3.8-2.5-9-4.2-14.7-4.8C603.2,545.9,601.6,545.8,600.1,545.8z"/>
		</g>
		<g>
			<path fill="#1E7A85" d="M603.2,567.8c-0.6,0-1.2,0-1.8-0.1c-6.4-1-10.8-7-9.9-13.4c0.9-5.7,5.9-10,11.6-10c0.6,0,1.2,0,1.8,0.1
				c3.1,0.5,5.8,2.1,7.7,4.6s2.6,5.6,2.2,8.7C614,563.5,609,567.8,603.2,567.8z M603.2,545.9c-5,0-9.3,3.7-10.1,8.7
				c-0.8,5.5,3,10.7,8.6,11.6c0.5,0.1,1,0.1,1.5,0.1c5,0,9.3-3.7,10-8.7c0.4-2.7-0.3-5.4-1.9-7.6c-1.6-2.2-4-3.6-6.7-4
				C604.2,546,603.7,545.9,603.2,545.9z"/>
		</g>
	</g>
	<g>
		<g>
			<path fill="#1E7A85" d="M1290.1,805.8c-4.8,0-8.2-1.6-9.7-4.4c-3-5.9,3.5-15,14.8-20.9c5.4-2.8,11.1-4.4,15.9-4.4
				c4.8,0,8.2,1.5,9.7,4.4c3,5.9-3.5,15-14.8,20.9C1300.6,804.3,1294.9,805.8,1290.1,805.8z M1311.1,777.8c-4.6,0-10,1.5-15.2,4.2
				c-10.2,5.3-16.6,13.8-14.1,18.7c1.2,2.3,4.1,3.5,8.3,3.5c4.6,0,10-1.5,15.2-4.2c10.2-5.3,16.6-13.9,14.1-18.8
				C1318.2,779,1315.3,777.8,1311.1,777.8z"/>
		</g>
		<g>
			<path fill="#1E7A85" d="M1301,802.6c-4.5,0-8.7-2.6-10.6-6.7c-1.3-2.8-1.5-6-0.4-9s3.2-5.3,6-6.7c1.6-0.7,3.3-1.1,5-1.1
				c4.5,0,8.7,2.6,10.6,6.7c2.8,5.9,0.2,12.9-5.6,15.7C1304.5,802.2,1302.8,802.6,1301,802.6z M1301,780.6c-1.5,0-3,0.3-4.3,1
				c-2.5,1.2-4.3,3.2-5.2,5.8c-0.9,2.6-0.8,5.3,0.4,7.8c1.7,3.5,5.3,5.8,9.2,5.8c1.5,0,3-0.3,4.3-1c5.1-2.4,7.3-8.5,4.9-13.6
				C1308.6,782.9,1304.9,780.6,1301,780.6z"/>
		</g>
	</g>
	<g>
		<g>
			<path fill="#1E7A85" d="M980.9,859.7c-0.1,0-0.2,0-0.3,0c-3.2-0.1-6.1-2.7-8.1-7.2c-1.9-4.3-2.8-10-2.6-16
				c0.6-12.6,6.2-22.5,12.8-22.1c1.9,0.1,3.7,1,5.3,2.8c3.7,4.1,5.8,11.9,5.4,20.5C992.8,850,987.4,859.7,980.9,859.7z M982.4,815.9
				c-5.5,0-10.4,9.3-10.9,20.6c-0.3,5.7,0.6,11.2,2.4,15.3c1.8,3.9,4.1,6.2,6.8,6.3c0.1,0,0.1,0,0.2,0c5.5,0,10.4-9.3,10.9-20.6
				c0.4-8-1.6-15.6-4.9-19.3c-1.3-1.4-2.7-2.2-4.2-2.3C982.6,815.9,982.5,815.9,982.4,815.9z"/>
		</g>
		<g>
			<path fill="#1E7A85" d="M981.7,848.3c-0.3,0-0.7,0-1,0c-3.1-0.3-6-1.7-8-4.1c-2-2.4-3-5.4-2.7-8.6c0.5-6.4,6.2-11.3,12.7-10.8
				c6.5,0.5,11.3,6.2,10.7,12.7C992.9,843.6,987.8,848.3,981.7,848.3z M981.7,826.4c-5.3,0-9.7,4.1-10.1,9.3
				c-0.2,2.7,0.6,5.3,2.4,7.4c1.8,2.1,4.2,3.3,6.9,3.6c5.6,0.5,10.5-3.8,11-9.3c0.5-5.6-3.7-10.5-9.3-11
				C982.3,826.4,982,826.4,981.7,826.4z"/>
		</g>
	</g>
	<g>
		<g>
			<path fill="#1E7A85" d="M936.5,832.3c-5.1,0-11.4-2.1-17.3-5.9c-7.2-4.6-12.4-10.8-13.6-16.2c-0.5-2.3-0.2-4.4,0.8-6
				c1.5-2.3,4.3-3.5,8.2-3.5c5.1,0,11.4,2.2,17.3,5.9c5,3.2,9.1,7.2,11.6,11.3c2.5,4.2,3,8.1,1.2,10.8
				C943.2,831,940.4,832.3,936.5,832.3z M914.7,802.3c-2.3,0-5.4,0.5-6.9,2.8c-0.8,1.3-1,2.9-0.6,4.8c1.1,4.9,6.1,10.9,12.9,15.2
				c5.6,3.6,11.6,5.6,16.4,5.6c2.3,0,5.4-0.5,6.9-2.8c1.4-2.2,1-5.5-1.2-9.2c-2.3-3.9-6.2-7.7-11.1-10.8
				C925.5,804.3,919.5,802.3,914.7,802.3z"/>
		</g>
		<g>
			<path fill="#1E7A85" d="M925.2,828c-2.4,0-4.7-0.7-6.7-2.1c-5.3-3.7-6.6-11-3-16.3c2.2-3.2,5.8-5.1,9.7-5.1
				c2.4,0,4.7,0.7,6.7,2.1c2.6,1.8,4.3,4.5,4.9,7.6c0.6,3.1-0.1,6.2-1.9,8.8C932.7,826.1,929.1,828,925.2,828z M925.2,806
				c-3.3,0-6.5,1.6-8.4,4.4c-3.2,4.6-2,11,2.6,14.1c1.7,1.2,3.7,1.8,5.8,1.8c3.3,0,6.5-1.6,8.4-4.4c1.6-2.2,2.1-4.9,1.7-7.6
				c-0.5-2.7-2-5-4.2-6.5C929.3,806.7,927.3,806,925.2,806z"/>
		</g>
	</g>
	<g>
		<g>
			<path fill="#1E7A85" d="M799.4,850.1c-4.8,0-8.2-1.5-9.7-4.4c-3-5.9,3.5-15,14.8-20.9c5.4-2.8,11.1-4.4,15.9-4.4
				c4.8,0,8.2,1.6,9.7,4.4c0.9,1.7,1,3.8,0.3,6c-1.7,5.2-7.4,10.9-15,14.9C809.8,848.6,804.2,850.1,799.4,850.1z M820.4,822.1
				c-4.6,0-10,1.5-15.2,4.2c-10.2,5.3-16.6,13.8-14.1,18.7c1.2,2.3,4.1,3.5,8.3,3.5c4.6,0,10-1.5,15.2-4.2
				c7.1-3.7,12.7-9.2,14.2-13.9c0.6-1.9,0.5-3.5-0.2-4.8C827.5,823.4,824.5,822.1,820.4,822.1z"/>
		</g>
		<g>
			<path fill="#1E7A85" d="M809.5,847.3c-4.5,0-8.7-2.6-10.7-6.7c-2.8-5.9-0.2-12.9,5.6-15.7c1.6-0.7,3.3-1.1,5-1.1
				c4.5,0,8.7,2.6,10.6,6.7c1.3,2.8,1.5,6,0.5,9c-1.1,3-3.2,5.3-6.1,6.7C812.9,846.9,811.2,847.3,809.5,847.3z M809.4,825.4
				c-1.5,0-3,0.3-4.3,1c-5.1,2.4-7.3,8.5-4.9,13.6c1.7,3.5,5.3,5.8,9.2,5.8c1.5,0,3-0.3,4.3-1c2.5-1.2,4.3-3.2,5.2-5.8
				c0.9-2.6,0.8-5.3-0.4-7.8C817,827.6,813.4,825.4,809.4,825.4z"/>
		</g>
	</g>
	<g>
		<g>
			<path fill="#1E7A85" d="M907.3,612.4c-0.1,0-0.2,0-0.3,0c-6.6-0.3-11.3-10.5-10.7-23.3c0.6-12.4,6-22.1,12.5-22.1
				c0.1,0,0.2,0,0.3,0c1.9,0.1,3.8,1.1,5.3,2.8c3.7,4.1,5.8,11.9,5.3,20.4C919.2,602.7,913.7,612.4,907.3,612.4z M908.8,568.6
				c-5.5,0-10.4,9.3-10.9,20.6c-0.5,11.4,3.7,21.3,9.2,21.6c0.1,0,0.1,0,0.2,0c5.5,0,10.4-9.3,10.9-20.7c0.4-8-1.6-15.6-4.9-19.3
				c-1.3-1.4-2.7-2.2-4.2-2.3C908.9,568.6,908.9,568.6,908.8,568.6z"/>
		</g>
		<g>
			<path fill="#1E7A85" d="M908,601.9c-0.3,0-0.6,0-1,0c-3.1-0.3-6-1.7-8-4.1c-2-2.4-3-5.4-2.7-8.6c0.5-6.4,6.2-11.3,12.7-10.7
				c3.1,0.2,6,1.7,8,4.1c2,2.4,3,5.4,2.7,8.6C919.2,597.2,914.1,601.9,908,601.9z M908,580c-5.2,0-9.6,4.1-10.1,9.3
				c-0.2,2.7,0.6,5.3,2.4,7.4c1.8,2.1,4.2,3.3,6.9,3.6c5.6,0.5,10.5-3.8,11-9.3c0.2-2.7-0.6-5.4-2.4-7.4c-1.8-2.1-4.2-3.3-6.9-3.5
				C908.5,580,908.3,580,908,580z"/>
		</g>
	</g>
	<g>
		<g>
			<path fill="#1E7A85" d="M1015.9,724.3c-5.1,0-11.4-2.2-17.3-5.9c-10.7-6.9-16.3-16.6-12.8-22.1c1.5-2.3,4.3-3.5,8.2-3.5
				c5.1,0,11.4,2.1,17.3,5.9c10.7,6.9,16.3,16.6,12.8,22.2C1022.6,723.1,1019.7,724.3,1015.9,724.3z M994,694.3
				c-2.3,0-5.4,0.5-6.9,2.8c-3,4.6,2.7,13.8,12.3,20c5.6,3.6,11.6,5.7,16.4,5.7c2.3,0,5.4-0.5,6.9-2.8c3-4.6-2.7-13.8-12.3-20
				C1004.8,696.3,998.8,694.3,994,694.3z"/>
		</g>
		<g>
			<path fill="#1E7A85" d="M1005.3,720.5c-2.4,0-4.7-0.7-6.7-2.1c-2.6-1.8-4.3-4.5-4.9-7.5c-0.6-3.1,0.1-6.2,1.9-8.8
				c2.2-3.2,5.8-5.1,9.7-5.1c2.4,0,4.7,0.7,6.7,2.1c2.6,1.8,4.3,4.5,4.9,7.5c0.6,3.1-0.1,6.2-1.9,8.8
				C1012.8,718.6,1009.2,720.5,1005.3,720.5z M1005.3,698.6c-3.3,0-6.5,1.6-8.4,4.4c-1.6,2.2-2.1,4.9-1.7,7.6c0.5,2.7,2,5,4.2,6.5
				c1.7,1.2,3.7,1.8,5.8,1.8c3.3,0,6.5-1.6,8.4-4.4c1.5-2.2,2.1-4.9,1.6-7.6c-0.5-2.7-2-5-4.2-6.5
				C1009.4,699.2,1007.4,698.6,1005.3,698.6z"/>
		</g>
	</g>
	<g>
		<g>
			<path fill="#1E7A85" d="M465,608.6c-1.6,0-3.3-0.1-4.9-0.3c-8.5-1-15.9-4.2-19.3-8.5c-1.5-1.8-2.1-3.8-1.9-5.7
				c0.6-5.5,8.4-9.4,18.9-9.4c1.6,0,3.3,0.1,5,0.3c12.6,1.4,22,7.7,21.3,14.2C483.3,604.7,475.5,608.6,465,608.6z M457.7,586.2
				c-9.5,0-16.8,3.4-17.4,8c-0.2,1.5,0.4,3,1.6,4.5c3.1,3.9,10.3,7,18.3,7.9c1.6,0.2,3.2,0.3,4.8,0.3c9.5,0,16.9-3.4,17.4-8
				c0.6-5.5-8.5-11.2-19.9-12.5C460.9,586.3,459.3,586.2,457.7,586.2z"/>
		</g>
		<g>
			<path fill="#1E7A85" d="M460.9,608.3c-0.6,0-1.2,0-1.8-0.1c-6.4-1-10.8-7-9.9-13.4c0.9-5.7,5.9-10,11.6-10c0.6,0,1.2,0,1.8,0.1
				c3.1,0.5,5.8,2.1,7.7,4.6c1.9,2.5,2.6,5.6,2.2,8.7C471.7,604,466.7,608.3,460.9,608.3z M460.9,586.4c-5,0-9.3,3.7-10,8.7
				c-0.8,5.5,3,10.7,8.6,11.6c0.5,0.1,1,0.1,1.5,0.1c5,0,9.3-3.7,10-8.7c0.4-2.7-0.3-5.4-1.9-7.5c-1.6-2.2-4-3.6-6.7-4
				C461.9,586.4,461.4,586.4,460.9,586.4z"/>
		</g>
	</g>
	<g>
		<g>
			<path fill="#1E7A85" d="M421.6,794.3c-7.3,0-12.5-2.4-13.7-6.5c-0.9-3.1,0.5-6.7,4.1-10.1c3.5-3.3,8.5-6,14.2-7.7
				c3.9-1.2,7.8-1.8,11.4-1.8c7.3,0,12.4,2.4,13.7,6.5c1.9,6.3-6.2,14.1-18.4,17.8C429.1,793.6,425.2,794.3,421.6,794.3z
				 M437.7,769.8c-3.5,0-7.3,0.6-11,1.7c-5.5,1.6-10.3,4.3-13.6,7.4c-3.1,3-4.5,6-3.7,8.5c1,3.3,5.7,5.4,12.2,5.4
				c3.5,0,7.3-0.6,11-1.7c11-3.3,18.9-10.5,17.3-15.8C448.9,771.8,444.2,769.8,437.7,769.8z"/>
		</g>
		<g>
			<path fill="#1E7A85" d="M429.2,793.1c-5.4,0-10-3.6-11.4-8.8c-0.8-3-0.3-6.2,1.2-8.9c1.6-2.7,4.1-4.6,7.2-5.4c1-0.3,2-0.4,3-0.4
				c5.3,0,10,3.6,11.3,8.8c0.8,3,0.4,6.2-1.2,8.9c-1.6,2.7-4.1,4.6-7.2,5.4C431.2,793,430.2,793.1,429.2,793.1z M429.2,771.2
				c-0.9,0-1.7,0.1-2.6,0.3c-2.6,0.7-4.8,2.3-6.2,4.7s-1.8,5.1-1.1,7.7c1.2,4.5,5.2,7.6,9.8,7.6c0.9,0,1.7-0.1,2.6-0.3
				c2.6-0.7,4.8-2.4,6.2-4.7c1.4-2.3,1.8-5.1,1.1-7.7C437.9,774.3,433.8,771.2,429.2,771.2z"/>
		</g>
	</g>
	<g>
		<g>
			<path fill="#1E7A85" d="M559,721.6c-0.2,0-0.5,0-0.7,0c-3.2-0.4-5.9-3.1-7.6-7.8c-1.6-4.5-2.2-10.2-1.5-16.1
				c1.4-12.4,7.8-22,14.2-21.2c3.2,0.4,5.9,3.1,7.6,7.8c1.6,4.5,2.2,10.2,1.5,16.1C571.1,712.5,565.3,721.6,559,721.6z M562.7,678
				c-5.3,0-10.7,8.9-11.9,19.9c-0.6,5.7-0.1,11.2,1.4,15.4c1.5,4.1,3.7,6.4,6.3,6.7c5.5,0.6,11.2-8.5,12.5-19.8
				c0.6-5.7,0.1-11.2-1.4-15.4c-1.5-4.1-3.7-6.4-6.3-6.7C563,678,562.8,678,562.7,678z"/>
		</g>
		<g>
			<path fill="#1E7A85" d="M560.9,710.3c-0.6,0-1.2,0-1.8-0.1c-3.1-0.5-5.8-2.1-7.7-4.6c-1.9-2.5-2.6-5.6-2.2-8.7
				c0.9-5.7,5.9-10,11.6-10c0.6,0,1.2,0,1.8,0.1c6.4,1,10.8,7,9.9,13.4C571.7,706,566.7,710.3,560.9,710.3z M560.9,688.4
				c-5,0-9.3,3.7-10.1,8.7c-0.4,2.7,0.3,5.4,1.9,7.5c1.6,2.2,4,3.6,6.7,4c0.5,0.1,1,0.1,1.5,0.1c5,0,9.3-3.7,10-8.6
				c0.8-5.5-3-10.7-8.5-11.6C561.9,688.4,561.4,688.4,560.9,688.4z"/>
		</g>
	</g>
	<g>
		<g>
			<path fill="#1E7A85" d="M317.4,647.4c-0.2,0-0.5,0-0.7,0c-6.5-0.7-10.6-11.2-9.1-23.9c1.4-12.4,7.8-22,14.2-21.3
				c6.5,0.7,10.6,11.2,9.1,23.9C329.5,638.2,323.7,647.4,317.4,647.4z M321.1,603.7c-5.4,0-10.7,8.9-11.9,19.9
				c-1.3,11.4,2.3,21.5,7.7,22.1c5.5,0.6,11.2-8.5,12.5-19.8c1.3-11.4-2.3-21.5-7.7-22.1C321.4,603.7,321.2,603.7,321.1,603.7z"/>
		</g>
		<g>
			<path fill="#1E7A85" d="M319.3,636.1c-0.6,0-1.2,0-1.8-0.1c-3.1-0.5-5.8-2.1-7.7-4.6c-1.9-2.5-2.6-5.6-2.2-8.7
				c0.9-5.7,5.9-10,11.6-10c0.6,0,1.2,0,1.7,0.1c6.4,1,10.8,7,9.9,13.4C330,631.8,325.1,636.1,319.3,636.1z M319.3,614.1
				c-5,0-9.3,3.7-10.1,8.7c-0.4,2.7,0.3,5.4,1.9,7.6c1.6,2.2,4,3.6,6.7,4c0.5,0.1,1,0.1,1.5,0.1c5,0,9.3-3.7,10-8.6
				c0.8-5.5-3-10.7-8.5-11.6C320.3,614.2,319.8,614.1,319.3,614.1z"/>
		</g>
	</g>
	<g>
		<g>
			<path fill="#1E7A85" d="M1039.8,537c-0.3,0-0.6,0-0.9-0.1c-6.5-0.9-10.3-11.4-8.6-24.1c1.7-12.5,8.1-21.8,14.6-21
				c6.5,0.9,10.3,11.5,8.6,24.1C1052,528,1046.1,537,1039.8,537z M1044.1,493.5c-5.4,0-10.8,8.6-12.2,19.6
				c-1.5,11.3,1.8,21.6,7.3,22.3c5.6,0.8,11.3-8.1,12.9-19.6c1.5-11.6-1.7-21.6-7.3-22.3C1044.6,493.5,1044.4,493.5,1044.1,493.5z"
				/>
		</g>
		<g>
			<path fill="#1E7A85" d="M1042.1,525.8c-0.7,0-1.3-0.1-2-0.2c-3.1-0.5-5.8-2.2-7.6-4.8c-1.8-2.6-2.5-5.7-2-8.8
				c1-5.7,5.8-9.8,11.6-9.8c0.7,0,1.3,0.1,2,0.2c6.4,1.1,10.7,7.2,9.6,13.6C1052.7,521.7,1047.8,525.8,1042.1,525.8z M1042,503.8
				c-5,0-9.2,3.6-10,8.5c-0.5,2.7,0.2,5.4,1.7,7.6c1.6,2.2,3.9,3.7,6.6,4.1c0.6,0.1,1.2,0.1,1.7,0.1c5,0,9.2-3.6,10-8.5
				c0.9-5.5-2.8-10.8-8.3-11.8C1043.2,503.9,1042.6,503.8,1042,503.8z"/>
		</g>
	</g>
	<g>
		<g>
			<path fill="#1E7A85" d="M1561.6,619c-5.3,0-12.1-2.8-18.1-7.4c-6.8-5.2-11.4-11.9-12.1-17.3c-0.3-2.3,0.2-4.4,1.3-5.9
				c1.4-1.9,3.9-2.9,7-2.9c5.3,0,12.1,2.8,18.1,7.4c4.7,3.6,8.5,8,10.6,12.3c2.2,4.4,2.2,8.3,0.3,10.9
				C1567.2,618,1564.8,619,1561.6,619z M1539.7,587.1c-2.7,0-4.7,0.8-5.8,2.3c-0.9,1.2-1.3,2.8-1,4.7c0.6,5,5.2,11.4,11.5,16.3
				c5.8,4.4,12.2,7.1,17.1,7.1c2.7,0,4.7-0.8,5.8-2.3c1.6-2.1,1.4-5.4-0.4-9.2c-2-4.1-5.5-8.2-10.1-11.7
				C1551.1,589.7,1544.7,587.1,1539.7,587.1z"/>
		</g>
		<g>
			<path fill="#1E7A85" d="M1550.3,613.7c-2.7,0-5.4-1-7.5-2.7c-2.4-2-3.9-4.8-4.2-8c-0.3-3.1,0.7-6.2,2.6-8.6
				c2.2-2.7,5.5-4.2,9.1-4.2c2.7,0,5.4,1,7.5,2.7c2.4,2,3.9,4.8,4.2,7.9c0.3,3.1-0.7,6.2-2.7,8.6
				C1557.1,612.1,1553.8,613.7,1550.3,613.7z M1550.3,591.8c-3,0-5.9,1.3-7.8,3.7c-1.7,2.1-2.5,4.7-2.3,7.4c0.3,2.7,1.5,5.2,3.6,6.9
				c1.8,1.5,4.1,2.3,6.5,2.3c3,0,5.9-1.3,7.8-3.7c1.7-2.1,2.5-4.7,2.3-7.4c-0.3-2.7-1.5-5.1-3.6-6.9
				C1555,592.6,1552.7,591.8,1550.3,591.8z"/>
		</g>
	</g>
	<g>
		<g>
			<path fill="#1E7A85" d="M1541.7,713.6c-5.8,0-10-1.9-11.4-5.3c-0.7-1.8-0.6-3.8,0.3-6c2.1-5.1,8.3-10.2,16.3-13.5
				c4.8-2,9.8-3.1,14.1-3.1c5.8,0,10,1.9,11.3,5.3c2.5,6.1-4.7,14.7-16.5,19.5C1551,712.5,1546,713.6,1541.7,713.6z M1561,687.3
				c-4.1,0-8.9,1-13.5,2.9c-7.4,3.1-13.5,8-15.4,12.7c-0.7,1.8-0.8,3.4-0.3,4.8c1.1,2.7,4.7,4.3,9.9,4.3c4.1,0,8.9-1,13.5-2.9
				c10.6-4.4,17.8-12.4,15.7-17.5C1569.7,688.9,1566.1,687.3,1561,687.3z"/>
		</g>
		<g>
			<path fill="#1E7A85" d="M1550.9,711.6c-4.9,0-9.3-3.1-11-7.7c-2.2-6.1,0.9-12.9,7-15.1c1.3-0.5,2.7-0.7,4.1-0.7
				c4.9,0,9.3,3.1,11,7.7c1.1,2.9,1,6.1-0.3,9c-1.3,2.9-3.7,5-6.6,6.1C1553.6,711.4,1552.3,711.6,1550.9,711.6z M1550.9,689.7
				c-1.2,0-2.4,0.2-3.5,0.6c-5.3,1.9-8,7.8-6,13.1c1.5,4,5.3,6.6,9.6,6.6c1.2,0,2.4-0.2,3.5-0.6c2.6-0.9,4.6-2.8,5.7-5.3
				c1.1-2.5,1.2-5.2,0.3-7.8C1558.9,692.3,1555.1,689.7,1550.9,689.7z"/>
		</g>
	</g>
	<g>
		<g>
			<path fill="#1E7A85" d="M1441.9,655.5c-0.3,0-0.6,0-0.8-0.1c-3.2-0.4-5.9-3.2-7.5-7.9c-1.5-4.5-2-10.2-1.2-16.1
				c1.7-12.5,8.1-21.8,14.6-21c1.9,0.3,3.6,1.4,5.1,3.2c3.3,4.4,4.7,12.3,3.6,20.8C1454.1,646.4,1448.2,655.5,1441.9,655.5z
				 M1446.3,611.9c-5.4,0-10.8,8.6-12.2,19.6c-0.8,5.7-0.4,11.2,1.1,15.4c1.4,4.1,3.6,6.5,6.2,6.9c5.5,0.8,11.4-8.3,12.9-19.6
				c1.1-8-0.2-15.7-3.3-19.7c-1.2-1.5-2.5-2.4-4-2.6C1446.7,611.9,1446.5,611.9,1446.3,611.9z"/>
		</g>
		<g>
			<path fill="#1E7A85" d="M1444,645.1c-0.7,0-1.3-0.1-2-0.2c-6.4-1.1-10.7-7.2-9.6-13.6c1-5.7,5.8-9.8,11.6-9.8
				c0.7,0,1.3,0.1,2,0.2c3.1,0.5,5.8,2.2,7.6,4.8c1.8,2.6,2.5,5.7,2,8.8C1454.6,641,1449.8,645.1,1444,645.1z M1444,623.2
				c-5,0-9.2,3.6-10,8.5c-0.9,5.5,2.8,10.8,8.3,11.8c0.6,0.1,1.1,0.1,1.7,0.1c5,0,9.2-3.6,10-8.5c0.5-2.7-0.2-5.4-1.7-7.6
				c-1.6-2.2-3.9-3.7-6.6-4.1C1445.2,623.2,1444.6,623.2,1444,623.2z"/>
		</g>
	</g>
	<g>
		<g>
			<path fill="#1E7A85" d="M1321,693.9c-5.3,0-12.1-2.8-18.1-7.4c-6.8-5.2-11.4-11.8-12.1-17.3c-0.3-2.3,0.2-4.4,1.3-5.9
				c1.5-1.9,3.9-2.9,7.1-2.9c5.3,0,12.1,2.8,18.1,7.4c6.8,5.2,11.4,11.8,12.2,17.3c0.3,2.3-0.2,4.4-1.3,5.9
				C1326.6,692.9,1324.1,693.9,1321,693.9z M1299.1,662c-2.7,0-4.7,0.8-5.8,2.3c-0.9,1.2-1.3,2.8-1,4.7c0.6,5,5.2,11.3,11.5,16.2
				c5.8,4.5,12.2,7.1,17.2,7.1c2.7,0,4.7-0.8,5.8-2.3c0.9-1.2,1.3-2.8,1-4.7c-0.6-5-5.2-11.4-11.6-16.3
				C1310.5,664.7,1304.1,662,1299.1,662z"/>
		</g>
		<g>
			<path fill="#1E7A85" d="M1310.4,689.2c-2.7,0-5.4-1-7.5-2.7c-2.4-2-3.9-4.8-4.2-8c-0.3-3.1,0.7-6.2,2.7-8.6
				c2.2-2.7,5.5-4.3,9-4.3c2.7,0,5.4,1,7.5,2.7c2.4,2,3.9,4.8,4.2,7.9c0.3,3.1-0.6,6.2-2.6,8.6
				C1317.2,687.7,1313.9,689.2,1310.4,689.2z M1310.4,667.3c-3,0-5.9,1.3-7.8,3.7c-1.7,2.1-2.6,4.7-2.3,7.4c0.2,2.7,1.5,5.2,3.6,6.9
				c1.8,1.5,4.1,2.3,6.5,2.3c3,0,5.9-1.3,7.8-3.7c1.7-2.1,2.5-4.7,2.3-7.5c-0.3-2.7-1.5-5.1-3.6-6.9
				C1315.1,668.1,1312.7,667.3,1310.4,667.3z"/>
		</g>
	</g>
	<g>
		<g>
			<path fill="#1E7A85" d="M1005.8,338.1c-5.8,0-10-1.9-11.3-5.3c-2.5-6.1,4.8-14.7,16.5-19.5c4.8-2,9.8-3.1,14.1-3.1
				c5.8,0,10,1.9,11.3,5.3c2.5,6.1-4.8,14.7-16.5,19.5C1015.2,337,1010.1,338.1,1005.8,338.1z M1025.1,311.8c-4.1,0-8.9,1-13.5,2.9
				c-10.6,4.4-17.8,12.4-15.7,17.5c1.1,2.7,4.7,4.3,9.9,4.3c4.1,0,8.9-1,13.5-2.9c10.6-4.4,17.8-12.4,15.7-17.5
				C1033.9,313.4,1030.3,311.8,1025.1,311.8z"/>
		</g>
		<g>
			<path fill="#1E7A85" d="M1015.9,335.8c-4.9,0-9.3-3.1-11-7.7c-1.1-2.9-1-6.1,0.3-9c1.3-2.9,3.7-5,6.6-6.1
				c1.3-0.5,2.7-0.7,4.1-0.7c4.9,0,9.3,3.1,11,7.7c2.2,6.1-0.9,12.8-7,15.1C1018.7,335.5,1017.3,335.8,1015.9,335.8z M1015.9,313.9
				c-1.2,0-2.4,0.2-3.5,0.6c-2.6,0.9-4.6,2.8-5.7,5.3c-1.1,2.5-1.2,5.2-0.3,7.8c1.5,4,5.3,6.6,9.5,6.6c1.2,0,2.4-0.2,3.5-0.6
				c5.3-2,8-7.8,6-13.1C1024,316.5,1020.1,313.9,1015.9,313.9z"/>
		</g>
	</g>
	<g>
		<g>
			<path fill="#1E7A85" d="M451.6,877.8c-2.1,0-3.8-0.6-5.1-1.7c-2.4-2.1-3.1-6-1.8-10.7c1.2-4.6,4.1-9.6,8-14.1
				c5.9-6.7,13.3-11,18.8-11c2.1,0,3.8,0.6,5.1,1.7c4.9,4.4,2.2,15.3-6.2,24.8C464.5,873.5,457.2,877.8,451.6,877.8z M471.6,841.9
				c-5.1,0-12,4.1-17.6,10.5c-3.8,4.3-6.5,9.1-7.7,13.4c-1.1,4.2-0.6,7.4,1.3,9.1c1,0.9,2.4,1.3,4,1.3c5.1,0,12-4.1,17.6-10.5
				c7.6-8.6,10.5-18.9,6.4-22.6C474.6,842.4,473.2,841.9,471.6,841.9z"/>
		</g>
		<g>
			<path fill="#1E7A85" d="M461.3,871.2c-3,0-5.9-1.1-8.1-3.2c-4.7-4.5-4.9-11.9-0.4-16.6c2.2-2.4,5.3-3.7,8.5-3.7
				c3,0,5.9,1.1,8.1,3.2c2.3,2.2,3.6,5.1,3.7,8.2c0.1,3.1-1.1,6.1-3.2,8.4C467.6,869.8,464.5,871.2,461.3,871.2z M461.3,849.3
				c-2.8,0-5.4,1.1-7.4,3.2c-3.9,4.1-3.7,10.5,0.4,14.4c1.9,1.8,4.4,2.8,7,2.8c2.8,0,5.5-1.1,7.4-3.2c1.9-2,2.9-4.5,2.8-7.3
				c-0.1-2.7-1.2-5.2-3.2-7.1C466.4,850.2,463.9,849.3,461.3,849.3z"/>
		</g>
	</g>
	<g>
		<g>
			<path fill="#1E7A85" d="M843.3,651c-0.7,0-1.4-0.1-2-0.3c-3.1-1-5.2-4.3-5.9-9.2c-0.7-4.7,0-10.4,1.8-16.1
				c3.5-10.5,10.3-18.2,16.2-18.2c0.7,0,1.4,0.1,2,0.3c6.3,2.1,8,13.2,4,25.2C856,643.3,849.2,651,843.3,651z M853.4,608.8
				c-5.2,0-11.5,7.4-14.7,17.1c-1.8,5.5-2.4,10.9-1.8,15.4c0.6,4.3,2.3,7.1,4.8,7.9c0.5,0.2,1,0.2,1.5,0.2c5.2,0,11.5-7.4,14.7-17.1
				c3.6-10.9,2.2-21.5-3-23.3C854.5,608.8,853.9,608.8,853.4,608.8z"/>
		</g>
		<g>
			<path fill="#1E7A85" d="M848.2,641.3c-1.4,0-2.8-0.2-4.1-0.7c-6.1-2.3-9.2-9-6.9-15.1c1.7-4.6,6.1-7.7,11-7.7
				c1.4,0,2.8,0.2,4.1,0.7c2.9,1.1,5.3,3.3,6.6,6.1c1.3,2.9,1.4,6,0.3,9C857.5,638.2,853.1,641.3,848.2,641.3z M848.2,619.3
				c-4.2,0-8.1,2.7-9.5,6.6c-2,5.3,0.7,11.1,6,13.1c1.1,0.4,2.3,0.6,3.5,0.6c4.2,0,8.1-2.7,9.6-6.6c0.9-2.5,0.8-5.3-0.3-7.8
				s-3.2-4.3-5.7-5.3C850.6,619.6,849.4,619.3,848.2,619.3z"/>
		</g>
	</g>
	<g>
		<g>
			<path fill="#1E7A85" d="M839,574c-5.4,0-12.5-3.3-18.5-8.6c-6.4-5.7-10.6-12.6-11-18.1c-0.1-2.3,0.4-4.3,1.7-5.8
				c1.4-1.6,3.6-2.4,6.3-2.4c5.4,0,12.5,3.3,18.5,8.7c4.5,4,7.9,8.6,9.7,13c1.9,4.6,1.7,8.4-0.5,10.9C843.9,573.2,841.7,574,839,574
				z M817.5,540.7c-2.2,0-4,0.7-5.1,1.9c-1,1.1-1.4,2.7-1.3,4.6c0.3,5,4.4,11.7,10.4,17c5.8,5.1,12.5,8.2,17.5,8.2
				c2.2,0,4-0.7,5.1-1.9c1.7-2,1.8-5.2,0.2-9.2c-1.7-4.2-5-8.6-9.3-12.4C829.2,543.8,822.5,540.7,817.5,540.7z"/>
		</g>
		<g>
			<path fill="#1E7A85" d="M827.9,568c-3,0-5.9-1.1-8.1-3.2c-4.7-4.5-4.9-11.9-0.4-16.6c2.2-2.4,5.3-3.7,8.5-3.7
				c3,0,5.9,1.1,8.1,3.2c2.3,2.2,3.6,5.1,3.7,8.2c0.1,3.1-1.1,6.1-3.2,8.4C834.2,566.7,831.1,568,827.9,568z M827.9,546.1
				c-2.8,0-5.4,1.1-7.4,3.2c-3.9,4.1-3.7,10.5,0.4,14.4c1.9,1.8,4.4,2.8,7,2.8c2.8,0,5.5-1.1,7.4-3.2c1.9-2,2.9-4.6,2.8-7.3
				c-0.1-2.7-1.2-5.2-3.2-7.1C833,547.1,830.5,546.1,827.9,546.1z"/>
		</g>
	</g>
	<g>
		<g>
			<path fill="#1E7A85" d="M642.5,738.5c-5.4,0-12.5-3.3-18.5-8.6c-9.6-8.4-13.6-18.9-9.3-23.8c1.4-1.6,3.6-2.4,6.3-2.4
				c5.4,0,12.5,3.3,18.5,8.7c4.5,4,7.9,8.6,9.7,13c1.9,4.6,1.7,8.4-0.5,10.9C647.4,737.6,645.2,738.5,642.5,738.5z M621,705.1
				c-2.2,0-4,0.7-5.1,1.9c-3.6,4.1,0.5,14,9.1,21.6c5.8,5.1,12.5,8.2,17.5,8.2c2.2,0,4-0.7,5.1-1.9c1.7-2,1.8-5.2,0.2-9.2
				c-1.7-4.2-5-8.6-9.3-12.4C632.7,708.3,626,705.1,621,705.1z"/>
		</g>
		<g>
			<path fill="#1E7A85" d="M631.4,732.5c-3,0-5.9-1.1-8.1-3.2c-4.7-4.5-4.9-11.9-0.4-16.6c2.3-2.4,5.3-3.7,8.5-3.7
				c3,0,5.9,1.1,8.1,3.2c2.3,2.2,3.6,5.1,3.7,8.2c0.1,3.1-1.1,6.1-3.2,8.4C637.7,731.2,634.7,732.5,631.4,732.5z M631.4,710.6
				c-2.8,0-5.4,1.1-7.4,3.2c-3.9,4.1-3.7,10.5,0.4,14.4c1.9,1.8,4.4,2.8,7,2.8c2.8,0,5.4-1.1,7.4-3.2c1.9-2,2.9-4.6,2.8-7.3
				c-0.1-2.7-1.2-5.2-3.2-7.1C636.5,711.5,634,710.6,631.4,710.6z"/>
		</g>
	</g>
	<g>
		<g>
			<path fill="#1E7A85" d="M340.3,880.2c-5.6,0-13-5.2-18.6-12.9c-3.5-4.9-5.8-10.1-6.6-14.8c-0.8-4.9,0.2-8.6,2.9-10.5
				c1.2-0.8,2.6-1.3,4.2-1.3c5.6,0,13,5.2,18.6,12.9c7.4,10.3,9,21.5,3.7,25.3C343.3,879.8,341.9,880.2,340.3,880.2z M322.2,842.4
				c-1.3,0-2.4,0.3-3.3,1c-2.1,1.5-2.9,4.7-2.2,9c0.7,4.5,2.9,9.5,6.3,14.1c5.2,7.3,12.2,12.2,17.3,12.2c1.3,0,2.4-0.3,3.3-1
				c4.5-3.2,2.6-13.8-4.1-23.1C334.3,847.3,327.3,842.4,322.2,842.4z"/>
		</g>
		<g>
			<path fill="#1E7A85" d="M331.5,872.6c-4,0-7.6-2-9.8-5.3c-1.7-2.6-2.3-5.7-1.7-8.8c0.6-3.1,2.4-5.7,5-7.5c1.9-1.3,4.2-2,6.5-2
				c4,0,7.6,2,9.8,5.2c3.6,5.4,2.1,12.7-3.3,16.3C336.1,872,333.8,872.6,331.5,872.6z M331.5,850.7c-2,0-3.9,0.6-5.6,1.7
				c-2.3,1.5-3.8,3.8-4.3,6.5c-0.5,2.7,0,5.4,1.5,7.6c1.9,2.8,5.1,4.5,8.5,4.5c2,0,3.9-0.6,5.6-1.7c4.7-3.1,5.9-9.4,2.9-14.1
				C338.1,852.4,334.9,850.7,331.5,850.7z"/>
		</g>
	</g>
	<g>
		<g>
			<path fill="#1E7A85" d="M1386.9,869.9c-10.9,0-18.8-4-19.4-9.7c-0.3-3.2,1.8-6.5,6-9.1c4-2.5,9.5-4.3,15.5-4.8
				c1.5-0.1,2.9-0.2,4.3-0.2c10.9,0,18.9,4,19.4,9.7c0.2,1.9-0.5,3.9-2,5.7c-3.5,4.3-10.9,7.4-19.5,8.2
				C1389.8,869.9,1388.4,869.9,1386.9,869.9z M1393.3,847.7c-1.4,0-2.8,0.1-4.2,0.2c-5.7,0.6-11,2.2-14.8,4.6
				c-3.6,2.3-5.5,5-5.3,7.6c0.5,4.8,8,8.3,17.8,8.3c1.4,0,2.8-0.1,4.2-0.2c8-0.8,15.2-3.8,18.4-7.7c1.2-1.5,1.8-3,1.6-4.5
				C1410.7,851.2,1403,847.7,1393.3,847.7z"/>
		</g>
		<g>
			<path fill="#1E7A85" d="M1390.6,869.7c-6.2,0-11.3-4.8-11.7-11c-0.2-3.1,0.8-6.2,2.9-8.5s5-3.8,8.1-4c6.5-0.4,12.1,4.6,12.5,11
				c0.4,6.5-4.6,12.1-11,12.5C1391.1,869.7,1390.8,869.7,1390.6,869.7z M1390.6,847.8c-0.2,0-0.4,0-0.6,0c-2.7,0.2-5.2,1.4-7,3.4
				s-2.7,4.7-2.5,7.4c0.3,5.6,5.2,9.8,10.8,9.5c5.6-0.3,9.9-5.2,9.5-10.8C1400.4,852,1396,847.8,1390.6,847.8z"/>
		</g>
	</g>
	<g>
		<g>
			<path fill="#1E7A85" d="M825.5,371.5c-1,0-1.9-0.2-2.8-0.6c-6-2.7-6.6-13.9-1.3-25.5c4.4-9.7,11.5-16.4,17.3-16.4
				c1,0,1.9,0.2,2.8,0.6c1.7,0.8,3.1,2.4,3.9,4.6c1.9,5.1,0.9,13.2-2.6,21C838.4,364.7,831.3,371.5,825.5,371.5z M838.7,330.5
				c-5.1,0-11.8,6.5-15.9,15.5c-4.7,10.4-4.5,21.2,0.6,23.5c0.6,0.3,1.4,0.4,2.1,0.4c5.1,0,11.8-6.5,15.9-15.5
				c3.3-7.3,4.3-15.1,2.6-19.8c-0.7-1.8-1.7-3.1-3.1-3.7C840.2,330.7,839.4,330.5,838.7,330.5z"/>
		</g>
		<g>
			<path fill="#1E7A85" d="M832.3,361.6c-1.8,0-3.6-0.4-5.2-1.2c-2.8-1.4-4.9-3.8-5.9-6.8c-1-3-0.8-6.2,0.6-9c2-4,6-6.5,10.5-6.5
				c1.8,0,3.6,0.4,5.2,1.2c5.8,2.9,8.2,10,5.3,15.8C840.8,359.1,836.8,361.6,832.3,361.6z M832.3,339.6c-3.9,0-7.4,2.2-9.1,5.6
				c-1.2,2.4-1.4,5.2-0.5,7.8c0.9,2.6,2.7,4.7,5.1,5.9c1.4,0.7,2.9,1.1,4.5,1.1c3.9,0,7.4-2.2,9.1-5.6c2.5-5,0.5-11.1-4.6-13.7
				C835.4,340,833.9,339.6,832.3,339.6z"/>
		</g>
	</g>
	<g>
		<g>
			<path fill="#1E7A85" d="M725.5,605.2c-5.6,0-13.1-5.2-18.6-12.9c-3.5-4.9-5.8-10.1-6.6-14.8c-0.8-4.9,0.2-8.6,2.9-10.5
				c1.2-0.8,2.6-1.3,4.2-1.3c5.6,0,13,5.2,18.6,12.9c5,7,7.5,14.6,6.7,20.1c-0.4,2.3-1.4,4.1-3,5.2
				C728.6,604.8,727.2,605.2,725.5,605.2z M707.5,567.3c-1.3,0-2.4,0.3-3.3,1c-2.1,1.5-2.9,4.7-2.2,9c0.7,4.5,2.9,9.5,6.3,14.1
				c5.2,7.3,12.2,12.2,17.3,12.2c1.3,0,2.4-0.3,3.3-1c1.2-0.9,2-2.3,2.3-4.2c0.8-4.9-1.7-12.4-6.4-18.9
				C719.6,572.2,712.6,567.3,707.5,567.3z"/>
		</g>
		<g>
			<path fill="#1E7A85" d="M716.3,596.8c-4,0-7.6-2-9.8-5.3c-3.6-5.4-2.1-12.7,3.3-16.3c1.9-1.3,4.2-2,6.5-2c4,0,7.6,2,9.8,5.3
				c1.7,2.6,2.3,5.8,1.7,8.8c-0.6,3.1-2.4,5.7-5,7.4C720.8,596.2,718.6,596.8,716.3,596.8z M716.2,574.9c-2,0-3.9,0.6-5.6,1.7
				c-4.7,3.1-5.9,9.4-2.8,14.1c1.9,2.8,5.1,4.6,8.5,4.6c2,0,3.9-0.6,5.6-1.7c2.3-1.5,3.8-3.8,4.3-6.4c0.5-2.7,0-5.4-1.5-7.6
				C722.9,576.6,719.7,574.9,716.2,574.9z"/>
		</g>
	</g>
	<g>
		<g>
			<path fill="#1E7A85" d="M1135.3,650.2c-10.9,0-18.8-4-19.4-9.7c-0.6-6.6,8.8-12.7,21.5-13.9c1.5-0.1,2.9-0.2,4.4-0.2
				c10.8,0,18.8,4,19.4,9.7c0.2,1.9-0.5,3.9-2,5.7c-3.5,4.2-10.9,7.4-19.5,8.2C1138.2,650.1,1136.7,650.2,1135.3,650.2z M1141.8,628
				c-1.4,0-2.8,0.1-4.2,0.2c-11.4,1.1-20.6,6.7-20.1,12.2c0.5,4.7,8.1,8.2,17.8,8.2c1.4,0,2.8-0.1,4.2-0.2c8-0.8,15.2-3.8,18.4-7.7
				c1.2-1.5,1.8-3,1.6-4.5C1159.1,631.4,1151.6,628,1141.8,628z"/>
		</g>
		<g>
			<path fill="#1E7A85" d="M1138,650.1c-6.2,0-11.3-4.8-11.7-11c-0.4-6.5,4.5-12.1,11-12.5c6.5-0.4,12.1,4.6,12.4,11
				c0.2,3.1-0.8,6.1-2.9,8.5c-2.1,2.4-5,3.8-8.1,3.9C1138.5,650.1,1138.3,650.1,1138,650.1z M1138.1,628.2c-0.2,0-0.4,0-0.6,0
				c-5.6,0.3-9.9,5.2-9.5,10.8c0.4,5.6,5.2,9.9,10.8,9.5c2.7-0.2,5.2-1.4,7-3.4c1.8-2,2.7-4.7,2.5-7.4
				C1147.9,632.4,1143.4,628.2,1138.1,628.2z"/>
		</g>
	</g>
	<g>
		<g>
			<path fill="#1E7A85" d="M1143.4,757.6c-1,0-1.9-0.2-2.8-0.6c-6-2.7-6.6-14-1.3-25.6c4.4-9.7,11.5-16.4,17.3-16.4
				c1,0,1.9,0.2,2.8,0.6c6,2.7,6.6,14,1.3,25.6C1156.3,750.8,1149.2,757.6,1143.4,757.6z M1156.6,716.6c-5.1,0-11.8,6.5-15.9,15.5
				c-4.7,10.4-4.5,21.2,0.5,23.5c0.6,0.3,1.4,0.4,2.1,0.4c5.1,0,11.8-6.5,15.9-15.5c4.7-10.4,4.5-21.2-0.6-23.5
				C1158.1,716.7,1157.4,716.6,1156.6,716.6z"/>
		</g>
		<g>
			<path fill="#1E7A85" d="M1149.8,748.4c-1.8,0-3.6-0.4-5.2-1.2c-5.8-2.9-8.2-10-5.3-15.8c2-4,6-6.5,10.5-6.5
				c1.8,0,3.6,0.4,5.2,1.2c2.8,1.4,4.9,3.8,5.9,6.8c1,3,0.8,6.2-0.6,9C1158.4,745.9,1154.3,748.4,1149.8,748.4z M1149.8,726.5
				c-3.9,0-7.4,2.2-9.1,5.6c-2.5,5-0.5,11.1,4.6,13.7c1.4,0.7,2.9,1.1,4.5,1.1c3.9,0,7.4-2.2,9.1-5.6c1.2-2.4,1.4-5.2,0.6-7.8
				c-0.9-2.6-2.7-4.7-5.1-5.9C1152.9,726.9,1151.4,726.5,1149.8,726.5z"/>
		</g>
	</g>
	<g>
		<g>
			<path fill="#1E7A85" d="M1084.9,172.7c-6.5,0-11.9-9.8-12.3-22.3c-0.2-6,0.8-11.6,2.8-16c2.1-4.5,5-7,8.2-7.1l0.2,0
				c6.5,0,11.9,9.8,12.3,22.3c0.4,12.7-4.4,22.9-11,23.1L1084.9,172.7z M1083.9,128.8l-0.2,0c-2.6,0.1-5,2.3-6.9,6.2
				c-1.9,4.1-2.8,9.5-2.6,15.2c0.4,11.5,5.2,20.8,10.7,20.8l0.1,0c5.5-0.2,9.9-10,9.5-21.4C1094.2,138.1,1089.4,128.8,1083.9,128.8z
				"/>
		</g>
		<g>
			<path fill="#1E7A85" d="M1084.4,161L1084.4,161c-3.2,0-6.2-1.1-8.4-3.4c-2.2-2.2-3.4-5.1-3.4-8.3c0-6.5,5.3-11.7,11.8-11.7
				c6.6,0,11.8,5.2,11.8,11.7C1096.1,155.9,1090.9,161,1084.4,161z M1084.5,139.3c-5.6,0-10.2,4.5-10.2,10.1c0,2.7,1,5.3,3,7.2
				c1.9,1.9,4.8,3,7.5,3l0.3,0.8v-0.8c5,0,9.8-4.5,9.9-10.1C1094.9,143.9,1090.1,139.3,1084.5,139.3z"/>
		</g>
	</g>
	<g>
		<g>
			<path fill="#1E7A85" d="M994.2,182.1c-5.8,0-13-6.7-17.4-16.2c-2.5-5.4-3.8-11-3.7-15.8c0.1-4.9,1.8-8.4,4.8-9.8
				c0.9-0.4,1.8-0.6,2.8-0.6c5.8,0,13,6.7,17.4,16.2c5.4,11.5,4.9,22.8-1.1,25.5C996.1,181.9,995.2,182.1,994.2,182.1z M980.6,141.3
				c-0.8,0-1.5,0.2-2.2,0.5c-2.4,1.1-3.7,4.1-3.9,8.4c-0.1,4.5,1.1,9.9,3.6,15.1c4.1,8.9,10.8,15.3,16,15.3c0.8,0,1.5-0.2,2.2-0.5
				c5-2.3,5.1-13.1,0.3-23.4C992.5,147.7,985.8,141.3,980.6,141.3z"/>
		</g>
		<g>
			<path fill="#1E7A85" d="M987.2,172.2c-4.7,0-9-2.8-10.8-7.2c-1.2-2.9-1.2-6.1-0.1-9c1.2-2.9,3.4-5.2,6.3-6.4
				c1.5-0.6,3-0.9,4.6-0.9c4.7,0,9,2.8,10.8,7.2c1.2,2.9,1.2,6.1,0.1,9c-1.2,2.9-3.4,5.2-6.3,6.4
				C990.3,171.9,988.8,172.2,987.2,172.2z M987.2,150.3c-1.4,0-2.7,0.3-3.9,0.8c-2.5,1.1-4.4,3-5.5,5.5c-1,2.5-1,5.3,0,7.8
				c1.6,3.8,5.3,6.2,9.4,6.2c1.4,0,2.7-0.3,4-0.8c2.5-1.1,4.4-3,5.5-5.5s1-5.3-0.1-7.8C995,152.7,991.3,150.3,987.2,150.3z"/>
		</g>
	</g>
	<g>
		<g>
			<path fill="#1E7A85" d="M1093.6,260.1c-12.1,0-21.4-4.8-21.6-11c-0.1-3.2,2.2-6.3,6.6-8.7c4.2-2.3,9.8-3.6,15.7-3.8
				c12.8-0.4,22.9,4.5,23.1,11c0.1,3.2-2.2,6.3-6.6,8.7c-4.2,2.3-9.8,3.6-15.7,3.8C1094.6,260.1,1094.1,260.1,1093.6,260.1z
				 M1095.7,238.1c-0.5,0-0.9,0-1.4,0c-5.7,0.2-11.1,1.5-15,3.6c-3.8,2.1-5.8,4.6-5.8,7.2c0.2,5.6,9.7,9.9,21.4,9.5
				c5.7-0.2,11.1-1.5,15-3.6c3.8-2,5.8-4.6,5.8-7.2C1115.6,242.4,1106.6,238.1,1095.7,238.1z"/>
		</g>
		<g>
			<path fill="#1E7A85" d="M1095.1,260L1095.1,260c-3.2,0-6.1-1.2-8.3-3.4c-2.2-2.2-3.4-5.2-3.4-8.3c0-6.5,5.3-11.7,11.7-11.7
				c6.5,0,11.8,5.3,11.8,11.8C1106.9,254.8,1101.6,260,1095.1,260z M1095.2,238.1c-5.6,0-10.2,4.5-10.2,10.1c0,2.7,1,5.3,2.9,7.2
				s4.4,3,7.1,3l0,0.8v-0.8c6,0,10.2-4.5,10.2-10.1C1105.3,242.8,1100.8,238.2,1095.2,238.1z"/>
		</g>
	</g>
	<g>
		<g>
			<path fill="#1E7A85" d="M906.7,151.5c-12.1,0-21.4-4.8-21.6-11c-0.2-6.6,9.6-12.1,22.3-12.5c12.8-0.4,22.9,4.5,23.1,11
				c0.2,6.6-9.6,12.1-22.3,12.5C907.6,151.5,907.1,151.5,906.7,151.5z M908.8,129.5c-0.5,0-0.9,0-1.4,0c-11.4,0.4-21,5.3-20.8,10.8
				c0.2,5.5,9.9,9.9,21.4,9.5c11.5-0.4,21-5.3,20.8-10.8C928.7,133.8,919.7,129.5,908.8,129.5z"/>
		</g>
		<g>
			<path fill="#1E7A85" d="M908.2,151L908.2,151c-3.2,0-6.1-1-8.4-3.3c-2.2-2.2-3.4-5.1-3.4-8.2c0-6.4,5.3-11.6,11.7-11.6
				c6.5,0,11.8,5.1,11.8,11.6C919.9,145.9,914.6,151,908.2,151z M908.3,129.5c-5.6,0-10.2,4.5-10.2,10.1c0,2.7,1,5.3,2.9,7.2
				c1.9,1.9,4.4,3,7.1,3l0,0.8v-0.8c6,0,10.2-4.5,10.3-10.1C918.3,134.1,913.9,129.5,908.3,129.5z"/>
		</g>
	</g>
</g>
</svg>
