<?xml version="1.0" encoding="utf-8"?>
<!-- Generator: Adobe Illustrator 18.1.1, SVG Export Plug-In . SVG Version: 6.00 Build 0)  -->
<!DOCTYPE svg PUBLIC "-//W3C//DTD SVG 1.1//EN" "http://www.w3.org/Graphics/SVG/1.1/DTD/svg11.dtd">
<svg version="1.1" id="Layer_1" xmlns="http://www.w3.org/2000/svg" xmlns:xlink="http://www.w3.org/1999/xlink" x="0px" y="0px"
	 viewBox="0 0 1920 1080" enable-background="new 0 0 1920 1080" xml:space="preserve">
<g>
	<g>
		<g>
			<polygon fill="#FFFFFF" points="551.7,539 640.3,539 640.3,447.6 551.7,447.6 551.7,480.2 538.1,480.2 538.1,469.4 508.4,493.3 
				538.1,517.2 538.1,506.3 551.7,506.3 			"/>
			<path fill="#1E7A85" d="M641,539.8h-90.2v-32.6h-12v11.7l-31.7-25.6l31.7-25.6v11.7h12v-32.6H641V539.8z M552.5,538.2h87v-89.8
				h-87V481h-15.2v-10l-27.6,22.3l27.6,22.3v-10h15.2V538.2z"/>
		</g>
	</g>
	<g>
		<g>
			<polygon fill="#FFFFFF" points="775.1,76.2 775.1,164.8 866.5,164.8 866.5,76.2 833.9,76.2 833.9,62.6 844.7,62.6 820.8,33 
				796.9,62.6 807.8,62.6 807.8,76.2 			"/>
			<path fill="#1E7A85" d="M867.3,165.6h-92.9V75.5H807v-12h-11.7l25.6-31.7l25.6,31.7h-11.7v12h32.6V165.6z M775.9,164h89.8V77
				h-32.6V61.8h10l-22.3-27.6l-22.3,27.6h10V77h-32.6V164z"/>
		</g>
	</g>
	<g>
		<g>
			<polygon fill="#FFFFFF" points="237.1,330.8 237.1,419.4 328.5,419.4 328.5,330.8 295.9,330.8 295.9,317.2 306.7,317.2 
				282.8,287.5 258.9,317.2 269.7,317.2 269.7,330.8 			"/>
			<path fill="#1E7A85" d="M329.3,420.2h-92.9V330H269v-12h-11.7l25.6-31.7l25.6,31.7h-11.7v12h32.6V420.2z M237.9,418.6h89.8v-87
				h-32.6v-15.2h10l-22.3-27.6l-22.3,27.6h10v15.2h-32.6V418.6z"/>
		</g>
	</g>
</g>
<g>
	<path fill="#1E7A85" d="M829.1,117.2l11.6,2.6l-38.1,29.5l13.7-23.2l-11.6-2.6l38.1-28.2L829.1,117.2z"/>
</g>
<g>
	<path fill="#1E7A85" d="M290.1,370.7l11.6,2.6l-38.1,29.5l13.7-23.2l-11.6-2.6l38.1-28.2L290.1,370.7z"/>
</g>
<g>
	<path fill="#1E7A85" d="M602.1,489.7l11.6,2.6l-38.1,29.5l13.7-23.2l-11.6-2.6l38.1-28.2L602.1,489.7z"/>
</g>
</svg>
