<?xml version="1.0" encoding="utf-8"?>
<!-- Generator: Adobe Illustrator 18.1.1, SVG Export Plug-In . SVG Version: 6.00 Build 0)  -->
<!DOCTYPE svg PUBLIC "-//W3C//DTD SVG 1.1//EN" "http://www.w3.org/Graphics/SVG/1.1/DTD/svg11.dtd">
<svg version="1.1" id="Layer_1" xmlns="http://www.w3.org/2000/svg" xmlns:xlink="http://www.w3.org/1999/xlink" x="0px" y="0px"
	 viewBox="0 0 1920 1080" enable-background="new 0 0 1920 1080" xml:space="preserve">
<g>
	<g>
		<g>
			<rect x="720.3" y="288.3" fill="#FFFFFF" width="96.3" height="240.1"/>
			<path fill="#1E7A85" d="M817.5,529.2h-97.9V287.5h97.9V529.2z M721.1,527.6h94.8V289h-94.8V527.6z"/>
		</g>
		<g>
			<rect x="816.7" y="288.3" fill="#FFFFFF" width="96.4" height="240.1"/>
			<path fill="#1E7A85" d="M913.8,529.2h-97.9V287.5h97.9V529.2z M817.5,527.6h94.8V289h-94.8V527.6z"/>
		</g>
		<g>
			<g>
				<path fill="#1E7A85" d="M971.5,377.8h-51.6v61.9h51.6V377.8z M926.3,433.6V384h32.3v49.5H926.3z"/>
			</g>
		</g>
		<g>
			<g>
				<path fill="#1E7A85" d="M971.5,455h-51.6v61.9h51.6V455z M926.3,510.7v-49.5h32.3v49.5H926.3z"/>
			</g>
		</g>
		<g>
			<g>
				<path fill="#1E7A85" d="M661.9,516.9h51.6V455h-51.6V516.9z M707,461.2v49.6h-32.3v-49.6H707z"/>
			</g>
		</g>
		<g>
			<g>
				<path fill="#1E7A85" d="M661.9,439.8h51.6v-61.9h-51.6V439.8z M707,384v49.5h-32.3V384H707z"/>
			</g>
		</g>
		<g>
			<g>
				<path fill="#1E7A85" d="M971.5,300.7h-51.6v61.9h51.6V300.7z M926.3,356.4v-49.5h32.3v49.5H926.3z"/>
			</g>
		</g>
		<g>
			<g>
				<path fill="#1E7A85" d="M661.9,362.6h51.6v-61.9h-51.6V362.6z M707,306.9v49.5h-32.3v-49.5H707z"/>
			</g>
		</g>
		<g>
			<g>
				<path fill="#1E7A85" d="M738.3,229.8v51.6h61.9v-51.6H738.3z M794,275h-49.5v-32.3H794V275z"/>
			</g>
		</g>
		<g>
			<g>
				<path fill="#1E7A85" d="M834.5,229.8v51.6h61.9v-51.6H834.5z M890.2,275h-49.5v-32.3h49.5V275z"/>
			</g>
		</g>
	</g>
	<g>
		<g>
			<rect x="816.7" y="528.4" fill="#FFFFFF" width="96.3" height="240.1"/>
			<path fill="#1E7A85" d="M913.8,769.3h-97.9V527.6h97.9V769.3z M817.5,767.7h94.8V529.2h-94.8V767.7z"/>
		</g>
		<g>
			<rect x="720.3" y="528.4" fill="#FFFFFF" width="96.4" height="240.1"/>
			<path fill="#1E7A85" d="M817.5,769.3h-97.9V527.6h97.9V769.3z M721.1,767.7h94.8V529.2h-94.8V767.7z"/>
		</g>
		<g>
			<g>
				<path fill="#1E7A85" d="M661.9,678.9h51.6V617h-51.6V678.9z M707,623.2v49.5h-32.3v-49.5H707z"/>
			</g>
		</g>
		<g>
			<g>
				<path fill="#1E7A85" d="M661.9,601.8h51.6v-61.9h-51.6V601.8z M707,546v49.5h-32.3V546H707z"/>
			</g>
		</g>
		<g>
			<g>
				<path fill="#1E7A85" d="M971.5,539.8h-51.6v61.9h51.6V539.8z M926.3,595.6V546h32.3v49.5H926.3z"/>
			</g>
		</g>
		<g>
			<g>
				<path fill="#1E7A85" d="M971.5,617h-51.6v61.9h51.6V617z M926.3,672.7v-49.5h32.3v49.5H926.3z"/>
			</g>
		</g>
		<g>
			<g>
				<path fill="#1E7A85" d="M661.9,756.1h51.6v-61.9h-51.6V756.1z M707,700.3v49.5h-32.3v-49.5H707z"/>
			</g>
		</g>
		<g>
			<g>
				<path fill="#1E7A85" d="M971.5,694.1h-51.6v61.9h51.6V694.1z M926.3,749.9v-49.5h32.3v49.5H926.3z"/>
			</g>
		</g>
		<g>
			<g>
				<path fill="#1E7A85" d="M895.1,827v-51.6h-61.9V827H895.1z M839.4,781.8h49.5v32.3h-49.5V781.8z"/>
			</g>
		</g>
		<g>
			<g>
				<path fill="#1E7A85" d="M798.9,827v-51.6H737V827H798.9z M743.2,781.8h49.5v32.3h-49.5V781.8z"/>
			</g>
		</g>
	</g>
</g>
</svg>
