<?xml version="1.0" encoding="utf-8"?>
<!-- Generator: Adobe Illustrator 18.1.1, SVG Export Plug-In . SVG Version: 6.00 Build 0)  -->
<!DOCTYPE svg PUBLIC "-//W3C//DTD SVG 1.1//EN" "http://www.w3.org/Graphics/SVG/1.1/DTD/svg11.dtd">
<svg version="1.1" id="Layer_1" xmlns="http://www.w3.org/2000/svg" xmlns:xlink="http://www.w3.org/1999/xlink" x="0px" y="0px"
	 viewBox="0 0 1920 1080" enable-background="new 0 0 1920 1080" xml:space="preserve">
<g>
	<g>
		<rect x="663.2" y="257.8" fill="#FFFFFF" width="96.4" height="234.8"/>
		<path fill="#1E7A85" d="M760.4,493.4h-97.9V257h97.9V493.4z M664,491.8h94.8V258.6H664V491.8z"/>
	</g>
	<g>
		<rect x="912.9" y="257.8" fill="#FFFFFF" width="96.3" height="234.8"/>
		<path fill="#1E7A85" d="M1010,493.4h-97.9V257h97.9V493.4z M913.7,491.8h94.8V258.6h-94.8V491.8z"/>
	</g>
	<g>
		<rect x="759.6" y="257.8" fill="#FFFFFF" width="153.3" height="96.3"/>
		<path fill="#1E7A85" d="M913.7,354.9H758.8V257h154.9V354.9z M760.4,353.4h151.7v-94.8H760.4V353.4z"/>
	</g>
	<g>
		<rect x="912.9" y="491.7" fill="#FFFFFF" width="96.3" height="234.8"/>
		<path fill="#1E7A85" d="M1010,727.3h-97.9V490.9h97.9V727.3z M913.7,725.7h94.8V492.5h-94.8V725.7z"/>
	</g>
	<g>
		<rect x="663.2" y="491.7" fill="#FFFFFF" width="96.4" height="234.8"/>
		<path fill="#1E7A85" d="M760.4,727.3h-97.9V490.9h97.9V727.3z M664,725.7h94.8V492.5H664V725.7z"/>
	</g>
	<g>
		<rect x="759.6" y="630.2" fill="#FFFFFF" width="153.3" height="96.3"/>
		<path fill="#1E7A85" d="M913.7,727.3H758.8v-97.9h154.9V727.3z M760.4,725.7h151.7V631H760.4V725.7z"/>
	</g>
	<g>
		<g>
			<path fill="#1E7A85" d="M604,331.5h51.6v-61.9H604V331.5z M649.2,275.7v49.6h-32.3v-49.6H649.2z"/>
		</g>
	</g>
	<g>
		<g>
			<path fill="#1E7A85" d="M604,408.6h51.6v-61.9H604V408.6z M649.2,352.9v49.5h-32.3v-49.5H649.2z"/>
		</g>
	</g>
	<g>
		<g>
			<path fill="#1E7A85" d="M604,485.8h51.6v-61.9H604V485.8z M649.2,430v49.6h-32.3V430H649.2z"/>
		</g>
	</g>
	<g>
		<g>
			<path fill="#1E7A85" d="M604,562.9h51.6V501H604V562.9z M649.2,507.2v49.5h-32.3v-49.5H649.2z"/>
		</g>
	</g>
	<g>
		<g>
			<path fill="#1E7A85" d="M921.7,195.8v51.6h61.9v-51.6H921.7z M977.4,241h-49.6v-32.3h49.6V241z"/>
		</g>
	</g>
	<g>
		<g>
			<path fill="#1E7A85" d="M844.5,195.8v51.6h61.9v-51.6H844.5z M900.2,241h-49.5v-32.3h49.5V241z"/>
		</g>
	</g>
	<g>
		<g>
			<path fill="#1E7A85" d="M767.3,195.8v51.6h61.9v-51.6H767.3z M823.1,241h-49.6v-32.3h49.6V241z"/>
		</g>
	</g>
	<g>
		<g>
			<path fill="#1E7A85" d="M690.2,195.8v51.6h61.9v-51.6H690.2z M745.9,241h-49.5v-32.3h49.5V241z"/>
		</g>
	</g>
	<g>
		<g>
			<path fill="#1E7A85" d="M752.1,785.7v-51.6h-61.9v51.6H752.1z M696.4,740.6h49.6v32.3h-49.6V740.6z"/>
		</g>
	</g>
	<g>
		<g>
			<path fill="#1E7A85" d="M829.3,785.7v-51.6h-61.9v51.6H829.3z M773.5,740.6h49.5v32.3h-49.5V740.6z"/>
		</g>
	</g>
	<g>
		<g>
			<path fill="#1E7A85" d="M906.4,785.7v-51.6h-61.9v51.6H906.4z M850.7,740.6h49.6v32.3h-49.6V740.6z"/>
		</g>
	</g>
	<g>
		<g>
			<path fill="#1E7A85" d="M983.6,785.7v-51.6h-61.9v51.6H983.6z M927.9,740.6h49.5v32.3h-49.5V740.6z"/>
		</g>
	</g>
	<g>
		<g>
			<path fill="#1E7A85" d="M604,640.1h51.6v-61.9H604V640.1z M649.2,584.3v49.6h-32.3v-49.6H649.2z"/>
		</g>
	</g>
	<g>
		<g>
			<path fill="#1E7A85" d="M604,717.2h51.6v-61.9H604V717.2z M649.2,661.5V711h-32.3v-49.5H649.2z"/>
		</g>
	</g>
	<g>
		<g>
			<path fill="#1E7A85" d="M1068.5,655.3h-51.6v61.9h51.6V655.3z M1023.3,711.1v-49.5h32.3v49.5H1023.3z"/>
		</g>
	</g>
	<g>
		<g>
			<path fill="#1E7A85" d="M1068.5,578.2h-51.6v61.9h51.6V578.2z M1023.3,633.9v-49.6h32.3v49.6H1023.3z"/>
		</g>
	</g>
	<g>
		<g>
			<path fill="#1E7A85" d="M1068.5,501h-51.6v61.9h51.6V501z M1023.3,556.7v-49.5h32.3v49.5H1023.3z"/>
		</g>
	</g>
	<g>
		<g>
			<path fill="#1E7A85" d="M1068.5,423.8h-51.6v61.9h51.6V423.8z M1023.3,479.6V430h32.3v49.5H1023.3z"/>
		</g>
	</g>
	<g>
		<g>
			<path fill="#1E7A85" d="M1068.5,346.7h-51.6v61.9h51.6V346.7z M1023.3,402.4v-49.6h32.3v49.6H1023.3z"/>
		</g>
	</g>
	<g>
		<g>
			<path fill="#1E7A85" d="M1068.5,269.5h-51.6v61.9h51.6V269.5z M1023.3,325.3v-49.5h32.3v49.5H1023.3z"/>
		</g>
	</g>
</g>
</svg>
