<?xml version="1.0" encoding="utf-8"?>
<!-- Generator: Adobe Illustrator 18.1.1, SVG Export Plug-In . SVG Version: 6.00 Build 0)  -->
<!DOCTYPE svg PUBLIC "-//W3C//DTD SVG 1.1//EN" "http://www.w3.org/Graphics/SVG/1.1/DTD/svg11.dtd">
<svg version="1.1" id="Layer_1" xmlns="http://www.w3.org/2000/svg" xmlns:xlink="http://www.w3.org/1999/xlink" x="0px" y="0px"
	 viewBox="0 0 1920 1080" enable-background="new 0 0 1920 1080" xml:space="preserve">
<g>
	<g>
		<g>
			<g>
				<path fill="#1E7A85" d="M570.3,422.9v56.5h67.8v-56.5H570.3z M631.3,472.3h-54.2V437h54.2V472.3z"/>
			</g>
		</g>
	</g>
	<g>
		<g>
			<g>
				<path fill="#1E7A85" d="M486.1,422.9v56.5h67.8v-56.5H486.1z M547.1,472.3h-54.2V437h54.2V472.3z"/>
			</g>
		</g>
	</g>
	<g>
		<g>
			<g>
				<path fill="#1E7A85" d="M401.8,422.9v56.5h67.8v-56.5H401.8z M462.8,472.3h-54.2V437h54.2V472.3z"/>
			</g>
		</g>
	</g>
	<g>
		<path fill="#1E7A85" d="M653,580.1H386.4v-92.8H653V580.1z M388.2,578.3h262.9v-89.1H388.2V578.3z"/>
	</g>
	<g>
		<g>
			<g>
				<path fill="#1E7A85" d="M835,422.9v56.5h67.8v-56.5H835z M896,472.3h-54.2V437H896V472.3z"/>
			</g>
		</g>
	</g>
	<g>
		<g>
			<g>
				<path fill="#1E7A85" d="M750.8,422.9v56.5h67.8v-56.5H750.8z M811.8,472.3h-54.2V437h54.2V472.3z"/>
			</g>
		</g>
	</g>
	<g>
		<g>
			<g>
				<path fill="#1E7A85" d="M666.6,422.9v56.5h67.8v-56.5H666.6z M727.6,472.3h-54.2V437h54.2V472.3z"/>
			</g>
		</g>
	</g>
	<g>
		<path fill="#1E7A85" d="M917.7,580.1H651.1v-92.8h266.6V580.1z M653,578.3h262.9v-89.1H653V578.3z"/>
	</g>
	<g>
		<g>
			<g>
				<path fill="#1E7A85" d="M1099.8,422.9v56.5h67.8v-56.5H1099.8z M1160.8,472.3h-54.2V437h54.2V472.3z"/>
			</g>
		</g>
	</g>
	<g>
		<g>
			<g>
				<path fill="#1E7A85" d="M1015.6,422.9v56.5h67.8v-56.5H1015.6z M1076.6,472.3h-54.2V437h54.2V472.3z"/>
			</g>
		</g>
	</g>
	<g>
		<g>
			<g>
				<path fill="#1E7A85" d="M931.3,422.9v56.5h67.8v-56.5H931.3z M992.3,472.3h-54.2V437h54.2V472.3z"/>
			</g>
		</g>
	</g>
	<g>
		<path fill="#1E7A85" d="M1182.5,580.1H915.9v-92.8h266.6V580.1z M917.7,578.3h262.9v-89.1H917.7V578.3z"/>
	</g>
	<g>
		<g>
			<g>
				<path fill="#1E7A85" d="M1364.5,422.9v56.5h67.8v-56.5H1364.5z M1425.5,472.3h-54.2V437h54.2V472.3z"/>
			</g>
		</g>
	</g>
	<g>
		<g>
			<g>
				<path fill="#1E7A85" d="M1280.3,422.9v56.5h67.8v-56.5H1280.3z M1341.3,472.3h-54.2V437h54.2V472.3z"/>
			</g>
		</g>
	</g>
	<g>
		<g>
			<g>
				<path fill="#1E7A85" d="M1196.1,422.9v56.5h67.8v-56.5H1196.1z M1257.1,472.3h-54.2V437h54.2V472.3z"/>
			</g>
		</g>
	</g>
	<g>
		<path fill="#1E7A85" d="M1447.2,580.1h-266.6v-92.8h266.6V580.1z M1182.5,578.3h262.9v-89.1h-262.9V578.3z"/>
	</g>
	<g>
		<g>
			<g>
				<path fill="#1E7A85" d="M1263.3,735.6v-56.5h-67.8v56.5H1263.3z M1202.3,686.1h54.2v35.3h-54.2V686.1z"/>
			</g>
		</g>
	</g>
	<g>
		<g>
			<g>
				<path fill="#1E7A85" d="M1347.5,735.6v-56.5h-67.8v56.5H1347.5z M1286.5,686.1h54.2v35.3h-54.2V686.1z"/>
			</g>
		</g>
	</g>
	<g>
		<g>
			<g>
				<path fill="#1E7A85" d="M1431.7,735.6v-56.5H1364v56.5H1431.7z M1370.8,686.1h54.2v35.3h-54.2V686.1z"/>
			</g>
		</g>
	</g>
	<g>
		<path fill="#1E7A85" d="M1447.2,671.1h-266.6v-92.8h266.6V671.1z M1182.5,669.3h262.9v-89.1h-262.9V669.3z"/>
	</g>
	<g>
		<path fill="#1E7A85" d="M1538.2,671.1h-92.8V487.3h92.8V671.1z M1447.2,669.3h89.1V489.2h-89.1V669.3z"/>
	</g>
	<g>
		<path fill="#1E7A85" d="M388.2,671.1h-92.8V487.3h92.8V671.1z M297.3,669.3h89.1V489.2h-89.1V669.3z"/>
	</g>
	<g>
		<g>
			<g>
				<path fill="#1E7A85" d="M998.6,735.6v-56.5h-67.8v56.5H998.6z M937.6,686.1h54.2v35.3h-54.2V686.1z"/>
			</g>
		</g>
	</g>
	<g>
		<g>
			<g>
				<path fill="#1E7A85" d="M1082.8,735.6v-56.5H1015v56.5H1082.8z M1021.8,686.1h54.2v35.3h-54.2V686.1z"/>
			</g>
		</g>
	</g>
	<g>
		<g>
			<g>
				<path fill="#1E7A85" d="M1167,735.6v-56.5h-67.8v56.5H1167z M1106,686.1h54.2v35.3H1106V686.1z"/>
			</g>
		</g>
	</g>
	<g>
		<path fill="#1E7A85" d="M1182.5,671.1H915.9v-92.8h266.6V671.1z M917.7,669.3h262.9v-89.1H917.7V669.3z"/>
	</g>
	<g>
		<g>
			<g>
				<path fill="#1E7A85" d="M733.8,735.6v-56.5H666v56.5H733.8z M672.8,686.1H727v35.3h-54.2V686.1z"/>
			</g>
		</g>
	</g>
	<g>
		<g>
			<g>
				<path fill="#1E7A85" d="M818,735.6v-56.5h-67.8v56.5H818z M757,686.1h54.2v35.3H757V686.1z"/>
			</g>
		</g>
	</g>
	<g>
		<g>
			<g>
				<path fill="#1E7A85" d="M902.3,735.6v-56.5h-67.8v56.5H902.3z M841.3,686.1h54.2v35.3h-54.2V686.1z"/>
			</g>
		</g>
	</g>
	<g>
		<path fill="#1E7A85" d="M917.7,671.1H651.1v-92.8h266.6V671.1z M653,669.3h262.9v-89.1H653V669.3z"/>
	</g>
	<g>
		<g>
			<g>
				<path fill="#1E7A85" d="M469.1,735.6v-56.5h-67.8v56.5H469.1z M408.1,686.1h54.2v35.3h-54.2V686.1z"/>
			</g>
		</g>
	</g>
	<g>
		<g>
			<g>
				<path fill="#1E7A85" d="M553.3,735.6v-56.5h-67.8v56.5H553.3z M492.3,686.1h54.2v35.3h-54.2V686.1z"/>
			</g>
		</g>
	</g>
	<g>
		<g>
			<g>
				<path fill="#1E7A85" d="M637.5,735.6v-56.5h-67.8v56.5H637.5z M576.5,686.1h54.2v35.3h-54.2V686.1z"/>
			</g>
		</g>
	</g>
	<g>
		<path fill="#1E7A85" d="M653,671.1H386.4v-92.8H653V671.1z M388.2,669.3h262.9v-89.1H388.2V669.3z"/>
	</g>
	<g>
		<g>
			<g>
				<path fill="#1E7A85" d="M230.9,570.1h56.5v-67.8h-56.5V570.1z M280.4,509.1v54.2h-35.3v-54.2H280.4z"/>
			</g>
		</g>
	</g>
	<g>
		<g>
			<g>
				<path fill="#1E7A85" d="M230.9,656.1h56.5v-67.8h-56.5V656.1z M280.4,595.1v54.2h-35.3v-54.2H280.4z"/>
			</g>
		</g>
	</g>
	<g>
		<g>
			<g>
				<path fill="#1E7A85" d="M1601.9,588.3h-56.5v67.8h56.5V588.3z M1552.5,649.3v-54.2h35.3v54.2H1552.5z"/>
			</g>
		</g>
	</g>
	<g>
		<g>
			<g>
				<path fill="#1E7A85" d="M1601.9,502.4h-56.5v67.8h56.5V502.4z M1552.5,563.4v-54.2h35.3v54.2H1552.5z"/>
			</g>
		</g>
	</g>
</g>
</svg>
