<?xml version="1.0" encoding="utf-8"?>
<!-- Generator: Adobe Illustrator 18.1.1, SVG Export Plug-In . SVG Version: 6.00 Build 0)  -->
<!DOCTYPE svg PUBLIC "-//W3C//DTD SVG 1.1//EN" "http://www.w3.org/Graphics/SVG/1.1/DTD/svg11.dtd">
<svg version="1.1" id="Layer_1" xmlns="http://www.w3.org/2000/svg" xmlns:xlink="http://www.w3.org/1999/xlink" x="0px" y="0px"
	 viewBox="0 0 900 566" enable-background="new 0 0 900 566" xml:space="preserve">
<rect fill="none" width="900" height="566"/>
<g>
	<g>
		<g>
			<path fill="#1E7A85" d="M245.7,221.6v29.6h35.5v-29.6H245.7z M277.6,247.5h-28.4V229h28.4V247.5z"/>
		</g>
	</g>
</g>
<g>
	<g>
		<g>
			<path fill="#1E7A85" d="M201.5,221.6v29.6H237v-29.6H201.5z M233.5,247.5h-28.4V229h28.4V247.5z"/>
		</g>
	</g>
</g>
<g>
	<g>
		<g>
			<path fill="#1E7A85" d="M157.3,221.6v29.6h35.5v-29.6H157.3z M189.3,247.5h-28.4V229h28.4V247.5z"/>
		</g>
	</g>
</g>
<g>
	<path fill="#1E7A85" d="M289,304H149.2v-48.7H289V304z M150.2,303.1h137.9v-46.7H150.2V303.1z"/>
</g>
<g>
	<g>
		<g>
			<path fill="#1E7A85" d="M384.5,221.6v29.6H420v-29.6H384.5z M416.5,247.5H388V229h28.4V247.5z"/>
		</g>
	</g>
</g>
<g>
	<g>
		<g>
			<path fill="#1E7A85" d="M340.3,221.6v29.6h35.5v-29.6H340.3z M372.3,247.5h-28.4V229h28.4V247.5z"/>
		</g>
	</g>
</g>
<g>
	<g>
		<g>
			<path fill="#1E7A85" d="M296.2,221.6v29.6h35.5v-29.6H296.2z M328.1,247.5h-28.4V229h28.4V247.5z"/>
		</g>
	</g>
</g>
<g>
	<path fill="#1E7A85" d="M427.8,304H288.1v-48.7h139.8V304z M289,303.1h137.9v-46.7H289V303.1z"/>
</g>
<g>
	<g>
		<g>
			<path fill="#1E7A85" d="M523.3,221.6v29.6h35.5v-29.6H523.3z M555.3,247.5h-28.4V229h28.4V247.5z"/>
		</g>
	</g>
</g>
<g>
	<g>
		<g>
			<path fill="#1E7A85" d="M479.1,221.6v29.6h35.5v-29.6H479.1z M511.1,247.5h-28.4V229h28.4V247.5z"/>
		</g>
	</g>
</g>
<g>
	<g>
		<g>
			<path fill="#1E7A85" d="M435,221.6v29.6h35.5v-29.6H435z M467,247.5h-28.4V229H467V247.5z"/>
		</g>
	</g>
</g>
<g>
	<path fill="#1E7A85" d="M566.6,304H426.9v-48.7h139.8V304z M427.8,303.1h137.9v-46.7H427.8V303.1z"/>
</g>
<g>
	<g>
		<g>
			<path fill="#1E7A85" d="M662.1,221.6v29.6h35.5v-29.6H662.1z M694.1,247.5h-28.4V229h28.4V247.5z"/>
		</g>
	</g>
</g>
<g>
	<g>
		<g>
			<path fill="#1E7A85" d="M617.9,221.6v29.6h35.5v-29.6H617.9z M649.9,247.5h-28.4V229h28.4V247.5z"/>
		</g>
	</g>
</g>
<g>
	<g>
		<g>
			<path fill="#1E7A85" d="M573.8,221.6v29.6h35.5v-29.6H573.8z M605.8,247.5h-28.4V229h28.4V247.5z"/>
		</g>
	</g>
</g>
<g>
	<path fill="#1E7A85" d="M705.4,304H565.7v-48.7h139.8V304z M566.6,303.1h137.9v-46.7H566.6V303.1z"/>
</g>
<g>
	<g>
		<g>
			<path fill="#1E7A85" d="M609,385.5v-29.6h-35.5v29.6H609z M577,359.6h28.4v18.5H577V359.6z"/>
		</g>
	</g>
</g>
<g>
	<g>
		<g>
			<path fill="#1E7A85" d="M653.2,385.5v-29.6h-35.5v29.6H653.2z M621.2,359.6h28.4v18.5h-28.4V359.6z"/>
		</g>
	</g>
</g>
<g>
	<g>
		<g>
			<path fill="#1E7A85" d="M697.3,385.5v-29.6h-35.5v29.6H697.3z M665.4,359.6h28.4v18.5h-28.4V359.6z"/>
		</g>
	</g>
</g>
<g>
	<path fill="#1E7A85" d="M705.4,351.7H565.7v-48.7h139.8V351.7z M566.6,350.8h137.9V304H566.6V350.8z"/>
</g>
<g>
	<path fill="#1E7A85" d="M753.1,351.7h-48.7v-96.3h48.7V351.7z M705.4,350.8h46.7v-94.4h-46.7V350.8z"/>
</g>
<g>
	<path fill="#1E7A85" d="M150.2,351.7h-48.7v-96.3h48.7V351.7z M102.5,350.8h46.7v-94.4h-46.7V350.8z"/>
</g>
<g>
	<g>
		<g>
			<path fill="#1E7A85" d="M470.2,385.5v-29.6h-35.5v29.6H470.2z M438.2,359.6h28.4v18.5h-28.4V359.6z"/>
		</g>
	</g>
</g>
<g>
	<g>
		<g>
			<path fill="#1E7A85" d="M514.4,385.5v-29.6h-35.5v29.6H514.4z M482.4,359.6h28.4v18.5h-28.4V359.6z"/>
		</g>
	</g>
</g>
<g>
	<g>
		<g>
			<path fill="#1E7A85" d="M558.5,385.5v-29.6H523v29.6H558.5z M526.5,359.6H555v18.5h-28.4V359.6z"/>
		</g>
	</g>
</g>
<g>
	<path fill="#1E7A85" d="M566.6,351.7H426.9v-48.7h139.8V351.7z M427.8,350.8h137.9V304H427.8V350.8z"/>
</g>
<g>
	<g>
		<g>
			<path fill="#1E7A85" d="M331.4,385.5v-29.6h-35.5v29.6H331.4z M299.4,359.6h28.4v18.5h-28.4V359.6z"/>
		</g>
	</g>
</g>
<g>
	<g>
		<g>
			<path fill="#1E7A85" d="M375.6,385.5v-29.6H340v29.6H375.6z M343.6,359.6H372v18.5h-28.4V359.6z"/>
		</g>
	</g>
</g>
<g>
	<g>
		<g>
			<path fill="#1E7A85" d="M419.7,385.5v-29.6h-35.5v29.6H419.7z M387.7,359.6h28.4v18.5h-28.4V359.6z"/>
		</g>
	</g>
</g>
<g>
	<path fill="#1E7A85" d="M427.8,351.7H288.1v-48.7h139.8V351.7z M289,350.8h137.9V304H289V350.8z"/>
</g>
<g>
	<g>
		<g>
			<path fill="#1E7A85" d="M192.6,385.5v-29.6h-35.5v29.6H192.6z M160.6,359.6H189v18.5h-28.4V359.6z"/>
		</g>
	</g>
</g>
<g>
	<g>
		<g>
			<path fill="#1E7A85" d="M236.8,385.5v-29.6h-35.5v29.6H236.8z M204.8,359.6h28.4v18.5h-28.4V359.6z"/>
		</g>
	</g>
</g>
<g>
	<g>
		<g>
			<path fill="#1E7A85" d="M280.9,385.5v-29.6h-35.5v29.6H280.9z M248.9,359.6h28.4v18.5h-28.4V359.6z"/>
		</g>
	</g>
</g>
<g>
	<path fill="#1E7A85" d="M289,351.7H149.2v-48.7H289V351.7z M150.2,350.8h137.9V304H150.2V350.8z"/>
</g>
<g>
	<g>
		<g>
			<path fill="#1E7A85" d="M67.7,298.8h29.6v-35.5H67.7V298.8z M93.7,266.8v28.4H75.1v-28.4H93.7z"/>
		</g>
	</g>
</g>
<g>
	<g>
		<g>
			<path fill="#1E7A85" d="M67.7,343.9h29.6v-35.5H67.7V343.9z M93.7,311.9v28.4H75.1v-28.4H93.7z"/>
		</g>
	</g>
</g>
<g>
	<g>
		<g>
			<path fill="#1E7A85" d="M786.5,308.3h-29.6v35.5h29.6V308.3z M760.6,340.3v-28.4h18.5v28.4H760.6z"/>
		</g>
	</g>
</g>
<g>
	<g>
		<g>
			<path fill="#1E7A85" d="M786.5,263.3h-29.6v35.5h29.6V263.3z M760.6,295.2v-28.4h18.5v28.4H760.6z"/>
		</g>
	</g>
</g>
</svg>
