<?xml version="1.0" encoding="utf-8"?>
<!-- Generator: Adobe Illustrator 18.1.1, SVG Export Plug-In . SVG Version: 6.00 Build 0)  -->
<!DOCTYPE svg PUBLIC "-//W3C//DTD SVG 1.1//EN" "http://www.w3.org/Graphics/SVG/1.1/DTD/svg11.dtd">
<svg version="1.1" id="Layer_1" xmlns="http://www.w3.org/2000/svg" xmlns:xlink="http://www.w3.org/1999/xlink" x="0px" y="0px"
	 viewBox="0 0 1920 1080" enable-background="new 0 0 1920 1080" xml:space="preserve">
<g>
	<g>
		<path fill="#1E7A85" d="M227.4,671.5h-79.1V490.6h79.1V671.5z M150.1,669.7h75.5V492.4h-75.5V669.7z"/>
	</g>
	<g>
		<path fill="#1E7A85" d="M227.4,492.4h-79.1V311.5h79.1V492.4z M150.1,490.6h75.5V313.3h-75.5V490.6z"/>
	</g>
	<g>
		<path fill="#1E7A85" d="M227.4,850.6h-79.1V669.7h79.1V850.6z M150.1,848.7h75.5V671.5h-75.5V848.7z"/>
	</g>
	<g>
		<g>
			<path fill="#1E7A85" d="M594.5,213.3c-6.2,0-14-6.8-19.1-16.6c-6.3-12.2-6.3-24.2,0-27.5c1-0.5,2.2-0.8,3.4-0.8
				c6.2,0,14,6.8,19.1,16.7c2.9,5.7,4.6,11.6,4.7,16.7c0.1,5.3-1.6,9.1-4.7,10.7C596.9,213,595.7,213.3,594.5,213.3z M578.9,170.2
				c-0.9,0-1.8,0.2-2.5,0.6c-5.2,2.7-4.9,14.2,0.8,25c4.7,9.1,12,15.6,17.4,15.6c0.9,0,1.8-0.2,2.5-0.6c2.5-1.3,3.8-4.5,3.7-9.1
				c-0.1-4.8-1.7-10.5-4.5-15.9C591.6,176.8,584.3,170.2,578.9,170.2z"/>
		</g>
		<g>
			<path fill="#1E7A85" d="M586.5,203c-4.9,0-9.4-2.8-11.4-7.2c-3-6.3-0.3-13.9,6-16.9c1.7-0.8,3.5-1.2,5.4-1.2
				c4.9,0,9.4,2.8,11.5,7.3c1.4,3,1.6,6.5,0.5,9.7c-1.1,3.2-3.5,5.7-6.5,7.2C590.2,202.6,588.3,203,586.5,203z M586.4,179.5
				c-1.6,0-3.1,0.3-4.6,1c-5.4,2.5-7.7,9-5.2,14.4c1.8,3.8,5.6,6.2,9.8,6.2c1.6,0,3.2-0.3,4.6-1c2.6-1.2,4.6-3.4,5.6-6.1
				c1-2.7,0.8-5.7-0.4-8.3C594.5,182,590.6,179.5,586.4,179.5z"/>
		</g>
	</g>
	<g>
		<g>
			<path fill="#1E7A85" d="M677.9,237.3c-0.7,0-1.5,0-2.3-0.1c-9.2-0.4-17.4-3.4-21.3-7.8c-1.7-1.9-2.5-4-2.4-6
				c0.3-7,11.3-12.1,24.9-11.5c13.7,0.6,24.1,6.7,23.8,13.8C700.3,232.3,690.6,237.3,677.9,237.3z M674.6,213.7
				c-11.5,0-20.6,4.3-20.9,9.8c-0.1,1.6,0.6,3.2,2,4.7c3.6,4,11.5,6.8,20.1,7.2c12.5,0.6,22.8-3.9,23-9.8c0.3-5.9-9.8-11.3-22-11.9
				C676,213.8,675.3,213.7,674.6,213.7z"/>
		</g>
		<g>
			<path fill="#1E7A85" d="M675.8,237.2c-0.4,0-0.7,0-1.1,0c-3.4-0.3-6.4-1.8-8.6-4.4c-2.2-2.6-3.2-5.9-3-9.2
				c0.6-6.9,6.7-12.2,13.7-11.6c3.4,0.3,6.4,1.8,8.6,4.4c2.2,2.6,3.2,5.9,3,9.2C687.8,232.1,682.3,237.2,675.8,237.2z M675.7,213.7
				c-5.6,0-10.3,4.4-10.8,9.9c-0.2,2.9,0.7,5.7,2.5,7.9c1.9,2.2,4.5,3.6,7.4,3.8c6,0.5,11.2-4,11.7-9.9c0.2-2.9-0.7-5.7-2.5-7.9
				c-1.9-2.2-4.5-3.6-7.4-3.8C676.3,213.7,676,213.7,675.7,213.7z"/>
		</g>
	</g>
	<g>
		<g>
			<path fill="#1E7A85" d="M699.8,369.6c-1.5,0-2.9-0.4-4.1-1.1c-1.7-1.1-2.9-3-3.5-5.5c-1.3-5.8,1-14.2,6-21.9
				c5.7-8.9,13.6-14.9,19.7-14.9c1.6,0,2.9,0.4,4.1,1.1c2.9,1.9,4.3,5.8,3.7,11.1c-0.5,5.1-2.7,10.8-6.2,16.2
				C713.9,363.7,705.9,369.6,699.8,369.6z M717.9,328.1c-5.4,0-12.9,5.8-18.1,14c-4.6,7.2-6.9,15.3-5.8,20.5c0.4,2,1.3,3.5,2.7,4.3
				c0.9,0.6,1.9,0.9,3.1,0.9c5.4,0,12.9-5.8,18.2-14c3.3-5.2,5.4-10.7,5.9-15.4c0.5-4.6-0.5-7.9-2.9-9.4
				C720.2,328.4,719.1,328.1,717.9,328.1z"/>
		</g>
		<g>
			<path fill="#1E7A85" d="M708.6,361c-2.6,0-5.1-0.8-7.2-2.2c-5.7-4-7.2-11.9-3.2-17.6c2.4-3.4,6.2-5.4,10.4-5.4
				c2.6,0,5.1,0.8,7.2,2.3c2.8,1.9,4.6,4.8,5.2,8.1c0.6,3.3-0.1,6.7-2.1,9.5C716.6,359,712.8,361,708.6,361z M708.6,337.5
				c-3.6,0-6.9,1.7-8.9,4.7c-3.4,4.9-2.2,11.7,2.7,15.1c1.8,1.3,3.9,1.9,6.2,1.9c3.6,0,6.9-1.7,8.9-4.7c1.7-2.4,2.3-5.3,1.8-8.1
				c-0.5-2.8-2.1-5.3-4.5-6.9C713,338.2,710.8,337.5,708.6,337.5z"/>
		</g>
	</g>
	<g>
		<g>
			<path fill="#1E7A85" d="M754.2,307.4c-6.2,0-14-6.8-19.1-16.7c-4.2-8.2-5.7-16.7-4-22.3c0.8-2.4,2.1-4.2,4-5.1
				c1-0.5,2.2-0.8,3.4-0.8c6.2,0,14,6.8,19.1,16.6c4.2,8.2,5.7,16.7,3.9,22.4c-0.8,2.4-2.1,4.2-4,5.1
				C756.5,307.1,755.4,307.4,754.2,307.4z M738.5,264.3c-0.9,0-1.8,0.2-2.5,0.6c-1.4,0.7-2.5,2.1-3.1,4.1
				c-1.6,5.1-0.1,13.3,3.8,20.9c4.7,9.1,12,15.7,17.4,15.7c0.9,0,1.8-0.2,2.5-0.6c1.4-0.7,2.4-2.1,3.1-4.1c1.6-5.1,0.1-13.3-3.8-21
				C751.3,270.9,744,264.3,738.5,264.3z"/>
		</g>
		<g>
			<path fill="#1E7A85" d="M746.6,298c-4.9,0-9.4-2.9-11.5-7.3c-1.4-3.1-1.6-6.5-0.5-9.7c1.1-3.2,3.5-5.7,6.5-7.1
				c1.7-0.8,3.5-1.2,5.4-1.2c4.9,0,9.4,2.8,11.4,7.3c3,6.3,0.3,13.9-6,16.9C750.3,297.6,748.5,298,746.6,298z M746.6,274.5
				c-1.6,0-3.2,0.4-4.6,1c-2.6,1.2-4.6,3.4-5.6,6.1c-1,2.7-0.8,5.7,0.4,8.3c1.8,3.8,5.6,6.2,9.8,6.2c1.6,0,3.1-0.3,4.6-1
				c5.4-2.6,7.7-9,5.2-14.4C754.6,277,750.7,274.5,746.6,274.5z"/>
		</g>
	</g>
	<g>
		<g>
			<path fill="#1E7A85" d="M628.8,319c-0.7,0-1.5,0-2.3-0.1c-9.2-0.4-17.3-3.4-21.3-7.7c-1.7-1.9-2.6-3.9-2.5-6
				c0.3-7,11.3-12.2,25-11.5c9.2,0.4,17.4,3.4,21.3,7.8c1.7,1.9,2.6,3.9,2.5,6C651.2,314.1,641.4,319,628.8,319z M625.4,295.5
				c-11.4,0-20.6,4.3-20.8,9.8c-0.1,1.6,0.6,3.2,2,4.7c3.6,4,11.5,6.8,20,7.1c12.5,0.6,22.8-3.9,23.1-9.8c0.1-1.6-0.6-3.2-2-4.7
				c-3.6-4-11.5-6.8-20.1-7.2C626.9,295.5,626.1,295.5,625.4,295.5z"/>
		</g>
		<g>
			<path fill="#1E7A85" d="M627.6,319c-0.4,0-0.7,0-1.1,0c-3.4-0.3-6.4-1.9-8.6-4.4c-2.2-2.6-3.2-5.8-2.9-9.2
				c0.5-6.9,6.7-12.2,13.6-11.6c3.3,0.3,6.4,1.8,8.6,4.4c2.2,2.6,3.3,5.9,3,9.2C639.7,313.9,634.2,319,627.6,319z M627.6,295.6
				c-5.6,0-10.3,4.4-10.7,9.9c-0.2,2.9,0.6,5.7,2.5,7.9c1.9,2.2,4.5,3.6,7.4,3.8c6,0.5,11.2-4,11.7-9.9c0.2-2.9-0.7-5.7-2.5-7.9
				c-1.9-2.2-4.5-3.5-7.3-3.8C628.2,295.6,627.9,295.6,627.6,295.6z"/>
		</g>
	</g>
	<g>
		<g>
			<path fill="#1E7A85" d="M495,204.1c-1.5,0-2.9-0.4-4.1-1.1c-6-3.9-4.9-15.9,2.5-27.4c5.7-8.9,13.6-14.9,19.7-14.9
				c1.5,0,2.9,0.4,4.1,1.1c6,3.8,4.9,15.9-2.5,27.4C509,198.1,501.1,204.1,495,204.1z M513.1,162.6c-5.4,0-12.9,5.8-18.2,14
				c-6.6,10.3-8,21.7-3.1,24.9c0.9,0.6,1.9,0.8,3.1,0.8c5.4,0,12.9-5.8,18.2-14c6.6-10.3,8-21.7,3.1-24.9
				C515.4,162.9,514.3,162.6,513.1,162.6z"/>
		</g>
		<g>
			<path fill="#1E7A85" d="M504.3,194.7c-2.6,0-5.1-0.8-7.2-2.3c-2.8-1.9-4.7-4.8-5.3-8.1c-0.6-3.3,0.1-6.7,2.1-9.5
				c2.4-3.4,6.2-5.4,10.4-5.4c2.6,0,5.1,0.8,7.2,2.2c2.8,1.9,4.6,4.8,5.2,8.1c0.6,3.3-0.1,6.7-2.1,9.5
				C512.4,192.6,508.5,194.7,504.3,194.7z M504.3,171.2c-3.6,0-6.9,1.7-8.9,4.7c-1.7,2.4-2.3,5.2-1.8,8.1s2.1,5.3,4.5,7
				c1.8,1.3,3.9,1.9,6.2,1.9c3.6,0,6.9-1.7,8.9-4.7c1.7-2.4,2.3-5.3,1.8-8.1c-0.5-2.8-2.1-5.3-4.5-7
				C508.7,171.9,506.6,171.2,504.3,171.2z"/>
		</g>
	</g>
	<g>
		<g>
			<path fill="#1E7A85" d="M388,368.9c-0.3,0-0.5,0-0.8,0c-3.5-0.4-6.4-3.4-8.2-8.4c-1.7-4.8-2.3-10.9-1.6-17.3
				c1.5-13.5,8.2-23.6,15.3-22.8c7,0.8,11.4,12.1,9.8,25.7C401.1,358.8,394.7,368.9,388,368.9z M391.9,322.1
				c-5.7,0-11.4,9.5-12.7,21.2c-0.7,6.1-0.2,11.9,1.5,16.5c1.6,4.3,4,6.9,6.7,7.2c0.2,0,0.4,0,0.6,0c5.7,0,11.4-9.5,12.7-21.2
				c1.4-12.2-2.4-23-8.2-23.6C392.3,322.2,392.1,322.1,391.9,322.1z"/>
		</g>
		<g>
			<path fill="#1E7A85" d="M389.9,357.8c-0.6,0-1.3,0-1.9-0.1c-3.3-0.5-6.3-2.3-8.3-5c-2-2.7-2.8-6.1-2.3-9.4
				c0.9-6.1,6.3-10.8,12.5-10.8c0.6,0,1.3,0,1.9,0.1c3.3,0.5,6.3,2.3,8.3,5c2,2.7,2.8,6.1,2.3,9.4
				C401.5,353.1,396.1,357.8,389.9,357.8z M389.9,334.3c-5.3,0-9.9,4-10.7,9.2c-0.4,2.9,0.3,5.7,2,8c1.7,2.3,4.2,3.9,7.1,4.3
				c0.5,0.1,1.1,0.1,1.6,0.1c5.3,0,9.9-4,10.7-9.2c0.4-2.9-0.3-5.7-2-8c-1.7-2.3-4.3-3.9-7.1-4.3C391,334.3,390.4,334.3,389.9,334.3
				z"/>
		</g>
	</g>
	<g>
		<g>
			<path fill="#1E7A85" d="M828.6,661.2c-6.4,0-13.6-8.4-17.1-20c-3.9-13.1-1.7-24.9,5.1-27c0.7-0.2,1.3-0.3,2-0.3
				c6.4,0,13.6,8.4,17.1,20c1.8,6.1,2.4,12.3,1.5,17.3c-0.9,5.2-3.3,8.7-6.6,9.7C830,661.1,829.3,661.2,828.6,661.2z M818.6,615.7
				c-0.5,0-1,0.1-1.5,0.2c-5.6,1.7-7.4,13-3.9,24.7c3.2,10.7,9.8,18.7,15.4,18.7c0.5,0,1-0.1,1.5-0.2c2.7-0.8,4.5-3.7,5.3-8.3
				c0.8-4.8,0.3-10.6-1.5-16.5C830.8,623.7,824.2,615.7,818.6,615.7z"/>
		</g>
		<g>
			<path fill="#1E7A85" d="M823.7,650.7c-5.8,0-10.8-3.9-12.2-9.5c-0.9-3.3-0.4-6.7,1.3-9.6c1.7-2.9,4.5-5,7.7-5.8
				c1.1-0.3,2.1-0.4,3.2-0.4c5.7,0,10.8,3.9,12.2,9.5c0.9,3.3,0.4,6.7-1.3,9.6c-1.7,2.9-4.5,5-7.7,5.8
				C825.9,650.5,824.8,650.7,823.7,650.7z M823.8,627.2c-0.9,0-1.9,0.1-2.8,0.4c-2.8,0.7-5.1,2.5-6.6,5c-1.5,2.5-1.9,5.4-1.1,8.2
				c1.2,4.8,5.5,8.1,10.5,8.1c0.9,0,1.8-0.1,2.7-0.4c2.8-0.7,5.1-2.5,6.6-5c1.5-2.5,1.9-5.4,1.1-8.2
				C833,630.5,828.7,627.2,823.8,627.2z"/>
		</g>
	</g>
	<g>
		<g>
			<path fill="#1E7A85" d="M638.8,504.1c-1.7,0-3.5-0.1-5.3-0.3c-9.1-1-17.1-4.5-20.8-9.2c-1.6-2-2.3-4.1-2-6.2
				c0.7-6,9-10.1,20.3-10.1c1.7,0,3.5,0.1,5.3,0.3c6.4,0.7,12.2,2.6,16.5,5.4c4.5,2.9,6.7,6.4,6.3,9.9
				C658.5,500,650.1,504.1,638.8,504.1z M631,480.2c-10.2,0-18,3.6-18.5,8.5c-0.2,1.6,0.4,3.2,1.7,4.8c3.3,4.2,11,7.5,19.5,8.5
				c1.7,0.2,3.4,0.3,5.1,0.3c10.2,0,18-3.6,18.5-8.5c0.3-2.8-1.6-5.7-5.5-8.2c-4-2.6-9.6-4.4-15.7-5.1
				C634.4,480.3,632.7,480.2,631,480.2z"/>
		</g>
		<g>
			<path fill="#1E7A85" d="M634.4,503.9c-0.6,0-1.3,0-1.9-0.1c-6.9-1-11.7-7.5-10.6-14.4c0.9-6.1,6.3-10.8,12.5-10.8
				c0.6,0,1.3,0,1.9,0.1c3.3,0.5,6.3,2.3,8.3,5c2,2.7,2.8,6.1,2.3,9.4C646,499.2,640.6,503.9,634.4,503.9z M634.4,480.4
				c-5.3,0-9.9,4-10.7,9.2c-0.9,5.9,3.2,11.4,9.1,12.3c0.5,0.1,1.1,0.1,1.6,0.1c5.3,0,9.9-4,10.7-9.2c0.4-2.9-0.3-5.7-2-8.1
				c-1.7-2.3-4.2-3.8-7.1-4.3C635.5,480.4,634.9,480.4,634.4,480.4z"/>
		</g>
	</g>
	<g>
		<g>
			<path fill="#1E7A85" d="M470,357.3c-1.7,0-3.5-0.1-5.3-0.3c-13.6-1.5-23.6-8.3-22.8-15.3c0.7-6,9.1-10.1,20.4-10.1
				c1.7,0,3.5,0.1,5.3,0.3c6.4,0.7,12.2,2.6,16.5,5.4c4.5,2.9,6.7,6.4,6.3,9.9C489.7,353.1,481.3,357.3,470,357.3z M462.3,333.4
				c-10.2,0-18,3.6-18.6,8.5c-0.7,5.8,9.1,11.9,21.2,13.3c1.7,0.2,3.4,0.3,5.1,0.3c10.2,0,18-3.6,18.5-8.5c0.3-2.8-1.6-5.7-5.5-8.2
				c-4-2.6-9.6-4.5-15.7-5.1C465.7,333.5,464,333.4,462.3,333.4z"/>
		</g>
		<g>
			<path fill="#1E7A85" d="M465.7,357c-0.6,0-1.3,0-1.9-0.1c-6.9-1-11.7-7.5-10.6-14.4c0.9-6.1,6.3-10.8,12.5-10.8
				c0.6,0,1.3,0,1.9,0.1c3.3,0.5,6.3,2.3,8.3,5c2,2.7,2.8,6.1,2.3,9.4C477.3,352.4,471.9,357,465.7,357z M465.6,333.5
				c-5.3,0-9.9,4-10.7,9.2c-0.9,5.9,3.2,11.4,9.1,12.3c0.5,0.1,1.1,0.1,1.6,0.1c5.3,0,9.9-4,10.7-9.2c0.4-2.9-0.3-5.7-2-8
				c-1.7-2.3-4.2-3.8-7.1-4.3C466.7,333.6,466.2,333.5,465.6,333.5z"/>
		</g>
	</g>
	<g>
		<g>
			<path fill="#1E7A85" d="M1333.7,666.6c-5.1,0-8.8-1.7-10.4-4.7c-3.2-6.3,3.7-16.2,15.9-22.4c5.8-3,11.9-4.7,17.1-4.7
				c5.1,0,8.8,1.7,10.4,4.7c3.3,6.3-3.7,16.2-15.9,22.5C1344.9,664.9,1338.9,666.6,1333.7,666.6z M1356.2,636.5
				c-4.9,0-10.6,1.6-16.2,4.5c-10.9,5.6-17.8,14.8-15.1,20c1.2,2.4,4.4,3.7,8.8,3.7c4.9,0,10.6-1.6,16.2-4.5
				c10.9-5.6,17.8-14.8,15.1-20C1363.8,637.9,1360.6,636.5,1356.2,636.5z"/>
		</g>
		<g>
			<path fill="#1E7A85" d="M1345.4,663.1c-4.9,0-9.4-2.8-11.5-7.3c-1.4-3.1-1.6-6.5-0.5-9.7c1.1-3.2,3.5-5.7,6.5-7.2
				c1.7-0.8,3.5-1.2,5.4-1.2c4.9,0,9.4,2.8,11.5,7.3c3,6.3,0.2,13.9-6.1,16.9C1349.1,662.7,1347.3,663.1,1345.4,663.1z
				 M1345.4,639.6c-1.6,0-3.2,0.3-4.6,1c-2.6,1.2-4.6,3.4-5.6,6.1c-1,2.7-0.8,5.7,0.4,8.3c1.8,3.8,5.6,6.2,9.8,6.2
				c1.6,0,3.1-0.3,4.6-1c5.4-2.6,7.7-9,5.2-14.4C1353.4,642,1349.6,639.6,1345.4,639.6z"/>
		</g>
	</g>
	<g>
		<g>
			<path fill="#1E7A85" d="M1388.1,942.9c-0.1,0-0.2,0-0.3,0c-2.1-0.1-4.1-1.1-5.8-3c-4-4.4-6.2-12.8-5.8-21.9
				c0.6-13.5,6.7-24.1,13.8-23.8c2.1,0.1,4,1.1,5.7,3c4,4.4,6.2,12.8,5.8,22C1400.9,932.5,1395,942.9,1388.1,942.9z M1389.7,896
				c-5.8,0-11.1,9.9-11.6,22c-0.4,8.6,1.7,16.7,5.3,20.6c1.4,1.5,2.9,2.3,4.5,2.4c0.1,0,0.2,0,0.2,0c5.8,0,11.1-9.9,11.6-22
				c0.4-8.6-1.7-16.7-5.3-20.6c-1.4-1.5-2.9-2.3-4.5-2.4C1389.8,896,1389.8,896,1389.7,896z"/>
		</g>
		<g>
			<path fill="#1E7A85" d="M1388.9,930.7c-0.3,0-0.7,0-1.1,0c-3.4-0.3-6.4-1.8-8.6-4.4c-2.2-2.6-3.2-5.9-3-9.2
				c0.6-6.9,6.7-12.1,13.7-11.6c7,0.6,12.1,6.7,11.6,13.7C1401,925.6,1395.5,930.7,1388.9,930.7z M1388.9,907.2
				c-5.6,0-10.3,4.4-10.8,9.9c-0.2,2.9,0.7,5.7,2.5,7.9c1.9,2.2,4.5,3.6,7.4,3.8c6,0.5,11.2-4,11.7-9.9c0.5-5.9-3.9-11.2-9.9-11.7
				C1389.5,907.2,1389.2,907.2,1388.9,907.2z"/>
		</g>
	</g>
	<g>
		<g>
			<path fill="#1E7A85" d="M963.6,769.7c-5.5,0-12.2-2.3-18.5-6.3c-7.7-5-13.3-11.6-14.6-17.4c-0.5-2.5-0.2-4.7,0.9-6.4
				c1.6-2.5,4.7-3.8,8.8-3.8c5.5,0,12.3,2.3,18.5,6.3c5.4,3.5,9.8,7.8,12.4,12.1c2.7,4.6,3.2,8.7,1.3,11.7
				C970.8,768.4,967.8,769.7,963.6,769.7z M940.2,737.5c-2.5,0-5.7,0.5-7.3,3c-0.9,1.3-1.1,3-0.6,5.1c1.1,5.2,6.6,11.6,13.8,16.2
				c6,3.8,12.4,6,17.5,6c2.5,0,5.7-0.5,7.3-3c1.5-2.3,1-5.8-1.3-9.7c-2.5-4.1-6.7-8.2-11.8-11.5
				C951.8,739.7,945.4,737.5,940.2,737.5z"/>
		</g>
		<g>
			<path fill="#1E7A85" d="M951.5,765.1c-2.6,0-5.1-0.8-7.2-2.3c-5.7-4-7.2-11.9-3.2-17.6c2.4-3.4,6.3-5.4,10.4-5.4
				c2.6,0,5.1,0.8,7.2,2.3c2.8,1.9,4.6,4.8,5.2,8.1c0.6,3.3-0.1,6.7-2.1,9.5C959.5,763,955.7,765.1,951.5,765.1z M951.5,741.6
				c-3.6,0-6.9,1.7-8.9,4.7c-3.4,4.9-2.2,11.7,2.7,15.1c1.8,1.3,4,1.9,6.2,1.9c3.6,0,6.9-1.7,8.9-4.7c1.7-2.4,2.3-5.2,1.8-8.1
				c-0.5-2.8-2.1-5.3-4.5-7C955.9,742.3,953.7,741.6,951.5,741.6z"/>
		</g>
	</g>
	<g>
		<g>
			<path fill="#1E7A85" d="M897.3,964.3c-5.2,0-8.8-1.7-10.4-4.7c-3.3-6.3,3.7-16.2,15.9-22.4c5.8-3,11.9-4.7,17.1-4.7
				c5.1,0,8.8,1.7,10.4,4.7c0.9,1.8,1,4.1,0.3,6.5c-1.8,5.6-8,11.7-16.1,16C908.5,962.7,902.4,964.3,897.3,964.3z M919.8,934.3
				c-4.9,0-10.6,1.6-16.2,4.5c-10.9,5.6-17.8,14.8-15.1,20c1.2,2.4,4.4,3.7,8.8,3.7c4.9,0,10.7-1.6,16.2-4.5
				c7.6-3.9,13.6-9.8,15.2-14.9c0.6-2,0.6-3.7-0.2-5.1C927.3,935.6,924.2,934.3,919.8,934.3z"/>
		</g>
		<g>
			<path fill="#1E7A85" d="M908.1,961.3c-4.9,0-9.4-2.8-11.5-7.2c-3-6.3-0.3-13.9,6.1-16.9c1.7-0.8,3.5-1.2,5.4-1.2
				c4.9,0,9.4,2.8,11.5,7.3c1.4,3,1.6,6.5,0.5,9.7c-1.1,3.2-3.5,5.7-6.5,7.2C911.8,960.9,910,961.3,908.1,961.3z M908.1,937.8
				c-1.6,0-3.1,0.3-4.6,1c-5.4,2.6-7.7,9-5.2,14.4c1.8,3.8,5.6,6.2,9.8,6.2c1.6,0,3.1-0.3,4.6-1c2.6-1.2,4.6-3.4,5.6-6.2
				c1-2.7,0.8-5.7-0.4-8.3C916.1,940.2,912.2,937.8,908.1,937.8z"/>
		</g>
	</g>
	<g>
		<g>
			<path fill="#1E7A85" d="M823,931.2c-0.1,0-0.2,0-0.3,0c-7.1-0.3-12.2-11.3-11.5-25c0.6-13.5,6.7-24.1,13.8-23.8
				c2.1,0.1,4.1,1.1,5.8,3c4,4.4,6.2,12.8,5.7,21.9C835.8,920.8,829.9,931.2,823,931.2z M824.6,884.3c-5.9,0-11.1,9.9-11.6,22
				c-0.6,12.2,3.9,22.8,9.8,23.1c0.1,0,0.2,0,0.2,0c5.9,0,11.1-9.9,11.6-22.1c0.4-8.6-1.7-16.7-5.3-20.6c-1.4-1.5-2.9-2.3-4.5-2.4
				C824.8,884.3,824.7,884.3,824.6,884.3z"/>
		</g>
		<g>
			<path fill="#1E7A85" d="M823.8,920c-0.3,0-0.7,0-1,0c-7-0.6-12.1-6.7-11.6-13.7c0.6-6.9,6.7-12.1,13.6-11.5
				c3.4,0.3,6.4,1.8,8.6,4.4c2.2,2.6,3.2,5.9,3,9.2C835.9,914.9,830.3,920,823.8,920z M823.7,896.5c-5.6,0-10.3,4.4-10.7,9.9
				c-0.5,6,3.9,11.2,9.9,11.7c5.9,0.5,11.2-4,11.7-9.9c0.2-2.9-0.7-5.7-2.5-7.9c-1.9-2.2-4.5-3.5-7.4-3.8
				C824.3,896.5,824,896.5,823.7,896.5z"/>
		</g>
	</g>
	<g>
		<g>
			<path fill="#1E7A85" d="M950.8,852.5c-5.5,0-12.3-2.3-18.5-6.3c-11.5-7.4-17.5-17.8-13.7-23.8c1.6-2.5,4.7-3.8,8.9-3.8
				c5.5,0,12.3,2.3,18.5,6.3c11.5,7.4,17.5,17.9,13.7,23.8C958,851.2,955,852.5,950.8,852.5z M927.4,820.4c-2.5,0-5.7,0.5-7.3,3
				c-3.1,4.9,2.9,14.7,13.2,21.3c6,3.8,12.4,6,17.6,6c2.5,0,5.7-0.5,7.3-3c3.2-4.9-2.9-14.7-13.2-21.3
				C938.9,822.6,932.5,820.4,927.4,820.4z"/>
		</g>
		<g>
			<path fill="#1E7A85" d="M939.5,848.5c-2.6,0-5.1-0.8-7.2-2.3c-2.8-1.9-4.6-4.8-5.2-8.1c-0.6-3.3,0.1-6.7,2.1-9.5
				c2.4-3.4,6.2-5.5,10.4-5.5c2.6,0,5.1,0.8,7.2,2.3c2.8,1.9,4.6,4.8,5.2,8.1c0.6,3.3-0.1,6.7-2,9.5
				C947.5,846.4,943.6,848.5,939.5,848.5z M939.5,825c-3.6,0-6.9,1.7-8.9,4.7c-1.7,2.4-2.3,5.2-1.8,8.1c0.5,2.8,2.1,5.3,4.5,6.9
				c1.8,1.3,4,1.9,6.2,1.9c3.6,0,6.9-1.7,8.9-4.7c1.6-2.4,2.3-5.3,1.7-8.1c-0.5-2.8-2.1-5.3-4.5-7C943.8,825.7,941.7,825,939.5,825z
				"/>
		</g>
	</g>
	<g>
		<g>
			<path fill="#1E7A85" d="M602.4,435.1c-1.7,0-3.5-0.1-5.3-0.3c-9.1-1-17.1-4.5-20.8-9.2c-1.6-2-2.3-4.1-2.1-6.2
				c0.7-6,9-10.1,20.3-10.1c1.7,0,3.5,0.1,5.3,0.3c13.6,1.5,23.6,8.3,22.8,15.3C622.1,431,613.7,435.1,602.4,435.1z M594.6,411.2
				c-10.2,0-18,3.6-18.5,8.5c-0.2,1.6,0.4,3.2,1.7,4.8c3.3,4.2,11,7.5,19.5,8.5c1.7,0.2,3.4,0.3,5.1,0.3c10.2,0,18-3.6,18.5-8.5
				c0.7-5.8-9.1-11.9-21.2-13.3C598,411.3,596.3,411.2,594.6,411.2z"/>
		</g>
		<g>
			<path fill="#1E7A85" d="M598.1,434.9c-0.6,0-1.3,0-1.9-0.1c-6.9-1-11.7-7.5-10.6-14.4c0.9-6.1,6.3-10.8,12.5-10.8
				c0.6,0,1.3,0,1.9,0.1c3.3,0.5,6.3,2.3,8.3,5c2,2.7,2.8,6,2.3,9.4C609.6,430.2,604.3,434.9,598.1,434.9z M598,411.4
				c-5.3,0-9.9,4-10.7,9.2c-0.9,5.9,3.2,11.4,9.1,12.3c0.5,0.1,1.1,0.1,1.6,0.1c5.3,0,9.9-4,10.7-9.2c0.4-2.9-0.3-5.7-2-8
				c-1.7-2.3-4.2-3.8-7.1-4.3C599.1,411.4,598.6,411.4,598,411.4z"/>
		</g>
	</g>
	<g>
		<g>
			<path fill="#1E7A85" d="M345.9,743.4c-7.9,0-13.4-2.6-14.7-7c-1-3.4,0.6-7.2,4.5-10.9c3.7-3.5,9.1-6.4,15.3-8.3
				c4.2-1.2,8.4-1.9,12.3-1.9c7.9,0,13.4,2.6,14.7,7c2,6.8-6.6,15.2-19.7,19.1C354,742.7,349.8,743.4,345.9,743.4z M363.2,717.1
				c-3.7,0-7.8,0.6-11.8,1.8c-5.9,1.8-11,4.5-14.6,7.9c-3.3,3.2-4.8,6.3-4,9c1.1,3.5,6,5.7,13,5.7c3.7,0,7.8-0.6,11.8-1.8
				c11.7-3.5,20.2-11.2,18.5-16.9C375.1,719.3,370.1,717.1,363.2,717.1z"/>
		</g>
		<g>
			<path fill="#1E7A85" d="M354.1,742.1c-5.8,0-10.8-3.9-12.2-9.5c-1.8-6.8,2.3-13.7,9.1-15.4c1-0.3,2.1-0.4,3.2-0.4
				c5.8,0,10.8,3.9,12.2,9.5c0.9,3.3,0.4,6.7-1.3,9.6c-1.7,2.9-4.5,5-7.7,5.8C356.2,742,355.1,742.1,354.1,742.1z M354.1,718.6
				c-0.9,0-1.8,0.1-2.7,0.4c-5.8,1.5-9.3,7.4-7.8,13.2c1.2,4.8,5.5,8.1,10.5,8.1c0.9,0,1.8-0.1,2.7-0.4c2.8-0.7,5.1-2.5,6.6-5
				c1.5-2.5,1.9-5.4,1.1-8.2C363.3,722,359,718.6,354.1,718.6z"/>
		</g>
	</g>
	<g>
		<g>
			<path fill="#1E7A85" d="M434.6,439c-4.7,0-8.2-1.5-9.7-4.3c-1-1.8-1.2-4-0.5-6.5c1.6-5.7,7.5-12,15.5-16.6
				c6-3.4,12.4-5.3,17.7-5.3c4.7,0,8.2,1.5,9.7,4.3c1.7,3,1,7.2-1.9,11.6c-2.8,4.2-7.5,8.3-13.1,11.5
				C446.4,437.1,439.9,439,434.6,439z M457.6,408.1c-5,0-11.1,1.9-16.8,5.1c-7.5,4.2-13.2,10.3-14.6,15.5c-0.5,2-0.4,3.7,0.4,5.1
				c1.2,2.2,4.1,3.4,8.1,3.4c5,0,11.1-1.9,16.8-5.1c5.3-3,9.8-6.9,12.4-10.9c2.6-3.8,3.2-7.2,1.9-9.7
				C464.5,409.4,461.6,408.1,457.6,408.1z"/>
		</g>
		<g>
			<path fill="#1E7A85" d="M446.6,435.1c-4.7,0-9.1-2.6-11.2-6.8c-1.6-3-1.9-6.4-0.8-9.7c1-3.2,3.2-5.9,6.2-7.4
				c1.8-0.9,3.8-1.4,5.8-1.4c4.8,0,9.1,2.6,11.3,6.8c3.2,6.2,0.8,13.9-5.4,17.1C450.6,434.6,448.6,435.1,446.6,435.1z M446.5,411.6
				c-1.7,0-3.4,0.4-5,1.2c-2.6,1.3-4.5,3.6-5.3,6.3c-0.9,2.8-0.6,5.7,0.7,8.3c1.9,3.6,5.6,5.8,9.6,5.8c1.7,0,3.4-0.4,5-1.2
				c5.3-2.7,7.4-9.3,4.6-14.6C454.3,413.8,450.6,411.6,446.5,411.6z"/>
		</g>
	</g>
	<g>
		<g>
			<path fill="#1E7A85" d="M432.8,775.9c-0.3,0-0.5,0-0.8,0c-7-0.8-11.4-12.1-9.8-25.6c1.5-13.3,8.4-23.6,15.3-22.8
				c7,0.8,11.4,12.1,9.8,25.7C445.9,766.1,439.6,775.9,432.8,775.9z M436.7,729.2c-5.7,0-11.4,9.5-12.7,21.3
				c-1.4,12.1,2.4,23,8.2,23.6c5.9,0.7,11.9-9.1,13.3-21.2c1.4-12.2-2.4-23-8.2-23.7C437.1,729.2,436.9,729.2,436.7,729.2z"/>
		</g>
		<g>
			<path fill="#1E7A85" d="M434.8,763.8c-0.6,0-1.3,0-1.9-0.1c-3.3-0.5-6.3-2.3-8.3-5c-2-2.7-2.8-6.1-2.3-9.4
				c0.9-6.1,6.3-10.8,12.5-10.8c0.6,0,1.2,0,1.9,0.1c6.9,1.1,11.7,7.5,10.6,14.4C446.4,759.2,441,763.8,434.8,763.8z M434.8,740.3
				c-5.3,0-9.9,4-10.7,9.2c-0.4,2.9,0.3,5.7,2,8.1c1.7,2.3,4.2,3.8,7.1,4.3c0.5,0.1,1.1,0.1,1.6,0.1c5.3,0,9.9-4,10.7-9.2
				c0.9-5.9-3.2-11.4-9.1-12.3C435.9,740.3,435.4,740.3,434.8,740.3z"/>
		</g>
	</g>
	<g>
		<g>
			<path fill="#1E7A85" d="M1523.1,249.2c-0.3,0-0.6,0-0.9-0.1c-7-0.9-11.1-12.3-9.3-25.9c1.8-13.4,8.7-23.4,15.8-22.5
				c7,0.9,11.1,12.3,9.3,25.9C1536.2,239.5,1529.8,249.2,1523.1,249.2z M1527.7,202.6c-5.7,0-11.5,9.4-13,21
				c-1.6,12.1,1.9,23,7.7,23.8c0.2,0,0.5,0,0.7,0c5.7,0,11.5-9.2,13-21c1.6-12.1-1.9-23-7.8-23.8
				C1528.1,202.6,1527.9,202.6,1527.7,202.6z"/>
		</g>
		<g>
			<path fill="#1E7A85" d="M1525.5,237.1c-0.7,0-1.4-0.1-2.2-0.2c-3.3-0.6-6.2-2.4-8.2-5.2c-2-2.8-2.7-6.1-2.2-9.4
				c1-6.1,6.3-10.5,12.5-10.5c0.7,0,1.4,0.1,2.1,0.2c6.9,1.2,11.5,7.7,10.3,14.6C1536.9,232.7,1531.7,237.1,1525.5,237.1z
				 M1525.5,213.6c-5.3,0-9.8,3.8-10.7,9c-0.5,2.8,0.2,5.7,1.8,8.1c1.7,2.4,4.2,3.9,7,4.4c0.6,0.1,1.2,0.2,1.8,0.2
				c5.3,0,9.8-3.8,10.6-9c1-5.9-3-11.5-8.9-12.5C1526.7,213.7,1526.1,213.6,1525.5,213.6z"/>
		</g>
	</g>
	<g>
		<g>
			<path fill="#1E7A85" d="M1503.7,313.9c-5.7,0-13-3-19.4-8c-7.3-5.6-12.3-12.7-13-18.6c-0.3-2.5,0.2-4.7,1.4-6.3
				c1.6-2,4.2-3.1,7.6-3.1c5.7,0,13,3,19.4,8c10.8,8.3,15.9,19.3,11.6,24.9C1509.7,312.9,1507.1,313.9,1503.7,313.9z M1480.3,279.8
				c-2,0-4.6,0.4-6.1,2.4c-1,1.3-1.3,2.9-1.1,5c0.7,5.3,5.5,12.1,12.3,17.4c6.2,4.8,13,7.6,18.3,7.6c2,0,4.6-0.4,6.2-2.4
				c3.6-4.7-1.6-14.9-11.3-22.3C1492.4,282.6,1485.6,279.8,1480.3,279.8z"/>
		</g>
		<g>
			<path fill="#1E7A85" d="M1491.6,308.3c-2.9,0-5.8-1-8.1-2.9c-2.6-2.1-4.2-5.2-4.5-8.5c-0.3-3.4,0.7-6.7,2.9-9.3
				c2.4-2.9,6-4.6,9.8-4.6c2.9,0,5.8,1,8.1,2.9c2.6,2.1,4.2,5.2,4.5,8.6c0.3,3.4-0.7,6.7-2.9,9.3
				C1498.9,306.6,1495.4,308.3,1491.6,308.3z M1491.6,284.8c-3.2,0-6.3,1.4-8.4,3.9c-1.8,2.2-2.7,5-2.4,7.9c0.3,2.9,1.6,5.5,3.9,7.3
				c1.9,1.6,4.4,2.5,6.9,2.5c3.2,0,6.3-1.4,8.3-3.9c1.8-2.2,2.7-5,2.4-7.9c-0.3-2.9-1.6-5.5-3.9-7.3
				C1496.6,285.7,1494.1,284.8,1491.6,284.8z"/>
		</g>
	</g>
	<g>
		<g>
			<path fill="#1E7A85" d="M1413.3,884.2c-6.3,0-10.7-2.1-12.2-5.7c-0.8-1.9-0.7-4.1,0.3-6.5c2.3-5.4,9-11,17.5-14.5
				c5.1-2.1,10.5-3.3,15.2-3.3c6.3,0,10.7,2.1,12.2,5.7c2.7,6.6-5.1,15.8-17.7,21C1423.3,883.1,1417.9,884.2,1413.3,884.2z
				 M1434,856.1c-4.4,0-9.5,1.1-14.5,3.1c-7.9,3.3-14.4,8.6-16.5,13.5c-0.8,1.9-0.9,3.6-0.3,5.1c1.2,2.9,5,4.6,10.5,4.6
				c4.4,0,9.6-1.1,14.5-3.1c11.3-4.7,19-13.2,16.7-18.6C1443.3,857.8,1439.4,856.1,1434,856.1z"/>
		</g>
		<g>
			<path fill="#1E7A85" d="M1423.2,882.1c-5.3,0-10-3.3-11.9-8.3c-2.4-6.6,0.9-13.8,7.5-16.3c1.4-0.5,2.9-0.8,4.4-0.8
				c5.3,0,10,3.3,11.9,8.3c1.2,3.2,1,6.6-0.4,9.7c-1.4,3.1-3.9,5.4-7.1,6.6C1426.1,881.8,1424.7,882.1,1423.2,882.1z M1423.2,858.6
				c-1.3,0-2.5,0.2-3.8,0.7c-5.6,2.1-8.5,8.3-6.4,13.9c1.6,4.2,5.7,7.1,10.2,7.1c1.3,0,2.5-0.2,3.7-0.7c2.7-1,4.9-3,6.1-5.6
				c1.2-2.6,1.3-5.6,0.3-8.3C1431.7,861.5,1427.7,858.6,1423.2,858.6z"/>
		</g>
	</g>
	<g>
		<g>
			<path fill="#1E7A85" d="M1490.6,942.8c-0.3,0-0.6,0-0.9-0.1c-3.5-0.5-6.3-3.5-8.1-8.5c-1.7-4.8-2.1-11-1.2-17.3
				c1.8-13.4,8.7-23.5,15.8-22.5c2,0.3,3.9,1.5,5.5,3.5c3.6,4.7,5.1,13.3,3.8,22.4C1503.7,933.1,1497.3,942.8,1490.6,942.8z
				 M1495.2,896.2c-5.8,0-11.5,9.2-13,21c-0.8,6.1-0.4,11.9,1.2,16.5c1.5,4.3,3.8,6.9,6.6,7.3c0.2,0,0.5,0,0.7,0
				c5.6,0,11.5-9.4,13-21c1.1-8.5-0.2-16.8-3.5-21c-1.3-1.6-2.7-2.6-4.3-2.8C1495.7,896.2,1495.4,896.2,1495.2,896.2z"/>
		</g>
		<g>
			<path fill="#1E7A85" d="M1492.8,931.7c-0.7,0-1.4-0.1-2.1-0.2c-6.9-1.2-11.5-7.7-10.4-14.6c1-6.1,6.3-10.5,12.4-10.5
				c0.7,0,1.4,0.1,2.2,0.2c3.3,0.6,6.2,2.4,8.2,5.1c2,2.8,2.7,6.1,2.2,9.5C1504.3,927.3,1499,931.7,1492.8,931.7z M1492.8,908.2
				c-5.3,0-9.8,3.8-10.6,9c-1,5.9,3,11.5,8.9,12.5c0.6,0.1,1.2,0.2,1.8,0.2c5.3,0,9.8-3.8,10.7-9c0.5-2.9-0.2-5.7-1.8-8.1
				c-1.7-2.4-4.2-3.9-7-4.4C1494,908.3,1493.4,908.2,1492.8,908.2z"/>
		</g>
	</g>
	<g>
		<g>
			<path fill="#1E7A85" d="M1582.5,486.3c-5.7,0-13-3-19.5-8c-7.3-5.6-12.3-12.7-13-18.6c-0.3-2.5,0.2-4.7,1.4-6.3
				c1.6-2,4.2-3.1,7.6-3.1c5.7,0,13,3,19.4,8c7.3,5.6,12.3,12.7,13,18.6c0.3,2.5-0.2,4.7-1.4,6.3
				C1588.6,485.2,1586,486.3,1582.5,486.3z M1559.1,452.1c-2,0-4.6,0.4-6.2,2.4c-1,1.3-1.3,2.9-1.1,5c0.7,5.3,5.5,12.1,12.3,17.3
				c6.2,4.8,13,7.6,18.3,7.6c2,0,4.6-0.4,6.2-2.4c1-1.3,1.3-2.9,1.1-5c-0.7-5.3-5.5-12.1-12.4-17.4
				C1571.3,454.9,1564.4,452.1,1559.1,452.1z"/>
		</g>
		<g>
			<path fill="#1E7A85" d="M1571.2,481.2c-2.9,0-5.8-1-8.1-2.9c-2.6-2.2-4.2-5.2-4.5-8.6c-0.3-3.4,0.7-6.6,2.9-9.2
				c2.4-2.9,5.9-4.6,9.7-4.6c2.9,0,5.8,1,8.1,2.9c2.6,2.1,4.2,5.2,4.5,8.5c0.3,3.4-0.7,6.7-2.9,9.3
				C1578.5,479.6,1575,481.2,1571.2,481.2z M1571.2,457.8c-3.2,0-6.3,1.4-8.3,3.9c-1.9,2.2-2.7,5-2.5,7.9c0.3,2.9,1.6,5.5,3.9,7.3
				c1.9,1.6,4.4,2.5,6.9,2.5c3.2,0,6.3-1.4,8.3-3.9c1.8-2.2,2.7-5,2.4-7.9c-0.3-2.9-1.6-5.5-3.9-7.3
				C1576.2,458.6,1573.7,457.8,1571.2,457.8z"/>
		</g>
	</g>
	<g>
		<g>
			<path fill="#1E7A85" d="M1291,623c-6.3,0-10.7-2.1-12.2-5.7c-2.7-6.6,5.1-15.8,17.7-21c5.1-2.1,10.5-3.3,15.2-3.3
				c6.3,0,10.7,2.1,12.2,5.7c2.7,6.6-5.1,15.8-17.8,21C1301,621.9,1295.6,623,1291,623z M1311.7,594.9c-4.4,0-9.6,1.1-14.5,3.1
				c-11.3,4.7-19,13.2-16.7,18.6c1.2,2.9,5,4.5,10.5,4.5c4.4,0,9.6-1.1,14.5-3.1c11.3-4.7,19-13.2,16.8-18.6
				C1321,596.6,1317.2,594.9,1311.7,594.9z"/>
		</g>
		<g>
			<path fill="#1E7A85" d="M1301.8,620.5c-5.3,0-10-3.3-11.9-8.3c-1.2-3.2-1.1-6.6,0.3-9.7c1.4-3.1,3.9-5.4,7.1-6.6
				c1.4-0.5,2.9-0.8,4.4-0.8c5.3,0,10,3.3,11.9,8.3c2.4,6.5-0.9,13.8-7.5,16.3C1304.8,620.3,1303.3,620.5,1301.8,620.5z M1301.8,597
				c-1.3,0-2.5,0.2-3.8,0.7c-2.7,1-4.9,3-6.1,5.6c-1.2,2.6-1.3,5.6-0.3,8.3c1.6,4.2,5.6,7.1,10.1,7.1c1.3,0,2.5-0.2,3.7-0.7
				c5.6-2.1,8.5-8.3,6.4-13.9C1310.4,599.9,1306.3,597,1301.8,597z"/>
		</g>
	</g>
	<g>
		<g>
			<path fill="#1E7A85" d="M605.4,668.9c-2.2,0-4.1-0.6-5.5-1.9c-2.6-2.3-3.3-6.4-2-11.6c1.3-4.9,4.4-10.3,8.6-15.1
				c6.3-7.2,14.2-11.8,20.2-11.8c2.2,0,4.1,0.6,5.5,1.9c5.3,4.7,2.4,16.4-6.6,26.7C619.2,664.3,611.3,668.9,605.4,668.9z
				 M626.7,630.4c-5.4,0-12.8,4.4-18.8,11.2c-4.1,4.6-7,9.7-8.2,14.4c-1.2,4.4-0.7,7.9,1.4,9.7c1.1,0.9,2.5,1.4,4.3,1.4
				c5.4,0,12.8-4.4,18.8-11.2c8.1-9.2,11.2-20.2,6.8-24.1C629.9,630.9,628.5,630.4,626.7,630.4z"/>
		</g>
		<g>
			<path fill="#1E7A85" d="M615.7,661.8c-3.3,0-6.3-1.2-8.7-3.5c-5.1-4.8-5.3-12.9-0.5-17.9c2.4-2.5,5.7-3.9,9.2-3.9
				c3.3,0,6.3,1.2,8.7,3.5c2.5,2.3,3.9,5.5,3.9,8.8c0.1,3.4-1.1,6.6-3.5,9C622.5,660.4,619.2,661.8,615.7,661.8z M615.7,638.3
				c-3,0-5.8,1.2-7.9,3.4c-4.1,4.3-3.9,11.2,0.4,15.3c2,1.9,4.7,3,7.4,3c3,0,5.8-1.2,7.9-3.4c2-2.1,3-4.8,3-7.7
				c-0.1-2.9-1.3-5.6-3.4-7.6C621.1,639.3,618.5,638.3,615.7,638.3z"/>
		</g>
	</g>
	<g>
		<g>
			<path fill="#1E7A85" d="M935.7,647.4c-0.8,0-1.5-0.1-2.2-0.3c-3.3-1.1-5.6-4.6-6.4-9.9c-0.7-5,0-11.2,2-17.3
				c3.7-11.3,11.1-19.5,17.4-19.5c0.8,0,1.5,0.1,2.2,0.4c6.7,2.2,8.7,14.1,4.4,27.1C949.4,639.2,942,647.4,935.7,647.4z
				 M946.5,602.2c-5.5,0-12.3,7.9-15.7,18.3c-1.9,5.8-2.6,11.7-1.9,16.4c0.7,4.5,2.5,7.5,5.1,8.4c0.5,0.2,1.1,0.3,1.6,0.3
				c5.5,0,12.3-7.9,15.7-18.3c3.8-11.6,2.4-23-3.2-24.8C947.6,602.3,947.1,602.2,946.5,602.2z"/>
		</g>
		<g>
			<path fill="#1E7A85" d="M940.9,637c-1.5,0-3-0.3-4.4-0.8c-6.5-2.4-9.9-9.7-7.5-16.3c1.8-4.9,6.6-8.3,11.8-8.3
				c1.5,0,3,0.3,4.4,0.8c3.2,1.2,5.7,3.5,7.1,6.6c1.4,3.1,1.5,6.5,0.4,9.7C951,633.7,946.2,637,940.9,637z M940.9,613.5
				c-4.5,0-8.6,2.8-10.1,7.1c-2.1,5.6,0.8,11.8,6.4,13.9c1.2,0.4,2.5,0.7,3.8,0.7c4.5,0,8.6-2.8,10.2-7.1c1-2.7,0.9-5.7-0.3-8.3
				c-1.2-2.6-3.4-4.6-6.1-5.6C943.5,613.8,942.2,613.5,940.9,613.5z"/>
		</g>
	</g>
	<g>
		<g>
			<path fill="#1E7A85" d="M887.9,599.5c-5.8,0-13.4-3.6-19.9-9.3c-4.8-4.2-8.5-9.2-10.4-13.9c-2-4.9-1.8-9.1,0.5-11.7
				c1.5-1.7,3.9-2.6,6.8-2.6c5.8,0,13.4,3.6,19.9,9.3c4.8,4.2,8.5,9.2,10.4,13.9c2,4.9,1.8,9.1-0.5,11.7
				C893.2,598.6,890.9,599.5,887.9,599.5z M864.9,563.8c-2.4,0-4.3,0.7-5.4,2c-1.8,2.1-1.9,5.6-0.2,9.8c1.8,4.5,5.3,9.2,9.9,13.2
				c6.2,5.4,13.3,8.8,18.7,8.8c2.4,0,4.3-0.7,5.4-2c1.8-2.1,1.9-5.6,0.2-9.8c-1.8-4.5-5.3-9.2-9.9-13.2
				C877.4,567.2,870.3,563.8,864.9,563.8z"/>
		</g>
		<g>
			<path fill="#1E7A85" d="M876.1,593.1c-3.3,0-6.3-1.2-8.7-3.5c-5.1-4.8-5.3-12.8-0.5-17.9c2.4-2.5,5.7-3.9,9.2-3.9
				c3.3,0,6.4,1.2,8.7,3.5c2.4,2.3,3.8,5.4,3.9,8.8c0.1,3.4-1.1,6.6-3.5,9.1C882.9,591.6,879.5,593.1,876.1,593.1z M876.1,569.6
				c-3,0-5.8,1.2-7.9,3.4c-4.1,4.3-3.9,11.2,0.4,15.3c2,1.9,4.7,3,7.4,3c3,0,5.8-1.2,7.9-3.4c2-2.1,3.1-4.9,3-7.8
				c-0.1-2.9-1.3-5.6-3.4-7.5C881.5,570.7,878.9,569.6,876.1,569.6z"/>
		</g>
	</g>
	<g>
		<g>
			<path fill="#1E7A85" d="M674.6,836.1c-5.8,0-13.4-3.6-19.9-9.3c-10.3-9-14.6-20.3-9.9-25.6c1.5-1.7,3.9-2.6,6.8-2.6
				c5.8,0,13.4,3.6,19.9,9.3c4.8,4.2,8.5,9.2,10.4,13.9c2,4.9,1.8,9.1-0.5,11.7C679.8,835.2,677.5,836.1,674.6,836.1z M651.6,800.4
				c-2.4,0-4.3,0.7-5.4,2c-3.9,4.4,0.6,15,9.8,23.1c6.2,5.4,13.3,8.8,18.7,8.8c2.4,0,4.3-0.7,5.4-2c1.8-2.1,1.9-5.6,0.2-9.8
				c-1.8-4.5-5.3-9.2-9.9-13.2C664.1,803.8,656.9,800.4,651.6,800.4z"/>
		</g>
		<g>
			<path fill="#1E7A85" d="M662.7,829.7c-3.3,0-6.3-1.2-8.7-3.5c-5.1-4.8-5.3-12.8-0.5-17.9c2.4-2.5,5.7-3.9,9.2-3.9
				c3.3,0,6.4,1.2,8.7,3.5c2.4,2.3,3.8,5.5,3.9,8.8c0.1,3.4-1.1,6.6-3.5,9C669.5,828.3,666.2,829.7,662.7,829.7z M662.7,806.2
				c-3,0-5.8,1.2-7.9,3.4c-4.1,4.3-3.9,11.2,0.4,15.3c2,1.9,4.7,3,7.5,3c3,0,5.8-1.2,7.9-3.4c2-2.1,3.1-4.8,3-7.7
				c-0.1-2.9-1.3-5.6-3.4-7.6C668.1,807.2,665.5,806.2,662.7,806.2z"/>
		</g>
	</g>
	<g>
		<g>
			<path fill="#1E7A85" d="M1162.1,481.6c-6.1,0-13.9-5.4-19.9-13.8c-3.7-5.2-6.2-10.9-7-15.9c-0.8-5.3,0.3-9.3,3.1-11.3
				c1.3-0.9,2.8-1.4,4.5-1.4c6,0,14,5.6,19.9,13.8c3.7,5.2,6.2,10.9,7,15.9c0.8,5.3-0.3,9.3-3.1,11.3
				C1165.4,481.1,1163.9,481.6,1162.1,481.6z M1142.8,441c-1.4,0-2.5,0.3-3.5,1c-2.3,1.6-3.1,5-2.4,9.5c0.8,4.8,3.1,10.1,6.7,15.1
				c5.6,7.8,13,13.1,18.5,13.1c1.4,0,2.5-0.3,3.5-1c2.3-1.6,3.1-5,2.4-9.5c-0.8-4.8-3.1-10.1-6.7-15.1
				C1155.7,446.3,1148.3,441,1142.8,441z"/>
		</g>
		<g>
			<path fill="#1E7A85" d="M1152.8,473.4c-4.3,0-8.2-2.1-10.6-5.7c-1.9-2.8-2.5-6.2-1.9-9.5c0.7-3.3,2.6-6.2,5.4-8
				c2.1-1.4,4.5-2.1,7-2.1c4.3,0,8.2,2.1,10.6,5.7c3.9,5.8,2.3,13.7-3.5,17.6C1157.7,472.7,1155.3,473.4,1152.8,473.4z M1152.8,450
				c-2.1,0-4.2,0.6-6,1.8c-2.4,1.6-4.1,4-4.6,6.9c-0.6,2.8,0,5.7,1.6,8.1c2,3,5.4,4.8,9.1,4.8c2.1,0,4.2-0.6,6-1.8
				c5-3.3,6.3-10,3-15C1159.8,451.8,1156.4,450,1152.8,450z"/>
		</g>
	</g>
	<g>
		<g>
			<path fill="#1E7A85" d="M1218.8,548.2c-11.7,0-20.2-4.3-20.8-10.4c-0.3-3.5,1.9-7,6.4-9.8c4.3-2.7,10.2-4.6,16.6-5.2
				c1.6-0.2,3.1-0.2,4.7-0.2c11.7,0,20.3,4.3,20.9,10.4c0.2,2-0.5,4.2-2.1,6.1c-3.7,4.6-11.8,8-20.9,8.9
				C1221.9,548.1,1220.3,548.2,1218.8,548.2z M1225.6,524.4c-1.5,0-3,0.1-4.5,0.2c-6.1,0.6-11.7,2.3-15.8,4.9
				c-3.9,2.4-5.9,5.3-5.6,8.1c0.5,5.1,8.5,8.8,19,8.8c1.5,0,3-0.1,4.5-0.2c8.6-0.8,16.3-4.1,19.7-8.2c1.3-1.6,1.9-3.2,1.7-4.8
				C1244.2,528.2,1236,524.4,1225.6,524.4z"/>
		</g>
		<g>
			<path fill="#1E7A85" d="M1222.7,548c-6.7,0-12.2-5.2-12.6-11.9c-0.2-3.4,0.9-6.6,3.1-9.2c2.2-2.5,5.3-4,8.7-4.3
				c0.3,0,0.5,0,0.8,0c6.7,0,12.2,5.2,12.6,11.9c0.4,7-4.9,13-11.9,13.4C1223.2,548,1223,548,1222.7,548z M1222.7,524.5
				c-0.2,0-0.5,0-0.7,0c-2.9,0.2-5.5,1.5-7.4,3.6s-2.9,5-2.7,7.8c0.4,5.9,5.5,10.5,11.5,10.1c6-0.4,10.5-5.5,10.2-11.5
				C1233.2,529,1228.4,524.5,1222.7,524.5z"/>
		</g>
	</g>
	<g>
		<g>
			<path fill="#1E7A85" d="M1486.2,532.2c-1.1,0-2.1-0.2-3-0.6c-6.5-2.9-7.1-15-1.5-27.4c4.7-10.4,12.3-17.6,18.6-17.6
				c1.1,0,2.1,0.2,3,0.6c1.9,0.9,3.3,2.6,4.2,4.9c2.1,5.5,1,14.2-2.8,22.5C1500.1,524.9,1492.5,532.2,1486.2,532.2z M1500.4,488.3
				c-5.5,0-12.6,7-16.9,16.6c-5,11.1-4.8,22.6,0.6,25c0.7,0.3,1.4,0.5,2.2,0.5c5.5,0,12.6-7,16.9-16.6c3.5-7.8,4.6-16.1,2.7-21.1
				c-0.7-1.9-1.8-3.2-3.3-3.9C1501.9,488.5,1501.2,488.3,1500.4,488.3z"/>
		</g>
		<g>
			<path fill="#1E7A85" d="M1493.5,521.5c-2,0-3.9-0.4-5.6-1.3c-3-1.5-5.3-4.1-6.4-7.3c-1.1-3.2-0.8-6.6,0.7-9.7
				c2.2-4.3,6.5-7,11.3-7c2,0,3.8,0.4,5.6,1.3c6.2,3.1,8.8,10.7,5.7,17C1502.7,518.9,1498.3,521.5,1493.5,521.5z M1493.5,498.1
				c-4.1,0-7.9,2.3-9.7,6c-1.3,2.6-1.5,5.5-0.6,8.3c0.9,2.7,2.9,5,5.4,6.2c1.5,0.8,3.1,1.1,4.8,1.1c4.1,0,7.9-2.3,9.7-6
				c2.7-5.3,0.5-11.9-4.9-14.5C1496.8,498.4,1495.2,498.1,1493.5,498.1z"/>
		</g>
	</g>
	<g>
		<g>
			<path fill="#1E7A85" d="M1310.1,408.5c-6,0-14-5.6-19.9-13.8c-3.7-5.2-6.2-10.9-7-15.9c-0.8-5.3,0.3-9.3,3.1-11.3
				c1.3-0.9,2.8-1.4,4.5-1.4c6,0,14,5.6,19.9,13.8c5.4,7.5,8.1,15.7,7.1,21.5c-0.4,2.5-1.5,4.5-3.2,5.7
				C1313.4,408,1311.9,408.5,1310.1,408.5z M1290.8,367.9c-1.4,0-2.5,0.3-3.5,1c-2.3,1.6-3.1,5-2.4,9.5c0.8,4.8,3.1,10.1,6.7,15.1
				c5.6,7.8,13,13.1,18.5,13.1c1.4,0,2.5-0.3,3.5-1c1.3-0.9,2.1-2.4,2.5-4.5c0.9-5.3-1.8-13.2-6.8-20.2
				C1303.7,373.2,1296.3,367.9,1290.8,367.9z"/>
		</g>
		<g>
			<path fill="#1E7A85" d="M1300.2,399.6c-4.3,0-8.2-2.1-10.6-5.7c-3.9-5.8-2.3-13.7,3.5-17.5c2.1-1.4,4.5-2.1,7-2.1
				c4.3,0,8.2,2.1,10.6,5.7c1.9,2.8,2.5,6.2,1.8,9.5c-0.7,3.3-2.6,6.2-5.4,8C1305.1,398.8,1302.7,399.6,1300.2,399.6z M1300.2,376.1
				c-2.1,0-4.2,0.6-6,1.8c-5,3.3-6.3,10-3,15c2,3,5.4,4.8,9,4.8c2.1,0,4.2-0.6,6-1.8c2.4-1.6,4-4,4.6-6.9c0.6-2.8,0-5.7-1.6-8.1
				C1307.2,377.9,1303.8,376.1,1300.2,376.1z"/>
		</g>
	</g>
	<g>
		<g>
			<path fill="#1E7A85" d="M1231.2,379.1c-11.7,0-20.2-4.3-20.8-10.4c-0.7-7.1,9.4-13.7,23.1-15c1.6-0.2,3.2-0.2,4.7-0.2
				c11.6,0,20.2,4.3,20.8,10.4c0.2,2.1-0.5,4.2-2.2,6.1c-3.8,4.6-11.8,8-20.9,8.8C1234.3,379,1232.7,379.1,1231.2,379.1z
				 M1238.1,355.2c-1.5,0-3,0.1-4.5,0.2c-12.2,1.2-22,7.1-21.4,13c0.5,5,8.7,8.8,19,8.8c1.5,0,3-0.1,4.5-0.2
				c8.5-0.8,16.3-4,19.7-8.2c1.3-1.6,1.9-3.2,1.7-4.8C1256.6,359,1248.4,355.2,1238.1,355.2z"/>
		</g>
		<g>
			<path fill="#1E7A85" d="M1234.1,378.9c-6.6,0-12.2-5.2-12.6-11.9c-0.4-7,4.9-13,11.9-13.4c7-0.4,13,4.9,13.4,11.8
				c0.2,3.4-0.9,6.6-3.1,9.2c-2.2,2.5-5.3,4-8.7,4.2C1234.7,378.9,1234.4,378.9,1234.1,378.9z M1234.2,355.4c-0.2,0-0.5,0-0.7,0
				c-6,0.4-10.5,5.5-10.1,11.5c0.4,5.9,5.5,10.5,11.5,10.1c2.9-0.2,5.5-1.5,7.5-3.6c1.9-2.2,2.9-5,2.7-7.8
				C1244.6,359.9,1239.9,355.4,1234.2,355.4z"/>
		</g>
	</g>
	<g>
		<g>
			<path fill="#1E7A85" d="M1565,568.8c-1.1,0-2.1-0.2-3-0.6c-6.5-2.9-7.1-15-1.4-27.5c4.7-10.4,12.4-17.6,18.6-17.6
				c1.1,0,2.1,0.2,3,0.6c6.5,2.9,7.1,15,1.5,27.5C1578.9,561.6,1571.2,568.8,1565,568.8z M1579.1,524.9c-5.5,0-12.6,7-16.9,16.6
				c-5.1,11.1-4.8,22.6,0.5,25c0.7,0.3,1.4,0.5,2.2,0.5c5.5,0,12.6-7,17-16.6c5-11.1,4.8-22.6-0.6-25
				C1580.7,525.1,1579.9,524.9,1579.1,524.9z"/>
		</g>
		<g>
			<path fill="#1E7A85" d="M1571.8,559.1c-2,0-3.9-0.4-5.6-1.3c-6.2-3.1-8.8-10.7-5.7-17c2.1-4.3,6.5-7,11.3-7c2,0,3.9,0.4,5.6,1.3
				c3,1.5,5.3,4.1,6.4,7.3c1.1,3.2,0.8,6.6-0.7,9.7C1581,556.4,1576.7,559.1,1571.8,559.1z M1571.8,535.6c-4.1,0-7.9,2.3-9.7,6
				c-2.7,5.4-0.5,11.9,4.9,14.5c1.5,0.7,3.1,1.1,4.8,1.1c4.2,0,7.9-2.3,9.7-6c1.3-2.6,1.5-5.5,0.6-8.3c-0.9-2.7-2.9-5-5.5-6.2
				C1575.1,536,1573.5,535.6,1571.8,535.6z"/>
		</g>
	</g>
	<g>
		<g>
			<path fill="#1E7A85" d="M909.7,382.5c-7,0-12.8-10.5-13.2-24c-0.2-6.4,0.9-12.5,3-17.1c2.2-4.8,5.4-7.6,8.9-7.7l0.2,0
				c7,0,12.8,10.5,13.2,24c0.4,13.7-4.8,24.6-11.9,24.8L909.7,382.5z M908.6,335.6l-0.2,0c-2.8,0.1-5.4,2.4-7.3,6.6
				c-2,4.4-3,10.2-2.8,16.3c0.4,12.2,5.5,22.2,11.4,22.2l0.2,0c5.9-0.2,10.5-10.7,10.1-22.9C919.6,345.5,914.5,335.6,908.6,335.6z"
				/>
		</g>
		<g>
			<path fill="#1E7A85" d="M909.2,371L909.2,371c-3.5,0-6.6-1.7-9-4.1s-3.7-5.8-3.7-9.1c0-7,5.7-12.7,12.7-12.7
				c7.1,0,12.7,6.1,12.7,13.1C921.8,365,916.1,371,909.2,371z M909.2,346.8c-6,0-10.8,4.8-10.9,10.8c0,2.9,1.1,5.6,3.1,7.7
				c2,2.1,4.7,3.2,7.6,3.2l0,0.9v-0.9c6,0,10.9-4.8,10.9-10.8C919.9,351.7,915.2,346.8,909.2,346.8z"/>
		</g>
	</g>
	<g>
		<g>
			<path fill="#1E7A85" d="M982.2,455.9c-6.2,0-13.9-7.2-18.7-17.4c-2.7-5.8-4.1-11.8-4-16.9c0.1-5.3,2-9.1,5.1-10.5
				c0.9-0.4,2-0.7,3.1-0.7c6.2,0,13.9,7.2,18.7,17.4c5.8,12.4,5.3,24.4-1.2,27.4C984.3,455.7,983.3,455.9,982.2,455.9z M967.7,412.2
				c-0.8,0-1.6,0.2-2.3,0.5c-2.5,1.2-4,4.3-4.1,8.9c-0.1,4.8,1.2,10.5,3.8,16.1c4.4,9.5,11.6,16.4,17,16.4c0.8,0,1.6-0.2,2.3-0.5
				c5.3-2.5,5.5-13.9,0.3-25C980.4,419.1,973.2,412.2,967.7,412.2z"/>
		</g>
		<g>
			<path fill="#1E7A85" d="M974.8,445.3c-5.1,0-9.7-3-11.7-7.7c-1.3-3.1-1.3-6.5-0.1-9.7c1.3-3.1,3.7-5.6,6.8-6.9
				c1.6-0.7,3.2-1,4.9-1c5.1,0,9.7,3,11.7,7.7c1.3,3.1,1.3,6.6,0.1,9.7c-1.3,3.1-3.7,5.6-6.8,6.9C978.1,445,976.5,445.3,974.8,445.3
				z M974.8,421.9c-1.4,0-2.9,0.3-4.2,0.9c-2.7,1.1-4.7,3.2-5.8,5.9c-1.1,2.7-1.1,5.6,0.1,8.3c1.7,4,5.6,6.6,10,6.6
				c1.5,0,2.9-0.3,4.2-0.9c2.7-1.1,4.7-3.2,5.8-5.9c1.1-2.7,1.1-5.6-0.1-8.3C983,424.5,979.1,421.9,974.8,421.9z"/>
		</g>
	</g>
	<g>
		<g>
			<path fill="#1E7A85" d="M962.1,343.8c-13,0-23-5.1-23.2-11.9c-0.1-2.1,0.8-4.1,2.5-6c4-4.3,12.2-7.2,21.4-7.5
				c13.8-0.4,24.6,4.8,24.8,11.9c0.1,2.1-0.8,4.1-2.5,6c-4,4.3-12.2,7.2-21.4,7.5C963.2,343.8,962.7,343.8,962.1,343.8z
				 M964.4,320.3c-0.5,0-1,0-1.5,0c-8.6,0.3-16.5,3-20.2,6.9c-1.4,1.5-2.1,3.1-2,4.7c0.2,5.8,10.6,10.5,22.9,10.1
				c8.6-0.3,16.5-3,20.2-6.9c1.4-1.5,2.1-3.1,2-4.7C985.7,324.8,976.1,320.3,964.4,320.3z"/>
		</g>
		<g>
			<path fill="#1E7A85" d="M963.8,344L963.8,344c-3.4,0-6.6-1.4-9-3.8s-3.7-5.6-3.7-9c0-7,5.7-12.6,12.6-12.6
				c7,0,12.7,5.8,12.7,12.8C976.4,338.3,970.7,344,963.8,344z M963.8,320.3c-6,0-10.8,4.8-10.9,10.8c0,2.9,1.1,5.6,3.1,7.7
				c2,2.1,4.4,3.2,7.2,3.2l-0.3,0.9V342c6,0,11.2-4.8,11.2-10.8C974.3,325.2,969.8,320.3,963.8,320.3z"/>
		</g>
	</g>
	<g>
		<g>
			<path fill="#1E7A85" d="M937.4,520.9c-13,0-23-5.1-23.2-11.9c-0.2-7.1,10.3-13,24-13.4c13.7-0.4,24.6,4.8,24.8,11.9
				c0.2,7.1-10.3,13-24,13.4C938.4,520.9,937.9,520.9,937.4,520.9z M939.7,497.4c-0.5,0-1,0-1.5,0c-12.2,0.4-22.4,5.7-22.2,11.5
				c0.2,5.8,10.6,10.5,22.9,10.1c12.2-0.4,22.4-5.7,22.2-11.5C960.9,502,951.3,497.4,939.7,497.4z"/>
		</g>
		<g>
			<path fill="#1E7A85" d="M939,521L939,521c-3.4,0-6.6-1.4-9-3.8c-2.4-2.4-3.7-5.6-3.7-9c0-6.9,5.7-12.6,12.7-12.6
				c7,0,12.7,5.8,12.7,12.8C951.6,515.3,946,521,939,521z M939.1,497.4c-6,0-10.9,4.8-10.9,10.8c0,2.9,1.1,5.6,3.1,7.7
				c2,2.1,4.7,3.2,7.6,3.2l0,0.9v-0.9c6,0,10.8-4.8,10.9-10.8C949.9,502.3,945.1,497.4,939.1,497.4z"/>
		</g>
	</g>
	<g>
		<g>
			<path fill="#1E7A85" d="M652,718.4c-4.4,0-7.6-1.4-9.2-4c-3.7-6.1,2.6-16.4,14.3-23.5c6.2-3.7,12.8-5.9,18.2-5.9
				c4.4,0,7.7,1.4,9.2,4.1c3.7,6.1-2.6,16.4-14.3,23.5C664,716.3,657.4,718.4,652,718.4z M675.2,686.8c-5.1,0-11.4,2-17.2,5.6
				c-10.5,6.3-16.7,15.9-13.7,21c1.2,2,4,3.2,7.7,3.2c5.1,0,11.4-2,17.2-5.6c10.5-6.3,16.7-15.9,13.7-21
				C681.7,688,678.9,686.8,675.2,686.8z"/>
		</g>
		<g>
			<path fill="#1E7A85" d="M663.2,714.6c-4.6,0-8.8-2.5-11.1-6.5c-3.4-6.1-1.2-13.8,4.9-17.2c1.9-1,4-1.6,6.1-1.6
				c4.6,0,8.8,2.5,11.1,6.5c1.6,3,2,6.4,1.1,9.6c-0.9,3.3-3.1,5.9-6,7.6C667.5,714.1,665.3,714.6,663.2,714.6z M663.2,691.1
				c-1.8,0-3.6,0.5-5.2,1.4c-5.2,2.9-7.1,9.5-4.2,14.7c1.9,3.4,5.5,5.5,9.5,5.5c1.8,0,3.7-0.5,5.3-1.4c2.5-1.4,4.3-3.7,5.1-6.5
				c0.8-2.8,0.5-5.7-1-8.2C670.7,693.2,667.1,691.1,663.2,691.1z"/>
		</g>
	</g>
	<g>
		<g>
			<path fill="#1E7A85" d="M325.8,845.6c-7,0-12.7-10.6-13-24.1c-0.1-6.4,1-12.5,3.2-17.1c2.3-4.8,5.5-7.5,9-7.6l0.1,0
				c7,0,12.7,10.6,13,24.1c0.2,9.2-2.2,17.5-6.3,21.8c-1.8,1.8-3.8,2.8-5.8,2.9L325.8,845.6z M325,799h-0.1c-2.8,0-5.4,2.2-7.4,6.3
				c-2.1,4.3-3.1,10.2-3,16.3c0.3,12.1,5.4,22.4,11.2,22.4h0.1c1.6,0,3.1-0.9,4.6-2.4c3.7-3.9,6-11.8,5.8-20.4
				C336,808.9,330.9,799,325,799z"/>
		</g>
		<g>
			<path fill="#1E7A85" d="M325.4,835h-0.2c-7,0-12.6-6.2-12.5-13.2c0.1-6.9,5.8-12.6,12.6-12.6l0.2-0.1c3.4,0,6.5,1.4,8.9,3.8
				c2.4,2.4,3.6,5.9,3.6,9.3C338,829.1,332.3,835,325.4,835z M325.4,811c-5.9,0-10.7,4.9-10.8,10.8c-0.1,6,4.7,11.2,10.7,11.2h0.2
				c5.9,0,10.7-5,10.8-10.9c0-2.9-1-5.7-3.1-7.7c-2-2.1-4.7-3.3-7.6-3.3H325.4z"/>
		</g>
	</g>
	<g>
		<g>
			<path fill="#1E7A85" d="M444.6,901.2c-5.2,0-11.6-1.9-17.5-5.1c-5.6-3.1-10.3-7.1-13.2-11.3c-3-4.4-3.8-8.5-2.1-11.5
				c1.6-2.9,5.1-4.5,10-4.5c5.2,0,11.6,1.9,17.5,5.1c8,4.4,14.1,10.7,15.7,16.4c0.7,2.4,0.6,4.7-0.4,6.5
				C453,899.6,449.5,901.2,444.6,901.2z M421.8,870.6c-4.2,0-7.1,1.2-8.4,3.5c-1.3,2.4-0.6,5.9,2,9.6c2.7,4,7.2,7.8,12.6,10.7
				c5.7,3.1,11.7,4.9,16.6,4.9c4.1,0,7.1-1.2,8.4-3.5c0.8-1.4,0.9-3.1,0.3-5.1c-1.5-5.2-7.3-11.1-14.9-15.3
				C432.8,872.4,426.7,870.6,421.8,870.6z"/>
		</g>
		<g>
			<path fill="#1E7A85" d="M433.6,897.9c-2.3,0-4.5-0.6-6.5-1.8c-2.9-1.7-5-4.5-5.8-7.8c-0.8-3.3-0.3-6.7,1.4-9.6
				c2.3-3.8,6.4-6.2,10.9-6.2c2.3,0,4.5,0.6,6.5,1.8c6,3.6,7.9,11.4,4.4,17.4C442.2,895.5,438,897.9,433.6,897.9z M433.6,874.4
				c-3.8,0-7.4,2-9.3,5.3c-1.5,2.5-1.9,5.4-1.2,8.2c0.7,2.8,2.5,5.2,4.9,6.6c1.7,1,3.6,1.5,5.6,1.5c3.8,0,7.4-2,9.3-5.3
				c3.1-5.1,1.4-11.8-3.7-14.9C437.5,874.9,435.6,874.4,433.6,874.4z"/>
		</g>
	</g>
	<g>
		<g>
			<path fill="#1E7A85" d="M1150.1,767.4c-4.4,0-7.6-1.4-9.2-4.1c-1.8-3-1.3-7.1,1.6-11.6c2.7-4.3,7.2-8.5,12.7-11.8
				c6.2-3.7,12.8-5.9,18.2-5.9c4.4,0,7.7,1.4,9.2,4c1.8,3,1.3,7.1-1.6,11.6c-2.7,4.3-7.2,8.5-12.7,11.8
				C1162.2,765.3,1155.5,767.4,1150.1,767.4z M1173.4,735.9c-5.1,0-11.4,2-17.2,5.6c-5.2,3.2-9.6,7.2-12.1,11.2
				c-2.4,3.9-3,7.3-1.6,9.7c1.2,2,4,3.2,7.7,3.2c5.1,0,11.4-2,17.2-5.6c5.2-3.2,9.5-7.2,12.1-11.2c2.5-3.9,3-7.3,1.6-9.7
				C1179.8,737,1177.1,735.9,1173.4,735.9z"/>
		</g>
		<g>
			<path fill="#1E7A85" d="M1162.2,763.2c-4.6,0-8.8-2.5-11.1-6.5c-1.6-2.9-2.1-6.4-1.1-9.6c0.9-3.3,3.1-6,6-7.6
				c1.9-1,4-1.6,6.1-1.6c4.6,0,8.8,2.5,11.1,6.5c3.4,6.1,1.2,13.8-4.9,17.2C1166.5,762.6,1164.3,763.2,1162.2,763.2z M1162.2,739.7
				c-1.8,0-3.6,0.5-5.3,1.4c-2.5,1.4-4.4,3.7-5.1,6.5c-0.8,2.8-0.4,5.7,1,8.2c1.9,3.4,5.5,5.6,9.5,5.6c1.8,0,3.6-0.5,5.2-1.4
				c5.2-2.9,7.1-9.5,4.2-14.8C1169.7,741.8,1166.1,739.7,1162.2,739.7z"/>
		</g>
	</g>
	<g>
		<g>
			<path fill="#1E7A85" d="M763,766c-7,0-12.8-10.6-13-24.1c-0.1-6.4,1-12.1,3.2-16.7c2.3-4.8,5.5-7.2,9-7.2h0.1
				c7,0,12.8,10.2,13,23.8c0.1,6.4-1,12.3-3.2,16.9c-2.3,4.8-5.5,7.4-9,7.5L763,766z M762.2,719h-0.1c-2.8,1-5.4,2.4-7.3,6.6
				c-2.1,4.4-3.1,10.6-3,16.7c0.2,12.1,5.4,22.8,11.2,22.8h0.1c2.8,0,5.4-2.8,7.3-6.9c2.1-4.4,3.1-10.4,3-16.5
				C773.1,729.3,768.1,719,762.2,719z"/>
		</g>
		<g>
			<path fill="#1E7A85" d="M762.6,753.8l-0.2,0c-3.4,0-6.5-1.4-8.9-3.8c-2.4-2.4-3.6-5.4-3.6-8.8c0.1-6.9,5.8-12.2,12.7-12.2h0.2
				c7,0,12.6,5.6,12.5,12.6C775.1,748.4,769.5,753.8,762.6,753.8z M762.6,731c-5.9,0-10.8,4.4-10.8,10.3c0,2.9,1,5.5,3.1,7.5
				c2,2.1,4.7,3.1,7.6,3.2l0.2,0c5.9,0,10.7-4.4,10.8-10.3c0.1-6-4.7-10.7-10.7-10.7H762.6z"/>
		</g>
	</g>
	<g>
		<g>
			<path fill="#1E7A85" d="M364.4,933.3c-5.2,0-11.6-1.9-17.5-5.1c-12-6.6-18.7-16.6-15.3-22.9c1.6-2.9,5.1-4.4,10-4.4
				c5.2,0,11.6,1.9,17.5,5.1c12,6.6,18.7,16.6,15.3,22.8C372.8,931.7,369.3,933.3,364.4,933.3z M341.6,902.7c-4.1,0-7.1,1.2-8.4,3.5
				c-2.8,5.1,3.9,14.5,14.6,20.4c5.6,3.1,11.7,4.9,16.6,4.9c4.2,0,7.1-1.2,8.4-3.5c2.8-5.1-3.9-14.5-14.6-20.3
				C352.6,904.5,346.5,902.7,341.6,902.7z"/>
		</g>
		<g>
			<path fill="#1E7A85" d="M352.6,929.5c-2.3,0-4.5-0.6-6.5-1.8c-2.9-1.7-4.9-4.5-5.8-7.7c-0.8-3.3-0.3-6.7,1.4-9.6
				c2.3-3.8,6.4-6.2,10.9-6.2c2.3,0,4.5,0.6,6.5,1.8c2.9,1.7,4.9,4.5,5.8,7.8c0.8,3.3,0.3,6.7-1.4,9.6
				C361.2,927.1,357,929.5,352.6,929.5z M352.6,906c-3.8,0-7.4,2-9.3,5.3c-1.5,2.5-1.9,5.4-1.2,8.2c0.7,2.8,2.5,5.2,4.9,6.6
				c1.7,1,3.6,1.5,5.6,1.5c3.8,0,7.4-2,9.3-5.3c1.5-2.5,1.9-5.4,1.2-8.2c-0.7-2.8-2.5-5.2-4.9-6.6C356.4,906.5,354.5,906,352.6,906z
				"/>
		</g>
	</g>
	<g>
		<g>
			<path fill="#1E7A85" d="M629.2,960.3c-0.7,0-1.4,0-2.2,0c-13.7-0.6-24.1-6.7-23.8-13.7c0.3-7,11.3-12.2,24.9-11.5
				c6.4,0.3,12.4,1.8,16.8,4.3c4.6,2.6,7.1,5.9,7,9.4C651.6,955.3,641.9,960.3,629.2,960.3z M626,936.7c-11.5,0-20.7,4.3-20.9,9.8
				c-0.3,5.9,9.8,11.3,22.1,11.8c12.5,0.6,22.8-3.9,23-9.8c0.1-2.8-2-5.5-6-7.8c-4.2-2.4-9.9-3.8-16-4.1
				C627.4,936.7,626.7,936.7,626,936.7z"/>
		</g>
		<g>
			<path fill="#1E7A85" d="M628.1,960.3c-0.4,0-0.7,0-1.1,0c-3.4-0.3-6.4-1.9-8.6-4.4c-2.2-2.6-3.2-5.8-2.9-9.2
				c0.6-6.9,6.7-12.2,13.6-11.6c7,0.6,12.2,6.7,11.6,13.6C640.1,955.2,634.6,960.3,628.1,960.3z M628.1,936.8
				c-5.6,0-10.3,4.4-10.8,10c-0.2,2.9,0.7,5.7,2.5,7.9c1.9,2.2,4.5,3.6,7.4,3.8c6,0.5,11.2-4,11.7-9.9c0.5-5.9-4-11.2-9.9-11.7
				C628.6,936.8,628.4,936.8,628.1,936.8z"/>
		</g>
	</g>
	<g>
		<g>
			<path fill="#1E7A85" d="M1152.7,884.4c-6.8,0-11.5-2.2-13-6.1c-1.2-3.3,0.1-7.2,3.7-11.1c3.5-3.7,8.7-7,14.7-9.3
				c4.9-1.8,9.8-2.8,14.3-2.8c6.8,0,11.5,2.2,13,6.1c0.7,1.9,0.6,4.2-0.5,6.5c-2.4,5.4-9.3,10.7-17.9,13.9
				C1162.1,883.5,1157.2,884.4,1152.7,884.4z M1172.5,856.9c-4.3,0-9,0.9-13.7,2.7c-5.7,2.2-10.7,5.3-14,8.8
				c-3.1,3.4-4.3,6.7-3.3,9.2c1.2,3.1,5.4,4.9,11.2,4.9c4.3,0,9-0.9,13.7-2.7c8.1-3,14.7-8.1,16.9-13c0.9-1.9,1-3.6,0.4-5.1
				C1182.6,858.8,1178.4,856.9,1172.5,856.9z"/>
		</g>
		<g>
			<path fill="#1E7A85" d="M1163,882.3c-5.4,0-10.3-3.5-12-8.6c-1.1-3.2-0.8-6.6,0.7-9.7c1.5-3,4.1-5.3,7.3-6.4
				c1.3-0.4,2.6-0.7,4-0.7c5.5,0,10.3,3.5,12,8.6c2.2,6.6-1.4,13.8-8,16C1165.8,882,1164.4,882.3,1163,882.3z M1163,858.8
				c-1.2,0-2.3,0.2-3.4,0.6c-2.7,0.9-5,2.8-6.3,5.4c-1.3,2.6-1.5,5.5-0.6,8.3c1.5,4.4,5.6,7.4,10.3,7.4c1.2,0,2.3-0.2,3.4-0.6
				c5.7-1.9,8.7-8,6.8-13.7C1171.8,861.7,1167.7,858.8,1163,858.8z"/>
		</g>
	</g>
	<g>
		<g>
			<path fill="#1E7A85" d="M548,959.6c-0.1,0-0.2,0-0.3,0c-2.1-0.1-4.1-1.1-5.8-3c-4-4.4-6.2-12.8-5.8-22
				c0.6-13.5,6.7-24.2,13.7-23.8c2.1,0.1,4,1.1,5.8,3c4,4.4,6.2,12.8,5.8,21.9C560.9,949.1,555,959.6,548,959.6z M549.6,912.7
				c-5.8,0-11,9.9-11.6,22c-0.4,8.6,1.7,16.7,5.3,20.6c1.4,1.5,2.9,2.3,4.5,2.4c0.1,0,0.2,0,0.2,0c5.9,0,11.1-9.9,11.6-22.1
				c0.4-8.6-1.7-16.7-5.3-20.6c-1.4-1.5-2.9-2.3-4.5-2.4C549.7,912.7,549.7,912.7,549.6,912.7z"/>
		</g>
		<g>
			<path fill="#1E7A85" d="M548.8,948.4c-0.3,0-0.7,0-1,0c-7-0.6-12.1-6.7-11.6-13.7c0.5-6.9,6.7-12.1,13.6-11.6
				c3.4,0.3,6.4,1.8,8.6,4.4c2.2,2.6,3.2,5.8,3,9.2C560.9,943.3,555.3,948.4,548.8,948.4z M548.8,924.9c-5.6,0-10.3,4.4-10.8,9.9
				c-0.5,5.9,4,11.2,9.9,11.7c5.9,0.5,11.2-4,11.7-9.9c0.2-2.9-0.7-5.7-2.5-7.9c-1.9-2.2-4.5-3.6-7.4-3.8
				C549.4,924.9,549.1,924.9,548.8,924.9z"/>
		</g>
	</g>
	<g>
		<g>
			<path fill="#1E7A85" d="M1230.9,832.2c-0.1,0-0.2,0-0.3,0c-7.1-0.3-12.1-11.3-11.5-25c0.6-13.5,6.7-24.1,13.7-23.8
				c7.1,0.3,12.1,11.3,11.5,24.9C1243.7,821.7,1237.8,832.2,1230.9,832.2z M1232.5,785.2c-5.9,0-11.1,9.9-11.6,22.1
				c-0.5,12.2,3.9,22.8,9.8,23l0.2,0c5.9,0,11.1-9.9,11.6-22.1c0.5-12.2-3.9-22.8-9.8-23C1232.6,785.2,1232.5,785.2,1232.5,785.2z"
				/>
		</g>
		<g>
			<path fill="#1E7A85" d="M1231.6,820.9c-0.3,0-0.7,0-1,0c-7-0.6-12.2-6.7-11.6-13.7c0.6-6.9,6.7-12.1,13.6-11.6
				c3.4,0.3,6.4,1.8,8.6,4.4c2.2,2.6,3.2,5.9,3,9.2C1243.7,815.8,1238.2,820.9,1231.6,820.9z M1231.6,797.4
				c-5.6,0-10.3,4.4-10.8,9.9c-0.5,5.9,3.9,11.2,9.9,11.7c0.3,0,0.6,0,0.9,0c5.6,0,10.3-4.4,10.8-10c0.2-2.9-0.7-5.7-2.5-7.9
				c-1.9-2.2-4.5-3.5-7.4-3.8C1232.2,797.5,1231.9,797.4,1231.6,797.4z"/>
		</g>
	</g>
</g>
</svg>
