<?xml version="1.0" encoding="utf-8"?>
<!-- Generator: Adobe Illustrator 18.1.1, SVG Export Plug-In . SVG Version: 6.00 Build 0)  -->
<!DOCTYPE svg PUBLIC "-//W3C//DTD SVG 1.1//EN" "http://www.w3.org/Graphics/SVG/1.1/DTD/svg11.dtd">
<svg version="1.1" id="Layer_1" xmlns="http://www.w3.org/2000/svg" xmlns:xlink="http://www.w3.org/1999/xlink" x="0px" y="0px"
	 viewBox="0 0 1920 1080" enable-background="new 0 0 1920 1080" xml:space="preserve">
<g>
	<g>
		<g>
			<path fill="#1E7A85" d="M526.5,490.5l-76.4-145.8l82.2-43.1l76.4,145.8L526.5,490.5z M452.6,345.5l74.7,142.6l79-41.4
				l-74.7-142.6L452.6,345.5z"/>
		</g>
		<g>
			<g>
				<g>
					<path fill="#1E7A85" d="M627.6,358.4l-45,23.6l28.3,54l45-23.6L627.6,358.4z M613.7,427.7l-22.6-43.2l28.1-14.7l22.6,43.2
						L613.7,427.7z"/>
				</g>
			</g>
		</g>
		<g>
			<g>
				<g>
					<path fill="#1E7A85" d="M621.6,506.3l-23.6-45l-54,28.3l23.6,45L621.6,506.3z M552.3,492.4l43.2-22.6l14.7,28.1L567,520.5
						L552.3,492.4z"/>
				</g>
			</g>
		</g>
		<g>
			<g>
				<g>
					<path fill="#1E7A85" d="M437.3,285.9l23.6,45l54-28.3l-23.6-45L437.3,285.9z M506.5,299.8l-43.2,22.6l-14.7-28.1l43.2-22.6
						L506.5,299.8z"/>
				</g>
			</g>
		</g>
		<g>
			<g>
				<g>
					<path fill="#1E7A85" d="M588,282.8l-45,23.6l28.3,54l45-23.6L588,282.8z M574.1,352l-22.6-43.2l28.1-14.7l22.6,43.2L574.1,352z
						"/>
				</g>
			</g>
		</g>
	</g>
	<g>
		<g>
			<path fill="#1E7A85" d="M820.8,490.5l-76.4-145.8l82.2-43.1L903,447.5L820.8,490.5z M746.9,345.5l74.7,142.6l79-41.4l-74.7-142.6
				L746.9,345.5z"/>
		</g>
		<g>
			<g>
				<g>
					<path fill="#1E7A85" d="M921.9,358.4l-45,23.6l28.3,54l45-23.6L921.9,358.4z M908,427.7l-22.6-43.2l28.1-14.7l22.6,43.2
						L908,427.7z"/>
				</g>
			</g>
		</g>
		<g>
			<g>
				<g>
					<path fill="#1E7A85" d="M915.8,506.3l-23.6-45l-54,28.3l23.6,45L915.8,506.3z M846.6,492.4l43.2-22.6l14.7,28.1l-43.2,22.6
						L846.6,492.4z"/>
				</g>
			</g>
		</g>
		<g>
			<g>
				<g>
					<path fill="#1E7A85" d="M731.5,285.9l23.6,45l54-28.3l-23.6-45L731.5,285.9z M800.8,299.8l-43.2,22.6l-14.7-28.1l43.2-22.6
						L800.8,299.8z"/>
				</g>
			</g>
		</g>
		<g>
			<g>
				<g>
					<path fill="#1E7A85" d="M882.2,282.8l-45,23.6l28.3,54l45-23.6L882.2,282.8z M868.3,352l-22.6-43.2l28.1-14.7l22.6,43.2
						L868.3,352z"/>
				</g>
			</g>
		</g>
	</g>
	<g>
		<g>
			<path fill="#1E7A85" d="M1115,490.5l-76.4-145.8l82.2-43.1l76.4,145.8L1115,490.5z M1041.1,345.5l74.7,142.6l79-41.4l-74.7-142.6
				L1041.1,345.5z"/>
		</g>
		<g>
			<g>
				<g>
					<path fill="#1E7A85" d="M1216.2,358.4l-45,23.6l28.3,54l45-23.6L1216.2,358.4z M1202.2,427.7l-22.6-43.2l28.1-14.7l22.6,43.2
						L1202.2,427.7z"/>
				</g>
			</g>
		</g>
		<g>
			<g>
				<g>
					<path fill="#1E7A85" d="M1210.1,506.3l-23.6-45l-54,28.3l23.6,45L1210.1,506.3z M1140.8,492.4l43.2-22.6l14.7,28.1l-43.2,22.6
						L1140.8,492.4z"/>
				</g>
			</g>
		</g>
		<g>
			<g>
				<g>
					<path fill="#1E7A85" d="M1025.8,285.9l23.6,45l54-28.3l-23.6-45L1025.8,285.9z M1095.1,299.8l-43.2,22.6l-14.7-28.1l43.2-22.6
						L1095.1,299.8z"/>
				</g>
			</g>
		</g>
		<g>
			<g>
				<g>
					<path fill="#1E7A85" d="M1176.5,282.8l-45,23.6l28.3,54l45-23.6L1176.5,282.8z M1162.6,352l-22.6-43.2l28.1-14.7l22.6,43.2
						L1162.6,352z"/>
				</g>
			</g>
		</g>
	</g>
	<g>
		<g>
			<path fill="#1E7A85" d="M1409.3,490.5l-76.4-145.8l82.2-43.1l76.4,145.8L1409.3,490.5z M1335.4,345.5l74.7,142.6l79-41.4
				l-74.7-142.6L1335.4,345.5z"/>
		</g>
		<g>
			<g>
				<g>
					<path fill="#1E7A85" d="M1510.4,358.4l-45,23.6l28.3,54l45-23.6L1510.4,358.4z M1496.5,427.7l-22.6-43.2l28.1-14.7l22.6,43.2
						L1496.5,427.7z"/>
				</g>
			</g>
		</g>
		<g>
			<g>
				<g>
					<path fill="#1E7A85" d="M1504.3,506.3l-23.6-45l-54,28.3l23.6,45L1504.3,506.3z M1435.1,492.4l43.2-22.6l14.7,28.1l-43.2,22.6
						L1435.1,492.4z"/>
				</g>
			</g>
		</g>
		<g>
			<g>
				<g>
					<path fill="#1E7A85" d="M1320,285.9l23.6,45l54-28.3l-23.6-45L1320,285.9z M1389.3,299.8l-43.2,22.6l-14.7-28.1l43.2-22.6
						L1389.3,299.8z"/>
				</g>
			</g>
		</g>
		<g>
			<g>
				<g>
					<path fill="#1E7A85" d="M1470.8,282.8l-45,23.6l28.3,54l45-23.6L1470.8,282.8z M1456.8,352l-22.6-43.2l28.1-14.7l22.6,43.2
						L1456.8,352z"/>
				</g>
			</g>
		</g>
	</g>
	<g>
		<g>
			<path fill="#1E7A85" d="M532.3,857.7l-82.2-43.1l76.4-145.8l82.2,43.1L532.3,857.7z M452.6,813.9l79,41.4l74.7-142.6l-79-41.4
				L452.6,813.9z"/>
		</g>
		<g>
			<g>
				<g>
					<path fill="#1E7A85" d="M655.9,746.9l-45-23.6l-28.3,54l45,23.6L655.9,746.9z M641.9,746.4l-22.6,43.2l-28.1-14.7l22.6-43.2
						L641.9,746.4z"/>
				</g>
			</g>
		</g>
		<g>
			<g>
				<g>
					<path fill="#1E7A85" d="M567.5,624.8l-23.6,45l54,28.3l23.6-45L567.5,624.8z M567,638.9l43.2,22.6l-14.7,28.1L552.3,667
						L567,638.9z"/>
				</g>
			</g>
		</g>
		<g>
			<g>
				<g>
					<path fill="#1E7A85" d="M491.3,901.8l23.6-45l-54-28.3l-23.6,45L491.3,901.8z M491.8,887.7L448.6,865l14.7-28.1l43.2,22.6
						L491.8,887.7z"/>
				</g>
			</g>
		</g>
		<g>
			<g>
				<g>
					<path fill="#1E7A85" d="M616.3,822.6l-45-23.6L543,853l45,23.6L616.3,822.6z M602.2,822.1l-22.6,43.2l-28.1-14.7l22.6-43.2
						L602.2,822.1z"/>
				</g>
			</g>
		</g>
	</g>
	<g>
		<g>
			<path fill="#1E7A85" d="M826.6,857.7l-82.2-43.1l76.4-145.8l82.2,43.1L826.6,857.7z M746.9,813.9l79,41.4l74.7-142.6l-79-41.4
				L746.9,813.9z"/>
		</g>
		<g>
			<g>
				<g>
					<path fill="#1E7A85" d="M950.2,746.9l-45-23.6l-28.3,54l45,23.6L950.2,746.9z M936.1,746.4l-22.6,43.2l-28.1-14.7l22.6-43.2
						L936.1,746.4z"/>
				</g>
			</g>
		</g>
		<g>
			<g>
				<g>
					<path fill="#1E7A85" d="M861.8,624.8l-23.6,45l54,28.3l23.6-45L861.8,624.8z M861.3,638.9l43.2,22.6l-14.7,28.1L846.6,667
						L861.3,638.9z"/>
				</g>
			</g>
		</g>
		<g>
			<g>
				<g>
					<path fill="#1E7A85" d="M785.6,901.8l23.6-45l-54-28.3l-23.6,45L785.6,901.8z M786.1,887.7L742.8,865l14.7-28.1l43.2,22.6
						L786.1,887.7z"/>
				</g>
			</g>
		</g>
		<g>
			<g>
				<g>
					<path fill="#1E7A85" d="M910.6,822.6l-45-23.6l-28.3,54l45,23.6L910.6,822.6z M896.5,822.1l-22.6,43.2l-28.1-14.7l22.6-43.2
						L896.5,822.1z"/>
				</g>
			</g>
		</g>
	</g>
	<g>
		<g>
			<path fill="#1E7A85" d="M1120.8,857.7l-82.2-43.1l76.4-145.8l82.2,43.1L1120.8,857.7z M1041.1,813.9l79,41.4l74.7-142.6l-79-41.4
				L1041.1,813.9z"/>
		</g>
		<g>
			<g>
				<g>
					<path fill="#1E7A85" d="M1244.5,746.9l-45-23.6l-28.3,54l45,23.6L1244.5,746.9z M1230.4,746.4l-22.6,43.2l-28.1-14.7l22.6-43.2
						L1230.4,746.4z"/>
				</g>
			</g>
		</g>
		<g>
			<g>
				<g>
					<path fill="#1E7A85" d="M1156.1,624.8l-23.6,45l54,28.3l23.6-45L1156.1,624.8z M1155.6,638.9l43.2,22.6l-14.7,28.1l-43.2-22.6
						L1155.6,638.9z"/>
				</g>
			</g>
		</g>
		<g>
			<g>
				<g>
					<path fill="#1E7A85" d="M1079.8,901.8l23.6-45l-54-28.3l-23.6,45L1079.8,901.8z M1080.3,887.7l-43.2-22.6l14.7-28.1l43.2,22.6
						L1080.3,887.7z"/>
				</g>
			</g>
		</g>
		<g>
			<g>
				<g>
					<path fill="#1E7A85" d="M1204.8,822.6l-45-23.6l-28.3,54l45,23.6L1204.8,822.6z M1190.7,822.1l-22.6,43.2l-28.1-14.7l22.6-43.2
						L1190.7,822.1z"/>
				</g>
			</g>
		</g>
	</g>
	<g>
		<g>
			<path fill="#1E7A85" d="M1415.1,857.7l-82.2-43.1l76.4-145.8l82.2,43.1L1415.1,857.7z M1335.4,813.9l79,41.4l74.7-142.6l-79-41.4
				L1335.4,813.9z"/>
		</g>
		<g>
			<g>
				<g>
					<path fill="#1E7A85" d="M1538.7,746.9l-45-23.6l-28.3,54l45,23.6L1538.7,746.9z M1524.6,746.4l-22.6,43.2l-28.1-14.7l22.6-43.2
						L1524.6,746.4z"/>
				</g>
			</g>
		</g>
		<g>
			<g>
				<g>
					<path fill="#1E7A85" d="M1450.3,624.8l-23.6,45l54,28.3l23.6-45L1450.3,624.8z M1449.8,638.9l43.2,22.6l-14.7,28.1l-43.2-22.6
						L1449.8,638.9z"/>
				</g>
			</g>
		</g>
		<g>
			<g>
				<g>
					<path fill="#1E7A85" d="M1374.1,901.8l23.6-45l-54-28.3l-23.6,45L1374.1,901.8z M1374.6,887.7l-43.2-22.6l14.7-28.1l43.2,22.6
						L1374.6,887.7z"/>
				</g>
			</g>
		</g>
		<g>
			<g>
				<g>
					<path fill="#1E7A85" d="M1499.1,822.6l-45-23.6l-28.3,54l45,23.6L1499.1,822.6z M1485,822.1l-22.6,43.2l-28.1-14.7l22.6-43.2
						L1485,822.1z"/>
				</g>
			</g>
		</g>
	</g>
	<g>
		<path fill="#1E7A85" d="M325.9,879.3h-92.8V612.7h92.8V879.3z M235,877.5h89.1V614.6H235V877.5z"/>
	</g>
	<g>
		<path fill="#1E7A85" d="M325.9,614.6h-92.8V348h92.8V614.6z M235,612.7h89.1V349.8H235V612.7z"/>
	</g>
	<g>
		<g>
			<g>
				<path fill="#1E7A85" d="M166,689.6h56.5v-67.8H166V689.6z M215.4,628.6v54.2h-35.3v-54.2H215.4z"/>
			</g>
		</g>
	</g>
	<g>
		<g>
			<g>
				<path fill="#1E7A85" d="M166,779.9h56.5v-67.8H166V779.9z M215.4,718.9v54.2h-35.3v-54.2H215.4z"/>
			</g>
		</g>
	</g>
	<g>
		<g>
			<g>
				<path fill="#1E7A85" d="M166,870.3h56.5v-67.8H166V870.3z M215.4,809.3v54.2h-35.3v-54.2H215.4z"/>
			</g>
		</g>
	</g>
	<g>
		<g>
			<g>
				<path fill="#1E7A85" d="M166,424.8h56.5v-67.8H166V424.8z M215.4,363.8v54.2h-35.3v-54.2H215.4z"/>
			</g>
		</g>
	</g>
	<g>
		<g>
			<g>
				<path fill="#1E7A85" d="M166,515.2h56.5v-67.8H166V515.2z M215.4,454.2v54.2h-35.3v-54.2H215.4z"/>
			</g>
		</g>
	</g>
	<g>
		<g>
			<g>
				<path fill="#1E7A85" d="M166,605.5h56.5v-67.8H166V605.5z M215.4,544.5v54.2h-35.3v-54.2H215.4z"/>
			</g>
		</g>
	</g>
</g>
</svg>
