<?xml version="1.0" encoding="utf-8"?>
<!-- Generator: Adobe Illustrator 18.1.1, SVG Export Plug-In . SVG Version: 6.00 Build 0)  -->
<!DOCTYPE svg PUBLIC "-//W3C//DTD SVG 1.1//EN" "http://www.w3.org/Graphics/SVG/1.1/DTD/svg11.dtd">
<svg version="1.1" id="Layer_1" xmlns="http://www.w3.org/2000/svg" xmlns:xlink="http://www.w3.org/1999/xlink" x="0px" y="0px"
	 viewBox="0 0 1920 1080" enable-background="new 0 0 1920 1080" xml:space="preserve">
<g>
	<g>
		<g>
			<g>
				<path fill="#1E7A85" d="M847.2,273.2v56.5H915v-56.5H847.2z M908.2,322.6H854v-35.3h54.2V322.6z"/>
			</g>
		</g>
	</g>
	<g>
		<g>
			<g>
				<path fill="#1E7A85" d="M756.9,273.2v56.5h67.8v-56.5H756.9z M817.9,322.6h-54.2v-35.3h54.2V322.6z"/>
			</g>
		</g>
	</g>
	<g>
		<g>
			<g>
				<path fill="#1E7A85" d="M666.6,273.2v56.5h67.8v-56.5H666.6z M727.6,322.6h-54.2v-35.3h54.2V322.6z"/>
			</g>
		</g>
	</g>
	<g>
		<path fill="#1E7A85" d="M924.1,430.1H657.5v-92.8h266.6V430.1z M659.3,428.3h262.9v-89.1H659.3V428.3z"/>
	</g>
	<g>
		<g>
			<g>
				<path fill="#1E7A85" d="M1112,273.2v56.5h67.8v-56.5H1112z M1173,322.6h-54.2v-35.3h54.2V322.6z"/>
			</g>
		</g>
	</g>
	<g>
		<g>
			<g>
				<path fill="#1E7A85" d="M1021.7,273.2v56.5h67.8v-56.5H1021.7z M1082.7,322.6h-54.2v-35.3h54.2V322.6z"/>
			</g>
		</g>
	</g>
	<g>
		<g>
			<g>
				<path fill="#1E7A85" d="M931.3,273.2v56.5h67.8v-56.5H931.3z M992.3,322.6h-54.2v-35.3h54.2V322.6z"/>
			</g>
		</g>
	</g>
	<g>
		<path fill="#1E7A85" d="M1188.8,430.1H922.3v-92.8h266.6V430.1z M924.1,428.3H1187v-89.1H924.1V428.3z"/>
	</g>
	<g>
		<g>
			<g>
				<path fill="#1E7A85" d="M1376.7,273.2v56.5h67.8v-56.5H1376.7z M1437.7,322.6h-54.2v-35.3h54.2V322.6z"/>
			</g>
		</g>
	</g>
	<g>
		<g>
			<g>
				<path fill="#1E7A85" d="M1286.4,273.2v56.5h67.8v-56.5H1286.4z M1347.4,322.6h-54.2v-35.3h54.2V322.6z"/>
			</g>
		</g>
	</g>
	<g>
		<g>
			<g>
				<path fill="#1E7A85" d="M1196.1,273.2v56.5h67.8v-56.5H1196.1z M1257.1,322.6h-54.2v-35.3h54.2V322.6z"/>
			</g>
		</g>
	</g>
	<g>
		<path fill="#1E7A85" d="M1453.6,430.1H1187v-92.8h266.6V430.1z M1188.8,428.3h262.9v-89.1h-262.9V428.3z"/>
	</g>
	<g>
		<g>
			<g>
				<path fill="#1E7A85" d="M1263.9,585.2v-56.5h-67.8v56.5H1263.9z M1202.9,535.8h54.2v35.3h-54.2V535.8z"/>
			</g>
		</g>
	</g>
	<g>
		<g>
			<g>
				<path fill="#1E7A85" d="M1354.2,585.2v-56.5h-67.8v56.5H1354.2z M1293.2,535.8h54.2v35.3h-54.2V535.8z"/>
			</g>
		</g>
	</g>
	<g>
		<g>
			<g>
				<path fill="#1E7A85" d="M1444.5,585.2v-56.5h-67.8v56.5H1444.5z M1383.5,535.8h54.2v35.3h-54.2V535.8z"/>
			</g>
		</g>
	</g>
	<g>
		<path fill="#1E7A85" d="M1453.6,521.1H1187v-92.8h266.6V521.1z M1188.8,519.3h262.9v-89.1h-262.9V519.3z"/>
	</g>
	<g>
		<g>
			<g>
				<path fill="#1E7A85" d="M999.1,585.2v-56.5h-67.8v56.5H999.1z M938.1,535.8h54.2v35.3h-54.2V535.8z"/>
			</g>
		</g>
	</g>
	<g>
		<g>
			<g>
				<path fill="#1E7A85" d="M1089.4,585.2v-56.5h-67.8v56.5H1089.4z M1028.4,535.8h54.2v35.3h-54.2V535.8z"/>
			</g>
		</g>
	</g>
	<g>
		<g>
			<g>
				<path fill="#1E7A85" d="M1179.8,585.2v-56.5H1112v56.5H1179.8z M1118.8,535.8h54.2v35.3h-54.2V535.8z"/>
			</g>
		</g>
	</g>
	<g>
		<path fill="#1E7A85" d="M1188.8,521.1H922.3v-92.8h266.6V521.1z M924.1,519.3H1187v-89.1H924.1V519.3z"/>
	</g>
	<g>
		<g>
			<g>
				<path fill="#1E7A85" d="M734.4,585.2v-56.5h-67.8v56.5H734.4z M673.4,535.8h54.2v35.3h-54.2V535.8z"/>
			</g>
		</g>
	</g>
	<g>
		<g>
			<g>
				<path fill="#1E7A85" d="M824.7,585.2v-56.5h-67.8v56.5H824.7z M763.7,535.8h54.2v35.3h-54.2V535.8z"/>
			</g>
		</g>
	</g>
	<g>
		<g>
			<g>
				<path fill="#1E7A85" d="M915,585.2v-56.5h-67.8v56.5H915z M854,535.8h54.2v35.3H854V535.8z"/>
			</g>
		</g>
	</g>
	<g>
		<path fill="#1E7A85" d="M924.1,521.1H657.5v-92.8h266.6V521.1z M659.3,519.3h262.9v-89.1H659.3V519.3z"/>
	</g>
	<g>
		<path fill="#1E7A85" d="M325.9,879.3h-92.8V612.7h92.8V879.3z M235,877.5h89.1V614.6H235V877.5z"/>
	</g>
	<g>
		<path fill="#1E7A85" d="M325.9,614.6h-92.8V348h92.8V614.6z M235,612.7h89.1V349.8H235V612.7z"/>
	</g>
	<g>
		<g>
			<g>
				<path fill="#1E7A85" d="M847.2,676.9v56.5H915v-56.5H847.2z M908.2,726.3H854V691h54.2V726.3z"/>
			</g>
		</g>
	</g>
	<g>
		<g>
			<g>
				<path fill="#1E7A85" d="M756.9,676.9v56.5h67.8v-56.5H756.9z M817.9,726.3h-54.2V691h54.2V726.3z"/>
			</g>
		</g>
	</g>
	<g>
		<g>
			<g>
				<path fill="#1E7A85" d="M666.6,676.9v56.5h67.8v-56.5H666.6z M727.6,726.3h-54.2V691h54.2V726.3z"/>
			</g>
		</g>
	</g>
	<g>
		<path fill="#1E7A85" d="M924.1,833.8H657.5v-92.8h266.6V833.8z M659.3,832h262.9v-89.1H659.3V832z"/>
	</g>
	<g>
		<g>
			<g>
				<path fill="#1E7A85" d="M1112,676.9v56.5h67.8v-56.5H1112z M1173,726.3h-54.2V691h54.2V726.3z"/>
			</g>
		</g>
	</g>
	<g>
		<g>
			<g>
				<path fill="#1E7A85" d="M1021.7,676.9v56.5h67.8v-56.5H1021.7z M1082.7,726.3h-54.2V691h54.2V726.3z"/>
			</g>
		</g>
	</g>
	<g>
		<g>
			<g>
				<path fill="#1E7A85" d="M931.3,676.9v56.5h67.8v-56.5H931.3z M992.3,726.3h-54.2V691h54.2V726.3z"/>
			</g>
		</g>
	</g>
	<g>
		<path fill="#1E7A85" d="M1188.8,833.8H922.3v-92.8h266.6V833.8z M924.1,832H1187v-89.1H924.1V832z"/>
	</g>
	<g>
		<g>
			<g>
				<path fill="#1E7A85" d="M1376.7,676.9v56.5h67.8v-56.5H1376.7z M1437.7,726.3h-54.2V691h54.2V726.3z"/>
			</g>
		</g>
	</g>
	<g>
		<g>
			<g>
				<path fill="#1E7A85" d="M1286.4,676.9v56.5h67.8v-56.5H1286.4z M1347.4,726.3h-54.2V691h54.2V726.3z"/>
			</g>
		</g>
	</g>
	<g>
		<g>
			<g>
				<path fill="#1E7A85" d="M1196.1,676.9v56.5h67.8v-56.5H1196.1z M1257.1,726.3h-54.2V691h54.2V726.3z"/>
			</g>
		</g>
	</g>
	<g>
		<path fill="#1E7A85" d="M1453.6,833.8H1187v-92.8h266.6V833.8z M1188.8,832h262.9v-89.1h-262.9V832z"/>
	</g>
	<g>
		<g>
			<g>
				<path fill="#1E7A85" d="M1263.9,989v-56.5h-67.8V989H1263.9z M1202.9,939.5h54.2v35.3h-54.2V939.5z"/>
			</g>
		</g>
	</g>
	<g>
		<g>
			<g>
				<path fill="#1E7A85" d="M1354.2,989v-56.5h-67.8V989H1354.2z M1293.2,939.5h54.2v35.3h-54.2V939.5z"/>
			</g>
		</g>
	</g>
	<g>
		<g>
			<g>
				<path fill="#1E7A85" d="M1444.5,989v-56.5h-67.8V989H1444.5z M1383.5,939.5h54.2v35.3h-54.2V939.5z"/>
			</g>
		</g>
	</g>
	<g>
		<path fill="#1E7A85" d="M1453.6,924.8H1187V832h266.6V924.8z M1188.8,923h262.9v-89.1h-262.9V923z"/>
	</g>
	<g>
		<g>
			<g>
				<path fill="#1E7A85" d="M999.1,989v-56.5h-67.8V989H999.1z M938.1,939.5h54.2v35.3h-54.2V939.5z"/>
			</g>
		</g>
	</g>
	<g>
		<g>
			<g>
				<path fill="#1E7A85" d="M1089.4,989v-56.5h-67.8V989H1089.4z M1028.4,939.5h54.2v35.3h-54.2V939.5z"/>
			</g>
		</g>
	</g>
	<g>
		<g>
			<g>
				<path fill="#1E7A85" d="M1179.8,989v-56.5H1112V989H1179.8z M1118.8,939.5h54.2v35.3h-54.2V939.5z"/>
			</g>
		</g>
	</g>
	<g>
		<path fill="#1E7A85" d="M1188.8,924.8H922.3V832h266.6V924.8z M924.1,923H1187v-89.1H924.1V923z"/>
	</g>
	<g>
		<g>
			<g>
				<path fill="#1E7A85" d="M734.4,989v-56.5h-67.8V989H734.4z M673.4,939.5h54.2v35.3h-54.2V939.5z"/>
			</g>
		</g>
	</g>
	<g>
		<g>
			<g>
				<path fill="#1E7A85" d="M824.7,989v-56.5h-67.8V989H824.7z M763.7,939.5h54.2v35.3h-54.2V939.5z"/>
			</g>
		</g>
	</g>
	<g>
		<g>
			<g>
				<path fill="#1E7A85" d="M915,989v-56.5h-67.8V989H915z M854,939.5h54.2v35.3H854V939.5z"/>
			</g>
		</g>
	</g>
	<g>
		<path fill="#1E7A85" d="M924.1,924.8H657.5V832h266.6V924.8z M659.3,923h262.9v-89.1H659.3V923z"/>
	</g>
	<g>
		<g>
			<g>
				<path fill="#1E7A85" d="M166,689.6h56.5v-67.8H166V689.6z M215.4,628.6v54.2h-35.3v-54.2H215.4z"/>
			</g>
		</g>
	</g>
	<g>
		<g>
			<g>
				<path fill="#1E7A85" d="M166,779.9h56.5v-67.8H166V779.9z M215.4,718.9v54.2h-35.3v-54.2H215.4z"/>
			</g>
		</g>
	</g>
	<g>
		<g>
			<g>
				<path fill="#1E7A85" d="M166,870.3h56.5v-67.8H166V870.3z M215.4,809.3v54.2h-35.3v-54.2H215.4z"/>
			</g>
		</g>
	</g>
	<g>
		<g>
			<g>
				<path fill="#1E7A85" d="M166,424.8h56.5v-67.8H166V424.8z M215.4,363.8v54.2h-35.3v-54.2H215.4z"/>
			</g>
		</g>
	</g>
	<g>
		<g>
			<g>
				<path fill="#1E7A85" d="M166,515.2h56.5v-67.8H166V515.2z M215.4,454.2v54.2h-35.3v-54.2H215.4z"/>
			</g>
		</g>
	</g>
	<g>
		<g>
			<g>
				<path fill="#1E7A85" d="M166,605.5h56.5v-67.8H166V605.5z M215.4,544.5v54.2h-35.3v-54.2H215.4z"/>
			</g>
		</g>
	</g>
</g>
</svg>
