<?xml version="1.0" encoding="utf-8"?>
<!-- Generator: Adobe Illustrator 18.1.1, SVG Export Plug-In . SVG Version: 6.00 Build 0)  -->
<!DOCTYPE svg PUBLIC "-//W3C//DTD SVG 1.1//EN" "http://www.w3.org/Graphics/SVG/1.1/DTD/svg11.dtd">
<svg version="1.1" id="Layer_1" xmlns="http://www.w3.org/2000/svg" xmlns:xlink="http://www.w3.org/1999/xlink" x="0px" y="0px"
	 viewBox="0 0 900 566" enable-background="new 0 0 900 566" xml:space="preserve">
<rect fill="none" width="900" height="566"/>
<g>
	<g>
		<path fill="#1E7A85" d="M759.1,469h-26.7v32h26.7V469z M735.8,497.7v-25.6h16.7v25.6H735.8z"/>
	</g>
</g>
<rect x="687.7" y="464.7" fill="none" stroke="#1E7A85" stroke-width="0.9577" stroke-miterlimit="10" width="40.5" height="40.5"/>
<g>
	<g>
		<path fill="#1E7A85" d="M759.1,402.8h-26.7v32h26.7V402.8z M735.8,431.6V406h16.7v25.6H735.8z"/>
	</g>
</g>
<rect x="687.7" y="398.5" fill="none" stroke="#1E7A85" stroke-width="0.9577" stroke-miterlimit="10" width="40.5" height="40.5"/>
<g>
	<g>
		<path fill="#1E7A85" d="M759.1,336.6h-26.7v32h26.7V336.6z M735.8,365.4v-25.6h16.7v25.6H735.8z"/>
	</g>
</g>
<rect x="687.7" y="332.3" fill="none" stroke="#1E7A85" stroke-width="0.9577" stroke-miterlimit="10" width="40.5" height="40.5"/>
<g>
	<g>
		<path fill="#1E7A85" d="M759.1,270.4h-26.7v32h26.7V270.4z M735.8,299.2v-25.6h16.7v25.6H735.8z"/>
	</g>
</g>
<rect x="687.7" y="266.1" fill="none" stroke="#1E7A85" stroke-width="0.9577" stroke-miterlimit="10" width="40.5" height="40.5"/>
<g>
	<g>
		<path fill="#1E7A85" d="M759.1,204.2h-26.7v32h26.7V204.2z M735.8,233v-25.6h16.7V233H735.8z"/>
	</g>
</g>
<rect x="687.7" y="199.9" fill="none" stroke="#1E7A85" stroke-width="0.9577" stroke-miterlimit="10" width="40.5" height="40.5"/>
<g>
	<g>
		<path fill="#1E7A85" d="M759.1,138h-26.7v32h26.7V138z M735.8,166.8v-25.6h16.7v25.6H735.8z"/>
	</g>
</g>
<rect x="687.7" y="133.7" fill="none" stroke="#1E7A85" stroke-width="0.9577" stroke-miterlimit="10" width="40.5" height="40.5"/>
<g>
	<g>
		<path fill="#1E7A85" d="M594.7,469H568v32h26.7V469z M571.3,497.7v-25.6H588v25.6H571.3z"/>
	</g>
</g>
<rect x="523.2" y="464.7" fill="none" stroke="#1E7A85" stroke-width="0.9577" stroke-miterlimit="10" width="40.5" height="40.5"/>
<g>
	<g>
		<path fill="#1E7A85" d="M594.7,402.8H568v32h26.7V402.8z M571.3,431.6V406H588v25.6H571.3z"/>
	</g>
</g>
<rect x="523.2" y="398.5" fill="none" stroke="#1E7A85" stroke-width="0.9577" stroke-miterlimit="10" width="40.5" height="40.5"/>
<g>
	<g>
		<path fill="#1E7A85" d="M594.7,336.6H568v32h26.7V336.6z M571.3,365.4v-25.6H588v25.6H571.3z"/>
	</g>
</g>
<rect x="523.2" y="332.3" fill="none" stroke="#1E7A85" stroke-width="0.9577" stroke-miterlimit="10" width="40.5" height="40.5"/>
<g>
	<g>
		<path fill="#1E7A85" d="M594.7,270.4H568v32h26.7V270.4z M571.3,299.2v-25.6H588v25.6H571.3z"/>
	</g>
</g>
<rect x="523.2" y="266.1" fill="none" stroke="#1E7A85" stroke-width="0.9577" stroke-miterlimit="10" width="40.5" height="40.5"/>
<g>
	<g>
		<path fill="#1E7A85" d="M594.7,204.2H568v32h26.7V204.2z M571.3,233v-25.6H588V233H571.3z"/>
	</g>
</g>
<rect x="523.2" y="199.9" fill="none" stroke="#1E7A85" stroke-width="0.9577" stroke-miterlimit="10" width="40.5" height="40.5"/>
<g>
	<g>
		<path fill="#1E7A85" d="M594.7,138H568v32h26.7V138z M571.3,166.8v-25.6H588v25.6H571.3z"/>
	</g>
</g>
<rect x="523.2" y="133.7" fill="none" stroke="#1E7A85" stroke-width="0.9577" stroke-miterlimit="10" width="40.5" height="40.5"/>
<g>
	<g>
		<path fill="#1E7A85" d="M430.2,469h-26.7v32h26.7V469z M406.8,497.7v-25.6h16.7v25.6H406.8z"/>
	</g>
</g>
<rect x="358.7" y="464.7" fill="none" stroke="#1E7A85" stroke-width="0.9577" stroke-miterlimit="10" width="40.5" height="40.5"/>
<g>
	<g>
		<path fill="#1E7A85" d="M430.2,402.8h-26.7v32h26.7V402.8z M406.8,431.6V406h16.7v25.6H406.8z"/>
	</g>
</g>
<rect x="358.7" y="398.5" fill="none" stroke="#1E7A85" stroke-width="0.9577" stroke-miterlimit="10" width="40.5" height="40.5"/>
<g>
	<g>
		<path fill="#1E7A85" d="M430.2,336.6h-26.7v32h26.7V336.6z M406.8,365.4v-25.6h16.7v25.6H406.8z"/>
	</g>
</g>
<rect x="358.7" y="332.3" fill="none" stroke="#1E7A85" stroke-width="0.9577" stroke-miterlimit="10" width="40.5" height="40.5"/>
<g>
	<g>
		<path fill="#1E7A85" d="M430.2,270.4h-26.7v32h26.7V270.4z M406.8,299.2v-25.6h16.7v25.6H406.8z"/>
	</g>
</g>
<rect x="358.7" y="266.1" fill="none" stroke="#1E7A85" stroke-width="0.9577" stroke-miterlimit="10" width="40.5" height="40.5"/>
<g>
	<g>
		<path fill="#1E7A85" d="M430.2,204.2h-26.7v32h26.7V204.2z M406.8,233v-25.6h16.7V233H406.8z"/>
	</g>
</g>
<rect x="358.7" y="199.9" fill="none" stroke="#1E7A85" stroke-width="0.9577" stroke-miterlimit="10" width="40.5" height="40.5"/>
<g>
	<g>
		<path fill="#1E7A85" d="M430.2,138h-26.7v32h26.7V138z M406.8,166.8v-25.6h16.7v25.6H406.8z"/>
	</g>
</g>
<rect x="358.7" y="133.7" fill="none" stroke="#1E7A85" stroke-width="0.9577" stroke-miterlimit="10" width="40.5" height="40.5"/>
<rect x="56.4" y="266.1" fill="none" stroke="#1E7A85" stroke-width="0.9577" stroke-miterlimit="10" width="40.5" height="93.9"/>
<g>
	<g>
		<path fill="#1E7A85" d="M265.7,469H239v32h26.7V469z M242.4,497.7v-25.6H259v25.6H242.4z"/>
	</g>
</g>
<rect x="194.2" y="464.7" fill="none" stroke="#1E7A85" stroke-width="0.9577" stroke-miterlimit="10" width="40.5" height="40.5"/>
<g>
	<g>
		<path fill="#1E7A85" d="M265.7,402.8H239v32h26.7V402.8z M242.4,431.6V406H259v25.6H242.4z"/>
	</g>
</g>
<rect x="194.2" y="398.5" fill="none" stroke="#1E7A85" stroke-width="0.9577" stroke-miterlimit="10" width="40.5" height="40.5"/>
<g>
	<g>
		<path fill="#1E7A85" d="M265.7,336.6H239v32h26.7V336.6z M242.4,365.4v-25.6H259v25.6H242.4z"/>
	</g>
</g>
<rect x="194.2" y="332.3" fill="none" stroke="#1E7A85" stroke-width="0.9577" stroke-miterlimit="10" width="40.5" height="40.5"/>
<g>
	<g>
		<path fill="#1E7A85" d="M265.7,270.4H239v32h26.7V270.4z M242.4,299.2v-25.6H259v25.6H242.4z"/>
	</g>
</g>
<rect x="194.2" y="266.1" fill="none" stroke="#1E7A85" stroke-width="0.9577" stroke-miterlimit="10" width="40.5" height="40.5"/>
<g>
	<g>
		<path fill="#1E7A85" d="M265.7,204.2H239v32h26.7V204.2z M242.4,233v-25.6H259V233H242.4z"/>
	</g>
</g>
<rect x="194.2" y="199.9" fill="none" stroke="#1E7A85" stroke-width="0.9577" stroke-miterlimit="10" width="40.5" height="40.5"/>
<g>
	<g>
		<path fill="#1E7A85" d="M265.7,138H239v32h26.7V138z M242.4,166.8v-25.6H259v25.6H242.4z"/>
	</g>
</g>
<rect x="194.2" y="133.7" fill="none" stroke="#1E7A85" stroke-width="0.9577" stroke-miterlimit="10" width="40.5" height="40.5"/>
</svg>
