<?xml version="1.0" encoding="utf-8"?>
<!-- Generator: Adobe Illustrator 18.1.1, SVG Export Plug-In . SVG Version: 6.00 Build 0)  -->
<!DOCTYPE svg PUBLIC "-//W3C//DTD SVG 1.1//EN" "http://www.w3.org/Graphics/SVG/1.1/DTD/svg11.dtd">
<svg version="1.1" id="Layer_1" xmlns="http://www.w3.org/2000/svg" xmlns:xlink="http://www.w3.org/1999/xlink" x="0px" y="0px"
	 viewBox="0 0 1920 1080" enable-background="new 0 0 1920 1080" xml:space="preserve">
<g>
	<g>
		<path fill="#1E7A85" d="M1144.5,415.3H926.6v-95.1h217.9V415.3z M928.4,413.5h214.2v-91.4H928.4V413.5z"/>
	</g>
	<g>
		<path fill="#1E7A85" d="M928.4,415.3H710.5v-95.1h217.9V415.3z M712.4,413.5h214.2v-91.4H712.4V413.5z"/>
	</g>
	<g>
		<path fill="#1E7A85" d="M712.4,415.3H494.5v-95.1h217.9V415.3z M496.3,413.5h214.2v-91.4H496.3V413.5z"/>
	</g>
	<g>
		<path fill="#1E7A85" d="M712.4,940.7H494.5v-95.1h217.9V940.7z M496.3,938.8h214.2v-91.4H496.3V938.8z"/>
	</g>
	<g>
		<path fill="#1E7A85" d="M928.4,940.7H710.6v-95.1h217.9V940.7z M712.4,938.8h214.2v-91.4H712.4V938.8z"/>
	</g>
	<g>
		<path fill="#1E7A85" d="M1144.5,940.7H926.6v-95.1h217.9V940.7z M928.4,938.8h214.2v-91.4H928.4V938.8z"/>
	</g>
	<g>
		<g>
			<g>
				<path fill="#1E7A85" d="M505.5,259.9v50h59.9v-50H505.5z M559.5,303.7h-47.9v-31.2h47.9V303.7z"/>
			</g>
		</g>
	</g>
	<g>
		<g>
			<g>
				<path fill="#1E7A85" d="M573.5,259.9v50h59.9v-50H573.5z M627.4,303.7h-47.9v-31.2h47.9V303.7z"/>
			</g>
		</g>
	</g>
	<g>
		<g>
			<g>
				<path fill="#1E7A85" d="M641.4,259.9v50h59.9v-50H641.4z M695.4,303.7h-47.9v-31.2h47.9V303.7z"/>
			</g>
		</g>
	</g>
	<g>
		<g>
			<g>
				<path fill="#1E7A85" d="M721.6,259.9v50h59.9v-50H721.6z M775.5,303.7h-48v-31.2h48V303.7z"/>
			</g>
		</g>
	</g>
	<g>
		<g>
			<g>
				<path fill="#1E7A85" d="M789.5,259.9v50h59.9v-50H789.5z M843.5,303.7h-48v-31.2h48V303.7z"/>
			</g>
		</g>
	</g>
	<g>
		<g>
			<g>
				<path fill="#1E7A85" d="M857.5,259.9v50h59.9v-50H857.5z M911.4,303.7h-48v-31.2h48V303.7z"/>
			</g>
		</g>
	</g>
	<g>
		<g>
			<g>
				<path fill="#1E7A85" d="M937.6,259.9v50h59.9v-50H937.6z M991.5,303.7h-47.9v-31.2h47.9V303.7z"/>
			</g>
		</g>
	</g>
	<g>
		<g>
			<g>
				<path fill="#1E7A85" d="M1005.6,259.9v50h59.9v-50H1005.6z M1059.5,303.7h-48v-31.2h48V303.7z"/>
			</g>
		</g>
	</g>
	<g>
		<g>
			<g>
				<path fill="#1E7A85" d="M1073.5,259.9v50h59.9v-50H1073.5z M1127.4,303.7h-47.9v-31.2h47.9V303.7z"/>
			</g>
		</g>
	</g>
	<g>
		<path fill="#1E7A85" d="M589.4,631.4h-95.1V413.5h95.1V631.4z M496.1,629.5h91.4V415.3h-91.4V629.5z"/>
	</g>
	<g>
		<g>
			<g>
				<path fill="#1E7A85" d="M434,620.4H484v-59.9H434V620.4z M477.7,566.4v48h-31.2v-48H477.7z"/>
			</g>
		</g>
	</g>
	<g>
		<g>
			<g>
				<path fill="#1E7A85" d="M434,552.4H484v-59.9H434V552.4z M477.7,498.5v47.9h-31.2v-47.9H477.7z"/>
			</g>
		</g>
	</g>
	<g>
		<g>
			<g>
				<path fill="#1E7A85" d="M434,484.5H484v-59.9H434V484.5z M477.7,430.5v47.9h-31.2v-47.9H477.7z"/>
			</g>
		</g>
	</g>
	<g>
		<g>
			<g>
				<path fill="#1E7A85" d="M1133.4,999.5v-49.9h-59.9v49.9H1133.4z M1079.5,955.8h47.9v31.2h-47.9V955.8z"/>
			</g>
		</g>
	</g>
	<g>
		<g>
			<g>
				<path fill="#1E7A85" d="M1065.5,999.5v-49.9h-59.9v49.9H1065.5z M1011.5,955.8h47.9v31.2h-47.9V955.8z"/>
			</g>
		</g>
	</g>
	<g>
		<g>
			<g>
				<path fill="#1E7A85" d="M997.5,999.5v-49.9h-59.9v49.9H997.5z M943.6,955.8h47.9v31.2h-47.9V955.8z"/>
			</g>
		</g>
	</g>
	<g>
		<path fill="#1E7A85" d="M1360.5,415.3h-217.9v-95.1h217.9V415.3z M1144.5,413.5h214.2v-91.4h-214.2V413.5z"/>
	</g>
	<g>
		<path fill="#1E7A85" d="M1360.5,940.7h-217.9v-95.1h217.9V940.7z M1144.5,938.8h214.2v-91.4h-214.2V938.8z"/>
	</g>
	<g>
		<g>
			<g>
				<path fill="#1E7A85" d="M1153.6,259.9v50h59.9v-50H1153.6z M1207.6,303.7h-47.9v-31.2h47.9V303.7z"/>
			</g>
		</g>
	</g>
	<g>
		<g>
			<g>
				<path fill="#1E7A85" d="M1221.6,259.9v50h59.9v-50H1221.6z M1275.5,303.7h-48v-31.2h48V303.7z"/>
			</g>
		</g>
	</g>
	<g>
		<g>
			<g>
				<path fill="#1E7A85" d="M1289.6,259.9v50h59.9v-50H1289.6z M1343.5,303.7h-47.9v-31.2h47.9V303.7z"/>
			</g>
		</g>
	</g>
	<g>
		<path fill="#1E7A85" d="M1360.7,631.4h-95.1V413.5h95.1V631.4z M1267.4,629.5h91.4V415.3h-91.4V629.5z"/>
	</g>
	<g>
		<g>
			<g>
				<path fill="#1E7A85" d="M1421,424.5h-49.9v59.9h49.9V424.5z M1377.3,478.5v-47.9h31.2v47.9H1377.3z"/>
			</g>
		</g>
	</g>
	<g>
		<g>
			<g>
				<path fill="#1E7A85" d="M1421,492.5h-49.9v59.9h49.9V492.5z M1377.3,546.4v-47.9h31.2v47.9H1377.3z"/>
			</g>
		</g>
	</g>
	<g>
		<g>
			<g>
				<path fill="#1E7A85" d="M1421,560.4h-49.9v59.9h49.9V560.4z M1377.3,614.4v-47.9h31.2v47.9H1377.3z"/>
			</g>
		</g>
	</g>
	<g>
		<path fill="#1E7A85" d="M589.4,847.4h-95.1V629.5h95.1V847.4z M496.1,845.6h91.4V631.4h-91.4V845.6z"/>
	</g>
	<g>
		<g>
			<g>
				<path fill="#1E7A85" d="M434,836.4H484v-59.9H434V836.4z M477.7,782.4v48h-31.2v-48H477.7z"/>
			</g>
		</g>
	</g>
	<g>
		<g>
			<g>
				<path fill="#1E7A85" d="M434,768.4H484v-59.9H434V768.4z M477.7,714.5v48h-31.2v-48H477.7z"/>
			</g>
		</g>
	</g>
	<g>
		<g>
			<g>
				<path fill="#1E7A85" d="M434,700.5H484v-59.9H434V700.5z M477.7,646.6v47.9h-31.2v-47.9H477.7z"/>
			</g>
		</g>
	</g>
	<g>
		<path fill="#1E7A85" d="M1360.7,847.4h-95.1V629.5h95.1V847.4z M1267.4,845.6h91.4V631.4h-91.4V845.6z"/>
	</g>
	<g>
		<g>
			<g>
				<path fill="#1E7A85" d="M1421,640.6h-49.9v59.9h49.9V640.6z M1377.3,694.5v-47.9h31.2v47.9H1377.3z"/>
			</g>
		</g>
	</g>
	<g>
		<g>
			<g>
				<path fill="#1E7A85" d="M1421,708.5h-49.9v59.9h49.9V708.5z M1377.3,762.4v-48h31.2v48H1377.3z"/>
			</g>
		</g>
	</g>
	<g>
		<g>
			<g>
				<path fill="#1E7A85" d="M1421,776.5h-49.9v59.9h49.9V776.5z M1377.3,830.4v-47.9h31.2v47.9H1377.3z"/>
			</g>
		</g>
	</g>
	<g>
		<g>
			<g>
				<path fill="#1E7A85" d="M1349.5,999.5v-49.9h-59.9v49.9H1349.5z M1295.5,955.8h47.9v31.2h-47.9V955.8z"/>
			</g>
		</g>
	</g>
	<g>
		<g>
			<g>
				<path fill="#1E7A85" d="M1281.5,999.5v-49.9h-59.9v49.9H1281.5z M1227.6,955.8h47.9v31.2h-47.9V955.8z"/>
			</g>
		</g>
	</g>
	<g>
		<g>
			<g>
				<path fill="#1E7A85" d="M1213.6,999.5v-49.9h-59.9v49.9H1213.6z M1159.6,955.8h47.9v31.2h-47.9V955.8z"/>
			</g>
		</g>
	</g>
	<g>
		<g>
			<g>
				<path fill="#1E7A85" d="M917.4,999.5v-49.9h-59.9v49.9H917.4z M863.4,955.8h48v31.2h-48V955.8z"/>
			</g>
		</g>
	</g>
	<g>
		<g>
			<g>
				<path fill="#1E7A85" d="M849.4,999.5v-49.9h-59.9v49.9H849.4z M795.5,955.8h48v31.2h-48V955.8z"/>
			</g>
		</g>
	</g>
	<g>
		<g>
			<g>
				<path fill="#1E7A85" d="M781.5,999.5v-49.9h-59.9v49.9H781.5z M727.5,955.8h48v31.2h-48V955.8z"/>
			</g>
		</g>
	</g>
	<g>
		<g>
			<g>
				<path fill="#1E7A85" d="M701.4,999.5v-49.9h-59.9v49.9H701.4z M647.4,955.8h48v31.2h-48V955.8z"/>
			</g>
		</g>
	</g>
	<g>
		<g>
			<g>
				<path fill="#1E7A85" d="M633.4,999.5v-49.9h-59.9v49.9H633.4z M579.5,955.8h48v31.2h-48V955.8z"/>
			</g>
		</g>
	</g>
	<g>
		<g>
			<g>
				<path fill="#1E7A85" d="M565.4,999.5v-49.9h-59.9v49.9H565.4z M511.5,955.8h47.9v31.2h-47.9V955.8z"/>
			</g>
		</g>
	</g>
</g>
</svg>
