<?xml version="1.0" encoding="utf-8"?>
<!-- Generator: Adobe Illustrator 18.1.1, SVG Export Plug-In . SVG Version: 6.00 Build 0)  -->
<!DOCTYPE svg PUBLIC "-//W3C//DTD SVG 1.1//EN" "http://www.w3.org/Graphics/SVG/1.1/DTD/svg11.dtd">
<svg version="1.1" id="Layer_1" xmlns="http://www.w3.org/2000/svg" xmlns:xlink="http://www.w3.org/1999/xlink" x="0px" y="0px"
	 viewBox="0 0 900 566" enable-background="new 0 0 900 566" xml:space="preserve">
<rect fill="none" width="900" height="566"/>
<rect x="430.8" y="168.5" fill="none" stroke="#1E7A85" stroke-width="0.9577" stroke-miterlimit="10" width="113.3" height="48.9"/>
<rect x="317.5" y="168.5" fill="none" stroke="#1E7A85" stroke-width="0.9577" stroke-miterlimit="10" width="113.3" height="48.9"/>
<rect x="204.2" y="168.5" fill="none" stroke="#1E7A85" stroke-width="0.9577" stroke-miterlimit="10" width="113.3" height="48.9"/>
<rect x="204.3" y="443.9" fill="none" stroke="#1E7A85" stroke-width="0.9577" stroke-miterlimit="10" width="113.3" height="48.9"/>
<rect x="317.5" y="443.9" fill="none" stroke="#1E7A85" stroke-width="0.9577" stroke-miterlimit="10" width="113.3" height="48.9"/>
<rect x="430.8" y="443.9" fill="none" stroke="#1E7A85" stroke-width="0.9577" stroke-miterlimit="10" width="113.3" height="48.9"/>
<g>
	<g>
		<path fill="#1E7A85" d="M209.5,136.4v26.2H241v-26.2H209.5z M237.8,159.3h-25.1V143h25.1V159.3z"/>
	</g>
</g>
<g>
	<g>
		<path fill="#1E7A85" d="M245.2,136.4v26.2h31.4v-26.2H245.2z M273.5,159.3h-25.1V143h25.1V159.3z"/>
	</g>
</g>
<g>
	<g>
		<path fill="#1E7A85" d="M280.8,136.4v26.2h31.4v-26.2H280.8z M309.1,159.3h-25.1V143h25.1V159.3z"/>
	</g>
</g>
<g>
	<g>
		<path fill="#1E7A85" d="M322.8,136.4v26.2h31.4v-26.2H322.8z M351.1,159.3H326V143h25.1V159.3z"/>
	</g>
</g>
<g>
	<g>
		<path fill="#1E7A85" d="M358.5,136.4v26.2h31.4v-26.2H358.5z M386.7,159.3h-25.1V143h25.1V159.3z"/>
	</g>
</g>
<g>
	<g>
		<path fill="#1E7A85" d="M394.1,136.4v26.2h31.4v-26.2H394.1z M422.4,159.3h-25.1V143h25.1V159.3z"/>
	</g>
</g>
<g>
	<g>
		<path fill="#1E7A85" d="M436.1,136.4v26.2h31.4v-26.2H436.1z M464.4,159.3h-25.1V143h25.1V159.3z"/>
	</g>
</g>
<g>
	<g>
		<path fill="#1E7A85" d="M471.7,136.4v26.2h31.4v-26.2H471.7z M500,159.3h-25.1V143H500V159.3z"/>
	</g>
</g>
<g>
	<g>
		<path fill="#1E7A85" d="M507.4,136.4v26.2h31.4v-26.2H507.4z M535.6,159.3h-25.1V143h25.1V159.3z"/>
	</g>
</g>
<rect x="204.2" y="217.4" fill="none" stroke="#1E7A85" stroke-width="0.9577" stroke-miterlimit="10" width="48.9" height="113.3"/>
<g>
	<g>
		<path fill="#1E7A85" d="M172.1,325.4h26.2v-31.4h-26.2V325.4z M195,297.1v25.1h-16.4v-25.1H195z"/>
	</g>
</g>
<g>
	<g>
		<path fill="#1E7A85" d="M172.1,289.7h26.2v-31.4h-26.2V289.7z M195,261.5v25.1h-16.4v-25.1H195z"/>
	</g>
</g>
<g>
	<g>
		<path fill="#1E7A85" d="M172.1,254.1h26.2v-31.4h-26.2V254.1z M195,225.8V251h-16.4v-25.1H195z"/>
	</g>
</g>
<g>
	<g>
		<path fill="#1E7A85" d="M538.8,524.2V498h-31.4v26.2H538.8z M510.5,501.3h25.1v16.4h-25.1V501.3z"/>
	</g>
</g>
<g>
	<g>
		<path fill="#1E7A85" d="M503.2,524.2V498h-31.4v26.2H503.2z M474.9,501.3H500v16.4h-25.1V501.3z"/>
	</g>
</g>
<g>
	<g>
		<path fill="#1E7A85" d="M467.5,524.2V498h-31.4v26.2H467.5z M439.2,501.3h25.1v16.4h-25.1V501.3z"/>
	</g>
</g>
<rect x="544.1" y="168.5" fill="none" stroke="#1E7A85" stroke-width="0.9577" stroke-miterlimit="10" width="113.3" height="48.9"/>
<rect x="544.1" y="443.9" fill="none" stroke="#1E7A85" stroke-width="0.9577" stroke-miterlimit="10" width="113.3" height="48.9"/>
<g>
	<g>
		<path fill="#1E7A85" d="M549.4,136.4v26.2h31.4v-26.2H549.4z M577.7,159.3h-25.1V143h25.1V159.3z"/>
	</g>
</g>
<g>
	<g>
		<path fill="#1E7A85" d="M585,136.4v26.2h31.4v-26.2H585z M613.3,159.3h-25.1V143h25.1V159.3z"/>
	</g>
</g>
<g>
	<g>
		<path fill="#1E7A85" d="M620.6,136.4v26.2h31.4v-26.2H620.6z M648.9,159.3h-25.1V143h25.1V159.3z"/>
	</g>
</g>
<rect x="608.6" y="217.4" fill="none" stroke="#1E7A85" stroke-width="0.9577" stroke-miterlimit="10" width="48.9" height="113.3"/>
<g>
	<g>
		<path fill="#1E7A85" d="M689.6,222.7h-26.2v31.4h26.2V222.7z M666.6,251v-25.1H683V251H666.6z"/>
	</g>
</g>
<g>
	<g>
		<path fill="#1E7A85" d="M689.6,258.3h-26.2v31.4h26.2V258.3z M666.6,286.6v-25.1H683v25.1H666.6z"/>
	</g>
</g>
<g>
	<g>
		<path fill="#1E7A85" d="M689.6,293.9h-26.2v31.4h26.2V293.9z M666.6,322.2v-25.1H683v25.1H666.6z"/>
	</g>
</g>
<rect x="204.2" y="330.7" fill="none" stroke="#1E7A85" stroke-width="0.9577" stroke-miterlimit="10" width="48.9" height="113.3"/>
<g>
	<g>
		<path fill="#1E7A85" d="M172.1,438.6h26.2v-31.4h-26.2V438.6z M195,410.4v25.1h-16.4v-25.1H195z"/>
	</g>
</g>
<g>
	<g>
		<path fill="#1E7A85" d="M172.1,403h26.2v-31.4h-26.2V403z M195,374.7v25.1h-16.4v-25.1H195z"/>
	</g>
</g>
<g>
	<g>
		<path fill="#1E7A85" d="M172.1,367.4h26.2V336h-26.2V367.4z M195,339.1v25.1h-16.4v-25.1H195z"/>
	</g>
</g>
<rect x="608.6" y="330.7" fill="none" stroke="#1E7A85" stroke-width="0.9577" stroke-miterlimit="10" width="48.9" height="113.3"/>
<g>
	<g>
		<path fill="#1E7A85" d="M689.6,336h-26.2v31.4h26.2V336z M666.6,364.2v-25.1H683v25.1H666.6z"/>
	</g>
</g>
<g>
	<g>
		<path fill="#1E7A85" d="M689.6,371.6h-26.2V403h26.2V371.6z M666.6,399.9v-25.1H683v25.1H666.6z"/>
	</g>
</g>
<g>
	<g>
		<path fill="#1E7A85" d="M689.6,407.2h-26.2v31.4h26.2V407.2z M666.6,435.5v-25.1H683v25.1H666.6z"/>
	</g>
</g>
<g>
	<g>
		<path fill="#1E7A85" d="M652.1,524.2V498h-31.4v26.2H652.1z M623.8,501.3h25.1v16.4h-25.1V501.3z"/>
	</g>
</g>
<g>
	<g>
		<path fill="#1E7A85" d="M616.4,524.2V498H585v26.2H616.4z M588.1,501.3h25.1v16.4h-25.1V501.3z"/>
	</g>
</g>
<g>
	<g>
		<path fill="#1E7A85" d="M580.8,524.2V498h-31.4v26.2H580.8z M552.5,501.3h25.1v16.4h-25.1V501.3z"/>
	</g>
</g>
<g>
	<g>
		<path fill="#1E7A85" d="M425.5,524.2V498h-31.4v26.2H425.5z M397.2,501.3h25.1v16.4h-25.1V501.3z"/>
	</g>
</g>
<g>
	<g>
		<path fill="#1E7A85" d="M389.9,524.2V498h-31.4v26.2H389.9z M361.6,501.3h25.1v16.4h-25.1V501.3z"/>
	</g>
</g>
<g>
	<g>
		<path fill="#1E7A85" d="M354.2,524.2V498h-31.4v26.2H354.2z M326,501.3h25.1v16.4H326V501.3z"/>
	</g>
</g>
<g>
	<g>
		<path fill="#1E7A85" d="M312.2,524.2V498h-31.4v26.2H312.2z M283.9,501.3h25.1v16.4h-25.1V501.3z"/>
	</g>
</g>
<g>
	<g>
		<path fill="#1E7A85" d="M276.6,524.2V498h-31.4v26.2H276.6z M248.3,501.3h25.1v16.4h-25.1V501.3z"/>
	</g>
</g>
<g>
	<g>
		<path fill="#1E7A85" d="M241,524.2V498h-31.4v26.2H241z M212.7,501.3h25.1v16.4h-25.1V501.3z"/>
	</g>
</g>
</svg>
