<?xml version="1.0" encoding="utf-8"?>
<!-- Generator: Adobe Illustrator 18.1.1, SVG Export Plug-In . SVG Version: 6.00 Build 0)  -->
<!DOCTYPE svg PUBLIC "-//W3C//DTD SVG 1.1//EN" "http://www.w3.org/Graphics/SVG/1.1/DTD/svg11.dtd">
<svg version="1.1" id="Layer_1" xmlns="http://www.w3.org/2000/svg" xmlns:xlink="http://www.w3.org/1999/xlink" x="0px" y="0px"
	 viewBox="0 0 1920 1080" enable-background="new 0 0 1920 1080" xml:space="preserve">
<g>
	<g>
		<g>
			<g>
				<polygon fill="#FFFFFF" points="814.7,158.3 814.7,253.2 912.6,253.2 912.6,158.3 877.7,158.3 877.7,143.8 889.3,143.8 
					863.7,112 838,143.8 849.7,143.8 849.7,158.3 				"/>
			</g>
			<g>
				<path fill="#1E7A85" d="M913.5,254.1h-99.7v-96.7h34.9v-12.8h-12.6l27.5-34.1l27.5,34.1h-12.6v12.8h34.9V254.1z M815.7,252.3h96
					v-93.1h-34.9v-16.4h10.6l-23.7-29.4L840,142.8h10.6v16.4h-34.9V252.3z"/>
			</g>
		</g>
	</g>
	<g>
		<g>
			<g>
				<polygon fill="#FFFFFF" points="1654.3,390.8 1559.4,390.8 1559.4,488.7 1654.3,488.7 1654.3,453.7 1668.9,453.7 1668.9,465.4 
					1700.7,439.7 1668.9,414.1 1668.9,425.8 1654.3,425.8 				"/>
			</g>
			<g>
				<path fill="#1E7A85" d="M1655.2,489.6h-96.7v-99.7h96.7v34.9h12.8v-12.6l34.1,27.5l-34.1,27.5v-12.6h-12.8V489.6z M1560.3,487.8
					h93.1v-34.9h16.4v10.6l29.4-23.7l-29.4-23.7v10.6h-16.4v-34.9h-93.1V487.8z"/>
			</g>
		</g>
	</g>
	<g>
		<g>
			<g>
				<polygon fill="#FFFFFF" points="1654.3,668.2 1559.4,668.2 1559.4,766.1 1654.3,766.1 1654.3,731.1 1668.9,731.1 1668.9,742.8 
					1700.7,717.1 1668.9,691.5 1668.9,703.2 1654.3,703.2 				"/>
			</g>
			<g>
				<path fill="#1E7A85" d="M1655.2,767h-96.7v-99.7h96.7v34.9h12.8v-12.6l34.1,27.5l-34.1,27.5V732h-12.8V767z M1560.3,765.2h93.1
					v-35h16.4v10.6l29.4-23.7l-29.4-23.7v10.6h-16.4v-34.9h-93.1V765.2z"/>
			</g>
		</g>
	</g>
	<g>
		<g>
			<g>
				<polygon fill="#FFFFFF" points="912.6,998.5 912.6,903.6 814.7,903.6 814.7,998.5 849.7,998.5 849.7,1013.1 838,1013.1 
					863.7,1044.9 889.3,1013.1 877.7,1013.1 877.7,998.5 				"/>
			</g>
			<g>
				<path fill="#1E7A85" d="M863.7,1046.3l-27.5-34.1h12.6v-12.8h-34.9v-96.7h99.7v96.7h-34.9v12.8h12.6L863.7,1046.3z M840,1014
					l23.7,29.4l23.7-29.4h-10.6v-16.4h34.9v-93.1h-96v93.1h34.9v16.4H840z"/>
			</g>
		</g>
	</g>
	<g>
		<g>
			<g>
				<polygon fill="#FFFFFF" points="184.7,830.1 279.5,830.1 279.5,732.3 184.7,732.3 184.7,767.2 170.1,767.2 170.1,755.6 
					138.3,781.2 170.1,806.8 170.1,795.2 184.7,795.2 				"/>
			</g>
			<g>
				<path fill="#1E7A85" d="M280.5,831h-96.7v-34.9H171v12.6l-34.1-27.5l34.1-27.5v12.6h12.8v-34.9h96.7V831z M185.6,829.2h93.1v-96
					h-93.1v34.9h-16.4v-10.6l-29.4,23.7l29.4,23.7v-10.6h16.4V829.2z"/>
			</g>
		</g>
	</g>
</g>
<g>
	<path fill="#1E7A85" d="M870.6,200l12.4,2.8l-41,31.8l14.8-24.9l-12.4-2.8l41-30.4L870.6,200z"/>
</g>
<g>
	<path fill="#1E7A85" d="M1613.6,435.5l12.4,2.8l-41,31.8l14.8-24.9l-12.4-2.8l41-30.4L1613.6,435.5z"/>
</g>
<g>
	<path fill="#1E7A85" d="M1613.6,713l12.4,2.8l-41,31.8l14.8-24.9l-12.4-2.8l41-30.4L1613.6,713z"/>
</g>
<g>
	<path fill="#1E7A85" d="M870.6,945.4l12.4,2.8L842,980l14.8-24.9l-12.4-2.8l41-30.4L870.6,945.4z"/>
</g>
<g>
	<path fill="#1E7A85" d="M238.5,776.9l12.4,2.8l-41,31.8l14.8-24.9l-12.4-2.8l41-30.4L238.5,776.9z"/>
</g>
</svg>
