<?xml version="1.0" encoding="utf-8"?>
<!-- Generator: Adobe Illustrator 18.1.1, SVG Export Plug-In . SVG Version: 6.00 Build 0)  -->
<!DOCTYPE svg PUBLIC "-//W3C//DTD SVG 1.1//EN" "http://www.w3.org/Graphics/SVG/1.1/DTD/svg11.dtd">
<svg version="1.1" id="Layer_1" xmlns="http://www.w3.org/2000/svg" xmlns:xlink="http://www.w3.org/1999/xlink" x="0px" y="0px"
	 viewBox="0 0 900 566" enable-background="new 0 0 900 566" xml:space="preserve">
<rect fill="none" width="900" height="566"/>
<rect x="27.2" y="210.6" fill="none" stroke="#1E7A85" stroke-width="0.9577" stroke-miterlimit="10" width="40.5" height="93.9"/>
<rect x="27.2" y="304.5" fill="none" stroke="#1E7A85" stroke-width="0.9577" stroke-miterlimit="10" width="40.5" height="93.9"/>
<g>
	<g>
		<path fill="#1E7A85" d="M654.3,152.8h-26.7v32h26.7V152.8z M631,181.6V156h16.7v25.6H631z"/>
	</g>
</g>
<g>
	<g>
		<path fill="#1E7A85" d="M198.9,103.7h-26.7v32h26.7V103.7z M175.6,132.5v-25.6h16.7v25.6H175.6z"/>
	</g>
</g>
<g>
	<g>
		<path fill="#1E7A85" d="M198.9,152.8h-26.7v32h26.7V152.8z M175.6,181.6V156h16.7v25.6H175.6z"/>
	</g>
</g>
<g>
	<g>
		<path fill="#1E7A85" d="M198.9,201.9h-26.7v32h26.7V201.9z M175.6,230.6v-25.6h16.7v25.6H175.6z"/>
	</g>
</g>
<g>
	<g>
		<path fill="#1E7A85" d="M198.9,250.9h-26.7v32h26.7V250.9z M175.6,279.7v-25.6h16.7v25.6H175.6z"/>
	</g>
</g>
<g>
	<g>
		<path fill="#1E7A85" d="M198.9,325.7h-26.7v32h26.7V325.7z M175.6,354.5v-25.6h16.7v25.6H175.6z"/>
	</g>
</g>
<g>
	<g>
		<path fill="#1E7A85" d="M198.9,374.8h-26.7v32h26.7V374.8z M175.6,403.5V378h16.7v25.6H175.6z"/>
	</g>
</g>
<g>
	<g>
		<path fill="#1E7A85" d="M198.9,423.8h-26.7v32h26.7V423.8z M175.6,452.6V427h16.7v25.6H175.6z"/>
	</g>
</g>
<g>
	<g>
		<path fill="#1E7A85" d="M198.9,472.9h-26.7v32h26.7V472.9z M175.6,501.7v-25.6h16.7v25.6H175.6z"/>
	</g>
</g>
<g>
	<g>
		<path fill="#1E7A85" d="M597.7,472.9h-26.7v32h26.7V472.9z M574.4,501.7v-25.6h16.7v25.6H574.4z"/>
	</g>
</g>
<g>
	<g>
		<path fill="#1E7A85" d="M597.7,152.8h-26.7v32h26.7V152.8z M574.4,181.6V156h16.7v25.6H574.4z"/>
	</g>
</g>
<g>
	<g>
		<path fill="#1E7A85" d="M255.5,103.7h-26.7v32h26.7V103.7z M232.1,132.5v-25.6h16.7v25.6H232.1z"/>
	</g>
</g>
<g>
	<g>
		<path fill="#1E7A85" d="M255.5,152.8h-26.7v32h26.7V152.8z M232.1,181.6V156h16.7v25.6H232.1z"/>
	</g>
</g>
<g>
	<g>
		<path fill="#1E7A85" d="M255.5,201.9h-26.7v32h26.7V201.9z M232.1,230.6v-25.6h16.7v25.6H232.1z"/>
	</g>
</g>
<g>
	<g>
		<path fill="#1E7A85" d="M255.5,250.9h-26.7v32h26.7V250.9z M232.1,279.7v-25.6h16.7v25.6H232.1z"/>
	</g>
</g>
<g>
	<g>
		<path fill="#1E7A85" d="M255.5,325.7h-26.7v32h26.7V325.7z M232.1,354.5v-25.6h16.7v25.6H232.1z"/>
	</g>
</g>
<g>
	<g>
		<path fill="#1E7A85" d="M255.5,374.8h-26.7v32h26.7V374.8z M232.1,403.5V378h16.7v25.6H232.1z"/>
	</g>
</g>
<g>
	<g>
		<path fill="#1E7A85" d="M255.5,423.8h-26.7v32h26.7V423.8z M232.1,452.6V427h16.7v25.6H232.1z"/>
	</g>
</g>
<g>
	<g>
		<path fill="#1E7A85" d="M255.5,472.9h-26.7v32h26.7V472.9z M232.1,501.7v-25.6h16.7v25.6H232.1z"/>
	</g>
</g>
<g>
	<g>
		<path fill="#1E7A85" d="M654.3,472.9h-26.7v32h26.7V472.9z M631,501.7v-25.6h16.7v25.6H631z"/>
	</g>
</g>
<g>
	<g>
		<path fill="#1E7A85" d="M597.7,201.9h-26.7v32h26.7V201.9z M574.4,230.6v-25.6h16.7v25.6H574.4z"/>
	</g>
</g>
<g>
	<g>
		<path fill="#1E7A85" d="M312,103.7h-26.7v32H312V103.7z M288.7,132.5v-25.6h16.7v25.6H288.7z"/>
	</g>
</g>
<g>
	<g>
		<path fill="#1E7A85" d="M312,152.8h-26.7v32H312V152.8z M288.7,181.6V156h16.7v25.6H288.7z"/>
	</g>
</g>
<g>
	<g>
		<path fill="#1E7A85" d="M312,201.9h-26.7v32H312V201.9z M288.7,230.6v-25.6h16.7v25.6H288.7z"/>
	</g>
</g>
<g>
	<g>
		<path fill="#1E7A85" d="M312,250.9h-26.7v32H312V250.9z M288.7,279.7v-25.6h16.7v25.6H288.7z"/>
	</g>
</g>
<g>
	<g>
		<path fill="#1E7A85" d="M312,325.7h-26.7v32H312V325.7z M288.7,354.5v-25.6h16.7v25.6H288.7z"/>
	</g>
</g>
<g>
	<g>
		<path fill="#1E7A85" d="M312,374.8h-26.7v32H312V374.8z M288.7,403.5V378h16.7v25.6H288.7z"/>
	</g>
</g>
<g>
	<g>
		<path fill="#1E7A85" d="M312,423.8h-26.7v32H312V423.8z M288.7,452.6V427h16.7v25.6H288.7z"/>
	</g>
</g>
<g>
	<g>
		<path fill="#1E7A85" d="M312,472.9h-26.7v32H312V472.9z M288.7,501.7v-25.6h16.7v25.6H288.7z"/>
	</g>
</g>
<g>
	<g>
		<path fill="#1E7A85" d="M654.3,423.8h-26.7v32h26.7V423.8z M631,452.6V427h16.7v25.6H631z"/>
	</g>
</g>
<g>
	<g>
		<path fill="#1E7A85" d="M597.7,250.9h-26.7v32h26.7V250.9z M574.4,279.7v-25.6h16.7v25.6H574.4z"/>
	</g>
</g>
<g>
	<g>
		<path fill="#1E7A85" d="M368.6,103.7H342v32h26.7V103.7z M345.3,132.5v-25.6H362v25.6H345.3z"/>
	</g>
</g>
<g>
	<g>
		<path fill="#1E7A85" d="M368.6,152.8H342v32h26.7V152.8z M345.3,181.6V156H362v25.6H345.3z"/>
	</g>
</g>
<g>
	<g>
		<path fill="#1E7A85" d="M368.6,201.9H342v32h26.7V201.9z M345.3,230.6v-25.6H362v25.6H345.3z"/>
	</g>
</g>
<g>
	<g>
		<path fill="#1E7A85" d="M368.6,250.9H342v32h26.7V250.9z M345.3,279.7v-25.6H362v25.6H345.3z"/>
	</g>
</g>
<g>
	<g>
		<path fill="#1E7A85" d="M368.6,325.7H342v32h26.7V325.7z M345.3,354.5v-25.6H362v25.6H345.3z"/>
	</g>
</g>
<g>
	<g>
		<path fill="#1E7A85" d="M368.6,374.8H342v32h26.7V374.8z M345.3,403.5V378H362v25.6H345.3z"/>
	</g>
</g>
<g>
	<g>
		<path fill="#1E7A85" d="M368.6,423.8H342v32h26.7V423.8z M345.3,452.6V427H362v25.6H345.3z"/>
	</g>
</g>
<g>
	<g>
		<path fill="#1E7A85" d="M368.6,472.9H342v32h26.7V472.9z M345.3,501.7v-25.6H362v25.6H345.3z"/>
	</g>
</g>
<g>
	<g>
		<path fill="#1E7A85" d="M654.3,374.8h-26.7v32h26.7V374.8z M631,403.5V378h16.7v25.6H631z"/>
	</g>
</g>
<g>
	<g>
		<path fill="#1E7A85" d="M597.7,325.7h-26.7v32h26.7V325.7z M574.4,354.5v-25.6h16.7v25.6H574.4z"/>
	</g>
</g>
<g>
	<g>
		<path fill="#1E7A85" d="M425.2,103.7h-26.7v32h26.7V103.7z M401.9,132.5v-25.6h16.7v25.6H401.9z"/>
	</g>
</g>
<g>
	<g>
		<path fill="#1E7A85" d="M425.2,152.8h-26.7v32h26.7V152.8z M401.9,181.6V156h16.7v25.6H401.9z"/>
	</g>
</g>
<g>
	<g>
		<path fill="#1E7A85" d="M425.2,201.9h-26.7v32h26.7V201.9z M401.9,230.6v-25.6h16.7v25.6H401.9z"/>
	</g>
</g>
<g>
	<g>
		<path fill="#1E7A85" d="M425.2,250.9h-26.7v32h26.7V250.9z M401.9,279.7v-25.6h16.7v25.6H401.9z"/>
	</g>
</g>
<g>
	<g>
		<path fill="#1E7A85" d="M425.2,325.7h-26.7v32h26.7V325.7z M401.9,354.5v-25.6h16.7v25.6H401.9z"/>
	</g>
</g>
<g>
	<g>
		<path fill="#1E7A85" d="M425.2,374.8h-26.7v32h26.7V374.8z M401.9,403.5V378h16.7v25.6H401.9z"/>
	</g>
</g>
<g>
	<g>
		<path fill="#1E7A85" d="M425.2,423.8h-26.7v32h26.7V423.8z M401.9,452.6V427h16.7v25.6H401.9z"/>
	</g>
</g>
<g>
	<g>
		<path fill="#1E7A85" d="M425.2,472.9h-26.7v32h26.7V472.9z M401.9,501.7v-25.6h16.7v25.6H401.9z"/>
	</g>
</g>
<g>
	<g>
		<path fill="#1E7A85" d="M654.3,325.7h-26.6v32h26.6V325.7z M631,354.5v-25.6h16.7v25.6H631z"/>
	</g>
</g>
<g>
	<g>
		<path fill="#1E7A85" d="M597.7,374.8h-26.7v32h26.7V374.8z M574.4,403.5V378h16.7v25.6H574.4z"/>
	</g>
</g>
<g>
	<g>
		<path fill="#1E7A85" d="M481.8,103.7h-26.7v32h26.7V103.7z M458.5,132.5v-25.6h16.7v25.6H458.5z"/>
	</g>
</g>
<g>
	<g>
		<path fill="#1E7A85" d="M481.8,152.8h-26.7v32h26.7V152.8z M458.5,181.6V156h16.7v25.6H458.5z"/>
	</g>
</g>
<g>
	<g>
		<path fill="#1E7A85" d="M481.8,201.9h-26.7v32h26.7V201.9z M458.5,230.6v-25.6h16.7v25.6H458.5z"/>
	</g>
</g>
<g>
	<g>
		<path fill="#1E7A85" d="M481.8,250.9h-26.7v32h26.7V250.9z M458.5,279.7v-25.6h16.7v25.6H458.5z"/>
	</g>
</g>
<g>
	<g>
		<path fill="#1E7A85" d="M481.8,325.7h-26.7v32h26.7V325.7z M458.5,354.5v-25.6h16.7v25.6H458.5z"/>
	</g>
</g>
<g>
	<g>
		<path fill="#1E7A85" d="M481.8,374.8h-26.7v32h26.7V374.8z M458.5,403.5V378h16.7v25.6H458.5z"/>
	</g>
</g>
<g>
	<g>
		<path fill="#1E7A85" d="M481.8,423.8h-26.7v32h26.7V423.8z M458.5,452.6V427h16.7v25.6H458.5z"/>
	</g>
</g>
<g>
	<g>
		<path fill="#1E7A85" d="M481.8,472.9h-26.7v32h26.7V472.9z M458.5,501.7v-25.6h16.7v25.6H458.5z"/>
	</g>
</g>
<g>
	<g>
		<path fill="#1E7A85" d="M654.3,250.9h-26.7v32h26.7V250.9z M631,279.7v-25.6h16.7v25.6H631z"/>
	</g>
</g>
<g>
	<g>
		<path fill="#1E7A85" d="M597.7,423.8h-26.7v32h26.7V423.8z M574.4,452.6V427h16.7v25.6H574.4z"/>
	</g>
</g>
<g>
	<g>
		<path fill="#1E7A85" d="M654.3,103.7h-26.7v32h26.7V103.7z M631,132.5v-25.6h16.7v25.6H631z"/>
	</g>
</g>
<g>
	<g>
		<path fill="#1E7A85" d="M538.4,152.8h-26.7v32h26.7V152.8z M515.1,181.6V156h16.7v25.6H515.1z"/>
	</g>
</g>
<g>
	<g>
		<path fill="#1E7A85" d="M538.4,201.9h-26.7v32h26.7V201.9z M515.1,230.6v-25.6h16.7v25.6H515.1z"/>
	</g>
</g>
<g>
	<g>
		<path fill="#1E7A85" d="M538.4,250.9h-26.7v32h26.7V250.9z M515.1,279.7v-25.6h16.7v25.6H515.1z"/>
	</g>
</g>
<g>
	<g>
		<path fill="#1E7A85" d="M538.4,325.7h-26.7v32h26.7V325.7z M515.1,354.5v-25.6h16.7v25.6H515.1z"/>
	</g>
</g>
<g>
	<g>
		<path fill="#1E7A85" d="M538.4,374.8h-26.7v32h26.7V374.8z M515.1,403.5V378h16.7v25.6H515.1z"/>
	</g>
</g>
<g>
	<g>
		<path fill="#1E7A85" d="M538.4,423.8h-26.7v32h26.7V423.8z M515.1,452.6V427h16.7v25.6H515.1z"/>
	</g>
</g>
<g>
	<g>
		<path fill="#1E7A85" d="M538.4,472.9h-26.7v32h26.7V472.9z M515.1,501.7v-25.6h16.7v25.6H515.1z"/>
	</g>
</g>
<g>
	<g>
		<path fill="#1E7A85" d="M654.3,201.9h-26.7v32h26.7V201.9z M631,230.6v-25.6h16.7v25.6H631z"/>
	</g>
</g>
</svg>
