<?xml version="1.0" encoding="utf-8"?>
<!-- Generator: Adobe Illustrator 18.1.1, SVG Export Plug-In . SVG Version: 6.00 Build 0)  -->
<!DOCTYPE svg PUBLIC "-//W3C//DTD SVG 1.1//EN" "http://www.w3.org/Graphics/SVG/1.1/DTD/svg11.dtd">
<svg version="1.1" id="Layer_1" xmlns="http://www.w3.org/2000/svg" xmlns:xlink="http://www.w3.org/1999/xlink" x="0px" y="0px"
	 viewBox="0 0 1920 1080" enable-background="new 0 0 1920 1080" xml:space="preserve">
<g>
	<g>
		<g>
			<path fill="#1E7A85" d="M1492.8,115.2v45.9h55v-45.9H1492.8z M1542.3,155.4h-44v-28.7h44V155.4z"/>
		</g>
	</g>
	<g>
		<g>
			<path fill="#1E7A85" d="M1431.4,115.2v45.9h55v-45.9H1431.4z M1481,155.4h-44v-28.7h44V155.4z"/>
		</g>
	</g>
	<g>
		<g>
			<path fill="#1E7A85" d="M1370.1,115.2v45.9h55v-45.9H1370.1z M1419.6,155.4h-44v-28.7h44V155.4z"/>
		</g>
	</g>
	<g>
		<g>
			<path fill="#1E7A85" d="M1308.8,115.2v45.9h55v-45.9H1308.8z M1358.3,155.4h-44v-28.7h44V155.4z"/>
		</g>
	</g>
	<g>
		<g>
			<path fill="#1E7A85" d="M197.6,1040.9V995h-55v45.9H197.6z M148.1,1000.8h44v28.7h-44V1000.8z"/>
		</g>
	</g>
	<g>
		<g>
			<path fill="#1E7A85" d="M962.4,115.2v45.9h55v-45.9H962.4z M1011.9,155.4h-44v-28.7h44V155.4z"/>
		</g>
	</g>
	<g>
		<g>
			<path fill="#1E7A85" d="M901,115.2v45.9h55v-45.9H901z M950.6,155.4h-44v-28.7h44V155.4z"/>
		</g>
	</g>
	<g>
		<g>
			<path fill="#1E7A85" d="M839.7,115.2v45.9h55v-45.9H839.7z M889.3,155.4h-44v-28.7h44V155.4z"/>
		</g>
	</g>
	<g>
		<g>
			<path fill="#1E7A85" d="M778.4,115.2v45.9h55v-45.9H778.4z M827.9,155.4h-44v-28.7h44V155.4z"/>
		</g>
	</g>
	<g>
		<g>
			<path fill="#1E7A85" d="M873.3,1040.9v-45.9h-55v45.9H873.3z M823.8,1000.8h44v28.7h-44V1000.8z"/>
		</g>
	</g>
	<g>
		<g>
			<path fill="#1E7A85" d="M934.6,1040.9v-45.9h-55v45.9H934.6z M885.1,1000.8h44v28.7h-44V1000.8z"/>
		</g>
	</g>
	<g>
		<g>
			<path fill="#1E7A85" d="M996,1040.9v-45.9h-55v45.9H996z M946.4,1000.8h44v28.7h-44V1000.8z"/>
		</g>
	</g>
	<g>
		<g>
			<path fill="#1E7A85" d="M1057.3,1040.9v-45.9h-55v45.9H1057.3z M1007.7,1000.8h44v28.7h-44V1000.8z"/>
		</g>
	</g>
	<g>
		<g>
			<path fill="#1E7A85" d="M1118.6,1040.9v-45.9h-55v45.9H1118.6z M1069.1,1000.8h44v28.7h-44V1000.8z"/>
		</g>
	</g>
	<g>
		<g>
			<path fill="#1E7A85" d="M1179.9,1040.9v-45.9h-55v45.9H1179.9z M1130.4,1000.8h44v28.7h-44V1000.8z"/>
		</g>
	</g>
	<g>
		<g>
			<path fill="#1E7A85" d="M1241.2,1040.9v-45.9h-55v45.9H1241.2z M1191.7,1000.8h44v28.7h-44V1000.8z"/>
		</g>
	</g>
	<g>
		<g>
			<path fill="#1E7A85" d="M1302.5,1040.9v-45.9h-55v45.9H1302.5z M1253,1000.8h44v28.7h-44V1000.8z"/>
		</g>
	</g>
	<g>
		<g>
			<path fill="#1E7A85" d="M1363.8,1040.9v-45.9h-55v45.9H1363.8z M1314.3,1000.8h44v28.7h-44V1000.8z"/>
		</g>
	</g>
	<g>
		<g>
			<path fill="#1E7A85" d="M717.1,115.2v45.9h55v-45.9H717.1z M766.6,155.4h-44v-28.7h44V155.4z"/>
		</g>
	</g>
	<g>
		<g>
			<path fill="#1E7A85" d="M655.8,115.2v45.9h55v-45.9H655.8z M705.3,155.4h-44v-28.7h44V155.4z"/>
		</g>
	</g>
	<g>
		<g>
			<path fill="#1E7A85" d="M594.5,115.2v45.9h55v-45.9H594.5z M644,155.4h-44v-28.7h44V155.4z"/>
		</g>
	</g>
	<g>
		<g>
			<path fill="#1E7A85" d="M533.2,115.2v45.9h55v-45.9H533.2z M582.7,155.4h-44v-28.7h44V155.4z"/>
		</g>
	</g>
	<g>
		<g>
			<path fill="#1E7A85" d="M471.9,115.2v45.9h55v-45.9H471.9z M521.4,155.4h-44v-28.7h44V155.4z"/>
		</g>
	</g>
	<g>
		<g>
			<path fill="#1E7A85" d="M410.5,115.2v45.9h55v-45.9H410.5z M460.1,155.4h-44v-28.7h44V155.4z"/>
		</g>
	</g>
	<g>
		<g>
			<path fill="#1E7A85" d="M1616.9,159.8H1571v55h45.9V159.8z M1576.8,209.3v-44h28.7v44H1576.8z"/>
		</g>
	</g>
	<g>
		<g>
			<path fill="#1E7A85" d="M348.5,115.2v45.9h55v-45.9H348.5z M398.1,155.4h-44v-28.7h44V155.4z"/>
		</g>
	</g>
	<g>
		<g>
			<path fill="#1E7A85" d="M382.8,1040.9v-45.9h-55v45.9H382.8z M333.3,1000.8h44v28.7h-44V1000.8z"/>
		</g>
	</g>
	<g>
		<g>
			<path fill="#1E7A85" d="M444.1,1040.9v-45.9h-55v45.9H444.1z M394.6,1000.8h44v28.7h-44V1000.8z"/>
		</g>
	</g>
	<g>
		<g>
			<path fill="#1E7A85" d="M505.4,1040.9v-45.9h-55v45.9H505.4z M455.9,1000.8h44v28.7h-44V1000.8z"/>
		</g>
	</g>
	<g>
		<g>
			<path fill="#1E7A85" d="M566.8,1040.9v-45.9h-55v45.9H566.8z M517.2,1000.8h44v28.7h-44V1000.8z"/>
		</g>
	</g>
	<g>
		<g>
			<path fill="#1E7A85" d="M628.1,1040.9v-45.9h-55v45.9H628.1z M578.6,1000.8h44v28.7h-44V1000.8z"/>
		</g>
	</g>
	<g>
		<g>
			<path fill="#1E7A85" d="M689.4,1040.9v-45.9h-55v45.9H689.4z M639.9,1000.8h44v28.7h-44V1000.8z"/>
		</g>
	</g>
	<g>
		<g>
			<path fill="#1E7A85" d="M750.7,1040.9v-45.9h-55v45.9H750.7z M701.2,1000.8h44v28.7h-44V1000.8z"/>
		</g>
	</g>
	<g>
		<g>
			<path fill="#1E7A85" d="M812,1040.9v-45.9h-55v45.9H812z M762.5,1000.8h44v28.7h-44V1000.8z"/>
		</g>
	</g>
	<g>
		<g>
			<path fill="#1E7A85" d="M1425.1,1040.9v-45.9h-55v45.9H1425.1z M1375.6,1000.8h44v28.7h-44V1000.8z"/>
		</g>
	</g>
	<g>
		<g>
			<path fill="#1E7A85" d="M1486.5,1040.9v-45.9h-55v45.9H1486.5z M1436.9,1000.8h44v28.7h-44V1000.8z"/>
		</g>
	</g>
	<g>
		<g>
			<path fill="#1E7A85" d="M1547.8,1040.9v-45.9h-55v45.9H1547.8z M1498.3,1000.8h44v28.7h-44V1000.8z"/>
		</g>
	</g>
	<g>
		<g>
			<path fill="#1E7A85" d="M1616.9,750.2H1571v55h45.9V750.2z M1576.8,799.7v-44h28.7v44H1576.8z"/>
		</g>
	</g>
	<g>
		<g>
			<path fill="#1E7A85" d="M1616.9,688.9H1571v55h45.9V688.9z M1576.8,738.4v-44h28.7v44H1576.8z"/>
		</g>
	</g>
	<g>
		<g>
			<path fill="#1E7A85" d="M1616.9,873.5H1571v55h45.9V873.5z M1576.8,923v-44h28.7v44H1576.8z"/>
		</g>
	</g>
	<g>
		<g>
			<path fill="#1E7A85" d="M1616.9,935H1571v55h45.9V935z M1576.8,984.6v-44h28.7v44H1576.8z"/>
		</g>
	</g>
	<g>
		<g>
			<path fill="#1E7A85" d="M1616.9,812.2H1571v55h45.9V812.2z M1576.8,861.7v-44h28.7v44H1576.8z"/>
		</g>
	</g>
	<g>
		<g>
			<path fill="#1E7A85" d="M1616.9,627.5H1571v55h45.9V627.5z M1576.8,677.1v-44h28.7v44H1576.8z"/>
		</g>
	</g>
	<g>
		<g>
			<path fill="#1E7A85" d="M1616.9,282.6H1571v55h45.9V282.6z M1576.8,332.1v-44h28.7v44H1576.8z"/>
		</g>
	</g>
	<g>
		<g>
			<path fill="#1E7A85" d="M1616.9,221.3H1571v55h45.9V221.3z M1576.8,270.8v-44h28.7v44H1576.8z"/>
		</g>
	</g>
	<g>
		<g>
			<path fill="#1E7A85" d="M1616.9,468H1571v55h45.9V468z M1576.8,517.6v-44h28.7v44H1576.8z"/>
		</g>
	</g>
	<g>
		<g>
			<path fill="#1E7A85" d="M1616.9,406.7H1571v55h45.9V406.7z M1576.8,456.3v-44h28.7v44H1576.8z"/>
		</g>
	</g>
	<g>
		<g>
			<path fill="#1E7A85" d="M1616.9,345.4H1571v55h45.9V345.4z M1576.8,394.9v-44h28.7v44H1576.8z"/>
		</g>
	</g>
	<g>
		<g>
			<path fill="#1E7A85" d="M259.1,1040.9v-45.9h-55v45.9H259.1z M209.6,1000.8h44v28.7h-44V1000.8z"/>
		</g>
	</g>
	<g>
		<g>
			<path fill="#1E7A85" d="M320.4,1040.9v-45.9h-55v45.9H320.4z M270.9,1000.8h44v28.7h-44V1000.8z"/>
		</g>
	</g>
</g>
</svg>
