<?xml version="1.0" encoding="UTF-8" standalone="no"?>
<!-- Created with Inkscape (http://www.inkscape.org/) -->

<svg
   xmlns:dc="http://purl.org/dc/elements/1.1/"
   xmlns:cc="http://creativecommons.org/ns#"
   xmlns:rdf="http://www.w3.org/1999/02/22-rdf-syntax-ns#"
   xmlns:svg="http://www.w3.org/2000/svg"
   xmlns="http://www.w3.org/2000/svg"
   xmlns:sodipodi="http://sodipodi.sourceforge.net/DTD/sodipodi-0.dtd"
   xmlns:inkscape="http://www.inkscape.org/namespaces/inkscape"
   width="45"
   height="50"
   id="svg4171"
   version="1.1"
   inkscape:version="0.48.3.1 r9886"
   sodipodi:docname="New document 3">
  <defs
     id="defs4173" />
  <sodipodi:namedview
     id="base"
     pagecolor="#ffffff"
     bordercolor="#666666"
     borderopacity="1.0"
     inkscape:pageopacity="0.0"
     inkscape:pageshadow="2"
     inkscape:zoom="2.8"
     inkscape:cx="-3.2405072"
     inkscape:cy="51.215611"
     inkscape:document-units="px"
     inkscape:current-layer="layer1"
     showgrid="false"
     inkscape:window-width="1380"
     inkscape:window-height="752"
     inkscape:window-x="1"
     inkscape:window-y="66"
     inkscape:window-maximized="0" />
  <metadata
     id="metadata4176">
    <rdf:RDF>
      <cc:Work
         rdf:about="">
        <dc:format>image/svg+xml</dc:format>
        <dc:type
           rdf:resource="http://purl.org/dc/dcmitype/StillImage" />
        <dc:title></dc:title>
      </cc:Work>
    </rdf:RDF>
  </metadata>
  <g
     inkscape:label="Layer 1"
     inkscape:groupmode="layer"
     id="layer1"
     transform="translate(0,-1002.3622)">
    <g
       id="g4196"
       transform="matrix(0.75876805,0,0,0.75876805,-378.56307,621.25488)">
      <path
         d="m 555.17729,548.12738 c -0.2075,8.24625 -7.29875,15.8 -15.485,16.62625 -7.365,0.74375 -13.14875,-2.06625 -17.55875,-7.90125 -0.56875,-0.75375 -1.11875,-1.52625 -1.625,-2.32375 -3.87125,-6.1 -7.74,-12.2025 -11.58375,-18.32125 -0.75875,-1.20875 -1.44875,-2.46625 -2.09,-3.7425 -0.34375,-0.68375 -0.59,-1.43875 -0.75,-2.18875 -0.34125,-1.60875 0.87875,-2.935 2.48125,-2.5675 1.155,0.26625 2.3125,0.745 3.32625,1.3625 2.905,1.76625 5.2925,4.19 7.64875,6.60625 0.20375,0.2075 0.775,0.42375 0.775,0.79875 l 0,-0.92875 c 0,-8.42125 -0.0288,-16.84125 -0.0213,-25.2625 0,-2.505 2.2075,-4.19375 4.5225,-3.48125 1.485,0.4575 2.09375,1.80625 2.09625,3.49625 0.0125,4.2225 -0.3475,8.445 -0.3475,12.6675 l 0,10.775 0,1.04875 2.5,0 0,-0.98625 c 0,-2.37875 0.25625,-4.75625 0.26125,-7.135 0,-2.13 1.59875,-3.7 3.58625,-3.71625 2.025,-0.0163 3.5875,1.58625 3.595,3.74875 0.0125,1.83875 0.0662,4.33875 0.0662,5.58875 l 2.33,0 c 0,-1.25 -0.0125,-1.44375 0,-2.16 0.0162,-0.70125 -0.0338,-1.43625 0.11,-2.11375 0.37375,-1.7675 2.0125,-2.90875 3.77125,-2.71125 1.72125,0.19375 2.7725,1.63625 2.80625,3.4 0.0312,1.67375 -0.28,3.345 -0.28,5.01875 l 0,1.06625 2.90875,0 c 0,0 -0.0125,-0.9075 0,-1.28875 0.0437,-1.9025 1.56,-3.47875 3.43625,-3.50125 1.92125,-0.0237 3.5275,1.4425 3.53875,3.3775 0.025,4.92625 0.1,9.825 -0.0238,14.74875 m 2.3525,-14.76125 c -0.0388,-4.37125 -4.71625,-7.08875 -8.57125,-5.03125 -0.225,0.11875 -0.44875,0.23875 -0.69625,0.37 -0.3125,-5.03375 -5.765,-7.495 -9.72375,-4.375 -0.75875,-1.7025 -2.25,-2.91 -4.06,-3.4575 -1.8275,-0.55125 -2.9125,-0.1825 -5.4125,0.8325 l 0,-10.66375 8.75,0 0,-2.5 -8.32625,0 c -0.0712,0 -0.14,-0.25 -0.2175,-0.475 -0.77375,-2.275 -2.89375,-3.7675 -5.2525,-3.84625 -3.37125,-0.1125 -6.12875,2.5175 -6.1375,5.91875 -0.0175,6.55125 -0.0662,13.15375 -0.0662,19.705 l 0,0.90625 c 0,-0.2625 -0.4425,-0.4325 -0.64375,-0.59 -1.18,-0.93 -2.295,-1.91 -3.52375,-2.77125 -1.45625,-1.0225 -3.0275,-1.79875 -4.8275,-2.05125 -2.45375,-0.34375 -4.78625,1.3025 -5.12,3.655 -0.17625,1.2375 0.075,2.4575 0.62875,3.535 1.1375,2.21625 2.28375,4.445 3.6375,6.53 3.52375,5.42875 7.22,10.7475 10.335,16.43375 0.40625,0.74125 0.895,1.44375 1.40125,2.12375 5.335,7.175 12.34875,10.61 21.34,9.29875 9.13375,-1.3325 16.325,-9.6 16.475,-18.84375 0.08,-4.9 0.055,-9.8025 0.0125,-14.70375"
         style="fill:#ffffff;fill-opacity:1;fill-rule:nonzero;stroke:none"
         id="path726"
         inkscape:connector-curvature="0" />
      <g
         style="fill:#ffffff"
         transform="matrix(1.25,0,0,-1.25,537.64676,515.84811)"
         id="g728">
        <path
           inkscape:connector-curvature="0"
           id="path730"
           style="fill:#ffffff;fill-opacity:1;fill-rule:nonzero;stroke:none"
           d="M 0,0 0,9.944 7.474,4.972 0,0 z" />
      </g>
      <g
         style="fill:#ffffff"
         transform="matrix(1.25,0,0,-1.25,509.17076,503.25061)"
         id="g732">
        <path
           inkscape:connector-curvature="0"
           id="path734"
           style="fill:#ffffff;fill-opacity:1;fill-rule:nonzero;stroke:none"
           d="M 0,0 0,-10.212 -7.675,-5.106 0,0 z" />
      </g>
      <path
         inkscape:connector-curvature="0"
         id="path736"
         style="fill:#ffffff;fill-opacity:1;fill-rule:nonzero;stroke:none"
         d="m 519.16316,510.91526 -10.1425,0 0,-2.5 10.1425,0 0,2.5 z" />
    </g>
  </g>
</svg>
