<?xml version="1.0" encoding="utf-8"?>
<!-- Generator: Adobe Illustrator 18.1.1, SVG Export Plug-In . SVG Version: 6.00 Build 0)  -->
<!DOCTYPE svg PUBLIC "-//W3C//DTD SVG 1.1//EN" "http://www.w3.org/Graphics/SVG/1.1/DTD/svg11.dtd">
<svg version="1.1" id="Layer_1" xmlns="http://www.w3.org/2000/svg" xmlns:xlink="http://www.w3.org/1999/xlink" x="0px" y="0px"
	 viewBox="0 0 900 566" enable-background="new 0 0 900 566" xml:space="preserve">
<rect fill="none" width="900" height="566"/>
<rect x="24.9" y="257.6" fill="none" stroke="#1E7A85" stroke-width="0.9577" stroke-miterlimit="10" width="40.5" height="93.9"/>
<rect x="24.9" y="163.7" fill="none" stroke="#1E7A85" stroke-width="0.9577" stroke-miterlimit="10" width="40.5" height="93.9"/>
<rect x="24.9" y="351.5" fill="none" stroke="#1E7A85" stroke-width="0.9577" stroke-miterlimit="10" width="40.5" height="93.9"/>
<g>
	<path fill="none" stroke="#1E7A85" stroke-width="0.9577" stroke-miterlimit="10" d="M259.9,110.8c-3,1.6-8-2.1-11.1-8.1
		c-3.1-6-3.2-12.2-0.2-13.8c3-1.6,8,2.1,11.1,8.1C262.9,103.1,262.9,109.3,259.9,110.8z"/>
	<path fill="none" stroke="#1E7A85" stroke-width="0.9577" stroke-miterlimit="10" d="M259.7,97.1c1.4,3.1,0.1,6.7-2.9,8.2
		c-3.1,1.5-6.8,0.1-8.2-2.9c-1.4-3.1-0.1-6.8,2.9-8.2C254.6,92.7,258.3,94,259.7,97.1z"/>
</g>
<g>
	<path fill="none" stroke="#1E7A85" stroke-width="0.9577" stroke-miterlimit="10" d="M313.5,118.2c-0.2,3.4-5.8,5.9-12.6,5.6
		c-6.8-0.3-12.2-3.3-12-6.7c0.1-3.4,5.8-5.9,12.6-5.6C308.3,111.8,313.7,114.8,313.5,118.2z"/>
	<path fill="none" stroke="#1E7A85" stroke-width="0.9577" stroke-miterlimit="10" d="M301.5,111.5c3.4,0.3,5.9,3.3,5.6,6.6
		c-0.3,3.4-3.3,5.9-6.6,5.6c-3.4-0.3-5.9-3.3-5.6-6.6C295.1,113.7,298.1,111.2,301.5,111.5z"/>
</g>
<g>
	<path fill="none" stroke="#1E7A85" stroke-width="0.9577" stroke-miterlimit="10" d="M325,171.9c2.9,1.8,2.2,8-1.5,13.7
		c-3.7,5.7-9,8.9-11.8,7c-2.9-1.8-2.2-8,1.5-13.7C316.8,173.3,322.1,170.1,325,171.9z"/>
	<path fill="none" stroke="#1E7A85" stroke-width="0.9577" stroke-miterlimit="10" d="M313.1,179c1.9-2.8,5.8-3.5,8.6-1.5
		c2.8,1.9,3.5,5.8,1.6,8.6c-1.9,2.8-5.8,3.5-8.6,1.6C311.9,185.6,311.2,181.8,313.1,179z"/>
</g>
<g>
	<path fill="none" stroke="#1E7A85" stroke-width="0.9577" stroke-miterlimit="10" d="M332.3,138.3c3-1.6,8,2.1,11.1,8.1
		c3.1,6,3.2,12.2,0.2,13.8c-3,1.6-8-2.1-11.1-8.1C329.4,146,329.3,139.9,332.3,138.3z"/>
	<path fill="none" stroke="#1E7A85" stroke-width="0.9577" stroke-miterlimit="10" d="M332.5,152.1c-1.4-3.1-0.1-6.7,2.9-8.2
		c3.1-1.5,6.7-0.1,8.2,2.9c1.5,3.1,0.1,6.8-2.9,8.2C337.7,156.5,334,155.2,332.5,152.1z"/>
</g>
<g>
	<path fill="none" stroke="#1E7A85" stroke-width="0.9577" stroke-miterlimit="10" d="M263.2,159.9c0.2-3.4,5.8-5.9,12.6-5.6
		c6.8,0.3,12.2,3.3,12,6.7c-0.2,3.4-5.8,5.9-12.6,5.6C268.4,166.3,263,163.3,263.2,159.9z"/>
	<path fill="none" stroke="#1E7A85" stroke-width="0.9577" stroke-miterlimit="10" d="M275.2,166.6c-3.4-0.3-5.9-3.3-5.6-6.6
		c0.3-3.4,3.2-5.9,6.6-5.6c3.4,0.3,5.9,3.3,5.6,6.6C281.6,164.4,278.6,166.9,275.2,166.6z"/>
</g>
<g>
	<path fill="none" stroke="#1E7A85" stroke-width="0.9577" stroke-miterlimit="10" d="M204.3,105.9c-2.9-1.8-2.2-8,1.5-13.7
		c3.7-5.7,9-8.9,11.8-7.1c2.9,1.8,2.2,8-1.5,13.7C212.4,104.6,207.2,107.7,204.3,105.9z"/>
	<path fill="none" stroke="#1E7A85" stroke-width="0.9577" stroke-miterlimit="10" d="M216.1,98.8c-1.9,2.8-5.8,3.5-8.6,1.5
		c-2.8-1.9-3.5-5.8-1.6-8.6c1.9-2.8,5.8-3.5,8.6-1.6C217.4,92.2,218.1,96,216.1,98.8z"/>
</g>
<g>
	<path fill="none" stroke="#1E7A85" stroke-width="0.9577" stroke-miterlimit="10" d="M152.5,168.3c3.4,0.4,5.5,6.2,4.7,12.9
		c-0.8,6.8-4.1,11.9-7.5,11.5c-3.4-0.4-5.5-6.2-4.7-12.9C145.8,173.1,149.1,167.9,152.5,168.3z"/>
	<path fill="none" stroke="#1E7A85" stroke-width="0.9577" stroke-miterlimit="10" d="M145,179.9c0.5-3.4,3.6-5.7,7-5.2
		c3.4,0.5,5.7,3.6,5.2,7c-0.5,3.4-3.6,5.7-7,5.2C146.8,186.4,144.5,183.2,145,179.9z"/>
</g>
<g>
	<path fill="none" stroke="#1E7A85" stroke-width="0.9577" stroke-miterlimit="10" d="M374.9,322.3c3.3-1,7.5,3.5,9.4,10
		c2,6.5,0.9,12.6-2.4,13.6c-3.3,1-7.5-3.5-9.4-10C370.6,329.4,371.7,323.3,374.9,322.3z"/>
	<path fill="none" stroke="#1E7A85" stroke-width="0.9577" stroke-miterlimit="10" d="M372.6,335.9c-0.9-3.3,1.1-6.6,4.4-7.5
		c3.3-0.9,6.7,1.1,7.5,4.4c0.9,3.3-1.1,6.7-4.4,7.5C376.8,341.2,373.5,339.2,372.6,335.9z"/>
</g>
<g>
	<path fill="none" stroke="#1E7A85" stroke-width="0.9577" stroke-miterlimit="10" d="M291.8,258.8c-0.4,3.4-6.2,5.5-12.9,4.7
		c-6.8-0.8-11.9-4.1-11.5-7.5c0.4-3.4,6.2-5.5,12.9-4.7C287,252.1,292.2,255.4,291.8,258.8z"/>
	<path fill="none" stroke="#1E7A85" stroke-width="0.9577" stroke-miterlimit="10" d="M280.2,251.3c3.4,0.5,5.7,3.6,5.2,7
		c-0.5,3.4-3.6,5.7-7,5.2c-3.4-0.5-5.7-3.7-5.2-7C273.7,253.1,276.8,250.8,280.2,251.3z"/>
</g>
<g>
	<path fill="none" stroke="#1E7A85" stroke-width="0.9577" stroke-miterlimit="10" d="M203.3,181.8c-0.4,3.4-6.2,5.5-12.9,4.7
		c-6.8-0.8-11.9-4.1-11.5-7.5c0.4-3.4,6.2-5.5,12.9-4.7C198.5,175.1,203.7,178.5,203.3,181.8z"/>
	<path fill="none" stroke="#1E7A85" stroke-width="0.9577" stroke-miterlimit="10" d="M191.7,174.3c3.3,0.5,5.7,3.6,5.2,7
		c-0.5,3.4-3.6,5.7-7,5.2c-3.4-0.5-5.7-3.6-5.2-7C185.2,176.1,188.4,173.8,191.7,174.3z"/>
</g>
<g>
	<path fill="none" stroke="#1E7A85" stroke-width="0.9577" stroke-miterlimit="10" d="M640.9,346.7c-1.6-3,2.1-8,8.1-11.1
		c6-3.1,12.2-3.2,13.8-0.2c1.6,3-2.1,8-8.1,11.1C648.6,349.6,642.5,349.7,640.9,346.7z"/>
	<path fill="none" stroke="#1E7A85" stroke-width="0.9577" stroke-miterlimit="10" d="M654.7,346.5c-3.1,1.4-6.7,0.1-8.2-2.9
		c-1.5-3.1-0.1-6.7,2.9-8.2c3.1-1.4,6.8-0.1,8.2,2.9C659.1,341.3,657.8,345,654.7,346.5z"/>
</g>
<g>
	<path fill="none" stroke="#1E7A85" stroke-width="0.9577" stroke-miterlimit="10" d="M674.3,493.8c-3.4-0.2-5.9-5.8-5.6-12.6
		c0.3-6.8,3.3-12.2,6.7-12c3.4,0.2,5.9,5.8,5.6,12.6C680.7,488.6,677.7,493.9,674.3,493.8z"/>
	<path fill="none" stroke="#1E7A85" stroke-width="0.9577" stroke-miterlimit="10" d="M681,481.7c-0.3,3.4-3.3,5.9-6.6,5.6
		c-3.4-0.3-5.9-3.3-5.6-6.6c0.3-3.4,3.3-5.9,6.6-5.6C678.8,475.4,681.3,478.3,681,481.7z"/>
</g>
<g>
	<path fill="none" stroke="#1E7A85" stroke-width="0.9577" stroke-miterlimit="10" d="M456.1,401.2c-1.8,2.9-8,2.2-13.7-1.5
		c-5.7-3.7-8.9-9-7-11.8c1.8-2.9,8-2.2,13.7,1.5C454.8,393,458,398.3,456.1,401.2z"/>
	<path fill="none" stroke="#1E7A85" stroke-width="0.9577" stroke-miterlimit="10" d="M449.1,389.3c2.8,1.9,3.5,5.8,1.5,8.6
		c-1.9,2.8-5.8,3.5-8.6,1.6c-2.8-1.9-3.5-5.8-1.6-8.6C442.4,388.1,446.3,387.4,449.1,389.3z"/>
</g>
<g>
	<path fill="none" stroke="#1E7A85" stroke-width="0.9577" stroke-miterlimit="10" d="M433.9,491.5c1.6,3-2.1,8-8.1,11.1
		c-6,3.1-12.2,3.2-13.8,0.2c-1.6-3,2.1-8,8.1-11.1C426.2,488.5,432.4,488.4,433.9,491.5z"/>
	<path fill="none" stroke="#1E7A85" stroke-width="0.9577" stroke-miterlimit="10" d="M420.1,491.7c3.1-1.4,6.7-0.1,8.2,2.9
		c1.5,3.1,0.1,6.7-2.9,8.2c-3.1,1.4-6.8,0.1-8.2-2.9C415.8,496.8,417.1,493.1,420.1,491.7z"/>
</g>
<g>
	<path fill="none" stroke="#1E7A85" stroke-width="0.9577" stroke-miterlimit="10" d="M379.2,463c3.4,0.2,5.9,5.8,5.6,12.6
		c-0.3,6.8-3.3,12.2-6.7,12c-3.4-0.2-5.9-5.8-5.6-12.6C372.7,468.3,375.8,462.9,379.2,463z"/>
	<path fill="none" stroke="#1E7A85" stroke-width="0.9577" stroke-miterlimit="10" d="M372.4,475.1c0.3-3.4,3.3-5.9,6.6-5.6
		c3.4,0.3,5.9,3.2,5.6,6.6c-0.3,3.4-3.3,5.9-6.6,5.6C374.7,481.5,372.2,478.5,372.4,475.1z"/>
</g>
<g>
	<path fill="none" stroke="#1E7A85" stroke-width="0.9577" stroke-miterlimit="10" d="M428.7,431.3c1.8-2.9,8-2.2,13.7,1.5
		c5.7,3.7,8.9,9,7.1,11.8c-1.8,2.9-8,2.2-13.7-1.5C430,439.5,426.8,434.2,428.7,431.3z"/>
	<path fill="none" stroke="#1E7A85" stroke-width="0.9577" stroke-miterlimit="10" d="M435.7,443.2c-2.8-1.9-3.5-5.8-1.5-8.6
		c1.9-2.8,5.8-3.5,8.6-1.6c2.8,1.9,3.5,5.8,1.6,8.6C442.4,444.4,438.5,445.1,435.7,443.2z"/>
</g>
<g>
	<path fill="none" stroke="#1E7A85" stroke-width="0.9577" stroke-miterlimit="10" d="M272.7,222.7c-0.4,3.4-6.2,5.5-12.9,4.7
		c-6.8-0.8-11.9-4.1-11.5-7.5c0.4-3.4,6.2-5.5,12.9-4.7C267.9,215.9,273.1,219.3,272.7,222.7z"/>
	<path fill="none" stroke="#1E7A85" stroke-width="0.9577" stroke-miterlimit="10" d="M261.1,215.1c3.4,0.5,5.7,3.6,5.2,7
		c-0.5,3.4-3.6,5.7-7,5.2c-3.4-0.5-5.7-3.6-5.2-7C254.6,217,257.8,214.6,261.1,215.1z"/>
</g>
<g>
	<path fill="none" stroke="#1E7A85" stroke-width="0.9577" stroke-miterlimit="10" d="M144.3,378.7c1,3.3-3.5,7.5-10,9.4
		c-6.5,2-12.6,0.9-13.6-2.4c-1-3.3,3.5-7.5,10-9.4C137.3,374.4,143.3,375.5,144.3,378.7z"/>
	<path fill="none" stroke="#1E7A85" stroke-width="0.9577" stroke-miterlimit="10" d="M130.7,376.4c3.3-0.9,6.6,1.1,7.5,4.4
		c0.9,3.3-1.1,6.7-4.4,7.5c-3.3,0.9-6.7-1.1-7.5-4.4C125.5,380.6,127.4,377.2,130.7,376.4z"/>
</g>
<g>
	<path fill="none" stroke="#1E7A85" stroke-width="0.9577" stroke-miterlimit="10" d="M169.9,227.5c-1.7-3,1.8-8.1,7.7-11.4
		c5.9-3.4,12.1-3.7,13.7-0.7c1.7,3-1.8,8.1-7.7,11.4C177.7,230.2,171.5,230.5,169.9,227.5z"/>
	<path fill="none" stroke="#1E7A85" stroke-width="0.9577" stroke-miterlimit="10" d="M183.6,226.8c-3,1.6-6.7,0.4-8.3-2.6
		c-1.6-3-0.4-6.7,2.6-8.3c3-1.6,6.7-0.4,8.3,2.6C187.8,221.5,186.6,225.3,183.6,226.8z"/>
</g>
<g>
	<path fill="none" stroke="#1E7A85" stroke-width="0.9577" stroke-miterlimit="10" d="M173.2,406.2c-3.4-0.4-5.5-6.2-4.7-12.9
		c0.8-6.8,4.1-11.9,7.5-11.5c3.4,0.4,5.5,6.2,4.7,12.9C180,401.4,176.6,406.6,173.2,406.2z"/>
	<path fill="none" stroke="#1E7A85" stroke-width="0.9577" stroke-miterlimit="10" d="M180.7,394.6c-0.5,3.3-3.6,5.7-7,5.2
		c-3.4-0.5-5.7-3.6-5.2-7c0.5-3.4,3.6-5.7,7-5.2C178.9,388.1,181.2,391.3,180.7,394.6z"/>
</g>
<g>
	<path fill="none" stroke="#1E7A85" stroke-width="0.9577" stroke-miterlimit="10" d="M744.8,130c-3.4-0.5-5.4-6.3-4.5-13
		c0.9-6.7,4.4-11.8,7.7-11.4c3.4,0.5,5.4,6.3,4.5,13C751.6,125.4,748.2,130.5,744.8,130z"/>
	<path fill="none" stroke="#1E7A85" stroke-width="0.9577" stroke-miterlimit="10" d="M752.5,118.6c-0.6,3.3-3.8,5.6-7.1,5
		c-3.4-0.6-5.6-3.8-5-7.1c0.6-3.4,3.8-5.6,7.1-5C750.9,112.1,753.1,115.3,752.5,118.6z"/>
</g>
<g>
	<path fill="none" stroke="#1E7A85" stroke-width="0.9577" stroke-miterlimit="10" d="M738.7,162.5c-2.1,2.7-8.1,1.5-13.5-2.6
		c-5.4-4.1-8.1-9.7-6-12.4c2.1-2.7,8.1-1.5,13.5,2.6C738.1,154.3,740.8,159.8,738.7,162.5z"/>
	<path fill="none" stroke="#1E7A85" stroke-width="0.9577" stroke-miterlimit="10" d="M732.7,150.1c2.6,2.2,3,6,0.8,8.7
		c-2.2,2.6-6.1,3-8.7,0.8c-2.6-2.2-3-6.1-0.8-8.7C726.2,148.3,730,148,732.7,150.1z"/>
</g>
<g>
	<path fill="none" stroke="#1E7A85" stroke-width="0.9577" stroke-miterlimit="10" d="M704.5,450.9c1.3,3.1-2.7,7.8-9,10.4
		c-6.3,2.6-12.4,2.1-13.7-1c-1.3-3.1,2.8-7.8,9-10.4C697,447.3,703.2,447.8,704.5,450.9z"/>
	<path fill="none" stroke="#1E7A85" stroke-width="0.9577" stroke-miterlimit="10" d="M690.7,450c3.2-1.2,6.7,0.4,7.9,3.6
		c1.2,3.2-0.4,6.7-3.6,7.9c-3.2,1.2-6.7-0.5-7.9-3.6C685.9,454.7,687.5,451.1,690.7,450z"/>
</g>
<g>
	<path fill="none" stroke="#1E7A85" stroke-width="0.9577" stroke-miterlimit="10" d="M731,469.3c3.4,0.4,5.4,6.3,4.5,13
		c-0.9,6.7-4.4,11.8-7.7,11.4c-3.4-0.5-5.4-6.3-4.5-13C724.2,473.9,727.7,468.8,731,469.3z"/>
	<path fill="none" stroke="#1E7A85" stroke-width="0.9577" stroke-miterlimit="10" d="M723.3,480.7c0.6-3.3,3.8-5.6,7.1-5
		c3.4,0.6,5.6,3.8,5,7.1c-0.6,3.3-3.8,5.6-7.1,5C725,487.2,722.7,484.1,723.3,480.7z"/>
</g>
<g>
	<path fill="none" stroke="#1E7A85" stroke-width="0.9577" stroke-miterlimit="10" d="M760.5,237.9c2.1-2.7,8.1-1.5,13.5,2.6
		c5.4,4.1,8.1,9.7,6,12.4c-2.1,2.7-8.1,1.5-13.5-2.6C761.1,246.1,758.4,240.6,760.5,237.9z"/>
	<path fill="none" stroke="#1E7A85" stroke-width="0.9577" stroke-miterlimit="10" d="M766.5,250.3c-2.6-2.2-3-6.1-0.8-8.7
		c2.2-2.6,6.1-3,8.7-0.8c2.6,2.2,3,6.1,0.8,8.7C773,252.1,769.1,252.5,766.5,250.3z"/>
</g>
<g>
	<path fill="none" stroke="#1E7A85" stroke-width="0.9577" stroke-miterlimit="10" d="M617.6,323.4c-1.3-3.1,2.7-7.8,9-10.4
		c6.3-2.6,12.4-2.1,13.7,1c1.3,3.1-2.8,7.8-9,10.4C625,327,618.9,326.5,617.6,323.4z"/>
	<path fill="none" stroke="#1E7A85" stroke-width="0.9577" stroke-miterlimit="10" d="M631.3,324.4c-3.2,1.2-6.7-0.4-7.9-3.6
		c-1.2-3.2,0.4-6.7,3.6-7.9c3.2-1.2,6.7,0.5,7.9,3.6C636.2,319.6,634.5,323.2,631.3,324.4z"/>
</g>
<g>
	<path fill="none" stroke="#1E7A85" stroke-width="0.9577" stroke-miterlimit="10" d="M277.8,330.8c2.5,2.2,1,8.2-3.5,13.3
		c-4.5,5.1-10.2,7.4-12.8,5.2c-2.6-2.3-1-8.2,3.5-13.3C269.5,330.8,275.2,328.5,277.8,330.8z"/>
	<path fill="none" stroke="#1E7A85" stroke-width="0.9577" stroke-miterlimit="10" d="M265,336c2.3-2.5,6.2-2.6,8.7-0.2
		c2.5,2.3,2.6,6.2,0.2,8.7c-2.3,2.5-6.2,2.6-8.7,0.2C262.8,342.3,262.7,338.4,265,336z"/>
</g>
<g>
	<path fill="none" stroke="#1E7A85" stroke-width="0.9577" stroke-miterlimit="10" d="M443.9,315.3c3.2,1.1,4.1,7.2,2,13.6
		c-2.1,6.5-6.5,10.8-9.7,9.8c-3.2-1.1-4.1-7.2-2-13.6C436.4,318.6,440.7,314.2,443.9,315.3z"/>
	<path fill="none" stroke="#1E7A85" stroke-width="0.9577" stroke-miterlimit="10" d="M434.2,325.1c1.2-3.2,4.7-4.8,7.9-3.6
		c3.2,1.2,4.8,4.7,3.6,7.9c-1.2,3.2-4.7,4.8-7.9,3.6C434.7,331.8,433,328.3,434.2,325.1z"/>
</g>
<g>
	<path fill="none" stroke="#1E7A85" stroke-width="0.9577" stroke-miterlimit="10" d="M415.4,312.5c-2.2,2.5-8.2,1-13.3-3.5
		c-5.1-4.5-7.4-10.2-5.2-12.8c2.2-2.6,8.2-1,13.3,3.5C415.4,304.2,417.7,310,415.4,312.5z"/>
	<path fill="none" stroke="#1E7A85" stroke-width="0.9577" stroke-miterlimit="10" d="M410.2,299.7c2.5,2.3,2.6,6.2,0.2,8.7
		c-2.3,2.5-6.2,2.6-8.7,0.2c-2.5-2.3-2.6-6.3-0.2-8.7C403.9,297.5,407.8,297.4,410.2,299.7z"/>
</g>
<g>
	<path fill="none" stroke="#1E7A85" stroke-width="0.9577" stroke-miterlimit="10" d="M303.5,436.6c-2.2,2.5-8.2,1-13.3-3.5
		c-5.1-4.5-7.4-10.2-5.2-12.8c2.3-2.5,8.2-1,13.3,3.5C303.5,428.3,305.8,434,303.5,436.6z"/>
	<path fill="none" stroke="#1E7A85" stroke-width="0.9577" stroke-miterlimit="10" d="M298.4,423.8c2.5,2.3,2.6,6.2,0.2,8.7
		c-2.3,2.5-6.2,2.6-8.7,0.2c-2.5-2.3-2.6-6.2-0.2-8.7C292,421.5,295.9,421.4,298.4,423.8z"/>
</g>
<g>
	<path fill="none" stroke="#1E7A85" stroke-width="0.9577" stroke-miterlimit="10" d="M543.7,231.2c2.8-2,8.2,0.9,12.2,6.4
		c4,5.5,4.9,11.6,2.2,13.6c-2.8,2-8.2-0.9-12.2-6.4C541.9,239.3,541,233.2,543.7,231.2z"/>
	<path fill="none" stroke="#1E7A85" stroke-width="0.9577" stroke-miterlimit="10" d="M545.9,244.9c-1.9-2.8-1.1-6.7,1.7-8.5
		c2.8-1.9,6.7-1.1,8.5,1.7c1.9,2.8,1.1,6.7-1.7,8.5C551.6,248.5,547.8,247.7,545.9,244.9z"/>
</g>
<g>
	<path fill="none" stroke="#1E7A85" stroke-width="0.9577" stroke-miterlimit="10" d="M575.2,281.8c-0.3-3.4,4.9-6.7,11.6-7.3
		c6.8-0.7,12.5,1.5,12.9,4.9c0.3,3.4-4.9,6.7-11.6,7.3C581.3,287.4,575.6,285.2,575.2,281.8z"/>
	<path fill="none" stroke="#1E7A85" stroke-width="0.9577" stroke-miterlimit="10" d="M588.1,286.7c-3.4,0.2-6.3-2.4-6.5-5.8
		c-0.2-3.4,2.4-6.3,5.8-6.5c3.4-0.2,6.3,2.4,6.5,5.8C594.1,283.6,591.5,286.5,588.1,286.7z"/>
</g>
<g>
	<path fill="none" stroke="#1E7A85" stroke-width="0.9577" stroke-miterlimit="10" d="M724.5,278.1c-3.1-1.4-3.3-7.6-0.5-13.8
		c2.8-6.2,7.6-10.1,10.7-8.7c3.1,1.4,3.3,7.6,0.5,13.8C732.4,275.7,727.6,279.5,724.5,278.1z"/>
	<path fill="none" stroke="#1E7A85" stroke-width="0.9577" stroke-miterlimit="10" d="M735.2,269.4c-1.5,3-5.2,4.3-8.2,2.8
		c-3-1.5-4.3-5.2-2.8-8.3c1.5-3,5.2-4.3,8.3-2.8C735.5,262.7,736.8,266.4,735.2,269.4z"/>
</g>
<g>
	<path fill="none" stroke="#1E7A85" stroke-width="0.9577" stroke-miterlimit="10" d="M635.7,212.9c-2.8,2-8.2-0.9-12.2-6.4
		c-4-5.5-4.9-11.6-2.2-13.6c2.8-2,8.2,0.9,12.2,6.4C637.5,204.9,638.5,211,635.7,212.9z"/>
	<path fill="none" stroke="#1E7A85" stroke-width="0.9577" stroke-miterlimit="10" d="M633.5,199.3c1.9,2.8,1.1,6.7-1.7,8.5
		c-2.8,1.9-6.7,1.1-8.5-1.7c-1.9-2.8-1.1-6.7,1.7-8.5C627.8,195.7,631.6,196.5,633.5,199.3z"/>
</g>
<g>
	<path fill="none" stroke="#1E7A85" stroke-width="0.9577" stroke-miterlimit="10" d="M606.2,190.7c0.3,3.4-4.9,6.7-11.6,7.3
		c-6.8,0.7-12.5-1.5-12.9-4.9c-0.3-3.4,4.9-6.7,11.7-7.3C600.2,185.1,605.9,187.3,606.2,190.7z"/>
	<path fill="none" stroke="#1E7A85" stroke-width="0.9577" stroke-miterlimit="10" d="M593.4,185.8c3.4-0.2,6.3,2.4,6.5,5.8
		c0.2,3.4-2.4,6.3-5.8,6.5c-3.4,0.2-6.3-2.4-6.5-5.8C587.4,188.9,590,186,593.4,185.8z"/>
</g>
<g>
	<path fill="none" stroke="#1E7A85" stroke-width="0.9577" stroke-miterlimit="10" d="M776,274.9c3.1,1.4,3.3,7.6,0.5,13.8
		c-2.8,6.2-7.6,10.1-10.7,8.7c-3.1-1.4-3.3-7.6-0.5-13.8C768.1,277.4,772.9,273.5,776,274.9z"/>
	<path fill="none" stroke="#1E7A85" stroke-width="0.9577" stroke-miterlimit="10" d="M765.3,283.6c1.5-3,5.2-4.3,8.2-2.8
		c3.1,1.5,4.3,5.2,2.8,8.2c-1.5,3-5.2,4.3-8.3,2.8C765,290.4,763.8,286.7,765.3,283.6z"/>
</g>
<g>
	<path fill="none" stroke="#1E7A85" stroke-width="0.9577" stroke-miterlimit="10" d="M423.7,199.9c-3.4,0.1-6.3-5.3-6.5-12.1
		c-0.2-6.8,2.4-12.4,5.8-12.5c3.4-0.1,6.3,5.3,6.5,12.1C429.7,194.2,427.1,199.8,423.7,199.9z"/>
	<path fill="none" stroke="#1E7A85" stroke-width="0.9577" stroke-miterlimit="10" d="M429.5,187.4c0,3.4-2.8,6.1-6.2,6.1
		c-3.4,0-6.2-2.8-6.1-6.2c0-3.4,2.8-6.1,6.2-6.1C426.8,181.2,429.5,184,429.5,187.4z"/>
</g>
<g>
	<path fill="none" stroke="#1E7A85" stroke-width="0.9577" stroke-miterlimit="10" d="M463,238.1c-3.1,1.4-7.9-2.4-10.8-8.6
		c-2.9-6.2-2.7-12.3,0.4-13.8c3.1-1.4,7.9,2.4,10.8,8.6C466.3,230.5,466.1,236.7,463,238.1z"/>
	<path fill="none" stroke="#1E7A85" stroke-width="0.9577" stroke-miterlimit="10" d="M463.4,224.3c1.3,3.1-0.1,6.7-3.3,8.1
		c-3.1,1.3-6.7-0.1-8.1-3.3c-1.3-3.1,0.2-6.8,3.3-8.1C458.5,219.7,462.1,221.2,463.4,224.3z"/>
</g>
<g>
	<path fill="none" stroke="#1E7A85" stroke-width="0.9577" stroke-miterlimit="10" d="M439.4,173.9c-0.1-3.4,5.3-6.3,12.1-6.5
		c6.8-0.2,12.4,2.4,12.5,5.8c0.1,3.4-5.3,6.3-12.1,6.5C445.1,179.9,439.5,177.3,439.4,173.9z"/>
	<path fill="none" stroke="#1E7A85" stroke-width="0.9577" stroke-miterlimit="10" d="M451.9,179.6c-3.4,0-6.1-2.8-6.1-6.2
		c0-3.4,2.8-6.1,6.2-6.1c3.4,0,6.2,2.8,6.1,6.2C458.1,176.9,455.3,179.7,451.9,179.6z"/>
</g>
<g>
	<path fill="none" stroke="#1E7A85" stroke-width="0.9577" stroke-miterlimit="10" d="M426.4,266.7c-0.1-3.4,5.3-6.3,12.1-6.5
		c6.8-0.2,12.4,2.4,12.5,5.8c0.1,3.4-5.3,6.3-12.1,6.5C432.1,272.7,426.6,270.1,426.4,266.7z"/>
	<path fill="none" stroke="#1E7A85" stroke-width="0.9577" stroke-miterlimit="10" d="M439,272.5c-3.4,0-6.1-2.8-6.1-6.2
		c0-3.4,2.8-6.1,6.2-6.1c3.4,0,6.1,2.8,6.1,6.2C445.1,269.8,442.4,272.5,439,272.5z"/>
</g>
<g>
	<path fill="none" stroke="#1E7A85" stroke-width="0.9577" stroke-miterlimit="10" d="M305.1,361.4c1.8,2.9-1.5,8.1-7.3,11.6
		c-5.8,3.5-12,4-13.7,1.1c-1.8-2.9,1.5-8.1,7.3-11.7C297.2,359,303.4,358.5,305.1,361.4z"/>
	<path fill="none" stroke="#1E7A85" stroke-width="0.9577" stroke-miterlimit="10" d="M291.4,362.5c3-1.7,6.7-0.6,8.4,2.4
		c1.7,3,0.6,6.7-2.4,8.4c-3,1.7-6.7,0.6-8.4-2.4C287.3,367.9,288.4,364.2,291.4,362.5z"/>
</g>
<g>
	<path fill="none" stroke="#1E7A85" stroke-width="0.9577" stroke-miterlimit="10" d="M117,418.1c3.4-0.1,6.3,5.4,6.4,12.2
		c0.1,6.8-2.5,12.4-5.9,12.4c-3.4,0.1-6.3-5.4-6.4-12.2C111,423.7,113.6,418.2,117,418.1z"/>
	<path fill="none" stroke="#1E7A85" stroke-width="0.9577" stroke-miterlimit="10" d="M111.1,430.6c0-3.4,2.8-6.1,6.2-6.1
		c3.4,0,6.1,2.9,6.1,6.2c0,3.4-2.9,6.1-6.2,6.1C113.8,436.8,111.1,434,111.1,430.6z"/>
</g>
<g>
	<path fill="none" stroke="#1E7A85" stroke-width="0.9577" stroke-miterlimit="10" d="M163,457.9c1.6-3,7.8-2.7,13.8,0.5
		c6,3.3,9.5,8.4,7.8,11.3c-1.6,3-7.8,2.7-13.8-0.5C164.9,466,161.4,460.9,163,457.9z"/>
	<path fill="none" stroke="#1E7A85" stroke-width="0.9577" stroke-miterlimit="10" d="M170.8,469.3c-2.9-1.7-3.9-5.5-2.1-8.4
		c1.7-2.9,5.5-3.9,8.4-2.1c2.9,1.7,3.9,5.5,2.1,8.4C177.5,470.1,173.8,471,170.8,469.3z"/>
</g>
<g>
	<path fill="none" stroke="#1E7A85" stroke-width="0.9577" stroke-miterlimit="10" d="M545.3,399.9c-1.8-2.9,1.5-8.1,7.3-11.6
		c5.8-3.5,12-4,13.7-1.1c1.8,2.9-1.5,8.1-7.3,11.6C553.2,402.3,547,402.8,545.3,399.9z"/>
	<path fill="none" stroke="#1E7A85" stroke-width="0.9577" stroke-miterlimit="10" d="M559,398.8c-3,1.6-6.7,0.6-8.4-2.4
		c-1.7-3-0.6-6.7,2.4-8.4c3-1.7,6.7-0.6,8.4,2.4C563,393.3,562,397.1,559,398.8z"/>
</g>
<g>
	<path fill="none" stroke="#1E7A85" stroke-width="0.9577" stroke-miterlimit="10" d="M346.8,401c-3.4,0.1-6.3-5.4-6.4-12.2
		c-0.2-6.8,2.5-12.4,5.9-12.4c3.4-0.1,6.3,5.4,6.4,12.2C352.8,395.4,350.2,400.9,346.8,401z"/>
	<path fill="none" stroke="#1E7A85" stroke-width="0.9577" stroke-miterlimit="10" d="M352.6,388.5c0,3.4-2.8,6.1-6.2,6
		c-3.4,0-6.1-2.8-6.1-6.2c0-3.4,2.9-6.1,6.2-6.1C350,382.3,352.7,385.1,352.6,388.5z"/>
</g>
<g>
	<path fill="none" stroke="#1E7A85" stroke-width="0.9577" stroke-miterlimit="10" d="M142.5,486.6c-1.6,3-7.8,2.7-13.8-0.5
		c-6-3.3-9.5-8.3-7.8-11.3c1.6-3,7.8-2.7,13.8,0.5C140.7,478.6,144.2,483.6,142.5,486.6z"/>
	<path fill="none" stroke="#1E7A85" stroke-width="0.9577" stroke-miterlimit="10" d="M134.7,475.3c2.9,1.7,3.9,5.5,2.1,8.4
		c-1.7,2.9-5.5,3.9-8.4,2.1c-2.9-1.7-3.9-5.5-2.1-8.4C128,474.5,131.7,473.5,134.7,475.3z"/>
</g>
<g>
	<path fill="none" stroke="#1E7A85" stroke-width="0.9577" stroke-miterlimit="10" d="M263.4,496.1c0.2-3.4,5.8-5.9,12.6-5.6
		c6.8,0.3,12.2,3.3,12,6.7c-0.2,3.4-5.8,5.9-12.6,5.6C268.6,502.5,263.2,499.5,263.4,496.1z"/>
	<path fill="none" stroke="#1E7A85" stroke-width="0.9577" stroke-miterlimit="10" d="M275.4,502.9c-3.4-0.3-5.9-3.2-5.6-6.6
		c0.3-3.4,3.2-5.9,6.6-5.6c3.4,0.3,5.9,3.3,5.6,6.6C281.8,500.6,278.8,503.1,275.4,502.9z"/>
</g>
<g>
	<path fill="none" stroke="#1E7A85" stroke-width="0.9577" stroke-miterlimit="10" d="M544.7,460.2c-1.2-3.2,3-7.7,9.4-10.1
		c6.4-2.4,12.5-1.7,13.7,1.4c1.2,3.2-3,7.7-9.4,10.1C552,464.1,545.9,463.4,544.7,460.2z"/>
	<path fill="none" stroke="#1E7A85" stroke-width="0.9577" stroke-miterlimit="10" d="M558.4,461.7c-3.2,1.1-6.7-0.7-7.8-3.9
		c-1.1-3.2,0.7-6.7,3.9-7.8c3.2-1.1,6.7,0.7,7.8,3.9C563.4,457.1,561.6,460.6,558.4,461.7z"/>
</g>
<g>
	<path fill="none" stroke="#1E7A85" stroke-width="0.9577" stroke-miterlimit="10" d="M235,477.9c3.4,0.1,5.9,5.8,5.6,12.6
		c-0.3,6.8-3.3,12.2-6.7,12c-3.4-0.1-5.9-5.8-5.6-12.6C228.6,483.1,231.6,477.8,235,477.9z"/>
	<path fill="none" stroke="#1E7A85" stroke-width="0.9577" stroke-miterlimit="10" d="M228.3,490c0.3-3.4,3.2-5.9,6.6-5.6
		c3.4,0.3,5.9,3.2,5.6,6.6c-0.3,3.4-3.3,5.9-6.6,5.6C230.5,496.3,228,493.4,228.3,490z"/>
</g>
<g>
	<path fill="none" stroke="#1E7A85" stroke-width="0.9577" stroke-miterlimit="10" d="M593,411.1c3.4,0.2,5.9,5.8,5.6,12.6
		c-0.3,6.8-3.3,12.2-6.7,12c-3.4-0.2-5.9-5.8-5.6-12.6C586.6,416.3,589.6,411,593,411.1z"/>
	<path fill="none" stroke="#1E7A85" stroke-width="0.9577" stroke-miterlimit="10" d="M586.3,423.2c0.3-3.4,3.2-5.9,6.6-5.6
		c3.4,0.3,5.9,3.2,5.6,6.6c-0.3,3.4-3.3,5.9-6.6,5.6C588.5,429.5,586,426.5,586.3,423.2z"/>
</g>
</svg>
