<?xml version="1.0" encoding="utf-8"?>
<!-- Generator: Adobe Illustrator 18.1.1, SVG Export Plug-In . SVG Version: 6.00 Build 0)  -->
<!DOCTYPE svg PUBLIC "-//W3C//DTD SVG 1.1//EN" "http://www.w3.org/Graphics/SVG/1.1/DTD/svg11.dtd">
<svg version="1.1" id="Layer_1" xmlns="http://www.w3.org/2000/svg" xmlns:xlink="http://www.w3.org/1999/xlink" x="0px" y="0px"
	 viewBox="0 0 900 566" enable-background="new 0 0 900 566" xml:space="preserve">
<rect fill="none" width="900" height="566"/>
<g>
	
		<rect x="200.4" y="164.9" transform="matrix(0.8858 -0.464 0.464 0.8858 -70.7029 127.7525)" fill="none" stroke="#1E7A85" stroke-width="0.9577" stroke-miterlimit="10" width="47.7" height="85.3"/>
	<g>
		<g>
			<path fill="#1E7A85" d="M275.7,187.8l-23.6,12.4l14.8,28.3l23.6-12.4L275.7,187.8z M268.4,224.1l-11.9-22.7l14.8-7.7l11.9,22.7
				L268.4,224.1z"/>
		</g>
	</g>
	<g>
		<g>
			<path fill="#1E7A85" d="M272.6,265.3l-12.4-23.6l-28.3,14.8l12.4,23.6L272.6,265.3z M236.2,258l22.7-11.9l7.7,14.8L244,272.8
				L236.2,258z"/>
		</g>
	</g>
	<g>
		<g>
			<path fill="#1E7A85" d="M175.9,149.8l12.4,23.6l28.3-14.8l-12.4-23.6L175.9,149.8z M212.2,157.1l-22.7,11.9l-7.7-14.8l22.7-11.9
				L212.2,157.1z"/>
		</g>
	</g>
	<g>
		<g>
			<path fill="#1E7A85" d="M254.9,148.1l-23.6,12.4l14.8,28.3l23.6-12.4L254.9,148.1z M247.6,184.4l-11.9-22.7l14.8-7.7l11.9,22.7
				L247.6,184.4z"/>
		</g>
	</g>
</g>
<g>
	
		<rect x="354.7" y="164.9" transform="matrix(0.8858 -0.464 0.464 0.8858 -53.0862 199.3485)" fill="none" stroke="#1E7A85" stroke-width="0.9577" stroke-miterlimit="10" width="47.7" height="85.3"/>
	<g>
		<g>
			<path fill="#1E7A85" d="M430,187.8l-23.6,12.4l14.8,28.3l23.6-12.4L430,187.8z M422.7,224.1l-11.9-22.7l14.8-7.7l11.9,22.7
				L422.7,224.1z"/>
		</g>
	</g>
	<g>
		<g>
			<path fill="#1E7A85" d="M426.8,265.3l-12.4-23.6l-28.3,14.8l12.4,23.6L426.8,265.3z M390.5,258l22.7-11.9l7.7,14.8l-22.7,11.9
				L390.5,258z"/>
		</g>
	</g>
	<g>
		<g>
			<path fill="#1E7A85" d="M330.2,149.8l12.4,23.6l28.3-14.8l-12.4-23.6L330.2,149.8z M366.5,157.1l-22.7,11.9l-7.7-14.8l22.7-11.9
				L366.5,157.1z"/>
		</g>
	</g>
	<g>
		<g>
			<path fill="#1E7A85" d="M409.2,148.1l-23.6,12.4l14.8,28.3l23.6-12.4L409.2,148.1z M401.9,184.4l-11.9-22.7l14.8-7.7l11.9,22.7
				L401.9,184.4z"/>
		</g>
	</g>
</g>
<g>
	
		<rect x="509" y="164.9" transform="matrix(0.8858 -0.464 0.464 0.8858 -35.4696 270.941)" fill="none" stroke="#1E7A85" stroke-width="0.9577" stroke-miterlimit="10" width="47.7" height="85.3"/>
	<g>
		<g>
			<path fill="#1E7A85" d="M584.3,187.8l-23.6,12.4l14.8,28.3l23.6-12.4L584.3,187.8z M577,224.1l-11.9-22.7l14.8-7.7l11.9,22.7
				L577,224.1z"/>
		</g>
	</g>
	<g>
		<g>
			<path fill="#1E7A85" d="M581.1,265.3l-12.4-23.6l-28.3,14.8l12.4,23.6L581.1,265.3z M544.8,258l22.7-11.9l7.7,14.8l-22.7,11.9
				L544.8,258z"/>
		</g>
	</g>
	<g>
		<g>
			<path fill="#1E7A85" d="M484.5,149.8l12.4,23.6l28.3-14.8l-12.4-23.6L484.5,149.8z M520.8,157.1l-22.7,11.9l-7.7-14.8l22.7-11.9
				L520.8,157.1z"/>
		</g>
	</g>
	<g>
		<g>
			<path fill="#1E7A85" d="M563.5,148.1l-23.6,12.4l14.8,28.3l23.6-12.4L563.5,148.1z M556.2,184.4l-11.9-22.7l14.8-7.7l11.9,22.7
				L556.2,184.4z"/>
		</g>
	</g>
</g>
<g>
	
		<rect x="663.2" y="164.9" transform="matrix(0.8858 -0.464 0.464 0.8858 -17.8541 342.5274)" fill="none" stroke="#1E7A85" stroke-width="0.9577" stroke-miterlimit="10" width="47.7" height="85.3"/>
	<g>
		<g>
			<path fill="#1E7A85" d="M738.6,187.8L715,200.2l14.8,28.3l23.6-12.4L738.6,187.8z M731.3,224.1l-11.9-22.7l14.8-7.7l11.9,22.7
				L731.3,224.1z"/>
		</g>
	</g>
	<g>
		<g>
			<path fill="#1E7A85" d="M735.4,265.3L723,241.7l-28.3,14.8l12.4,23.6L735.4,265.3z M699.1,258l22.7-11.9l7.7,14.8l-22.7,11.9
				L699.1,258z"/>
		</g>
	</g>
	<g>
		<g>
			<path fill="#1E7A85" d="M638.8,149.8l12.4,23.6l28.3-14.8l-12.4-23.6L638.8,149.8z M675.1,157.1l-22.7,11.9l-7.7-14.8l22.7-11.9
				L675.1,157.1z"/>
		</g>
	</g>
	<g>
		<g>
			<path fill="#1E7A85" d="M717.8,148.1l-23.6,12.4l14.8,28.3l23.6-12.4L717.8,148.1z M710.5,184.4l-11.9-22.7l14.8-7.7l11.9,22.7
				L710.5,184.4z"/>
		</g>
	</g>
</g>
<g>
	
		<rect x="200.4" y="357.4" transform="matrix(0.8858 0.464 -0.464 0.8858 211.2463 -58.3746)" fill="none" stroke="#1E7A85" stroke-width="0.9577" stroke-miterlimit="10" width="47.7" height="85.3"/>
	<g>
		<g>
			<path fill="#1E7A85" d="M290.6,391.5L267,379.1l-14.8,28.3l23.6,12.4L290.6,391.5z M283.2,391.2l-11.9,22.7l-14.8-7.7l11.9-22.7
				L283.2,391.2z"/>
		</g>
	</g>
	<g>
		<g>
			<path fill="#1E7A85" d="M244.2,327.4l-12.4,23.6l28.3,14.8l12.4-23.6L244.2,327.4z M244,334.8l22.7,11.9l-7.7,14.8l-22.7-11.9
				L244,334.8z"/>
		</g>
	</g>
	<g>
		<g>
			<path fill="#1E7A85" d="M204.3,472.7l12.4-23.6l-28.3-14.8l-12.4,23.6L204.3,472.7z M204.5,465.3l-22.7-11.9l7.7-14.8l22.7,11.9
				L204.5,465.3z"/>
		</g>
	</g>
	<g>
		<g>
			<path fill="#1E7A85" d="M269.8,431.2l-23.6-12.4l-14.8,28.3l23.6,12.4L269.8,431.2z M262.4,430.9l-11.9,22.7l-14.8-7.7l11.9-22.7
				L262.4,430.9z"/>
		</g>
	</g>
</g>
<g>
	
		<rect x="354.7" y="357.4" transform="matrix(0.8858 0.464 -0.464 0.8858 228.8656 -129.9693)" fill="none" stroke="#1E7A85" stroke-width="0.9577" stroke-miterlimit="10" width="47.7" height="85.3"/>
	<g>
		<g>
			<path fill="#1E7A85" d="M444.9,391.5l-23.6-12.4l-14.8,28.3l23.6,12.4L444.9,391.5z M437.5,391.2l-11.9,22.7l-14.8-7.7l11.9-22.7
				L437.5,391.2z"/>
		</g>
	</g>
	<g>
		<g>
			<path fill="#1E7A85" d="M398.5,327.4l-12.4,23.6l28.3,14.8l12.4-23.6L398.5,327.4z M398.3,334.8l22.7,11.9l-7.7,14.8l-22.7-11.9
				L398.3,334.8z"/>
		</g>
	</g>
	<g>
		<g>
			<path fill="#1E7A85" d="M358.5,472.7l12.4-23.6l-28.3-14.8l-12.4,23.6L358.5,472.7z M358.8,465.3l-22.7-11.9l7.7-14.8l22.7,11.9
				L358.8,465.3z"/>
		</g>
	</g>
	<g>
		<g>
			<path fill="#1E7A85" d="M424.1,431.2l-23.6-12.4l-14.8,28.3l23.6,12.4L424.1,431.2z M416.7,430.9l-11.9,22.7l-14.8-7.7l11.9-22.7
				L416.7,430.9z"/>
		</g>
	</g>
</g>
<g>
	
		<rect x="509" y="357.4" transform="matrix(0.8858 0.464 -0.464 0.8858 246.4821 -201.5619)" fill="none" stroke="#1E7A85" stroke-width="0.9577" stroke-miterlimit="10" width="47.7" height="85.3"/>
	<g>
		<g>
			<path fill="#1E7A85" d="M599.1,391.5l-23.6-12.4l-14.8,28.3l23.6,12.4L599.1,391.5z M591.8,391.2l-11.9,22.7l-14.8-7.7l11.9-22.7
				L591.8,391.2z"/>
		</g>
	</g>
	<g>
		<g>
			<path fill="#1E7A85" d="M552.8,327.4l-12.4,23.6l28.3,14.8l12.4-23.6L552.8,327.4z M552.5,334.8l22.7,11.9l-7.7,14.8l-22.7-11.9
				L552.5,334.8z"/>
		</g>
	</g>
	<g>
		<g>
			<path fill="#1E7A85" d="M512.8,472.7l12.4-23.6l-28.3-14.8l-12.4,23.6L512.8,472.7z M513.1,465.3l-22.7-11.9l7.7-14.8l22.7,11.9
				L513.1,465.3z"/>
		</g>
	</g>
	<g>
		<g>
			<path fill="#1E7A85" d="M578.4,431.2l-23.6-12.4l-14.8,28.3l23.6,12.4L578.4,431.2z M571,430.9l-11.9,22.7l-14.8-7.7l11.9-22.7
				L571,430.9z"/>
		</g>
	</g>
</g>
<g>
	
		<rect x="663.2" y="357.4" transform="matrix(0.8858 0.464 -0.464 0.8858 264.0926 -273.1508)" fill="none" stroke="#1E7A85" stroke-width="0.9577" stroke-miterlimit="10" width="47.7" height="85.3"/>
	<g>
		<g>
			<path fill="#1E7A85" d="M753.4,391.5l-23.6-12.4L715,407.4l23.6,12.4L753.4,391.5z M746,391.2l-11.9,22.7l-14.8-7.7l11.9-22.7
				L746,391.2z"/>
		</g>
	</g>
	<g>
		<g>
			<path fill="#1E7A85" d="M707.1,327.4l-12.4,23.6l28.3,14.8l12.4-23.6L707.1,327.4z M706.8,334.8l22.7,11.9l-7.7,14.8l-22.7-11.9
				L706.8,334.8z"/>
		</g>
	</g>
	<g>
		<g>
			<path fill="#1E7A85" d="M667.1,472.7l12.4-23.6l-28.3-14.8l-12.4,23.6L667.1,472.7z M667.4,465.3l-22.7-11.9l7.7-14.8l22.7,11.9
				L667.4,465.3z"/>
		</g>
	</g>
	<g>
		<g>
			<path fill="#1E7A85" d="M732.6,431.2L709,418.8l-14.8,28.3l23.6,12.4L732.6,431.2z M725.2,430.9l-11.9,22.7l-14.8-7.7l11.9-22.7
				L725.2,430.9z"/>
		</g>
	</g>
</g>
<rect x="69.4" y="321.6" fill="none" stroke="#1E7A85" stroke-width="0.9577" stroke-miterlimit="10" width="47.7" height="138.8"/>
<rect x="69.4" y="182.8" fill="none" stroke="#1E7A85" stroke-width="0.9577" stroke-miterlimit="10" width="47.7" height="138.8"/>
<g>
	<g>
		<path fill="#1E7A85" d="M33.7,361.4h29.6v-35.5H33.7V361.4z M59.6,329.4v28.4H41.1v-28.4H59.6z"/>
	</g>
</g>
<g>
	<g>
		<path fill="#1E7A85" d="M33.7,408.8h29.6v-35.5H33.7V408.8z M59.6,376.8v28.4H41.1v-28.4H59.6z"/>
	</g>
</g>
<g>
	<g>
		<path fill="#1E7A85" d="M33.7,456.2h29.6v-35.5H33.7V456.2z M59.6,424.2v28.4H41.1v-28.4H59.6z"/>
	</g>
</g>
<g>
	<g>
		<path fill="#1E7A85" d="M33.7,222.6h29.6v-35.5H33.7V222.6z M59.6,190.6v28.4H41.1v-28.4H59.6z"/>
	</g>
</g>
<g>
	<g>
		<path fill="#1E7A85" d="M33.7,270h29.6v-35.5H33.7V270z M59.6,238v28.4H41.1V238H59.6z"/>
	</g>
</g>
<g>
	<g>
		<path fill="#1E7A85" d="M33.7,317.3h29.6v-35.5H33.7V317.3z M59.6,285.4v28.4H41.1v-28.4H59.6z"/>
	</g>
</g>
</svg>
