<?xml version="1.0" encoding="utf-8"?>
<!-- Generator: Adobe Illustrator 18.1.1, SVG Export Plug-In . SVG Version: 6.00 Build 0)  -->
<!DOCTYPE svg PUBLIC "-//W3C//DTD SVG 1.1//EN" "http://www.w3.org/Graphics/SVG/1.1/DTD/svg11.dtd">
<svg version="1.1" id="Layer_1" xmlns="http://www.w3.org/2000/svg" xmlns:xlink="http://www.w3.org/1999/xlink" x="0px" y="0px"
	 viewBox="0 0 900 566" enable-background="new 0 0 900 566" xml:space="preserve">
<rect fill="none" width="900" height="566"/>
<g>
	<g>
		<path fill="#1E7A85" d="M390.9,143.1v29.6h35.5v-29.6H390.9z M422.9,169h-28.4v-18.5h28.4V169z"/>
	</g>
</g>
<g>
	<g>
		<path fill="#1E7A85" d="M343.5,143.1v29.6H379v-29.6H343.5z M375.5,169h-28.4v-18.5h28.4V169z"/>
	</g>
</g>
<g>
	<g>
		<path fill="#1E7A85" d="M296.2,143.1v29.6h35.5v-29.6H296.2z M328.1,169h-28.4v-18.5h28.4V169z"/>
	</g>
</g>
<rect x="291.9" y="177.2" fill="none" stroke="#1E7A85" stroke-width="0.9577" stroke-miterlimit="10" width="138.8" height="47.7"/>
<g>
	<g>
		<path fill="#1E7A85" d="M529.7,143.1v29.6h35.5v-29.6H529.7z M561.7,169h-28.4v-18.5h28.4V169z"/>
	</g>
</g>
<g>
	<g>
		<path fill="#1E7A85" d="M482.3,143.1v29.6h35.5v-29.6H482.3z M514.3,169h-28.4v-18.5h28.4V169z"/>
	</g>
</g>
<g>
	<g>
		<path fill="#1E7A85" d="M435,143.1v29.6h35.5v-29.6H435z M466.9,169h-28.4v-18.5h28.4V169z"/>
	</g>
</g>
<rect x="430.7" y="177.2" fill="none" stroke="#1E7A85" stroke-width="0.9577" stroke-miterlimit="10" width="138.8" height="47.7"/>
<g>
	<g>
		<path fill="#1E7A85" d="M668.5,143.1v29.6H704v-29.6H668.5z M700.5,169h-28.4v-18.5h28.4V169z"/>
	</g>
</g>
<g>
	<g>
		<path fill="#1E7A85" d="M621.1,143.1v29.6h35.5v-29.6H621.1z M653.1,169h-28.4v-18.5h28.4V169z"/>
	</g>
</g>
<g>
	<g>
		<path fill="#1E7A85" d="M573.8,143.1v29.6h35.5v-29.6H573.8z M605.8,169h-28.4v-18.5h28.4V169z"/>
	</g>
</g>
<rect x="569.5" y="177.2" fill="none" stroke="#1E7A85" stroke-width="0.9577" stroke-miterlimit="10" width="138.8" height="47.7"/>
<g>
	<g>
		<path fill="#1E7A85" d="M609.3,306.7v-29.6h-35.5v29.6H609.3z M577.3,280.8h28.4v18.5h-28.4V280.8z"/>
	</g>
</g>
<g>
	<g>
		<path fill="#1E7A85" d="M656.7,306.7v-29.6h-35.5v29.6H656.7z M624.7,280.8h28.4v18.5h-28.4V280.8z"/>
	</g>
</g>
<g>
	<g>
		<path fill="#1E7A85" d="M704,306.7v-29.6h-35.5v29.6H704z M672.1,280.8h28.4v18.5h-28.4V280.8z"/>
	</g>
</g>
<rect x="569.5" y="224.9" fill="none" stroke="#1E7A85" stroke-width="0.9577" stroke-miterlimit="10" width="138.8" height="47.7"/>
<g>
	<g>
		<path fill="#1E7A85" d="M470.5,306.7v-29.6H435v29.6H470.5z M438.5,280.8h28.4v18.5h-28.4V280.8z"/>
	</g>
</g>
<g>
	<g>
		<path fill="#1E7A85" d="M517.9,306.7v-29.6h-35.5v29.6H517.9z M485.9,280.8h28.4v18.5h-28.4V280.8z"/>
	</g>
</g>
<g>
	<g>
		<path fill="#1E7A85" d="M565.2,306.7v-29.6h-35.5v29.6H565.2z M533.2,280.8h28.4v18.5h-28.4V280.8z"/>
	</g>
</g>
<rect x="430.7" y="224.9" fill="none" stroke="#1E7A85" stroke-width="0.9577" stroke-miterlimit="10" width="138.8" height="47.7"/>
<g>
	<g>
		<path fill="#1E7A85" d="M331.7,306.7v-29.6h-35.5v29.6H331.7z M299.7,280.8h28.4v18.5h-28.4V280.8z"/>
	</g>
</g>
<g>
	<g>
		<path fill="#1E7A85" d="M379.1,306.7v-29.6h-35.5v29.6H379.1z M347.1,280.8h28.4v18.5h-28.4V280.8z"/>
	</g>
</g>
<g>
	<g>
		<path fill="#1E7A85" d="M426.4,306.7v-29.6h-35.5v29.6H426.4z M394.4,280.8h28.4v18.5h-28.4V280.8z"/>
	</g>
</g>
<rect x="291.9" y="224.9" fill="none" stroke="#1E7A85" stroke-width="0.9577" stroke-miterlimit="10" width="138.8" height="47.7"/>
<rect x="69.4" y="321.6" fill="none" stroke="#1E7A85" stroke-width="0.9577" stroke-miterlimit="10" width="47.7" height="138.8"/>
<rect x="69.4" y="182.8" fill="none" stroke="#1E7A85" stroke-width="0.9577" stroke-miterlimit="10" width="47.7" height="138.8"/>
<g>
	<g>
		<path fill="#1E7A85" d="M390.9,354.8v29.6h35.5v-29.6H390.9z M422.9,380.7h-28.4v-18.5h28.4V380.7z"/>
	</g>
</g>
<g>
	<g>
		<path fill="#1E7A85" d="M343.5,354.8v29.6H379v-29.6H343.5z M375.5,380.7h-28.4v-18.5h28.4V380.7z"/>
	</g>
</g>
<g>
	<g>
		<path fill="#1E7A85" d="M296.2,354.8v29.6h35.5v-29.6H296.2z M328.1,380.7h-28.4v-18.5h28.4V380.7z"/>
	</g>
</g>
<rect x="291.9" y="388.9" fill="none" stroke="#1E7A85" stroke-width="0.9577" stroke-miterlimit="10" width="138.8" height="47.7"/>
<g>
	<g>
		<path fill="#1E7A85" d="M529.7,354.8v29.6h35.5v-29.6H529.7z M561.7,380.7h-28.4v-18.5h28.4V380.7z"/>
	</g>
</g>
<g>
	<g>
		<path fill="#1E7A85" d="M482.3,354.8v29.6h35.5v-29.6H482.3z M514.3,380.7h-28.4v-18.5h28.4V380.7z"/>
	</g>
</g>
<g>
	<g>
		<path fill="#1E7A85" d="M435,354.8v29.6h35.5v-29.6H435z M466.9,380.7h-28.4v-18.5h28.4V380.7z"/>
	</g>
</g>
<rect x="430.7" y="388.9" fill="none" stroke="#1E7A85" stroke-width="0.9577" stroke-miterlimit="10" width="138.8" height="47.7"/>
<g>
	<g>
		<path fill="#1E7A85" d="M668.5,354.8v29.6H704v-29.6H668.5z M700.5,380.7h-28.4v-18.5h28.4V380.7z"/>
	</g>
</g>
<g>
	<g>
		<path fill="#1E7A85" d="M621.1,354.8v29.6h35.5v-29.6H621.1z M653.1,380.7h-28.4v-18.5h28.4V380.7z"/>
	</g>
</g>
<g>
	<g>
		<path fill="#1E7A85" d="M573.8,354.8v29.6h35.5v-29.6H573.8z M605.8,380.7h-28.4v-18.5h28.4V380.7z"/>
	</g>
</g>
<rect x="569.5" y="388.9" fill="none" stroke="#1E7A85" stroke-width="0.9577" stroke-miterlimit="10" width="138.8" height="47.7"/>
<g>
	<g>
		<path fill="#1E7A85" d="M609.3,518.4v-29.6h-35.5v29.6H609.3z M577.3,492.5h28.4V511h-28.4V492.5z"/>
	</g>
</g>
<g>
	<g>
		<path fill="#1E7A85" d="M656.7,518.4v-29.6h-35.5v29.6H656.7z M624.7,492.5h28.4V511h-28.4V492.5z"/>
	</g>
</g>
<g>
	<g>
		<path fill="#1E7A85" d="M704,518.4v-29.6h-35.5v29.6H704z M672.1,492.5h28.4V511h-28.4V492.5z"/>
	</g>
</g>
<rect x="569.5" y="436.6" fill="none" stroke="#1E7A85" stroke-width="0.9577" stroke-miterlimit="10" width="138.8" height="47.7"/>
<g>
	<g>
		<path fill="#1E7A85" d="M470.5,518.4v-29.6H435v29.6H470.5z M438.5,492.5h28.4V511h-28.4V492.5z"/>
	</g>
</g>
<g>
	<g>
		<path fill="#1E7A85" d="M517.9,518.4v-29.6h-35.5v29.6H517.9z M485.9,492.5h28.4V511h-28.4V492.5z"/>
	</g>
</g>
<g>
	<g>
		<path fill="#1E7A85" d="M565.2,518.4v-29.6h-35.5v29.6H565.2z M533.2,492.5h28.4V511h-28.4V492.5z"/>
	</g>
</g>
<rect x="430.7" y="436.6" fill="none" stroke="#1E7A85" stroke-width="0.9577" stroke-miterlimit="10" width="138.8" height="47.7"/>
<g>
	<g>
		<path fill="#1E7A85" d="M331.7,518.4v-29.6h-35.5v29.6H331.7z M299.7,492.5h28.4V511h-28.4V492.5z"/>
	</g>
</g>
<g>
	<g>
		<path fill="#1E7A85" d="M379.1,518.4v-29.6h-35.5v29.6H379.1z M347.1,492.5h28.4V511h-28.4V492.5z"/>
	</g>
</g>
<g>
	<g>
		<path fill="#1E7A85" d="M426.4,518.4v-29.6h-35.5v29.6H426.4z M394.4,492.5h28.4V511h-28.4V492.5z"/>
	</g>
</g>
<rect x="291.9" y="436.6" fill="none" stroke="#1E7A85" stroke-width="0.9577" stroke-miterlimit="10" width="138.8" height="47.7"/>
<g>
	<g>
		<path fill="#1E7A85" d="M33.7,361.4h29.6v-35.5H33.7V361.4z M59.6,329.4v28.4H41.1v-28.4H59.6z"/>
	</g>
</g>
<g>
	<g>
		<path fill="#1E7A85" d="M33.7,408.8h29.6v-35.5H33.7V408.8z M59.6,376.8v28.4H41.1v-28.4H59.6z"/>
	</g>
</g>
<g>
	<g>
		<path fill="#1E7A85" d="M33.7,456.2h29.6v-35.5H33.7V456.2z M59.6,424.2v28.4H41.1v-28.4H59.6z"/>
	</g>
</g>
<g>
	<g>
		<path fill="#1E7A85" d="M33.7,222.6h29.6v-35.5H33.7V222.6z M59.6,190.6v28.4H41.1v-28.4H59.6z"/>
	</g>
</g>
<g>
	<g>
		<path fill="#1E7A85" d="M33.7,270h29.6v-35.5H33.7V270z M59.6,238v28.4H41.1V238H59.6z"/>
	</g>
</g>
<g>
	<g>
		<path fill="#1E7A85" d="M33.7,317.3h29.6v-35.5H33.7V317.3z M59.6,285.4v28.4H41.1v-28.4H59.6z"/>
	</g>
</g>
</svg>
