<?xml version="1.0" encoding="utf-8"?>
<!-- Generator: Adobe Illustrator 19.0.0, SVG Export Plug-In . SVG Version: 6.00 Build 0)  -->
<!DOCTYPE svg PUBLIC "-//W3C//DTD SVG 1.1//EN" "http://www.w3.org/Graphics/SVG/1.1/DTD/svg11.dtd">
<svg version="1.1" id="Layer_1" xmlns="http://www.w3.org/2000/svg" xmlns:xlink="http://www.w3.org/1999/xlink" x="0px" y="0px"
	 viewBox="-509 718 900 566" style="enable-background:new -509 718 900 566;" xml:space="preserve">
<style type="text/css">
	.st0{fill:none;stroke:#1E7A85;stroke-width:0.9577;stroke-miterlimit:10;}
	.st1{fill:#1E7A85;}
	.st2{fill:none;}
</style>
<rect x="-90.3" y="1212.7" class="st0" width="93.9" height="40.5"/>
<rect x="-184.2" y="1212.7" class="st0" width="93.9" height="40.5"/>
<g>
	<g>
		<g>
			<path class="st1" d="M115.9,824.3V851h32v-26.7H115.9z M144.7,847.6h-25.6v-16.7h25.6V847.6z"/>
		</g>
	</g>
	<g>
		<g>
			<path class="st1" d="M220,824.3V851h32v-26.7H220z M248.8,847.6h-25.6v-16.7h25.6V847.6z"/>
		</g>
	</g>
	<g>
		<g>
			<path class="st1" d="M168,824.3V851h32v-26.7H168z M196.8,847.6h-25.6v-16.7h25.6V847.6z"/>
		</g>
	</g>
	<g>
		<g>
			<path class="st1" d="M-159.3,824.3V851h32v-26.7H-159.3z M-130.5,847.6h-25.6l0-16.7h25.6V847.6z"/>
		</g>
	</g>
	<g>
		<g>
			<path class="st1" d="M-55.3,824.3V851h32l0-26.7H-55.3z M-26.5,847.6h-25.6v-16.7h25.6L-26.5,847.6z"/>
		</g>
	</g>
	<g>
		<g>
			<path class="st1" d="M-107.3,824.3V851h32v-26.7H-107.3z M-78.5,847.6h-25.6v-16.7h25.6V847.6z"/>
		</g>
	</g>
	<g>
		<g>
			<path class="st1" d="M-315.3,824.3V851h32v-26.7H-315.3z M-286.5,847.6h-25.6v-16.7h25.6V847.6z"/>
		</g>
	</g>
	<g>
		<g>
			<path class="st1" d="M-367.3,824.3V851h32v-26.7H-367.3z M-338.5,847.6h-25.6v-16.7h25.6V847.6z"/>
		</g>
	</g>
	<g>
		<g>
			<path class="st1" d="M-211.3,824.3V851h32v-26.7H-211.3z M-182.5,847.6h-25.6v-16.7h25.6V847.6z"/>
		</g>
	</g>
	<g>
		<g>
			<path class="st1" d="M-263.3,824.3V851h32v-26.7H-263.3z M-234.5,847.6h-25.6v-16.7h25.6V847.6z"/>
		</g>
	</g>
</g>
<g>
	<g>
		<g>
			<path class="st1" d="M115.9,877.3V904h32v-26.7H115.9z M144.7,900.6h-25.6v-16.7h25.6V900.6z"/>
		</g>
	</g>
	<g>
		<g>
			<path class="st1" d="M220,877.3V904h32v-26.7H220z M248.8,900.6h-25.6v-16.7h25.6V900.6z"/>
		</g>
	</g>
	<g>
		<g>
			<path class="st1" d="M168,877.3V904h32v-26.7H168z M196.8,900.6h-25.6v-16.7h25.6V900.6z"/>
		</g>
	</g>
	<g>
		<g>
			<path class="st1" d="M-159.3,877.3V904h32v-26.7H-159.3z M-130.5,900.6h-25.6l0-16.7h25.6V900.6z"/>
		</g>
	</g>
	<g>
		<g>
			<path class="st1" d="M-55.3,877.3V904h32l0-26.7H-55.3z M-26.5,900.6h-25.6v-16.7h25.6L-26.5,900.6z"/>
		</g>
	</g>
	<g>
		<g>
			<path class="st1" d="M-107.3,877.3V904h32v-26.7H-107.3z M-78.5,900.6h-25.6v-16.7h25.6V900.6z"/>
		</g>
	</g>
	<g>
		<g>
			<path class="st1" d="M-315.3,877.3V904h32v-26.7H-315.3z M-286.5,900.6h-25.6v-16.7h25.6V900.6z"/>
		</g>
	</g>
	<g>
		<g>
			<path class="st1" d="M-367.3,877.3V904h32v-26.7H-367.3z M-338.5,900.6h-25.6v-16.7h25.6V900.6z"/>
		</g>
	</g>
	<g>
		<g>
			<path class="st1" d="M-211.3,877.3V904h32v-26.7H-211.3z M-182.5,900.6h-25.6v-16.7h25.6V900.6z"/>
		</g>
	</g>
	<g>
		<g>
			<path class="st1" d="M-263.3,877.3V904h32v-26.7H-263.3z M-234.5,900.6h-25.6v-16.7h25.6V900.6z"/>
		</g>
	</g>
</g>
<g>
	<g>
		<g>
			<path class="st1" d="M115.9,930.2v26.7h32v-26.7H115.9z M144.7,953.5h-25.6v-16.7h25.6V953.5z"/>
		</g>
	</g>
	<g>
		<g>
			<path class="st1" d="M220,930.2v26.7h32v-26.7H220z M248.8,953.5h-25.6v-16.7h25.6V953.5z"/>
		</g>
	</g>
	<g>
		<g>
			<path class="st1" d="M168,930.2v26.7h32v-26.7H168z M196.8,953.5h-25.6v-16.7h25.6V953.5z"/>
		</g>
	</g>
	<g>
		<g>
			<path class="st1" d="M-159.3,930.2v26.7h32v-26.7H-159.3z M-130.5,953.5h-25.6l0-16.7h25.6V953.5z"/>
		</g>
	</g>
	<g>
		<g>
			<path class="st1" d="M-55.3,930.2v26.7h32l0-26.7H-55.3z M-26.5,953.5h-25.6v-16.7h25.6L-26.5,953.5z"/>
		</g>
	</g>
	<g>
		<g>
			<path class="st1" d="M-107.3,930.2v26.7h32v-26.7H-107.3z M-78.5,953.5h-25.6v-16.7h25.6V953.5z"/>
		</g>
	</g>
	<g>
		<g>
			<path class="st1" d="M-315.3,930.2v26.7h32v-26.7H-315.3z M-286.5,953.5h-25.6v-16.7h25.6V953.5z"/>
		</g>
	</g>
	<g>
		<g>
			<path class="st1" d="M-367.3,930.2v26.7h32v-26.7H-367.3z M-338.5,953.5h-25.6v-16.7h25.6V953.5z"/>
		</g>
	</g>
	<g>
		<g>
			<path class="st1" d="M-211.3,930.2v26.7h32v-26.7H-211.3z M-182.5,953.5h-25.6v-16.7h25.6V953.5z"/>
		</g>
	</g>
	<g>
		<g>
			<path class="st1" d="M-263.3,930.2v26.7h32v-26.7H-263.3z M-234.5,953.5h-25.6v-16.7h25.6V953.5z"/>
		</g>
	</g>
</g>
<g>
	<g>
		<g>
			<path class="st1" d="M115.9,983.2v26.7h32v-26.7H115.9z M144.7,1006.5h-25.6v-16.7h25.6V1006.5z"/>
		</g>
	</g>
	<g>
		<g>
			<path class="st1" d="M220,983.2v26.7h32v-26.7H220z M248.8,1006.5h-25.6v-16.7h25.6V1006.5z"/>
		</g>
	</g>
	<g>
		<g>
			<path class="st1" d="M168,983.2v26.7h32v-26.7H168z M196.8,1006.5h-25.6v-16.7h25.6V1006.5z"/>
		</g>
	</g>
	<g>
		<g>
			<path class="st1" d="M-159.3,983.2v26.7h32v-26.7H-159.3z M-130.5,1006.5h-25.6l0-16.7h25.6V1006.5z"/>
		</g>
	</g>
	<g>
		<g>
			<path class="st1" d="M-55.3,983.2v26.7h32l0-26.7H-55.3z M-26.5,1006.5h-25.6v-16.7h25.6L-26.5,1006.5z"/>
		</g>
	</g>
	<g>
		<g>
			<path class="st1" d="M-107.3,983.2v26.7h32v-26.7H-107.3z M-78.5,1006.5h-25.6v-16.7h25.6V1006.5z"/>
		</g>
	</g>
	<g>
		<g>
			<path class="st1" d="M-315.3,983.2v26.7h32v-26.7H-315.3z M-286.5,1006.5h-25.6v-16.7h25.6V1006.5z"/>
		</g>
	</g>
	<g>
		<g>
			<path class="st1" d="M-367.3,983.2v26.7h32v-26.7H-367.3z M-338.5,1006.5h-25.6v-16.7h25.6V1006.5z"/>
		</g>
	</g>
	<g>
		<g>
			<path class="st1" d="M-211.3,983.2v26.7h32v-26.7H-211.3z M-182.5,1006.5h-25.6v-16.7h25.6V1006.5z"/>
		</g>
	</g>
	<g>
		<g>
			<path class="st1" d="M-263.3,983.2v26.7h32v-26.7H-263.3z M-234.5,1006.5h-25.6v-16.7h25.6V1006.5z"/>
		</g>
	</g>
</g>
<g>
	<g>
		<g>
			<path class="st1" d="M115.9,1036.1v26.7h32v-26.7H115.9z M144.7,1059.4h-25.6v-16.7h25.6V1059.4z"/>
		</g>
	</g>
	<g>
		<g>
			<path class="st1" d="M220,1036.1v26.7h32v-26.7H220z M248.8,1059.4h-25.6v-16.7h25.6V1059.4z"/>
		</g>
	</g>
	<g>
		<g>
			<path class="st1" d="M168,1036.1v26.7h32v-26.7H168z M196.8,1059.4h-25.6v-16.7h25.6V1059.4z"/>
		</g>
	</g>
	<g>
		<g>
			<path class="st1" d="M-159.3,1036.1v26.7h32v-26.7H-159.3z M-130.5,1059.4h-25.6l0-16.7h25.6V1059.4z"/>
		</g>
	</g>
	<g>
		<g>
			<path class="st1" d="M-55.3,1036.1v26.7h32l0-26.7H-55.3z M-26.5,1059.4h-25.6v-16.7h25.6L-26.5,1059.4z"/>
		</g>
	</g>
	<g>
		<g>
			<path class="st1" d="M-107.3,1036.1v26.7h32v-26.7H-107.3z M-78.5,1059.4h-25.6v-16.7h25.6V1059.4z"/>
		</g>
	</g>
	<g>
		<g>
			<path class="st1" d="M-315.3,1036.1v26.7h32v-26.7H-315.3z M-286.5,1059.4h-25.6v-16.7h25.6V1059.4z"/>
		</g>
	</g>
	<g>
		<g>
			<path class="st1" d="M-367.3,1036.1v26.7h32v-26.7H-367.3z M-338.5,1059.4h-25.6v-16.7h25.6V1059.4z"/>
		</g>
	</g>
	<g>
		<g>
			<path class="st1" d="M-211.3,1036.1v26.7h32v-26.7H-211.3z M-182.5,1059.4h-25.6v-16.7h25.6V1059.4z"/>
		</g>
	</g>
	<g>
		<g>
			<path class="st1" d="M-263.3,1036.1v26.7h32v-26.7H-263.3z M-234.5,1059.4h-25.6v-16.7h25.6V1059.4z"/>
		</g>
	</g>
</g>
<g>
	<g>
		<g>
			<path class="st1" d="M115.9,1089.1v26.7h32v-26.7H115.9z M144.7,1112.4h-25.6v-16.7h25.6V1112.4z"/>
		</g>
	</g>
	<g>
		<g>
			<path class="st1" d="M220,1089.1v26.7h32v-26.7H220z M248.8,1112.4h-25.6v-16.7h25.6V1112.4z"/>
		</g>
	</g>
	<g>
		<g>
			<path class="st1" d="M168,1089.1v26.7h32v-26.7H168z M196.8,1112.4h-25.6v-16.7h25.6V1112.4z"/>
		</g>
	</g>
	<g>
		<g>
			<path class="st1" d="M-159.3,1089.1v26.7h32v-26.7H-159.3z M-130.5,1112.4h-25.6l0-16.7h25.6V1112.4z"/>
		</g>
	</g>
	<g>
		<g>
			<path class="st1" d="M-55.3,1089.1v26.7h32l0-26.7H-55.3z M-26.5,1112.4h-25.6v-16.7h25.6L-26.5,1112.4z"/>
		</g>
	</g>
	<g>
		<g>
			<path class="st1" d="M-107.3,1089.1v26.7h32v-26.7H-107.3z M-78.5,1112.4h-25.6v-16.7h25.6V1112.4z"/>
		</g>
	</g>
	<g>
		<g>
			<path class="st1" d="M-315.3,1089.1v26.7h32v-26.7H-315.3z M-286.5,1112.4h-25.6v-16.7h25.6V1112.4z"/>
		</g>
	</g>
	<g>
		<g>
			<path class="st1" d="M-367.3,1089.1v26.7h32v-26.7H-367.3z M-338.5,1112.4h-25.6v-16.7h25.6V1112.4z"/>
		</g>
	</g>
	<g>
		<g>
			<path class="st1" d="M-211.3,1089.1v26.7h32v-26.7H-211.3z M-182.5,1112.4h-25.6v-16.7h25.6V1112.4z"/>
		</g>
	</g>
	<g>
		<g>
			<path class="st1" d="M-263.3,1089.1v26.7h32v-26.7H-263.3z M-234.5,1112.4h-25.6v-16.7h25.6V1112.4z"/>
		</g>
	</g>
</g>
<g>
	<g>
		<g>
			<path class="st1" d="M115.9,1142v26.7h32V1142H115.9z M144.7,1165.3h-25.6v-16.7h25.6V1165.3z"/>
		</g>
	</g>
	<g>
		<g>
			<path class="st1" d="M220,1142v26.7h32V1142H220z M248.8,1165.3h-25.6v-16.7h25.6V1165.3z"/>
		</g>
	</g>
	<g>
		<g>
			<path class="st1" d="M168,1142v26.7h32V1142H168z M196.8,1165.3h-25.6v-16.7h25.6V1165.3z"/>
		</g>
	</g>
	<g>
		<g>
			<path class="st1" d="M-159.3,1142v26.7h32V1142H-159.3z M-130.5,1165.3h-25.6l0-16.7h25.6V1165.3z"/>
		</g>
	</g>
	<g>
		<g>
			<path class="st1" d="M-55.3,1142v26.7h32l0-26.7H-55.3z M-26.5,1165.3h-25.6v-16.7h25.6L-26.5,1165.3z"/>
		</g>
	</g>
	<g>
		<g>
			<path class="st1" d="M-107.3,1142v26.7h32V1142H-107.3z M-78.5,1165.3h-25.6v-16.7h25.6V1165.3z"/>
		</g>
	</g>
	<g>
		<g>
			<path class="st1" d="M-315.3,1142v26.7h32V1142H-315.3z M-286.5,1165.3h-25.6v-16.7h25.6V1165.3z"/>
		</g>
	</g>
	<g>
		<g>
			<path class="st1" d="M-367.3,1142v26.7h32V1142H-367.3z M-338.5,1165.3h-25.6v-16.7h25.6V1165.3z"/>
		</g>
	</g>
	<g>
		<g>
			<path class="st1" d="M-211.3,1142v26.7h32V1142H-211.3z M-182.5,1165.3h-25.6v-16.7h25.6V1165.3z"/>
		</g>
	</g>
	<g>
		<g>
			<path class="st1" d="M-263.3,1142v26.7h32V1142H-263.3z M-234.5,1165.3h-25.6v-16.7h25.6V1165.3z"/>
		</g>
	</g>
</g>
<rect x="-509" y="718" class="st2" width="900" height="566"/>
</svg>
