<?xml version="1.0" encoding="utf-8"?>
<!-- Generator: Adobe Illustrator 18.1.1, SVG Export Plug-In . SVG Version: 6.00 Build 0)  -->
<!DOCTYPE svg PUBLIC "-//W3C//DTD SVG 1.1//EN" "http://www.w3.org/Graphics/SVG/1.1/DTD/svg11.dtd">
<svg version="1.1" id="Layer_1" xmlns="http://www.w3.org/2000/svg" xmlns:xlink="http://www.w3.org/1999/xlink" x="0px" y="0px"
	 viewBox="0 0 900 566" enable-background="new 0 0 900 566" xml:space="preserve">
<rect fill="none" width="900" height="566"/>
<g>
	<g>
		<path fill="#1E7A85" d="M729.3,60.3v24h28.9v-24H729.3z M755.3,81.3h-23.1v-15h23.1V81.3z"/>
	</g>
</g>
<g>
	<g>
		<path fill="#1E7A85" d="M697.2,60.3v24H726v-24H697.2z M723.1,81.3h-23.1v-15h23.1V81.3z"/>
	</g>
</g>
<g>
	<g>
		<path fill="#1E7A85" d="M665,60.3v24h28.8v-24H665z M691,81.3h-23.1v-15H691V81.3z"/>
	</g>
</g>
<g>
	<g>
		<path fill="#1E7A85" d="M632.9,60.3v24h28.9v-24H632.9z M658.8,81.3h-23.1v-15h23.1V81.3z"/>
	</g>
</g>
<g>
	<g>
		<path fill="#1E7A85" d="M50.2,545.6v-24H21.4v24H50.2z M24.3,524.6h23.1v15H24.3V524.6z"/>
	</g>
</g>
<g>
	<g>
		<path fill="#1E7A85" d="M451.2,60.3v24h28.8v-24H451.2z M477.2,81.3h-23.1v-15h23.1V81.3z"/>
	</g>
</g>
<g>
	<g>
		<path fill="#1E7A85" d="M419.1,60.3v24h28.9v-24H419.1z M445.1,81.3H422v-15h23.1V81.3z"/>
	</g>
</g>
<g>
	<g>
		<path fill="#1E7A85" d="M386.9,60.3v24h28.9v-24H386.9z M412.9,81.3h-23.1v-15h23.1V81.3z"/>
	</g>
</g>
<g>
	<g>
		<path fill="#1E7A85" d="M354.8,60.3v24h28.9v-24H354.8z M380.8,81.3h-23.1v-15h23.1V81.3z"/>
	</g>
</g>
<g>
	<g>
		<path fill="#1E7A85" d="M404.6,545.6v-24h-28.8v24H404.6z M378.6,524.6h23.1v15h-23.1V524.6z"/>
	</g>
</g>
<g>
	<g>
		<path fill="#1E7A85" d="M436.7,545.6v-24h-28.8v24H436.7z M410.7,524.6h23.1v15h-23.1V524.6z"/>
	</g>
</g>
<g>
	<g>
		<path fill="#1E7A85" d="M468.8,545.6v-24H440v24H468.8z M442.9,524.6H466v15h-23.1V524.6z"/>
	</g>
</g>
<g>
	<g>
		<path fill="#1E7A85" d="M501,545.6v-24h-28.9v24H501z M475,524.6h23.1v15H475V524.6z"/>
	</g>
</g>
<g>
	<g>
		<path fill="#1E7A85" d="M533.1,545.6v-24h-28.8v24H533.1z M507.2,524.6h23.1v15h-23.1V524.6z"/>
	</g>
</g>
<g>
	<g>
		<path fill="#1E7A85" d="M565.3,545.6v-24h-28.9v24H565.3z M539.3,524.6h23.1v15h-23.1V524.6z"/>
	</g>
</g>
<g>
	<g>
		<path fill="#1E7A85" d="M597.4,545.6v-24h-28.9v24H597.4z M571.5,524.6h23.1v15h-23.1V524.6z"/>
	</g>
</g>
<g>
	<g>
		<path fill="#1E7A85" d="M629.6,545.6v-24h-28.9v24H629.6z M603.6,524.6h23.1v15h-23.1V524.6z"/>
	</g>
</g>
<g>
	<g>
		<path fill="#1E7A85" d="M661.7,545.6v-24h-28.9v24H661.7z M635.8,524.6h23.1v15h-23.1V524.6z"/>
	</g>
</g>
<g>
	<g>
		<path fill="#1E7A85" d="M322.6,60.3v24h28.9v-24H322.6z M348.6,81.3h-23.1v-15h23.1V81.3z"/>
	</g>
</g>
<g>
	<g>
		<path fill="#1E7A85" d="M290.5,60.3v24h28.9v-24H290.5z M316.5,81.3h-23.1v-15h23.1V81.3z"/>
	</g>
</g>
<g>
	<g>
		<path fill="#1E7A85" d="M258.3,60.3v24h28.8v-24H258.3z M284.3,81.3h-23.1v-15h23.1V81.3z"/>
	</g>
</g>
<g>
	<g>
		<path fill="#1E7A85" d="M226.2,60.3v24H255v-24H226.2z M252.2,81.3h-23.1v-15h23.1V81.3z"/>
	</g>
</g>
<g>
	<g>
		<path fill="#1E7A85" d="M194.1,60.3v24h28.8v-24H194.1z M220,81.3h-23.1v-15H220V81.3z"/>
	</g>
</g>
<g>
	<g>
		<path fill="#1E7A85" d="M161.9,60.3v24h28.9v-24H161.9z M187.9,81.3h-23.1v-15h23.1V81.3z"/>
	</g>
</g>
<g>
	<g>
		<path fill="#1E7A85" d="M794.4,83.6h-24v28.8h24V83.6z M773.4,109.6V86.5h15v23.1H773.4z"/>
	</g>
</g>
<g>
	<g>
		<path fill="#1E7A85" d="M129.4,60.3v24h28.8v-24H129.4z M155.4,81.3h-23.1v-15h23.1V81.3z"/>
	</g>
</g>
<g>
	<g>
		<path fill="#1E7A85" d="M147.4,545.6v-24h-28.9v24H147.4z M121.4,524.6h23.1v15h-23.1V524.6z"/>
	</g>
</g>
<g>
	<g>
		<path fill="#1E7A85" d="M179.5,545.6v-24h-28.8v24H179.5z M153.6,524.6h23.1v15h-23.1V524.6z"/>
	</g>
</g>
<g>
	<g>
		<path fill="#1E7A85" d="M211.7,545.6v-24h-28.8v24H211.7z M185.7,524.6h23.1v15h-23.1V524.6z"/>
	</g>
</g>
<g>
	<g>
		<path fill="#1E7A85" d="M243.8,545.6v-24H215v24H243.8z M217.8,524.6h23.1v15h-23.1V524.6z"/>
	</g>
</g>
<g>
	<g>
		<path fill="#1E7A85" d="M276,545.6v-24h-28.9v24H276z M250,524.6h23.1v15H250V524.6z"/>
	</g>
</g>
<g>
	<g>
		<path fill="#1E7A85" d="M308.1,545.6v-24h-28.8v24H308.1z M282.1,524.6h23.1v15h-23.1V524.6z"/>
	</g>
</g>
<g>
	<g>
		<path fill="#1E7A85" d="M340.3,545.6v-24h-28.9v24H340.3z M314.3,524.6h23.1v15h-23.1V524.6z"/>
	</g>
</g>
<g>
	<g>
		<path fill="#1E7A85" d="M372.4,545.6v-24h-28.9v24H372.4z M346.4,524.6h23.1v15h-23.1V524.6z"/>
	</g>
</g>
<g>
	<g>
		<path fill="#1E7A85" d="M693.9,545.6v-24H665v24H693.9z M667.9,524.6H691v15h-23.1V524.6z"/>
	</g>
</g>
<g>
	<g>
		<path fill="#1E7A85" d="M726,545.6v-24h-28.9v24H726z M700.1,524.6h23.1v15h-23.1V524.6z"/>
	</g>
</g>
<g>
	<g>
		<path fill="#1E7A85" d="M758.2,545.6v-24h-28.8v24H758.2z M732.2,524.6h23.1v15h-23.1V524.6z"/>
	</g>
</g>
<g>
	<g>
		<path fill="#1E7A85" d="M794.4,393.2h-24V422h24V393.2z M773.4,419.2v-23.1h15v23.1H773.4z"/>
	</g>
</g>
<g>
	<g>
		<path fill="#1E7A85" d="M794.4,361h-24v28.8h24V361z M773.4,387v-23.1h15V387H773.4z"/>
	</g>
</g>
<g>
	<g>
		<path fill="#1E7A85" d="M794.4,457.8h-24v28.9h24V457.8z M773.4,483.8v-23.1h15v23.1H773.4z"/>
	</g>
</g>
<g>
	<g>
		<path fill="#1E7A85" d="M794.4,490.1h-24V519h24V490.1z M773.4,516.1V493h15v23.1H773.4z"/>
	</g>
</g>
<g>
	<g>
		<path fill="#1E7A85" d="M794.4,425.7h-24v28.9h24V425.7z M773.4,451.7v-23.1h15v23.1H773.4z"/>
	</g>
</g>
<g>
	<g>
		<path fill="#1E7A85" d="M794.4,328.9h-24v28.9h24V328.9z M773.4,354.9v-23.1h15v23.1H773.4z"/>
	</g>
</g>
<g>
	<g>
		<path fill="#1E7A85" d="M794.4,148.1h-24v28.9h24V148.1z M773.4,174v-23.1h15V174H773.4z"/>
	</g>
</g>
<g>
	<g>
		<path fill="#1E7A85" d="M794.4,115.9h-24v28.9h24V115.9z M773.4,141.9v-23.1h15v23.1H773.4z"/>
	</g>
</g>
<g>
	<g>
		<path fill="#1E7A85" d="M794.4,245.3h-24v28.9h24V245.3z M773.4,271.2v-23.1h15v23.1H773.4z"/>
	</g>
</g>
<g>
	<g>
		<path fill="#1E7A85" d="M794.4,213.1h-24V242h24V213.1z M773.4,239.1V216h15v23.1H773.4z"/>
	</g>
</g>
<g>
	<g>
		<path fill="#1E7A85" d="M794.4,181h-24v28.9h24V181z M773.4,206.9v-23.1h15v23.1H773.4z"/>
	</g>
</g>
<g>
	<g>
		<path fill="#1E7A85" d="M82.5,545.6v-24H53.7v24H82.5z M56.6,524.6h23.1v15H56.6V524.6z"/>
	</g>
</g>
<g>
	<g>
		<path fill="#1E7A85" d="M114.7,545.6v-24H85.8v24H114.7z M88.7,524.6h23.1v15H88.7V524.6z"/>
	</g>
</g>
</svg>
