<?xml version="1.0" encoding="utf-8"?>
<!-- Generator: Adobe Illustrator 18.1.1, SVG Export Plug-In . SVG Version: 6.00 Build 0)  -->
<!DOCTYPE svg PUBLIC "-//W3C//DTD SVG 1.1//EN" "http://www.w3.org/Graphics/SVG/1.1/DTD/svg11.dtd">
<svg version="1.1" id="Layer_1" xmlns="http://www.w3.org/2000/svg" xmlns:xlink="http://www.w3.org/1999/xlink" x="0px" y="0px"
	 viewBox="0 0 1920 1080" enable-background="new 0 0 1920 1080" xml:space="preserve">
<g>
	<g>
		<g>
			<polygon fill="#FFFFFF" points="944.5,752.3 944.5,824.6 1019.1,824.6 1019.1,752.3 992.4,752.3 992.4,741.1 1001.3,741.1 
				981.8,716.9 962.2,741.1 971.1,741.1 971.1,752.3 			"/>
			<path fill="#1E7A85" d="M1019.8,825.4h-76.1v-73.8h26.7v-9.7h-9.7l21.1-26.1l21.1,26.1h-9.7v9.7h26.7V825.4z M945.2,823.9h73.2
				V753h-26.7v-12.6h8.1l-18-22.3l-18,22.3h8.1V753h-26.7V823.9z"/>
		</g>
	</g>
</g>
<g>
	<path fill="#1E7A85" d="M986.7,784.7l10.7,2.4l-35.3,27.3l12.7-21.5l-10.7-2.4l35.3-26.2L986.7,784.7z"/>
</g>
</svg>
