<?xml version="1.0" encoding="utf-8"?>
<!-- Generator: Adobe Illustrator 18.1.1, SVG Export Plug-In . SVG Version: 6.00 Build 0)  -->
<!DOCTYPE svg PUBLIC "-//W3C//DTD SVG 1.1//EN" "http://www.w3.org/Graphics/SVG/1.1/DTD/svg11.dtd">
<svg version="1.1" id="Layer_1" xmlns="http://www.w3.org/2000/svg" xmlns:xlink="http://www.w3.org/1999/xlink" x="0px" y="0px"
	 viewBox="0 0 1920 1080" enable-background="new 0 0 1920 1080" xml:space="preserve">
<g>
	<g>
		<rect x="1418.9" y="327.7" fill="#FFFFFF" width="83.8" height="191.8"/>
		<path fill="#1E7A85" d="M1503.5,520.2h-85.3V327h85.3V520.2z M1419.7,518.8h82.4V328.4h-82.4V518.8z"/>
	</g>
	<g>
		<rect x="1418.9" y="519.5" fill="#FFFFFF" width="83.8" height="191.8"/>
		<path fill="#1E7A85" d="M1503.5,712h-85.3V518.8h85.3V712z M1419.7,710.6h82.4V520.2h-82.4V710.6z"/>
	</g>
	<g>
		<g>
			<g>
				<path fill="#1E7A85" d="M456.7,831.2c-1.8,0-3.6-0.1-5.4-0.3c-13.7-1.5-23.8-8.3-23-15.3c0.7-6,9.1-10.1,20.5-10.1
					c1.8,0,3.6,0.1,5.4,0.3c9.2,1,17.2,4.6,20.9,9.2c1.6,2,2.3,4.1,2,6.1C476.4,827,468,831.2,456.7,831.2z M448.8,806.9
					c-10.4,0-18.4,3.7-19,8.8c-0.7,6.1,9,12.3,21.7,13.7c1.7,0.2,3.5,0.3,5.2,0.3c10.4,0,18.4-3.7,19-8.8c0.2-1.7-0.4-3.3-1.7-5
					c-3.4-4.3-11.3-7.7-20-8.7C452.2,807,450.5,806.9,448.8,806.9z"/>
			</g>
			<g>
				<path fill="#1E7A85" d="M453.2,831c-0.6,0-1.3,0-1.9-0.1c-3.3-0.5-6.3-2.3-8.3-5c-2-2.7-2.8-6-2.3-9.4
					c0.9-6.1,6.3-10.8,12.5-10.8c0.6,0,1.3,0,1.9,0.1c6.9,1,11.7,7.5,10.6,14.4C464.8,826.4,459.4,831,453.2,831z M453.2,807.2
					c-5.5,0-10.2,4.1-11,9.5c-0.4,2.9,0.3,5.9,2,8.3c1.8,2.4,4.4,4,7.3,4.4c0.6,0.1,1.1,0.1,1.7,0.1c5.5,0,10.2-4.1,11.1-9.5
					c0.9-6.1-3.3-11.8-9.4-12.7C454.3,807.2,453.8,807.2,453.2,807.2z"/>
			</g>
		</g>
		<g>
			<g>
				<path fill="#1E7A85" d="M417.1,751.4c-7.9,0-13.4-2.6-14.7-7c-2-6.8,6.7-15.2,19.9-19.2c4.2-1.3,8.5-1.9,12.4-1.9
					c7.9,0,13.4,2.6,14.7,7c1,3.3-0.6,7.2-4.5,10.8c-3.7,3.5-9.2,6.5-15.4,8.4C425.3,750.8,421,751.4,417.1,751.4z M434.7,724.8
					c-3.8,0-7.9,0.6-12,1.9c-12.2,3.7-20.7,11.4-18.9,17.3c1.1,3.7,6.2,5.9,13.3,5.9c3.8,0,7.9-0.6,12-1.9c6-1.8,11.3-4.6,14.9-8
					c3.5-3.2,4.9-6.6,4.1-9.3C446.9,727.1,441.8,724.8,434.7,724.8z"/>
			</g>
			<g>
				<path fill="#1E7A85" d="M426.4,749.9c-5.7,0-10.8-3.9-12.2-9.5c-0.9-3.3-0.4-6.7,1.3-9.6c1.7-2.9,4.4-5,7.7-5.8
					c1-0.3,2.1-0.4,3.2-0.4c5.8,0,10.8,3.9,12.2,9.5c1.8,6.8-2.3,13.7-9,15.4C428.5,749.7,427.5,749.9,426.4,749.9z M426.4,726.1
					c-0.9,0-1.9,0.1-2.8,0.4c-2.9,0.8-5.3,2.6-6.8,5.2c-1.5,2.6-1.9,5.6-1.2,8.5c1.3,4.9,5.7,8.4,10.8,8.4c1,0,1.9-0.1,2.8-0.4
					c6-1.5,9.6-7.7,8-13.6C435.9,729.5,431.5,726.1,426.4,726.1z"/>
			</g>
		</g>
		<g>
			<g>
				<path fill="#1E7A85" d="M500.1,803.4c-0.3,0-0.5,0-0.8,0c-7-0.8-11.3-12.1-9.8-25.8c1.5-13.4,8.4-23.8,15.3-23
					c7,0.8,11.3,12.1,9.8,25.8C513.2,793.3,506.8,803.4,500.1,803.4z M504.1,756c-5.9,0-11.7,9.7-13.1,21.7
					c-1.4,12.7,2.4,23.5,8.5,24.2c6,0.7,12.3-9.3,13.7-21.7c1.4-12.6-2.4-23.5-8.5-24.2C504.5,756,504.3,756,504.1,756z"/>
			</g>
			<g>
				<path fill="#1E7A85" d="M502.1,792.1c-0.6,0-1.2,0-1.9-0.1c-6.9-1.1-11.7-7.5-10.6-14.4c0.9-6.1,6.3-10.7,12.5-10.7
					c0.6,0,1.3,0,1.9,0.1c3.3,0.5,6.3,2.3,8.3,5c2,2.7,2.8,6.1,2.3,9.4C513.6,787.5,508.3,792.1,502.1,792.1z M502,768.3
					c-5.5,0-10.2,4.1-11,9.5c-0.9,6.1,3.3,11.8,9.4,12.7c0.5,0.1,1.1,0.1,1.6,0.1c5.5,0,10.3-4.1,11.1-9.5c0.4-3-0.3-5.9-2.1-8.3
					c-1.8-2.4-4.4-4-7.3-4.4C503.2,768.3,502.6,768.3,502,768.3z"/>
			</g>
		</g>
	</g>
	<g>
		<g>
			<path fill="#1E7A85" d="M1194.4,306.9c-6.2,0-14.1-6.9-19.2-16.8c-6.3-12.2-6.4-24.4-0.1-27.6c1-0.5,2.1-0.8,3.3-0.8
				c6.2,0,14.1,6.9,19.2,16.8c3,5.8,4.7,11.8,4.7,16.9c0.1,5.3-1.6,9.1-4.7,10.7C1196.7,306.7,1195.6,306.9,1194.4,306.9z
				 M1178.5,263.2c-1,0-1.9,0.2-2.7,0.6c-5.5,2.8-5.2,14.3,0.7,25.7c4.9,9.4,12.2,16,17.9,16c1,0,1.9-0.2,2.7-0.6
				c2.6-1.3,4-4.7,3.9-9.4c-0.1-4.9-1.7-10.7-4.6-16.2C1191.5,269.8,1184.1,263.2,1178.5,263.2z"/>
		</g>
		<g>
			<path fill="#1E7A85" d="M1186.2,296.5c-4.9,0-9.4-2.8-11.4-7.2c-3-6.3-0.3-13.9,6-16.8c1.7-0.8,3.5-1.2,5.4-1.2
				c4.9,0,9.4,2.8,11.5,7.3c1.4,3,1.6,6.5,0.5,9.7s-3.4,5.7-6.5,7.2C1189.9,296.1,1188.1,296.5,1186.2,296.5z M1186.2,272.7
				c-1.7,0-3.3,0.4-4.8,1.1c-5.6,2.6-8,9.3-5.3,14.9c1.8,3.9,5.8,6.4,10.1,6.4c1.7,0,3.3-0.4,4.8-1.1c2.7-1.3,4.7-3.5,5.7-6.3
				s0.9-5.8-0.4-8.5C1194.5,275.2,1190.5,272.7,1186.2,272.7z"/>
		</g>
	</g>
	<g>
		<g>
			<path fill="#1E7A85" d="M1283.7,448c-1.5,0-2.9-0.4-4.1-1.1c-1.7-1.1-2.9-3-3.5-5.4c-1.3-5.8,1.1-14.3,6.1-22.1
				c5.7-9,13.7-15,19.8-15c1.5,0,2.9,0.4,4.1,1.1c6,3.8,4.8,15.9-2.6,27.5C1297.8,442,1289.8,448,1283.7,448z M1302,405.9
				c-5.6,0-13.2,5.9-18.6,14.3c-4.7,7.4-7,15.6-5.9,21c0.5,2.1,1.4,3.6,2.8,4.5c0.9,0.6,2,0.9,3.3,0.9c5.6,0,13.2-5.9,18.6-14.3
				c6.9-10.7,8.2-22.2,3-25.5C1304.4,406.2,1303.3,405.9,1302,405.9z"/>
		</g>
		<g>
			<path fill="#1E7A85" d="M1292.6,439.3c-2.6,0-5.1-0.8-7.2-2.2c-5.7-4-7.1-11.9-3.2-17.6c2.4-3.4,6.2-5.4,10.4-5.4
				c2.6,0,5.1,0.8,7.2,2.3c2.8,1.9,4.6,4.8,5.2,8.1c0.6,3.3-0.1,6.7-2.1,9.5C1300.6,437.3,1296.7,439.3,1292.6,439.3z M1292.6,415.5
				c-3.7,0-7.1,1.8-9.2,4.8c-3.5,5.1-2.3,12.1,2.8,15.6c1.9,1.3,4.1,2,6.4,2c3.7,0,7.1-1.8,9.2-4.8c1.7-2.5,2.4-5.4,1.8-8.4
				c-0.5-2.9-2.2-5.5-4.6-7.2C1297.1,416.2,1294.9,415.5,1292.6,415.5z"/>
		</g>
	</g>
	<g>
		<g>
			<path fill="#1E7A85" d="M1312.6,382c-6.2,0-14.1-6.9-19.2-16.8c-4.3-8.2-5.8-16.9-4-22.5c0.8-2.4,2.1-4.2,3.9-5.1
				c1-0.5,2.1-0.8,3.3-0.8c6.2,0,14.1,6.9,19.2,16.8c4.3,8.2,5.8,16.9,4,22.5c-0.8,2.4-2.1,4.1-3.9,5.1
				C1314.9,381.7,1313.8,382,1312.6,382z M1296.7,338.2c-1,0-1.9,0.2-2.7,0.6c-1.5,0.8-2.6,2.2-3.2,4.2c-1.7,5.2-0.1,13.6,3.9,21.4
				c4.9,9.4,12.2,16,17.9,16c1,0,1.9-0.2,2.7-0.6c1.5-0.8,2.6-2.2,3.2-4.2c1.7-5.2,0.1-13.6-3.9-21.4
				C1309.7,344.8,1302.3,338.2,1296.7,338.2z"/>
		</g>
		<g>
			<path fill="#1E7A85" d="M1304.9,372.5c-4.9,0-9.4-2.8-11.5-7.3c-1.4-3.1-1.6-6.5-0.5-9.7c1.1-3.2,3.5-5.7,6.5-7.1
				c1.7-0.8,3.5-1.2,5.4-1.2c4.9,0,9.4,2.8,11.4,7.2c3,6.3,0.3,13.9-6,16.8C1308.6,372,1306.7,372.5,1304.9,372.5z M1304.8,348.6
				c-1.7,0-3.3,0.4-4.8,1.1c-2.7,1.3-4.7,3.5-5.7,6.3c-1,2.8-0.9,5.9,0.4,8.6c1.8,3.9,5.8,6.4,10.2,6.4c1.7,0,3.3-0.4,4.8-1.1
				c5.6-2.6,8-9.3,5.3-14.9C1313.1,351.1,1309.1,348.6,1304.8,348.6z"/>
		</g>
	</g>
	<g>
		<g>
			<path fill="#1E7A85" d="M1086.1,443.4c-0.8,0-1.5,0-2.3-0.1c-6.5-0.3-12.5-1.8-17-4.3c-4.6-2.6-7.1-5.9-7-9.4
				c0.3-7,11.4-12.2,25.1-11.5c6.5,0.3,12.5,1.8,17,4.3c4.6,2.6,7.1,5.9,7,9.4C1108.7,438.4,1098.8,443.4,1086.1,443.4z
				 M1082.7,419.5c-11.7,0-21.1,4.5-21.3,10.2c-0.1,2.9,2.1,5.8,6.2,8.1c4.3,2.4,10.1,3.9,16.3,4.2c12.8,0.6,23.3-4,23.6-10.1
				c0.1-2.9-2.1-5.7-6.2-8.1c-4.3-2.4-10.1-3.9-16.4-4.2C1084.2,419.5,1083.4,419.5,1082.7,419.5z"/>
		</g>
		<g>
			<path fill="#1E7A85" d="M1084.9,443.4c-0.3,0-0.7,0-1.1,0c-3.4-0.3-6.4-1.9-8.6-4.4c-2.2-2.6-3.2-5.8-2.9-9.2
				c0.5-6.9,6.6-12.1,13.6-11.6c3.3,0.3,6.4,1.8,8.6,4.4c2.2,2.6,3.3,5.9,3,9.2C1097,438.3,1091.5,443.4,1084.9,443.4z
				 M1084.9,419.6c-5.8,0-10.6,4.5-11.1,10.3c-0.3,3,0.7,5.9,2.6,8.1c1.9,2.3,4.6,3.7,7.6,3.9c6.2,0.5,11.6-4.2,12.1-10.2
				c0.2-3-0.7-5.9-2.6-8.2c-1.9-2.3-4.6-3.7-7.6-3.9C1085.5,419.6,1085.2,419.6,1084.9,419.6z"/>
		</g>
	</g>
	<g>
		<g>
			<path fill="#1E7A85" d="M1058.4,318.1c-1.5,0-2.9-0.4-4.1-1.1c-6-3.8-4.8-15.9,2.6-27.5c5.7-9,13.7-15,19.8-15
				c1.5,0,2.9,0.4,4.1,1.1c6,3.8,4.8,15.9-2.6,27.5C1072.4,312,1064.5,318.1,1058.4,318.1z M1076.7,275.9c-5.6,0-13.2,5.9-18.6,14.3
				c-6.9,10.7-8.2,22.1-3,25.5c0.9,0.6,2,0.9,3.3,0.9c5.6,0,13.2-5.9,18.6-14.3c6.9-10.7,8.2-22.2,3.1-25.5
				C1079.1,276.2,1078,275.9,1076.7,275.9z"/>
		</g>
		<g>
			<path fill="#1E7A85" d="M1067.8,308.5c-2.6,0-5.1-0.8-7.2-2.3c-2.8-1.9-4.7-4.8-5.3-8.1c-0.6-3.3,0.1-6.7,2.1-9.5
				c2.3-3.4,6.2-5.4,10.4-5.4c2.6,0,5.1,0.8,7.2,2.2c2.8,1.9,4.6,4.8,5.2,8.1c0.6,3.3-0.1,6.7-2.1,9.5
				C1075.9,306.4,1072,308.5,1067.8,308.5z M1067.8,284.7c-3.7,0-7.1,1.8-9.2,4.8c-1.7,2.5-2.4,5.4-1.8,8.4c0.5,2.9,2.2,5.5,4.7,7.2
				c1.9,1.3,4.1,2,6.4,2c3.7,0,7.1-1.8,9.2-4.8c1.7-2.5,2.4-5.4,1.8-8.4c-0.5-2.9-2.2-5.5-4.6-7.2
				C1072.3,285.3,1070.1,284.7,1067.8,284.7z"/>
		</g>
	</g>
	<g>
		<g>
			<path fill="#1E7A85" d="M1133.7,794.6c-0.3,0-0.5,0-0.8,0c-2-0.2-3.9-1.4-5.5-3.3c-3.7-4.6-5.4-13.2-4.3-22.5
				c1.5-13.4,8.3-23.7,15.3-23c7,0.8,11.3,12.1,9.8,25.8C1146.8,784.5,1140.4,794.6,1133.7,794.6z M1137.7,747.2
				c-6,0-11.7,9.5-13.1,21.7c-1,8.7,0.6,17.1,4,21.4c1.3,1.7,2.9,2.6,4.5,2.8c0.2,0,0.4,0,0.6,0c5.9,0,11.7-9.7,13.1-21.7
				c1.4-12.6-2.4-23.5-8.5-24.2C1138.1,747.2,1137.9,747.2,1137.7,747.2z"/>
		</g>
		<g>
			<path fill="#1E7A85" d="M1135.6,783.3c-0.6,0-1.3,0-1.9-0.1c-6.9-1.1-11.7-7.5-10.6-14.4c0.9-6.1,6.3-10.7,12.5-10.7
				c0.6,0,1.3,0,1.9,0.1c3.3,0.5,6.3,2.3,8.3,5c2,2.7,2.8,6.1,2.3,9.4C1147.2,778.7,1141.8,783.3,1135.6,783.3z M1135.6,759.5
				c-5.5,0-10.2,4.1-11,9.5c-0.9,6.1,3.3,11.8,9.4,12.7c0.5,0.1,1.1,0.1,1.7,0.1c5.5,0,10.2-4.1,11.1-9.5c0.4-3-0.3-5.9-2.1-8.3
				c-1.8-2.4-4.4-4-7.3-4.4C1136.7,759.5,1136.1,759.5,1135.6,759.5z"/>
		</g>
	</g>
	<g>
		<g>
			<path fill="#1E7A85" d="M1341.4,656.3c-6.4,0-13.7-8.5-17.2-20.2c-4-13.2-1.7-25.1,5.1-27.1c0.6-0.2,1.3-0.3,2-0.3
				c6.4,0,13.7,8.5,17.2,20.2c1.9,6.2,2.4,12.4,1.5,17.5c-0.9,5.2-3.2,8.7-6.6,9.7C1342.7,656.2,1342,656.3,1341.4,656.3z
				 M1331.2,610.1c-0.5,0-1.1,0.1-1.6,0.2c-5.9,1.8-7.7,13.1-4.1,25.3c3.3,10.9,10.1,19.1,15.8,19.1c0.5,0,1.1-0.1,1.6-0.2
				c2.8-0.8,4.7-3.9,5.6-8.5c0.8-4.8,0.3-10.8-1.5-16.8C1343.7,618.3,1337,610.1,1331.2,610.1z"/>
		</g>
		<g>
			<path fill="#1E7A85" d="M1336.4,645.6c-5.8,0-10.8-3.9-12.2-9.5c-0.9-3.3-0.4-6.7,1.3-9.6c1.7-2.9,4.4-5,7.7-5.8
				c1.1-0.3,2.1-0.4,3.2-0.4c5.7,0,10.8,3.9,12.2,9.4c0.9,3.3,0.4,6.7-1.3,9.6c-1.7,2.9-4.5,5-7.7,5.8
				C1338.6,645.4,1337.5,645.6,1336.4,645.6z M1336.5,621.8c-1,0-1.9,0.1-2.8,0.4c-2.9,0.8-5.3,2.6-6.8,5.2
				c-1.5,2.6-1.9,5.6-1.2,8.5c1.3,4.9,5.7,8.4,10.8,8.4c0.9,0,1.9-0.1,2.8-0.4c2.9-0.7,5.3-2.6,6.8-5.2s1.9-5.6,1.2-8.5
				C1346,625.2,1341.5,621.8,1336.5,621.8z"/>
		</g>
	</g>
	<g>
		<g>
			<path fill="#1E7A85" d="M1213,753.8c-1.8,0-3.6-0.1-5.4-0.3c-9.2-1-17.2-4.6-20.9-9.2c-1.6-2-2.3-4.1-2-6.1
				c0.7-5.9,9.1-10.1,20.4-10.1c1.8,0,3.6,0.1,5.4,0.3c9.2,1,17.2,4.6,20.9,9.2c1.6,2,2.3,4.1,2,6.1
				C1232.8,749.6,1224.4,753.8,1213,753.8z M1205.1,729.5c-10.4,0-18.4,3.7-19,8.8c-0.2,1.7,0.4,3.3,1.7,5c3.4,4.3,11.3,7.7,20,8.7
				c1.7,0.2,3.5,0.3,5.2,0.3c10.4,0,18.4-3.7,19-8.8c0.2-1.7-0.4-3.4-1.7-5c-3.4-4.3-11.2-7.7-19.9-8.7
				C1208.6,729.6,1206.8,729.5,1205.1,729.5z"/>
		</g>
		<g>
			<path fill="#1E7A85" d="M1208.6,753.5c-0.6,0-1.3,0-1.9-0.1c-6.9-1-11.7-7.5-10.6-14.4c0.9-6.1,6.3-10.8,12.5-10.8
				c0.6,0,1.3,0,1.9,0.1c3.3,0.5,6.3,2.3,8.3,5c2,2.7,2.8,6.1,2.3,9.4C1220.1,748.9,1214.8,753.5,1208.6,753.5z M1208.6,729.7
				c-5.5,0-10.2,4.1-11.1,9.5c-0.9,6.1,3.3,11.8,9.4,12.7c0.6,0.1,1.1,0.1,1.7,0.1c5.5,0,10.2-4.1,11-9.5c0.4-3-0.3-5.9-2.1-8.3
				c-1.8-2.4-4.4-4-7.3-4.4C1209.7,729.7,1209.1,729.7,1208.6,729.7z"/>
		</g>
	</g>
	<g>
		<g>
			<path fill="#1E7A85" d="M1377.4,692.3c-1.8,0-3.6-0.1-5.3-0.3c-13.5-1.5-23.8-8.4-23-15.3c0.7-6,9.1-10.1,20.5-10.1
				c1.8,0,3.6,0.1,5.4,0.3c6.4,0.7,12.3,2.7,16.7,5.5c4.5,2.9,6.7,6.4,6.3,9.8C1397.2,688.2,1388.8,692.3,1377.4,692.3z
				 M1369.6,668.1c-10.4,0-18.4,3.7-19,8.8c-0.7,6,9.3,12.3,21.7,13.7c1.7,0.2,3.5,0.3,5.2,0.3c10.4,0,18.4-3.7,19-8.8
				c0.3-2.9-1.7-5.9-5.7-8.5c-4.1-2.7-9.8-4.5-16-5.2C1373,668.2,1371.3,668.1,1369.6,668.1z"/>
		</g>
		<g>
			<path fill="#1E7A85" d="M1373,692.1c-0.6,0-1.3,0-1.9-0.1c-6.9-1-11.7-7.5-10.6-14.4c0.9-6.1,6.3-10.8,12.5-10.8
				c0.6,0,1.3,0,1.9,0.1c3.3,0.5,6.3,2.3,8.3,5c2,2.7,2.8,6.1,2.3,9.4C1384.6,687.4,1379.2,692.1,1373,692.1z M1373,668.2
				c-5.5,0-10.2,4.1-11,9.5c-0.9,6.1,3.3,11.8,9.4,12.7c0.6,0.1,1.1,0.1,1.7,0.1c5.5,0,10.2-4.1,11-9.5c0.4-3-0.3-5.9-2.1-8.3
				c-1.8-2.4-4.4-4-7.3-4.4C1374.1,668.3,1373.6,668.2,1373,668.2z"/>
		</g>
	</g>
	<g>
		<g>
			<path fill="#1E7A85" d="M788.3,301c-2,0-4.1-0.1-6.2-0.4c-13.6-1.8-23.6-8.7-22.7-15.8c0.8-5.7,8.9-9.7,19.8-9.7
				c2,0,4.2,0.1,6.3,0.4c6.4,0.9,12.3,2.9,16.5,5.8c4.4,3,6.6,6.5,6.1,10C807.3,297.1,799.2,301,788.3,301z M779.2,276.6
				c-10.1,0-17.6,3.5-18.3,8.4c-0.8,6.1,8.8,12.5,21.4,14.1c2,0.3,4.1,0.4,6,0.4c10.1,0,17.7-3.5,18.3-8.4c0.4-2.9-1.6-5.9-5.5-8.6
				c-4.1-2.8-9.7-4.7-15.9-5.6C783.2,276.7,781.2,276.6,779.2,276.6z"/>
		</g>
		<g>
			<path fill="#1E7A85" d="M783.3,300.7c-0.7,0-1.4-0.1-2.1-0.2c-6.9-1.2-11.5-7.7-10.3-14.6c1.1-6.1,6.3-10.5,12.5-10.5
				c0.7,0,1.4,0.1,2.1,0.2c3.3,0.6,6.2,2.4,8.2,5.2c2,2.8,2.7,6.1,2.1,9.4C794.7,296.2,789.4,300.7,783.3,300.7z M783.3,276.8
				c-5.5,0-10.1,3.9-11,9.3c-1,6.1,3.1,11.9,9.2,12.9c0.6,0.1,1.3,0.2,1.9,0.2c5.5,0,10.1-3.9,11-9.3c0.5-2.9-0.2-5.9-1.9-8.3
				c-1.7-2.4-4.3-4.1-7.2-4.6C784.5,276.9,783.9,276.8,783.3,276.8z"/>
		</g>
	</g>
	<g>
		<g>
			<path fill="#1E7A85" d="M965.4,461.3c-6.3,0-13.9-7.6-18.3-18.4c-5.3-12.7-4.2-24.8,2.3-27.5c0.8-0.3,1.7-0.5,2.7-0.5
				c6.3,0,13.9,7.6,18.4,18.4c3.5,8.6,4.3,17.3,2,22.8c-1,2.3-2.5,4-4.4,4.7C967.2,461.1,966.3,461.3,965.4,461.3z M952.1,416.3
				c-0.8,0-1.5,0.1-2.1,0.4c-5.7,2.4-6.4,13.8-1.5,25.6c4.2,10.1,11.3,17.5,17,17.5c0.8,0,1.5-0.1,2.1-0.4c1.5-0.6,2.7-2,3.6-3.9
				c2.1-5.1,1.3-13.6-2-21.7C964.9,423.6,957.7,416.3,952.1,416.3z"/>
		</g>
		<g>
			<path fill="#1E7A85" d="M958.9,451.1c-5.3,0-10-3.3-11.9-8.3c-1.2-3.2-1-6.6,0.4-9.7c1.4-3.1,3.9-5.4,7.1-6.6
				c1.4-0.5,2.9-0.8,4.4-0.8c5.3,0,10,3.3,11.9,8.3c2.4,6.5-0.9,13.8-7.5,16.2C961.9,450.9,960.4,451.1,958.9,451.1z M958.9,427.3
				c-1.3,0-2.6,0.2-3.9,0.7c-2.8,1-5,3.1-6.3,5.8c-1.2,2.7-1.4,5.8-0.3,8.5c1.6,4.4,5.8,7.3,10.5,7.3c1.3,0,2.6-0.2,3.9-0.7
				c5.8-2.1,8.7-8.6,6.6-14.4C967.8,430.3,963.6,427.3,958.9,427.3z"/>
		</g>
	</g>
	<g>
		<g>
			<path fill="#1E7A85" d="M864.9,343.6c-6.2,0-14.1-6.9-19.2-16.8c-4.3-8.2-5.8-16.9-4-22.5c0.8-2.4,2.1-4.2,4-5.1
				c1-0.5,2.1-0.8,3.3-0.8c6.2,0,14.1,6.9,19.1,16.8c3,5.8,4.6,11.8,4.7,16.9c0.1,5.3-1.6,9.1-4.7,10.7
				C867.2,343.4,866.1,343.6,864.9,343.6z M849.1,299.9c-1,0-1.9,0.2-2.7,0.6c-1.5,0.8-2.6,2.2-3.2,4.2c-1.7,5.2-0.1,13.6,3.9,21.4
				c4.9,9.4,12.2,16,17.9,16c1,0,1.9-0.2,2.7-0.6c2.6-1.3,3.9-4.7,3.9-9.4c-0.1-4.9-1.7-10.7-4.5-16.3
				C862.1,306.5,854.7,299.9,849.1,299.9z"/>
		</g>
		<g>
			<path fill="#1E7A85" d="M857.2,334.1c-4.9,0-9.4-2.9-11.5-7.3c-1.4-3.1-1.6-6.5-0.4-9.7c1.1-3.2,3.5-5.7,6.5-7.1
				c1.7-0.8,3.5-1.2,5.4-1.2c4.9,0,9.4,2.8,11.4,7.3c3,6.3,0.3,13.9-6,16.8C860.9,333.7,859.1,334.1,857.2,334.1z M857.2,310.3
				c-1.7,0-3.3,0.4-4.8,1.1c-2.7,1.3-4.7,3.5-5.8,6.3c-1,2.8-0.9,5.9,0.4,8.6c1.8,3.9,5.8,6.4,10.2,6.4c1.6,0,3.2-0.4,4.7-1.1
				c5.6-2.6,8-9.3,5.3-14.9C865.5,312.8,861.5,310.3,857.2,310.3z"/>
		</g>
	</g>
	<g>
		<g>
			<path fill="#1E7A85" d="M910.5,471.5c-6.3,0-13.9-7.6-18.4-18.4c-5.2-12.7-4.2-24.8,2.3-27.5c0.8-0.3,1.7-0.5,2.7-0.5
				c6.3,0,13.9,7.6,18.4,18.4c5.2,12.7,4.2,24.8-2.3,27.5C912.4,471.3,911.5,471.5,910.5,471.5z M897.2,426.5
				c-0.8,0-1.5,0.1-2.1,0.4c-5.7,2.4-6.4,13.8-1.5,25.6c4.2,10.1,11.3,17.5,17,17.5c0.8,0,1.5-0.1,2.1-0.4
				c5.7-2.4,6.4-13.9,1.5-25.6C910,433.8,902.9,426.5,897.2,426.5z"/>
		</g>
		<g>
			<path fill="#1E7A85" d="M903.7,460.4c-5.3,0-10-3.3-11.8-8.3c-1.2-3.1-1-6.6,0.4-9.6c1.4-3.1,3.9-5.4,7.1-6.6
				c1.4-0.5,2.9-0.8,4.4-0.8c5.3,0,10,3.3,11.9,8.3c1.2,3.2,1,6.6-0.4,9.6c-1.4,3.1-3.9,5.4-7.1,6.6
				C906.7,460.2,905.2,460.4,903.7,460.4z M903.7,436.6c-1.3,0-2.6,0.2-3.9,0.7c-2.8,1-5,3.1-6.3,5.8c-1.2,2.7-1.4,5.7-0.3,8.5
				c1.6,4.4,5.8,7.3,10.5,7.3c1.3,0,2.6-0.2,3.9-0.7c2.8-1,5-3.1,6.3-5.8c1.2-2.7,1.4-5.7,0.3-8.5
				C912.6,439.5,908.3,436.6,903.7,436.6z"/>
		</g>
	</g>
	<g>
		<g>
			<path fill="#1E7A85" d="M927.6,634.1c-5.8,0-13.5-3.6-20-9.4c-10.3-9.1-14.7-20.4-10.1-25.7c1.5-1.7,3.8-2.6,6.7-2.6
				c5.8,0,13.5,3.6,20,9.4c4.9,4.3,8.6,9.3,10.5,14c2,4.9,1.8,9.1-0.5,11.7C932.9,633.2,930.6,634.1,927.6,634.1z M904.3,597.9
				c-2.5,0-4.4,0.7-5.6,2.1c-4.1,4.6,0.4,15.2,9.9,23.7c6.3,5.6,13.6,9,19.1,9c2.5,0,4.4-0.7,5.6-2.1c1.9-2.2,2-5.8,0.2-10.2
				c-1.8-4.6-5.4-9.4-10.1-13.5C917.1,601.3,909.8,597.9,904.3,597.9z"/>
		</g>
		<g>
			<path fill="#1E7A85" d="M916.3,628.2c-3.3,0-6.3-1.2-8.7-3.5c-2.4-2.3-3.8-5.5-3.9-8.8c-0.1-3.4,1.1-6.6,3.5-9
				c2.4-2.5,5.7-4,9.2-4c3.2,0,6.3,1.2,8.7,3.5c5,4.8,5.3,12.8,0.5,17.9C923.1,626.8,919.8,628.2,916.3,628.2z M916.4,604.4
				c-3.1,0-6,1.2-8.1,3.5c-2.1,2.2-3.1,5-3.1,8c0.1,3,1.3,5.8,3.5,7.8c2.1,2,4.8,3.1,7.7,3.1c3.1,0,6-1.2,8.1-3.5
				c4.2-4.5,4-11.6-0.4-15.8C922,605.5,919.2,604.4,916.4,604.4z"/>
		</g>
	</g>
	<g>
		<g>
			<path fill="#1E7A85" d="M1167,581.6c-5.8,0-13.5-3.6-20-9.4c-10.3-9.1-14.7-20.4-10.1-25.7c1.5-1.7,3.8-2.6,6.7-2.6
				c5.8,0,13.5,3.6,20,9.4c4.9,4.3,8.6,9.3,10.5,14c2,4.9,1.8,9.1-0.5,11.7C1172.2,580.7,1169.9,581.6,1167,581.6z M1143.6,545.3
				c-2.5,0-4.4,0.7-5.6,2.1c-4.1,4.6,0.4,15.2,9.9,23.7c6.3,5.6,13.6,9,19.1,9c2.5,0,4.4-0.7,5.6-2.1c1.9-2.2,2-5.8,0.2-10.2
				c-1.8-4.6-5.4-9.4-10.1-13.5C1156.4,548.8,1149.1,545.3,1143.6,545.3z"/>
		</g>
		<g>
			<path fill="#1E7A85" d="M1155.7,575.7c-3.3,0-6.3-1.2-8.7-3.5c-2.4-2.3-3.8-5.5-3.9-8.8c-0.1-3.4,1.1-6.6,3.5-9
				c2.4-2.5,5.7-4,9.2-4c3.2,0,6.3,1.2,8.7,3.5c5.1,4.8,5.3,12.8,0.5,17.9C1162.5,574.2,1159.1,575.7,1155.7,575.7z M1155.7,551.9
				c-3.1,0-6,1.2-8.1,3.5c-2.1,2.2-3.1,5-3.1,8c0.1,3,1.3,5.8,3.5,7.8c2.1,2,4.8,3.1,7.7,3.1c3.1,0,6-1.2,8.1-3.5
				c4.2-4.5,4-11.6-0.4-15.8C1161.3,552.9,1158.6,551.9,1155.7,551.9z"/>
		</g>
	</g>
	<g>
		<g>
			<path fill="#1E7A85" d="M1028.5,743.4c-4.2,0-8.8-0.8-13.3-2.3c-13.1-4.3-21.6-13-19.3-19.7c1.4-4.1,6.6-6.6,14-6.6
				c4.2,0,8.8,0.8,13.3,2.3c13.1,4.3,21.6,13,19.4,19.7C1041.2,740.9,1035.9,743.4,1028.5,743.4z M1009.9,716.3
				c-6.7,0-11.5,2.1-12.6,5.6c-1.9,5.9,6.3,13.9,18.4,17.9c4.4,1.4,8.8,2.2,12.8,2.2c6.7,0,11.5-2.1,12.6-5.6
				c1.9-5.8-6.5-13.9-18.4-17.8C1018.3,717,1013.9,716.3,1009.9,716.3z"/>
		</g>
		<g>
			<path fill="#1E7A85" d="M1019.7,741.9c-1.5,0-3-0.3-4.4-0.8c-3.2-1.2-5.7-3.5-7.1-6.6s-1.5-6.5-0.4-9.7c1.8-4.9,6.6-8.3,11.9-8.3
				c1.5,0,3,0.3,4.4,0.8c3.2,1.2,5.7,3.5,7.1,6.6c1.4,3.1,1.5,6.5,0.4,9.7C1029.7,738.6,1024.9,741.9,1019.7,741.9z M1019.7,718.1
				c-4.7,0-8.9,2.9-10.5,7.3c-1,2.8-0.9,5.8,0.3,8.5c1.2,2.7,3.5,4.8,6.3,5.8c1.3,0.5,2.6,0.7,3.9,0.7c4.7,0,8.9-2.9,10.5-7.3
				c1-2.8,0.9-5.8-0.3-8.6c-1.2-2.7-3.5-4.8-6.3-5.8C1022.3,718.3,1021,718.1,1019.7,718.1z"/>
		</g>
	</g>
	<g>
		<g>
			<path fill="#1E7A85" d="M844.9,654.4c-2.2,0-4-0.6-5.4-1.8c-1.5-1.3-2.4-3.4-2.6-5.9c-0.4-5.9,3.2-13.9,9.3-20.9
				c6.4-7.2,14.3-11.9,20.3-11.9c2.2,0,4,0.6,5.4,1.9c1.5,1.3,2.4,3.4,2.6,5.9c0.4,5.9-3.2,13.9-9.3,20.9
				C858.9,649.8,850.9,654.4,844.9,654.4z M866.6,615.4c-5.6,0-13.1,4.5-19.2,11.4c-5.8,6.6-9.3,14.4-9,19.8
				c0.1,2.1,0.8,3.8,2.1,4.9c1.1,1,2.6,1.5,4.4,1.5c5.6,0,13.1-4.5,19.2-11.4c5.8-6.6,9.3-14.4,9-19.8c-0.1-2.1-0.8-3.8-2.1-4.9
				C869.9,615.9,868.4,615.4,866.6,615.4z"/>
		</g>
		<g>
			<path fill="#1E7A85" d="M855.4,647.2c-3.3,0-6.3-1.2-8.7-3.5c-5-4.8-5.3-12.8-0.5-17.9c2.4-2.5,5.6-3.9,9.1-3.9
				c3.3,0,6.3,1.2,8.7,3.5c2.5,2.3,3.9,5.5,3.9,8.8c0.1,3.4-1.1,6.6-3.5,9C862.2,645.8,858.9,647.2,855.4,647.2z M855.4,623.4
				c-3.1,0-6,1.2-8.1,3.5c-4.2,4.5-4.1,11.6,0.4,15.8c2.1,2,4.8,3.1,7.7,3.1c3.1,0,6-1.2,8.1-3.5c2.1-2.2,3.1-5,3.1-8
				c-0.1-3-1.3-5.8-3.5-7.8C861,624.4,858.3,623.4,855.4,623.4z"/>
		</g>
	</g>
	<g>
		<g>
			<path fill="#1E7A85" d="M1072.6,596.1c-2.2,0-4-0.6-5.4-1.8c-1.5-1.3-2.4-3.4-2.6-5.9c-0.4-5.9,3.2-13.9,9.3-20.9
				c6.4-7.2,14.3-11.9,20.3-11.9c2.2,0,4,0.6,5.4,1.9c1.5,1.3,2.4,3.4,2.6,5.9c0.4,5.9-3.2,13.9-9.3,20.9
				C1086.5,591.4,1078.6,596.1,1072.6,596.1z M1094.2,557c-5.6,0-13.1,4.5-19.2,11.4c-5.8,6.6-9.3,14.4-9,19.8
				c0.1,2.1,0.8,3.8,2.1,4.9c1.1,1,2.6,1.5,4.4,1.5c5.6,0,13.1-4.5,19.2-11.4c5.8-6.6,9.3-14.4,9-19.8c-0.1-2.1-0.8-3.8-2.1-4.9
				C1097.6,557.5,1096.1,557,1094.2,557z"/>
		</g>
		<g>
			<path fill="#1E7A85" d="M1083.1,588.8c-3.3,0-6.3-1.2-8.7-3.5c-5-4.8-5.3-12.8-0.5-17.9c2.4-2.5,5.6-3.9,9.1-3.9
				c3.3,0,6.3,1.2,8.7,3.5c2.5,2.3,3.9,5.5,3.9,8.8c0.1,3.4-1.1,6.6-3.5,9C1089.8,587.4,1086.6,588.8,1083.1,588.8z M1083.1,565
				c-3.1,0-6,1.2-8.1,3.5c-4.2,4.5-4.1,11.6,0.4,15.8c2.1,2,4.8,3.1,7.7,3.1c3.1,0,6-1.2,8.1-3.5c2.1-2.2,3.1-5,3.1-8
				c-0.1-3-1.3-5.8-3.5-7.8C1088.7,566.1,1085.9,565,1083.1,565z"/>
		</g>
	</g>
	<g>
		<g>
			<path fill="#1E7A85" d="M1009,812.5c-2.2,0-4-0.6-5.4-1.8c-5.3-4.7-2.3-16.5,6.8-26.8c6.4-7.2,14.3-11.9,20.3-11.9
				c2.2,0,4,0.6,5.4,1.9c5.3,4.7,2.3,16.4-6.8,26.8C1023,807.8,1015,812.5,1009,812.5z M1030.7,773.5c-5.6,0-13.1,4.5-19.2,11.4
				c-8.4,9.6-11.5,20.6-6.9,24.7c1.1,1,2.6,1.5,4.4,1.5c5.6,0,13.1-4.5,19.2-11.4c8.4-9.5,11.5-20.6,6.9-24.7
				C1034,774,1032.5,773.5,1030.7,773.5z"/>
		</g>
		<g>
			<path fill="#1E7A85" d="M1019.5,805.3c-3.3,0-6.3-1.2-8.7-3.5c-5.1-4.8-5.3-12.8-0.5-17.9c2.4-2.5,5.7-3.9,9.2-3.9
				c3.3,0,6.3,1.2,8.7,3.5c2.4,2.3,3.8,5.4,3.9,8.8c0.1,3.4-1.1,6.6-3.5,9.1C1026.3,803.9,1023.1,805.3,1019.5,805.3z M1019.5,781.4
				c-3.1,0-6,1.2-8.1,3.5c-4.2,4.5-4.1,11.6,0.4,15.8c2.1,2,4.8,3.1,7.7,3.1c3.1,0,6-1.2,8.1-3.5c2.1-2.2,3.1-5,3.1-8
				c-0.1-3-1.3-5.8-3.5-7.8C1025.2,782.5,1022.4,781.4,1019.5,781.4z"/>
		</g>
	</g>
	<g>
		<g>
			<path fill="#1E7A85" d="M1125.8,654.9c-2.2,0-4-0.6-5.4-1.8c-5.3-4.7-2.3-16.5,6.8-26.8c6.4-7.2,14.3-11.9,20.3-11.9
				c2.2,0,4,0.6,5.4,1.9c5.3,4.7,2.3,16.4-6.8,26.8C1139.7,650.2,1131.8,654.9,1125.8,654.9z M1147.5,615.8
				c-5.6,0-13.1,4.5-19.2,11.4c-8.4,9.6-11.5,20.6-6.9,24.7c1.1,1,2.6,1.5,4.4,1.5c5.6,0,13.1-4.5,19.2-11.4
				c8.4-9.5,11.5-20.6,6.9-24.7C1150.8,616.3,1149.3,615.8,1147.5,615.8z"/>
		</g>
		<g>
			<path fill="#1E7A85" d="M1136.3,647.7c-3.3,0-6.3-1.2-8.7-3.5c-5.1-4.8-5.3-12.8-0.5-17.9c2.4-2.5,5.7-3.9,9.2-3.9
				c3.3,0,6.3,1.2,8.7,3.5c2.4,2.3,3.8,5.4,3.9,8.8c0.1,3.4-1.1,6.6-3.5,9.1C1143.1,646.3,1139.8,647.7,1136.3,647.7z M1136.3,623.8
				c-3.1,0-6,1.2-8.1,3.5c-4.2,4.5-4.1,11.6,0.4,15.8c2.1,2,4.8,3.1,7.7,3.1c3.1,0,6-1.2,8.1-3.5c2.1-2.2,3.1-5,3.1-8
				c-0.1-3-1.3-5.8-3.5-7.8C1141.9,624.9,1139.2,623.8,1136.3,623.8z"/>
		</g>
	</g>
	<g>
		<g>
			<path fill="#1E7A85" d="M692.5,853.4c-3.7,0-6.5-1.2-8-3.4c-4.1-5.8,1.4-16.6,12.6-24.6c6.4-4.6,13.7-7.4,19.3-7.4
				c3.7,0,6.5,1.2,8,3.3c4.1,5.8-1.4,16.6-12.6,24.6C705.4,850.6,698.1,853.4,692.5,853.4z M716.4,819.5c-5.3,0-12.2,2.7-18.4,7.1
				c-10.3,7.4-15.8,17.5-12.3,22.5c1.3,1.8,3.7,2.7,6.8,2.7c5.3,0,12.2-2.7,18.4-7.1c10.4-7.4,15.8-17.5,12.3-22.5
				C721.9,820.5,719.6,819.5,716.4,819.5z"/>
		</g>
		<g>
			<path fill="#1E7A85" d="M704.9,848.1c-4.3,0-8.2-2.1-10.5-5.7c-1.9-2.8-2.5-6.2-1.9-9.5c0.7-3.3,2.6-6.2,5.4-8
				c2.1-1.4,4.5-2.1,7-2.1c4.3,0,8.2,2.1,10.6,5.7c3.8,5.8,2.2,13.7-3.6,17.5C709.8,847.3,707.4,848.1,704.9,848.1z M704.8,824.2
				c-2.2,0-4.3,0.6-6.2,1.9c-2.5,1.6-4.2,4.2-4.8,7.1c-0.6,2.9,0,5.9,1.6,8.4c2.1,3.1,5.6,5,9.3,5c2.2,0,4.3-0.6,6.2-1.9
				c5.1-3.4,6.5-10.4,3.1-15.5C712.1,826.1,708.6,824.2,704.8,824.2z"/>
		</g>
	</g>
	<g>
		<g>
			<path fill="#1E7A85" d="M706.4,541.3c-6.8,0-13-10.2-14.3-23.2c-0.9-9.2,0.9-17.8,4.6-22.4c1.6-1.9,3.5-3.1,5.6-3.3
				c0.2,0,0.4,0,0.7,0c6.7,0,13,10.2,14.3,23.2c1.4,13.7-3.1,25-10.2,25.7C706.9,541.3,706.6,541.3,706.4,541.3z M702.9,493.8
				c-0.2,0-0.4,0-0.5,0c-1.7,0.2-3.2,1.1-4.6,2.8c-3.5,4.2-5.2,12.6-4.3,21.3c1.2,12.4,7.3,22.5,13.4,21.9
				c6.1-0.6,10.1-11.4,8.9-24.1C714.6,503.7,708.8,493.8,702.9,493.8z"/>
		</g>
		<g>
			<path fill="#1E7A85" d="M704.6,529c-6.7,0-12.2-5.2-12.6-11.9c-0.2-3.4,0.9-6.6,3.1-9.2c2.2-2.5,5.3-4,8.7-4.3
				c7.1-0.4,13,4.9,13.4,11.9c0.2,3.4-0.9,6.6-3.1,9.1s-5.3,4-8.7,4.3C705.1,529,704.9,529,704.6,529z M704.6,505.2
				c-0.2,0-0.5,0-0.7,0c-3,0.2-5.7,1.5-7.7,3.8c-2,2.2-3,5.1-2.8,8.1c0.4,6.1,5.7,10.9,11.9,10.5c3-0.2,5.7-1.5,7.7-3.8
				c2-2.2,3-5.1,2.8-8.1C715.4,509.8,710.5,505.2,704.6,505.2z"/>
		</g>
	</g>
	<g>
		<g>
			<path fill="#1E7A85" d="M458.5,589.9c-4.9,0-10.6-1.4-16.1-3.8c-8.4-3.8-15-9.6-17.1-15.2c-0.9-2.4-0.9-4.6-0.1-6.4
				c1.5-3.3,5.7-5.2,11.4-5.2c4.9,0,10.7,1.4,16.1,3.9c5.9,2.7,10.9,6.3,14.2,10.3c3.4,4.1,4.4,8.1,3,11.3
				C468.5,588,464.3,589.9,458.5,589.9z M436.7,560.7c-5.2,0-8.9,1.6-10.1,4.4c-0.7,1.5-0.7,3.3,0.1,5.3c1.9,5.1,8.3,10.8,16.3,14.4
				c5.3,2.4,10.8,3.7,15.5,3.7c5.2,0,8.9-1.6,10.1-4.4c1.2-2.6,0.2-6.1-2.8-9.8c-3.1-3.8-7.9-7.3-13.6-9.9
				C446.9,562,441.4,560.7,436.7,560.7z"/>
		</g>
		<g>
			<path fill="#1E7A85" d="M447.2,587c-2,0-3.9-0.4-5.6-1.3c-6.2-3.1-8.8-10.7-5.7-16.9c2.2-4.3,6.5-7,11.3-7c2,0,3.9,0.4,5.6,1.3
				c3,1.5,5.3,4.1,6.3,7.3c1.1,3.2,0.8,6.6-0.7,9.6C456.4,584.3,452,587,447.2,587z M447.2,563.2c-4.3,0-8.1,2.4-10,6.2
				c-2.7,5.5-0.5,12.2,5,15c1.6,0.8,3.2,1.2,5,1.2c4.3,0,8.1-2.4,10-6.2c1.3-2.7,1.5-5.7,0.6-8.5c-0.9-2.8-2.9-5.1-5.6-6.5
				C450.6,563.6,448.9,563.2,447.2,563.2z"/>
		</g>
	</g>
	<g>
		<g>
			<path fill="#1E7A85" d="M513.3,703.2c-3.7,0-6.5-1.2-8-3.3c-4.1-5.8,1.4-16.6,12.6-24.6c6.4-4.6,13.7-7.4,19.3-7.4
				c3.7,0,6.5,1.2,8,3.4c2,2.8,1.8,7-0.7,11.7c-2.4,4.6-6.6,9.1-11.9,12.9C526.1,700.4,518.9,703.2,513.3,703.2z M537.2,669.3
				c-5.3,0-12.2,2.7-18.4,7.1c-10.3,7.4-15.8,17.5-12.3,22.5c1.3,1.8,3.6,2.7,6.8,2.7c5.3,0,12.2-2.7,18.4-7.1
				c5.1-3.6,9.1-8,11.4-12.4c2.2-4.2,2.5-7.8,0.8-10.1C542.7,670.3,540.3,669.3,537.2,669.3z"/>
		</g>
		<g>
			<path fill="#1E7A85" d="M524.8,698.5c-4.3,0-8.2-2.1-10.6-5.6c-3.8-5.8-2.2-13.7,3.6-17.5c2.1-1.4,4.5-2.1,7-2.1
				c4.3,0,8.2,2.1,10.5,5.7c1.9,2.8,2.5,6.2,1.9,9.5c-0.7,3.3-2.6,6.2-5.4,8.1C529.7,697.7,527.3,698.5,524.8,698.5z M524.8,674.6
				c-2.2,0-4.3,0.6-6.2,1.9c-5.1,3.4-6.5,10.4-3.1,15.5c2.1,3.1,5.6,5,9.3,5c2.2,0,4.3-0.6,6.2-1.9c2.5-1.7,4.2-4.2,4.8-7.1
				c0.6-2.9,0-5.9-1.7-8.4C532.1,676.5,528.6,674.6,524.8,674.6z"/>
		</g>
	</g>
	<g>
		<g>
			<path fill="#1E7A85" d="M748.9,470.8c-5.3,0-11.5-1.8-17.5-5c-8.2-4.4-14.3-10.6-16-16.3c-0.7-2.4-0.6-4.6,0.4-6.4
				c1.6-2.9,5.2-4.5,10.1-4.5c5.3,0,11.5,1.8,17.5,5c8.2,4.4,14.3,10.6,16,16.3c0.7,2.4,0.6,4.6-0.4,6.4
				C757.4,469.2,753.8,470.8,748.9,470.8z M725.8,440c-4.4,0-7.5,1.3-8.8,3.8c-0.8,1.5-0.9,3.3-0.3,5.3c1.6,5.2,7.6,11.3,15.3,15.4
				c5.7,3.1,11.8,4.8,16.8,4.8c4.4,0,7.5-1.3,8.8-3.7c0.8-1.5,0.9-3.2,0.3-5.3c-1.6-5.3-7.6-11.3-15.3-15.5
				C736.9,441.7,730.8,440,725.8,440z"/>
		</g>
		<g>
			<path fill="#1E7A85" d="M737.8,467.5c-2.2,0-4.4-0.6-6.4-1.7c-2.9-1.7-5-4.4-5.8-7.7c-0.8-3.3-0.4-6.7,1.3-9.6
				c2.2-3.9,6.4-6.3,10.9-6.3c2.2,0,4.4,0.6,6.4,1.7c2.9,1.7,5,4.4,5.8,7.7c0.9,3.3,0.4,6.7-1.3,9.6
				C746.4,465.1,742.2,467.5,737.8,467.5z M737.8,443.7c-4,0-7.7,2.1-9.6,5.5c-1.5,2.6-1.9,5.6-1.2,8.5c0.8,2.9,2.6,5.3,5.2,6.8
				c1.7,1,3.7,1.5,5.6,1.5c4,0,7.7-2.1,9.7-5.5c1.5-2.6,1.9-5.6,1.2-8.5c-0.8-2.9-2.6-5.3-5.2-6.8
				C741.7,444.2,739.8,443.7,737.8,443.7z"/>
		</g>
	</g>
	<g>
		<g>
			<path fill="#1E7A85" d="M726.3,787.3c-4.9,0-10.7-1.4-16.2-3.9c-12.5-5.7-20.1-15.2-17.2-21.6c1.5-3.3,5.7-5.2,11.5-5.2
				c4.9,0,10.6,1.4,16.1,3.9c12.5,5.7,20.1,15.2,17.2,21.7C736.2,785.4,732.1,787.3,726.3,787.3z M704.5,758
				c-5.2,0-8.9,1.6-10.1,4.4c-2.5,5.6,4.8,14.5,16.4,19.7c5.3,2.4,10.8,3.7,15.6,3.7c5.2,0,8.8-1.6,10.1-4.4
				c2.5-5.6-4.8-14.5-16.4-19.7C714.7,759.4,709.2,758,704.5,758z"/>
		</g>
		<g>
			<path fill="#1E7A85" d="M715.8,784.8c-2,0-3.9-0.4-5.6-1.3c-3-1.5-5.3-4.1-6.3-7.3c-1.1-3.2-0.8-6.6,0.7-9.6
				c2.1-4.3,6.5-7,11.3-7c2,0,3.9,0.5,5.6,1.3c3,1.5,5.3,4.1,6.3,7.3c1.1,3.2,0.9,6.6-0.7,9.7C725,782.1,720.7,784.8,715.8,784.8z
				 M715.8,761c-4.3,0-8.1,2.4-10,6.2c-1.3,2.7-1.5,5.7-0.6,8.5c1,2.8,2.9,5.1,5.6,6.4c1.6,0.8,3.2,1.2,5,1.2c4.3,0,8.1-2.4,10-6.2
				c1.3-2.7,1.5-5.7,0.6-8.6c-1-2.8-2.9-5.1-5.6-6.4C719.2,761.4,717.6,761,715.8,761z"/>
		</g>
	</g>
	<g>
		<g>
			<path fill="#1E7A85" d="M673.8,609.3c-4.9,0-10.7-1.4-16.2-3.9c-12.5-5.7-20.1-15.2-17.2-21.6c1.5-3.3,5.7-5.2,11.5-5.2
				c4.9,0,10.6,1.4,16.1,3.9c12.5,5.7,20.1,15.2,17.2,21.7C683.7,607.4,679.5,609.3,673.8,609.3z M651.9,580
				c-5.2,0-8.9,1.6-10.1,4.4c-2.5,5.6,4.8,14.5,16.4,19.7c5.3,2.4,10.8,3.7,15.6,3.7c5.2,0,8.8-1.6,10.1-4.4
				c2.5-5.6-4.8-14.5-16.4-19.7C662.2,581.3,656.6,580,651.9,580z"/>
		</g>
		<g>
			<path fill="#1E7A85" d="M663.3,606.8c-2,0-3.9-0.4-5.6-1.3c-3-1.5-5.3-4.1-6.3-7.3c-1.1-3.2-0.8-6.6,0.7-9.6
				c2.1-4.3,6.5-7,11.3-7c2,0,3.9,0.5,5.6,1.3c3,1.5,5.3,4.1,6.3,7.3c1.1,3.2,0.9,6.6-0.7,9.7C672.5,604.1,668.1,606.8,663.3,606.8z
				 M663.3,582.9c-4.3,0-8.1,2.4-10,6.2c-1.3,2.7-1.5,5.7-0.6,8.5c1,2.8,2.9,5.1,5.6,6.4c1.6,0.8,3.2,1.2,5,1.2
				c4.3,0,8.1-2.4,10-6.2c1.3-2.7,1.5-5.7,0.6-8.6c-1-2.8-2.9-5.1-5.6-6.4C666.7,583.3,665,582.9,663.3,582.9z"/>
		</g>
	</g>
	<g>
		<g>
			<path fill="#1E7A85" d="M368.9,245.9c-12.9,0-23.2-5.2-23.4-11.9c-0.1-3.5,2.4-6.8,7.1-9.3c4.5-2.4,10.6-3.9,17-4.1
				c13.8-0.4,24.7,4.8,25,11.9c0.2,7.1-10.4,13-24.1,13.4C370,245.9,369.5,245.9,368.9,245.9z M371.3,222c-0.5,0-1,0-1.5,0
				c-6.3,0.2-12.1,1.6-16.4,3.9c-4.2,2.3-6.4,5.1-6.3,8c0.2,6.1,10.6,10.9,23.4,10.4c12.7-0.4,22.9-5.8,22.7-11.9
				C393,226.6,383.4,222,371.3,222z"/>
		</g>
		<g>
			<path fill="#1E7A85" d="M369.6,246L369.6,246c-7,0-12.7-5.8-12.6-12.8c0-6.9,5.7-12.6,12.6-12.6c3.5,0,6.6,1.3,9,3.7
				c2.4,2.4,3.7,5.6,3.6,9C382.2,240.3,376.5,246,369.6,246z M369.7,222c-6.2,0-11.2,5-11.3,11.1c0,6.1,5.2,11.2,11.3,11.2l0.2,0.7
				v-0.7c6,0,11-5,11-11.1c0-3-1.2-5.8-3.3-7.9C375.6,223.2,372.6,222.1,369.7,222z"/>
		</g>
	</g>
	<g>
		<g>
			<path fill="#1E7A85" d="M426.4,456.3c-5.7,0-9.7-1.8-11.2-5.1c-1.5-3.2-0.5-7.2,2.9-11.4c3.2-4,8.2-7.8,14.1-10.5
				c5.6-2.6,11.4-4,16.4-4c5.7,0,9.7,1.8,11.2,5.1c3,6.4-4.4,16-16.9,21.8C437.2,454.9,431.4,456.3,426.4,456.3z M448.5,426.8
				c-4.8,0-10.4,1.4-15.7,3.9c-5.7,2.6-10.5,6.2-13.5,10.1c-2.9,3.7-3.9,7.2-2.7,9.8c1.3,2.7,4.9,4.3,9.9,4.3
				c4.8,0,10.4-1.4,15.8-3.9c11.5-5.4,18.8-14.3,16.2-19.9C457.1,428.3,453.5,426.8,448.5,426.8z"/>
		</g>
		<g>
			<path fill="#1E7A85" d="M437,453.7c-5.1,0-9.7-3-11.7-7.7c-2.7-6.4,0.3-13.9,6.7-16.6c1.6-0.7,3.2-1,4.9-1c5.1,0,9.7,3,11.6,7.7
				c1.3,3.1,1.4,6.5,0.1,9.7c-1.3,3.1-3.7,5.6-6.8,6.9C440.4,453.3,438.7,453.7,437,453.7z M437,429.8c-1.5,0-3,0.3-4.3,0.9
				c-5.7,2.4-8.3,9-6,14.7c1.7,4.2,5.8,6.8,10.3,6.8c1.5,0,3-0.3,4.3-0.9c2.8-1.2,4.9-3.3,6-6.1c1.1-2.8,1.1-5.8-0.1-8.6
				C445.6,432.5,441.5,429.8,437,429.8z"/>
		</g>
	</g>
	<g>
		<g>
			<path fill="#1E7A85" d="M630.7,660.6c-5.7,0-9.7-1.8-11.2-5.1c-1.5-3.2-0.5-7.2,2.9-11.4c3.2-4,8.2-7.8,14.1-10.5
				c5.6-2.6,11.4-4,16.4-4c5.7,0,9.7,1.8,11.2,5.1c3,6.4-4.4,16-16.9,21.8C641.5,659.2,635.7,660.6,630.7,660.6z M652.8,631.1
				c-4.8,0-10.4,1.4-15.7,3.9c-5.7,2.6-10.5,6.2-13.5,10.1c-2.9,3.7-3.9,7.2-2.7,9.8c1.3,2.7,4.9,4.3,9.9,4.3
				c4.8,0,10.4-1.4,15.8-3.9c11.5-5.4,18.8-14.3,16.2-19.9C661.4,632.6,657.8,631.1,652.8,631.1z"/>
		</g>
		<g>
			<path fill="#1E7A85" d="M641.3,658c-5.1,0-9.7-3-11.7-7.7c-2.7-6.4,0.3-13.9,6.7-16.6c1.6-0.7,3.2-1,4.9-1c5.1,0,9.7,3,11.6,7.7
				c1.3,3.1,1.4,6.5,0.1,9.7c-1.3,3.1-3.7,5.6-6.8,6.9C644.7,657.6,643,658,641.3,658z M641.3,634.1c-1.5,0-3,0.3-4.3,0.9
				c-5.7,2.4-8.3,9-6,14.7c1.7,4.2,5.8,6.8,10.3,6.8c1.5,0,3-0.3,4.3-0.9c2.8-1.2,4.9-3.3,6-6.1c1.1-2.8,1.1-5.8-0.1-8.6
				C649.9,636.8,645.8,634.1,641.3,634.1z"/>
		</g>
	</g>
	<g>
		<path fill="#1E7A85" d="M538.9,500.5c-7,0-12.8-10.6-13.2-24.1c-0.3-9.3,2-17.7,6.1-22.1c1.7-1.8,3.7-2.8,5.7-2.9l0.2,0
			c7,0,12.8,10.6,13.2,24.1c0.2,6.5-0.9,12.6-3,17.3c-2.2,4.8-5.4,7.6-8.8,7.7L538.9,500.5z M537.7,452.9l-0.2,0
			c-1.7,0.1-3.3,0.9-4.7,2.4c-3.8,4-6,12.2-5.7,21c0.4,12.5,5.7,22.7,11.7,22.7l0.2,0c2.9-0.1,5.6-2.5,7.6-6.8
			c2.1-4.5,3.1-10.4,2.9-16.6C549.1,463.1,543.8,452.9,537.7,452.9z"/>
	</g>
	<g>
		<path fill="#1E7A85" d="M538.3,488L538.3,488c-3.4,0-6.6-1.3-9-3.7c-2.4-2.4-3.7-5.5-3.7-8.9c0-6.9,5.7-12.6,12.6-12.6
			c7,0,12.7,5.7,12.6,12.7C550.9,482.4,545.2,488,538.3,488z M538.3,464.3c-6.2,0-11.2,5-11.2,11.1c0,3,1.1,5.8,3.2,7.9
			c2.1,2.1,5.3,3.3,8.2,3.3l0.4,0.7v-0.7c6,0,10.8-5,10.8-11.1C549.9,469.4,544.5,464.4,538.3,464.3z"/>
	</g>
	<g>
		<g>
			<path fill="#1E7A85" d="M336.2,321.3c-7,0-12.8-10.6-13.2-24.1c-0.4-13.5,4.9-24.7,11.9-25l0.2,0c7,0,12.8,10.6,13.2,24.2
				c0.2,6.5-0.9,12.6-3,17.3c-2.2,4.8-5.4,7.6-8.8,7.7L336.2,321.3z M335.1,273.7l-0.2,0c-6.1,0.2-10.8,10.9-10.4,23.5
				c0.4,12.5,5.7,22.7,11.7,22.7l0.2,0c2.9-0.1,5.6-2.5,7.6-6.8c2.1-4.5,3.1-10.4,2.9-16.6C346.4,283.9,341.1,273.7,335.1,273.7z"/>
		</g>
		<g>
			<path fill="#1E7A85" d="M335.6,309L335.6,309c-3.4,0-6.6-1.4-9-3.8c-2.4-2.4-3.7-5.6-3.7-9c0-6.9,5.7-12.6,12.7-12.6
				c7,0.1,12.7,5.8,12.6,12.8C348.2,303.3,342.6,309,335.6,309z M335.7,285.1c-6.2,0-11.2,5-11.2,11.1c0,3,1.1,5.8,3.2,7.9
				c2.1,2.1,5.1,3.3,8.1,3.3l0.3,0.7v-0.7c6,0,11-5,11-11.1C347,290.2,341.8,285.1,335.7,285.1z"/>
		</g>
	</g>
</g>
</svg>
