<?xml version="1.0" encoding="utf-8"?>
<!-- Generator: Adobe Illustrator 18.1.1, SVG Export Plug-In . SVG Version: 6.00 Build 0)  -->
<!DOCTYPE svg PUBLIC "-//W3C//DTD SVG 1.1//EN" "http://www.w3.org/Graphics/SVG/1.1/DTD/svg11.dtd">
<svg version="1.1" id="Layer_1" xmlns="http://www.w3.org/2000/svg" xmlns:xlink="http://www.w3.org/1999/xlink" x="0px" y="0px"
	 viewBox="0 0 1920 1080" enable-background="new 0 0 1920 1080" xml:space="preserve">
<g>
	<g>
		<g>
			<path fill="#FFFFFF" d="M1055.3,652.8c0,2.3-1.9,4.1-4.1,4.1H711.6c-2.3,0-4.1-1.9-4.1-4.1V481.5c0-2.3,1.9-4.1,4.1-4.1h339.6
				c2.3,0,4.1,1.9,4.1,4.1V652.8z"/>
		</g>
		<g>
			<path fill="#1E7A85" d="M1051.2,657.6H711.6c-2.7,0-4.9-2.2-4.9-4.9V481.5c0-2.7,2.2-4.9,4.9-4.9h339.6c2.7,0,4.9,2.2,4.9,4.9
				v171.3C1056,655.5,1053.8,657.6,1051.2,657.6z M711.6,478.1c-1.9,0-3.4,1.5-3.4,3.4v171.3c0,1.9,1.5,3.4,3.4,3.4h339.6
				c1.9,0,3.4-1.5,3.4-3.4V481.5c0-1.9-1.5-3.4-3.4-3.4H711.6z"/>
		</g>
	</g>
	<g>
		<path fill="#1E7A85" d="M775.5,549.1c0.9-1.8,2.6-3.5,5.2-5l3.8-2.2c1.7-1,2.9-1.8,3.6-2.6c1.1-1.1,1.6-2.4,1.6-3.8
			c0-1.7-0.5-3-1.5-4c-1-1-2.3-1.5-4-1.5c-2.5,0-4.2,0.9-5.1,2.8c-0.5,1-0.8,2.4-0.8,4.2h-3.7c0-2.5,0.5-4.5,1.4-6.1
			c1.6-2.8,4.3-4.2,8.2-4.2c3.3,0,5.7,0.9,7.2,2.7c1.5,1.8,2.3,3.7,2.3,5.9c0,2.3-0.8,4.2-2.4,5.9c-0.9,0.9-2.6,2.1-5,3.4l-2.7,1.5
			c-1.3,0.7-2.3,1.4-3.1,2.1c-1.3,1.2-2.2,2.4-2.5,3.9h15.6v3.4H774C774.1,553.1,774.6,550.9,775.5,549.1z"/>
		<path fill="#1E7A85" d="M800.5,548.2c0.2,2,1.2,3.5,2.9,4.2c0.9,0.4,1.8,0.6,3,0.6c2.1,0,3.7-0.7,4.7-2c1-1.4,1.5-2.9,1.5-4.5
			c0-2-0.6-3.5-1.8-4.6c-1.2-1.1-2.7-1.6-4.4-1.6c-1.2,0-2.3,0.2-3.2,0.7s-1.6,1.1-2.3,2l-3.1-0.2l2.2-15.4h14.8v3.5h-12.2l-1.2,7.9
			c0.7-0.5,1.3-0.9,1.9-1.1c1.1-0.4,2.3-0.7,3.7-0.7c2.6,0,4.8,0.8,6.7,2.5c1.8,1.7,2.7,3.8,2.7,6.4c0,2.7-0.8,5.1-2.5,7.1
			c-1.7,2.1-4.3,3.1-8,3.1c-2.3,0-4.4-0.7-6.2-2s-2.8-3.3-3-6H800.5z"/>
		<path fill="#1E7A85" d="M821.5,534.7c0.7-0.1,1.3-0.5,1.7-1.2c0.4-0.7,0.6-1.5,0.6-2.4c0-0.1,0-0.2,0-0.2c0-0.1,0-0.2-0.1-0.2
			h-2.2v-4.3h4.3v4c0,1.7-0.4,3.1-1.1,4.3c-0.7,1.2-1.8,1.9-3.2,2V534.7z"/>
		<path fill="#1E7A85" d="M832.7,548.6c0.1,2,0.9,3.4,2.3,4.1c0.7,0.4,1.6,0.6,2.5,0.6c1.7,0,3.2-0.7,4.4-2.1s2.1-4.3,2.6-8.7
			c-0.8,1.3-1.8,2.2-3,2.7c-1.2,0.5-2.4,0.8-3.8,0.8c-2.8,0-4.9-0.9-6.5-2.6c-1.6-1.7-2.4-3.9-2.4-6.6c0-2.6,0.8-4.9,2.4-6.8
			c1.6-2,3.9-2.9,7-2.9c4.2,0,7,1.9,8.6,5.6c0.9,2.1,1.3,4.6,1.3,7.7c0,3.5-0.5,6.6-1.6,9.3c-1.7,4.5-4.7,6.7-8.9,6.7
			c-2.8,0-4.9-0.7-6.4-2.2c-1.5-1.5-2.2-3.3-2.2-5.5H832.7z M842,541.3c1.2-0.9,1.8-2.6,1.8-4.9c0-2.1-0.5-3.7-1.6-4.7
			c-1.1-1-2.4-1.5-4-1.5c-1.8,0-3.1,0.6-4.2,1.8c-1,1.2-1.5,2.7-1.5,4.7c0,1.9,0.5,3.3,1.4,4.4c0.9,1.1,2.3,1.6,4.3,1.6
			C839.5,542.7,840.8,542.3,842,541.3z"/>
		<path fill="#1E7A85" d="M861.9,534.2h4.6l4.9,7.5l5-7.5l4.4,0.1l-7.2,10.3l7.5,11h-4.6l-5.3-8l-5.1,8h-4.5l7.5-11L861.9,534.2z"/>
		<path fill="#1E7A85" d="M897,535.3v-2.8c2.6-0.3,4.4-0.7,5.4-1.3c1-0.6,1.8-2,2.3-4.2h2.8v28.5h-3.8v-20.2H897z"/>
		<path fill="#1E7A85" d="M929.4,555.5v-7h-12.5V545l13.1-18.2h3v18.5h4.2v3.1H933v7H929.4z M929.3,545.4v-13l-9.2,13H929.3z"/>
		<path fill="#1E7A85" d="M941.9,534.7c0.7-0.1,1.3-0.5,1.7-1.2c0.4-0.7,0.6-1.5,0.6-2.4c0-0.1,0-0.2,0-0.2c0-0.1,0-0.2-0.1-0.2
			h-2.2v-4.3h4.3v4c0,1.7-0.4,3.1-1.1,4.3c-0.7,1.2-1.8,1.9-3.2,2V534.7z"/>
		<path fill="#1E7A85" d="M951.5,535.3v-2.8c2.6-0.3,4.4-0.7,5.4-1.3c1-0.6,1.8-2,2.3-4.2h2.8v28.5h-3.8v-20.2H951.5z"/>
		<path fill="#1E7A85" d="M971.3,535.3v-2.8c2.6-0.3,4.4-0.7,5.4-1.3c1-0.6,1.8-2,2.3-4.2h2.8v28.5H978v-20.2H971.3z"/>
		<path fill="#1E7A85" d="M767.5,574.8c-2.1,4.1-3.4,7-4.1,9c-0.9,2.9-1.4,6.3-1.4,10.1c0,3.9,0.5,7.4,1.6,10.6c0.7,2,2,4.8,3.9,8.5
			h-2.4c-1.9-3-3.1-5-3.6-5.8s-1-2-1.5-3.4c-0.7-2-1.3-4.1-1.6-6.3c-0.1-1.2-0.2-2.3-0.2-3.3c0-3.9,0.6-7.4,1.9-10.5
			c0.8-2,2.4-4.9,4.9-8.8H767.5z"/>
		<path fill="#1E7A85" d="M790.3,576.5v3.1c-0.9,0.9-2.1,2.4-3.7,4.6c-1.5,2.2-2.9,4.6-4,7.1c-1.2,2.5-2,4.8-2.6,6.8
			c-0.4,1.3-0.9,3.4-1.5,6.4h-4c0.9-5.5,2.9-10.9,6-16.3c1.8-3.2,3.7-5.9,5.7-8.2h-15.8v-3.6H790.3z"/>
		<path fill="#1E7A85" d="M795.2,600.2h4.2v4.3h-4.2V600.2z"/>
		<path fill="#1E7A85" d="M806.9,587.8c-1.1-1.1-1.6-2.4-1.6-4.2c0-2.1,0.8-4,2.3-5.5c1.5-1.5,3.7-2.3,6.6-2.3
			c2.7,0,4.9,0.7,6.4,2.2c1.6,1.4,2.3,3.1,2.3,5.1c0,1.8-0.5,3.2-1.4,4.3c-0.5,0.6-1.3,1.2-2.4,1.8c1.2,0.5,2.1,1.2,2.8,1.9
			c1.3,1.3,1.9,3.1,1.9,5.2c0,2.5-0.8,4.6-2.5,6.4s-4.1,2.6-7.2,2.6c-2.8,0-5.1-0.8-7.1-2.3c-1.9-1.5-2.9-3.7-2.9-6.6
			c0-1.7,0.4-3.1,1.2-4.4c0.8-1.2,2-2.2,3.7-2.8C808.3,588.9,807.5,588.4,806.9,587.8z M818.5,600.8c1.1-0.9,1.6-2.2,1.6-4
			c0-1.8-0.6-3.3-1.7-4.2s-2.6-1.4-4.3-1.4c-1.7,0-3.1,0.5-4.2,1.5c-1.1,1-1.6,2.3-1.6,4.1c0,1.5,0.5,2.8,1.5,3.9
			c1,1.1,2.5,1.6,4.6,1.6C816,602.1,817.4,601.7,818.5,600.8z M817.9,586.6c0.9-0.9,1.3-1.9,1.3-3.2c0-1.1-0.4-2-1.3-2.9
			s-2.1-1.3-3.9-1.3c-1.7,0-3,0.4-3.7,1.3c-0.8,0.9-1.2,1.9-1.2,3.1c0,1.3,0.5,2.4,1.5,3.2c1,0.8,2.2,1.1,3.5,1.1
			C815.7,588,817,587.5,817.9,586.6z"/>
		<path fill="#1E7A85" d="M828.4,583.2h3.6v3c0.9-1.1,1.6-1.8,2.3-2.3c1.2-0.8,2.5-1.2,4-1.2c1.7,0,3.1,0.4,4.1,1.3
			c0.6,0.5,1.1,1.2,1.6,2.1c0.8-1.1,1.7-2,2.8-2.5s2.3-0.8,3.6-0.8c2.9,0,4.8,1,5.9,3.1c0.6,1.1,0.8,2.6,0.8,4.5v14.2h-3.7v-14.8
			c0-1.4-0.4-2.4-1.1-2.9c-0.7-0.5-1.6-0.8-2.6-0.8c-1.4,0-2.6,0.5-3.6,1.4c-1,0.9-1.5,2.5-1.5,4.7v12.4h-3.7v-13.9
			c0-1.5-0.2-2.5-0.5-3.2c-0.5-1-1.6-1.5-3.1-1.5c-1.4,0-2.6,0.5-3.7,1.6c-1.1,1.1-1.7,3-1.7,5.7v11.3h-3.6V583.2z"/>
		<path fill="#1E7A85" d="M871.8,583.2h4.6l4.9,7.5l5-7.5l4.4,0.1l-7.2,10.3l7.5,11h-4.6l-5.3-8l-5.1,8h-4.5l7.5-11L871.8,583.2z"/>
		<path fill="#1E7A85" d="M916.5,604.6v-7H904v-3.5l13.1-18.2h3v18.5h4.2v3.1h-4.2v7H916.5z M916.5,594.4v-13l-9.2,13H916.5z"/>
		<path fill="#1E7A85" d="M929.2,600.2h4.2v4.3h-4.2V600.2z"/>
		<path fill="#1E7A85" d="M942.1,597.3c0.2,2,1.2,3.5,2.9,4.2c0.9,0.4,1.8,0.6,3,0.6c2.1,0,3.7-0.7,4.7-2c1-1.4,1.5-2.9,1.5-4.5
			c0-2-0.6-3.5-1.8-4.6c-1.2-1.1-2.7-1.6-4.4-1.6c-1.2,0-2.3,0.2-3.2,0.7s-1.6,1.1-2.3,2l-3.1-0.2l2.2-15.4h14.8v3.5h-12.2l-1.2,7.9
			c0.7-0.5,1.3-0.9,1.9-1.1c1.1-0.4,2.3-0.7,3.7-0.7c2.6,0,4.8,0.8,6.7,2.5c1.8,1.7,2.7,3.8,2.7,6.4c0,2.7-0.8,5.1-2.5,7.1
			c-1.7,2.1-4.3,3.1-8,3.1c-2.3,0-4.4-0.7-6.2-2s-2.8-3.3-3-6H942.1z"/>
		<path fill="#1E7A85" d="M962.4,583.2h3.6v3c0.9-1.1,1.6-1.8,2.3-2.3c1.2-0.8,2.5-1.2,4-1.2c1.7,0,3.1,0.4,4.1,1.3
			c0.6,0.5,1.1,1.2,1.6,2.1c0.8-1.1,1.7-2,2.8-2.5s2.3-0.8,3.6-0.8c2.9,0,4.8,1,5.9,3.1c0.6,1.1,0.8,2.6,0.8,4.5v14.2h-3.7v-14.8
			c0-1.4-0.4-2.4-1.1-2.9c-0.7-0.5-1.6-0.8-2.6-0.8c-1.4,0-2.6,0.5-3.6,1.4c-1,0.9-1.5,2.5-1.5,4.7v12.4h-3.7v-13.9
			c0-1.5-0.2-2.5-0.5-3.2c-0.5-1-1.6-1.5-3.1-1.5c-1.4,0-2.6,0.5-3.7,1.6c-1.1,1.1-1.7,3-1.7,5.7v11.3h-3.6V583.2z"/>
		<path fill="#1E7A85" d="M995.2,612.9c2.1-4.1,3.5-7.1,4.1-9c0.9-2.9,1.4-6.2,1.4-10.1c0-3.8-0.5-7.4-1.6-10.6
			c-0.7-2-2-4.8-3.9-8.5h2.4c2,3.3,3.3,5.3,3.7,6.1c0.4,0.8,0.9,1.8,1.4,3.2c0.6,1.7,1.1,3.3,1.4,4.9c0.3,1.6,0.4,3.2,0.4,4.7
			c0,3.9-0.6,7.4-1.9,10.5c-0.8,2-2.4,4.9-4.9,8.8H995.2z"/>
	</g>
</g>
</svg>
