<?xml version="1.0" encoding="utf-8"?>
<!-- Generator: Adobe Illustrator 14.0.0, SVG Export Plug-In . SVG Version: 6.00 Build 43363)  -->
<!DOCTYPE svg PUBLIC "-//W3C//DTD SVG 1.1//EN" "http://www.w3.org/Graphics/SVG/1.1/DTD/svg11.dtd">
<svg version="1.1" id="Layer_1" xmlns="http://www.w3.org/2000/svg" xmlns:xlink="http://www.w3.org/1999/xlink" x="0px" y="0px"
	 width="800px" height="600px" viewBox="0 0 800 600" enable-background="new 0 0 800 600" xml:space="preserve">
<g>
	<g>
		<g>
			<polygon fill="#FFFFFF" points="661.167,133.042 661.167,173.167 702.542,173.167 702.542,133.042 687.792,133.042 
				687.792,126.875 692.709,126.875 681.875,113.458 671.042,126.875 675.959,126.875 675.959,133.042 			"/>
			<path fill="#1E7A85" d="M702.834,173.458h-41.959V132.75h14.792v-5.583h-5.25l11.458-14.208l11.459,14.208h-5.25v5.583h14.791
				v40.708H702.834z M661.459,172.833h40.75v-39.5h-14.792v-6.792H692l-10.208-12.624l-10.208,12.625h4.583v6.792h-14.708V172.833z"
				/>
		</g>
	</g>
	<g>
		<g>
			<polygon fill="#FFFFFF" points="2.083,488.791 42.166,488.791 42.166,447.458 2.083,447.458 2.083,462.208 -4.084,462.208 
				-4.084,457.291 -17.542,468.125 -4.084,478.958 -4.084,474.041 2.083,474.041 			"/>
			<path fill="#1E7A85" d="M42.5,489.125H1.792v-14.792h-5.584v5.25L-18,468.125l14.208-11.459v5.25h5.583v-14.791h40.708
				L42.5,489.125L42.5,489.125z M2.375,488.5h39.5v-40.75h-39.5v14.791h-6.792v-4.583l-12.625,10.208l12.625,10.209v-4.584h6.792
				V488.5L2.375,488.5z"/>
		</g>
	</g>
</g>
<g>
	<path fill="#1E7A85" d="M25.416,465.625l5.333,1.208L13.083,480.5l6.333-10.709l-5.333-1.208L31.75,455.5L25.416,465.625z"/>
</g>
<g>
	<path fill="#1E7A85" d="M685.25,150.583l5.334,1.208l-17.667,13.667l6.333-10.708l-5.333-1.208l17.667-13.083L685.25,150.583z"/>
</g>
</svg>
