<?xml version="1.0" encoding="utf-8"?>
<!-- Generator: Adobe Illustrator 18.1.1, SVG Export Plug-In . SVG Version: 6.00 Build 0)  -->
<!DOCTYPE svg PUBLIC "-//W3C//DTD SVG 1.1//EN" "http://www.w3.org/Graphics/SVG/1.1/DTD/svg11.dtd">
<svg version="1.1" id="Layer_1" xmlns="http://www.w3.org/2000/svg" xmlns:xlink="http://www.w3.org/1999/xlink" x="0px" y="0px"
	 viewBox="0 0 1920 1080" enable-background="new 0 0 1920 1080" xml:space="preserve">
<g>
	<g>
		<g>
			<g>
				<path fill="#1E7A85" d="M966.7,813.2h48.9v-58.6h-48.9V813.2z M1009.5,760.4v46.9h-30.5v-46.9H1009.5z"/>
			</g>
		</g>
		<g>
			<g>
				<path fill="#1E7A85" d="M966.7,722.3h48.9v-58.6h-48.9V722.3z M1009.5,669.5v46.9h-30.5v-46.9H1009.5z"/>
			</g>
		</g>
		<g>
			<g>
				<path fill="#1E7A85" d="M966.7,631.4l48.8,0v-58.6l-48.8,0V631.4z M1009.5,578.6v46.9h-30.5v-46.9H1009.5z"/>
			</g>
		</g>
		<g>
			<g>
				<path fill="#1E7A85" d="M966.7,540.5l48.9,0v-58.6h-48.9V540.5z M1009.5,487.8v46.9h-30.5v-46.9H1009.5z"/>
			</g>
		</g>
		<g>
			<g>
				<path fill="#1E7A85" d="M966.3,450h48.8v-58.6h-48.8V450z M1009.1,397.3v46.9h-30.5v-46.9H1009.1z"/>
			</g>
		</g>
		<g>
			<g>
				<path fill="#1E7A85" d="M966.3,358.3l48.8,0v-58.6h-48.8V358.3z M1009.1,305.5v46.9h-30.5v-46.9H1009.1z"/>
			</g>
		</g>
	</g>
	<g>
		<g>
			<g>
				<path fill="#1E7A85" d="M797.8,813.2h48.9v-58.6h-48.9V813.2z M840.5,760.4v46.9H810v-46.9H840.5z"/>
			</g>
		</g>
		<g>
			<g>
				<path fill="#1E7A85" d="M797.8,722.3h48.9v-58.6h-48.9V722.3z M840.5,669.5v46.9H810v-46.9H840.5z"/>
			</g>
		</g>
		<g>
			<g>
				<path fill="#1E7A85" d="M797.8,631.4l48.9,0v-58.6l-48.9,0V631.4z M840.5,578.6v46.9H810v-46.9H840.5z"/>
			</g>
		</g>
		<g>
			<g>
				<path fill="#1E7A85" d="M797.8,540.5l48.9,0v-58.6h-48.9V540.5z M840.5,487.8v46.9H810v-46.9H840.5z"/>
			</g>
		</g>
		<g>
			<g>
				<path fill="#1E7A85" d="M797.4,450h48.9v-58.6h-48.9V450z M840.1,397.3v46.9h-30.5v-46.9H840.1z"/>
			</g>
		</g>
		<g>
			<g>
				<path fill="#1E7A85" d="M797.4,358.3l48.9,0v-58.6h-48.9V358.3z M840.1,305.5v46.9h-30.5v-46.9H840.1z"/>
			</g>
		</g>
	</g>
	<g>
		<g>
			<g>
				<path fill="#1E7A85" d="M628.8,813.2h48.9v-58.6h-48.9V813.2z M671.5,760.4v46.9H641v-46.9H671.5z"/>
			</g>
		</g>
		<g>
			<g>
				<path fill="#1E7A85" d="M628.8,722.3h48.9v-58.6h-48.9V722.3z M671.5,669.5v46.9H641v-46.9H671.5z"/>
			</g>
		</g>
		<g>
			<g>
				<path fill="#1E7A85" d="M628.8,631.4l48.9,0v-58.6l-48.9,0V631.4z M671.5,578.6v46.9H641v-46.9H671.5z"/>
			</g>
		</g>
		<g>
			<g>
				<path fill="#1E7A85" d="M628.4,540.9l48.8,0v-58.6h-48.8V540.9z M671.1,488.1v46.9h-30.5v-46.9H671.1z"/>
			</g>
		</g>
		<g>
			<g>
				<path fill="#1E7A85" d="M628.4,450h48.8v-58.6h-48.8V450z M671.1,397.3v46.9h-30.5v-46.9H671.1z"/>
			</g>
		</g>
	</g>
	<g>
		<g>
			<g>
				<path fill="#1E7A85" d="M1135.5,813.2h48.9v-58.6h-48.9V813.2z M1178.2,760.4v46.9h-30.5v-46.9H1178.2z"/>
			</g>
		</g>
		<g>
			<g>
				<path fill="#1E7A85" d="M1135.5,722.3h48.9v-58.6h-48.9V722.3z M1178.2,669.5v46.9h-30.5v-46.9H1178.2z"/>
			</g>
		</g>
		<g>
			<g>
				<path fill="#1E7A85" d="M1135.5,631.4l48.9,0v-58.6h-48.9V631.4z M1178.2,578.6v46.9h-30.5v-46.9H1178.2z"/>
			</g>
		</g>
		<g>
			<g>
				<path fill="#1E7A85" d="M1135.5,540.5l48.9,0v-58.6h-48.9V540.5z M1178.2,487.7v46.9h-30.5v-46.9H1178.2z"/>
			</g>
		</g>
		<g>
			<g>
				<path fill="#1E7A85" d="M1135.5,449.6h48.9V391h-48.9V449.6z M1178.2,396.9v46.9h-30.5v-46.9H1178.2z"/>
			</g>
		</g>
		<g>
			<g>
				<path fill="#1E7A85" d="M1135.5,358.3l48.9,0v-58.6h-48.9V358.3z M1178.2,305.5v46.9h-30.5v-46.9H1178.2z"/>
			</g>
		</g>
	</g>
	<g>
		<g>
			<g>
				<path fill="#1E7A85" d="M459.8,813.2h48.9v-58.6h-48.9V813.2z M502.6,760.4v46.9H472v-46.9H502.6z"/>
			</g>
		</g>
		<g>
			<g>
				<path fill="#1E7A85" d="M459.8,722.3h48.9v-58.6h-48.9V722.3z M502.6,669.5v46.9H472v-46.9H502.6z"/>
			</g>
		</g>
		<g>
			<g>
				<path fill="#1E7A85" d="M459.8,631.4l48.9,0v-58.6l-48.9,0V631.4z M502.6,578.6v46.9H472v-46.9H502.6z"/>
			</g>
		</g>
		<g>
			<g>
				<path fill="#1E7A85" d="M459.4,540.9l48.9,0v-58.6h-48.9V540.9z M502.2,488.1v46.9h-30.5v-46.9H502.2z"/>
			</g>
		</g>
		<g>
			<g>
				<path fill="#1E7A85" d="M459.4,450h48.9v-58.6h-48.9V450z M502.2,397.3v46.9h-30.5v-46.9H502.2z"/>
			</g>
		</g>
		<g>
			<g>
				<path fill="#1E7A85" d="M459.4,358.3l48.8,0v-58.6h-48.8V358.3z M502.2,305.5v46.9h-30.5v-46.9H502.2z"/>
			</g>
		</g>
	</g>
	<g>
		<g>
			<g>
				<path fill="#1E7A85" d="M290.8,813.2h48.9v-58.6h-48.9V813.2z M333.6,760.4v46.9h-30.5v-46.9H333.6z"/>
			</g>
		</g>
		<g>
			<g>
				<path fill="#1E7A85" d="M290.8,722.3h48.9v-58.6h-48.9V722.3z M333.6,669.5v46.9h-30.5v-46.9H333.6z"/>
			</g>
		</g>
		<g>
			<g>
				<path fill="#1E7A85" d="M290.8,631.4l48.9,0v-58.6l-48.9,0V631.4z M333.6,578.6v46.9h-30.5v-46.9H333.6z"/>
			</g>
		</g>
		<g>
			<g>
				<path fill="#1E7A85" d="M290.4,540.9l48.9,0v-58.6h-48.9V540.9z M333.2,488.1v46.9h-30.5v-46.9H333.2z"/>
			</g>
		</g>
		<g>
			<g>
				<path fill="#1E7A85" d="M290.4,450h48.9v-58.6h-48.9V450z M333.2,397.3v46.9h-30.5v-46.9H333.2z"/>
			</g>
		</g>
		<g>
			<g>
				<path fill="#1E7A85" d="M290.4,358.3l48.9,0v-58.6h-48.9V358.3z M333.2,305.5v46.9h-30.5v-46.9H333.2z"/>
			</g>
		</g>
	</g>
	<g>
		<path fill="#1E7A85" d="M1459.2,621.7h-62.7V490h62.7V621.7z M1397.9,620.2h59.8V491.4h-59.8V620.2z"/>
	</g>
</g>
</svg>
