<?xml version="1.0" encoding="utf-8"?>
<!-- Generator: Adobe Illustrator 18.1.1, SVG Export Plug-In . SVG Version: 6.00 Build 0)  -->
<!DOCTYPE svg PUBLIC "-//W3C//DTD SVG 1.1//EN" "http://www.w3.org/Graphics/SVG/1.1/DTD/svg11.dtd">
<svg version="1.1" id="Layer_1" xmlns="http://www.w3.org/2000/svg" xmlns:xlink="http://www.w3.org/1999/xlink" x="0px" y="0px"
	 viewBox="0 0 1920 1080" enable-background="new 0 0 1920 1080" xml:space="preserve">
<g>
	<g>
		<g>
			<path fill="#1E7A85" d="M232,425.4h48.9v-58.6H232V425.4z M274.8,372.6v46.9h-30.5v-46.9H274.8z"/>
		</g>
	</g>
	<g>
		<g>
			<path fill="#1E7A85" d="M232,350.2h48.9v-58.6H232V350.2z M274.8,297.4v46.9h-30.5v-46.9H274.8z"/>
		</g>
	</g>
	<g>
		<g>
			<path fill="#1E7A85" d="M232,500.5h48.9v-58.6H232V500.5z M274.8,447.8v46.9h-30.5v-46.9H274.8z"/>
		</g>
	</g>
	<g>
		<g>
			<path fill="#1E7A85" d="M232,575.7h48.9v-58.6H232V575.7z M274.8,522.9v46.9h-30.5v-46.9H274.8z"/>
		</g>
	</g>
	<g>
		<g>
			<path fill="#1E7A85" d="M232,650.9h48.9v-58.6H232V650.9z M274.8,598.1V645h-30.5v-46.9H274.8z"/>
		</g>
	</g>
	<g>
		<g>
			<path fill="#1E7A85" d="M232,726.1h48.9v-58.6H232V726.1z M274.8,673.3v46.9h-30.5v-46.9H274.8z"/>
		</g>
	</g>
	<g>
		<g>
			<path fill="#1E7A85" d="M232,801.2h48.9v-58.6H232V801.2z M274.8,748.5v46.9h-30.5v-46.9H274.8z"/>
		</g>
	</g>
	<g>
		<g>
			<path fill="#1E7A85" d="M1175,226.2V275h58.6v-48.9H1175z M1227.7,268.9h-46.9v-30.5h46.9V268.9z"/>
		</g>
	</g>
	<g>
		<g>
			<path fill="#1E7A85" d="M1099.8,226.2V275h58.6v-48.9H1099.8z M1152.6,268.9h-46.9v-30.5h46.9V268.9z"/>
		</g>
	</g>
	<g>
		<g>
			<path fill="#1E7A85" d="M657.2,226.2V275h58.6v-48.9H657.2z M709.9,268.9H663v-30.5h46.9V268.9z"/>
		</g>
	</g>
	<g>
		<g>
			<path fill="#1E7A85" d="M583.6,226.2V275h58.6v-48.9H583.6z M636.3,268.9h-46.9v-30.5h46.9V268.9z"/>
		</g>
	</g>
	<g>
		<g>
			<path fill="#1E7A85" d="M510,226.2V275h58.6v-48.9H510z M562.7,268.9h-46.9v-30.5h46.9V268.9z"/>
		</g>
	</g>
	<g>
		<g>
			<path fill="#1E7A85" d="M436.4,226.2V275H495v-48.9H436.4z M489.1,268.9h-46.9v-30.5h46.9V268.9z"/>
		</g>
	</g>
	<g>
		<g>
			<path fill="#1E7A85" d="M362.8,226.2V275h58.6v-48.9H362.8z M415.5,268.9h-46.9v-30.5h46.9V268.9z"/>
		</g>
	</g>
	<g>
		<g>
			<path fill="#1E7A85" d="M289.2,226.2V275h58.6v-48.9H289.2z M341.9,268.9H295v-30.5h46.9V268.9z"/>
		</g>
	</g>
	<g>
		<g>
			<path fill="#1E7A85" d="M1025.2,226.2V275h58.6v-48.9H1025.2z M1078,268.9H1031v-30.5h46.9V268.9z"/>
		</g>
	</g>
	<g>
		<g>
			<path fill="#1E7A85" d="M951.6,226.2V275h58.6v-48.9H951.6z M1004.4,268.9h-46.9v-30.5h46.9V268.9z"/>
		</g>
	</g>
	<g>
		<g>
			<path fill="#1E7A85" d="M878,226.2V275h58.6v-48.9H878z M930.8,268.9h-46.9v-30.5h46.9V268.9z"/>
		</g>
	</g>
	<g>
		<g>
			<path fill="#1E7A85" d="M804.4,226.2V275H863v-48.9H804.4z M857.2,268.9h-46.9v-30.5h46.9V268.9z"/>
		</g>
	</g>
	<g>
		<g>
			<path fill="#1E7A85" d="M730.8,226.2V275h58.6v-48.9H730.8z M783.5,268.9h-46.9v-30.5h46.9V268.9z"/>
		</g>
	</g>
	<g>
		<g>
			<path fill="#1E7A85" d="M1011.9,878.9v-48.9h-58.6v48.9H1011.9z M959.1,836.2h46.9v30.5h-46.9V836.2z"/>
		</g>
	</g>
	<g>
		<g>
			<path fill="#1E7A85" d="M1085.5,878.9v-48.9h-58.6v48.9H1085.5z M1032.7,836.2h46.9v30.5h-46.9V836.2z"/>
		</g>
	</g>
	<g>
		<g>
			<path fill="#1E7A85" d="M1159.1,878.9v-48.9h-58.6v48.9H1159.1z M1106.3,836.2h46.9v30.5h-46.9V836.2z"/>
		</g>
	</g>
	<g>
		<g>
			<path fill="#1E7A85" d="M1232.7,878.9v-48.9H1174v48.9H1232.7z M1179.9,836.2h46.9v30.5h-46.9V836.2z"/>
		</g>
	</g>
	<g>
		<g>
			<path fill="#1E7A85" d="M570.3,878.9v-48.9h-58.6v48.9H570.3z M517.5,836.2h46.9v30.5h-46.9V836.2z"/>
		</g>
	</g>
	<g>
		<g>
			<path fill="#1E7A85" d="M643.9,878.9v-48.9h-58.6v48.9H643.9z M591.1,836.2H638v30.5h-46.9V836.2z"/>
		</g>
	</g>
	<g>
		<g>
			<path fill="#1E7A85" d="M717.5,878.9v-48.9h-58.6v48.9H717.5z M664.7,836.2h46.9v30.5h-46.9V836.2z"/>
		</g>
	</g>
	<g>
		<g>
			<path fill="#1E7A85" d="M791.1,878.9v-48.9h-58.6v48.9H791.1z M738.3,836.2h46.9v30.5h-46.9V836.2z"/>
		</g>
	</g>
	<g>
		<g>
			<path fill="#1E7A85" d="M864.7,878.9v-48.9H806v48.9H864.7z M811.9,836.2h46.9v30.5h-46.9V836.2z"/>
		</g>
	</g>
	<g>
		<g>
			<path fill="#1E7A85" d="M938.3,878.9v-48.9h-58.6v48.9H938.3z M885.5,836.2h46.9v30.5h-46.9V836.2z"/>
		</g>
	</g>
</g>
</svg>
